<svg width="134" height="41" viewBox="0 0 134 41" fill="none" xmlns="http://www.w3.org/2000/svg">
<rect width="134" height="40.0623" rx="8" fill="white"/>
<path d="M40.7753 20.7626C40.7492 17.8566 43.1554 16.4429 43.2654 16.3771C41.9027 14.3908 39.7905 14.1194 39.0483 14.0978C37.2743 13.9111 35.5536 15.159 34.6499 15.159C33.7282 15.159 32.3366 14.1158 30.8369 14.1465C28.9069 14.1762 27.1014 15.2933 26.1111 17.028C24.0675 20.5651 25.5916 25.7629 27.5496 28.622C28.529 30.0231 29.6735 31.5856 31.1714 31.5306C32.637 31.4711 33.1844 30.5974 34.9529 30.5974C36.7053 30.5974 37.2193 31.5306 38.7471 31.4954C40.3199 31.4711 41.3101 30.0889 42.2553 28.6761C43.3871 27.0721 43.8417 25.4907 43.8597 25.4095C43.8236 25.3969 40.806 24.2446 40.7753 20.7626ZM37.8894 12.217C38.6776 11.2315 39.2169 9.89082 39.0672 8.53027C37.9264 8.58076 36.4996 9.31919 35.678 10.283C34.9511 11.1324 34.3018 12.5245 34.4695 13.8336C35.7511 13.9292 37.0669 13.1871 37.8894 12.217Z" fill="#231F20"/>
<path d="M54.2382 11.976V13.192C54.2382 14.5413 54.0248 15.576 53.5982 16.296H56.4142V11.976H54.2382ZM57.7902 18.216H57.0862V17H52.9342V18.216H52.2302V16.296H52.7662C53.0062 16.0507 53.1928 15.648 53.3262 15.088C53.4595 14.5227 53.5235 13.8853 53.5182 13.176V11.272H57.1502V16.296H57.7902V18.216ZM58.2592 15.04C58.2592 14.4373 58.4485 13.9387 58.8272 13.544C59.2112 13.1493 59.6938 12.952 60.2752 12.952C60.8565 12.952 61.3365 13.1493 61.7152 13.544C62.0992 13.9387 62.2912 14.4373 62.2912 15.04C62.2912 15.648 62.0992 16.1467 61.7152 16.536C61.3365 16.9307 60.8565 17.128 60.2752 17.128C59.6938 17.128 59.2112 16.9307 58.8272 16.536C58.4485 16.1413 58.2592 15.6427 58.2592 15.04ZM58.9952 15.04C58.9952 15.4613 59.1178 15.8027 59.3632 16.064C59.6085 16.3253 59.9125 16.456 60.2752 16.456C60.6378 16.456 60.9418 16.3253 61.1872 16.064C61.4325 15.8027 61.5552 15.4613 61.5552 15.04C61.5552 14.624 61.4325 14.2853 61.1872 14.024C60.9365 13.7573 60.6325 13.624 60.2752 13.624C59.9178 13.624 59.6138 13.7573 59.3632 14.024C59.1178 14.2853 58.9952 14.624 58.9952 15.04ZM64.7517 17.128C64.1704 17.128 63.6877 16.9307 63.3037 16.536C62.9251 16.1307 62.7357 15.632 62.7357 15.04C62.7357 14.4373 62.9251 13.9387 63.3037 13.544C63.6877 13.1493 64.1704 12.952 64.7517 12.952C65.1517 12.952 65.5011 13.0533 65.7997 13.256C66.0984 13.4533 66.3224 13.728 66.4717 14.08L65.7997 14.36C65.5917 13.8693 65.2264 13.624 64.7037 13.624C64.3677 13.624 64.0771 13.76 63.8317 14.032C63.5917 14.304 63.4717 14.64 63.4717 15.04C63.4717 15.44 63.5917 15.776 63.8317 16.048C64.0771 16.32 64.3677 16.456 64.7037 16.456C65.2424 16.456 65.6211 16.2107 65.8397 15.72L66.4957 16C66.3517 16.352 66.1251 16.6293 65.8157 16.832C65.5117 17.0293 65.1571 17.128 64.7517 17.128ZM70.1154 13.08V13.752H68.8674V17H68.1314V13.752H66.8834V13.08H70.1154ZM74.0653 13.08L71.6093 18.728H70.8493L71.7613 16.752L70.1453 13.08H70.9453L72.1133 15.896H72.1293L73.2653 13.08H74.0653ZM75.2817 17H74.5457V13.08H77.8577V17H77.1217V13.752H75.2817V17ZM82.2286 13.08V17H81.4926V15.384H79.4926V17H78.7566V13.08H79.4926V14.696H81.4926V13.08H82.2286ZM82.8607 15.04C82.8607 14.4373 83.0501 13.9387 83.4287 13.544C83.8127 13.1493 84.2954 12.952 84.8767 12.952C85.4581 12.952 85.9381 13.1493 86.3167 13.544C86.7007 13.9387 86.8927 14.4373 86.8927 15.04C86.8927 15.648 86.7007 16.1467 86.3167 16.536C85.9381 16.9307 85.4581 17.128 84.8767 17.128C84.2954 17.128 83.8127 16.9307 83.4287 16.536C83.0501 16.1413 82.8607 15.6427 82.8607 15.04ZM83.5967 15.04C83.5967 15.4613 83.7194 15.8027 83.9647 16.064C84.2101 16.3253 84.5141 16.456 84.8767 16.456C85.2394 16.456 85.5434 16.3253 85.7887 16.064C86.0341 15.8027 86.1567 15.4613 86.1567 15.04C86.1567 14.624 86.0341 14.2853 85.7887 14.024C85.5381 13.7573 85.2341 13.624 84.8767 13.624C84.5194 13.624 84.2154 13.7573 83.9647 14.024C83.7194 14.2853 83.5967 14.624 83.5967 15.04ZM90.0551 13.752V14.712H91.2311C91.3644 14.712 91.4818 14.6667 91.5831 14.576C91.6844 14.48 91.7351 14.3653 91.7351 14.232C91.7351 14.0987 91.6844 13.9867 91.5831 13.896C91.4818 13.8 91.3644 13.752 91.2311 13.752H90.0551ZM91.8631 15.816C91.8631 15.6773 91.8071 15.5573 91.6951 15.456C91.5884 15.3547 91.4631 15.304 91.3191 15.304H90.0551V16.328H91.3191C91.4684 16.328 91.5964 16.28 91.7031 16.184C91.8098 16.0827 91.8631 15.96 91.8631 15.816ZM89.3191 17V13.08H91.2791C91.6044 13.08 91.8844 13.1893 92.1191 13.408C92.3538 13.6267 92.4711 13.888 92.4711 14.192C92.4711 14.5547 92.3004 14.816 91.9591 14.976V15.008C92.3964 15.1733 92.6151 15.456 92.6151 15.856C92.6151 16.176 92.4951 16.448 92.2551 16.672C92.0098 16.8907 91.7218 17 91.3911 17H89.3191Z" fill="#231F20"/>
<path d="M59.8917 30.3159H58.268L57.3787 27.6195H54.2873L53.4401 30.3159H51.8594L54.9229 21.1359H56.8146L59.8917 30.3159ZM57.1106 26.4882L56.3063 24.0911C56.2212 23.8462 56.061 23.2695 55.8265 22.3617H55.7979C55.7036 22.7521 55.5527 23.3288 55.3461 24.0911L54.5554 26.4882H57.1106ZM67.7545 26.9248C67.7545 28.0506 67.4378 28.9404 66.8036 29.5937C66.236 30.1752 65.5303 30.4656 64.6889 30.4656C63.7802 30.4656 63.1267 30.1531 62.7299 29.5268V33H61.2057V25.8722C61.2057 25.1651 61.1864 24.4401 61.1492 23.6965H62.4897L62.5748 24.7457H62.6034C63.1117 23.9552 63.8831 23.5599 64.9184 23.5599C65.7277 23.5599 66.4033 23.8682 66.9438 24.4856C67.4835 25.1044 67.7545 25.917 67.7545 26.9248ZM66.2017 26.9786C66.2017 26.3343 66.0515 25.8032 65.7498 25.3845C65.4202 24.9492 64.9777 24.7312 64.4229 24.7312C64.0468 24.7312 63.7051 24.8526 63.3998 25.092C63.0938 25.3334 62.8937 25.6487 62.8 26.0391C62.7582 26.1851 62.7344 26.3354 62.7292 26.4868V27.5912C62.7292 28.072 62.8822 28.4783 63.1882 28.8108C63.4942 29.1419 63.8917 29.3081 64.3807 29.3081C64.9548 29.3081 65.4016 29.0936 65.7212 28.668C66.0415 28.241 66.2017 27.6781 66.2017 26.9786ZM75.6452 26.9248C75.6452 28.0506 75.3285 28.9404 74.6944 29.5937C74.126 30.1752 73.4211 30.4656 72.5789 30.4656C71.6702 30.4656 71.0167 30.1531 70.6199 29.5268V33H69.0957V25.8722C69.0957 25.1651 69.0764 24.4401 69.0392 23.6965H70.3797L70.4648 24.7457H70.4934C71.001 23.9552 71.7724 23.5599 72.8084 23.5599C73.6169 23.5599 74.2926 23.8682 74.8345 24.4856C75.3735 25.1044 75.6452 25.917 75.6452 26.9248ZM74.0917 26.9786C74.0917 26.3343 73.9408 25.8032 73.6391 25.3845C73.3095 24.9492 72.8684 24.7312 72.3136 24.7312C71.9376 24.7312 71.5958 24.8526 71.2891 25.092C70.9831 25.3334 70.7837 25.6487 70.69 26.0391C70.6435 26.2212 70.6185 26.3695 70.6185 26.4868V27.5912C70.6185 28.072 70.7722 28.4783 71.0768 28.8108C71.3828 29.1412 71.7803 29.3081 72.2707 29.3081C72.8455 29.3081 73.2924 29.0936 73.6112 28.668C73.9315 28.241 74.0917 27.6781 74.0917 26.9786ZM84.4675 27.7409C84.4675 28.5224 84.1844 29.1577 83.6217 29.6482C83.0026 30.1835 82.1382 30.4518 81.0301 30.4518C80.0063 30.4518 79.1856 30.2614 78.5664 29.88L78.9189 28.6542C79.5874 29.0363 80.3216 29.2267 81.1209 29.2267C81.6957 29.2267 82.1425 29.1012 82.4614 28.8521C82.781 28.6024 82.9425 28.2686 82.9425 27.8519C82.9425 27.4787 82.8088 27.1662 82.5465 26.9117C82.2827 26.6579 81.8465 26.4212 81.2338 26.204C79.5681 25.6045 78.7344 24.7278 78.7344 23.5744C78.7344 22.8211 79.029 22.2044 79.6167 21.7222C80.2043 21.2407 80.9836 21 81.9531 21C82.8189 21 83.5402 21.1456 84.1129 21.436L83.7304 22.6349C83.1913 22.3534 82.5829 22.2127 81.9023 22.2127C81.3647 22.2127 80.9429 22.3403 80.6412 22.5942C80.3874 22.8211 80.2587 23.0977 80.2587 23.4261C80.2587 23.7882 80.4052 24.089 80.6969 24.3249C80.95 24.5422 81.4119 24.7788 82.0796 25.0326C82.8989 25.3513 83.5009 25.7225 83.8862 26.1488C84.2745 26.5751 84.4675 27.1069 84.4675 27.7409ZM89.5199 24.8002H87.8398V28.014C87.8398 28.8315 88.1358 29.2391 88.7292 29.2391C89.0016 29.2391 89.2275 29.2171 89.4062 29.1708L89.4484 30.2877C89.1482 30.396 88.7528 30.4504 88.2631 30.4504C87.6611 30.4504 87.1907 30.2732 86.8511 29.9186C86.5129 29.564 86.3428 28.9701 86.3428 28.1341V24.7974H85.3419V23.6937H86.3428V22.4817L87.8398 22.0458V23.6937H89.5199V24.8002ZM97.0854 26.9517C97.0854 27.9692 96.7837 28.8046 96.1817 29.4578C95.5518 30.1304 94.7139 30.4656 93.6694 30.4656C92.6613 30.4656 91.8599 30.1435 91.2622 29.4999C90.6645 28.8549 90.3657 28.0423 90.3657 27.0621C90.3657 26.0363 90.6745 25.1961 91.2901 24.5429C91.9071 23.8889 92.7378 23.562 93.7824 23.562C94.789 23.562 95.5976 23.8848 96.2096 24.5291C96.7944 25.1541 97.0854 25.9611 97.0854 26.9517ZM95.5053 26.9855C95.5053 26.3792 95.3695 25.859 95.0971 25.4238C94.7775 24.8981 94.32 24.6353 93.7273 24.6353C93.1168 24.6353 92.6485 24.8981 92.3296 25.4238C92.0565 25.859 91.9207 26.3881 91.9207 27.0131C91.9207 27.6201 92.0565 28.1416 92.3296 28.5755C92.6592 29.1012 93.1189 29.364 93.7144 29.364C94.2971 29.364 94.754 29.0957 95.0843 28.5624C95.3645 28.1168 95.5053 27.5932 95.5053 26.9855ZM102.042 24.9899C101.883 24.9623 101.723 24.9486 101.562 24.9492C101.025 24.9492 100.611 25.1437 100.319 25.5355C100.066 25.8804 99.9387 26.3164 99.9387 26.8427V30.3159H98.4144V25.7811C98.4158 25.0862 98.401 24.3914 98.3701 23.6972H99.6977L99.7535 24.9637H99.7957C99.9572 24.5284 100.21 24.1773 100.558 23.9145C100.876 23.6848 101.262 23.5604 101.659 23.5599C101.8 23.5599 101.928 23.5696 102.041 23.5868L102.042 24.9899ZM108.859 26.693C108.863 26.9166 108.844 27.14 108.803 27.3601H104.23C104.248 28.014 104.469 28.5148 104.894 28.8597C105.279 29.1674 105.778 29.3219 106.389 29.3219C107.067 29.3219 107.684 29.2184 108.24 29.0094L108.479 30.0297C107.829 30.3028 107.063 30.4387 106.179 30.4387C105.115 30.4387 104.28 30.1366 103.672 29.5337C103.066 28.9301 102.762 28.1189 102.762 27.1028C102.762 26.1053 103.044 25.2741 103.61 24.6112C104.202 23.9034 105.002 23.5496 106.008 23.5496C106.997 23.5496 107.746 23.9034 108.254 24.6112C108.657 25.172 108.859 25.8673 108.859 26.693ZM107.405 26.3116C107.416 25.8749 107.316 25.499 107.109 25.181C106.846 24.7712 106.44 24.567 105.895 24.567C105.397 24.567 104.991 24.7664 104.682 25.1665C104.428 25.4845 104.278 25.8666 104.231 26.3102L107.405 26.3116Z" fill="#231F20"/>
</svg>
