<svg width="32" height="32" viewBox="0 0 32 32" fill="none" xmlns="http://www.w3.org/2000/svg">
<path d="M15.9993 29.3334C19.6812 29.3334 23.0146 27.841 25.4274 25.4281C27.8403 23.0153 29.3327 19.6819 29.3327 16C29.3327 12.3181 27.8403 8.98479 25.4274 6.57193C23.0146 4.15907 19.6812 2.66669 15.9993 2.66669C12.3175 2.66669 8.98412 4.15907 6.57126 6.57193C4.1584 8.98479 2.66602 12.3181 2.66602 16C2.66602 19.6819 4.1584 23.0153 6.57126 25.4281C8.98412 27.841 12.3175 29.3334 15.9993 29.3334Z" stroke="#F0593E" stroke-width="2" stroke-linejoin="round"/>
<path fill-rule="evenodd" clip-rule="evenodd" d="M15.9987 24.6666C16.9192 24.6666 17.6654 23.9205 17.6654 23C17.6654 22.0795 16.9192 21.3333 15.9987 21.3333C15.0782 21.3333 14.332 22.0795 14.332 23C14.332 23.9205 15.0782 24.6666 15.9987 24.6666Z" fill="#F0593E"/>
<path d="M15.9993 8V18.6667" stroke="#F0593E" stroke-width="2" stroke-linecap="round" stroke-linejoin="round"/>
</svg>
