<svg width="58" height="33" viewBox="0 0 58 33" fill="none" xmlns="http://www.w3.org/2000/svg">
<g clip-path="url(#clip0_1_1198)">
<path d="M24.9673 11.5787C25.0027 11.4427 25.0054 11.3002 24.9751 11.1629C24.9448 11.0256 24.8824 10.8973 24.793 10.7886C24.6065 10.6464 24.3734 10.5788 24.1395 10.599C24.0034 10.5896 23.8671 10.6127 23.7417 10.6663C23.6164 10.7199 23.5056 10.8024 23.4185 10.9071C23.1333 11.2469 23.0937 11.8395 23.0937 12.3649V12.8508C23.0567 13.3451 23.1833 13.8378 23.4542 14.2533C23.5779 14.3727 23.7244 14.466 23.885 14.5278C24.0456 14.5896 24.217 14.6185 24.389 14.6128C24.6963 14.6131 25.0005 14.5527 25.2842 14.435C25.493 14.343 25.6877 14.222 25.8625 14.0755L26.3814 14.9605C25.7901 15.4017 25.0721 15.6414 24.3336 15.6439C23.9742 15.6611 23.6155 15.5993 23.2828 15.4627C22.9501 15.3262 22.6516 15.1183 22.4085 14.8538C21.9168 14.2185 21.6733 13.4267 21.7232 12.6257C21.7232 11.9145 21.8143 10.9743 22.4005 10.3224C22.6349 10.0771 22.92 9.88575 23.236 9.76157C23.5521 9.6374 23.8915 9.58343 24.2306 9.60343C24.7328 9.58477 25.2317 9.69351 25.6803 9.91948C25.9334 10.0853 26.1218 10.3326 26.214 10.6202C26.3063 10.9078 26.2969 11.2182 26.1873 11.4997L24.9673 11.5787Z" fill="#006991"/>
<path d="M29.5251 10.7175L29.4934 11.7961C29.4783 12.4262 29.4307 13.0552 29.3508 13.6805C29.324 14.2228 29.105 14.7381 28.7328 15.1343C28.5107 15.3207 28.2529 15.4603 27.9751 15.5445C27.6973 15.6287 27.4053 15.6558 27.1167 15.6242L27.0098 14.4667C27.2041 14.4958 27.4026 14.4639 27.5779 14.3754C27.7533 14.2869 27.8966 14.1463 27.9882 13.9729C28.1393 13.5699 28.2158 13.1429 28.2139 12.7126C28.2456 12.2622 28.2892 11.405 28.305 10.8795L28.3407 9.69434H31.9057V15.5254H30.5668V10.7175H29.5251Z" fill="#006991"/>
<path d="M34.4409 9.6864L35.1776 11.3615C35.3633 11.7888 35.5233 12.2268 35.6569 12.6731H35.6886C35.7995 12.3057 35.9817 11.7526 36.1243 11.3852L36.7779 9.7022H38.0494L36.1758 14.2059C36.055 14.5497 35.874 14.8694 35.6411 15.1501C35.4951 15.3186 35.3116 15.4507 35.1052 15.5358C34.8989 15.6208 34.6754 15.6565 34.4528 15.64C34.0698 15.6381 33.6962 15.5226 33.3793 15.3081L33.7754 14.4232C33.9521 14.5554 34.1647 14.6312 34.3854 14.6405C34.627 14.6405 34.7261 14.4983 34.8885 14.1545L34.9954 13.9215L32.9277 9.6864H34.4409Z" fill="#006991"/>
<path d="M42.7783 11.9619H43.0714C43.2113 11.9676 43.3495 11.9303 43.4675 11.8553C43.5678 11.7408 43.6421 11.606 43.6854 11.4602L43.9706 10.595C44.0071 10.4032 44.0881 10.2226 44.2071 10.0676C44.3261 9.91256 44.4797 9.78743 44.6558 9.70218C44.8352 9.6276 45.0279 9.58998 45.2223 9.59156C45.4631 9.58811 45.7015 9.63945 45.9194 9.74168L45.7055 10.6977C45.601 10.6369 45.4819 10.6055 45.3609 10.6069C45.3102 10.6052 45.2597 10.6154 45.2136 10.6366C45.1675 10.6579 45.1271 10.6897 45.0955 10.7293C44.9992 10.892 44.9309 11.0696 44.8935 11.2548L44.8024 11.555C44.7402 11.7732 44.6381 11.9782 44.5014 12.1595C44.3687 12.3026 44.1963 12.403 44.0062 12.4479V12.4755C44.322 12.5251 44.606 12.695 44.7984 12.9496C44.9467 13.1516 45.0592 13.3774 45.1312 13.6172L45.7848 15.5451H44.4221L43.8715 13.9017C43.8078 13.6408 43.6905 13.396 43.5269 13.1827C43.3794 13.0529 43.1888 12.9825 42.9922 12.9851H42.7743V15.5451H41.4672V12.9654H41.2493C41.0526 12.9627 40.862 13.0332 40.7145 13.1629C40.5514 13.3759 40.4353 13.621 40.3739 13.8819L39.8233 15.5254H38.4607L39.1143 13.5975C39.1862 13.3577 39.2988 13.1318 39.447 12.9298C39.6394 12.6753 39.9235 12.5053 40.2392 12.4558V12.4281C40.0491 12.3832 39.8767 12.2828 39.7441 12.1397C39.6088 11.9575 39.5069 11.7529 39.443 11.5353L39.3519 11.235C39.3167 11.0492 39.2482 10.8713 39.1499 10.7096C39.1184 10.6699 39.0779 10.6381 39.0318 10.6169C38.9857 10.5956 38.9353 10.5854 38.8845 10.5871C38.7635 10.5858 38.6444 10.6172 38.5399 10.678L38.3379 9.73378C38.5558 9.63155 38.7942 9.58021 39.035 9.58366C39.2294 9.58208 39.4221 9.6197 39.6015 9.69428C39.7776 9.78006 39.9314 9.90527 40.051 10.0602C40.1705 10.215 40.2526 10.3954 40.2907 10.5871L40.5719 11.4523C40.6152 11.5981 40.6895 11.7329 40.7898 11.8474C40.9078 11.9224 41.0461 11.9597 41.1859 11.954H41.479V9.68638H42.7862L42.7783 11.9619Z" fill="#006991"/>
<path d="M47.1074 9.68652H50.8309V10.7176H48.4146V11.9305H48.8305C49.4558 11.8831 50.0813 12.0205 50.6288 12.3255C50.8551 12.4777 51.0396 12.684 51.1655 12.9255C51.2914 13.167 51.3548 13.4361 51.3498 13.7083C51.3495 13.9621 51.2942 14.2129 51.1875 14.4434C51.0808 14.674 50.9254 14.8787 50.7318 15.0436C50.206 15.4062 49.5707 15.5764 48.9335 15.5255H47.1074V9.68652ZM48.4146 14.526H49.183C49.2988 14.5272 49.4134 14.503 49.5188 14.4552C49.6242 14.4075 49.7178 14.3372 49.793 14.2495C49.9163 14.0961 49.9821 13.9048 49.9792 13.7083C49.9849 13.5944 49.9626 13.4809 49.9143 13.3776C49.866 13.2744 49.7931 13.1844 49.7019 13.1157C49.5209 12.9748 49.2928 12.9084 49.0642 12.93H48.4146V14.526Z" fill="#006991"/>
<path d="M57.2888 15.5255H55.8668L55.3201 14.1231H53.5456L53.0187 15.5255H51.8066L54.0843 9.68652H55.0547L57.2888 15.5255ZM55.0032 13.1236L54.8012 12.5705C54.656 12.2071 54.5382 11.8333 54.4487 11.4524H54.3972C54.314 11.7883 54.1793 12.2426 54.0407 12.6376L53.8704 13.1157L55.0032 13.1236Z" fill="#006991"/>
<path d="M23.3171 19.0533H23.8954C24.0353 19.0589 24.1735 19.0217 24.2915 18.9466C24.3915 18.8319 24.4658 18.6972 24.5094 18.5516L24.7946 17.6824C24.8317 17.4909 24.9129 17.3105 25.0318 17.1556C25.1508 17.0006 25.3041 16.8753 25.4799 16.7896C25.6596 16.7167 25.8522 16.6804 26.0463 16.6829C26.2974 16.6781 26.5465 16.7294 26.7751 16.833L26.5771 17.7733C26.4715 17.7152 26.3531 17.684 26.2325 17.6824C26.18 17.6796 26.1277 17.6896 26.08 17.7117C26.0323 17.7337 25.9908 17.7671 25.9591 17.8089C25.863 17.9712 25.796 18.149 25.7611 18.3343L25.666 18.6345C25.6055 18.8522 25.5032 19.0561 25.365 19.235C25.2343 19.3793 25.0632 19.4811 24.8738 19.5274V19.5511C25.0312 19.5738 25.1824 19.6279 25.3185 19.71C25.4546 19.7921 25.5728 19.9006 25.666 20.0291C25.8176 20.2282 25.9317 20.4531 26.0027 20.6928L26.6563 22.6207H25.2501L24.6995 20.9693C24.6407 20.7128 24.5302 20.4708 24.3747 20.2582C24.2278 20.127 24.0371 20.0552 23.84 20.0568H23.3171V22.6168H21.998V16.7777H23.3012L23.3171 19.0533Z" fill="#006991"/>
<path d="M30.0151 16.7778C30.5684 16.7366 31.1212 16.8648 31.5995 17.1452C31.8143 17.2933 31.9875 17.4937 32.1026 17.7275C32.2177 17.9612 32.2709 18.2205 32.257 18.4805C32.2644 18.7097 32.2255 18.938 32.1424 19.1518C32.0594 19.3656 31.934 19.5606 31.7738 19.725C31.317 20.1135 30.7244 20.3053 30.126 20.2583H29.2545V22.6287H27.9395V16.7778H30.0151ZM29.2545 19.2549H29.9992C30.2439 19.2668 30.4854 19.1958 30.6845 19.0534C30.8181 18.9077 30.8922 18.7175 30.8922 18.5201C30.8922 18.3226 30.8181 18.1324 30.6845 17.9867C30.4948 17.8371 30.2564 17.7626 30.0151 17.7773H29.2545V19.2549Z" fill="#006991"/>
<path d="M37.1218 17.4455C37.6114 18.0903 37.8493 18.8906 37.7912 19.6974C37.8493 20.5041 37.6114 21.3044 37.1218 21.9492C36.8798 22.1931 36.5917 22.3868 36.2742 22.5189C35.9567 22.6511 35.616 22.7191 35.272 22.7191C34.9279 22.7191 34.5873 22.6511 34.2698 22.5189C33.9523 22.3868 33.6642 22.1931 33.4222 21.9492C32.9326 21.3044 32.6946 20.5041 32.7527 19.6974C32.6946 18.8906 32.9326 18.0903 33.4222 17.4455C33.6647 17.2026 33.953 17.0098 34.2704 16.8782C34.5879 16.7467 34.9282 16.679 35.272 16.679C35.6157 16.679 35.9561 16.7467 36.2736 16.8782C36.591 17.0098 36.8793 17.2026 37.1218 17.4455ZM36.4167 19.3892C36.4167 19.0495 36.4167 18.3463 36.084 17.9788C35.8638 17.7733 35.5736 17.659 35.272 17.659C34.9704 17.659 34.6801 17.7733 34.46 17.9788C34.2342 18.2317 34.1272 18.6821 34.1272 19.3892V19.9818C34.1272 20.7008 34.2342 21.167 34.46 21.4001C34.6801 21.6056 34.9704 21.72 35.272 21.72C35.5736 21.72 35.8638 21.6056 36.084 21.4001C36.3098 21.1512 36.4167 20.7008 36.4167 19.9818V19.3892Z" fill="#006991"/>
<path d="M40.9669 16.7778C41.5203 16.7352 42.0735 16.8635 42.5513 17.1452C42.7304 17.284 42.8722 17.4649 42.9641 17.6717C43.056 17.8785 43.0952 18.1048 43.0781 18.3303C43.0785 18.589 43.016 18.8438 42.8959 19.0731C42.7716 19.2916 42.5716 19.4574 42.3335 19.5392V19.5629C42.601 19.6381 42.8337 19.8045 42.991 20.0331C43.1683 20.2774 43.2602 20.573 43.2524 20.8745C43.2574 21.1125 43.2132 21.349 43.1225 21.5692C43.0319 21.7894 42.8968 21.9887 42.7256 22.1545C42.2542 22.5496 41.5373 22.6049 41.0104 22.6049H38.9863V16.7778H40.9669ZM40.2895 19.081H40.951C41.0669 19.0947 41.1844 19.0816 41.2944 19.0425C41.4043 19.0034 41.5037 18.9395 41.5848 18.8558C41.6769 18.7446 41.7274 18.6049 41.7274 18.4607C41.7364 18.3665 41.7255 18.2714 41.6955 18.1816C41.6655 18.0918 41.617 18.0093 41.5531 17.9392C41.4121 17.8233 41.2326 17.7641 41.0501 17.7733H40.2895V19.081ZM40.2895 21.6173H41.0817C41.1889 21.63 41.2975 21.6183 41.3994 21.5831C41.5013 21.5478 41.5939 21.49 41.6701 21.414C41.7464 21.3379 41.8044 21.2456 41.8397 21.1439C41.875 21.0423 41.8867 20.934 41.874 20.8271C41.881 20.7176 41.8621 20.6079 41.8187 20.5071C41.7754 20.4062 41.7088 20.3169 41.6244 20.2464C41.4204 20.1101 41.1759 20.0474 40.9312 20.0686H40.2776L40.2895 21.6173Z" fill="#006991"/>
<path d="M49.4293 22.6168H48.1261V20.282L48.1736 18.7887H48.134L45.789 22.6168H44.5215V16.7778H45.8247V19.1126L45.7732 20.606H45.8168L48.1578 16.7778H49.4293V22.6168Z" fill="#006991"/>
<path d="M18.6712 14.0518C18.5643 9.61919 14.52 7.06314 11.3036 10.3026C8.65363 7.03153 4.8589 6.61672 2.70406 8.38264C0.426429 10.3026 -0.0766306 13.2656 0.505651 16.5841C1.5395 22.4626 4.76383 27.4681 5.67488 29.0562C6.4671 30.4784 7.54848 32.2523 8.97051 31.4701C10.3925 30.6878 8.81603 28.2345 8.49122 27.634C7.61186 26.0182 0.545262 13.8819 6.1819 11.4365C7.54056 10.8478 9.02201 11.7407 9.62013 12.2266C8.87692 13.1973 8.43861 14.3658 8.36051 15.5846C8.36051 17.631 9.46961 19.1402 11.0857 19.1402C12.7019 19.1402 14.017 17.5915 14.017 15.6241C14.017 14.2256 13.197 12.8587 12.4682 11.8631C13.8862 10.4962 16.5956 11.8315 16.4293 15.5175C16.3025 18.2039 14.9914 21.4671 12.5395 26.8281C12.4789 26.976 12.4479 27.1344 12.4484 27.2942C12.4436 27.4288 12.4659 27.563 12.5141 27.6889C12.5622 27.8147 12.6351 27.9296 12.7285 28.0269C12.822 28.1241 12.934 28.2017 13.058 28.255C13.182 28.3083 13.3155 28.3362 13.4505 28.3372C14.1595 28.3372 14.5319 27.5826 14.5873 27.472C15.3083 26.0893 16.7897 22.3915 16.9165 22.0518C17.5146 20.4715 18.7544 17.3624 18.6752 14.0202M11.1095 17.3782C10.452 17.3782 9.98059 16.8686 9.98059 15.8256C9.98059 14.7826 11.0659 13.3723 11.0659 13.3723C11.0659 13.3723 12.2741 14.7826 12.2741 15.8256C12.2741 16.8686 11.7631 17.3782 11.1095 17.3782ZM14.0764 8.32734C15.0587 8.22462 15.744 7.09869 15.6133 5.81079C15.4826 4.52289 14.5755 3.56289 13.5971 3.66166C12.6187 3.76042 11.9255 4.8903 12.0602 6.1782C12.1948 7.4661 13.0861 8.4261 14.0764 8.32734ZM5.58378 6.07548C6.77211 6.34018 8.01985 5.21425 8.39616 3.55499C8.77246 1.89573 8.13472 0.335237 6.94639 0.0705459C5.75806 -0.194145 4.51428 0.93178 4.13402 2.58709C3.75375 4.2424 4.40337 5.80684 5.58378 6.07548Z" fill="#ED2D24"/>
</g>
<defs>
<clipPath id="clip0_1_1198">
<rect width="57.4359" height="32" fill="white" transform="translate(0.212891 0.0311279)"/>
</clipPath>
</defs>
</svg>
