<svg width="288" height="164" viewBox="0 0 288 164" fill="none" xmlns="http://www.w3.org/2000/svg">
<g clip-path="url(#clip0_1_631)">
<path d="M59.8929 162.147C73.2601 162.147 84.0963 151.338 84.0963 138.005C84.0963 124.671 73.2601 113.862 59.8929 113.862C46.5257 113.862 35.6895 124.671 35.6895 138.005C35.6895 151.338 46.5257 162.147 59.8929 162.147Z" fill="#231F20" stroke="#231F20" stroke-width="1.7375" stroke-miterlimit="10"/>
<path d="M217.132 163.133C230.468 163.133 241.279 152.35 241.279 139.048C241.279 125.746 230.468 114.963 217.132 114.963C203.797 114.963 192.986 125.746 192.986 139.048C192.986 152.35 203.797 163.133 217.132 163.133Z" fill="#231F20" stroke="#231F20" stroke-width="1.7375" stroke-miterlimit="10"/>
<path d="M9.39732 108.597C9.39732 108.597 6.73546 93.1102 15.5185 89.0391C24.3016 84.968 34.4608 79.9679 34.4608 79.9679C34.4608 79.9679 40.2432 76.3249 43.2595 71.1914L73.367 23.8148C73.367 23.8148 85.6998 1.24785 120.391 1.24785C155.082 1.24785 272.73 0.967083 272.73 0.967083C272.73 0.967083 278.94 0.584063 279.605 3.90299C280.271 7.22191 291.982 93.1102 282.799 126.83L283.864 143.998C283.864 143.998 283.819 147.539 280.359 147.494C276.9 147.449 246.688 147.494 246.688 147.494C246.688 147.494 243.715 147.936 243.715 144.617C243.715 141.298 243.316 117.979 217.01 117.979C190.704 117.979 191.37 145.414 191.37 145.414C191.37 145.414 191.724 147.513 188.93 147.513H91.6438C91.6438 147.513 88.0055 147.714 87.7396 145.059C87.4738 142.404 85.0344 117.27 59.8805 117.27C34.7267 117.27 32.4644 145.412 32.4644 145.412C32.4644 145.412 32.7303 149.196 28.6715 149.196C24.6126 149.196 0.923512 147.979 0.968687 136.298C1.01386 124.617 0.968687 121.518 0.968687 121.518C0.968687 121.518 0.525623 115.102 4.69563 113.244C8.86564 111.386 9.55717 109.79 9.39732 108.597Z" fill="white" stroke="#231F20" stroke-width="1.91125" stroke-miterlimit="10"/>
<path d="M262.173 37.6H200.42V84.0129H262.173V37.6Z" fill="#F0593E"/>
<path d="M263.59 37.6H252.265C250.994 42.2673 248.674 45.3921 246.023 45.3921C243.371 45.3921 241.052 42.2673 239.78 37.6H233.956C233.956 46.4528 230.698 53.6279 226.681 53.6279C222.664 53.6279 219.406 46.451 219.406 37.6H118.615C113.825 37.6 112.049 41.8704 112.049 41.8704V78.6645C113.114 84.3284 117.373 83.9748 117.373 83.9748C117.373 83.9748 175.747 84.0459 219.413 84.0528C219.578 75.5224 222.768 68.7182 226.681 68.7182C230.594 68.7182 233.784 75.5224 233.949 84.0528C238.013 84.0528 241.828 84.0493 245.314 84.0476C245.197 82.9072 245.135 81.72 245.135 80.5016C245.135 71.6489 248.393 64.4737 252.41 64.4737C256.427 64.4737 259.685 71.6506 259.685 80.5016C259.685 81.7114 259.624 82.8899 259.507 84.0233C263.373 84.0112 265.773 83.9956 266.249 83.9748C270.33 83.798 270.507 77.9574 270.507 77.9574V42.9103C270.507 37.7768 263.587 37.6 263.587 37.6H263.59ZM238.748 76.72C234.729 76.72 231.473 69.5431 231.473 60.6921C231.473 51.841 234.731 44.6642 238.748 44.6642C242.765 44.6642 246.023 51.841 246.023 60.6921C246.023 69.5431 242.765 76.72 238.748 76.72Z" fill="#E6E7E9"/>
<path d="M47.5047 84.7459C47.5047 84.7459 52.6946 81.9573 55.4903 81.6921C58.2859 81.4269 99.9409 81.6921 99.9409 81.6921C99.9409 81.6921 105.796 81.862 105.796 75.0733V47.9742C105.796 47.9742 106.196 41.0054 98.8097 41.0054H80.3766C80.3766 41.0054 66.0039 41.0712 59.881 54.0818L45.7742 79.7025C45.7742 79.7025 43.2461 84.2155 47.5047 84.7476V84.7459Z" fill="#939598" stroke="#231F20" stroke-width="1.7375" stroke-miterlimit="10"/>
<path d="M116.442 46.3557V76.1186C116.442 76.1186 115.911 80.4999 120.567 80.4999H163.155C163.155 80.4999 167.997 80.7582 167.997 75.8118V46.3575C167.997 46.3575 167.732 41.0073 162.47 41.0073H121.01C121.01 41.0073 116.44 42.0628 116.44 46.3575L116.442 46.3557Z" fill="#939598" stroke="#231F20" stroke-width="1.7375" stroke-miterlimit="10"/>
<path d="M10.0178 108.597C10.0178 108.597 13.8334 108.597 16.139 105.589C18.4464 102.58 20.7521 95.0564 20.7521 95.0564C20.7521 95.0564 22.5261 91.5745 18.0902 91.3388C15.1608 91.1828 11.7901 93.1083 11.7901 93.1083C11.7901 93.1083 8.59652 96.2938 10.0161 108.596L10.0178 108.597Z" fill="#94C3DA" stroke="#231F20" stroke-width="1.7375" stroke-miterlimit="10"/>
<path d="M8.94216 110.315L37.9046 129.311C37.9046 129.311 32.6052 136.712 31.9154 147.632C31.9154 147.632 31.4064 149.36 28.0738 149.188C24.7413 149.017 0.95312 148.156 0.968758 136.296C0.984395 124.436 0.968758 121.516 0.968758 121.516C0.968758 121.516 0.972233 114.37 4.96328 113.119C8.95433 111.869 8.25237 110.821 8.9439 110.313L8.94216 110.315Z" fill="#57585A" stroke="#231F20" stroke-width="1.7375" stroke-miterlimit="10"/>
<path d="M95.0174 127.093C95.0174 127.093 98.4767 131.207 98.4767 141.033H178.993C178.993 141.033 180.989 128.687 183.251 127.093H95.0156H95.0174Z" fill="#57585A" stroke="#231F20" stroke-width="1.7375" stroke-miterlimit="10"/>
<path d="M257.291 140.235H283.63C283.63 140.235 285.496 139.748 286.299 137.625C287.101 135.5 287.19 131.519 287.101 129.748C287.013 127.979 287.367 126.739 284.705 126.739H254.805C254.805 126.739 257.644 131.961 257.289 140.235H257.291Z" fill="#57585A" stroke="#231F20" stroke-width="1.7375" stroke-miterlimit="10"/>
<path d="M76.0305 102.048C76.0305 102.048 85.7014 103.552 88.6291 110.19C88.6291 110.19 84.5477 98.3302 91.291 94.6144C91.291 94.6144 88.9836 105.5 96.0813 105.412C96.0813 105.412 104.599 105.765 98.6545 94.1725C98.6545 94.1725 104.776 92.0477 108.591 96.916C108.591 96.916 114.092 109.925 99.4521 119.571L187.465 120.545C187.465 120.545 197.136 109.306 202.726 107.537H116.424C116.424 107.537 124.213 97.923 114.358 88.7305C114.358 88.7305 102.62 79.1758 95.0162 91.2522C95.0162 91.2522 89.2494 85.4999 82.5062 90.5433C75.7629 95.5884 76.0288 102.048 76.0288 102.048H76.0305Z" fill="#F0593E"/>
<path d="M94.7502 95.1014C94.7502 95.1014 92.5765 102.315 95.9473 102.535C95.9473 102.535 100.738 101.738 94.7502 95.1014Z" fill="white"/>
<path d="M233.957 107.181C233.957 107.181 243.096 110.367 250.371 120.545H272.375L277.699 107.181H233.959H233.957Z" fill="#F0593E"/>
<path d="M75.4141 31.1162C75.4141 31.1162 78.9638 28.948 82.3345 28.948H272.913V16.2477H106.958C106.958 16.2477 91.5607 16.0935 75.4141 31.1162Z" fill="#F0593E"/>
<path d="M82.8226 41.8062H99.5026L89.2478 80.7234H70.8164L82.8226 41.8062Z" fill="#E6E7E9"/>
<path d="M146.239 41.8687H162.919L152.664 79.5328H134.232L146.239 41.8687Z" fill="#E6E7E9"/>
<path d="M66.5648 80.6975L79.0522 41.957C79.0522 41.957 75.8205 42.3695 74.9048 42.7525C74.4027 42.9605 62.3652 80.6992 62.3652 80.6992H66.5648V80.6975Z" fill="#E6E7E9"/>
<path d="M131.378 79.5328L143.533 41.8687H139.658C139.115 41.8687 127.18 79.5328 127.18 79.5328H131.379H131.378Z" fill="#E6E7E9"/>
<path d="M60.4236 153.36C68.9256 153.36 75.8179 146.485 75.8179 138.005C75.8179 129.524 68.9256 122.649 60.4236 122.649C51.9216 122.649 45.0293 129.524 45.0293 138.005C45.0293 146.485 51.9216 153.36 60.4236 153.36Z" fill="#57585A" stroke="#231F20" stroke-width="1.7375" stroke-miterlimit="10"/>
<path d="M217.133 154.404C225.635 154.404 232.527 147.529 232.527 139.048C232.527 130.567 225.635 123.693 217.133 123.693C208.631 123.693 201.738 130.567 201.738 139.048C201.738 147.529 208.631 154.404 217.133 154.404Z" fill="#57585A" stroke="#231F20" stroke-width="1.7375" stroke-miterlimit="10"/>
<path d="M180.207 141.962C180.207 141.962 183.018 104.753 216.563 104.753C250.107 104.753 256.671 128.688 256.317 141.033" stroke="#BCBDC0" stroke-width="2.25876" stroke-miterlimit="10"/>
<path d="M119.857 83.9783H201.129" stroke="#231F20" stroke-width="1.7375" stroke-miterlimit="10"/>
<path d="M205.211 83.9783H211.777" stroke="#231F20" stroke-width="1.7375" stroke-miterlimit="10"/>
<path d="M216.568 83.9783H263.947" stroke="#231F20" stroke-width="1.7375" stroke-miterlimit="10"/>
<path d="M96.9316 130.885H158.498" stroke="#231F20" stroke-width="1.7375" stroke-miterlimit="10"/>
<path d="M162.225 130.885H181.309" stroke="#231F20" stroke-width="1.7375" stroke-miterlimit="10"/>
<path d="M287.104 130.369H259.377" stroke="#231F20" stroke-width="1.7375" stroke-miterlimit="10"/>
<path d="M3.66016 113.862L35.3105 134.064" stroke="#231F20" stroke-width="1.7375" stroke-miterlimit="10"/>
<path d="M54.1191 64.5465L55.49 81.694" stroke="#231F20" stroke-width="1.7375" stroke-miterlimit="10"/>
<path d="M27.748 122.651C27.748 122.651 37.2574 104.261 58.5505 105.323" stroke="#231F20" stroke-width="1.7375" stroke-miterlimit="10"/>
</g>
<defs>
<clipPath id="clip0_1_631">
<rect width="288" height="164" fill="white"/>
</clipPath>
</defs>
</svg>
