<svg width="32" height="32" viewBox="0 0 32 32" fill="none" xmlns="http://www.w3.org/2000/svg">
<path d="M3.70247 15.4626C3.57922 15.202 3.46465 14.9379 3.36007 14.6704C2.92778 13.5649 2.66602 12.4028 2.66602 11.2C2.66602 7.22355 5.92213 4 9.93874 4C12.4684 4 14.6964 5.27861 15.9993 7.21865C17.3023 5.27861 19.5303 4 22.06 4C26.0766 4 29.3327 7.22355 29.3327 11.2C29.3327 16.3765 24.4842 20.8 22.06 23.2C20.4438 24.8 18.4236 26.4 15.9993 28C13.5751 26.4 11.5549 24.8 9.93874 23.2C9.69469 22.9584 9.42606 22.6963 9.14029 22.4149" stroke="#F0593E" stroke-width="2" stroke-linecap="round" stroke-linejoin="round"/>
<path d="M5.33203 19.9823L12.7412 12.6931L17.0507 17.1373L23.5066 10.5459" stroke="#F0593E" stroke-width="2" stroke-linecap="round" stroke-linejoin="round"/>
</svg>
