<svg width="32" height="32" viewBox="0 0 32 32" fill="none" xmlns="http://www.w3.org/2000/svg">
<path d="M10.6666 13.9998L14.4635 5.32127C14.932 4.25046 16.2149 3.80784 17.244 4.36198L23.9997 7.99977" stroke="#F0593E" stroke-width="2" stroke-linecap="round" stroke-linejoin="round"/>
<path d="M17.333 20.6667L17.333 8L27.9997 8L27.9997 27.3333L17.333 27.3333L17.333 24.6667" stroke="#F0593E" stroke-width="2" stroke-linecap="round" stroke-linejoin="round"/>
<path d="M2.6665 29.3333C8.6665 29.3333 9.17925 25.7888 10.8867 25.5416C12.9017 25.2498 14.9543 25.0997 16.7354 24.6666C18.8278 24.1577 20.5454 23.5136 21.3871 23.1732C21.7551 23.0243 22.0631 22.7597 22.2364 22.4025C22.6131 21.6258 23.097 20.2578 21.9471 20.0728C20.3285 19.8124 15.3202 21.7221 12.7516 21.3749C10.1829 21.0277 11.0861 19.2916 11.8954 18.7708C14.0933 17.3563 16.6665 17.9999 16.6665 17.9999V11.9999C16.6665 11.9999 6.88886 14.4999 3.33317 18.7708" stroke="#F0593E" stroke-width="2" stroke-linecap="round" stroke-linejoin="round"/>
<path d="M21.333 14L27.9997 14" stroke="#F0593E" stroke-width="2" stroke-linecap="round" stroke-linejoin="round"/>
</svg>
