<svg width="20" height="20" viewBox="0 0 20 20" fill="none" xmlns="http://www.w3.org/2000/svg">
<path d="M10.0007 8.12492C8.96512 8.12492 8.12565 8.96438 8.12565 9.99992C8.12565 11.0355 8.96512 11.8749 10.0007 11.8749C11.0362 11.8749 11.8757 11.0355 11.8757 9.99992C11.8757 8.96438 11.0362 8.12492 10.0007 8.12492Z" fill="#939598"/>
<path fill-rule="evenodd" clip-rule="evenodd" d="M10.0007 4.58325C7.81918 4.58325 5.85733 5.45941 4.44367 6.54438C3.73591 7.08758 3.15518 7.69086 2.74773 8.27799C2.34803 8.85393 2.08398 9.45953 2.08398 9.99992C2.08398 10.5403 2.34803 11.1459 2.74773 11.7219C3.15518 12.309 3.73591 12.9123 4.44367 13.4555C5.85733 14.5404 7.81918 15.4166 10.0007 15.4166C12.1821 15.4166 14.144 14.5404 15.5576 13.4555C16.2654 12.9123 16.8461 12.309 17.2536 11.7219C17.6533 11.1459 17.9173 10.5403 17.9173 9.99992C17.9173 9.45953 17.6533 8.85393 17.2536 8.27799C16.8461 7.69086 16.2654 7.08758 15.5576 6.54438C14.144 5.45941 12.1821 4.58325 10.0007 4.58325ZM6.87565 9.99992C6.87565 8.27403 8.27476 6.87492 10.0007 6.87492C11.7265 6.87492 13.1257 8.27403 13.1257 9.99992C13.1257 11.7258 11.7265 13.1249 10.0007 13.1249C8.27476 13.1249 6.87565 11.7258 6.87565 9.99992Z" fill="#939598"/>
</svg>
