<svg width="20" height="20" viewBox="0 0 20 20" fill="none" xmlns="http://www.w3.org/2000/svg">
<g id="Solid/Status/Eye">
<g id="Icon">
<path d="M10.0007 8.12498C8.96512 8.12498 8.12565 8.96445 8.12565 9.99998C8.12565 11.0355 8.96512 11.875 10.0007 11.875C11.0362 11.875 11.8757 11.0355 11.8757 9.99998C11.8757 8.96445 11.0362 8.12498 10.0007 8.12498Z" fill="white"/>
<path fill-rule="evenodd" clip-rule="evenodd" d="M10.0007 4.58331C7.81918 4.58331 5.85733 5.45947 4.44367 6.54444C3.73591 7.08764 3.15518 7.69092 2.74773 8.27805C2.34803 8.85399 2.08398 9.45959 2.08398 9.99998C2.08398 10.5404 2.34803 11.146 2.74773 11.7219C3.15518 12.309 3.73591 12.9123 4.44367 13.4555C5.85733 14.5405 7.81918 15.4166 10.0007 15.4166C12.1821 15.4166 14.144 14.5405 15.5576 13.4555C16.2654 12.9123 16.8461 12.309 17.2536 11.7219C17.6533 11.146 17.9173 10.5404 17.9173 9.99998C17.9173 9.45959 17.6533 8.85399 17.2536 8.27805C16.8461 7.69092 16.2654 7.08764 15.5576 6.54444C14.144 5.45947 12.1821 4.58331 10.0007 4.58331ZM6.87565 9.99998C6.87565 8.27409 8.27476 6.87498 10.0007 6.87498C11.7265 6.87498 13.1257 8.27409 13.1257 9.99998C13.1257 11.7259 11.7265 13.125 10.0007 13.125C8.27476 13.125 6.87565 11.7259 6.87565 9.99998Z" fill="white"/>
</g>
</g>
</svg>
