<svg width="185" height="217" viewBox="0 0 185 217" fill="none" xmlns="http://www.w3.org/2000/svg">
<g clip-path="url(#clip0_1_463)">
<path fill-rule="evenodd" clip-rule="evenodd" d="M156.919 76.9147C156.919 76.9147 138.291 71.5111 124.421 60.6338C112.065 50.9428 104.716 35.028 113.91 24.089C126.573 9.02454 142.417 23.0192 142.417 23.0192C142.417 23.0192 146.774 9.90092 161.497 8.8147C174.558 7.85054 181.604 21.0361 181.994 29.3514C182.94 49.4767 156.919 76.9147 156.919 76.9147Z" fill="#F0593E"/>
<path fill-rule="evenodd" clip-rule="evenodd" d="M0.410156 161.992C0.410156 156.257 3.31061 147.644 5.24608 136.856C6.28372 131.074 6.69905 124.813 7.6517 118.81C8.62492 112.683 10.1409 106.821 11.8269 101.805C14.1695 94.836 18.268 89.7258 21.6249 87.5602C22.4405 87.0336 25.5822 85.1752 29.8328 84.2357C34.3726 83.2318 38.4889 83.1276 42.7807 82.5845C45.348 82.2608 48.9215 81.3995 50.0606 81.1526C59.5542 79.0954 96.6982 86.6194 102.487 88.0595C107.127 89.2129 112.442 90.0824 116.291 92.9982C120.728 96.3611 123.56 101.984 126.882 106.343C127.709 107.43 128.234 113.908 131.963 121.213C134.118 125.434 138.058 130.436 141.892 133.534C142.286 133.852 142.935 130.832 143.94 126.435C144.9 122.24 146.214 116.65 146.605 117.261C148.438 120.137 155.587 124.876 160.44 128.184C162.555 129.627 164.667 127.587 164.948 130.152C165.356 133.876 164.09 140.087 162.684 147.81C161.414 154.784 160.156 163.16 157.664 169.064C155.055 175.244 150.258 180.194 148.139 180.122C144.961 180.015 138.001 174.421 131.442 166.859C126.33 160.967 121.118 153.584 117.177 148.472C115.265 145.994 113.673 143.856 113.673 144.653C113.673 149.526 113.255 151.588 111.529 158.992C110.012 165.501 109.524 167.469 109.024 172.251C108.641 175.916 107.956 181.373 107.874 187.6C107.789 194.036 107.55 198.209 108.622 202.734C109.775 207.606 111.839 217.284 111.839 217.284L21.4618 217.118C21.4618 217.118 26.358 206.998 27.8151 198.976C28.9569 192.691 29.0515 187.037 28.6718 187.191C21.9621 189.905 13.4444 190.668 12.356 190.123C8.94567 188.422 6.96222 183.355 4.99797 178.94C2.4402 173.192 0.414268 167.576 0.414268 161.99L0.410156 161.992Z" fill="white"/>
<path fill-rule="evenodd" clip-rule="evenodd" d="M35.3194 46.2563C38.272 38.9558 37.6373 27.0156 43.87 17.529C49.5078 9.00383 59.0494 3.91285 64.9477 3.53432C67.9619 3.34094 72.9403 7.10157 76.2013 6.62977C80.1161 6.11409 86.1788 6.25124 89.3301 10.2629C90.6186 11.8922 95.1749 17.2602 96.7882 21.8972C98.3934 26.4026 101.772 38.0356 103.704 41.4657C105.634 44.8971 111.736 53.853 110.73 58.6573C110.716 58.7314 109.529 61.3893 108.331 63.1586C106.437 65.9578 104.366 68.4223 105.727 69.2699C108.121 70.7607 105.916 72.0088 103.793 71.2723C102.791 70.9239 104.005 72.722 106.053 75.4266C108.094 78.1215 110.963 81.7148 112.094 84.5826C112.878 86.5713 113.052 89.8066 112.194 90.3498C111.295 90.9189 104.862 88.4996 102.329 87.8756C88.457 84.4565 60.0967 78.3986 53.0155 80.6039C47.0501 82.4609 41.6933 83.1412 40.0004 83.1192C37.8333 83.0904 42.4225 78.4219 42.7474 76.6554C43.0106 75.2277 40.6474 72.3942 40.398 72.1624C37.8868 69.9543 33.7157 67.8381 32.0571 63.0584C30.4986 57.2337 35.1892 46.2673 35.3208 46.259L35.3194 46.2563Z" fill="#FABDA6"/>
<path fill-rule="evenodd" clip-rule="evenodd" d="M58.5599 74.125C58.5599 74.125 55.3263 70.9102 53.5348 67.6022C51.8653 64.1543 50.3657 59.2471 50.3657 59.2471C50.3657 59.2471 48.9155 59.2087 47.4063 58.2527C47.4063 58.2527 44.1741 56.2243 44.096 54.381C44.0617 53.5856 47.0869 51.2184 49.7077 48.5398C52.2326 45.9806 53.4759 44.1689 55.6334 40.8704C58.6229 36.2019 59.0301 30.2496 63.3684 28.1279C69.745 24.9529 75.3115 27.6232 76.123 27.9661C76.9345 28.309 79.8678 28.9097 81.8801 31.5457C84.7627 35.4421 86.169 40.8951 88.7803 44.6777C89.2957 45.4595 91.164 47.2863 92.8692 48.6509C95.0226 50.3735 97.0334 51.5887 97.0334 51.5887C97.0334 51.5887 96.1246 53.2139 94.7402 54.4016C93.3558 55.5893 91.4984 56.3381 91.4984 56.3381C91.4984 56.3381 91.0968 60.3141 89.7672 64.2174C88.439 68.122 85.1862 72.807 85.1862 72.807C85.1862 72.807 78.5848 79.4437 72.7483 80.1801C67.8534 80.7987 58.5585 74.1236 58.5585 74.1236L58.5599 74.125Z" fill="#FDE7DC"/>
<path fill-rule="evenodd" clip-rule="evenodd" d="M59.3891 74.372C59.8784 74.494 61.7083 73.9002 62.2032 73.8192C64.628 73.4229 67.0226 72.8894 69.4378 72.4615C71.7407 72.0528 73.9736 71.3835 76.2216 70.7526C77.7307 70.3288 79.2289 69.8131 80.6929 69.244C81.9786 68.7434 83.2781 68.2894 84.5611 67.7861C84.9147 67.6475 85.7933 67.114 86.2196 67.2841C87.5314 67.8094 86.5747 69.462 86.772 70.4509C87.4697 73.9441 86.5897 78.2108 89.3339 80.9579C91.9438 83.5692 95.1074 84.3235 98.1271 86.1366C98.5644 86.3986 102.117 88.2076 101.995 88.4489C101.558 89.3226 99.9735 90.5199 99.1826 91.1138C96.8811 92.8405 94.8881 94.5836 92.3989 96.1403C85.6522 100.36 77.5594 103.007 69.4872 102.274C65.8794 101.946 61.637 99.6225 58.7352 97.5488C55.4345 95.1898 52.6985 89.6325 51.4498 85.8856C51.1099 84.8652 49.931 82.5639 50.1942 81.5119C50.3135 81.0347 52.0406 80.9112 52.4546 80.8084C54.2721 80.3544 56.8793 79.6248 58.3829 78.496C59.7167 77.4948 59.6385 76.9065 59.6385 75.2278C59.6385 74.8931 59.352 73.1527 59.1862 73.3173L59.3877 74.3733L59.3891 74.372Z" fill="#FDE7DC"/>
<path fill-rule="evenodd" clip-rule="evenodd" d="M74.3038 131.688C73.7596 131.92 76.0912 131.163 76.5627 130.919C78.3049 130.022 80.2294 129.282 81.8496 128.174C82.9489 127.421 84.3704 127.095 85.4985 126.357C89.3379 123.848 92.873 121.162 96.4561 118.305C98.7534 116.474 101.086 113.86 102.892 111.545C104.11 109.984 105.018 108.126 106.588 106.838C107.728 105.904 108.961 105.017 110.398 104.605C111.326 104.34 112.706 104.314 113.48 103.785C114.617 103.007 115.064 101.37 115.874 100.333C117.116 98.742 118.636 97.5378 119.656 95.7905C122.268 91.3153 124.962 87.1268 127.418 82.5776C127.798 81.8754 129.667 78.7826 130.734 80.5162C131.861 82.3458 131.145 84.3029 130.885 86.2902C130.224 91.3373 127.404 95.7878 124.862 100.142C124.267 101.163 121.934 103.657 121.949 104.881C121.963 106.104 123.333 106.11 124.15 106.217C126.169 106.481 128.671 106.547 130.517 107.626C132.693 108.898 129.499 113.534 130.155 115.429C130.324 115.917 131.452 115.779 131.852 115.946C133.159 116.488 137.896 116.688 137.581 119.096C137.258 121.564 132.428 121.798 130.686 121.819C130.017 121.826 128.746 121.326 128.336 121.887C127.237 123.39 126.692 126.807 125.107 127.785C123.417 128.827 122.903 124.097 122.507 124.102C122.185 124.106 121.373 125.013 121.159 125.231C120.192 126.223 119.405 126.886 118.133 127.413C117.519 127.668 117.005 127.405 116.485 127.516C114.373 127.964 112.097 129.921 110.133 130.934C107.86 132.103 105.521 133.257 103.162 134.233C101.949 134.734 100.519 134.597 99.2948 135.021C98.0735 135.444 96.9893 136.496 95.8557 137.125C89.4174 140.69 85.2613 146.431 79.3974 150.728C77.4537 152.152 76.2598 154.611 74.5971 156.314C74.2256 156.694 73.5101 157.868 72.9673 157.984C71.5376 158.287 71.0839 154.234 71.1415 153.508C71.5486 148.361 70.6755 143.059 72.0722 137.942C72.4601 136.521 72.7247 135.018 73.2593 133.637C73.4251 133.208 73.6115 132.737 73.8624 132.35C73.9762 132.176 74.4902 131.607 74.3079 131.684L74.3038 131.688Z" fill="#FDE7DC"/>
<path fill-rule="evenodd" clip-rule="evenodd" d="M149.042 107.633C149.776 105.228 150.606 102.046 150.409 99.5456C150.184 96.6997 147.891 94.2585 147.385 91.2659C146.933 88.5956 148.053 85.3218 147.088 82.8724C146.799 82.1386 144.934 82.2799 144.677 81.2705C144.45 80.3858 145.747 79.659 146.223 79.1158C147.492 77.6675 148.413 76.8913 148.09 74.9767C148.02 74.5611 147.151 74.9726 146.794 74.9671C145.723 74.9506 144.664 74.6503 144.161 73.6422C143.438 72.1871 146.349 70.6304 147.263 70.0393C150.057 68.2372 153.115 66.5886 156.054 65.1239C157.36 64.4724 159.696 65.5271 159.724 63.6454C159.786 59.5885 156.522 61.1109 154.069 60.0439C152.464 59.3458 150.96 58.7561 149.64 57.519C149.144 57.054 147.725 56.0336 147.736 55.3232C147.759 53.7487 150.471 54.9392 151.338 54.9118C152.587 54.8706 153.763 55.4151 155.009 55.4343C157.782 55.4768 160.669 55.0585 163.277 56.1927C164.743 56.8305 164.947 59.0153 165.361 60.3209C165.997 62.3302 166.813 65.4009 168.191 66.9905C169.136 68.0781 170.141 68.4141 170.885 69.7897C171.603 71.1173 170.677 72.4641 170.72 73.8095C170.748 74.6558 171.827 75.9148 172.199 76.7253C172.586 77.5674 171.506 78.271 171.532 79.0692C171.583 80.619 172.664 81.5612 171.924 83.2646C170.101 87.4614 166.356 90.8311 164.511 95.0759C163.534 97.3265 164.022 100.466 163.75 102.862C162.888 110.475 162.977 118.246 162.726 125.896C162.581 130.312 163.427 136.148 161.782 140.294C161.474 141.074 159.53 142.017 158.798 142.354C155.061 144.072 152.573 141.135 151.214 138.174C148.206 131.63 148.017 126.18 147.122 118.306C147.122 118.306 147.983 111.124 149.047 107.635L149.042 107.633Z" fill="#FDE7DC"/>
<path fill-rule="evenodd" clip-rule="evenodd" d="M169.33 39.2397C169.33 39.2397 169.102 37.3635 168.555 36.376C168.008 35.3885 167.141 35.2925 167.141 35.2925C167.141 35.2925 168.008 35.1951 168.555 34.209C169.102 33.2216 169.33 31.344 169.33 31.344C169.33 31.344 169.556 33.2216 170.103 34.209C170.65 35.1951 171.519 35.2925 171.519 35.2925C171.519 35.2925 170.651 35.3885 170.103 36.376C169.556 37.3635 169.33 39.2397 169.33 39.2397Z" fill="white"/>
<path fill-rule="evenodd" clip-rule="evenodd" d="M127.244 10.7691C127.244 10.7691 127.018 8.89286 126.471 7.90539C125.924 6.91791 125.057 6.82191 125.057 6.82191C125.057 6.82191 125.924 6.72453 126.471 5.73843C127.018 4.75096 127.244 2.87476 127.244 2.87476C127.244 2.87476 127.472 4.75233 128.019 5.73843C128.566 6.72591 129.433 6.82191 129.433 6.82191C129.433 6.82191 128.566 6.91929 128.019 7.90539C127.472 8.89286 127.244 10.7691 127.244 10.7691Z" fill="white"/>
<path fill-rule="evenodd" clip-rule="evenodd" d="M129.117 53.3688C129.117 53.3688 128.792 50.6724 128.005 49.2557C127.219 47.8376 125.973 47.699 125.973 47.699C125.973 47.699 127.219 47.5592 128.005 46.1424C128.792 44.7243 129.117 42.0293 129.117 42.0293C129.117 42.0293 129.442 44.7256 130.229 46.1424C131.014 47.5592 132.262 47.699 132.262 47.699C132.262 47.699 131.016 47.8376 130.229 49.2557C129.442 50.6738 129.117 53.3688 129.117 53.3688Z" fill="white"/>
<path fill-rule="evenodd" clip-rule="evenodd" d="M177.962 72.1625C177.962 72.1625 177.735 70.285 177.188 69.2988C176.641 68.3114 175.773 68.214 175.773 68.214C175.773 68.214 176.641 68.1166 177.188 67.1305C177.735 66.1444 177.962 64.2668 177.962 64.2668C177.962 64.2668 178.189 66.1444 178.737 67.1305C179.284 68.118 180.152 68.214 180.152 68.214C180.152 68.214 179.284 68.3114 178.737 69.2988C178.19 70.285 177.962 72.1625 177.962 72.1625Z" fill="white"/>
<path fill-rule="evenodd" clip-rule="evenodd" d="M181.855 11.3395C181.855 11.3395 181.529 8.64314 180.744 7.22639C179.958 5.80827 178.711 5.66975 178.711 5.66975C178.711 5.66975 179.958 5.52985 180.744 4.1131C181.529 2.69635 181.855 0 181.855 0C181.855 0 182.18 2.69635 182.967 4.1131C183.752 5.53123 185 5.66975 185 5.66975C185 5.66975 183.752 5.80827 182.967 7.22639C182.182 8.64314 181.855 11.3395 181.855 11.3395Z" fill="white"/>
<path d="M72.4362 80.9907C71.7248 80.9907 67.2932 80.8138 60.8919 76.7144C56.1739 73.7232 54.4289 70.3411 53.3872 68.3209C51.4243 64.696 50.0193 59.6544 49.1338 56.1791C49.0269 55.7594 49.2805 55.3329 49.6999 55.2259C50.118 55.1189 50.5457 55.3726 50.6526 55.7923C51.5175 59.1868 52.8855 64.1022 54.773 67.5885C55.812 69.6046 57.3719 72.6287 61.7349 75.3937C68.1335 79.4931 72.4389 79.4286 72.48 79.4245C72.8899 79.4135 73.2723 79.7523 73.286 80.1829C73.2997 80.6136 72.9625 80.9743 72.5321 80.9894C72.5198 80.9894 72.4883 80.9907 72.4375 80.9907H72.4362Z" fill="#231F20"/>
<path d="M69.3564 59.1456C69.207 59.1456 69.0562 59.1031 68.9232 59.0139C68.6367 58.8219 66.1283 57.0746 66.434 54.8267C66.5834 53.8201 67.2345 53.3154 67.7567 52.9108C68.3516 52.4499 68.8656 52.0508 69.0575 50.8906C69.2056 50.1788 69.1151 48.9801 68.7889 47.1916C68.7108 46.7665 68.9931 46.3578 69.418 46.2796C69.8443 46.2014 70.2515 46.484 70.3296 46.9091C70.7038 48.9568 70.786 50.272 70.5969 51.1786C70.3118 52.9135 69.3893 53.6267 68.7162 54.1492C68.2474 54.5127 68.0391 54.6882 67.9856 55.0475C67.839 56.1255 69.2796 57.364 69.7964 57.711C70.1541 57.9524 70.2501 58.4392 70.0102 58.7972C69.8594 59.0221 69.6113 59.1442 69.3591 59.1442L69.3564 59.1456Z" fill="#231F20"/>
<path d="M41.9954 75.1838C41.7021 75.1838 41.4197 75.0178 41.2867 74.7339C40.3505 72.7453 38.6207 71.5123 36.788 70.208C34.4057 68.5101 31.9411 66.756 31.1598 63.2353C29.9851 57.9414 31.8054 53.0397 33.4119 48.7154C33.6518 48.0708 33.8875 47.4371 34.1069 46.8158C35.2062 43.5599 35.9642 40.0777 36.7688 36.3898C37.8051 31.6375 38.8756 26.7235 40.7974 21.7436C43.7828 14.1003 50.2787 7.62135 58.1768 4.41069C68.1941 0.338731 72.4707 4.9922 72.6489 5.19107C72.9354 5.51474 72.9052 6.00985 72.5818 6.29649C72.2596 6.58176 71.7675 6.55433 71.4797 6.2334C71.3221 6.0606 67.6773 2.23825 58.7662 5.86036C51.2587 8.91193 45.0877 15.0617 42.2572 22.3087C40.382 27.1733 39.3238 32.027 38.2999 36.7217C37.4857 40.4521 36.7181 43.9769 35.5872 47.326C35.3611 47.9652 35.1226 48.6056 34.88 49.2585C33.3489 53.3798 31.6135 58.0497 32.6882 62.8925C33.3393 65.8261 35.4557 67.332 37.6954 68.9284C39.6117 70.293 41.5924 71.7043 42.7027 74.0633C42.8864 74.4555 42.7191 74.9218 42.3285 75.1056C42.2202 75.1564 42.1064 75.181 41.9954 75.181V75.1838Z" fill="#231F20"/>
<path d="M55.423 42.4558C55.1845 42.4558 54.9487 42.3475 54.7952 42.1418C54.5361 41.7961 54.606 41.3065 54.9501 41.0473C55.1297 40.9129 59.394 37.7722 64.3656 40.0091C64.7604 40.186 64.9358 40.6509 64.759 41.0446C64.5808 41.4396 64.1175 41.6151 63.7241 41.4382C59.6119 39.5867 56.0398 42.1884 55.8904 42.3009C55.7492 42.4051 55.5861 42.4558 55.423 42.4558Z" fill="#231F20"/>
<path d="M57.0222 52.48C56.8056 52.48 56.5904 52.3908 56.4355 52.2167C56.149 51.893 56.1778 51.3979 56.5013 51.1112C57.8282 49.9331 61.3249 49.1061 63.4358 50.3761C63.8059 50.5997 63.9265 51.0811 63.7031 51.4514C63.4797 51.8217 62.9972 51.941 62.6284 51.7188C61.2152 50.8671 58.4573 51.4692 57.5403 52.2839C57.3909 52.4155 57.2058 52.4814 57.0208 52.4814L57.0222 52.48Z" fill="#231F20"/>
<path d="M70.5835 67.8874C68.485 67.8874 66.4604 67.3731 64.9773 66.4514C64.6099 66.2238 64.4975 65.7396 64.7251 65.3721C64.954 65.0045 65.4365 64.892 65.8038 65.1197C68.341 66.6969 73.7828 67.0549 76.8779 64.0541C77.1891 63.7537 77.6839 63.7606 77.9855 64.0719C78.287 64.3818 78.2788 64.8783 77.969 65.1801C76.0322 67.0576 73.2496 67.8874 70.5849 67.8874H70.5835Z" fill="#231F20"/>
<path d="M72.6326 80.9824C72.2104 80.9824 71.8623 80.6464 71.8499 80.2226C71.8376 79.792 72.1748 79.4326 72.6038 79.4162C72.6573 79.4134 76.2925 79.1871 82.0564 74.3512C86.1713 70.9321 87.9217 67.2922 88.5988 65.427C90.0312 61.713 90.7591 56.6631 91.1813 53.1864C91.2334 52.7557 91.6268 52.4499 92.0531 52.5034C92.4821 52.5555 92.7878 52.9464 92.7357 53.3757C92.3025 56.936 91.5541 62.1148 90.0641 65.9769C89.339 67.9766 87.4557 71.9018 83.0597 75.5554C76.8079 80.8 72.8218 80.9769 72.6559 80.9824C72.6477 80.9824 72.6395 80.9824 72.6326 80.9824V80.9824Z" fill="#231F20"/>
<path d="M74.1369 40.8582C73.8737 40.8582 73.6174 40.7251 73.4693 40.4851C73.2432 40.1162 73.3583 39.6334 73.727 39.4071C78.371 36.5503 83.0041 39.1191 83.1987 39.2302C83.5743 39.4442 83.7059 39.9228 83.4934 40.2986C83.2796 40.6758 82.8012 40.8074 82.4257 40.5935C82.2639 40.503 78.3902 38.3813 74.5467 40.743C74.4192 40.8212 74.2781 40.8596 74.1369 40.8596V40.8582Z" fill="#231F20"/>
<path d="M77.1898 50.9193C76.9718 50.9193 76.7553 50.8288 76.6004 50.6519C76.3153 50.3269 76.3482 49.8318 76.673 49.5465C78.5824 47.8719 82.1518 48.3272 83.6747 49.3627C84.0325 49.6055 84.1243 50.0937 83.8817 50.4517C83.6391 50.8096 83.1524 50.9015 82.7947 50.6588C81.8283 50.0018 79.0156 49.5767 77.7066 50.7246C77.5585 50.8549 77.3735 50.9193 77.1912 50.9193H77.1898Z" fill="#231F20"/>
<path d="M39.9873 66.4899C39.6432 66.4899 39.328 66.2622 39.2334 65.9139C37.4391 59.3965 42.5327 54.5127 44.7081 52.4266C44.9863 52.1592 45.2248 51.9329 45.403 51.745C46.4941 50.5888 47.518 49.5739 48.5091 48.5919C52.317 44.8203 55.3257 41.8428 57.5476 34.9264C59.2706 29.5639 62.2013 23.0438 66.371 22.4362C68.5614 22.1194 70.7066 23.4731 72.7517 26.4629C72.9971 26.8195 72.9053 27.3077 72.5475 27.5519C72.1911 27.796 71.7045 27.7055 71.4591 27.3475C69.78 24.8925 68.1461 23.7638 66.5958 23.986C64.0024 24.3632 61.2472 28.5256 59.0363 35.405C56.6964 42.6849 53.5684 45.7831 49.6084 49.7042C48.627 50.6766 47.6126 51.6819 46.5366 52.8216C46.3433 53.0246 46.0884 53.2701 45.7896 53.5567C43.6485 55.6085 39.195 59.8779 40.7412 65.4956C40.8563 65.9125 40.611 66.3445 40.1943 66.4584C40.1243 66.4776 40.0544 66.4872 39.9859 66.4872L39.9873 66.4899Z" fill="#231F20"/>
<path d="M100.825 52.9671C100.266 52.9671 92.7361 52.7792 86.7927 43.0498C85.9154 41.6043 85.1341 39.9694 84.3774 38.3895C82.1418 33.7127 80.0295 29.2951 75.5088 28.7767C75.0798 28.7273 74.7714 28.3392 74.8194 27.9099C74.8687 27.4793 75.2539 27.1693 75.687 27.22C81.0685 27.8358 83.4686 32.8569 85.7907 37.7133C86.5295 39.259 87.2943 40.8568 88.1291 42.2351C93.6504 51.2719 100.464 51.4008 100.826 51.4008C100.829 51.4008 100.833 51.4008 100.834 51.4008C101.265 51.4008 101.616 51.7478 101.62 52.1785C101.623 52.6105 101.278 52.9629 100.847 52.9684H100.825V52.9671Z" fill="#231F20"/>
<path d="M105.618 70.0406C105.275 70.0406 104.961 69.8129 104.864 69.4673C104.231 67.1934 105.415 65.7437 106.559 64.342C106.879 63.9498 107.211 63.5438 107.503 63.12C109.198 60.5265 110.75 57.6697 109.409 53.9571C108.424 51.0262 107.091 48.9086 105.681 46.6662C104.291 44.4568 102.853 42.1719 101.475 38.8323C99.3851 33.8771 98.4283 30.3427 97.584 27.224C96.5079 23.248 95.6581 20.1073 92.8234 15.8269C84.5497 3.46972 75.7305 8.48801 75.6428 8.5415C75.2768 8.77054 74.7929 8.65945 74.564 8.29189C74.3351 7.92433 74.4475 7.44156 74.8135 7.21252C77.5851 5.48307 86.455 3.4999 94.1256 14.9587C97.1028 19.4545 97.9815 22.7022 99.0945 26.8153C99.9252 29.886 100.868 33.3655 102.92 38.2302C104.25 41.4518 105.651 43.6791 107.006 45.8324C108.468 48.1557 109.848 50.3501 110.888 53.4414C112.393 57.6066 110.776 60.975 108.805 63.9923C108.466 64.4847 108.114 64.9167 107.774 65.3336C106.614 66.7517 105.978 67.624 106.374 69.0462C106.491 69.4632 106.247 69.8952 105.83 70.0118C105.76 70.031 105.689 70.0406 105.619 70.0406H105.618Z" fill="#231F20"/>
<path d="M75.1098 21.177H75.1002C74.667 21.1716 74.3216 20.8163 74.3271 20.3843C74.3586 17.8402 73.5636 15.8639 71.9598 14.513C70.0902 12.9358 67.2596 12.357 64.1961 12.922C63.7698 13.0002 63.3627 12.7191 63.2845 12.2939C63.2064 11.8687 63.4874 11.46 63.9123 11.3818C67.4406 10.729 70.7413 11.4353 72.9701 13.3157C74.9206 14.9601 75.9308 17.4123 75.8938 20.4049C75.8883 20.8342 75.5388 21.1784 75.1111 21.1784L75.1098 21.177Z" fill="#231F20"/>
<path d="M50.2386 59.9026C49.7808 59.9026 49.3476 59.7888 48.9611 59.6859C46.6336 58.9796 44.8009 57.5532 43.6358 55.5522C43.4179 55.1778 43.5453 54.6992 43.9182 54.4811C44.291 54.263 44.7708 54.3906 44.9887 54.7636C45.951 56.4163 47.4725 57.5971 49.3874 58.1786C49.7095 58.2637 50.0385 58.3501 50.3058 58.3336C50.7444 58.3103 51.109 58.634 51.1364 59.066C51.1638 59.498 50.8362 59.8697 50.4045 59.8971C50.3483 59.9012 50.2921 59.9026 50.2359 59.9026H50.2386Z" fill="#231F20"/>
<path d="M48.241 53.5827C47.9723 53.5827 47.7091 53.4442 47.5638 53.1945C47.5611 53.1904 47.2938 52.7365 46.9223 52.3017C46.6413 51.9725 46.6797 51.4788 47.0087 51.1963C47.3377 50.9165 47.8311 50.9535 48.1135 51.2827C48.5809 51.8285 48.903 52.3813 48.9167 52.4046C49.1347 52.7776 49.0086 53.2563 48.6344 53.4757C48.5096 53.5484 48.3739 53.5827 48.241 53.5827Z" fill="#231F20"/>
<path d="M91.6038 56.7208C91.194 56.7208 90.8499 56.4026 90.8239 55.9871C90.7965 55.555 91.1241 55.1834 91.5558 55.1546C91.8231 55.1381 92.1384 55.0092 92.4729 54.8734C94.2013 54.2082 95.5817 52.8107 96.3739 50.9345C96.5412 50.5354 96.9976 50.3475 97.3992 50.5176C97.7981 50.6863 97.9845 51.1457 97.8159 51.5434C96.8578 53.816 95.165 55.5166 93.0499 56.3299C92.6497 56.4931 92.1795 56.6852 91.6559 56.7181C91.6395 56.7181 91.6216 56.7194 91.6052 56.7194L91.6038 56.7208Z" fill="#231F20"/>
<path d="M98.0431 52.4885C97.8868 52.4885 97.7278 52.4419 97.5907 52.3431C93.3346 49.319 92.1586 45.6173 90.7974 41.3314C89.7063 37.8972 88.4686 34.0063 85.4132 29.4749C85.172 29.1155 85.2652 28.6287 85.6243 28.3873C85.9807 28.1445 86.4687 28.2392 86.7113 28.5985C89.8941 33.3164 91.1662 37.3212 92.2901 40.8569C93.6197 45.0399 94.6697 48.3452 98.4982 51.0649C98.8504 51.3159 98.9341 51.8041 98.6832 52.1566C98.5297 52.3719 98.2884 52.4871 98.0445 52.4871L98.0431 52.4885Z" fill="#231F20"/>
<path d="M58.5948 86.2091C58.444 86.2091 58.2918 86.1652 58.1575 86.0747C57.7984 85.832 57.7052 85.3451 57.9464 84.9871C59.9134 82.0741 58.9978 77.3383 58.5043 74.7928C58.4221 74.3677 58.6989 73.9576 59.1239 73.8753C59.5488 73.793 59.96 74.0701 60.0409 74.4952C60.5768 77.2629 61.5734 82.4128 59.2431 85.8635C59.0923 86.0871 58.8442 86.2091 58.5934 86.2091H58.5948Z" fill="#231F20"/>
<path d="M90.1498 83.6994C89.9483 83.6994 89.7468 83.6226 89.5933 83.4676C86.7531 80.5998 86.6407 77.2095 86.5324 73.9316C86.4941 72.77 86.4543 71.5699 86.2926 70.4028C86.2336 69.9735 86.5324 69.5785 86.9615 69.5195C87.3837 69.4633 87.7853 69.7595 87.8442 70.1888C88.0169 71.4369 88.0581 72.6795 88.0978 73.8809C88.2006 76.9942 88.2979 79.9346 90.7049 82.3663C91.0092 82.6735 91.0065 83.17 90.6995 83.4745C90.5459 83.6253 90.3472 83.7021 90.1484 83.7021L90.1498 83.6994Z" fill="#231F20"/>
<path d="M15.5038 191.218C14.7444 191.218 14.0015 191.164 13.2805 191.045C11.1435 190.691 10.0455 189.114 9.07644 187.723C8.96267 187.56 8.84889 187.397 8.73375 187.235C6.48165 184.087 4.87242 180.46 3.31802 176.95C3.04387 176.333 2.77247 175.72 2.49832 175.111C-2.15529 164.796 0.697189 153.174 2.98904 143.837C4.23777 138.751 4.92314 133.405 5.58657 128.236C6.13623 123.956 6.70371 119.53 7.5892 115.248C9.19706 107.469 11.0201 98.6515 16.0959 91.8804C21.9585 84.0602 31.1958 83.0618 40.1289 82.0962C46.8975 81.3639 53.8964 80.6082 59.1861 76.8187C59.537 76.5677 60.0263 76.6487 60.2785 76.9998C60.5307 77.3509 60.4499 77.8405 60.0976 78.0928C54.4735 82.1209 47.2676 82.8999 40.2975 83.6542C31.3014 84.6266 22.8029 85.5455 17.3488 92.8213C12.4841 99.3112 10.698 107.946 9.12304 115.565C8.24989 119.788 7.68515 124.183 7.14097 128.435C6.47206 133.648 5.77984 139.038 4.51055 144.21C2.15975 153.788 -0.504938 164.644 3.92662 174.466C4.20213 175.077 4.47628 175.694 4.75042 176.315C6.2733 179.752 7.84964 183.305 10.0085 186.323C10.1278 186.489 10.2457 186.657 10.3622 186.826C11.2696 188.128 12.0523 189.252 13.5381 189.498C17.9395 190.227 23.5349 188.199 28.0295 186.57C28.9972 186.219 29.9265 185.881 30.8011 185.586C42.2795 181.705 69.9339 163.818 75.8733 159.103C75.4867 159.319 75.0878 159.479 74.6835 159.553C73.8309 159.71 73.0427 159.477 72.4026 158.878C71.0058 157.569 70.3109 155.073 70.3369 151.457C70.3794 145.751 70.6974 139.163 72.7247 133.557C72.9605 132.907 73.2333 132.219 73.5828 131.541C68.0396 135.073 56.8599 141.774 36.2771 149.837C34.1717 150.661 32.1389 151.341 30.1733 152C24.5053 153.897 19.6091 155.535 14.8349 159.828C14.5127 160.118 14.0179 160.09 13.7287 159.769C13.4395 159.447 13.4655 158.952 13.7876 158.662C18.8045 154.153 24.0845 152.385 29.6757 150.514C31.6235 149.863 33.6371 149.188 35.7055 148.378C58.4568 139.466 69.6255 132.241 74.3943 129.156C76.8328 127.579 77.4852 127.158 78.1665 127.376C78.442 127.465 78.6613 127.672 78.7696 127.945C79.1863 129.001 77.928 129.548 77.0096 129.949C76.8273 130.028 76.5792 130.135 76.5107 130.181C75.3414 131.235 74.6835 132.752 74.1982 134.092C72.2518 139.475 71.9461 145.898 71.9037 151.47C71.8817 154.543 72.4382 156.767 73.4731 157.735C73.75 157.995 74.0351 158.081 74.4011 158.014C75.9843 157.723 77.9856 154.939 78.479 153.929C78.4914 153.886 78.5585 153.581 78.601 153.38C78.7929 152.499 78.8806 152.097 79.2137 151.859C79.4934 151.658 79.8703 151.664 80.1431 151.872C80.5598 152.188 80.5447 152.248 80.1609 153.788C79.8758 154.938 79.8511 155.001 79.8319 155.051C79.7209 155.343 79.614 155.685 79.4988 156.048C79.1068 157.288 78.6627 158.694 77.7937 159.527C74.4244 162.751 43.6338 182.905 31.3028 187.076C30.4392 187.368 29.5194 187.701 28.5627 188.048C24.5958 189.485 19.8051 191.222 15.5051 191.222L15.5038 191.218Z" fill="#231F20"/>
<path d="M33.2752 150.724C33.1916 150.724 33.108 150.712 33.0244 150.683C32.6145 150.544 32.3952 150.1 32.5337 149.69C33.6426 146.405 38.2016 125.321 37.8041 118.074C37.6753 115.717 36.9776 113.359 36.3018 111.081C35.7562 109.241 35.1929 107.337 34.9297 105.437C34.8708 105.01 35.1696 104.613 35.5972 104.554C36.0277 104.498 36.421 104.794 36.48 105.222C36.7267 107.005 37.249 108.769 37.8027 110.635C38.5032 113.001 39.2283 115.448 39.3667 117.989C39.7725 125.395 35.1435 146.855 34.0154 150.193C33.9058 150.52 33.6001 150.725 33.2739 150.725L33.2752 150.724Z" fill="#231F20"/>
<path d="M119.098 96.4297C118.86 96.4297 118.625 96.3213 118.472 96.117C115.711 92.4359 111.462 91.3126 106.962 90.1249C105.773 89.8108 104.544 89.4858 103.362 89.1128C99.6325 87.9346 92.6788 85.2616 88.0183 80.5985C87.7126 80.2927 87.7126 79.7962 88.0183 79.4904C88.324 79.1845 88.8202 79.1845 89.1259 79.4904C92.358 82.7243 97.7189 85.6868 103.834 87.6178C104.978 87.9799 106.19 88.2995 107.361 88.608C111.921 89.8122 116.638 91.0575 119.725 95.1747C119.984 95.5204 119.914 96.0114 119.568 96.2719C119.427 96.3775 119.263 96.4283 119.1 96.4283L119.098 96.4297Z" fill="#231F20"/>
<path d="M126.658 106.832C126.37 106.832 126.093 106.673 125.956 106.399C125.631 105.747 125.172 105.163 124.687 104.546C124.192 103.916 123.681 103.265 123.309 102.522C123.116 102.135 123.272 101.664 123.66 101.471C124.047 101.278 124.518 101.435 124.71 101.822C125.01 102.423 125.45 102.984 125.918 103.579C126.431 104.231 126.96 104.905 127.356 105.699C127.549 106.086 127.391 106.557 127.005 106.75C126.892 106.806 126.773 106.832 126.655 106.832H126.658Z" fill="#231F20"/>
<path d="M141.467 134.004C141.307 134.004 141.145 133.955 141.005 133.853C138.534 132.042 135.76 128.195 133.529 125.102C132.862 124.176 132.231 123.301 131.691 122.599C131.428 122.256 131.492 121.764 131.835 121.5C132.179 121.237 132.67 121.302 132.933 121.644C133.487 122.366 134.124 123.25 134.799 124.186C136.963 127.188 139.656 130.925 141.929 132.59C142.279 132.847 142.354 133.336 142.099 133.685C141.946 133.895 141.707 134.006 141.466 134.006L141.467 134.004Z" fill="#231F20"/>
<path d="M148.16 180.771C147.82 180.771 147.477 180.731 147.129 180.645C139.491 178.78 124.888 161.491 113.804 145.185C113.56 144.827 113.653 144.34 114.011 144.097C114.369 143.855 114.855 143.946 115.098 144.304C125.661 159.843 140.304 177.367 147.499 179.124C150.927 179.956 154.855 173.627 157.179 167.949C158.277 165.268 162.897 145.594 164.132 135.628C163.593 138.404 162.566 141.247 160.498 142.676C159.03 143.69 157.226 143.878 155.138 143.239C149.487 141.507 148.115 132.651 147.207 126.792C147.129 126.288 147.055 125.813 146.984 125.372C146.866 124.656 146.765 123.478 146.656 122.23C146.584 121.398 146.486 120.269 146.375 119.32C145.868 121.062 145.279 123.755 144.874 125.607C144.503 127.306 144.152 128.911 143.876 129.878C142.884 133.367 141.482 136.979 140.126 140.474C137.428 147.422 134.64 154.606 134.64 161.672C134.64 162.105 134.29 162.455 133.858 162.455C133.426 162.455 133.075 162.104 133.075 161.672C133.075 154.312 135.918 146.988 138.666 139.906C140.071 136.287 141.398 132.869 142.37 129.45C142.632 128.529 142.977 126.947 143.343 125.272C144.707 119.033 145.303 116.873 146.146 116.379C146.411 116.224 146.729 116.215 146.999 116.355C147.646 116.689 147.817 117.494 148.216 122.094C148.322 123.312 148.422 124.462 148.529 125.119C148.601 125.563 148.677 126.042 148.755 126.55C149.551 131.691 150.885 140.294 155.597 141.74C157.227 142.24 158.54 142.125 159.61 141.387C162.583 139.335 163.009 132.854 163.191 130.086C163.306 128.348 163.349 127.697 164.193 127.697C165.23 127.697 165.829 129.987 165.834 130.011C167.109 134.996 159.944 165.333 158.63 168.544C157.068 172.355 153.066 180.772 148.16 180.772V180.771Z" fill="#231F20"/>
<path d="M73.0454 158.37C72.8494 158.37 72.6548 158.298 72.5026 158.152C72.1901 157.852 72.1805 157.355 72.4807 157.044C72.9111 156.597 73.4388 156.043 74.0406 155.411C77.9499 151.308 85.2284 143.675 88.9033 140.866L89.5585 140.363C92.6687 137.976 96.1929 135.27 99.9336 134.006C100.761 133.726 101.592 133.483 102.395 133.25C103.883 132.817 105.288 132.408 106.684 131.774C108.146 131.112 109.723 130.24 111.249 129.396C112.792 128.542 114.389 127.66 115.892 126.977C116.286 126.8 116.748 126.973 116.928 127.366C117.106 127.76 116.932 128.225 116.539 128.403C115.091 129.06 113.523 129.927 112.006 130.766C110.454 131.625 108.849 132.512 107.331 133.201C105.832 133.881 104.308 134.324 102.833 134.755C102.044 134.984 101.232 135.221 100.434 135.491C96.9399 136.672 93.5241 139.294 90.5112 141.607L89.8533 142.111C86.2757 144.846 79.0533 152.422 75.1728 156.493C74.5697 157.126 74.0392 157.682 73.6088 158.13C73.4553 158.291 73.2496 158.37 73.044 158.37H73.0454Z" fill="#231F20"/>
<path d="M75.0145 132.497C74.7171 132.497 74.432 132.326 74.3004 132.038C74.1222 131.644 74.2963 131.179 74.6897 131.001C84.8824 126.376 93.5454 120.447 99.7397 113.853C100.463 113.082 101.239 112.115 102.06 111.091C105.059 107.348 108.793 102.699 113.657 103.251C117.95 103.746 122.734 104.894 126.953 105.908L127.158 105.957C127.409 106.018 127.777 106.057 128.164 106.099C129.53 106.244 131.594 106.465 131.997 108.201C132.471 110.245 131.961 112.15 131.468 113.991C131.392 114.275 131.316 114.559 131.244 114.842C130.81 116.548 129.794 119.883 128.766 122.705C126.806 128.085 126.022 128.505 125.264 128.481C123.704 128.422 122.945 126.388 122.442 125.043C122.35 124.796 122.269 124.581 122.199 124.424C122.021 124.031 122.195 123.566 122.588 123.388C122.983 123.211 123.446 123.383 123.625 123.777C123.705 123.958 123.8 124.208 123.908 124.494C124.11 125.035 124.687 126.578 125.179 126.868C126.204 125.705 128.699 118.498 129.727 114.458C129.801 114.168 129.878 113.878 129.955 113.588C130.418 111.856 130.857 110.22 130.47 108.558C130.319 107.906 129.031 107.768 127.996 107.658C127.556 107.611 127.139 107.567 126.79 107.482L126.584 107.433C122.407 106.43 117.673 105.295 113.474 104.811C109.476 104.343 106.181 108.452 103.279 112.073C102.439 113.122 101.645 114.112 100.879 114.927C94.4542 121.764 85.8597 127.653 75.3339 132.428C75.2284 132.475 75.1187 132.498 75.0104 132.498L75.0145 132.497Z" fill="#231F20"/>
<path d="M124.539 114.289C124.447 114.289 124.354 114.273 124.263 114.238C123.858 114.086 123.653 113.635 123.807 113.229C123.87 113.062 123.943 112.841 124.021 112.601C124.332 111.653 124.598 110.893 124.949 110.463C125.222 110.127 125.714 110.074 126.049 110.349C126.385 110.622 126.436 111.115 126.163 111.45C125.967 111.691 125.679 112.566 125.508 113.089C125.422 113.354 125.342 113.596 125.272 113.78C125.154 114.094 124.856 114.288 124.539 114.288V114.289Z" fill="#231F20"/>
<path d="M96.991 130.881C96.6195 130.881 96.2905 130.617 96.222 130.238C96.1438 129.813 96.4262 129.404 96.8511 129.326C100.577 128.645 104.567 126.774 108.087 124.058C108.713 123.574 109.247 123.002 109.811 122.396C110.479 121.68 111.167 120.938 112.039 120.336C112.394 120.091 112.882 120.178 113.129 120.535C113.374 120.89 113.286 121.378 112.93 121.625C112.199 122.131 111.596 122.779 110.959 123.464C110.376 124.091 109.774 124.737 109.045 125.299C105.332 128.165 101.102 130.142 97.1349 130.868C97.0869 130.876 97.0403 130.88 96.9937 130.88L96.991 130.881Z" fill="#231F20"/>
<path d="M114.389 121.735C114.333 121.735 114.277 121.73 114.219 121.717C113.268 121.507 110.982 120.859 110.31 119.377C110.132 118.984 110.306 118.519 110.699 118.341C111.093 118.164 111.558 118.337 111.736 118.73C111.982 119.276 113.142 119.875 114.557 120.187C114.979 120.28 115.246 120.698 115.153 121.121C115.072 121.485 114.749 121.735 114.389 121.735V121.735Z" fill="#231F20"/>
<path d="M114.098 124.039C114.088 124.039 114.077 124.039 114.068 124.039C113.634 124.023 113.299 123.659 113.315 123.227C113.371 121.731 114.29 120.477 115.148 119.421C115.42 119.085 115.913 119.035 116.248 119.306C116.584 119.579 116.635 120.071 116.364 120.407C115.666 121.267 114.919 122.271 114.88 123.285C114.864 123.707 114.517 124.039 114.099 124.039H114.098Z" fill="#231F20"/>
<path d="M115.202 127.455C115.125 127.455 115.047 127.451 114.967 127.442C113.891 127.317 112.866 126.634 111.874 125.974C111.231 125.546 110.623 125.142 110.077 124.936C109.671 124.784 109.467 124.332 109.619 123.928C109.771 123.522 110.223 123.318 110.628 123.47C111.342 123.739 112.053 124.212 112.741 124.67C113.579 125.228 114.445 125.804 115.147 125.885C115.529 125.934 116.036 125.375 116.442 124.926C116.618 124.733 116.782 124.552 116.937 124.409C117.112 124.247 117.33 124.055 117.574 123.839C118.808 122.748 121.696 120.196 121.312 118.756C121.149 118.146 120.335 117.633 119.617 117.181C119.254 116.954 118.911 116.738 118.613 116.497C116.79 115.017 114.008 113.026 111.113 111.937C110.708 111.785 110.503 111.333 110.655 110.929C110.807 110.523 111.259 110.319 111.662 110.471C114.753 111.634 117.684 113.728 119.599 115.281C119.824 115.463 120.128 115.654 120.449 115.855C121.364 116.431 122.504 117.147 122.824 118.353C123.458 120.731 120.423 123.412 118.609 125.014C118.375 125.221 118.167 125.405 117.999 125.561C117.875 125.678 117.742 125.825 117.6 125.981C117.03 126.61 116.263 127.458 115.2 127.458L115.202 127.455Z" fill="#231F20"/>
<path d="M117.611 128.094C116.984 128.094 116.309 127.972 115.585 127.699C115.18 127.547 114.975 127.096 115.128 126.69C115.28 126.284 115.732 126.078 116.137 126.232C119.196 127.381 121.034 124.865 123.297 121.182C123.644 120.618 123.983 120.067 124.322 119.558C124.447 119.369 124.61 119.152 124.79 118.912C125.455 118.024 126.458 116.68 125.926 116.009C124.126 113.739 121.063 111.798 118.794 110.741C118.506 110.607 118.157 110.458 117.776 110.298C116.363 109.7 114.604 108.957 113.714 107.997C113.421 107.68 113.439 107.183 113.757 106.89C114.074 106.596 114.568 106.614 114.863 106.932C115.524 107.646 117.178 108.345 118.386 108.857C118.786 109.025 119.155 109.182 119.456 109.323C122.605 110.792 125.482 112.929 127.154 115.038C128.436 116.655 126.939 118.657 126.044 119.853C125.885 120.066 125.738 120.261 125.627 120.428C125.298 120.923 124.969 121.459 124.632 122.006C122.934 124.769 120.886 128.097 117.613 128.097L117.611 128.094Z" fill="#231F20"/>
<path d="M122.17 105.697C122.107 105.697 122.044 105.69 121.981 105.675C121.562 105.571 121.305 105.147 121.408 104.726C121.689 103.586 122.523 102.322 123.257 101.205C123.548 100.765 123.822 100.348 124.033 99.9832L124.405 99.3414C126.609 95.5451 129.351 90.8203 130.144 86.6112C130.17 86.4727 130.205 86.2999 130.247 86.0969C131.083 82.0496 130.706 81.1444 130.407 80.9648C130.269 80.8811 130.157 80.866 130.018 80.9072C128.986 81.2185 127.735 83.838 127.135 85.0984C126.912 85.5661 126.736 85.9364 126.587 86.1888C122.354 93.411 118.506 98.9354 114.115 104.099C113.835 104.428 113.34 104.469 113.01 104.188C112.681 103.908 112.641 103.413 112.921 103.083C117.252 97.9918 121.049 92.536 125.235 85.3961C125.349 85.1999 125.522 84.8406 125.72 84.4237C126.809 82.1442 128 79.8799 129.565 79.4081C130.126 79.238 130.696 79.3121 131.21 79.6207C132.83 80.5917 132.353 83.6364 131.779 86.4137C131.739 86.6057 131.705 86.7703 131.682 86.9006C130.84 91.3744 128.022 96.2281 125.757 100.127L125.386 100.768C125.152 101.172 124.866 101.606 124.562 102.067C123.897 103.077 123.143 104.223 122.927 105.102C122.839 105.458 122.518 105.697 122.168 105.697H122.17Z" fill="#231F20"/>
<path d="M130.841 122.536C130.04 122.536 129.229 122.488 128.394 122.426C127.962 122.393 127.639 122.017 127.67 121.587C127.702 121.156 128.057 120.838 128.509 120.864C131.071 121.055 133.212 121.111 135.512 120C135.984 119.772 136.36 119.339 136.47 118.895C136.544 118.597 136.491 118.331 136.308 118.083C135.807 117.4 133.777 117.075 132.433 116.858C131.695 116.739 130.997 116.627 130.477 116.47C130.063 116.345 129.829 115.907 129.954 115.493C130.078 115.079 130.516 114.845 130.93 114.969C131.35 115.095 131.997 115.2 132.683 115.311C134.561 115.613 136.689 115.954 137.571 117.154C138.027 117.775 138.177 118.527 137.992 119.273C137.77 120.165 137.082 120.983 136.193 121.411C134.365 122.294 132.629 122.537 130.841 122.537V122.536Z" fill="#231F20"/>
<path d="M161.885 140.41C161.826 140.41 161.767 140.404 161.709 140.39C161.286 140.292 161.025 139.871 161.122 139.45C161.318 138.577 161.785 127.86 162.198 118.405C162.76 105.539 163.116 97.6583 163.334 96.7161C163.432 96.2937 163.854 96.0372 164.272 96.1304C164.693 96.2264 164.956 96.6489 164.86 97.0699C164.657 97.96 164.183 108.858 163.762 118.473C163.209 131.135 162.859 138.889 162.646 139.804C162.562 140.166 162.24 140.41 161.884 140.41H161.885Z" fill="#231F20"/>
<path d="M147.157 118.622C147.098 118.622 147.039 118.615 146.979 118.601C146.558 118.504 146.295 118.083 146.394 117.66C147.552 112.678 149.614 101.057 149.375 97.775C149.344 97.343 149.668 96.9686 150.099 96.937C150.536 96.9068 150.906 97.2305 150.936 97.6612C151.205 101.363 148.943 113.606 147.919 118.014C147.834 118.376 147.514 118.62 147.157 118.62V118.622Z" fill="#231F20"/>
<path d="M73.1982 103.007C71.1448 103.007 69.1532 102.792 67.2698 102.352C61.7362 101.058 57.2155 97.8587 54.1958 93.0969C51.9752 89.5969 50.5894 85.5743 49.4229 81.7492C49.2968 81.335 49.5298 80.8975 49.9424 80.7713C50.355 80.6465 50.7937 80.8783 50.9198 81.2911C52.0547 85.0106 53.398 88.9139 55.5172 92.2562C58.3532 96.7273 62.427 99.6101 67.6248 100.825C74.3962 102.405 82.711 100.903 89.8689 96.7999C95.4067 93.6249 98.9555 90.9546 101.737 87.8702C102.026 87.5479 102.522 87.5245 102.841 87.8139C103.162 88.1033 103.188 88.5998 102.899 88.9207C100 92.1355 96.336 94.8991 90.6461 98.1618C85.129 101.324 78.9333 103.009 73.1968 103.009L73.1982 103.007Z" fill="#231F20"/>
<path d="M39.4905 83.5116C39.4343 83.5116 39.3767 83.5061 39.3205 83.4924C38.8984 83.3977 38.6324 82.9794 38.7256 82.5584C39.0999 80.8715 39.9867 79.5384 40.8448 78.2492C41.9331 76.6143 42.9612 75.0687 42.8063 72.9346L42.7844 72.5972C42.7446 71.9184 42.6843 70.8911 42.2361 70.6662C41.8495 70.4728 41.6919 70.0024 41.8852 69.6156C42.0784 69.2289 42.5486 69.0711 42.9365 69.2659C44.1962 69.8968 44.2881 71.4671 44.3484 72.5081L44.3676 72.8235C44.5622 75.4938 43.334 77.3371 42.1483 79.1214C41.3341 80.3448 40.5652 81.4996 40.254 82.9013C40.1731 83.2661 39.8496 83.5157 39.4905 83.5157V83.5116Z" fill="#231F20"/>
<path d="M112.275 91.2864C112.195 91.2864 112.115 91.2741 112.035 91.248C111.624 91.115 111.398 90.6733 111.531 90.2619C112.918 85.9623 109.437 81.3856 106.366 77.3466C104.862 75.3689 103.564 73.6614 102.946 72.1308C102.458 70.9225 101.357 66.9904 102.643 64.8454C102.865 64.4751 103.346 64.353 103.717 64.5766C104.088 64.7988 104.208 65.2802 103.986 65.6518C103.229 66.9122 103.749 69.9364 104.397 71.5438C104.936 72.8782 106.235 74.5871 107.61 76.3961C110.751 80.5257 114.659 85.6647 113.019 90.7419C112.912 91.0738 112.605 91.285 112.274 91.285L112.275 91.2864Z" fill="#231F20"/>
<path d="M21.7882 217.685C21.7059 217.685 21.6209 217.672 21.5373 217.643C21.1275 217.505 20.9068 217.061 21.0452 216.651C21.8855 214.157 22.7066 211.989 23.5002 209.892C26.0827 203.07 28.1237 197.681 28.1237 187.761C28.1237 187.328 28.4746 186.978 28.9064 186.978C29.3381 186.978 29.689 187.329 29.689 187.761C29.689 197.968 27.6042 203.476 24.9641 210.447C24.176 212.531 23.359 214.687 22.5284 217.151C22.4173 217.478 22.113 217.685 21.7868 217.685H21.7882Z" fill="#231F20"/>
<path d="M150.092 98.4883C149.896 98.4883 149.7 98.4156 149.547 98.2688C146.26 95.0938 146.11 88.2199 146.787 84.6335C146.866 84.2083 147.271 83.9271 147.702 84.0094C148.127 84.089 148.407 84.4991 148.326 84.9242C147.664 88.4311 147.942 94.5411 150.636 97.1415C150.947 97.4418 150.955 97.9383 150.655 98.2496C150.501 98.4087 150.296 98.4883 150.092 98.4883V98.4883Z" fill="#231F20"/>
<path d="M164.201 97.3017C164.153 97.3017 164.104 97.2976 164.054 97.288C163.629 97.2085 163.35 96.7984 163.431 96.3718C164.065 93.0131 166.21 90.1549 168.287 87.3899C169.227 86.1378 170.114 84.9555 170.839 83.761C171.389 82.8558 171.995 80.8013 171.148 80.2609C169.523 79.2255 166.86 78.9018 164.512 78.6151C163.539 78.4958 162.619 78.3847 161.795 78.2284C161.527 78.1776 161.226 78.1008 160.911 78.0199C160.152 77.8265 159.209 77.5852 158.665 77.7717C157.449 78.1914 156.423 78.8058 155.338 79.4559C154.644 79.8714 153.926 80.3021 153.139 80.6875C152.958 80.7766 152.694 80.8932 152.374 81.0331C151.279 81.5145 148.37 82.7927 148 83.809C147.959 83.9214 147.973 83.9886 148.007 84.06C148.161 84.3713 148.894 85.0228 152.399 84.3836C153.191 84.2383 154.233 83.8323 155.334 83.403C158.617 82.1207 163.115 80.3638 165.662 84.1011C165.906 84.4591 165.814 84.946 165.457 85.1901C165.101 85.4328 164.612 85.3423 164.368 84.9844C162.659 82.4773 159.654 83.3975 155.901 84.8637C154.728 85.3217 153.619 85.7551 152.679 85.9266C151.298 86.1803 147.63 86.8496 146.599 84.7526C146.369 84.2835 146.344 83.772 146.527 83.2727C147.081 81.7545 149.408 80.6258 151.742 79.5985C152.036 79.4696 152.28 79.3626 152.446 79.2817C153.173 78.9237 153.863 78.5109 154.53 78.1118C155.637 77.4494 156.781 76.7636 158.151 76.2905C159.139 75.949 160.285 76.2425 161.296 76.5017C161.577 76.573 161.845 76.6429 162.083 76.6882C162.858 76.8336 163.751 76.9433 164.699 77.0585C167.212 77.3643 170.062 77.7113 171.987 78.9388C173.952 80.1937 172.961 83.2768 172.174 84.5729C171.41 85.8347 170.457 87.1033 169.536 88.3308C167.567 90.9517 165.533 93.6618 164.967 96.6626C164.896 97.0384 164.568 97.3004 164.198 97.3004L164.201 97.3017Z" fill="#231F20"/>
<path d="M146.886 83.5882C146.838 83.5882 146.789 83.5841 146.739 83.5745C146.15 83.4634 144.355 83.1247 144.072 81.7161C143.693 79.8413 146.484 77.8156 149.13 76.0628C149.305 75.9463 149.456 75.8462 149.577 75.7639C150.276 75.2866 151.01 74.7064 151.788 74.092C154.077 72.2844 156.67 70.234 159.521 69.9721C160.819 69.8486 162.269 70.474 163.55 71.0226C163.971 71.2023 164.368 71.3724 164.711 71.493C165.24 71.6796 165.869 71.8565 166.535 72.043C169.007 72.7356 171.807 73.5187 172.777 75.6199C173.285 76.7171 173.198 78.0213 172.521 79.493C172.34 79.8852 171.877 80.058 171.482 79.877C171.089 79.6959 170.919 79.231 171.098 78.8374C171.582 77.7868 171.667 76.9488 171.356 76.2768C170.688 74.8326 168.151 74.1222 166.113 73.5516C165.421 73.3583 164.767 73.1745 164.19 72.9701C163.799 72.833 163.38 72.6519 162.936 72.4627C161.825 71.9881 160.56 71.4505 159.665 71.5314C157.276 71.7509 154.876 73.6477 152.758 75.3209C151.959 75.9518 151.204 76.5484 150.458 77.0572C150.333 77.1422 150.174 77.2478 149.993 77.3685C146 80.0127 145.53 81.0331 145.606 81.4048C145.632 81.5337 145.962 81.8313 147.028 82.0343C147.453 82.1139 147.733 82.5239 147.652 82.9491C147.581 83.3249 147.253 83.5869 146.883 83.5869L146.886 83.5882Z" fill="#231F20"/>
<path d="M146.579 75.4238C146.043 75.4238 145.507 75.3319 144.971 75.1152C143.836 74.6558 143.245 74.0112 143.212 73.1979C143.144 71.4767 145.689 70.0572 148.531 68.6349C148.919 68.4402 149.286 68.2564 149.429 68.1673C149.874 67.8861 150.348 67.5707 150.842 67.2415C152.787 65.9454 154.992 64.4766 157.105 64.0075C158.747 63.6413 160.511 64.1625 162.068 64.6206C162.442 64.7303 162.808 64.8386 163.158 64.9292C163.565 65.0348 164.019 65.1349 164.498 65.2419C167.426 65.8906 171.436 66.7793 172.133 70.3383C172.35 71.441 172.113 72.4312 171.884 73.3885C171.815 73.6738 171.747 73.9591 171.693 74.2457C171.612 74.6709 171.212 74.952 170.778 74.8697C170.353 74.7888 170.073 74.3801 170.154 73.9549C170.213 73.6436 170.287 73.3337 170.361 73.0251C170.56 72.194 170.747 71.4081 170.597 70.6401C170.096 68.0877 166.804 67.3581 164.16 66.7724C163.662 66.6614 163.189 66.5571 162.766 66.4474C162.401 66.3528 162.019 66.2403 161.628 66.1251C160.186 65.7013 158.696 65.2624 157.446 65.5395C155.619 65.9454 153.543 67.3279 151.712 68.5472C151.208 68.8832 150.722 69.2068 150.266 69.4935C150.058 69.6238 149.712 69.798 149.235 70.0366C145.526 71.8936 144.765 72.748 144.782 73.1362C144.783 73.1814 144.922 73.4036 145.563 73.6628C147.048 74.2635 148.814 73.3378 150.684 72.3585C152.452 71.4328 154.281 70.4741 156.059 70.8115C156.484 70.8924 156.763 71.3011 156.682 71.7263C156.603 72.1514 156.2 72.434 155.767 72.3503C154.526 72.1158 153.012 72.9071 151.409 73.7451C149.829 74.5735 148.206 75.4224 146.583 75.4224L146.579 75.4238Z" fill="#231F20"/>
<path d="M168.34 67.6899C168.075 67.6899 167.816 67.5555 167.669 67.3127C166.715 65.7369 166.116 63.9882 165.536 62.2972C165.269 61.5182 164.994 60.7131 164.691 59.9533C164.61 59.7503 164.528 59.5158 164.44 59.2634C164.156 58.4529 163.767 57.342 163.238 57.0087C161.789 56.0939 159.431 56.0624 157.35 56.0336C156.448 56.0212 155.596 56.0103 154.821 55.9321C152.646 55.7154 150.996 55.4987 149.474 55.2299C149.223 55.1846 149.01 55.1682 148.851 55.1682C148.99 55.5179 149.397 56.1021 150.332 56.899C151.688 58.0538 153.459 58.8904 155.319 59.2566C155.615 59.3142 156.019 59.3553 156.447 59.3992C157.712 59.5281 159.147 59.6721 159.989 60.3894C160.913 61.1767 160.787 62.3095 160.692 63.1365C160.654 63.4808 160.613 63.8374 160.662 64.0527C160.757 64.4751 160.492 64.8934 160.07 64.9894C159.646 65.084 159.228 64.8193 159.134 64.3983C159.027 63.9251 159.083 63.4355 159.135 62.9623C159.215 62.2588 159.243 61.8144 158.973 61.584C158.503 61.1849 157.224 61.0546 156.289 60.96C155.823 60.9133 155.385 60.8681 155.017 60.7968C152.9 60.3812 150.875 59.4212 149.318 58.0963C147.81 56.8126 147.11 55.6619 147.24 54.6758C147.28 54.3672 147.443 54.0956 147.698 53.9078C148.121 53.5964 148.812 53.5237 149.747 53.6911C151.229 53.953 152.842 54.1642 154.976 54.3768C155.684 54.4468 156.502 54.4577 157.371 54.4701C159.659 54.5016 162.251 54.5373 164.072 55.6866C165.063 56.312 165.536 57.6629 165.917 58.7491C165.997 58.9782 166.072 59.1921 166.145 59.3759C166.462 60.1714 166.744 60.9943 167.017 61.7911C167.569 63.404 168.141 65.0717 169.008 66.5035C169.232 66.8738 169.114 67.3552 168.744 67.5802C168.618 67.657 168.477 67.694 168.34 67.694V67.6899Z" fill="#231F20"/>
<path d="M148.018 78.1929C147.984 78.1929 147.951 78.1901 147.917 78.186C147.488 78.1312 147.185 77.7375 147.241 77.3083C147.306 76.8104 147.425 75.8819 147.345 75.2167C147.295 74.7875 147.602 74.398 148.031 74.3459C148.45 74.2937 148.85 74.6009 148.901 75.0316C148.996 75.8243 148.896 76.7254 148.794 77.5085C148.743 77.9035 148.406 78.1915 148.018 78.1915V78.1929Z" fill="#231F20"/>
<path d="M111.693 218C111.333 218 111.011 217.753 110.929 217.388C110.688 216.314 110.403 215.114 110.098 213.835C108.932 208.929 107.482 202.824 107.105 198.01C106.581 191.346 107.012 185.86 107.428 180.555C107.512 179.497 107.594 178.442 107.669 177.38C108.216 169.649 109.576 163.881 110.777 158.791C111.647 155.098 112.4 151.909 112.655 148.715C113.061 143.642 112.66 139.471 112.272 135.438C112.126 133.914 111.975 132.339 111.874 130.766C111.845 130.334 112.174 129.963 112.604 129.934C113.052 129.902 113.407 130.234 113.436 130.665C113.535 132.213 113.679 133.705 113.831 135.287C114.224 139.387 114.633 143.628 114.216 148.838C113.952 152.152 113.187 155.394 112.301 159.151C111.116 164.183 109.769 169.885 109.232 177.49C109.157 178.556 109.073 179.616 108.991 180.678C108.58 185.922 108.155 191.346 108.667 197.887C109.035 202.579 110.471 208.618 111.624 213.47C111.93 214.756 112.216 215.962 112.459 217.043C112.553 217.465 112.289 217.885 111.867 217.979C111.809 217.992 111.752 217.999 111.694 217.999L111.693 218Z" fill="#231F20"/>
</g>
<defs>
<clipPath id="clip0_1_463">
<rect width="185" height="218" fill="white"/>
</clipPath>
</defs>
</svg>
