<svg width="336" height="272" viewBox="0 0 336 272" fill="none" xmlns="http://www.w3.org/2000/svg">
<g clip-path="url(#clip0_1_1034)">
<path d="M229.448 228.823L230.198 229.075C230.154 229.209 230.113 229.334 230.063 229.465C229.527 230.911 228.764 232.414 227.344 233.125C225.988 233.804 223.544 234.509 222.182 233.839C222.147 233.819 222.104 233.798 222.062 233.776C220.701 233.043 218.681 230.92 219.025 228.948L218.997 228.885C219.64 228.614 220.295 228.368 220.966 228.159C223.77 227.279 227.026 227.18 229.448 228.823Z" fill="#F0593E"/>
<path d="M108.831 231.616V231.735C108.132 234.207 107.123 235.557 106.197 236.848C105.857 237.316 105.06 237.421 104.382 237.359C103.796 237.309 103.301 237.15 103.251 237.003C102.8 235.57 102.687 234.048 102.735 232.517H102.776C104.951 232 106.872 231.657 108.829 231.616H108.831Z" fill="#F0593E"/>
<path d="M168.218 240.413C168.183 240.693 168.155 240.986 168.155 241.273L167.745 241.267C167.745 240.833 167.688 240.4 167.604 239.988C166.976 237.055 165.218 234.371 162.76 232.61C158.383 229.465 150.241 229.795 145.94 222.6C143.949 219.261 141.513 213.335 143.321 209.9C145.038 207.238 146.62 204.478 148.265 201.775C148.929 200.672 150.001 198.715 151.407 198.409C152.749 198.115 155.071 199.163 156.427 199.484C157.104 199.644 157.803 199.812 158.368 200.217C158.926 200.609 159.011 201.258 159.37 201.838C160.309 203.334 160.154 205.507 161.573 206.576C162.991 207.651 165.011 208.309 166.444 207.253C166.684 207.078 166.911 206.841 166.932 206.548C166.932 206.526 166.926 206.451 166.917 206.324L167.144 206.296C167.157 206.421 167.179 206.498 167.207 206.505C172.756 208.007 172.835 205.673 173.639 201.741C173.774 201.077 173.689 200.001 174.212 199.568C174.748 199.129 175.434 198.913 176.096 198.702C177.423 198.275 179.663 197.059 181.025 197.255C182.445 197.458 183.665 199.331 184.415 200.379C186.243 202.957 188.045 205.582 189.957 208.113L189.951 208.119C192.012 211.417 191.624 217.593 189.923 221.087C185.389 230.364 176.619 229.239 172.488 232.698C170.172 234.634 168.619 237.443 168.216 240.417L168.218 240.413Z" fill="#F0593E"/>
<path d="M168.157 241.271C168.157 242.165 168.384 243.06 169.068 243.597C170.142 244.442 171.731 243.967 172.918 243.282C174.957 242.088 176.639 240.396 178.476 238.908C180.411 237.337 190.283 234.005 193.843 233.858C195.954 233.767 198.059 234.005 200.17 234.011C204.061 234.026 209.364 233.241 212.944 231.726C214.998 230.853 216.955 229.75 219.003 228.883L219.031 228.946C218.685 230.916 220.705 233.039 222.068 233.774L222.005 233.892C234.766 243.98 247.307 251.443 260.787 257.896L260.687 258.099C259.685 261.731 259.013 264.471 258.236 268.103C254.839 284.129 257.36 308.49 261.894 324.243L117.761 324.264C119.188 317.438 122.478 293.637 121.552 278.945C120.521 262.528 116.976 248.24 113.488 232.194L113.517 232.075C113.643 232.103 113.772 232.131 113.898 232.159C116.759 232.83 119.399 234.192 122.175 235.136C125.861 236.38 130.5 236.876 134.385 236.576C136.489 236.414 138.572 236.024 140.683 235.953C144.241 235.841 154.15 237.624 156.198 239.055C158.14 240.402 161.016 242.157 163.14 243.191C164.375 243.793 166 244.148 167.003 243.226C167.547 242.737 167.743 242.01 167.75 241.262L168.16 241.269L168.157 241.271Z" fill="#F0593E"/>
<path d="M166.855 189.37C166.382 191.007 166.719 192.774 166.388 194.442L166.685 194.576C166.417 195.162 166.218 195.77 166.155 196.406C166.035 195.749 165.759 195.134 165.427 194.542L165.787 194.526C165.327 192.884 165.532 191.104 164.939 189.504C164.495 188.31 163.632 187.316 162.785 186.353C161.571 184.969 160.334 183.557 158.843 182.453C157.826 181.693 154.12 179.518 152.806 179.595C152.135 179.63 151.514 179.938 150.913 180.238C145.178 183.13 141.132 186.937 135.483 189.963C130.435 192.675 126.909 197.361 122.942 201.407C118.861 205.571 115.499 208.848 111.009 210.846L110.804 210.372C109.087 203.735 108.453 197.154 107.662 189.036L107.542 188.709C94.0277 193.537 72.9134 197.531 65.9153 199.676L65.8456 199.844C66.3336 200.06 66.8129 200.262 67.301 200.465C81.3539 206.319 94.3676 208.589 109.444 210.811C108.499 210.712 107.588 211.342 106.993 212.187C106.407 213.032 106.089 214.079 105.799 215.107C104.457 219.824 103.512 224.684 102.954 229.603C102.847 230.567 102.756 231.545 102.736 232.517C102.686 234.048 102.799 235.57 103.252 237.003C103.303 237.15 103.797 237.309 104.383 237.359V237.387C82.1404 239.846 61.1809 237.143 39.3106 232.384C31.4366 230.672 23.5626 228.465 16.5928 224.454C7.63158 219.306 -1.44945 210.559 3.25447 199.583C5.09769 195.279 8.37453 191.746 11.7777 188.495C22.5386 178.239 35.1012 170.044 47.7619 162.192C59.7952 154.731 71.9896 147.521 84.3344 140.57C88.3455 138.313 92.7509 136.412 96.5724 133.911C100.133 131.586 103.507 129.426 107.547 127.932C115.66 124.921 124.495 124.089 133.11 124.453C144.986 124.949 156.667 127.533 168.467 128.995L168.445 129.191C165.316 132.286 164.689 137.261 165.987 141.445C167.286 145.622 170.225 149.123 173.445 152.119C179.236 157.506 186.191 161.655 193.712 164.22C195.237 164.744 196.819 165.205 198.435 165.199C200.385 165.199 202.27 164.528 204.085 163.815C209.671 161.629 215.186 158.939 219.543 154.843C223.907 150.757 226.733 145.672 226.626 139.725L226.859 137.944C237.365 140.473 249.808 143.945 259.469 147.284C268.535 150.42 275.901 153.921 281.585 161.786C296.867 182.934 312.099 215.329 321.637 227.986C331.178 240.639 342.764 268.948 327.829 274.319C312.887 279.699 295.917 272.468 289.139 269.868C279.047 265.997 269.705 262.162 260.78 257.894C247.3 251.438 234.757 243.978 221.999 233.89L222.062 233.772C222.103 233.793 222.147 233.815 222.182 233.834C223.543 234.505 225.988 233.8 227.343 233.121C228.764 232.407 229.526 230.907 230.062 229.461C230.112 229.329 230.154 229.202 230.197 229.071C232.378 222.805 231.927 215.735 228.982 209.762L228.509 209.992C221.63 207.078 215.227 203.062 209.626 198.15C205.36 194.406 201.505 189.991 196.259 187.663C190.405 185.057 186.084 181.557 180.136 179.097C179.522 178.839 178.879 178.58 178.208 178.595C176.894 178.617 173.365 181.061 172.395 181.893C170.996 183.102 169.868 184.596 168.759 186.07C167.99 187.09 167.205 188.146 166.852 189.368L166.855 189.37Z" fill="#F0593E"/>
<path d="M189.96 208.108C188.047 205.578 186.245 202.952 184.417 200.374C183.668 199.327 182.447 197.453 181.027 197.251C179.665 197.055 177.425 198.27 176.099 198.697C175.434 198.906 174.75 199.124 174.214 199.564C173.691 199.997 173.776 201.073 173.641 201.736C172.837 205.67 172.759 208.002 167.209 206.5C167.181 206.494 167.159 206.416 167.146 206.291L166.92 206.319C166.822 205.565 166.397 203 165.641 200.723L166.185 200.549C166.031 199.704 166.164 198.831 166.22 197.971C166.255 197.546 166.262 197.126 166.214 196.708C166.198 196.602 166.185 196.505 166.157 196.408C166.22 195.772 166.418 195.164 166.686 194.578L166.39 194.444C166.721 192.776 166.384 191.008 166.856 189.372C167.209 188.15 167.994 187.094 168.763 186.074C169.872 184.6 171 183.106 172.399 181.897C173.366 181.065 176.898 178.621 178.212 178.599C178.883 178.584 179.526 178.843 180.14 179.101C186.086 181.561 190.409 185.061 196.263 187.667C201.509 189.993 205.366 194.41 209.63 198.154C215.229 203.066 221.634 207.082 228.513 209.996L228.986 209.766C231.931 215.739 232.382 222.809 230.201 229.075L229.452 228.823C227.029 227.18 223.774 227.279 220.97 228.159C220.299 228.368 219.643 228.613 219 228.885C216.952 229.752 214.996 230.855 212.941 231.728C209.362 233.243 204.058 234.026 200.167 234.013C198.056 234.007 195.951 233.769 193.84 233.86C190.28 234.007 180.408 237.339 178.473 238.91C176.637 240.398 174.957 242.09 172.915 243.284C171.73 243.969 170.14 244.444 169.066 243.599C168.381 243.06 168.155 242.165 168.155 241.273C168.155 240.986 168.183 240.693 168.218 240.413C168.621 237.436 170.175 234.627 172.491 232.694C176.622 229.236 185.391 230.359 189.925 221.082C191.627 217.588 192.014 211.412 189.953 208.115L189.96 208.108Z" fill="#FDE7DC"/>
<path d="M166.136 196.643C166.114 197.089 166.164 197.531 166.22 197.971C166.164 198.831 166.029 199.704 166.186 200.549L165.641 200.723C166.397 202.999 166.82 205.564 166.92 206.319C166.926 206.444 166.935 206.522 166.935 206.543C166.913 206.836 166.689 207.073 166.447 207.248C165.013 208.302 162.994 207.647 161.575 206.571C160.155 205.502 160.312 203.329 159.373 201.833C159.013 201.253 158.928 200.605 158.37 200.212C157.806 199.807 157.107 199.639 156.429 199.479C155.074 199.158 152.751 198.111 151.409 198.404C150.004 198.712 148.93 200.667 148.268 201.771C146.623 204.474 145.041 207.233 143.324 209.895C141.516 213.333 143.951 219.256 145.943 222.595C150.244 229.79 158.386 229.463 162.763 232.605C165.22 234.366 166.979 237.048 167.606 239.984C167.691 240.395 167.748 240.829 167.748 241.262C167.741 242.01 167.543 242.736 167 243.226C165.998 244.148 164.373 243.792 163.138 243.191C161.013 242.156 158.137 240.404 156.196 239.055C154.148 237.621 144.241 235.841 140.681 235.953C138.57 236.024 136.487 236.414 134.382 236.576C130.498 236.875 125.859 236.38 122.173 235.136C119.397 234.192 116.756 232.83 113.896 232.159C113.769 232.131 113.641 232.103 113.514 232.075C111.848 231.711 110.338 231.579 108.832 231.614C106.876 231.655 104.956 231.998 102.78 232.515H102.738C102.76 231.543 102.852 230.566 102.956 229.601C103.514 224.682 104.459 219.819 105.802 215.105C106.091 214.077 106.409 213.029 106.996 212.184C108.442 211.835 109.771 211.389 111.013 210.843C115.504 208.845 118.865 205.569 122.946 201.404C126.914 197.361 130.439 192.672 135.487 189.961C141.137 186.937 145.182 183.128 150.917 180.235C151.516 179.935 152.139 179.627 152.81 179.593C154.124 179.515 157.83 181.69 158.848 182.451C160.338 183.555 161.573 184.966 162.789 186.35C163.636 187.314 164.497 188.305 164.944 189.502C165.536 191.101 165.332 192.884 165.791 194.524L165.432 194.539C165.763 195.134 166.04 195.748 166.159 196.404C166.144 196.481 166.144 196.563 166.138 196.641L166.136 196.643Z" fill="#FDE7DC"/>
<path fill-rule="evenodd" clip-rule="evenodd" d="M145.587 60.9601C152.503 49.9713 154.865 30.451 167.778 16.8476C179.441 4.62801 196.522 -0.92459 206.29 0.125144C211.281 0.661866 218.366 8.15658 223.839 8.31178C230.397 8.58121 240.289 10.5126 244.311 17.8973C245.958 20.8978 251.891 30.8778 253.213 38.8424C254.56 46.5915 256.78 66.3856 258.965 72.4857C261.151 78.5858 268.595 94.8124 265.576 102.309C264.952 103.98 256.301 114.783 248.496 117.857C240.91 120.952 244.407 121.112 242.792 121.808C238.651 123.537 233.354 117.754 233.354 117.754C233.354 117.754 229.674 121.269 222.059 122.623C204.322 126.149 184.585 119.9 169.504 115.24C164.196 113.583 162.736 108.864 162.736 108.864C162.736 108.864 161.704 110.274 158.81 110.614C155.265 110.886 150.849 109.108 147.391 104.607C143.908 100.322 136.289 99.7205 135.461 87.2466C134.567 77.3744 145.376 60.9343 145.592 60.958L145.587 60.9601Z" fill="#FABDA6"/>
<path fill-rule="evenodd" clip-rule="evenodd" d="M168.445 129.193L173.944 130.038L175.713 112.647C175.713 112.647 171.334 106.528 169.34 100.665C167.588 94.61 167.092 85.7767 167.092 85.7767C167.092 85.7767 161.002 86.1497 156.512 76.3507C156.512 76.3507 158.961 76.0252 168.567 68.9896C171.883 64.7821 175.922 62.6977 180.395 57.9642C186.622 51.2455 188.986 41.7224 196.697 39.5087C208.043 36.1655 216.401 42.0608 217.632 42.8433C218.863 43.6279 223.497 45.4277 226.042 50.2647C229.652 57.3887 231.391 68.9142 234.592 75.7752C235.707 78.3057 241.718 83.8476 244.167 86.0397C244.675 86.4945 242.535 89.6028 241.938 89.939L235.409 92.4869C235.409 92.4869 232.944 99.4599 229.654 105.407C226.367 111.354 219.704 118.028 219.704 118.028C219.704 118.028 218.146 134.683 218.597 136.058C219.048 137.434 226.922 138.093 226.922 138.093C226.922 138.093 228.532 150.093 214.517 158.286C208.769 161.646 204.324 165.925 197.699 165.423C188.165 164.701 176.537 157.206 170.475 149.185C160.2 135.586 168.445 129.197 168.445 129.197V129.193Z" fill="#FDE7DC"/>
<path fill-rule="evenodd" clip-rule="evenodd" d="M240.367 75.4645C239.853 72.1493 241.169 72.5308 241.169 72.5308C241.169 72.5308 247.365 72.1105 247.666 77.357C248.187 82.6272 246.601 87.074 245.516 86.9576C245.516 86.9576 240.642 78.9715 240.367 75.4645Z" fill="#FDE7DC"/>
<path fill-rule="evenodd" clip-rule="evenodd" d="M199.369 99.1341C193.598 98.5133 187.752 98.5521 187.752 98.5521C187.752 98.5521 189.009 107.577 197.84 108.97C206.252 110.095 210.596 101.227 210.596 101.227C210.596 101.227 205.143 99.7527 199.369 99.1319V99.1341Z" fill="white"/>
<path d="M196.595 126.481C195.29 126.298 193.995 125.813 192.782 125.328C189.246 123.916 185.952 121.812 182.98 119.469C179.115 116.423 175.594 112.94 173.232 108.608C171.576 105.575 170.487 102.182 169.644 98.8474C168.234 93.2819 167.641 87.5331 167.193 81.8253C167.094 80.5687 165.099 80.5579 165.199 81.8253C165.905 90.7729 166.903 100.177 170.879 108.375C172.999 112.746 176.237 116.378 179.929 119.519C183.237 122.33 186.864 124.852 190.847 126.634C192.483 127.367 194.268 128.13 196.063 128.38C196.601 128.456 197.126 128.251 197.29 127.69C197.425 127.229 197.126 126.552 196.595 126.477V126.481Z" fill="#231F20"/>
<path d="M200.436 72.9617C199.552 75.3543 198.589 77.9453 198.876 80.5384C199.092 82.4718 200.09 83.7264 201.33 85.1361C203.362 87.4468 199.99 89.8674 197.998 90.749C196.831 91.2663 197.844 92.967 199.005 92.4519C201.674 91.2706 205.177 88.2228 203.635 85.0089C202.968 83.6207 201.515 82.7995 201.046 81.2863C200.256 78.7363 201.482 75.8544 202.358 73.4877C202.8 72.2935 200.874 71.7784 200.434 72.9639L200.436 72.9617Z" fill="#231F20"/>
<path fill-rule="evenodd" clip-rule="evenodd" d="M181.463 74.7765C181.722 72.4141 183.236 70.6207 184.996 70.5927C186.733 70.7802 188.064 72.6598 187.781 75.2378C187.522 77.6002 186.007 79.3936 184.247 79.4216C182.511 79.2341 181.203 77.1389 181.463 74.7765Z" fill="#231F20"/>
<path d="M156.39 114.505C158.752 114.125 160.891 112.554 162.17 110.588C164.118 107.594 163.833 103.85 162.648 100.634C162.212 99.4507 160.286 99.9616 160.726 101.158C161.735 103.9 162.12 107.021 160.449 109.59C159.39 111.22 157.713 112.304 155.861 112.599C155.329 112.686 155.033 113.339 155.164 113.813C155.318 114.373 155.856 114.587 156.39 114.503V114.505Z" fill="#231F20"/>
<path d="M217.691 6.16034C216.893 4.89074 215.597 3.86256 214.357 3.05209C211.098 0.915978 207.102 0.0839503 203.243 0.00635191C197.398 -0.112201 191.482 1.34924 186.097 3.52415C180.61 5.74001 175.503 8.80084 171.022 12.642C166.083 16.8732 162.294 21.9753 159.196 27.64C155.827 33.7983 153.139 40.2778 150.47 46.7551C148.005 52.7345 145.541 58.7354 142.26 64.3311C139.171 69.6013 135.907 74.9147 134.48 80.9113C133.778 83.8536 133.458 87.0071 133.944 90.0076C134.323 92.3571 135.386 94.5471 136.813 96.4439C139.521 100.048 143.395 102.727 145.72 106.618C146.3 107.586 146.744 108.601 147.053 109.685C147.402 110.905 149.326 110.386 148.975 109.161C147.705 104.721 144.308 101.621 141.169 98.4141C139.663 96.875 138.214 95.2649 137.184 93.368C135.957 91.109 135.635 88.6668 135.737 86.1277C135.985 80.0254 138.702 74.4297 141.7 69.2134C143.149 66.6936 144.687 64.2255 146.016 61.6389C147.461 58.8238 148.753 55.9333 149.995 53.0233C152.609 46.8952 155.001 40.6744 157.86 34.6497C160.66 28.7479 163.786 22.9151 168.25 18.0674C175.95 9.70615 186.874 3.79143 198.245 2.27395C202.564 1.69843 207.274 1.79327 211.298 3.62977C211.958 3.93154 212.599 4.27642 213.211 4.66657C213.762 5.01792 214.07 5.24424 214.494 5.60637C214.817 5.88012 215.124 6.17111 215.414 6.47935C215.514 6.58713 215.612 6.69921 215.71 6.8113C215.749 6.85657 215.786 6.90614 215.828 6.95356C215.978 7.13247 215.686 6.76172 215.81 6.92985C215.865 7.0053 215.921 7.08074 215.972 7.15834C216.647 8.23394 218.373 7.24456 217.693 6.16249L217.691 6.16034Z" fill="#231F20"/>
<path d="M194.228 60.2505C189.777 57.3298 183.622 56.9483 178.824 59.356C177.68 59.9293 178.687 61.6322 179.831 61.0588C179.931 61.0093 180.033 60.964 180.136 60.9187C180.358 60.8196 180.022 60.9554 180.345 60.8347C180.517 60.77 180.689 60.7053 180.863 60.645C181.879 60.2915 182.938 60.0285 184.005 59.8862C187.265 59.4487 190.478 60.1578 193.221 61.9555C194.293 62.6582 195.293 60.9511 194.228 60.2527V60.2505Z" fill="#231F20"/>
<path d="M179.812 73.2248C180.381 72.8864 180.895 72.729 181.64 72.5717C182.442 72.4014 183.227 72.3432 184.076 72.3561C185.651 72.3842 187.445 72.7183 188.636 73.7141C189.048 74.0568 189.643 74.1129 190.046 73.7141C190.401 73.3606 190.458 72.6644 190.046 72.3195C188.423 70.9637 186.296 70.4464 184.207 70.3882C182.405 70.3386 180.379 70.5886 178.806 71.5241C177.708 72.1772 178.708 73.8844 179.812 73.227V73.2248Z" fill="#231F20"/>
<path d="M196.28 128.406C197.661 128.598 199.09 128.417 200.456 128.195C204.317 127.572 208.034 126.095 211.516 124.369C216.137 122.075 220.479 119.211 224.059 115.497C226.628 112.835 228.687 109.802 230.366 106.525C233.131 101.137 235.064 95.3425 236.831 89.5722C237.203 88.3544 235.279 87.8349 234.907 89.0484C233.39 94.0061 231.752 98.9638 229.554 103.671C228.009 106.978 226.172 110.153 223.749 112.908C220.658 116.423 216.908 119.204 212.803 121.465C209.15 123.478 205.261 125.196 201.154 126.065C200.021 126.304 198.977 126.464 197.82 126.503C197.513 126.513 197.204 126.516 196.896 126.498C196.722 126.49 196.319 126.438 196.807 126.505C196.269 126.429 195.744 126.634 195.58 127.195C195.448 127.656 195.744 128.335 196.278 128.408L196.28 128.406Z" fill="#231F20"/>
<path fill-rule="evenodd" clip-rule="evenodd" d="M220.123 78.7104C220.382 76.348 219.293 74.2765 217.578 73.8756C215.842 73.6881 214.134 75.2443 213.85 77.8202C213.591 80.1826 214.683 82.2541 216.395 82.6571C218.132 82.8447 219.84 81.2884 220.123 78.7126V78.7104Z" fill="#231F20"/>
<path d="M210.703 63.8482C213.817 62.6541 217.098 62.6627 220.227 63.7879C221.216 64.1436 222.166 64.6113 223.059 65.1588C223.327 65.3226 223.591 65.4972 223.848 65.6783C223.891 65.7085 224.175 65.9154 223.994 65.7817C223.837 65.6653 223.95 65.7473 223.987 65.7774C224.972 66.575 226.39 65.1868 225.397 64.3828C221.24 61.0159 215.159 60.0308 210.172 61.9471C208.989 62.4019 209.503 64.3095 210.701 63.8482H210.703Z" fill="#231F20"/>
<path d="M223.427 76.337C222.087 75.0846 220.209 74.3453 218.424 73.9853C216.374 73.5693 214.128 73.6016 212.28 74.6816C211.176 75.3282 212.178 77.0332 213.287 76.3844C214.703 75.5567 216.468 75.5804 218.032 75.9145C218.823 76.0848 219.61 76.3241 220.342 76.6689C220.684 76.8284 221.015 77.0074 221.333 77.2078C221.677 77.4255 221.747 77.4794 222.017 77.7294C222.95 78.6024 224.361 77.21 223.427 76.3348V76.337Z" fill="#231F20"/>
<path d="M174.008 113.626C173.81 119.169 173.452 124.759 172.618 130.247C172.356 131.971 172.056 133.711 171.511 135.372C171.112 136.582 173.038 137.101 173.433 135.896C174.496 132.657 174.821 129.139 175.167 125.767C175.509 122.424 175.742 119.07 175.91 115.714C175.945 115.018 175.977 114.322 176.004 113.628C176.049 112.358 174.056 112.36 174.01 113.628L174.008 113.626Z" fill="#231F20"/>
<path d="M218.299 118.335C217.441 124.636 216.896 131.046 216.977 137.405C217.005 139.705 217.138 142.011 217.523 144.283C217.737 145.531 219.659 145.003 219.447 143.76C218.77 139.787 218.898 135.655 219.086 131.646C219.256 128.046 219.565 124.453 219.977 120.872C220.04 120.327 220.105 119.782 220.175 119.236C220.195 119.077 220.299 118.303 220.223 118.859C220.295 118.327 220.092 117.807 219.526 117.646C219.062 117.514 218.371 117.807 218.299 118.335Z" fill="#231F20"/>
<path d="M151.866 87.3004C148.973 94.4546 150.328 102.786 155.141 108.791C155.938 109.785 157.339 108.381 156.55 107.396C152.16 101.919 151.175 94.2843 153.788 87.8242C154.265 86.6452 152.337 86.1343 151.866 87.3004Z" fill="#231F20"/>
<path d="M211.725 40.4999C210.298 37.4434 208.261 34.111 204.912 32.8629C202.313 31.8929 199.522 32.7573 197.306 34.2252C194.369 36.1695 192.062 38.9609 190.036 41.7867C187.576 45.2162 185.722 48.9495 183.58 52.5664C181.689 55.7609 179.478 58.7485 176.846 61.3868C174.551 63.6824 171.987 65.6741 169.335 67.5494C166.407 69.623 163.418 71.6125 160.525 73.7336C158.912 74.9148 157.202 75.9494 155.607 77.1587C153.023 79.118 150.644 81.3641 148.886 84.0951C146.833 87.2831 145.868 91.01 146.21 94.78C146.324 96.0345 148.319 96.0453 148.204 94.78C147.914 91.5984 148.583 88.5074 150.206 85.7419C151.611 83.3471 153.574 81.3274 155.72 79.5685C157.322 78.258 159.056 77.1436 160.764 75.9796C163.353 74.2164 165.876 72.3519 168.453 70.5714C173.784 66.8855 178.741 62.9495 182.587 57.6966C184.996 54.4073 186.748 50.7688 188.829 47.2833C190.726 44.1039 192.835 40.9827 195.461 38.3401C197.391 36.3958 200.054 34.1649 203.012 34.4321C206.575 34.7512 208.692 38.6742 210.008 41.4957C210.546 42.6468 212.266 41.6466 211.73 40.4999H211.725Z" fill="#231F20"/>
<path d="M216.007 44.703C220.44 46.0308 223.146 49.6391 224.924 53.6872C226.881 58.1426 227.879 62.9537 229.341 67.5751C232.077 76.223 237.197 84.7653 245.524 89.1324C247.041 89.9278 248.745 90.7124 250.457 90.9905C251.712 91.1952 252.252 89.2941 250.987 89.0893C249.614 88.8651 248.339 88.3176 247.215 87.7744C243.949 86.1987 241.121 83.8708 238.768 81.1484C235.267 77.0982 232.901 72.2052 231.293 67.1505C229.813 62.4967 228.776 57.69 226.855 53.1806C224.844 48.4601 221.669 44.3387 216.536 42.7997C215.305 42.4311 214.78 44.3344 216.007 44.7009V44.703Z" fill="#231F20"/>
<path d="M246.563 121.064C249.866 117.906 251.794 113.791 252.151 109.267C252.445 105.544 251.713 101.757 250.473 98.2522C249.961 96.8037 249.358 95.3854 248.678 94.0059C248.116 92.8656 246.397 93.8636 246.957 95.0017C249.737 100.643 251.423 107.495 249.223 113.595C248.384 115.923 246.942 117.958 245.153 119.669C244.229 120.553 245.639 121.946 246.563 121.064Z" fill="#231F20"/>
<path d="M221.663 12.0102C222.249 11.7774 222.87 11.6244 223.489 11.5058C224.079 11.3916 224.197 11.3786 224.689 11.3291C225.217 11.2773 225.744 11.2471 226.273 11.2407C228.96 11.2083 231.622 11.7494 234.104 12.8616C242.503 16.6273 247.448 25.4649 250.176 33.7809C252.808 41.808 252.728 50.346 253.967 58.6274C254.852 64.5336 256.063 70.4634 258.061 76.1065C259.697 80.7236 261.904 85.1359 263.318 89.8306C264.079 92.3526 264.774 95.0664 264.789 97.709C264.804 100.332 263.979 102.809 262.604 105.033C261.34 107.081 259.706 109.006 257.92 110.627C256.264 112.129 254.268 113.485 253.292 115.561C252.776 116.658 252.597 117.835 252.697 119.038C252.802 120.294 254.795 120.305 254.691 119.038C254.479 116.492 255.985 114.919 257.806 113.347C259.728 111.688 261.469 109.935 263.016 107.922C264.552 105.919 265.804 103.66 266.386 101.197C267.055 98.3622 266.711 95.5492 266.12 92.7363C265.099 87.8691 263.02 83.3727 261.19 78.7729C258.922 73.0758 257.451 67.1784 256.388 61.1516C255.558 56.4461 255.107 51.7061 254.649 46.9575C254.266 42.9827 253.767 39.0144 252.68 35.1604C250.174 26.2797 245.239 16.7803 236.871 12.0555C232.467 9.568 226.859 8.4536 221.9 9.86115C221.643 9.93444 221.386 10.0163 221.138 10.1155C219.961 10.5832 220.476 12.4909 221.667 12.0167L221.663 12.0102Z" fill="#231F20"/>
<path d="M201.875 15.8145C205.891 15.7908 210.172 16.7953 213.231 19.509C216.562 22.4643 217.451 26.7925 216.678 31.0324C216.451 32.274 218.373 32.8064 218.599 31.5562C219.292 27.7539 218.967 23.7252 216.71 20.4618C214.704 17.5648 211.597 15.6528 208.224 14.6764C206.172 14.0815 204.013 13.8293 201.877 13.8401C200.594 13.8465 200.592 15.8188 201.877 15.8123L201.875 15.8145Z" fill="#231F20"/>
<path d="M156.328 79.1784C157.099 81.2046 158.269 83.0497 159.842 84.5608C161.493 86.1472 163.735 87.7056 166.06 88.0139C166.594 88.085 167.058 87.5095 167.058 87.0267C167.058 86.436 166.598 86.1106 166.06 86.0394C165.106 85.9123 164.136 85.2958 163.339 84.7957C162.55 84.2999 161.822 83.7266 161.158 83.0756C159.883 81.8276 158.877 80.3058 158.247 78.6525C158.057 78.1546 157.574 77.814 157.02 77.9649C156.537 78.0964 156.134 78.6762 156.323 79.1784H156.328Z" fill="#231F20"/>
<path d="M162.639 74.8649C162.929 75.3478 163.18 75.8543 163.402 76.3716C163.369 76.2941 163.334 76.2143 163.302 76.1367C163.347 76.2445 163.393 76.3544 163.437 76.4665C163.528 76.7122 163.659 76.9192 163.894 77.0549C164.108 77.1778 164.421 77.2317 164.661 77.1541C164.903 77.0765 165.134 76.9299 165.256 76.7014C165.376 76.4794 165.448 76.1863 165.356 75.9405C165.088 75.2271 164.75 74.5265 164.358 73.8713C164.23 73.6579 164.005 73.4833 163.763 73.4186C163.526 73.3539 163.208 73.382 162.997 73.5178C162.783 73.6536 162.596 73.8562 162.539 74.1062C162.48 74.3649 162.5 74.6343 162.639 74.8671V74.8649Z" fill="#231F20"/>
<path d="M243.998 86.9555C242.995 88.4816 241.695 89.8266 240.137 90.8052C239.364 91.2902 238.544 91.6933 237.675 91.9778C236.69 92.299 235.573 92.6094 234.531 92.5275C233.993 92.4865 233.533 93.0103 233.533 93.5147C233.533 94.0838 233.991 94.4588 234.531 94.5019C235.712 94.5946 237.008 94.2627 238.128 93.9049C239.185 93.5664 240.207 93.0987 241.144 92.5081C242.995 91.3463 244.527 89.7641 245.719 87.9513C246.42 86.8844 244.695 85.895 243.998 86.9555Z" fill="#231F20"/>
<path d="M242.482 108.737C240.362 112.97 239.055 117.9 241.116 122.396C241.321 122.845 241.565 123.269 241.803 123.7C241.84 123.769 241.877 123.838 241.916 123.907C242.018 124.08 241.929 124.11 241.922 123.894C241.929 124.082 241.905 123.955 241.931 123.797C241.97 123.562 242.09 123.237 242.345 123.092C241.999 123.289 243.033 122.851 242.718 122.972C242.707 122.976 242.622 122.965 242.624 122.965C242.574 122.879 242.755 122.985 242.683 122.972C242.624 122.961 242.565 122.952 242.508 122.939C242.203 122.864 241.901 122.791 241.602 122.694C240.796 122.435 240.022 122.094 239.282 121.687C237.401 120.652 235.48 119.036 235.395 116.749C235.347 115.483 233.353 115.477 233.401 116.749C233.497 119.282 235.081 121.258 237.105 122.668C238.561 123.681 240.356 124.554 242.123 124.871C242.827 124.998 243.657 124.946 243.888 124.125C244.027 123.633 243.787 123.177 243.556 122.754C242.868 121.493 242.38 120.514 242.151 119.036C241.657 115.835 242.792 112.563 244.208 109.735C244.776 108.601 243.057 107.601 242.487 108.739L242.482 108.737Z" fill="#231F20"/>
<path d="M235.181 106.508C235.371 109.819 235.013 113.279 233.375 116.232C231.913 118.866 229.51 120.76 226.61 121.644C224.627 122.248 222.564 122.396 220.501 122.308C219.217 122.254 219.22 124.227 220.501 124.28C224.235 124.44 228.161 123.782 231.238 121.56C234.072 119.512 235.88 116.465 236.669 113.108C237.177 110.951 237.301 108.72 237.173 106.513C237.101 105.249 235.107 105.243 235.179 106.513L235.181 106.508Z" fill="#231F20"/>
<path d="M161.525 107.288C161.481 110.039 162.377 112.679 164.294 114.701C165.948 116.447 168.192 117.598 170.499 118.251C171.671 118.583 172.885 118.783 174.099 118.861C175.38 118.943 175.375 116.971 174.099 116.889C170.375 116.652 166.035 114.886 164.279 111.222C163.693 109.998 163.499 108.631 163.521 107.288C163.54 106.019 161.547 106.019 161.527 107.288H161.525Z" fill="#231F20"/>
<path d="M246.988 87.7762C243.445 84.211 241.495 79.9086 240.534 75.0436C239.493 69.7669 239.118 64.3954 237.861 59.1554C236.933 55.2797 235.61 51.5227 233.972 47.8863C233.451 46.7288 231.732 47.7311 232.251 48.8822C234.963 54.9068 236.488 61.2419 237.419 67.7494C238.109 72.5799 238.582 77.5095 240.582 82.0253C241.77 84.7046 243.506 87.0886 245.576 89.1709C246.476 90.0783 247.885 88.6816 246.986 87.7762H246.988Z" fill="#231F20"/>
<path d="M240.58 75.3759C242.772 75.3652 244.855 76.07 245.862 78.0143C247.243 80.6871 246.093 84.2588 245.029 86.8778C244.829 87.3714 245.247 87.962 245.724 88.0913C246.293 88.2465 246.749 87.8995 246.951 87.4015C248.049 84.6964 248.888 81.6118 248.208 78.6976C247.716 76.5895 246.28 74.8953 244.267 74.0632C243.103 73.5804 241.84 73.3993 240.58 73.4058C239.297 73.4123 239.295 75.3846 240.58 75.3781V75.3759Z" fill="#231F20"/>
<path d="M198.875 99.1489C195.025 98.7436 191.132 98.5453 187.258 98.5669C186.546 98.5712 186.208 99.1898 186.297 99.8149C186.801 103.354 189.014 106.859 191.942 108.898C194.59 110.743 198.023 111.463 201.191 110.802C203.865 110.243 206.239 108.665 208.085 106.71C209.196 105.534 210.248 104.18 210.965 102.725C211.244 102.16 211.028 101.453 210.37 101.276C206.614 100.265 202.745 99.5714 198.88 99.1467C197.607 99.0066 197.616 100.979 198.88 101.119C202.566 101.526 206.259 102.214 209.841 103.18C209.643 102.697 209.444 102.214 209.246 101.731C207.773 104.719 205.006 107.545 201.79 108.601C199.047 109.502 196.034 109.077 193.574 107.598C191.655 106.445 190.245 104.676 189.297 102.682C188.798 101.632 188.391 100.453 188.225 99.2911C187.905 99.7072 187.585 100.123 187.265 100.539C191.138 100.515 195.032 100.714 198.882 101.121C200.156 101.255 200.145 99.2825 198.882 99.1489H198.875Z" fill="#231F20"/>
<path d="M190.44 195.582C188.889 194.47 187.39 193.286 185.874 192.127C184.497 191.072 183.006 189.615 181.342 189.036C178.446 188.027 175.028 190.784 172.801 192.308C171.838 192.967 170.86 193.629 169.958 194.37C168.679 195.42 167.646 196.968 167.03 198.487C166.027 200.951 165.681 203.85 165.631 206.493C165.609 207.601 165.742 208.286 166.967 208.584C168.32 208.911 169.875 209.183 171.213 208.655C173.455 207.771 173.808 204.87 174.137 202.811C174.202 202.406 174.15 201.887 174.311 201.505C174.455 201.162 174.777 201.042 175.122 200.899C175.915 200.572 176.745 200.322 177.542 199.998C178.276 199.701 179.054 199.356 179.847 199.244C180.686 199.128 181.235 199.613 181.775 200.195C183.033 201.548 184.011 203.217 185.07 204.721C186.325 206.504 187.584 208.284 188.909 210.019C191.802 213.809 194.983 217.413 198.933 220.155C202.861 222.881 207.286 224.78 211.557 226.904C212.701 227.473 213.712 225.772 212.563 225.201C208.921 223.388 205.177 221.743 201.709 219.607C198.249 217.473 195.347 214.738 192.739 211.653C190.07 208.495 187.75 205.073 185.37 201.703C184.427 200.367 183.523 198.837 182.148 197.886C180.778 196.938 179.259 197.248 177.791 197.789C177.082 198.052 176.398 198.365 175.688 198.623C174.838 198.931 173.945 199.149 173.22 199.712C172.572 200.214 172.372 200.889 172.274 201.675C172.187 202.374 172.071 203.053 171.93 203.743C171.755 204.605 171.59 205.749 171.043 206.415C170.472 207.109 169.33 207.028 168.439 206.877C168.237 206.842 167.341 206.536 167.239 206.616C167.372 206.806 167.503 206.993 167.635 207.181C167.633 207.168 167.629 207.157 167.625 207.144C167.555 207.099 167.616 207.347 167.631 207.178C167.668 206.782 167.62 206.362 167.64 205.958C167.701 204.721 167.845 203.486 168.067 202.266C168.559 199.557 169.596 197.058 171.847 195.394C173.043 194.511 174.274 193.67 175.527 192.866C176.773 192.066 178.041 191.221 179.418 190.891C180.601 190.609 181.423 191.26 182.333 191.92C183.122 192.493 183.898 193.084 184.671 193.678C186.251 194.89 187.815 196.123 189.434 197.282C190.473 198.028 191.469 196.319 190.44 195.58V195.582Z" fill="#231F20"/>
<path d="M166.947 201.478C167.039 200.184 166.551 198.934 166.632 197.647C166.708 196.438 167.385 195.341 167.998 194.328C169.283 192.203 170.776 190.211 172.464 188.379C173.985 186.73 175.586 184.839 178.068 185.128C180.462 185.408 182.454 187.251 184.462 188.417C187.171 189.991 189.94 191.472 192.681 192.991C193.801 193.612 194.807 191.909 193.687 191.289C190.992 189.795 188.271 188.336 185.604 186.792C183.305 185.464 181.172 183.578 178.453 183.203C177.235 183.035 176.024 183.182 174.902 183.688C173.691 184.234 172.754 185.223 171.843 186.154C169.954 188.085 168.261 190.215 166.806 192.485C165.978 193.774 165.078 195.162 164.769 196.682C164.438 198.313 165.072 199.85 164.956 201.478C164.867 202.745 166.86 202.739 166.95 201.478H166.947Z" fill="#231F20"/>
<path d="M166.853 195.705C167.108 194.27 166.954 192.819 167.161 191.383C167.355 190.053 168.093 188.963 168.882 187.902C170.257 186.051 171.671 184.208 173.573 182.856C174.351 182.304 175.152 181.783 175.985 181.319C176.697 180.923 177.451 180.498 178.152 180.63C179.468 180.877 180.804 181.666 181.989 182.261C183.231 182.884 184.443 183.559 185.643 184.253C187.987 185.609 190.292 187.038 192.702 188.286C195.086 189.519 197.495 190.528 199.674 192.118C203.918 195.216 207.413 199.214 211.557 202.441C216.444 206.248 221.797 209.416 227.512 211.846C228.678 212.341 229.695 210.643 228.519 210.143C223.161 207.864 218.08 204.944 213.457 201.424C209.078 198.089 205.409 193.953 201.005 190.655C198.768 188.98 196.31 187.919 193.839 186.648C191.299 185.341 188.878 183.828 186.406 182.406C185.159 181.688 183.896 180.994 182.604 180.36C181.34 179.739 179.943 178.961 178.545 178.694C176.643 178.33 174.793 179.653 173.294 180.651C171.061 182.138 169.37 183.981 167.758 186.109C166.821 187.346 165.834 188.601 165.396 190.112C164.917 191.767 165.226 193.502 164.93 195.177C164.71 196.419 166.631 196.951 166.851 195.701L166.853 195.705Z" fill="#231F20"/>
<path d="M229.46 228.971C225.564 226.434 220.769 227.732 216.88 229.536C214.793 230.504 212.782 231.652 210.588 232.372C208.546 233.041 206.413 233.472 204.28 233.737C202.117 234.006 199.953 234.073 197.774 233.978C195.818 233.892 193.855 233.737 191.909 234.034C188.848 234.502 185.83 235.489 182.933 236.545C181.578 237.039 180.222 237.567 178.928 238.203C177.638 238.837 176.627 239.749 175.545 240.684C174.682 241.43 173.817 242.178 172.873 242.824C172.065 243.378 171.117 244.019 170.098 244.064C167.81 244.167 168.808 240.632 169.22 239.423C169.88 237.487 171.104 235.69 172.704 234.392C173.584 233.676 174.658 233.209 175.717 232.814C178.429 231.808 181.246 231.086 183.767 229.631C187.197 227.652 189.909 224.38 191.068 220.608C192.212 216.887 192.408 212.063 190.323 208.619C189.665 207.53 187.94 208.522 188.602 209.614C190.447 212.667 190.142 217.025 189.081 220.291C187.996 223.627 185.502 226.432 182.427 228.115C179.978 229.458 177.253 230.085 174.671 231.109C171.442 232.39 169.035 234.735 167.671 237.938C166.934 239.669 166.287 241.898 166.875 243.758C167.525 245.812 169.64 246.413 171.56 245.754C173.621 245.047 175.338 243.471 176.952 242.076C178.166 241.027 178.876 240.393 180.336 239.712C183.151 238.399 186.177 237.436 189.179 236.642C190.441 236.31 191.741 235.966 193.047 235.862C195.406 235.677 197.783 236.028 200.145 235.998C204.888 235.935 209.747 235.084 214.056 233.088C218.335 231.105 223.802 227.645 228.451 230.674C229.525 231.374 230.525 229.667 229.458 228.971H229.46Z" fill="#231F20"/>
<path d="M142.095 198.984C143.422 197.876 144.701 196.712 145.988 195.561C147.195 194.481 148.396 193.205 149.766 192.326C150.991 191.539 152.507 192.179 153.705 192.753C154.969 193.356 156.191 194.046 157.401 194.751C159.52 195.988 161.514 197.307 162.959 199.344C164.403 201.379 164.893 204.194 165.307 206.6C165.342 206.802 165.375 207.003 165.405 207.205C165.414 207.268 165.425 207.332 165.434 207.397C165.401 207.128 165.444 207.393 165.434 207.414C165.342 207.613 165.575 207.33 165.329 207.477C164.943 207.71 164.575 207.817 164.124 207.798C163.301 207.763 162.438 207.367 161.791 206.875C161.17 206.403 160.939 205.716 160.727 204.996C160.523 204.295 160.344 203.595 160.041 202.927C159.71 202.194 159.348 201.245 158.764 200.674C157.684 199.616 155.769 199.417 154.363 198.971C152.967 198.527 151.335 198.016 149.94 198.719C148.579 199.404 147.746 200.864 146.995 202.116C144.995 205.444 143.06 208.815 140.883 212.034C138.437 215.653 135.648 219.054 132.14 221.718C128.676 224.35 124.793 226.383 121.057 228.599C119.957 229.252 120.959 230.957 122.063 230.302C125.602 228.202 129.253 226.264 132.58 223.841C135.957 221.382 138.737 218.397 141.191 215.043C143.65 211.68 145.742 208.076 147.877 204.509C148.296 203.81 148.707 203.105 149.141 202.414C149.559 201.745 150.056 200.915 150.768 200.519C151.363 200.189 152.069 200.379 152.692 200.536C153.514 200.743 154.307 201.04 155.117 201.282C155.836 201.497 156.926 201.549 157.418 202.155C157.684 202.482 157.814 202.959 158.015 203.33C158.226 203.724 158.392 204.106 158.525 204.535C159.011 206.108 159.35 207.576 160.786 208.576C162.257 209.602 164.335 210.223 166.031 209.359C167.231 208.749 167.51 207.873 167.329 206.677C166.937 204.062 166.349 201.245 165.039 198.915C163.732 196.589 161.492 194.889 159.237 193.535C157.867 192.712 156.472 191.914 155.037 191.205C153.605 190.496 151.901 189.735 150.267 190.017C148.361 190.345 146.744 192.233 145.365 193.462C143.814 194.843 142.282 196.253 140.687 197.585C139.707 198.406 141.123 199.795 142.097 198.98L142.095 198.984Z" fill="#231F20"/>
<path d="M166.65 201.288C166.45 199.915 166.903 198.544 166.633 197.164C166.367 195.813 165.581 194.621 164.792 193.513C163.225 191.314 161.443 189.264 159.46 187.426C157.609 185.708 155.626 183.908 152.905 184.096C150.083 184.29 148.12 186.143 145.941 187.695C143.142 189.691 140.202 191.508 137.327 193.392C136.261 194.091 137.259 195.8 138.333 195.095C140.608 193.603 142.887 192.123 145.155 190.622C146.249 189.898 147.32 189.146 148.36 188.346C149.331 187.596 150.318 186.816 151.491 186.395C152.517 186.027 153.617 185.921 154.661 186.286C155.807 186.686 156.746 187.639 157.628 188.435C159.441 190.066 161.11 191.868 162.565 193.817C163.373 194.899 164.323 196.08 164.648 197.41C164.997 198.835 164.515 200.352 164.729 201.81C164.912 203.062 166.833 202.529 166.65 201.286V201.288Z" fill="#231F20"/>
<path d="M166.254 195.263C165.898 193.884 165.959 192.444 165.644 191.056C165.334 189.698 164.591 188.562 163.715 187.495C162.11 185.538 160.362 183.55 158.212 182.166C156.678 181.179 154.87 180.052 153.053 179.688C151.826 179.442 150.715 179.979 149.649 180.526C148.338 181.201 147.065 181.949 145.821 182.742C143.427 184.27 141.144 185.96 138.775 187.529C136.446 189.071 133.884 190.267 131.649 191.942C127.291 195.205 123.91 199.577 120.077 203.398C116.086 207.377 111.848 210.867 106.233 212.242C104.989 212.548 105.517 214.45 106.763 214.143C116.813 211.682 122.69 202.997 129.694 196.22C131.618 194.358 133.684 192.83 136.03 191.53C138.435 190.198 140.693 188.635 142.945 187.068C145.231 185.479 147.529 183.904 149.987 182.582C150.913 182.085 151.913 181.388 152.959 181.703C153.815 181.962 154.623 182.388 155.406 182.811C157.663 184.033 159.412 185.589 161.107 187.506C162.081 188.607 163.197 189.732 163.617 191.172C164.055 192.672 163.942 194.272 164.332 195.787C164.648 197.016 166.572 196.496 166.254 195.263Z" fill="#231F20"/>
<path d="M102.549 234.468C104.841 233.927 107.152 233.52 109.518 233.612C111.865 233.705 114.126 234.293 116.312 235.117C118.525 235.951 120.674 236.947 122.966 237.557C125.072 238.117 127.253 238.438 129.428 238.581C131.772 238.734 134.073 238.583 136.4 238.3C138.171 238.085 139.938 237.874 141.725 237.986C144.832 238.182 147.949 238.742 150.971 239.469C152.148 239.751 153.374 240.044 154.479 240.527C155.026 240.766 155.492 241.12 155.985 241.452C156.878 242.049 157.789 242.62 158.71 243.172C160.333 244.142 162.124 245.366 164.02 245.696C166.085 246.056 167.913 244.987 168.19 242.857C168.432 240.993 167.68 238.99 166.817 237.361C165.854 235.541 164.447 233.957 162.763 232.759C160.431 231.101 157.494 230.431 154.839 229.459C151.2 228.129 148.054 226.158 146.093 222.753C145.076 220.987 144.239 219.106 143.694 217.144C143.193 215.342 142.799 213.154 143.675 211.4C144.241 210.266 142.522 209.266 141.953 210.404C140.302 213.713 141.568 217.735 142.951 220.914C144.365 224.162 146.309 227.031 149.333 229.002C151.952 230.709 154.982 231.564 157.902 232.606C159.172 233.058 160.434 233.565 161.553 234.321C163.192 235.429 164.488 237.046 165.327 238.816C165.824 239.863 167.177 243.118 165.432 243.734C164.625 244.019 163.638 243.594 162.928 243.245C161.996 242.786 161.087 242.273 160.19 241.747C158.704 240.876 157.316 239.755 155.788 238.966C154.74 238.425 153.566 238.1 152.429 237.798C149.355 236.988 146.18 236.44 143.014 236.119C139.199 235.733 135.5 236.667 131.691 236.677C129.206 236.684 126.717 236.421 124.297 235.856C121.807 235.272 119.493 234.233 117.118 233.321C114.673 232.384 112.142 231.741 109.51 231.638C106.976 231.539 104.464 231.985 102.01 232.565C100.764 232.858 101.291 234.761 102.54 234.466L102.549 234.468Z" fill="#231F20"/>
<path d="M223.122 207.979C225.544 206.235 227.475 210.796 228.146 212.374C229.246 214.963 229.887 217.756 230.037 220.561C230.185 223.328 229.874 226.098 229.085 228.758C228.725 229.965 228.32 231.254 227.54 232.269C226.78 233.259 225.564 233.686 224.379 233.959C223.133 234.246 222.163 234.155 221.196 233.306C220.224 232.455 219.355 231.293 219.529 229.95C219.692 228.693 217.697 228.706 217.535 229.95C217.195 232.569 219.856 235.759 222.488 236.061C224.011 236.235 225.603 235.768 226.978 235.153C228.436 234.505 229.407 233.295 230.057 231.877C232.933 225.594 232.641 217.879 229.963 211.596C229.264 209.958 228.449 208.106 227.093 206.886C225.762 205.69 223.671 205.159 222.117 206.278C221.089 207.018 222.082 208.729 223.124 207.981L223.122 207.979Z" fill="#231F20"/>
<path d="M309.735 237.356C303.31 227.807 291.471 225.068 280.776 223.169C274.753 222.099 268.814 220.815 262.942 219.099C257.093 217.39 251.336 215.383 245.617 213.292C239.164 210.934 232.747 208.472 226.268 206.185C225.058 205.759 224.535 207.664 225.738 208.086C236.996 212.057 248.059 216.579 259.472 220.114C265.18 221.882 270.973 223.395 276.858 224.468C282.745 225.542 288.708 226.423 294.351 228.475C299.698 230.42 304.814 233.59 308.016 238.35C308.725 239.402 310.452 238.415 309.738 237.354L309.735 237.356Z" fill="#231F20"/>
<path d="M220.798 235.591C230.323 243.114 240.503 249.759 251.246 255.452C261.872 261.082 272.957 265.809 284.158 270.189C293.527 273.855 302.967 277.641 313.155 278.188C316.12 278.348 319.097 278.207 322.027 277.72C324.524 277.304 327.173 276.692 329.413 275.476C332.396 273.855 334.265 270.946 335.006 267.712C335.869 263.951 335.489 259.991 334.736 256.245C333.853 251.863 332.35 247.623 330.572 243.523C328.827 239.501 326.768 235.595 324.382 231.907C322.393 228.833 320.125 225.956 318.158 222.86C312.724 214.31 307.941 205.353 302.98 196.531C297.357 186.531 291.664 176.538 285.241 167.015C282.191 162.493 279.075 158.163 274.654 154.845C270.334 151.604 265.301 149.48 260.227 147.683C249.028 143.714 237.483 140.589 225.927 137.823C223.412 137.222 220.894 136.646 218.366 136.105C217.116 135.838 216.582 137.739 217.837 138.007C229.064 140.408 240.2 143.363 251.157 146.771C261.273 149.916 271.964 153.229 278.942 161.629C280.639 163.67 282.11 165.918 283.589 168.115C285.115 170.38 286.596 172.674 288.045 174.987C291.078 179.826 293.976 184.747 296.817 189.698C302.115 198.93 307.164 208.302 312.558 217.482C314.606 220.968 316.7 224.44 319.025 227.756C321.212 230.877 323.413 233.918 325.267 237.257C327.398 241.092 329.239 245.092 330.694 249.227C332.071 253.139 333.176 257.226 333.439 261.375C333.644 264.589 333.387 268.068 331.59 270.851C329.354 274.312 324.92 275.291 321.081 275.884C310.752 277.477 300.344 274.351 290.819 270.663C280.263 266.576 269.746 262.399 259.562 257.456C249.059 252.356 238.956 246.474 229.478 239.678C227.01 237.908 224.585 236.078 222.203 234.196C221.21 233.412 219.791 234.8 220.794 235.591H220.798Z" fill="#231F20"/>
<path d="M103.891 237.404C82.4494 239.747 61.0345 237.154 40.0575 232.649C30.5691 230.612 21.0632 227.943 13.028 222.35C6.55275 217.84 0.489289 210.714 3.14083 202.392C4.56791 197.913 7.84039 194.24 11.1543 191C14.7971 187.441 18.6927 184.134 22.7169 181.005C30.678 174.814 39.1969 169.363 47.7681 164.047C57.0017 158.32 66.3332 152.742 75.752 147.316C80.3121 144.691 84.87 142.078 89.5587 139.686C91.8551 138.513 94.1515 137.328 96.3215 135.935C98.4109 134.594 100.476 133.223 102.66 132.034C111.588 127.177 122.264 126.041 132.297 126.429C143.125 126.847 153.762 129.033 164.466 130.525C167.039 130.883 169.619 131.206 172.205 131.46C173.482 131.585 173.473 129.613 172.205 129.488C161.231 128.406 150.429 126.065 139.456 124.966C128.931 123.912 118.055 124.108 107.96 127.561C105.544 128.389 103.228 129.436 101.008 130.686C98.8336 131.911 96.7878 133.327 94.6679 134.637C90.1862 137.405 85.3341 139.58 80.75 142.18C71.1025 147.648 61.5465 153.276 52.0886 159.062C43.1209 164.547 34.164 170.096 25.6843 176.306C21.5229 179.354 17.4726 182.559 13.6271 185.99C9.97556 189.247 6.28694 192.677 3.64194 196.815C1.25621 200.549 -0.0684699 204.858 0.735488 209.272C1.45665 213.23 3.81406 216.728 6.61157 219.562C13.248 226.29 22.3901 230.133 31.3992 232.603C36.5715 234.022 41.8485 235.084 47.1145 236.095C52.459 237.121 57.8296 238.005 63.2285 238.701C74.0351 240.094 84.9594 240.665 95.8466 240.044C98.533 239.891 101.215 239.665 103.888 239.372C105.15 239.234 105.163 237.259 103.888 237.399L103.891 237.404Z" fill="#231F20"/>
<path d="M108.95 210.831C105.767 210.697 104.743 214.353 104.091 216.752C103.24 219.888 102.56 223.07 102.052 226.279C101.566 229.349 100.998 232.58 101.303 235.692C101.403 236.71 101.42 238.449 102.451 239.008C103.218 239.422 104.34 239.46 105.172 239.258C106.307 238.98 106.869 237.967 107.464 237.057C108.283 235.802 108.878 234.434 109.299 233C109.656 231.778 107.732 231.256 107.377 232.476C107.002 233.757 106.475 234.942 105.743 236.063C105.251 236.818 105.015 237.447 104.033 237.387C103.874 237.378 103.654 237.292 103.503 237.305C103.368 237.257 103.338 237.251 103.412 237.285C103.662 237.557 103.712 237.52 103.56 237.178C103.573 236.816 103.377 236.354 103.329 235.99C103.277 235.598 103.253 235.201 103.235 234.804C103.174 233.244 103.331 231.685 103.512 230.138C103.895 226.887 104.466 223.658 105.207 220.47C105.571 218.908 105.959 217.345 106.425 215.81C106.782 214.637 107.41 212.738 108.948 212.803C110.231 212.857 110.229 210.885 108.948 210.831H108.95Z" fill="#231F20"/>
<path d="M109.215 210.865C98.9726 209.349 88.7238 207.672 78.7952 204.696C73.7188 203.174 68.7708 201.305 63.934 199.152C59.1604 197.026 54.341 194.735 49.1534 193.8C43.9418 192.86 38.3228 193.224 33.767 196.112C32.6907 196.796 33.6886 198.503 34.7736 197.815C43.5671 192.239 54.1993 196.962 62.6485 200.73C71.9561 204.881 81.6124 207.875 91.6128 209.893C97.271 211.035 102.977 211.923 108.685 212.766C109.94 212.951 110.481 211.052 109.215 210.865Z" fill="#231F20"/>
<path d="M65.6909 201.631C68.5037 200.773 71.3862 200.126 74.2469 199.452C78.3386 198.49 82.4325 197.548 86.5154 196.557C94.8579 194.531 103.342 192.466 111.266 189.127C114.055 187.952 117.214 186.56 119.083 184.091C119.855 183.076 118.123 182.091 117.362 183.096C117.491 182.927 117.299 183.171 117.258 183.218C117.179 183.305 117.101 183.393 117.02 183.477C116.824 183.68 116.615 183.872 116.397 184.055C116.011 184.38 115.571 184.686 115.057 185.012C113.782 185.816 112.416 186.482 111.037 187.09C107.497 188.648 103.782 189.827 100.074 190.927C91.7597 193.39 83.2931 195.309 74.8526 197.285C71.6128 198.044 68.3425 198.758 65.1572 199.73C63.9349 200.103 64.4556 202.008 65.6866 201.633L65.6909 201.631Z" fill="#231F20"/>
<path d="M106.173 190.037C106.879 197.279 107.539 204.567 109.354 211.637C109.67 212.866 111.594 212.346 111.276 211.113C109.505 204.209 108.855 197.107 108.167 190.037C108.045 188.784 106.051 188.771 106.173 190.037Z" fill="#231F20"/>
<path d="M265.654 220.369C264.719 215.215 262.613 210.462 261 205.506C259.185 199.926 258.327 194.117 258.554 188.254C258.684 184.902 259.172 181.585 259.989 178.33C260.299 177.097 258.377 176.573 258.068 177.806C256.597 183.669 256.157 189.778 256.839 195.783C257.172 198.701 257.745 201.585 258.573 204.405C259.325 206.963 260.281 209.451 261.192 211.956C262.255 214.879 263.175 217.834 263.73 220.892C263.957 222.14 265.878 221.612 265.652 220.369H265.654Z" fill="#231F20"/>
<path d="M262.353 324.982C260.041 316.903 258.64 308.555 257.843 300.202C257.024 291.628 256.788 282.898 257.867 274.336C258.505 269.269 259.795 264.281 261.152 259.364C261.49 258.138 259.568 257.614 259.228 258.84C257.993 263.326 256.817 267.865 256.128 272.47C255.507 276.632 255.23 280.839 255.178 285.045C255.065 294.074 255.897 303.132 257.416 312.034C258.189 316.571 259.161 321.081 260.429 325.51C260.778 326.73 262.701 326.211 262.351 324.986L262.353 324.982Z" fill="#231F20"/>
<path d="M112.03 233.461C114.62 245.368 117.477 257.25 119.034 269.346C119.487 272.871 119.832 276.406 120.058 279.951C120.139 281.212 122.132 281.221 122.052 279.951C121.261 267.587 118.893 255.435 116.243 243.351C115.483 239.88 114.707 236.412 113.953 232.94C113.683 231.7 111.762 232.224 112.032 233.463L112.03 233.461Z" fill="#231F20"/>
<path d="M167.245 129.497C162.804 133.995 163.175 140.975 166.018 146.191C167.569 149.039 169.776 151.511 172.14 153.72C174.572 155.994 177.215 158.057 180.008 159.881C182.851 161.737 185.864 163.338 189 164.662C192.146 165.99 195.667 167.531 199.159 167.104C200.98 166.88 202.691 166.231 204.382 165.558C205.926 164.944 207.458 164.295 208.963 163.588C212.057 162.136 215.018 160.418 217.7 158.303C223.18 153.986 227.197 147.834 227.119 140.725C227.104 139.457 225.112 139.453 225.125 140.725C225.267 153.332 212.303 160.838 201.726 164.457C200.098 165.013 198.42 165.382 196.695 165.13C195.085 164.895 193.52 164.313 192.006 163.748C189.119 162.674 186.331 161.347 183.666 159.808C178.4 156.766 173.184 152.824 169.519 147.948C167.576 145.361 166.068 142.339 165.874 139.076C165.696 136.099 166.511 133.06 168.652 130.889C169.55 129.98 168.14 128.585 167.243 129.495L167.245 129.497Z" fill="#231F20"/>
</g>
<defs>
<clipPath id="clip0_1_1034">
<rect width="335" height="272" fill="white" transform="translate(0.5)"/>
</clipPath>
</defs>
</svg>
