<svg width="134" height="40" viewBox="0 0 134 40" fill="none" xmlns="http://www.w3.org/2000/svg">
<rect width="134" height="40" rx="8" fill="white"/>
<path fill-rule="evenodd" clip-rule="evenodd" d="M14.439 7.88338C14.1602 8.18542 14 8.65031 14 9.2544V30.7415C14 31.3456 14.1602 31.8105 14.4494 32.102L14.525 32.1664L26.4675 20.1267V19.8561L14.5145 7.81903L14.439 7.88338Z" fill="url(#paint0_linear_1_2231)"/>
<path fill-rule="evenodd" clip-rule="evenodd" d="M30.4405 24.1556L26.457 20.1384V19.8574L30.4418 15.8402L30.5277 15.8941L35.2407 18.5941C36.5902 19.361 36.5902 20.6243 35.2407 21.4018L30.5277 24.1018C30.5264 24.1018 30.4405 24.1556 30.4405 24.1556Z" fill="url(#paint1_linear_1_2231)"/>
<path fill-rule="evenodd" clip-rule="evenodd" d="M30.525 24.1018L26.4556 19.9979L14.4375 32.1138C14.8765 32.5892 15.6151 32.6431 16.4409 32.1782L30.525 24.1018Z" fill="url(#paint2_linear_1_2231)"/>
<path fill-rule="evenodd" clip-rule="evenodd" d="M30.525 15.8954L16.4409 7.82954C15.6164 7.35415 14.8765 7.41849 14.4375 7.89389L26.4542 19.998L30.525 15.8954Z" fill="url(#paint3_linear_1_2231)"/>
<path opacity="0.2" fill-rule="evenodd" clip-rule="evenodd" d="M30.4403 24.0151L16.4527 32.0272C15.6711 32.4802 14.9742 32.4487 14.5248 32.0377L14.4492 32.1139L14.5248 32.1782C14.9742 32.5879 15.6711 32.6208 16.4527 32.1677L30.5367 24.1018L30.4403 24.0151Z" fill="#231F20"/>
<path opacity="0.12" fill-rule="evenodd" clip-rule="evenodd" d="M35.239 21.2613L30.4297 24.0151L30.5157 24.1018L35.2286 21.4018C35.9033 21.0131 36.2355 20.5061 36.2355 19.9979C36.1925 20.4628 35.8499 20.9054 35.239 21.2613Z" fill="#231F20"/>
<path opacity="0.25" fill-rule="evenodd" clip-rule="evenodd" d="M16.4424 7.97003L35.2394 18.7359C35.8503 19.0813 36.1929 19.5344 36.2463 19.9993C36.2463 19.4923 35.9141 18.9841 35.2394 18.5954L16.4424 7.82951C15.0929 7.05208 14 7.6995 14 9.25437V9.39489C14 7.84002 15.0929 7.2031 16.4424 7.97003Z" fill="white"/>
<path fill-rule="evenodd" clip-rule="evenodd" d="M40.8346 23.8113C40.8346 20.3693 43.7043 17.5668 47.1185 17.5668C49.006 17.5668 50.349 18.3141 51.3625 19.2872L50.1693 20.4901C49.445 19.8046 48.4628 19.2727 47.1172 19.2727C44.624 19.2727 42.6753 21.2964 42.6753 23.8099C42.6753 26.3235 44.624 28.3498 47.1159 28.3498C48.7325 28.3498 49.6521 27.6958 50.2422 27.0996C50.7255 26.6124 51.042 25.9124 51.1645 24.9525H47.1185V23.2505H52.8136C52.8735 23.5552 52.9048 23.9203 52.9048 24.3155C52.9048 25.5933 52.557 27.1784 51.438 28.3065C50.349 29.449 48.9604 30.0583 47.1172 30.0583C43.7017 30.0583 40.832 27.2585 40.832 23.8139L40.8346 23.8113ZM57.5083 22.0148C55.3029 22.0148 53.5027 23.7062 53.5027 26.0346C53.5027 28.3511 55.3016 30.0544 57.5083 30.0544C59.7149 30.0544 61.5113 28.3485 61.5113 26.0333C61.5113 23.7049 59.7136 22.0134 57.5083 22.0148V22.0148ZM57.5083 28.4732C56.3007 28.4732 55.2573 27.4686 55.2573 26.0359C55.2573 24.5887 56.2994 23.5985 57.5083 23.5985C58.7158 23.5985 59.7579 24.5874 59.7579 26.0359C59.7579 27.4673 58.7171 28.4732 57.5083 28.4732ZM66.2424 22.0148C64.0371 22.0148 62.2394 23.7062 62.2394 26.0346C62.2394 28.3511 64.0371 30.0544 66.2424 30.0544C68.4478 30.0544 70.2454 28.3485 70.2454 26.0333C70.2454 23.7049 68.4491 22.0134 66.2424 22.0148V22.0148ZM66.2424 28.4732C65.0349 28.4732 63.9915 27.4686 63.9915 26.0359C63.9915 24.5887 65.0336 23.5985 66.2424 23.5985C67.4499 23.5985 68.4933 24.5874 68.4933 26.0359C68.4933 27.4673 67.4499 28.4732 66.2424 28.4732ZM76.9617 22.259V22.913H76.9018C76.5097 22.4389 75.7542 22.0134 74.8033 22.0134C72.809 22.0134 70.9788 23.7811 70.9788 26.0516C70.9788 28.3038 72.8077 30.057 74.8033 30.057C75.7542 30.057 76.5097 29.6315 76.9018 29.1443H76.9617V29.7221C76.9617 31.2599 76.1463 32.0833 74.8319 32.0833C73.7586 32.0833 73.0942 31.3059 72.822 30.6532L71.2953 31.2928C71.733 32.3578 72.8975 33.6684 74.8306 33.6684C76.8836 33.6684 78.6213 32.4484 78.6213 29.4792V22.2577L76.9617 22.259ZM74.9531 28.4732C73.7455 28.4732 72.7308 27.4515 72.7308 26.0516C72.7308 24.636 73.7442 23.5998 74.9531 23.5998C76.1463 23.5998 77.0829 24.6347 77.0829 26.0516C77.0842 27.4515 76.1476 28.4732 74.9531 28.4732ZM79.8314 17.9936H81.5848V29.8127H79.8314V17.9936ZM86.3902 28.4732C85.4992 28.4732 84.8635 28.0609 84.4584 27.2559L89.7913 25.0299L89.6077 24.5729C89.2768 23.676 88.2633 22.0148 86.1935 22.0148C84.1392 22.0148 82.4315 23.6445 82.4315 26.0359C82.4315 28.2881 84.1236 30.0557 86.3902 30.0557C88.2191 30.0557 89.2768 28.9302 89.7145 28.2736L88.3545 27.3609C87.8999 28.032 87.2799 28.4746 86.3902 28.4732V28.4732ZM86.2534 23.5683C86.9477 23.5683 87.5365 23.9189 87.7332 24.4206L84.1666 25.9137C84.1223 24.3602 85.3611 23.5683 86.2534 23.5683V23.5683Z" fill="#BCBDC0"/>
<path fill-rule="evenodd" clip-rule="evenodd" d="M97.4848 17.9937H93.293V29.8128H95.0424V25.3359H97.4861C99.4257 25.3359 101.333 23.9203 101.333 21.6641C101.333 19.4119 99.427 17.995 97.4887 17.995L97.4848 17.9937ZM97.5304 23.6905H95.0424V19.6378H97.5304C98.8383 19.6378 99.5834 20.7317 99.5834 21.6641C99.5834 22.5808 98.8383 23.6905 97.5304 23.6905V23.6905ZM104.046 29.8128V17.9937H102.297V29.8128H104.046ZM111.905 29.7917V25.2611C111.905 23.1625 110.35 21.9924 108.342 21.9924C107.077 21.9924 105.766 22.5558 105.222 23.8021L106.775 24.4548C107.107 23.8021 107.725 23.588 108.375 23.588C109.279 23.588 110.198 24.1356 110.213 25.1101V25.2322C109.896 25.0497 109.219 24.7752 108.388 24.7752C106.714 24.7752 105.01 25.7023 105.01 27.4358C105.01 29.0183 106.383 30.036 107.921 30.036C109.099 30.036 109.746 29.5041 110.153 28.8817H110.213V29.7944H111.904L111.905 29.7917ZM108.134 28.4706C107.561 28.4706 106.761 28.1817 106.761 27.4686C106.761 26.5559 107.757 26.204 108.617 26.204C109.387 26.204 109.748 26.3708 110.217 26.5993C110.083 27.6604 109.193 28.4575 108.134 28.4706V28.4706ZM118.057 22.2512L116.051 27.3741H115.991L113.91 22.2512H112.025L115.146 29.4135L113.365 33.3966H115.19L120.001 22.2512H118.057Z" fill="#BCBDC0"/>
<path d="M43.8303 12.9346C43.8303 13.4146 43.6517 13.8146 43.2943 14.1346C42.9423 14.4546 42.505 14.6146 41.9823 14.6146C41.5717 14.6146 41.201 14.492 40.8703 14.2466C40.5343 13.9906 40.3077 13.6573 40.1903 13.2466L40.8623 12.9666C40.9477 13.2706 41.0863 13.5053 41.2783 13.6706C41.4757 13.8306 41.7103 13.9106 41.9823 13.9106C42.281 13.9106 42.5397 13.8173 42.7583 13.6306C42.9717 13.4386 43.0783 13.2066 43.0783 12.9346C43.0783 12.6626 42.9663 12.4333 42.7423 12.2466C42.5237 12.06 42.2597 11.9666 41.9503 11.9666H41.4783V11.2786H41.8943C42.1877 11.2786 42.4277 11.1986 42.6143 11.0386C42.801 10.8733 42.8943 10.66 42.8943 10.3986C42.8943 10.1586 42.8063 9.96397 42.6303 9.81463C42.4543 9.6653 42.2223 9.59063 41.9343 9.59063C41.4703 9.59063 41.153 9.82797 40.9823 10.3026L40.3023 10.0146C40.425 9.67863 40.6303 9.40663 40.9183 9.19863C41.2063 8.99063 41.545 8.88663 41.9343 8.88663C42.4197 8.88663 42.8277 9.03063 43.1583 9.31863C43.4837 9.59597 43.6463 9.95597 43.6463 10.3986C43.6463 10.9266 43.401 11.3186 42.9103 11.5746V11.6066C43.1983 11.7293 43.4223 11.908 43.5823 12.1426C43.7477 12.3773 43.8303 12.6413 43.8303 12.9346ZM45.2067 13.2866C45.2067 13.4786 45.2867 13.6386 45.4467 13.7666C45.612 13.8946 45.804 13.9586 46.0227 13.9586C46.332 13.9586 46.6067 13.844 46.8467 13.6146C47.092 13.3853 47.2147 13.116 47.2147 12.8066C46.9853 12.6253 46.6653 12.5346 46.2547 12.5346C45.956 12.5346 45.7053 12.6066 45.5027 12.7506C45.3053 12.8946 45.2067 13.0733 45.2067 13.2866ZM46.1587 10.4386C46.7027 10.4386 47.132 10.5853 47.4467 10.8786C47.7613 11.1666 47.9187 11.564 47.9187 12.0706V14.4866H47.2147V13.9426H47.1827C46.8787 14.3906 46.4733 14.6146 45.9667 14.6146C45.5347 14.6146 45.172 14.4866 44.8787 14.2306C44.5907 13.9746 44.4467 13.6546 44.4467 13.2706C44.4467 12.8653 44.5987 12.5426 44.9027 12.3026C45.212 12.0626 45.6227 11.9426 46.1347 11.9426C46.572 11.9426 46.932 12.0226 47.2147 12.1826V12.0146C47.2147 11.7586 47.1133 11.5426 46.9107 11.3666C46.708 11.1853 46.4707 11.0946 46.1987 11.0946C45.788 11.0946 45.4627 11.268 45.2227 11.6146L44.5747 11.2066C44.932 10.6946 45.46 10.4386 46.1587 10.4386ZM51.4204 10.5666V11.2386H49.5004V14.4866H48.7644V10.5666H51.4204ZM53.9813 13.9426C54.3333 13.9426 54.6293 13.8093 54.8693 13.5426C55.1093 13.2813 55.2293 12.9426 55.2293 12.5266C55.2293 12.116 55.1093 11.7773 54.8693 11.5106C54.6293 11.244 54.3333 11.1106 53.9813 11.1106C53.6239 11.1106 53.3253 11.244 53.0853 11.5106C52.8506 11.7773 52.7333 12.116 52.7333 12.5266C52.7333 12.9426 52.8506 13.284 53.0853 13.5506C53.3253 13.812 53.6239 13.9426 53.9813 13.9426ZM54.1013 14.6146C53.8133 14.6146 53.5493 14.5533 53.3093 14.4306C53.0746 14.308 52.8933 14.1453 52.7653 13.9426H52.7333L52.7653 14.4866V16.2146H52.0293V10.5666H52.7333V11.1106H52.7653C52.8933 10.908 53.0746 10.7453 53.3093 10.6226C53.5493 10.5 53.8133 10.4386 54.1013 10.4386C54.6186 10.4386 55.0559 10.6413 55.4133 11.0466C55.7813 11.4573 55.9653 11.9506 55.9653 12.5266C55.9653 13.108 55.7813 13.6013 55.4133 14.0066C55.0559 14.412 54.6186 14.6146 54.1013 14.6146ZM59.9872 10.5666L57.5312 16.2146H56.7712L57.6832 14.2386L56.0672 10.5666H56.8672L58.0352 13.3826H58.0512L59.1872 10.5666H59.9872ZM61.8374 13.9426C62.1094 13.9426 62.3307 13.8893 62.5014 13.7826C62.6721 13.6706 62.7574 13.532 62.7574 13.3666C62.7574 13.2013 62.6934 13.0653 62.5654 12.9586C62.4374 12.8466 62.2667 12.7906 62.0534 12.7906H61.3654V12.1986H62.0294C62.2001 12.1986 62.3414 12.148 62.4534 12.0466C62.5707 11.94 62.6294 11.8093 62.6294 11.6546C62.6294 11.5053 62.5547 11.3773 62.4054 11.2706C62.2614 11.164 62.0774 11.1106 61.8534 11.1106C61.6507 11.1106 61.4774 11.1426 61.3334 11.2066C61.1894 11.2653 61.0321 11.3746 60.8614 11.5346L60.3734 11.0626C60.7894 10.6466 61.2827 10.4386 61.8534 10.4386C62.2694 10.4386 62.6241 10.5533 62.9174 10.7826C63.2161 11.0066 63.3654 11.284 63.3654 11.6146C63.3654 12.0146 63.1841 12.292 62.8214 12.4466V12.4866C63.2801 12.6893 63.5094 12.996 63.5094 13.4066C63.5094 13.5933 63.4694 13.7613 63.3894 13.9106C63.3094 14.0546 63.1974 14.18 63.0534 14.2866C62.9094 14.3933 62.7334 14.4733 62.5254 14.5266C62.3227 14.5853 62.0934 14.6146 61.8374 14.6146C61.2294 14.6146 60.7041 14.3853 60.2614 13.9266L60.7574 13.4386C61.1147 13.7746 61.4747 13.9426 61.8374 13.9426ZM66.9848 10.5666H67.7208V14.4866H66.9848V12.4386L67.0168 11.6706H66.9848L64.9848 14.4866H64.2488V10.5666H64.9848V12.6146L64.9528 13.3826H64.9848L66.9848 10.5666ZM71.592 10.5666V11.2386H70.344V14.4866H69.608V11.2386H68.36V10.5666H71.592ZM72.0378 14.4866V10.5666H72.7738V11.8786H73.9978C74.3712 11.8786 74.6992 12.0066 74.9818 12.2626C75.2592 12.508 75.3978 12.8146 75.3978 13.1826C75.3978 13.5453 75.2592 13.8546 74.9818 14.1106C74.6992 14.3613 74.3712 14.4866 73.9978 14.4866H72.0378ZM72.7738 12.5506V13.8146H73.9738C74.1552 13.8146 74.3125 13.7533 74.4458 13.6306C74.5792 13.508 74.6458 13.3586 74.6458 13.1826C74.6458 13.0973 74.6272 13.0173 74.5898 12.9426C74.5525 12.8626 74.5018 12.796 74.4378 12.7426C74.3792 12.684 74.3098 12.6386 74.2298 12.6066C74.1498 12.5693 74.0645 12.5506 73.9738 12.5506H72.7738ZM81.2677 10.5666V14.4866H80.5317V12.8706H78.5317V14.4866H77.7957V10.5666H78.5317V12.1826H80.5317V10.5666H81.2677ZM82.6598 13.2866C82.6598 13.4786 82.7398 13.6386 82.8998 13.7666C83.0651 13.8946 83.2571 13.9586 83.4758 13.9586C83.7851 13.9586 84.0598 13.844 84.2998 13.6146C84.5451 13.3853 84.6678 13.116 84.6678 12.8066C84.4384 12.6253 84.1184 12.5346 83.7078 12.5346C83.4091 12.5346 83.1584 12.6066 82.9558 12.7506C82.7584 12.8946 82.6598 13.0733 82.6598 13.2866ZM83.6118 10.4386C84.1558 10.4386 84.5851 10.5853 84.8998 10.8786C85.2144 11.1666 85.3718 11.564 85.3718 12.0706V14.4866H84.6678V13.9426H84.6358C84.3318 14.3906 83.9264 14.6146 83.4198 14.6146C82.9878 14.6146 82.6251 14.4866 82.3318 14.2306C82.0438 13.9746 81.8998 13.6546 81.8998 13.2706C81.8998 12.8653 82.0518 12.5426 82.3558 12.3026C82.6651 12.0626 83.0758 11.9426 83.5878 11.9426C84.0251 11.9426 84.3851 12.0226 84.6678 12.1826V12.0146C84.6678 11.7586 84.5664 11.5426 84.3638 11.3666C84.1611 11.1853 83.9238 11.0946 83.6518 11.0946C83.2411 11.0946 82.9158 11.268 82.6758 11.6146L82.0278 11.2066C82.3851 10.6946 82.9131 10.4386 83.6118 10.4386Z" fill="#231F20"/>
<defs>
<linearGradient id="paint0_linear_1_2231" x1="25.3951" y1="9.02343" x2="6.24483" y2="14.0848" gradientUnits="userSpaceOnUse">
<stop stop-color="#00A0FF"/>
<stop offset="0.007" stop-color="#00A1FF"/>
<stop offset="0.26" stop-color="#00BEFF"/>
<stop offset="0.512" stop-color="#00D2FF"/>
<stop offset="0.76" stop-color="#00DFFF"/>
<stop offset="1" stop-color="#00E3FF"/>
</linearGradient>
<linearGradient id="paint1_linear_1_2231" x1="36.9968" y1="19.9985" x2="13.672" y2="19.9985" gradientUnits="userSpaceOnUse">
<stop stop-color="#FFE000"/>
<stop offset="0.409" stop-color="#FFBD00"/>
<stop offset="0.775" stop-color="#FFA500"/>
<stop offset="1" stop-color="#FF9C00"/>
</linearGradient>
<linearGradient id="paint2_linear_1_2231" x1="28.3121" y1="22.2305" x2="12.7699" y2="48.1778" gradientUnits="userSpaceOnUse">
<stop stop-color="#FF3A44"/>
<stop offset="1" stop-color="#C31162"/>
</linearGradient>
<linearGradient id="paint3_linear_1_2231" x1="11.4123" y1="0.735718" x2="18.3462" y2="12.3243" gradientUnits="userSpaceOnUse">
<stop stop-color="#32A071"/>
<stop offset="0.069" stop-color="#2DA771"/>
<stop offset="0.476" stop-color="#15CF74"/>
<stop offset="0.801" stop-color="#06E775"/>
<stop offset="1" stop-color="#00F076"/>
</linearGradient>
</defs>
</svg>
