<svg width="77" height="13" viewBox="0 0 77 13" fill="none" xmlns="http://www.w3.org/2000/svg">
<g clip-path="url(#clip0_1_1195)">
<path fill-rule="evenodd" clip-rule="evenodd" d="M49.8662 0.34209H43.6598C43.6458 0.340196 43.6315 0.341561 43.6181 0.34608C43.6047 0.350598 43.5926 0.358146 43.5826 0.368137C43.5726 0.378128 43.565 0.390291 43.5605 0.403679C43.556 0.417066 43.5546 0.431316 43.5565 0.445318C43.3832 3.23759 42.8658 6.27327 42.1075 8.72144V8.82467C42.1211 8.83767 42.1374 8.8475 42.1553 8.85345C42.1731 8.8594 42.1921 8.86132 42.2107 8.85908H44.3492C44.3836 8.85908 44.4525 8.82467 44.4525 8.79026C45.084 6.67671 45.4999 4.50462 45.6937 2.30726H47.7328V8.75585C47.7309 8.76985 47.7323 8.78411 47.7368 8.79749C47.7413 8.81088 47.7489 8.82304 47.7589 8.83303C47.7689 8.84303 47.781 8.85057 47.7944 8.85509C47.8078 8.85961 47.8221 8.86098 47.8361 8.85908H49.8751C49.8891 8.86098 49.9034 8.85961 49.9168 8.85509C49.9302 8.85057 49.9423 8.84303 49.9523 8.83303C49.9623 8.82304 49.9699 8.81088 49.9744 8.79749C49.9789 8.78411 49.9803 8.76985 49.9784 8.75585V0.479728C49.9784 0.410909 49.944 0.34209 49.8751 0.34209H49.8662ZM76.1079 0.34209H74.0689C74.0549 0.340196 74.0406 0.341561 74.0272 0.34608C74.0138 0.350598 74.0017 0.358146 73.9917 0.368137C73.9817 0.378128 73.9741 0.390291 73.9696 0.403679C73.9651 0.417066 73.9637 0.431316 73.9656 0.445318V6.85951C73.5169 6.98641 73.0515 7.04442 72.5854 7.03155C71.2409 7.03155 70.9287 6.61737 70.9287 4.82425V0.479728C70.9306 0.465726 70.9292 0.451476 70.9247 0.438088C70.9202 0.424701 70.9126 0.412538 70.9026 0.402547C70.8926 0.392556 70.8805 0.385007 70.8671 0.380489C70.8537 0.375971 70.8394 0.374605 70.8254 0.376499H68.7864C68.7724 0.374605 68.7581 0.375971 68.7447 0.380489C68.7313 0.385007 68.7192 0.392556 68.7092 0.402547C68.6992 0.412538 68.6916 0.424701 68.6871 0.438088C68.6826 0.451476 68.6812 0.465726 68.6831 0.479728V5.1008C68.6831 7.99629 69.6491 9.13436 72.1661 9.13436C73.5178 9.10562 74.8562 8.86126 76.1309 8.41048C76.1666 8.41048 76.201 8.34167 76.201 8.30726V0.479728C76.201 0.410909 76.1653 0.34209 76.0965 0.34209H76.1079ZM33.1763 0.376499H31.1079C31.0391 0.376499 31.0047 0.410909 31.0047 0.445318C30.5075 2.36878 29.8851 4.25768 29.1415 6.09995L27.0731 0.413457C27.0731 0.379048 27.0043 0.344638 26.9699 0.344638H24.9002C24.8658 0.344638 24.8314 0.379048 24.797 0.379048C24.7891 0.385115 24.7826 0.392928 24.7782 0.401879C24.7738 0.41083 24.7715 0.420679 24.7715 0.430662C24.7715 0.440646 24.7738 0.450495 24.7782 0.459446C24.7826 0.468397 24.7891 0.476209 24.797 0.482276L27.9002 8.96486C27.5905 9.61991 27.2796 10.1717 27.0081 10.6892C26.8004 11.0715 26.5939 11.4538 26.3875 11.8616C26.3531 11.896 26.3875 11.9304 26.3875 11.9649C26.4219 11.9993 26.4563 12.0337 26.4907 12.0337H28.7324C28.7668 12.0337 28.8012 11.9993 28.8356 11.9649C29.218 11.241 29.6971 10.2062 30.1457 9.17132C31.3571 6.3448 32.4147 3.45486 33.314 0.514137C33.3155 0.495671 33.313 0.47709 33.3066 0.459689C33.3003 0.442287 33.2902 0.426484 33.2771 0.413381C33.264 0.400278 33.2482 0.39019 33.2308 0.38382C33.2134 0.37745 33.1948 0.374952 33.1763 0.376499ZM40.5565 6.89392C40.5556 6.87562 40.5479 6.85833 40.535 6.84538C40.522 6.83243 40.5047 6.82475 40.4864 6.82382H40.3832C39.7137 7.03646 39.0172 7.15233 38.3148 7.16792C36.9002 7.16792 36.2452 6.78559 36.2452 4.61906C36.2452 2.89477 36.4529 2.07021 38.3148 2.07021C38.8786 2.06923 39.4386 2.1627 39.9716 2.34676C40.0404 2.34676 40.0748 2.34676 40.1092 2.27794C40.3501 1.82935 40.6266 1.31193 40.9363 0.621189V0.514137C40.9351 0.496278 40.9275 0.479459 40.9148 0.466803C40.9022 0.454147 40.8854 0.446513 40.8675 0.445318C39.9972 0.170272 39.0899 0.0305792 38.1772 0.0311295C35.2116 0.0311295 33.9002 1.41006 33.9002 4.54897C33.9002 7.72102 35.2116 9.13691 38.1772 9.13691C38.9011 9.13691 40.3832 8.96486 41.0727 8.68958C41.1428 8.6539 41.1428 8.61949 41.1428 8.55067L40.5565 6.89392ZM59.8322 0.376499H57.7638C57.7282 0.376499 57.6593 0.410909 57.6593 0.445318C57.1633 2.36896 56.5413 4.25791 55.7974 6.09995L53.729 0.413457C53.729 0.379048 53.6602 0.344638 53.6258 0.344638H51.5561C51.5217 0.344638 51.4873 0.379048 51.4529 0.379048C51.445 0.385115 51.4385 0.392928 51.4341 0.401879C51.4297 0.41083 51.4274 0.420679 51.4274 0.430662C51.4274 0.440646 51.4297 0.450495 51.4341 0.459446C51.4385 0.468397 51.445 0.476209 51.4529 0.482276L54.5561 8.96486C54.2464 9.61991 53.9355 10.1373 53.664 10.6892C53.4563 11.0715 53.2498 11.4538 53.0434 11.8616C53.009 11.896 53.0434 11.9304 53.0434 11.9649C53.0778 11.9993 53.1122 12.0337 53.1466 12.0337H55.3883C55.4227 12.0337 55.4571 11.9993 55.4915 11.9649C55.8739 11.241 56.3531 10.2062 56.8017 9.17132C58.1118 6.06809 59.181 3.17132 59.9393 0.516686C59.9415 0.498006 59.9396 0.479063 59.9337 0.461215C59.9277 0.443367 59.9179 0.427057 59.9049 0.413457C59.9049 0.379048 59.8705 0.379048 59.8361 0.379048L59.8322 0.376499ZM67.4189 0.34209H61.4189C61.4048 0.339977 61.3904 0.341179 61.3768 0.345599C61.3633 0.350019 61.351 0.357537 61.3408 0.367555C61.3307 0.377574 61.323 0.389817 61.3184 0.403316C61.3138 0.416814 61.3125 0.431195 61.3144 0.445318V8.75585C61.3125 8.76998 61.3138 8.78436 61.3184 8.79786C61.323 8.81135 61.3307 8.8236 61.3408 8.83362C61.351 8.84363 61.3633 8.85115 61.3768 8.85557C61.3904 8.85999 61.4048 8.86119 61.4189 8.85908H63.458C63.472 8.86098 63.4862 8.85961 63.4996 8.85509C63.513 8.85057 63.5252 8.84303 63.5352 8.83303C63.5452 8.82304 63.5527 8.81088 63.5572 8.79749C63.5617 8.78411 63.5631 8.76985 63.5612 8.75585V2.34166H66.695C66.7294 2.34166 66.7982 2.30726 66.7982 2.27285C67.0391 1.72102 67.2813 1.10037 67.5221 0.514137V0.413457C67.4877 0.376499 67.4533 0.34209 67.4189 0.34209Z" fill="#EF2B53"/>
<path fill-rule="evenodd" clip-rule="evenodd" d="M11.1436 7.23801C9.79904 7.23801 9.38485 6.85568 9.38485 4.61779C9.38485 2.20402 9.83344 1.99629 11.1436 1.99629C12.4537 1.99629 12.9367 2.20402 12.9367 4.61906C12.9367 6.89519 12.4881 7.23928 11.1436 7.23928V7.23801ZM11.1436 0.101221C8.21237 0.101221 7.07431 1.34251 7.07431 4.58465C7.07431 7.85993 8.21237 9.13563 11.1436 9.13563C14.0747 9.13563 15.2472 7.8612 15.2472 4.58465C15.2472 1.37692 14.0747 0.101221 11.1436 0.101221ZM23.3169 6.89519C23.316 6.8769 23.3083 6.8596 23.2953 6.84665C23.2824 6.8337 23.2651 6.82602 23.2468 6.8251H23.1436C22.474 7.03741 21.7774 7.15285 21.0752 7.16792C19.6605 7.16792 19.0055 6.78559 19.0055 4.61906C19.0055 2.89476 19.2132 2.07021 21.0752 2.07021C21.639 2.06922 22.199 2.1627 22.7319 2.34676C22.7591 2.3503 22.7867 2.34564 22.8113 2.33338C22.8358 2.32112 22.8561 2.30182 22.8696 2.27794C23.1104 1.82934 23.387 1.31193 23.6967 0.621187V0.514135C23.6955 0.496276 23.6878 0.479457 23.6752 0.466801C23.6625 0.454145 23.6457 0.446511 23.6278 0.445316C22.7651 0.194993 21.8716 0.0663094 20.9732 0.0629883C18.0076 0.0629883 16.6962 1.44192 16.6962 4.58083C16.6962 7.75288 18.0076 9.16877 20.9732 9.16877C21.6971 9.16877 23.1792 8.99672 23.87 8.72144C23.9388 8.68703 23.9388 8.65262 23.9388 8.58253L23.3182 6.89391L23.3169 6.89519ZM6.45367 0.342088H0.453666C0.384847 0.342088 0.350437 0.413456 0.350437 0.479726V8.79026C0.348544 8.80426 0.349909 8.81851 0.354427 8.8319C0.358945 8.84529 0.366494 8.85745 0.376485 8.86744C0.386476 8.87743 0.398639 8.88498 0.412026 8.8895C0.425414 8.89402 0.439664 8.89538 0.453666 8.89349H2.49275C2.50675 8.89538 2.521 8.89402 2.53439 8.8895C2.54778 8.88498 2.55994 8.87743 2.56993 8.86744C2.57992 8.85745 2.58747 8.84529 2.59199 8.8319C2.5965 8.81851 2.59787 8.80426 2.59598 8.79026V2.34166H5.72979C5.7642 2.34166 5.79861 2.30725 5.83302 2.27284C6.07516 1.72102 6.31603 1.10037 6.55689 0.514135V0.413456C6.52248 0.379046 6.48807 0.344637 6.45367 0.344637V0.342088Z" fill="#0065B3"/>
</g>
<defs>
<clipPath id="clip0_1_1195">
<rect width="75.8641" height="12" fill="white" transform="translate(0.349609 0.0311279)"/>
</clipPath>
</defs>
</svg>
