<svg width="294" height="217" viewBox="0 0 294 217" fill="none" xmlns="http://www.w3.org/2000/svg">
<g clip-path="url(#clip0_1_417)">
<path fill-rule="evenodd" clip-rule="evenodd" d="M197.516 50.388C197.516 50.0453 197.494 47.5445 199.325 46.6878C201.853 45.5067 204.959 44.413 208.53 43.4798C212.531 42.4335 216.891 41.5841 217.252 41.0701C218.897 38.7698 220.384 38.5328 223.223 36.7466C228.884 33.1922 235.589 30.7096 244.155 27.2245C253.905 23.2583 265.73 18.2858 275.381 14.0461C278.754 12.5661 306.471 0.871338 306.471 0.871338C306.471 0.871338 318.633 15.3512 325.324 32.2662C332.015 49.1813 333.239 68.5352 333.239 68.5352C333.239 68.5352 329.46 68.7539 324.534 69.432C315.223 70.7115 299.671 73.205 282.693 75.9902C268.825 78.2613 246.611 82.2969 230.375 84.4696C228.877 84.6701 226.699 84.7248 224.67 84.3165C223.684 84.1196 222.609 83.2775 221.897 83.3176C219.569 83.4416 214.018 84.9581 210.24 85.4867C206.944 85.9497 204.433 86.2413 202.555 85.8257C201.477 85.5924 200.552 84.9399 199.949 84.4149C197.757 82.5083 197.519 52.495 197.519 50.3916L197.516 50.388Z" fill="white"/>
<path fill-rule="evenodd" clip-rule="evenodd" d="M2.67876 159.063H195.573C196.443 159.063 197.148 159.763 197.148 160.627V216.053C197.148 216.914 196.443 217.617 195.573 217.617H2.67876C1.80539 217.617 1.10742 216.914 1.10742 216.053V160.627C1.10742 159.763 1.80904 159.063 2.67876 159.063Z" fill="#007EA4"/>
<path d="M105.925 116.605C105.819 116.605 105.706 116.583 105.603 116.535C105.209 116.357 105.033 115.89 105.209 115.496C105.793 114.191 106.1 112.106 105.888 110.841C105.815 110.415 106.108 110.01 106.535 109.937C106.959 109.86 107.365 110.152 107.441 110.582C107.704 112.157 107.361 114.545 106.641 116.138C106.513 116.43 106.221 116.601 105.925 116.601V116.605Z" fill="#231F20"/>
<path fill-rule="evenodd" clip-rule="evenodd" d="M79.4776 168.407C79.4776 168.407 70.4844 152.72 65.3831 136.902C61.5059 124.876 60.6216 113.112 63.333 106.127C67.7803 94.6622 78.2351 89.7553 87.5389 92.7774C90.075 93.6013 92.3808 95.435 94.6318 97.378C104.378 105.799 103.884 116.262 106.516 117.483C109.465 118.857 118.545 109.466 129.607 109.306C141.487 109.138 154.226 124.373 148.529 139.042C147.005 142.968 142.854 148.495 137.478 152.91C126.917 161.575 112.538 168.45 112.538 168.45L79.4739 168.407H79.4776Z" fill="#F0593E"/>
<path fill-rule="evenodd" clip-rule="evenodd" d="M200.199 49.5276C200.199 49.5276 198.694 51.4888 190.139 53.2569C177.645 55.8415 157.463 56.3483 155.478 56.3483C152.489 56.3483 148.652 56.2717 145.243 56.0056C141.811 55.7395 138.811 55.2656 134.05 54.6568C128.989 54.0115 122.531 53.2788 118.208 54.9776C117.225 55.364 113.202 58.7434 110.41 61.2113C107.125 64.1132 105.064 66.2202 103.99 66.9056C102.316 67.9701 96.9808 70.5729 92.3801 72.917C87.3152 75.5016 82.9959 77.8749 81.9983 79.3732C81.684 79.8434 77.3281 92.8505 77.3281 92.8505C77.3281 92.8505 79.0018 91.8662 85.0094 92.5078C87.4212 92.7667 90.33 94.254 90.33 94.254C90.33 94.254 92.3837 89.6279 92.7966 89.5586C93.5604 89.431 94.7919 95.581 95.256 97.6808C95.4643 98.6359 97.9857 100.316 98.4059 101.115C98.8225 101.91 96.7433 103.175 95.5045 105.533C94.3643 107.699 93.9989 110.91 95.4789 112.602C96.7506 114.056 103.968 111.891 103.968 111.891C103.968 111.891 104.355 113.947 105.148 115.547C105.707 116.685 106.288 117.578 107.929 117.436C108.777 117.363 110.71 116.302 113.144 114.982C113.326 114.884 113.52 112.831 113.611 111.009C113.71 108.978 113.717 107.148 113.933 107.031C115.647 106.113 117.975 105.107 119.59 104.895C120.083 104.833 120.759 111.209 121.212 111.031C124.523 109.736 127.688 109.12 129.92 109.164C130.677 109.182 129.295 103.944 129.701 103.346C130.249 102.533 133.322 102.661 135.237 102.682C139.557 102.737 142.334 103.346 145.546 103.663C149.858 104.093 154.057 104.254 155.486 104.254C159.662 104.254 165.356 102.69 171.944 99.3686C177.506 96.5653 183.086 92.5698 188.257 89.2816C191.308 87.3385 194.513 85.8074 196.695 84.4951C200.188 82.388 202.856 81.5933 202.918 81.2068C203.66 76.712 203.188 67.3868 202.304 60.1979C201.544 54.0079 200.214 49.5239 200.214 49.5239L200.199 49.5276ZM112.866 82.8072C113.027 82.5775 113.217 82.7489 113.604 83.766C114.379 85.7965 115.577 89.4639 115.793 90.0471C116.009 90.6341 116.984 91.8334 116.239 92.012C115.486 92.1907 112.252 93.0437 112.252 93.0437C112.252 93.0437 111.784 85.4903 112.303 84.28C112.563 83.6748 112.705 83.0405 112.87 82.8072H112.866ZM124.205 83.7149L130.505 87.3495L128.978 88.5744L127.552 89.3107L125.831 89.6279L124.205 83.7149Z" fill="#FDE7DC"/>
<path fill-rule="evenodd" clip-rule="evenodd" d="M55.7095 132.225C55.7095 132.225 55.7607 134.238 56.5463 135.503C57.3247 136.764 58.8449 137.274 58.8449 137.274C58.8449 137.274 57.544 137.38 56.835 138.652C56.1261 139.925 56.0165 142.36 56.0165 142.36C56.0165 142.36 55.8374 140.049 55.0554 138.791C54.2734 137.526 52.8848 137.311 52.8848 137.311C52.8848 137.311 54.0578 137.048 54.7631 135.776C55.472 134.504 55.7095 132.225 55.7095 132.225Z" fill="white"/>
<path fill-rule="evenodd" clip-rule="evenodd" d="M45.9613 107.469C45.9613 107.469 45.9942 108.876 46.5424 109.758C47.0905 110.641 48.1502 110.998 48.1502 110.998C48.1502 110.998 47.2403 111.071 46.747 111.957C46.2537 112.846 46.1733 114.552 46.1733 114.552C46.1733 114.552 46.0454 112.937 45.5009 112.055C44.9528 111.173 43.9844 111.023 43.9844 111.023C43.9844 111.023 44.8066 110.834 45.2963 109.948C45.7896 109.058 45.9613 107.469 45.9613 107.469Z" fill="white"/>
<path fill-rule="evenodd" clip-rule="evenodd" d="M58.8126 94.2249C58.8126 94.2249 58.8382 95.1727 59.2072 95.7669C59.5763 96.3611 60.2889 96.6017 60.2889 96.6017C60.2889 96.6017 59.6786 96.6491 59.3461 97.2506C59.0099 97.8521 58.9587 99.0004 58.9587 99.0004C58.9587 99.0004 58.8747 97.9104 58.5056 97.3162C58.1365 96.7184 57.4824 96.6199 57.4824 96.6199C57.4824 96.6199 58.0379 96.496 58.3668 95.8981C58.703 95.3003 58.8126 94.2249 58.8126 94.2249Z" fill="white"/>
<path fill-rule="evenodd" clip-rule="evenodd" d="M126.727 141.904C126.727 141.904 126.774 143.917 127.56 145.178C128.346 146.439 129.859 146.953 129.859 146.953C129.859 146.953 128.561 147.059 127.852 148.331C127.147 149.6 127.03 152.035 127.03 152.035C127.03 152.035 126.851 149.727 126.069 148.463C125.287 147.201 123.898 146.986 123.898 146.986C123.898 146.986 125.071 146.72 125.78 145.451C126.486 144.179 126.727 141.901 126.727 141.901V141.904Z" fill="white"/>
<path fill-rule="evenodd" clip-rule="evenodd" d="M154.239 113.371C154.239 113.371 154.275 114.778 154.824 115.66C155.372 116.543 156.428 116.9 156.428 116.9C156.428 116.9 155.518 116.976 155.025 117.862C154.531 118.752 154.455 120.458 154.455 120.458C154.455 120.458 154.327 118.843 153.782 117.961C153.234 117.079 152.266 116.925 152.266 116.925C152.266 116.925 153.084 116.74 153.574 115.85C154.071 114.964 154.239 113.371 154.239 113.371Z" fill="white"/>
<path d="M97.9576 114.1C97.1062 114.1 96.2547 113.943 95.5239 113.524C94.4897 112.933 93.8466 111.927 93.6164 110.535C93.0463 107.097 95.5166 103.419 97.6945 100.943C103.413 94.4217 112.64 92.1979 120.782 90.233C121.268 90.1163 121.765 90.0106 122.299 89.8976C125.62 89.194 130.641 88.1296 130.985 84.7393C131.029 84.3054 131.412 83.9883 131.851 84.0357C132.282 84.0794 132.596 84.4658 132.553 84.896C132.088 89.4237 126.395 90.6304 122.628 91.4287C122.109 91.5381 121.626 91.6402 121.206 91.7422C113.236 93.6634 104.269 95.8288 98.8748 101.971C97.2779 103.794 94.6761 107.29 95.1694 110.272C95.3192 111.191 95.6956 111.807 96.3059 112.164C97.3254 112.748 99.0941 112.635 101.17 111.851C103.666 110.91 106.183 109.704 108.617 108.537C112.732 106.568 116.985 104.531 121.48 103.561C126.592 102.456 130.842 101.931 134.467 101.971C137.833 102.001 141.056 102.351 144.166 102.69C150.254 103.349 155.998 103.973 162.32 102.249C169.811 100.207 177.094 95.5445 184.144 91.035C190.009 87.2802 196.075 83.4014 202.199 81.0865C202.601 80.9334 203.062 81.1375 203.215 81.5458C203.369 81.9505 203.164 82.4061 202.758 82.5593C196.791 84.8122 190.794 88.6472 184.995 92.3583C177.851 96.9298 170.462 101.662 162.737 103.765C156.126 105.566 150.236 104.928 143.994 104.25C140.921 103.918 137.738 103.572 134.453 103.543C130.948 103.506 126.812 104.017 121.816 105.096C117.501 106.025 113.327 108.023 109.3 109.955C106.834 111.133 104.287 112.354 101.729 113.32C100.804 113.666 99.3718 114.1 97.9576 114.1V114.1Z" fill="#231F20"/>
<path d="M129.668 87.5536C129.558 87.5536 129.445 87.5317 129.342 87.4843C126.795 86.3396 124.639 84.7538 122.553 83.2264C120.437 81.6734 118.438 80.2079 116.041 79.1325C115.646 78.9539 115.471 78.4873 115.646 78.0935C115.825 77.6962 116.293 77.5212 116.688 77.6998C119.238 78.8482 121.394 80.4303 123.485 81.9614C125.597 83.5107 127.596 84.9762 129.993 86.0516C130.391 86.2303 130.563 86.6969 130.384 87.0906C130.252 87.3822 129.967 87.5536 129.668 87.5536Z" fill="#231F20"/>
<path d="M77.7486 92.7374C77.6828 92.7374 77.6098 92.7301 77.5403 92.7082C77.1237 92.5952 76.8753 92.1651 76.9849 91.7458C78.3881 86.6057 80.5112 80.5287 81.0448 79.4496C82.6344 76.2088 92.9833 71.3056 104.363 66.1399C108.017 64.4776 111.474 62.9137 112.022 62.4325C112.556 61.9695 113.023 61.4373 113.52 60.8795C114.046 60.2889 114.587 59.6801 115.223 59.137C115.548 58.8526 116.045 58.8891 116.33 59.2172C116.612 59.5453 116.575 60.041 116.25 60.3254C115.698 60.7993 115.212 61.3461 114.701 61.9185C114.196 62.4908 113.666 63.0814 113.06 63.6136C112.369 64.2151 109.829 65.3817 105.017 67.5653C97.1309 71.1452 83.9353 77.1347 82.4626 80.1386C82.0058 81.0645 79.9119 87.0067 78.5087 92.1578C78.4173 92.5077 78.0958 92.7374 77.7523 92.7374H77.7486Z" fill="#231F20"/>
<path d="M90.4789 94.5384C90.3729 94.5384 90.2706 94.5165 90.1683 94.4728C89.77 94.3014 89.5836 93.8385 89.7554 93.4411L89.8358 93.2515C90.5849 91.5126 91.6081 89.1285 92.4888 87.7505C93.4827 86.1902 97.1078 85.3846 101.391 84.5607C102.374 84.3711 103.221 84.2107 103.642 84.0831C106.064 83.354 107.935 82.8656 109.744 82.3953C112.211 81.7537 114.542 81.1449 117.857 80.0148C118.27 79.869 118.719 80.0913 118.862 80.5033C119.004 80.9152 118.781 81.36 118.368 81.5021C114.999 82.6578 112.642 83.2702 110.146 83.9191C108.348 84.3857 106.496 84.8669 104.102 85.5924C103.605 85.7418 102.761 85.9059 101.69 86.1064C99.3697 86.5548 94.5351 87.4807 93.8262 88.5963C93.0186 89.8685 92.0174 92.1871 91.2902 93.8749L91.2061 94.0645C91.0782 94.3598 90.7895 94.5384 90.4826 94.5384H90.4789Z" fill="#231F20"/>
<path d="M104.231 66.7818C103.943 66.7818 103.661 66.625 103.526 66.348C103.329 65.9615 103.489 65.4876 103.877 65.2944C106.49 63.9893 108.576 61.926 110.593 59.9356C113.645 56.9171 116.795 53.7929 121.812 53.2388C126.584 52.7102 131.708 53.5159 136.663 54.296C140.006 54.8209 143.164 55.3167 146.222 55.4407C157.072 55.8745 168.17 55.0579 177.591 54.2048C183.514 53.669 188.86 52.794 193.476 51.6093C195.559 51.077 197.916 50.4719 199.282 48.8387C199.56 48.5033 200.053 48.4632 200.39 48.7403C200.726 49.0173 200.77 49.5131 200.492 49.8449C198.8 51.8681 196.067 52.568 193.87 53.1331C189.167 54.3397 183.741 55.2256 177.733 55.7724C168.258 56.6327 157.101 57.4493 146.16 57.0119C143.003 56.8879 139.659 56.3593 136.422 55.8526C131.565 55.0907 126.548 54.3033 121.984 54.8064C117.514 55.3021 114.69 58.0982 111.701 61.0584C109.599 63.1399 107.421 65.2908 104.582 66.7089C104.469 66.7635 104.348 66.7891 104.231 66.7891V66.7818Z" fill="#231F20"/>
<path d="M95.2827 97.6445C94.8478 97.6445 94.4933 97.2946 94.4933 96.8571C94.4933 95.1656 93.514 92.8872 92.721 91.0571C92.5091 90.565 92.3081 90.102 92.14 89.6792C91.9792 89.2745 92.1765 88.8188 92.5785 88.6584C92.9841 88.498 93.4409 88.6949 93.6017 89.0959C93.7698 89.5115 93.9635 89.9599 94.1718 90.4374C95.0159 92.3987 96.0683 94.8412 96.0683 96.8571C96.0683 97.2909 95.7139 97.6445 95.2827 97.6445Z" fill="#231F20"/>
<path d="M104.852 95.9565C104.472 95.9565 104.14 95.6831 104.074 95.3003C103.584 92.373 102.685 89.4566 101.812 86.6313L101.75 86.4381C101.622 86.0225 101.856 85.5814 102.272 85.4575C102.685 85.3262 103.127 85.5595 103.255 85.9751L103.318 86.1683C104.202 89.041 105.119 92.0084 105.623 95.0378C105.696 95.468 105.404 95.8726 104.977 95.9419C104.933 95.9492 104.889 95.9528 104.849 95.9528L104.852 95.9565Z" fill="#231F20"/>
<path d="M112.472 93.2296C112.037 93.2296 111.682 92.8797 111.682 92.4459C111.682 91.622 111.613 90.6632 111.536 89.6461C111.383 87.5026 111.226 85.2861 111.642 83.6128C111.748 83.1936 112.176 82.9384 112.596 83.0441C113.016 83.1462 113.272 83.5764 113.166 83.9956C112.812 85.421 112.961 87.5099 113.108 89.5331C113.184 90.5757 113.257 91.5636 113.257 92.4459C113.257 92.8797 112.903 93.2296 112.472 93.2296V93.2296Z" fill="#231F20"/>
<path d="M116.442 92.5152C116.117 92.5152 115.81 92.3074 115.697 91.9793C115.21 90.5248 114.651 89.0484 114.111 87.623C113.566 86.183 113.003 84.6957 112.506 83.212C112.371 82.8 112.594 82.3553 113.003 82.2204C113.416 82.0819 113.866 82.3042 114.001 82.7162C114.487 84.1707 115.046 85.6435 115.583 87.0689C116.128 88.5088 116.694 89.9998 117.195 91.4836C117.33 91.8955 117.107 92.3402 116.698 92.4788C116.614 92.5043 116.53 92.5189 116.446 92.5189L116.442 92.5152Z" fill="#231F20"/>
<path d="M125.69 90.1092C125.336 90.1092 125.014 89.8722 124.927 89.515C124.799 89.0155 124.689 88.5052 124.579 87.9948C124.298 86.6751 124.006 85.3117 123.425 84.1525C123.231 83.7624 123.388 83.2921 123.776 83.0989C124.17 82.9057 124.638 83.0661 124.832 83.4489C125.5 84.7868 125.815 86.2486 126.122 87.6631C126.228 88.1589 126.33 88.651 126.454 89.1322C126.56 89.5514 126.301 89.9779 125.884 90.0837C125.818 90.0982 125.756 90.1055 125.69 90.1055V90.1092Z" fill="#231F20"/>
<path d="M113.43 168.381C113.134 168.381 112.845 168.21 112.718 167.926C112.535 167.528 112.707 167.062 113.098 166.883C123.914 161.903 142.807 151.623 147.799 138.758C150.287 132.346 149.297 125.201 145.08 119.153C141.129 113.484 135.191 110.017 129.622 110.094C123.344 110.181 117.614 113.404 113.43 115.755C110.032 117.669 107.777 118.938 106.187 118.198C104.93 117.614 104.364 115.908 103.516 113.327L103.319 112.737C103.184 112.321 103.406 111.876 103.819 111.745C104.232 111.61 104.678 111.833 104.813 112.241L105.011 112.835C105.658 114.789 106.209 116.477 106.856 116.776C107.711 117.17 110.112 115.821 112.659 114.388C116.989 111.957 122.92 108.617 129.604 108.526C135.696 108.464 142.127 112.168 146.377 118.256C150.897 124.738 151.95 132.419 149.268 139.327C144.075 152.709 124.791 163.23 113.759 168.312C113.653 168.36 113.54 168.385 113.43 168.385V168.381Z" fill="#231F20"/>
<path d="M97.8292 101.392C97.6063 101.392 97.3833 101.297 97.2262 101.111C96.2871 99.9994 95.2383 98.9422 94.1128 97.9689C92.9836 96.9955 91.774 96.1461 90.5206 95.4535C90.1369 95.242 90.0054 94.7645 90.2137 94.3854C90.4256 94.0062 90.9007 93.8713 91.2844 94.0791C92.6364 94.8265 93.9301 95.7342 95.1433 96.7804C96.3346 97.8048 97.4382 98.9203 98.4321 100.098C98.7135 100.43 98.6696 100.925 98.3371 101.206C98.1909 101.33 98.0082 101.388 97.8292 101.388V101.392Z" fill="#231F20"/>
<path d="M79.395 168.451C79.1282 168.451 78.8724 168.316 78.7263 168.075C69.1557 152.607 56.3147 122.036 62.6 105.843C65.2749 98.9496 70.1424 94.1412 76.3072 92.3039C76.4862 92.2383 81.9311 90.3025 91.001 93.8605C91.4066 94.0172 91.6039 94.4766 91.4431 94.8776C91.286 95.2822 90.8292 95.4791 90.4236 95.3223C81.9676 92.0049 76.8516 93.773 76.8005 93.7949C71.0706 95.5046 66.5685 99.9776 64.069 106.412C57.992 122.073 70.6577 152.042 80.0674 167.255C80.294 167.623 80.177 168.108 79.8079 168.334C79.68 168.414 79.5375 168.451 79.395 168.451V168.451Z" fill="#231F20"/>
<path d="M197.091 217.668C196.656 217.668 196.305 217.318 196.305 216.881V160.693C196.305 160.255 195.951 159.905 195.519 159.905H130.112C129.677 159.905 129.322 159.552 129.322 159.122C129.322 158.691 129.677 158.338 130.112 158.338H195.519C196.82 158.338 197.88 159.391 197.88 160.693V216.881C197.88 217.318 197.526 217.668 197.091 217.668V217.668Z" fill="#231F20"/>
<path d="M1.03176 217.668C0.593252 217.668 0.246094 217.318 0.246094 216.881V160.693C0.246094 159.392 1.30218 158.338 2.60675 158.338H73.5397C73.9746 158.338 74.3254 158.688 74.3254 159.122C74.3254 159.556 73.9709 159.906 73.5397 159.906H2.60675C2.17189 159.906 1.81743 160.256 1.81743 160.693V216.881C1.81743 217.318 1.46297 217.668 1.03176 217.668V217.668Z" fill="#231F20"/>
<path d="M154.142 169.224H45.4749C45.04 169.224 44.6855 168.87 44.6855 168.436C44.6855 168.002 45.0364 167.652 45.4749 167.652H154.145C154.58 167.652 154.931 168.002 154.931 168.436C154.931 168.87 154.58 169.224 154.145 169.224H154.142Z" fill="#231F20"/>
<path d="M201.443 84.8889C201.158 84.8889 200.858 84.8124 200.562 84.6483C200.182 84.4405 200.036 83.9666 200.248 83.5838C200.453 83.2047 200.932 83.0625 201.315 83.2667C201.396 83.3104 201.432 83.3141 201.443 83.3177C201.439 83.3104 201.67 83.161 201.911 82.3188C203.683 76.0596 200.679 53.0237 199.437 49.0611C199.342 49.2579 199.258 49.473 199.236 49.6116C199.305 49.9506 199.137 50.3042 198.819 50.4646C198.428 50.6615 197.953 50.5047 197.76 50.1146C197.398 49.3892 198.158 47.8399 198.786 47.3842C199.309 47.0087 199.941 47.0524 200.387 47.5008C202.108 49.2178 205.847 80.0659 202.792 84.1489C202.426 84.6374 201.955 84.8853 201.447 84.8853L201.443 84.8889Z" fill="#231F20"/>
<path d="M197.604 51.3176C197.253 51.3176 196.935 51.0806 196.84 50.7234C196.658 49.987 196.49 48.8861 197.14 47.8033C198.518 45.5249 203.155 43.7897 216.99 40.3884C217.41 40.2864 217.841 40.5415 217.944 40.9644C218.05 41.3873 217.79 41.8102 217.366 41.9159C204.507 45.0765 199.566 46.83 198.488 48.6163C198.207 49.0793 198.174 49.5787 198.364 50.3443C198.47 50.7635 198.214 51.19 197.791 51.2957C197.725 51.3103 197.663 51.3176 197.597 51.3176H197.604Z" fill="#231F20"/>
<path d="M204.078 86.635C202.602 86.635 201.487 86.4891 200.99 86.1282C200.23 85.5741 199.422 84.8487 199.225 83.6639C199.156 83.2374 199.444 82.8291 199.872 82.7598C200.303 82.6869 200.705 82.9785 200.778 83.4051C200.877 83.9993 201.304 84.4149 201.915 84.8596C203.526 85.8803 219.872 83.3176 221.699 82.4026C222.086 82.2093 222.561 82.3661 222.755 82.7525C222.949 83.1426 222.792 83.6129 222.401 83.8061C221.275 84.3675 209.881 86.6313 204.071 86.6313L204.078 86.635Z" fill="#231F20"/>
<path d="M228.766 85.4284C228.675 85.4284 228.598 85.4284 228.532 85.4211C228.225 85.3992 227.886 85.3883 227.531 85.3737C225.587 85.3045 223.164 85.2206 221.735 83.5765C221.45 83.2484 221.487 82.7526 221.812 82.4683C222.141 82.1839 222.638 82.2204 222.927 82.5448C223.906 83.6713 225.949 83.7442 227.593 83.8025C227.966 83.8171 228.32 83.828 228.649 83.8536C231.028 84.0176 251.16 80.5945 272.482 76.9672C299.995 72.2901 328.418 67.4525 332.971 67.7697C333.406 67.7988 333.735 68.1743 333.706 68.6081C333.673 69.042 333.311 69.3664 332.862 69.3372C328.52 69.0383 298.892 74.0691 272.749 78.5166C250.981 82.2167 232.103 85.4284 228.777 85.4284H228.766Z" fill="#231F20"/>
<path d="M217.557 42.2548C217.239 42.2548 216.932 42.0543 216.804 41.7408C215.602 38.7807 224.548 34.7087 252.536 22.8827L253.88 22.314C275.28 13.2696 300.991 2.28575 305.797 0.178661C306.195 0.00367747 306.663 0.185951 306.831 0.579664C307.006 0.977021 306.824 1.44 306.429 1.61498C301.62 3.72207 275.894 14.7169 254.491 23.7613L253.139 24.33C236.117 31.5225 218.522 38.9593 218.266 41.2086C218.434 41.6096 218.233 42.0398 217.827 42.2038C217.736 42.2403 217.645 42.2585 217.55 42.2585L217.557 42.2548Z" fill="#231F20"/>
<path d="M222.118 83.6968H222.111C221.676 83.6931 221.329 83.3359 221.332 82.9021C221.456 72.0932 220.638 49.6005 216.669 41.8357C216.472 41.4492 216.629 40.9753 217.013 40.7785C217.4 40.5816 217.875 40.7347 218.073 41.1211C222.18 49.1558 223.031 71.9765 222.904 82.9203C222.904 83.3504 222.549 83.6968 222.118 83.6968V83.6968Z" fill="#231F20"/>
<path d="M112.95 115.7C112.844 115.7 112.734 115.675 112.628 115.631C112.23 115.452 112.051 114.989 112.23 114.592C113.114 112.635 113.012 110.17 112.917 107.997L112.902 107.618C112.884 107.185 113.22 106.82 113.655 106.802C114.086 106.784 114.455 107.119 114.473 107.556L114.492 107.932C114.59 110.28 114.7 112.941 113.669 115.237C113.538 115.533 113.253 115.704 112.95 115.704V115.7Z" fill="#231F20"/>
<path d="M120.907 111.512C120.53 111.512 120.198 111.242 120.132 110.859C119.978 109.933 119.81 109.018 119.642 108.1C119.474 107.166 119.306 106.233 119.149 105.3C119.08 104.87 119.368 104.465 119.796 104.396C120.234 104.327 120.633 104.615 120.702 105.041C120.859 105.967 121.024 106.893 121.195 107.819C121.363 108.745 121.532 109.671 121.689 110.597C121.758 111.027 121.469 111.432 121.038 111.501C120.994 111.512 120.951 111.512 120.91 111.512H120.907Z" fill="#231F20"/>
<path d="M129.924 109.795C129.899 109.795 129.873 109.795 129.851 109.791C129.42 109.751 129.102 109.368 129.139 108.938C129.237 107.855 129.084 106.762 128.93 105.701C128.806 104.851 128.686 103.977 128.686 103.098C128.686 102.664 129.036 102.311 129.471 102.311C129.906 102.311 130.261 102.661 130.261 103.098C130.261 103.864 130.37 104.647 130.491 105.478C130.655 106.63 130.827 107.819 130.71 109.08C130.673 109.489 130.334 109.795 129.932 109.795H129.924Z" fill="#231F20"/>
<path d="M154.065 167.142H117.643C117.208 167.142 116.857 166.788 116.857 166.355C116.857 165.921 117.212 165.571 117.643 165.571H154.065C154.5 165.571 154.851 165.921 154.851 166.355C154.851 166.788 154.5 167.142 154.065 167.142Z" fill="#231F20"/>
<path d="M77.5051 167.142H45.395C44.9602 167.142 44.6094 166.788 44.6094 166.354C44.6094 165.921 44.9602 165.571 45.395 165.571H77.5051C77.9399 165.571 78.2944 165.921 78.2944 166.354C78.2944 166.788 77.9436 167.142 77.5051 167.142Z" fill="#231F20"/>
</g>
<defs>
<clipPath id="clip0_1_417">
<rect width="294" height="218" fill="white"/>
</clipPath>
</defs>
</svg>
