<svg width="25" height="24" viewBox="0 0 25 24" fill="none" xmlns="http://www.w3.org/2000/svg">
<g id="Clothes/handbag">
<g id="Group 1953">
<path id="Rectangle 329" d="M7.19922 8C7.19922 5.79086 8.99008 4 11.1992 4H13.6992C15.9084 4 17.6992 5.79086 17.6992 8V8H7.19922V8Z" stroke="#F0593E" stroke-width="2" stroke-linecap="round" stroke-linejoin="round"/>
<path id="Rectangle 328" d="M2.19922 12.5L11.7141 14.8787C12.0326 14.9584 12.3658 14.9584 12.6843 14.8787L22.1992 12.5V18C22.1992 19.1046 21.3038 20 20.1992 20H4.19922C3.09465 20 2.19922 19.1046 2.19922 18V12.5Z" stroke="#F0593E" stroke-width="2" stroke-linecap="round" stroke-linejoin="round"/>
<path id="Rectangle 331" d="M22.1992 13.5V10C22.1992 8.89543 21.3038 8 20.1992 8H4.19922C3.09465 8 2.19922 8.89543 2.19922 10V13.5" stroke="#F0593E" stroke-width="2" stroke-linecap="round" stroke-linejoin="round"/>
<path id="Ellipse 267" d="M13.4492 11.5C13.4492 12.1904 12.8896 12.75 12.1992 12.75C11.5089 12.75 10.9492 12.1904 10.9492 11.5C10.9492 10.8096 11.5089 10.25 12.1992 10.25C12.8896 10.25 13.4492 10.8096 13.4492 11.5Z" fill="#F0593E"/>
</g>
</g>
</svg>
