<svg width="293" height="500" viewBox="0 0 293 500" fill="none" xmlns="http://www.w3.org/2000/svg">
<g clip-path="url(#clip0_1_268)">
<path d="M39.0687 297.675C43.8962 283.603 52.9231 258.608 56.9102 253.146C60.8973 247.687 71.1834 239.912 84.4095 243.064C97.6357 246.215 106.453 248.525 106.453 248.525L111.281 240.753C111.281 240.753 120.938 239.284 126.394 243.483C131.853 247.685 126.813 256.717 126.813 256.717C126.813 256.717 132.69 256.717 133.95 266.59C135.209 276.46 120.305 323.093 120.305 323.093L114.427 340.944C114.427 340.944 100.992 356.489 100.573 360.478L87.559 359.428C87.559 359.428 83.368 366.814 81.2187 368.096C79.0667 369.378 61.6744 363.712 57.7699 362.891C53.8682 362.072 49.4622 358.347 48.6824 353.756C47.9027 349.163 45.5964 346.359 44.1002 345.758C42.6067 345.154 32.4612 337.879 30.8768 332.287C29.2952 326.699 34.2384 311.75 39.0687 297.675Z" fill="white"/>
<path d="M7.65369 501.046C20.7062 469.299 32.0394 416.647 31.2375 400.648C31.2375 400.648 11.7841 366.836 11.3432 359.271C10.8996 351.708 12.3269 337.697 9.72028 328.833C7.11363 319.972 -0.805517 307.096 2.25854 302.382C5.31983 297.667 19.9154 307.788 24.8394 321.256C24.8394 321.256 29.3611 303.708 31.4745 300.978C36.5197 294.461 44.764 258.181 51.1732 264.618C51.1732 264.618 53.8762 257.309 49.0487 269.473C44.2212 281.64 28.077 326.591 31.2127 334.046C34.3484 341.499 48.0154 347.865 48.0154 347.865C48.0154 347.865 48.572 359.814 50.9031 361.093C53.2315 362.372 81.585 368.573 81.585 368.573C81.585 368.573 83.7948 358.876 88.5452 359.061C93.2929 359.246 100.928 361.162 103.518 355.146C106.108 349.13 112.829 340.015 117.532 338.223L134.142 278.759C134.142 278.759 137.198 299.925 136.688 303.432C136.176 306.936 145.04 295.858 149.647 299.878C154.257 303.898 148.562 309.147 145.423 322.742C142.287 336.335 141.995 342.488 140.965 352.905C139.931 363.321 129.813 381.498 120.946 397.649C120.946 397.649 135.975 487.636 150.297 500.376L87.545 501.286L77.0853 447.14L67.0803 501.509C67.0803 501.509 22.0619 500.456 7.64543 501.035L7.65369 501.046Z" fill="#FDE7DC"/>
<path d="M225.548 -0.571045C225.548 -0.571045 216.097 105.57 212.228 122.537C208.362 139.504 205.722 152.321 206.353 158.731C208.045 175.982 212.997 191.678 211.355 206.74C209.17 226.803 194.651 250.422 201.085 254.009C207.522 257.596 223.586 224.49 223.586 224.49C223.586 224.49 200.785 267.486 205.05 274.822C209.316 282.159 217.998 269.416 217.998 269.416C217.998 269.416 211.801 284.141 217.805 285.693C223.809 287.243 229.659 276.871 229.659 276.871C229.659 276.871 233.296 284.53 237.168 283.173C241.039 281.82 258.274 258.567 261.956 252.755C265.634 246.94 270.864 225.628 270.864 225.628C270.864 225.628 276.477 233.767 282.674 232.99C288.871 232.218 291.386 226.596 287.904 223.111C284.418 219.623 280.351 207.029 280.351 201.992C280.351 196.955 278.221 165.282 270.448 153.071C262.675 140.86 255.618 126.024 255.618 126.024C255.618 126.024 264.152 86.5489 269.067 69.2209C273.98 51.8928 290.386 -0.568288 290.386 -0.568288H225.548V-0.571045Z" fill="#FDE7DC"/>
<path d="M58.0428 259.926C51.3802 272.815 33.3127 320.644 35.5033 327.501C37.6911 334.358 42.0255 340.129 64.7468 346.299C87.4682 352.472 95.1366 359.45 105.478 348.568C115.819 337.683 120.991 305.748 120.991 305.748C120.991 305.748 130.566 278.327 129.552 272.6C128.538 266.874 123.509 261.112 123.074 256.157C122.641 251.203 125.336 235.228 125.336 235.228L119.883 233.737C119.883 233.737 113.973 250.014 110.396 253.565C106.817 257.117 98.8812 252.868 98.8812 252.868C98.8812 252.868 67.9487 240.765 58.0456 259.926H58.0428Z" fill="#F0593E"/>
<path d="M123.365 206.139C123.875 200.192 128.969 181.664 138.823 176.564C148.676 171.466 165.493 158.036 170.59 149.878C175.688 141.72 179.934 131.012 176.875 121.492C173.82 111.974 164.983 104.665 154.961 110.273L155.085 102.214C155.085 102.214 169.058 98.1698 176.911 107.53C184.764 116.89 187.076 121.974 182.455 138.153C177.837 154.331 168.331 165.56 155.278 172.74C142.226 179.919 135.8 182.467 133.127 192.185C130.455 201.904 129.088 206.979 129.088 206.979C129.088 206.979 122.858 212.083 123.368 206.133L123.365 206.139Z" fill="#F0593E"/>
<path d="M155.914 109.363C153.043 111.724 147.904 118.2 145.465 116.896C143.03 115.589 138.924 107.698 132.57 108.575C126.213 109.452 115.712 110.891 114.773 126.476C113.833 142.059 124.025 165.624 143.443 172.373L141.296 178.375C141.296 178.375 120.289 168.814 113.679 154.568C110.502 147.722 104.682 134.182 107.369 122.33C110.052 110.48 122.728 98.4125 132.272 101.299C141.82 104.189 145.994 108.156 145.994 108.156C145.994 108.156 151.808 102.827 155.931 102.647C155.931 102.647 158.788 107.003 155.92 109.361L155.914 109.363Z" fill="#F0593E"/>
<path d="M142.299 177.658C147.319 179.552 158.741 184.355 172.711 181.276C186.678 178.196 208.567 171.182 218.696 149.2C228.825 127.221 236.788 90.5908 236.788 90.5908L230.123 88.8125C230.123 88.8125 227.971 112.054 225.51 118.87C223.053 125.685 215.74 147.538 203.439 159.897C191.134 172.257 174.838 174.791 165.166 176.148C155.495 177.501 148.499 174.728 148.499 174.728L142.302 177.664L142.299 177.658Z" fill="#F0593E"/>
<path d="M69.1295 262.308L50.7617 326.07L95.3696 337.509L113.737 275.059L69.1295 262.305V262.308Z" fill="white"/>
<path d="M68.5778 252.881C62.334 255.333 57.3604 264.18 62.2017 263.628C67.0458 263.077 73.8793 257.971 75.1302 256.052C76.3784 254.136 75.5463 250.147 68.5778 252.881Z" fill="#F6977A"/>
<path d="M117.387 247.5C116.249 251.845 115.136 257.778 118.398 263.502C121.994 269.815 117.142 277.701 120.162 281.729C123.182 285.757 125.447 276.19 125.447 271.657C125.447 267.125 123.956 263.505 121.556 260.224C119.324 257.177 120.407 247.155 120.782 245.917C121.592 243.224 118.528 243.152 117.39 247.497L117.387 247.5Z" fill="#F6977A"/>
<path d="M119.338 231.175C119.991 225.948 121.551 207.986 121.551 207.986C121.551 207.986 125.996 206.657 128.145 208.639C130.294 210.622 125.279 232.948 125.279 232.948C125.279 232.948 118.875 234.889 119.338 231.178V231.175Z" fill="white"/>
<path d="M235.439 57.5503L231.764 76.9572L238.548 78.2199L241.658 58.1045L235.437 57.553L235.439 57.5503Z" fill="white"/>
<path d="M229.529 46.2217C229.358 45.8385 227.371 54.8513 227.371 54.8513C227.371 54.8513 244.703 55.1573 251.658 60.2303L253.146 49.9492C253.146 49.9492 249.062 48.0331 242.799 46.7786C238.963 46.0094 234.037 45.0444 229.529 46.2217Z" fill="white"/>
<path d="M223.541 79.7886L221.006 88.7959C221.006 88.7959 226.748 89.998 233.113 90.7617C237.092 91.2359 243.548 92.9287 245.009 92.7027C246.466 92.4766 248.436 85.2862 246.268 83.2653C244.096 81.2444 223.544 79.7859 223.544 79.7859L223.541 79.7886Z" fill="white"/>
<path d="M206.387 157.617C205.783 157.617 205.263 157.165 205.196 156.559C204.59 150.901 206.136 145.624 207.927 139.512C209.423 134.406 211.118 128.619 211.84 121.522C212.672 113.328 213.661 103.144 214.706 92.3609C218.381 54.4845 222.955 7.34729 225.333 -1.05619C225.51 -1.6848 226.171 -2.05149 226.81 -1.87779C227.447 -1.70134 227.821 -1.05068 227.642 -0.42207C225.322 7.78015 220.759 54.8044 217.092 92.5869C216.045 103.373 215.055 113.557 214.223 121.759C213.482 129.068 211.752 134.968 210.228 140.171C208.506 146.043 207.021 151.116 207.577 156.313C207.646 156.961 207.169 157.543 206.511 157.612C206.469 157.617 206.425 157.617 206.384 157.617H206.387Z" fill="#231F20"/>
<path d="M256.03 129.611C255.454 129.611 254.947 129.195 254.851 128.611C253.647 121.39 263.046 87.3789 271.141 60.12C280.19 29.6491 287.825 5.40911 290.388 -0.570926C290.647 -1.18023 291.479 -2.18104 292.088 -1.92188C292.697 -1.65996 293.193 -1.18023 292.931 -0.570926C290.446 5.2299 282.317 30.9063 273.439 60.8037C262.263 98.4402 256.347 123.011 257.215 128.216C257.325 128.87 256.882 129.487 256.231 129.595C256.165 129.606 256.099 129.611 256.033 129.611H256.03Z" fill="#231F20"/>
<path d="M283.566 234.227C280.494 234.227 276.942 232.959 274.041 230.111C267.885 224.065 263.821 213.337 261.132 206.241C260.382 204.258 259.732 202.546 259.189 201.333C256.847 196.117 252.422 191.716 245.569 185.883C241.78 182.657 238.294 178.028 235.757 172.847C232.748 166.707 231.194 160.013 231.26 153.493C231.268 152.834 231.803 152.304 232.458 152.304C232.461 152.304 232.467 152.304 232.469 152.304C233.131 152.31 233.663 152.853 233.654 153.515C233.522 166.578 240.32 178.265 247.12 184.055C254.232 190.112 258.845 194.719 261.374 200.349C261.947 201.628 262.609 203.37 263.372 205.389C265.987 212.29 269.938 222.722 275.719 228.399C279.626 232.237 285.107 232.736 287.394 230.618C289.094 229.044 288.479 226.166 285.754 222.918C279.665 215.667 278.439 198.857 277.452 185.353C276.997 179.119 276.568 173.233 275.735 169.525C273.718 160.537 261.666 140.325 255.191 129.468C253.323 126.333 251.848 123.86 251.154 122.567C250.843 121.982 251.06 121.257 251.645 120.943C252.229 120.631 252.953 120.849 253.268 121.434C253.934 122.677 255.398 125.131 257.249 128.238C264.251 139.98 275.972 159.635 278.075 168.998C278.946 172.88 279.362 178.579 279.844 185.177C280.805 198.339 282.001 214.716 287.592 221.374C292.996 227.812 290.055 231.423 289.025 232.377C287.735 233.571 285.776 234.227 283.569 234.227H283.566Z" fill="#231F20"/>
<path d="M235.488 284.924C234.526 284.924 233.766 284.612 233.311 284.362C230.14 282.616 228.814 277.392 230.421 272.95C231.663 269.504 235.441 263.281 239.442 256.695C243.36 250.243 247.411 243.574 248.736 239.981C251.034 233.764 254.884 223.356 252.078 216.817C251.817 216.207 252.098 215.504 252.707 215.242C253.316 214.98 254.018 215.264 254.28 215.871C257.46 223.29 253.407 234.26 250.985 240.814C249.579 244.621 245.468 251.393 241.492 257.941C237.728 264.136 233.84 270.543 232.675 273.763C231.38 277.35 232.553 281.207 234.466 282.261C236.169 283.198 237.91 281.411 238.797 280.265C239.549 279.291 240.448 278.139 241.454 276.846C247.623 268.919 257.95 255.655 262.48 248.203C267.173 240.478 268.917 231.349 269.551 225.052C269.617 224.393 270.204 223.913 270.862 223.979C271.521 224.046 272 224.636 271.934 225.292C271.273 231.834 269.454 241.338 264.525 249.446C259.926 257.017 249.543 270.35 243.341 278.315C242.338 279.606 241.44 280.755 240.69 281.729C238.742 284.248 236.899 284.921 235.488 284.921V284.924Z" fill="#231F20"/>
<path d="M219.622 286.49C218.164 286.49 216.789 285.754 215.533 284.304C213.144 281.546 213.775 276.294 217.517 267.775C220.534 260.902 224.981 253.218 228.905 246.435C229.608 245.22 230.288 244.045 230.93 242.926C238.161 230.318 239.442 215.871 237.585 210.288C237.375 209.659 237.714 208.981 238.342 208.771C238.971 208.562 239.649 208.901 239.858 209.53C241.778 215.308 240.93 230.298 233.008 244.117C232.366 245.239 231.683 246.416 230.977 247.635C227.084 254.362 222.672 261.985 219.71 268.737C215.682 277.913 216.2 281.411 217.343 282.732C218.148 283.661 218.914 284.102 219.661 284.091C221.587 284.053 223.854 281.202 226.05 278.448C227.255 276.934 228.503 275.371 229.79 274.141C230.269 273.683 231.027 273.7 231.484 274.18C231.942 274.659 231.925 275.418 231.446 275.875C230.275 276.995 229.081 278.494 227.927 279.945C225.271 283.278 222.76 286.429 219.713 286.493C219.683 286.493 219.655 286.493 219.625 286.493L219.622 286.49Z" fill="#231F20"/>
<path d="M208.155 278.133C208.105 278.133 208.058 278.133 208.006 278.133C206.576 278.078 205.286 277.221 204.179 275.583C200.646 270.364 203.793 264.389 207.438 257.472C208.507 255.443 209.615 253.342 210.665 251.081C211.646 248.975 212.718 246.83 213.856 244.561C219.171 233.938 225.197 221.901 223.365 209.748C223.265 209.091 223.715 208.482 224.37 208.383C225.026 208.284 225.635 208.736 225.734 209.389C227.682 222.292 221.474 234.693 215.999 245.633C214.87 247.889 213.806 250.02 212.839 252.093C211.761 254.406 210.643 256.532 209.557 258.589C206.005 265.335 203.437 270.207 206.162 274.238C206.818 275.208 207.469 275.713 208.094 275.737C208.113 275.737 208.13 275.737 208.149 275.737C209.921 275.737 212.415 272.592 214.826 269.551C215.889 268.211 216.986 266.824 218.135 265.545C218.578 265.051 219.336 265.013 219.827 265.454C220.32 265.898 220.361 266.653 219.918 267.147C218.818 268.371 217.741 269.727 216.702 271.039C213.688 274.841 211.078 278.133 208.149 278.133H208.155Z" fill="#231F20"/>
<path d="M202.912 256.118C201.689 256.118 200.526 255.694 199.545 254.847C197.294 252.906 196.685 249.331 198.03 245.948C198.234 245.432 198.52 244.737 198.87 243.885C202.061 236.116 211.774 212.466 210.942 198.99C210.446 190.936 209.379 185.508 208.349 180.256C207.451 175.676 206.602 171.353 206.202 165.685C206.155 165.023 206.654 164.449 207.313 164.405C207.971 164.356 208.547 164.857 208.594 165.516C208.983 171.036 209.817 175.29 210.702 179.795C211.746 185.124 212.826 190.633 213.333 198.844C214.199 212.871 204.673 236.066 201.085 244.801C200.741 245.642 200.457 246.328 200.256 246.838C199.14 249.65 199.879 251.977 201.107 253.036C202.124 253.913 203.439 253.954 204.811 253.157C207.867 251.376 215.163 236.778 219.081 228.934C220.633 225.83 221.859 223.378 222.633 222.008C222.961 221.432 223.691 221.231 224.267 221.556C224.843 221.884 225.044 222.615 224.716 223.191C223.972 224.503 222.699 227.054 221.222 230.004C215.144 242.168 209.407 253.251 206.015 255.225C204.99 255.823 203.929 256.118 202.91 256.118H202.912Z" fill="#231F20"/>
<path d="M218.675 183.994C218.325 183.994 217.975 183.84 217.741 183.545C217.327 183.029 217.407 182.274 217.925 181.86C222.83 177.92 225.133 166.829 223.532 154.885C223.444 154.229 223.904 153.625 224.56 153.537C225.216 153.449 225.819 153.909 225.908 154.565C227.352 165.329 225.908 178.521 219.427 183.729C219.206 183.906 218.942 183.994 218.677 183.994H218.675Z" fill="#231F20"/>
<path d="M34.564 404.983C34.2003 404.983 33.8421 404.817 33.6079 404.506C33.4949 404.357 22.3739 389.571 15.8766 376.08C9.15054 362.116 9.0789 356.111 9.56386 343.862C9.93584 334.435 5.43069 321.885 2.4493 313.578C1.58134 311.163 0.834614 309.076 0.3469 307.471C-0.581684 304.414 0.396498 301.77 2.89569 300.576C6.6734 298.77 13.4049 300.755 19.263 309.376C23.4568 315.552 25.3581 323.112 27.0361 329.781C28.8354 336.939 30.3895 343.12 34.1424 345.483C34.7018 345.836 34.8698 346.575 34.5199 347.137C34.1672 347.697 33.4287 347.868 32.8666 347.512C28.3009 344.639 26.6366 338.025 24.7105 330.366C23.0821 323.89 21.2359 316.55 17.2791 310.725C14.2757 306.302 11.3742 304.265 9.46742 303.336C7.33195 302.294 5.31221 302.076 3.92622 302.74C2.53197 303.407 2.06354 304.877 2.63943 306.777C3.10785 308.323 3.84907 310.383 4.70326 312.768C7.74802 321.248 12.3496 334.066 11.9583 343.955C11.4789 356.097 11.5423 361.562 18.0368 375.038C24.4322 388.314 35.4127 402.915 35.5229 403.061C35.9224 403.59 35.8177 404.34 35.2887 404.74C35.0738 404.903 34.8175 404.983 34.5667 404.983H34.564Z" fill="#231F20"/>
<path d="M24.3356 322.693C24.2639 322.693 24.1923 322.687 24.1207 322.674C23.4704 322.555 23.0378 321.932 23.1563 321.281C24.1758 315.668 29.2706 304.835 33.3652 296.134C34.0706 294.632 34.7401 293.214 35.3353 291.927C36.4072 289.614 37.5176 286.316 38.6942 282.82C42.1082 272.68 45.6407 262.195 51.507 263.562C52.1518 263.714 52.5541 264.356 52.4025 265.002C52.2537 265.647 51.609 266.047 50.9642 265.898C49.4515 265.545 47.7624 267.152 45.9465 270.678C44.1224 274.216 42.516 278.98 40.9647 283.587C39.7661 287.143 38.6363 290.504 37.5094 292.936C36.9087 294.229 36.2419 295.652 35.5337 297.157C31.7119 305.282 26.4793 316.407 25.5149 321.711C25.4102 322.29 24.906 322.696 24.3383 322.696L24.3356 322.693Z" fill="#231F20"/>
<path d="M53.2039 375.275C52.6087 375.275 52.0934 374.831 52.0163 374.228C49.0927 351.162 37.6494 342.659 28.0081 337.829C27.4157 337.531 27.176 336.812 27.4735 336.219C27.7684 335.626 28.4903 335.386 29.0827 335.684C33.4115 337.854 39.0078 341.102 43.8822 347.029C49.4537 353.806 52.9917 362.855 54.3942 373.924C54.4769 374.58 54.014 375.182 53.3554 375.264C53.3031 375.27 53.2535 375.275 53.2039 375.275Z" fill="#231F20"/>
<path d="M9.63234 500.558C9.47804 500.558 9.32098 500.528 9.16943 500.465C8.55772 500.208 8.27116 499.505 8.52741 498.896C12.498 489.398 18.3836 468.373 23.1698 446.573C28.3831 422.834 30.7886 405.187 29.601 399.361C29.4688 398.713 29.8876 398.079 30.5351 397.947C31.1854 397.811 31.8164 398.233 31.9487 398.881C34.7565 412.669 19.1 479.817 10.7345 499.82C10.5416 500.28 10.098 500.556 9.62959 500.556L9.63234 500.558Z" fill="#231F20"/>
<path d="M117.505 402.551C117.255 402.551 117.001 402.471 116.783 402.308C116.254 401.908 116.15 401.156 116.549 400.629C116.66 400.483 127.64 385.882 134.035 372.609C140.527 359.127 140.591 353.663 140.114 341.526C139.723 331.634 144.324 318.816 147.369 310.336C148.223 307.951 148.964 305.891 149.433 304.345C150.009 302.445 149.537 300.975 148.143 300.308C146.757 299.644 144.735 299.862 142.599 300.904C140.695 301.833 137.791 303.87 134.788 308.293C130.834 314.116 128.987 321.455 127.359 327.928C125.433 335.587 123.771 342.202 119.2 345.077C118.641 345.43 117.899 345.262 117.547 344.7C117.194 344.14 117.362 343.401 117.924 343.045C121.68 340.682 123.234 334.498 125.033 327.341C126.709 320.675 128.61 313.118 132.804 306.942C138.662 298.318 145.396 296.335 149.174 298.141C151.673 299.335 152.651 301.979 151.723 305.037C151.235 306.641 150.488 308.726 149.62 311.141C146.639 319.448 142.131 332.001 142.503 341.424C142.985 353.671 142.916 359.673 136.19 373.643C129.69 387.136 118.569 401.919 118.459 402.068C118.225 402.38 117.864 402.545 117.503 402.545L117.505 402.551Z" fill="#231F20"/>
<path d="M98.8678 372.846C98.8182 372.846 98.7659 372.844 98.7163 372.835C98.0605 372.753 97.5948 372.151 97.6775 371.495C99.08 360.426 102.615 351.377 108.189 344.603C113.067 338.675 118.66 335.425 122.989 333.258C123.581 332.96 124.301 333.2 124.598 333.793C124.893 334.385 124.653 335.105 124.064 335.403C114.422 340.23 102.979 348.73 100.058 371.799C99.981 372.405 99.4658 372.846 98.8706 372.846H98.8678Z" fill="#231F20"/>
<path d="M87.3847 502.618C86.7813 502.618 86.2632 502.163 86.1943 501.551C83.8605 480.352 77.1868 448.464 72.3703 426.322C71.7586 423.51 71.1193 420.731 70.5021 418.045C65.917 398.115 61.9575 380.9 73.3815 368.325C73.8279 367.834 74.5857 367.798 75.0734 368.245C75.5639 368.691 75.5997 369.45 75.1533 369.938C64.5724 381.583 68.2178 397.436 72.836 417.505C73.4559 420.199 74.0952 422.983 74.7124 425.809C79.54 448.003 86.2329 479.974 88.5778 501.283C88.6494 501.942 88.1755 502.535 87.517 502.607C87.4729 502.612 87.4288 502.615 87.3847 502.615V502.618Z" fill="#231F20"/>
<path d="M148.634 500.823C148.246 500.823 147.863 500.633 147.634 500.285C140.343 489.227 133.46 464.259 128.969 445.26C124.072 424.541 120.267 403.138 119.914 396.888C119.876 396.226 120.383 395.661 121.044 395.622C121.702 395.584 122.27 396.091 122.309 396.753C122.609 402.068 125.984 422.206 131.302 444.709C137.588 471.298 144.099 490.564 149.634 498.965C149.998 499.516 149.847 500.261 149.293 500.627C149.089 500.762 148.86 500.826 148.634 500.826V500.823Z" fill="#231F20"/>
<path d="M66.6534 502.276C66.4991 502.276 66.3448 502.246 66.1932 502.182C65.5815 501.929 65.2922 501.226 65.5485 500.613C67.5076 495.907 75.8952 451.417 76.0991 446.261C76.1266 445.599 76.686 445.089 77.3445 445.111C78.0058 445.136 78.5211 445.696 78.4935 446.357C78.2731 451.836 69.8552 496.5 67.7583 501.537C67.5655 501.997 67.1218 502.276 66.6506 502.276H66.6534Z" fill="#231F20"/>
<path d="M78.7668 369.453C78.1055 369.453 77.3643 369.353 76.5267 369.13C74.2672 368.529 71.9471 367.942 69.7069 367.376C63.2564 365.744 57.1614 364.203 52.4165 362.353C48.862 360.969 48.3715 358.154 47.8976 355.436C47.3272 352.169 46.7403 348.788 41.0724 346.161C40.4717 345.883 40.2099 345.168 40.4882 344.567C40.7665 343.966 41.4802 343.704 42.0781 343.983C48.8841 347.137 49.6446 351.51 50.2563 355.022C50.7385 357.782 51.0912 359.262 53.2845 360.117C57.8888 361.915 63.9122 363.437 70.2911 365.05C72.5395 365.617 74.8651 366.207 77.1384 366.811C80.2713 367.644 80.9905 366.351 82.1946 363.58C83.3243 360.988 84.8701 357.437 90.3755 358.802C91.0175 358.962 91.4088 359.613 91.2518 360.255C91.0919 360.897 90.4416 361.289 89.7996 361.129C86.2589 360.252 85.5177 361.956 84.3935 364.537C83.4676 366.662 82.2552 369.45 78.7613 369.45L78.7668 369.453Z" fill="#231F20"/>
<path d="M93.021 355.766C90.4309 355.766 87.7058 355.331 84.9035 354.459L49.6503 343.495C43.5608 341.598 38.8049 337.818 36.2589 332.844C33.8672 328.174 33.5145 322.718 35.2669 317.479C35.2697 317.468 35.2752 317.457 35.2779 317.449L53.7091 266.818C55.6297 259.6 60.5068 253.226 66.7589 249.763C72.008 246.855 77.8716 246.174 83.2695 247.842L108.016 253.786C108.658 253.94 109.055 254.588 108.901 255.233C108.746 255.878 108.099 256.273 107.457 256.118L82.6716 250.166C82.6468 250.16 82.622 250.152 82.5944 250.144C77.8137 248.655 72.6032 249.267 67.9162 251.861C62.2069 255.024 57.7541 260.863 56.0071 267.486C55.9989 267.521 55.9879 267.554 55.9741 267.59L37.5291 318.257C35.9916 322.875 36.2947 327.666 38.3861 331.755C40.6676 336.213 44.809 339.483 50.3557 341.209L85.6089 352.174C96.6362 355.606 105.886 351.476 109.171 341.656C109.457 340.74 123.463 296.046 126.257 285.189C127.549 280.168 129.839 267.794 123.243 261.321C122.769 260.858 122.763 260.097 123.226 259.625C123.689 259.154 124.45 259.145 124.921 259.609C130.192 264.784 131.526 274.326 128.577 285.787C125.753 296.76 111.595 341.931 111.452 342.386C111.452 342.395 111.447 342.4 111.447 342.408C109.664 347.746 106.253 351.73 101.579 353.933C98.981 355.157 96.0906 355.772 93.0127 355.772L93.021 355.766Z" fill="#231F20"/>
<path d="M75.9623 362.43C75.8576 362.43 75.7501 362.416 75.6454 362.386L57.3438 357.371C56.7045 357.197 56.3298 356.536 56.5034 355.899C56.6769 355.259 57.3355 354.884 57.9748 355.058L76.2764 360.073C76.9157 360.247 77.2904 360.908 77.1168 361.545C76.9708 362.077 76.4886 362.427 75.9623 362.427V362.43Z" fill="#231F20"/>
<path d="M135.986 305.756C135.967 305.756 135.948 305.756 135.926 305.756C135.264 305.723 134.755 305.161 134.788 304.499C134.796 304.317 135.642 286.383 133.234 278.635C133.038 278.004 133.391 277.331 134.022 277.135C134.653 276.937 135.325 277.293 135.521 277.924C138.056 286.079 137.218 303.865 137.182 304.62C137.152 305.263 136.62 305.759 135.986 305.759V305.756Z" fill="#231F20"/>
<path d="M93.9954 338.882C93.7089 338.882 93.4195 338.841 93.1357 338.758L51.8564 326.611C51.0794 326.382 50.4374 325.863 50.0516 325.152C49.6659 324.441 49.5804 323.625 49.8092 322.85L67.2373 263.866C67.7085 262.267 69.3921 261.34 70.993 261.803L112.181 273.595C112.961 273.819 113.606 274.334 113.994 275.043C114.383 275.751 114.474 276.567 114.245 277.345L96.8886 336.71C96.6627 337.487 96.1447 338.13 95.4365 338.516C94.9874 338.761 94.4914 338.888 93.9927 338.888L93.9954 338.882ZM70.1553 264.078C69.877 264.078 69.618 264.26 69.5354 264.541L52.1072 323.528C52.0603 323.691 52.0769 323.859 52.1568 324.005C52.2367 324.151 52.3717 324.259 52.5343 324.308L93.8136 336.456C93.9761 336.503 94.1442 336.486 94.2903 336.406C94.4363 336.326 94.5438 336.194 94.5906 336.031L111.947 276.667C111.994 276.507 111.975 276.339 111.898 276.192C111.818 276.046 111.685 275.942 111.523 275.895L70.3372 264.103C70.2793 264.086 70.2187 264.078 70.1608 264.078H70.1553Z" fill="#231F20"/>
<path d="M124.018 261.547C123.632 261.547 123.255 261.362 123.023 261.018C118.482 254.271 122.169 240.389 123.478 236.088L119.912 235.305C119.427 237.078 118.377 240.69 116.931 244.418C114.098 251.721 111.31 255.523 108.406 256.041C107.752 256.157 107.132 255.724 107.017 255.071C106.901 254.42 107.334 253.797 107.987 253.678C108.885 253.519 111.335 252.212 114.691 243.566C116.625 238.578 117.876 233.64 117.887 233.591C118.044 232.962 118.675 232.573 119.306 232.711L125.274 234.023C125.608 234.098 125.894 234.31 126.062 234.605C126.23 234.903 126.264 235.259 126.153 235.581C126.095 235.752 120.375 252.785 125.013 259.672C125.382 260.221 125.236 260.965 124.687 261.338C124.481 261.475 124.249 261.542 124.018 261.542V261.547Z" fill="#231F20"/>
<path d="M106.794 249.689C106.171 249.689 105.645 249.206 105.601 248.575C105.565 248.084 105.832 247.64 106.24 247.425C106.37 247.136 106.549 246.516 106.684 246.044C107.535 243.072 109.31 236.888 116.923 238.914C117.562 239.085 117.943 239.741 117.774 240.381C117.604 241.021 116.948 241.404 116.309 241.233C111.368 239.918 110.073 242.934 108.99 246.706C108.527 248.319 108.163 249.592 106.885 249.683C106.855 249.683 106.827 249.686 106.797 249.686L106.794 249.689Z" fill="#231F20"/>
<path d="M127.065 256.934C126.958 256.934 126.85 256.921 126.743 256.89C126.106 256.714 125.731 256.052 125.908 255.415L126.057 254.886C127.646 249.195 128.729 243.976 124.555 242.661C123.924 242.463 123.574 241.79 123.772 241.159C123.971 240.527 124.643 240.177 125.274 240.376C127.335 241.024 129.801 242.747 129.859 247.265C129.895 250.056 129.046 253.094 128.366 255.534L128.22 256.06C128.074 256.59 127.591 256.94 127.065 256.94V256.934Z" fill="#231F20"/>
<path d="M93.9689 361.457C91.2521 361.457 88.3781 360.972 85.2535 359.998L46.2419 347.865C39.5352 345.777 34.2971 341.614 31.4948 336.142C28.8633 331.002 28.4776 325 30.4036 319.235C30.4064 319.224 30.4119 319.213 30.4147 319.205L50.8132 263.174C52.9294 255.217 58.3025 248.192 65.1966 244.373C70.9748 241.172 77.4253 240.422 83.366 242.256L107.272 247.693C107.917 247.839 108.322 248.481 108.176 249.129C108.03 249.774 107.388 250.18 106.74 250.033L82.7901 244.586C82.7598 244.58 82.7295 244.572 82.6992 244.561C77.3757 242.904 71.5727 243.585 66.3567 246.471C60.0081 249.987 55.0593 256.479 53.1167 263.841C53.1085 263.874 53.0975 263.91 53.0837 263.946L32.6714 320.013C30.9575 325.155 31.2964 330.495 33.6275 335.05C36.168 340.015 40.7751 343.655 46.9528 345.576L85.9644 357.71C91.8032 359.527 96.6417 359.502 101.194 357.636C101.805 357.385 102.505 357.677 102.756 358.289C103.007 358.901 102.715 359.601 102.103 359.852C99.4936 360.922 96.8181 361.46 93.9689 361.46V361.457Z" fill="#231F20"/>
<path d="M115.68 340.316C115.559 340.316 115.438 340.296 115.319 340.258C114.688 340.059 114.338 339.384 114.539 338.752C116.121 333.757 119.89 321.532 123.539 309.712C126.316 300.705 128.942 292.197 130.378 287.601C132.926 279.446 133.814 272.454 133.089 266.228C132.496 261.122 130.096 259.093 126.418 257.472C125.812 257.204 125.539 256.496 125.804 255.892C126.071 255.286 126.776 255.013 127.382 255.277C131.13 256.929 134.701 259.363 135.467 265.953C136.23 272.517 135.313 279.834 132.662 288.318C131.226 292.911 128.603 301.416 125.826 310.421C122.177 322.246 118.405 334.473 116.821 339.478C116.658 339.988 116.187 340.316 115.68 340.316Z" fill="#231F20"/>
<path d="M82.3572 319.495C82.1092 319.495 81.8584 319.459 81.6077 319.384L71.79 316.407C71.1232 316.203 70.5776 315.756 70.2525 315.144C69.9246 314.529 69.8557 313.826 70.0569 313.162L72.3108 305.709C72.3301 305.646 72.3136 305.596 72.297 305.563C72.2722 305.516 72.2337 305.486 72.1813 305.472L64.7058 303.3C64.039 303.107 63.4879 302.663 63.1517 302.054C62.8183 301.444 62.7412 300.741 62.934 300.074L65.7969 290.218C65.9898 289.55 66.4335 288.999 67.0424 288.663C67.6514 288.326 68.354 288.249 69.0208 288.445L76.6424 290.659C76.7553 290.692 76.8793 290.626 76.9124 290.513L79.2104 282.911C79.6265 281.538 81.0814 280.761 82.4508 281.177L92.2712 284.152C93.6407 284.568 94.4205 286.021 94.0072 287.394L91.7505 294.852C91.7339 294.905 91.7394 294.951 91.7642 294.996C91.7808 295.026 91.8138 295.067 91.8772 295.084L99.3527 297.256C100.02 297.449 100.571 297.893 100.907 298.503C101.24 299.112 101.32 299.815 101.124 300.482L98.2671 310.336C98.0742 311.003 97.6306 311.557 97.0216 311.891C96.4127 312.224 95.71 312.304 95.0432 312.109L87.4244 309.895C87.3087 309.862 87.1875 309.928 87.1516 310.044L84.8536 317.639C84.5119 318.761 83.4759 319.486 82.3599 319.486L82.3572 319.495ZM68.2934 290.744C68.252 290.744 68.219 290.755 68.1942 290.769C68.1611 290.788 68.117 290.824 68.0977 290.89L65.2348 300.75C65.2156 300.816 65.2348 300.871 65.2514 300.904C65.2707 300.937 65.3065 300.981 65.3726 301L72.8509 303.173C73.5205 303.369 74.0715 303.815 74.4022 304.425C74.7328 305.034 74.8045 305.74 74.6033 306.407L72.3494 313.862C72.3274 313.928 72.3466 313.983 72.3632 314.016C72.3825 314.05 72.4183 314.096 72.4872 314.116L82.3048 317.091C82.4123 317.124 82.5252 317.06 82.5583 316.953L84.8563 309.357C85.2724 307.992 86.7218 307.207 88.0912 307.601L95.71 309.815C95.7762 309.834 95.8313 309.815 95.8643 309.795C95.8974 309.776 95.9415 309.74 95.9608 309.674L98.8182 299.82C98.8375 299.754 98.8182 299.699 98.8016 299.663C98.7824 299.63 98.7465 299.586 98.6804 299.567L91.2049 297.394C90.5353 297.201 89.9842 296.755 89.6508 296.142C89.3202 295.53 89.2485 294.827 89.4524 294.16L91.7091 286.705C91.7422 286.598 91.6816 286.485 91.5741 286.451L81.7537 283.477C81.6463 283.444 81.5333 283.504 81.5002 283.612L79.2022 291.21C78.7889 292.575 77.3367 293.363 75.97 292.966L68.3485 290.752C68.3292 290.747 68.3099 290.744 68.2906 290.744H68.2934Z" fill="#231F20"/>
<path d="M160.804 177.504C134.58 177.504 117.565 154.797 114.063 141.544C112.239 134.651 112.118 128.043 113.713 122.432C115.369 116.601 118.841 111.972 123.754 109.047C131.659 104.338 137.592 109.248 141.515 112.496C142.921 113.659 144.373 114.861 145.125 114.881C146.101 114.903 147.718 113.731 149.424 112.485C152.865 109.97 157.58 106.527 163.854 107.528C168.756 108.308 172.55 110.53 175.132 114.125C179.94 120.822 179.226 130.303 178.375 135.357C177.449 140.849 173.944 147.717 168.759 154.199C164.634 159.352 157.483 166.727 146.778 172.69C152.295 174.648 158.778 175.673 166.166 174.777C166.257 174.766 173.919 173.898 183.255 170.385C191.808 167.168 203.563 161.003 211.002 149.912C219.28 137.568 225.727 116.929 229.163 91.793C229.216 91.4153 229.254 91.1231 229.285 90.9273C229.453 89.7776 230.095 89.5791 230.604 89.6122C231.161 89.648 231.726 90.0864 231.729 90.8529C231.729 90.9935 231.704 91.1286 231.66 91.2527C231.632 91.4484 231.585 91.7765 231.541 92.1184C228.058 117.61 221.473 138.608 212.994 151.249C205.191 162.886 192.943 169.313 184.04 172.654C174.435 176.261 166.766 177.126 166.444 177.162C164.521 177.397 162.641 177.507 160.806 177.507L160.804 177.504ZM130.268 109.515C128.639 109.515 126.884 109.973 124.98 111.109C116.061 116.422 112.845 127.571 116.38 140.935C117.912 146.727 122.919 156.247 131.998 164.017C135.258 166.807 139.534 169.762 144.764 171.918C144.709 171.45 144.938 170.973 145.376 170.733C163.005 160.998 174.319 145.037 176.016 134.963C176.653 131.189 177.65 121.74 173.189 115.528C170.993 112.471 167.725 110.577 163.479 109.899C158.189 109.055 154.113 112.033 150.837 114.423C148.616 116.044 146.858 117.321 145.064 117.276C143.486 117.235 141.943 115.959 139.989 114.343C137.302 112.121 134.153 109.513 130.268 109.513V109.515Z" fill="#231F20"/>
<path d="M122.165 207.423C122.113 207.423 122.063 207.421 122.011 207.412C121.355 207.327 120.89 206.726 120.975 206.07C122.168 196.776 127.643 183.908 137.182 176.111C137.695 175.692 138.45 175.77 138.869 176.282C139.288 176.795 139.21 177.551 138.698 177.97C129.668 185.348 124.483 197.553 123.35 206.376C123.273 206.979 122.758 207.421 122.163 207.421L122.165 207.423Z" fill="#231F20"/>
<path d="M129.175 209.502C129.153 209.502 129.128 209.502 129.106 209.502C128.445 209.464 127.941 208.899 127.976 208.237C128.109 205.924 128.712 199.833 131.473 193.285C134.256 186.68 138.268 181.855 143.399 178.949C143.974 178.623 144.705 178.825 145.033 179.401C145.358 179.977 145.157 180.708 144.581 181.036C131.87 188.237 130.487 206.335 130.371 208.375C130.335 209.012 129.806 209.505 129.175 209.505V209.502Z" fill="#231F20"/>
<path d="M160.554 183.605C155.553 183.605 150.902 182.935 146.915 181.582C137.067 178.237 128.313 173.12 121.598 166.785C113.987 159.605 108.992 151.009 106.743 141.232C102.938 124.679 106.685 112.405 118.2 103.701C122.105 100.75 127.525 99.6862 133.465 100.701C138.373 101.539 142.848 103.701 145.702 106.571C149.794 103.303 154.459 101.302 159.265 100.764C164.651 100.163 169.931 101.454 174.535 104.497C179.721 107.927 182.934 111.781 184.648 116.626C186.538 121.971 186.557 128.632 184.706 136.986C181.118 153.184 167.873 168.841 151.745 175.946C151.139 176.214 150.431 175.938 150.166 175.331C149.899 174.725 150.174 174.016 150.781 173.752C166.244 166.939 178.938 151.954 182.369 136.465C185.651 121.649 183 112.967 173.218 106.496C165.037 101.084 154.5 102.118 146.375 109.126C146.132 109.336 145.815 109.438 145.496 109.413C145.176 109.388 144.881 109.234 144.674 108.989C142.297 106.152 137.849 103.88 133.066 103.064C127.861 102.173 122.973 103.102 119.65 105.614C108.969 113.687 105.511 125.161 109.082 140.695C113.125 158.276 127.194 172.351 147.689 179.31C156.727 182.378 169.462 181.706 181.76 177.512C195.441 172.844 206.939 164.485 214.142 153.975C222.367 141.971 227.564 125.795 230.476 114.34C233.645 101.881 234.868 92.154 234.879 92.0575C234.959 91.4013 235.56 90.9326 236.216 91.0153C236.872 91.0953 237.337 91.6963 237.257 92.3525C237.246 92.4517 236.006 102.303 232.807 114.9C229.845 126.554 224.547 143.03 216.118 155.332C208.626 166.266 196.697 174.948 182.532 179.781C175.103 182.315 167.495 183.605 160.557 183.605H160.554Z" fill="#231F20"/>
<path d="M235.728 79.1103C235.477 79.1103 235.227 79.0882 234.97 79.0414L233.899 78.8401C231.669 78.4238 230.195 76.2678 230.611 74.0373L233.292 59.6841C233.493 58.6034 234.105 57.666 235.012 57.0456C235.918 56.4253 237.012 56.1937 238.092 56.395L239.167 56.5962C241.396 57.0125 242.873 59.1686 242.457 61.399L239.776 75.7522C239.404 77.729 237.671 79.113 235.731 79.113L235.728 79.1103ZM237.332 58.7219C236.987 58.7219 236.654 58.8239 236.365 59.0224C235.987 59.2816 235.731 59.6731 235.648 60.1253L232.967 74.4784C232.794 75.4103 233.408 76.3091 234.339 76.4828L235.414 76.6841C236.343 76.8578 237.244 76.2402 237.42 75.3083L240.098 60.9579C240.272 60.026 239.655 59.1272 238.726 58.9535L237.651 58.7522C237.547 58.7329 237.439 58.7219 237.332 58.7219Z" fill="#231F20"/>
<path d="M123.775 234.233C123.678 234.233 123.582 234.227 123.483 234.214L120.118 233.761C119.675 233.703 119.022 233.466 118.429 232.683C117.688 231.705 117.217 230.02 117.374 228.926L120.303 208.672C120.537 207.04 122.196 205.91 123.998 206.15L127.362 206.602C128.291 206.726 129.131 207.203 129.663 207.909C130.134 208.532 130.333 209.284 130.228 210.029L127.299 230.282C127.092 231.691 125.684 234.23 123.775 234.23V234.233ZM120.482 231.39L123.75 231.829C124.128 231.674 124.838 230.541 124.927 229.94L127.856 209.69C127.872 209.582 127.836 209.469 127.751 209.356C127.602 209.16 127.338 209.02 127.043 208.981L123.681 208.529C123.155 208.46 122.714 208.73 122.673 209.017L119.744 229.27C119.661 229.838 120.124 231.156 120.479 231.39H120.482Z" fill="#231F20"/>
<path d="M245.485 93.9321C245.485 93.9321 245.466 93.9321 245.455 93.9321C245.248 93.9266 240.308 93.7832 232.697 92.3661C225.125 90.9545 220.59 89.6559 220.402 89.6008C219.78 89.4216 219.413 88.7764 219.576 88.1478L221.956 79.0027C222.097 78.4623 222.596 78.0874 223.147 78.1067C223.254 78.1094 225.888 78.1976 234.653 79.9897C242.641 81.6219 247.392 81.8204 247.439 81.8232C247.789 81.8369 248.114 82.0024 248.331 82.2781C248.549 82.5538 248.635 82.9094 248.566 83.2513L246.662 92.9672C246.551 93.5296 246.055 93.9349 245.485 93.9349V93.9321ZM222.191 87.5992C223.982 88.0679 227.831 89.0191 233.135 90.0061C238.605 91.0262 242.708 91.3708 244.51 91.4839L245.953 84.1198C243.959 83.9516 239.892 83.5022 234.171 82.3332C228.44 81.1615 225.392 80.7369 224.017 80.5825L222.191 87.5964V87.5992Z" fill="#231F20"/>
<path d="M251.496 61.4931C251.265 61.4931 251.033 61.4269 250.835 61.2946C250.796 61.2698 246.77 58.6782 239.218 57.4788C231.618 56.2713 227.03 57.1728 226.984 57.1838C226.581 57.2665 226.157 57.1342 225.873 56.8337C225.589 56.5332 225.479 56.1086 225.584 55.7088L227.965 46.5637C228.083 46.1143 228.447 45.7724 228.904 45.6869C229.072 45.6539 233.167 44.9205 242.103 46.3376C251.072 47.7602 253.921 49.4917 254.037 49.5634C254.458 49.8253 254.673 50.3215 254.577 50.8123L252.673 60.5281C252.595 60.9196 252.328 61.2477 251.959 61.4021C251.81 61.4655 251.653 61.4959 251.496 61.4959V61.4931ZM231.621 54.4461C233.712 54.4461 236.399 54.6005 239.592 55.1078C245.012 55.968 248.718 57.4954 250.636 58.4493L252.047 51.2562C250.785 50.7241 247.716 49.6516 241.725 48.7032C235.349 47.6941 231.566 47.8264 230.075 47.956L228.35 54.5867C229.18 54.5095 230.276 54.4461 231.621 54.4461Z" fill="#231F20"/>
<path d="M234.565 81.5835C234.521 81.5835 234.474 81.5835 234.43 81.5752C233.772 81.5007 233.301 80.908 233.375 80.249L233.659 77.7429C233.733 77.0839 234.326 76.6125 234.984 76.6869C235.643 76.7614 236.114 77.3541 236.039 78.0131L235.756 80.5192C235.687 81.1313 235.169 81.5835 234.565 81.5835Z" fill="#231F20"/>
<path d="M241.168 47.2638C241.091 47.2638 241.011 47.2555 240.934 47.2417C240.283 47.1121 239.865 46.4808 239.991 45.8329L241.311 39.1829C241.441 38.5322 242.072 38.1104 242.719 38.2399C243.367 38.3695 243.788 39.0009 243.662 39.6488L242.342 46.2988C242.229 46.8695 241.727 47.2638 241.168 47.2638Z" fill="#231F20"/>
<path d="M116.809 118.396C116.701 118.396 116.594 118.382 116.486 118.351C114.861 117.897 113.268 117.262 110.231 114.078C109.774 113.598 109.793 112.84 110.273 112.382C110.752 111.925 111.51 111.944 111.967 112.424C114.593 115.178 115.764 115.661 117.134 116.044C117.77 116.223 118.142 116.885 117.966 117.522C117.817 118.051 117.338 118.398 116.811 118.398L116.809 118.396Z" fill="#231F20"/>
<path d="M114.728 123.896C114.543 123.896 114.356 123.854 114.182 123.763C112.885 123.096 108.611 120.747 108.123 118.497C107.983 117.85 108.393 117.213 109.038 117.072C109.686 116.931 110.322 117.342 110.465 117.987C110.614 118.674 112.909 120.411 115.279 121.629C115.869 121.933 116.1 122.655 115.797 123.245C115.585 123.659 115.163 123.896 114.731 123.896H114.728Z" fill="#231F20"/>
<path d="M113.555 129.757C110.94 129.757 106.906 126.667 106.085 126.019C105.567 125.608 105.479 124.853 105.889 124.334C106.3 123.816 107.055 123.728 107.573 124.139C109.686 125.812 112.624 127.505 113.627 127.356C114.28 127.26 114.891 127.712 114.988 128.365C115.084 129.021 114.632 129.631 113.979 129.727C113.842 129.746 113.701 129.757 113.555 129.757Z" fill="#231F20"/>
<path d="M157.623 172.103C157.256 172.103 156.895 171.935 156.658 171.618C156.642 171.596 154.978 169.368 153.236 168.196C152.688 167.827 152.542 167.082 152.911 166.531C153.28 165.982 154.024 165.836 154.573 166.206C156.661 167.612 158.505 170.085 158.584 170.189C158.978 170.722 158.866 171.472 158.334 171.866C158.119 172.026 157.868 172.1 157.62 172.1L157.623 172.103Z" fill="#231F20"/>
<path d="M140.531 183.735C140.187 183.735 139.845 183.586 139.608 183.299C139.594 183.283 137.979 181.386 135.511 180.774C134.868 180.614 134.477 179.963 134.634 179.321C134.794 178.678 135.444 178.287 136.086 178.447C139.343 179.255 141.371 181.67 141.454 181.772C141.876 182.282 141.804 183.037 141.294 183.459C141.071 183.644 140.801 183.735 140.531 183.735Z" fill="#231F20"/>
<path d="M136.103 187.89C135.902 187.89 135.698 187.84 135.513 187.733L131 185.171C130.424 184.843 130.223 184.113 130.548 183.536C130.876 182.96 131.606 182.759 132.182 183.084L136.695 185.646C137.271 185.971 137.472 186.704 137.147 187.28C136.927 187.669 136.522 187.887 136.103 187.887V187.89Z" fill="#231F20"/>
<path d="M61.6947 240.75C61.2235 240.75 60.7743 240.469 60.5842 240.003L53.398 222.391C53.1473 221.779 53.4421 221.079 54.0538 220.828C54.6655 220.577 55.3654 220.872 55.6162 221.484L62.8023 239.096C63.0531 239.708 62.7583 240.409 62.1466 240.659C61.9978 240.72 61.8462 240.748 61.6947 240.748V240.75Z" fill="white"/>
<path d="M67.6096 239.507C67.0558 239.507 66.5598 239.121 66.4385 238.559L64.3665 228.881C64.2287 228.233 64.6392 227.597 65.2868 227.459C65.9343 227.321 66.5708 227.732 66.7113 228.38L68.7834 238.057C68.9212 238.705 68.5106 239.342 67.8631 239.479C67.7777 239.499 67.695 239.507 67.6096 239.507Z" fill="white"/>
<path d="M143.119 258.136C142.769 258.136 142.421 257.985 142.184 257.69C141.768 257.174 141.848 256.419 142.363 256.003L153.793 246.764C154.308 246.347 155.063 246.427 155.477 246.943C155.893 247.458 155.813 248.214 155.298 248.63L143.868 257.869C143.645 258.048 143.38 258.136 143.116 258.136H143.119Z" fill="white"/>
<path d="M145.312 265.614C144.805 265.614 144.337 265.291 144.172 264.784C143.968 264.155 144.315 263.477 144.943 263.276L172.2 254.478C172.831 254.274 173.506 254.621 173.707 255.253C173.911 255.881 173.564 256.559 172.933 256.761L145.676 265.558C145.555 265.6 145.431 265.616 145.31 265.616L145.312 265.614Z" fill="white"/>
<path d="M148.609 275.544C148.002 275.544 147.482 275.084 147.418 274.466C147.352 273.807 147.832 273.22 148.49 273.151L163.695 271.599C164.353 271.53 164.94 272.013 165.009 272.672C165.075 273.331 164.596 273.918 163.94 273.987L148.735 275.539C148.694 275.544 148.653 275.544 148.611 275.544H148.609Z" fill="white"/>
<path d="M37.5972 256.656C37.2638 256.656 36.9332 256.518 36.6962 256.248L21.7644 239.237C21.3291 238.741 21.3759 237.983 21.8747 237.544C22.3706 237.109 23.1284 237.155 23.5665 237.654L38.4983 254.665C38.9336 255.164 38.8868 255.92 38.388 256.358C38.1593 256.557 37.8783 256.656 37.5972 256.656Z" fill="white"/>
<path d="M33.6154 263.739C33.3399 263.739 33.0616 263.645 32.8356 263.449L21.7863 253.982C21.2848 253.552 21.2242 252.793 21.654 252.292C22.0839 251.787 22.8416 251.729 23.3431 252.162L34.3925 261.63C34.894 262.06 34.9546 262.818 34.522 263.32C34.285 263.596 33.9488 263.739 33.6127 263.739H33.6154Z" fill="white"/>
<path d="M145.592 262.054C145.176 262.054 144.77 261.837 144.547 261.448C144.219 260.872 144.423 260.141 144.999 259.813L156.054 253.535C156.63 253.207 157.36 253.411 157.688 253.987C158.016 254.564 157.812 255.297 157.236 255.622L146.181 261.9C145.994 262.005 145.793 262.057 145.592 262.057V262.054Z" fill="white"/>
<path d="M57.0567 245.09C56.6379 245.09 56.2301 244.87 56.0124 244.478L49.201 232.355C48.8758 231.779 49.0825 231.046 49.6584 230.723C50.2343 230.398 50.9672 230.605 51.2896 231.181L58.1011 243.304C58.4262 243.88 58.2195 244.611 57.6437 244.936C57.459 245.041 57.2551 245.09 57.0567 245.09Z" fill="white"/>
<path d="M129.542 158.169C129.294 158.169 129.043 158.092 128.828 157.932C120.634 151.83 118.044 137.047 118.327 133.94C118.388 133.281 118.969 132.793 119.631 132.854C120.289 132.914 120.777 133.496 120.716 134.158C120.477 136.794 123.061 150.645 130.261 156.007C130.793 156.402 130.903 157.154 130.506 157.686C130.272 158.004 129.911 158.169 129.545 158.169H129.542Z" fill="white"/>
<path d="M183.783 153.388C183.585 153.388 183.381 153.338 183.193 153.234C182.618 152.908 182.414 152.178 182.739 151.599C186.434 145.051 190.512 130.113 189.782 123.215C189.713 122.556 190.189 121.966 190.848 121.897C191.504 121.828 192.096 122.305 192.165 122.961C192.961 130.449 188.724 145.872 184.827 152.776C184.607 153.167 184.202 153.385 183.783 153.385V153.388Z" fill="white"/>
<path d="M187.37 112.046C186.902 112.046 186.455 111.768 186.265 111.31C184.094 106.105 176.949 100.196 167.501 98.9778C166.845 98.8923 166.382 98.2913 166.465 97.6351C166.55 96.9789 167.153 96.5157 167.807 96.5984C178.156 97.9356 186.037 104.547 188.475 110.386C188.731 110.998 188.442 111.699 187.833 111.955C187.682 112.019 187.524 112.049 187.373 112.049L187.37 112.046Z" fill="white"/>
<path d="M102.64 121.952C102.562 121.952 102.482 121.944 102.403 121.93C101.752 121.801 101.333 121.169 101.463 120.519C102.7 114.337 109.875 103.505 115.243 101.305C115.855 101.054 116.555 101.346 116.805 101.961C117.056 102.573 116.761 103.273 116.149 103.524C111.592 105.391 104.904 115.526 103.811 120.987C103.698 121.558 103.196 121.952 102.637 121.952H102.64Z" fill="white"/>
<path d="M100.348 113.011C100.226 113.011 100.105 112.992 99.984 112.953C99.353 112.752 99.0058 112.079 99.2042 111.448C100.838 106.311 105.925 99.9013 109.901 96.6673C110.413 96.251 111.168 96.3282 111.587 96.841C112.003 97.3538 111.926 98.1093 111.414 98.5283C107.793 101.473 102.968 107.527 101.491 112.173C101.329 112.683 100.857 113.008 100.35 113.008L100.348 113.011Z" fill="white"/>
</g>
<defs>
<clipPath id="clip0_1_268">
<rect width="293" height="500" fill="white"/>
</clipPath>
</defs>
</svg>
