<svg width="288" height="217" viewBox="0 0 288 217" fill="none" xmlns="http://www.w3.org/2000/svg">
<g clip-path="url(#clip0_1_532)">
<path d="M247.757 149.959L40.0581 150.406C36.5886 150.406 33.1719 147.119 33.1719 143.652V7.78716C33.1719 4.31721 37.3924 1.06763 40.8588 1.06763L247.409 1.16695C250.879 1.16695 254.06 4.31721 254.06 7.78716V143.652C254.06 147.119 251.223 149.959 247.754 149.959H247.757Z" fill="#007EA4"/>
<path d="M247.756 148.894C246.412 148.894 245.069 148.9 243.722 148.904C240.026 148.91 236.327 148.919 232.631 148.928C227.017 148.941 221.403 148.953 215.789 148.966C208.741 148.981 201.69 148.997 194.643 149.012C186.667 149.031 178.695 149.046 170.719 149.065C162.216 149.084 153.71 149.102 145.207 149.121C136.679 149.139 128.151 149.158 119.623 149.177C111.58 149.195 103.533 149.211 95.4888 149.229C88.3202 149.245 81.1546 149.261 73.986 149.276C68.2045 149.288 62.4261 149.301 56.6446 149.313C52.7345 149.323 48.8243 149.332 44.9172 149.338C43.3128 149.338 41.7053 149.385 40.1009 149.347C37.0255 149.276 34.2666 146.582 34.2356 143.494C34.2263 142.653 34.2356 141.815 34.2356 140.974V17.0518C34.2356 14.1095 34.2263 11.164 34.2356 8.21862C34.248 4.28002 38.2544 2.12604 41.7922 2.12604C44.3121 2.12604 46.832 2.12604 49.3519 2.12915C54.0379 2.12915 58.727 2.13535 63.413 2.13535C69.7841 2.13535 76.1583 2.14156 82.5294 2.14466C90.0736 2.14777 97.6208 2.15087 105.165 2.15708C113.479 2.16018 121.793 2.16639 130.103 2.16949C138.675 2.1726 147.249 2.1788 155.82 2.18191C164.14 2.18501 172.46 2.18812 180.78 2.19432C188.449 2.19743 196.117 2.20053 203.788 2.20674C210.29 2.20674 216.794 2.21295 223.296 2.21605C228.14 2.21605 232.981 2.22226 237.825 2.22226C240.581 2.22226 243.334 2.22226 246.09 2.22536C246.524 2.22536 246.962 2.21605 247.396 2.22536C250.496 2.29985 252.976 4.95973 252.998 8.01688C253.016 10.7171 252.998 13.4173 252.998 16.1176V140.437C252.998 141.377 253.001 142.318 252.998 143.258C252.988 146.293 250.915 148.81 247.756 148.891C246.388 148.925 246.381 151.058 247.756 151.02C251.902 150.915 255.092 147.628 255.126 143.494C255.133 142.65 255.126 141.809 255.126 140.964V16.1238C255.126 13.4173 255.148 10.7078 255.126 8.00136C255.095 4.16518 252.191 0.698335 248.339 0.173808C247.71 0.0900076 247.092 0.0993187 246.459 0.0993187C243.877 0.0993187 241.295 0.0993187 238.713 0.096215C233.94 0.096215 229.164 0.0900076 224.391 0.0900076C217.915 0.0869039 211.438 0.0838002 204.961 0.0806965C197.271 0.0775928 189.578 0.0713853 181.888 0.0682816C173.472 0.0651779 165.056 0.0589705 156.64 0.0558668C147.988 0.0527631 139.336 0.0465557 130.684 0.0434519C122.286 0.0403482 113.888 0.0341408 105.488 0.0310371C97.8318 0.0279334 90.176 0.0248297 82.5201 0.0186223C76.0962 0.0186223 69.6724 0.0124148 63.2485 0.00931113C58.547 0.00931113 53.8424 0.00310371 49.1408 0.00310371C46.6582 0 44.1662 0 41.6712 0C37.1589 0 32.1502 3.07578 32.1067 8.02309C32.0819 10.7637 32.1067 13.5042 32.1067 16.2448V141.039C32.1067 141.864 32.0943 142.69 32.1067 143.512C32.1781 147.737 35.84 151.368 40.0574 151.47C41.4477 151.505 42.8442 151.464 44.2345 151.461C48.036 151.455 51.8376 151.446 55.6392 151.436C61.3648 151.424 67.0935 151.411 72.8191 151.399C79.9878 151.383 87.1564 151.368 94.3251 151.352C102.45 151.334 110.577 151.318 118.702 151.3C127.301 151.281 135.9 151.262 144.496 151.244C153.083 151.225 161.67 151.207 170.257 151.188C178.35 151.169 186.441 151.154 194.534 151.135C201.647 151.12 208.76 151.104 215.873 151.089C221.524 151.076 227.172 151.064 232.823 151.051C236.525 151.042 240.227 151.036 243.93 151.027C245.202 151.027 246.478 151.02 247.75 151.017C249.118 151.017 249.122 148.885 247.75 148.888L247.756 148.894Z" fill="#231F20"/>
<path d="M44.226 4.82324H242.745C246.062 4.82324 248.756 7.51726 248.756 10.8351V140.334C248.756 143.652 246.062 146.346 242.745 146.346H44.226C40.9085 146.346 38.2148 143.652 38.2148 140.334V10.8351C38.2148 7.51726 40.9085 4.82324 44.226 4.82324Z" fill="white"/>
<rect x="52.6465" y="22.8604" width="182.71" height="45.7205" rx="4" fill="#F8FAFC"/>
<path d="M78.4534 56.1116C81.3039 56.1116 83.8846 54.9486 85.7526 53.0682C87.6206 51.1878 88.776 48.59 88.776 45.7206C88.776 42.8512 87.6206 40.2535 85.7526 38.373C83.8846 36.4926 81.3039 35.3296 78.4534 35.3296C75.6029 35.3296 73.0223 36.4926 71.1543 38.373C69.2863 40.2535 68.1309 42.8512 68.1309 45.7206C68.1309 48.59 69.2863 51.1878 71.1543 53.0682C73.0223 54.9486 75.6029 56.1116 78.4534 56.1116Z" fill="#6BA315"/>
<path fill-rule="evenodd" clip-rule="evenodd" d="M83.98 42.2359C84.1816 42.4388 84.1816 42.7678 83.98 42.9707L77.7865 49.2053C77.5849 49.4082 77.2581 49.4082 77.0565 49.2053L73.9598 46.088C73.7582 45.8851 73.7582 45.5561 73.9598 45.3532C74.1613 45.1503 74.4881 45.1503 74.6897 45.3532L77.4215 48.1031L83.2501 42.2359C83.4516 42.033 83.7784 42.033 83.98 42.2359Z" fill="white"/>
<path fill-rule="evenodd" clip-rule="evenodd" d="M166.194 37.4078H97.0332V36.3687H166.194V37.4078Z" fill="#94C3DA"/>
<path fill-rule="evenodd" clip-rule="evenodd" d="M226.065 46.7598H97.0332V45.7207H226.065V46.7598Z" fill="#94C3DA"/>
<path fill-rule="evenodd" clip-rule="evenodd" d="M226.065 56.1116H97.0332V55.0725H226.065V56.1116Z" fill="#94C3DA"/>
<rect x="52.6465" y="76.8936" width="182.71" height="45.7205" rx="4" fill="#F8FAFC"/>
<path d="M78.4534 110.145C81.3039 110.145 83.8846 108.982 85.7526 107.101C87.6206 105.221 88.776 102.623 88.776 99.7538C88.776 96.8844 87.6206 94.2867 85.7526 92.4063C83.8846 90.5258 81.3039 89.3628 78.4534 89.3628C75.6029 89.3628 73.0223 90.5258 71.1543 92.4063C69.2863 94.2867 68.1309 96.8844 68.1309 99.7538C68.1309 102.623 69.2863 105.221 71.1543 107.101C73.0223 108.982 75.6029 110.145 78.4534 110.145Z" fill="#6BA315"/>
<path fill-rule="evenodd" clip-rule="evenodd" d="M83.98 96.2691C84.1816 96.472 84.1816 96.801 83.98 97.0039L77.7865 103.238C77.5849 103.441 77.2581 103.441 77.0565 103.238L73.9598 100.121C73.7582 99.9183 73.7582 99.5893 73.9598 99.3864C74.1613 99.1835 74.4881 99.1835 74.6897 99.3864L77.4215 102.136L83.2501 96.2691C83.4516 96.0662 83.7784 96.0662 83.98 96.2691Z" fill="white"/>
<path fill-rule="evenodd" clip-rule="evenodd" d="M166.194 91.441H97.0332V90.4019H166.194V91.441Z" fill="#94C3DA"/>
<path fill-rule="evenodd" clip-rule="evenodd" d="M226.065 100.793H97.0332V99.7539H226.065V100.793Z" fill="#94C3DA"/>
<path fill-rule="evenodd" clip-rule="evenodd" d="M226.065 110.145H97.0332V109.106H226.065V110.145Z" fill="#94C3DA"/>
<path d="M206.081 181.179C204.718 182.628 204.113 183.528 204.622 185.372C205.209 187.473 206.534 189.584 207.397 191.601C210.804 199.572 213.786 207.722 216.312 216.006C216.312 216.006 220.496 224.063 251.02 223.588C281.535 223.123 287.093 215.729 287.093 215.729C278.45 201.968 269.81 188.193 261.177 174.428C259.985 172.535 258.744 170.577 256.888 169.317C255.855 168.615 254.7 168.103 253.481 167.802C252.271 167.47 251.001 167.349 249.76 167.405C221.222 168.683 210.053 177.327 206.751 180.496C206.478 180.769 206.248 180.999 206.078 181.176L206.081 181.179Z" fill="white"/>
<path d="M178.831 133.82L178.633 133.903C178.518 136.951 178.425 139.999 178.378 143.047C178.263 149.049 178.415 155.505 181.928 160.378C183.803 162.973 186.472 164.875 189.047 166.778C194.832 171.049 200.405 175.592 205.752 180.4L206.755 180.493C210.06 177.321 221.226 168.68 249.764 167.402C251.005 167.346 252.271 167.467 253.484 167.799L253.503 167.715C252.982 150.154 236.987 110.964 235.519 109.611C234.052 108.267 232.016 107.376 230.058 107.773C228.714 108.037 227.5 108.881 226.129 108.946C221.679 109.136 219.627 104.005 215.224 103.304C212.688 102.897 210.389 104.564 207.887 106.439C206.06 107.801 203.797 107.016 201.082 105.293C199.993 104.601 198.348 103.524 197.24 102.86C193.38 100.542 187.964 103.304 185.615 107.159C177.183 95.0325 173.736 78.589 166.033 65.9973C163.383 61.6707 155.649 54.7432 154.74 64.4547C154.542 66.5559 155.137 68.6478 155.733 70.6839C162.076 92.1926 169.788 113.292 178.828 133.816L178.831 133.82Z" fill="#FDE7DC"/>
<path d="M254.384 167.712C254.139 160.117 252.097 152.538 250.002 145.278C247.737 137.432 245.074 129.698 242.157 122.072C241.133 119.397 240.075 116.731 238.948 114.096C238.433 112.894 237.98 111.513 237.164 110.473C235.761 108.683 233.536 107.044 231.243 106.712C228.772 106.358 226.743 108.472 224.276 107.646C222.364 107.007 220.915 105.359 219.341 104.176C217.607 102.872 215.558 101.926 213.34 102.258C211.862 102.478 210.516 103.192 209.28 104.008C208.11 104.778 206.941 106.144 205.435 106.066C203.89 105.989 202.441 105.008 201.181 104.207C199.992 103.453 198.832 102.64 197.606 101.944C192.883 99.2598 187.148 102.466 184.522 106.619H186.362C180.705 98.4497 176.584 89.1417 172.664 80.0478C171.103 76.4258 169.601 72.7789 168.168 69.1041C167.004 66.1184 166.101 62.9215 163.981 60.4448C162.442 58.6477 160.264 57.5428 157.868 57.8904C155.848 58.1822 154.37 59.374 153.74 61.3293C152.66 64.6907 153.821 68.5641 154.786 71.8199C158.858 85.5507 163.491 99.1108 168.674 112.46C174.427 127.286 180.854 141.852 187.917 156.098C188.525 157.327 190.363 156.25 189.757 155.024C177.673 130.648 167.482 105.343 159.326 79.3836C158.377 76.3606 157.443 73.3314 156.558 70.2866C156.139 68.8434 155.767 67.3692 155.596 65.8732C155.416 64.3182 155.252 62.1953 156.319 60.8917C157.651 59.2623 160.288 59.914 161.654 61.0997C164.04 63.1729 164.881 66.4784 165.989 69.3276C167.311 72.7293 168.695 76.1061 170.123 79.4643C174.225 89.1168 178.536 99.0301 184.528 107.683C184.988 108.344 185.919 108.391 186.369 107.683C187.598 105.737 189.515 104.142 191.725 103.437C194.084 102.686 195.828 103.304 197.835 104.576C199.918 105.896 202.056 107.603 204.532 108.074C207.223 108.586 208.762 106.811 210.882 105.508C213.132 104.123 215.223 103.965 217.458 105.421C219.127 106.51 220.48 108.04 222.227 109.024C224.074 110.067 226.054 110.259 228.049 109.521C229.114 109.13 230.107 108.599 231.267 108.86C232.537 109.145 233.7 109.971 234.628 110.849C234.811 111.023 234.995 111.203 235.165 111.389C235.19 111.417 235.904 112.373 235.538 111.793C235.572 111.848 235.609 111.901 235.64 111.957C235.746 112.14 235.839 112.326 235.932 112.516C236.276 113.208 236.583 113.919 236.891 114.623C237.912 116.973 238.852 119.356 239.777 121.743C242.526 128.857 245.04 136.073 247.237 143.379C249.596 151.219 252.001 159.459 252.268 167.7C252.311 169.068 254.443 169.075 254.396 167.7L254.384 167.712Z" fill="#231F20"/>
<path d="M206.327 179.649C200.499 174.425 194.385 169.577 188.11 164.903C185.215 162.746 182.527 160.381 181.056 157.007C179.678 153.848 179.334 150.331 179.253 146.923C179.151 142.591 179.353 138.236 179.52 133.906C179.573 132.535 177.444 132.538 177.391 133.906C177.236 137.916 177.072 141.936 177.109 145.949C177.14 149.481 177.401 153.115 178.577 156.477C181.115 163.742 188.284 167.513 194 172.035C197.702 174.962 201.308 178.007 204.821 181.157C205.839 182.07 207.351 180.568 206.327 179.652V179.649Z" fill="#231F20"/>
<path d="M217.156 215.727C215.288 209.622 213.19 203.588 210.847 197.647C209.745 194.857 208.662 192.033 207.328 189.345C206.701 188.085 206.015 186.831 205.593 185.484C205.153 184.078 205.432 183.283 206.4 182.216C208.535 179.854 211.08 178.15 213.885 176.62C220.135 173.215 227.149 171.306 234.122 170.083C236.657 169.64 239.205 169.295 241.765 169.034C244.602 168.743 247.522 168.404 250.374 168.454C253.251 168.504 255.979 169.627 257.878 171.812C259.824 174.05 261.248 176.831 262.818 179.332C270.542 191.645 278.267 203.954 285.991 216.263C286.717 217.424 288.56 216.353 287.831 215.19C280.563 203.607 273.295 192.024 266.027 180.44C264.327 177.731 262.691 174.962 260.9 172.309C259.361 170.031 257.509 168.199 254.908 167.191C252.05 166.083 249.074 166.325 246.085 166.53C243.199 166.728 240.322 167.023 237.458 167.417C229.507 168.51 221.516 170.409 214.295 174C211.064 175.608 207.896 177.594 205.367 180.195C203.945 181.657 202.887 183.169 203.331 185.292C203.678 186.949 204.544 188.526 205.295 190.025C206.146 191.729 206.878 193.482 207.601 195.245C210.428 202.138 212.923 209.162 215.102 216.285C215.502 217.592 217.556 217.036 217.156 215.72V215.727Z" fill="#231F20"/>
<path d="M215.04 208.284C216.104 206.195 218.115 204.652 220.017 203.367C222.922 201.403 226.106 199.835 229.343 198.498C237.641 195.074 246.557 192.905 255.491 192.064C260.717 191.573 265.993 191.558 271.206 192.213C272.563 192.383 272.55 190.251 271.206 190.084C261.537 188.87 251.615 189.897 242.172 192.157C234.314 194.038 226.255 196.76 219.44 201.198C217.075 202.741 214.512 204.631 213.202 207.21C212.582 208.43 214.419 209.51 215.043 208.284H215.04Z" fill="#231F20"/>
<path d="M30.472 79.6693C30.8413 79.3961 31.2106 79.1199 31.5799 78.8468C37.1752 74.7375 42.9287 70.8299 48.8157 67.1458C53.0455 69.9577 52.9059 76.5562 50.0942 80.7866C47.2826 85.017 43.9559 88.071 39.8378 91.0444C38.7982 91.811 38.3606 93.0866 37.7337 94.2132C36.5514 96.3424 36.5235 98.5212 37.0634 100.899C41.6067 120.703 39.2358 141.297 32.666 160.533L32.4488 161.803C24.8302 160.552 14.0399 161.139 6.61061 162.172L3.37695 162.129C3.63142 141.216 5.28239 122.05 3.76797 101.197C3.40799 96.302 3.02007 91.2771 4.40105 86.5719C5.74478 81.9908 10.9863 75.7369 13.8537 71.9224C19.75 64.0545 26.7418 56.2735 32.6381 48.4087V74.0702C31.8406 76.2303 30.7823 76.8728 29.9786 79.033L30.472 79.6755V79.6693Z" fill="#FDE7DC"/>
<path d="M54.2376 222.449C54.2376 222.449 44.8469 225.941 29.0138 226.481C13.1869 227.012 4.86692 222.477 4.86692 222.477C3.69387 203.43 0.733308 185.199 1.09019 166.114C1.10881 165.329 1.14605 164.484 1.61155 163.861C2.16083 163.131 3.11665 162.895 4.0073 162.715C5.07795 162.498 6.16411 162.318 7.2813 162.166C14.7106 161.135 25.5009 160.549 33.1195 161.797C35.6549 162.203 36.7287 162.389 39.0748 163.016C43.6459 181.912 49.654 203.563 54.2376 222.449Z" fill="white"/>
<path d="M14.8837 113.295C17.8225 105.846 20.6621 98.3536 23.7095 90.9481C25.0874 87.5992 26.8501 84.6569 29.6058 82.2609C32.4888 79.7531 35.7349 77.6022 38.8692 75.4265C42.528 72.8846 46.252 70.4326 50.0256 68.0676H48.9519C51.149 69.5977 51.7573 72.1986 51.2545 74.7251C50.6835 77.5867 48.9395 79.9176 47.3288 82.2795C45.6189 84.7873 43.7849 87.2361 41.5225 89.2784C39.254 91.3237 36.5293 92.6614 36.0731 95.9886C35.6387 99.1668 36.9141 102.506 37.482 105.598C38.1089 109.009 38.5309 112.454 38.7637 115.914C39.2416 123.028 38.9375 130.198 37.9258 137.252C36.8055 145.08 34.8535 152.765 32.3119 160.248C31.8712 161.548 33.9256 162.107 34.3663 160.813C39.0678 146.973 41.7118 132.33 40.995 117.684C40.8181 114.037 40.4271 110.399 39.8405 106.796C39.5768 105.172 39.2664 103.555 38.9158 101.948C38.5434 100.247 38.0127 98.4964 38.1275 96.7366C38.2454 94.9116 39.285 93.7104 40.6908 92.6521C42.0129 91.6527 43.2759 90.6316 44.421 89.4304C46.5592 87.1865 48.3343 84.6228 50.0504 82.0529C51.8193 79.4055 53.3927 76.7145 53.5479 73.4463C53.6875 70.5071 52.44 67.9124 50.0287 66.2302C49.7308 66.0223 49.2529 66.044 48.955 66.2302C42.2084 70.4637 35.4369 74.8678 29.2086 79.84C26.307 82.1584 24.1316 84.8959 22.5737 88.2696C20.9258 91.842 19.6007 95.5789 18.1577 99.2351C16.3826 103.735 14.6075 108.233 12.8324 112.733C12.3297 114.009 14.3872 114.561 14.8868 113.298L14.8837 113.295Z" fill="#231F20"/>
<path d="M32.1194 48.57C27.1045 55.2181 20.9661 60.9041 15.8705 67.4871C12.1899 72.2389 8.29839 76.972 5.26956 82.1801C3.6279 84.9982 2.79621 87.8878 2.51071 91.1498C2.1321 95.4826 2.66277 99.8433 2.92966 104.167C3.48825 113.223 3.60308 122.302 3.52239 131.374C3.43239 141.625 3.11275 151.871 2.98552 162.122C2.9669 163.494 5.09887 163.494 5.11439 162.122C5.34093 144.198 6.13848 126.268 5.28818 108.351C5.07715 103.915 4.59303 99.4801 4.52166 95.0387C4.4658 91.5409 4.70165 87.8692 6.31537 84.7034C8.97802 79.4798 12.8851 74.9112 16.4136 70.2649C21.8847 63.0612 28.5134 56.8631 33.9597 49.6439C34.7852 48.5514 32.9356 47.4868 32.1194 48.57V48.57Z" fill="#231F20"/>
<path d="M31.9469 73.5114C31.8507 73.769 31.7483 74.0235 31.6458 74.278C31.5838 74.4301 31.7141 74.126 31.6458 74.2718C31.621 74.3246 31.5993 74.3774 31.5776 74.4301C31.531 74.5325 31.4876 74.635 31.4379 74.7374C31.2517 75.1409 31.0562 75.5413 30.8576 75.9416C30.4045 76.8572 29.9825 77.7852 29.6256 78.7412C29.4301 79.2657 29.8428 79.933 30.3704 80.0509C30.9755 80.1875 31.4721 79.8678 31.68 79.3092C31.7762 79.0515 31.8786 78.797 31.981 78.5425C32.0431 78.3905 31.9127 78.6946 31.981 78.5487C32.0058 78.496 32.0275 78.4432 32.0524 78.3874C32.0958 78.2849 32.1424 78.1825 32.192 78.0801C32.3782 77.6766 32.5737 77.2762 32.7723 76.8758C33.2254 75.9603 33.6506 75.0322 34.0044 74.0763C34.1999 73.5518 33.7871 72.8876 33.2596 72.7665C32.6544 72.63 32.1579 72.9497 31.95 73.5083L31.9469 73.5114Z" fill="#231F20"/>
<path d="M39.0091 161.834C33.2214 160.328 27.1854 159.841 21.2178 159.897C15.3246 159.956 9.32277 160.481 3.55371 161.725C2.47065 161.958 1.34415 162.361 0.695554 163.32C-0.117514 164.528 0.0252381 166.126 0.00972152 167.514C-0.0275183 171.049 0.043858 174.587 0.19592 178.119C0.496942 185.046 1.10519 191.958 1.76309 198.861C2.51099 206.729 3.31165 214.591 3.80197 222.48C3.88576 223.84 6.01774 223.852 5.93085 222.48C5.11157 209.345 3.41716 196.285 2.59168 183.153C2.38996 179.947 2.24411 176.738 2.17273 173.525C2.13549 171.831 2.11998 170.136 2.12929 168.442C2.13549 167.284 1.70723 164.844 2.91132 164.146C3.90128 163.572 5.35984 163.532 6.47082 163.339C7.89524 163.094 9.32587 162.883 10.7596 162.709C13.6209 162.365 16.4976 162.147 19.3806 162.06C25.7672 161.871 32.2376 162.271 38.4381 163.882C39.7663 164.227 40.3311 162.175 39.0029 161.828L39.0091 161.834Z" fill="#231F20"/>
<path d="M37.7003 163.144C41.3281 178.079 45.8558 192.775 49.887 207.604C51.0352 211.825 52.14 216.059 53.1703 220.308C53.4931 221.639 55.5475 221.074 55.2247 219.74C51.5969 204.805 47.0692 190.109 43.038 175.279C41.8898 171.058 40.7881 166.825 39.7547 162.576C39.4319 161.244 37.3775 161.809 37.7003 163.144V163.144Z" fill="#231F20"/>
<path d="M46.9604 194.1C39.4442 191.85 31.5432 191.846 23.7911 192.492C20.0981 192.802 16.3835 193.156 12.7154 193.699C9.40723 194.19 6.20771 195.112 3.60403 197.297C2.55201 198.178 4.06643 199.68 5.10914 198.802C7.62282 196.691 10.9651 196.04 14.1336 195.636C17.6341 195.189 21.1564 194.823 24.6755 194.553C31.959 193.991 39.3418 194.044 46.3956 196.154C47.7114 196.549 48.2731 194.494 46.9604 194.1Z" fill="#231F20"/>
<path d="M34.2387 77.7325V8.37703C34.2387 5.02191 37.2148 2.31858 40.5509 2.23168C41.9194 2.19443 41.9225 0.0652892 40.5509 0.102534C36.4172 0.211164 32.2122 3.54145 32.1067 7.8556C32.0819 8.81775 32.1067 9.7799 32.1067 10.7421V77.7325C32.1067 79.1013 34.2356 79.1044 34.2356 77.7325H34.2387Z" fill="#231F20"/>
</g>
<defs>
<clipPath id="clip0_1_532">
<rect width="288" height="217" fill="white"/>
</clipPath>
</defs>
</svg>
