<svg width="128" height="48" viewBox="0 0 128 48" fill="none" xmlns="http://www.w3.org/2000/svg">
<path fill-rule="evenodd" clip-rule="evenodd" d="M7.26165 33.4385H8.7475C11.8253 33.4385 16.0092 29.7752 16.0092 13.3285C15.9924 7.3317 15.4338 3.057 14.5792 0H1.41323C0.558589 3.057 0 7.3317 0 13.3285C0 29.7752 4.17266 33.4385 7.26165 33.4385ZM8.73635 35.8586H7.26167C4.76478 35.8586 1.54172 38.2787 0.418961 47.9847H15.5846C14.4675 38.2787 11.2388 35.8586 8.73635 35.8586ZM27.0469 12.228H25.5555C23.0474 12.228 19.8187 9.79258 18.7016 0H33.9008C32.7892 9.79258 29.5494 12.228 27.0469 12.228ZM27.0357 14.6481H25.5554C22.4832 14.6481 18.2938 18.3165 18.2938 34.753C18.2938 40.6836 18.8524 44.943 19.6847 48H32.9121C33.7499 44.943 34.2974 40.6989 34.2974 34.753C34.2974 18.3165 30.1191 14.6481 27.0357 14.6481ZM45.3518 33.4385H43.866C40.7826 33.4385 36.6043 29.7752 36.6043 13.3285C36.6043 7.3317 37.1685 3.057 38.0232 0H51.2003C52.0549 3.04171 52.6135 7.3317 52.6135 13.3285C52.6135 29.7752 48.4241 33.4385 45.3518 33.4385ZM45.3518 35.8586H43.8604C41.3635 35.8586 38.146 38.2787 37.0177 47.9847H52.1945C51.0773 38.2787 47.8431 35.8586 45.3518 35.8586ZM80.6812 12.1056L80.5072 17.4086H77.9435V14.2213H76.854H68V1H70.7377V12.0965H76.1032V1H78.8591V12.1056H80.6812ZM91.3115 12.0965V14.2213H85.1128H84.2155H82.3659V1H84.2155H85.1128H91.3023V3.13394H85.1128V6.38479H90.3867V8.45516H85.1128V12.0965H91.3115ZM101.026 8.50965H95.6606V14.2213H92.9138V1H95.6606V6.38479H101.026V1H103.764V14.2213H101.026V8.50965ZM111.839 3.13394V14.2213H109.102V3.13394H105.064V1H109.102H111.839H115.941V3.13394H111.839ZM120.254 9.50851H122.699C123.742 9.50851 124.637 9.33901 125.381 9C126.132 8.66099 126.706 8.17972 127.103 7.55619C127.499 6.93265 127.698 6.1941 127.698 5.34052C127.698 4.49905 127.499 3.75142 127.103 3.09762C126.706 2.44381 126.132 1.93227 125.381 1.563C124.637 1.18767 123.742 1 122.699 1H117.507V14.2213H120.254V9.50851ZM120.254 7.38365V3.13394H122.699C123.224 3.13394 123.651 3.23685 123.98 3.44268C124.31 3.64851 124.551 3.92092 124.704 4.25993C124.856 4.59894 124.933 4.96519 124.933 5.35868C124.933 5.74612 124.856 6.09421 124.704 6.40295C124.551 6.71169 124.31 6.95384 123.98 7.1294C123.651 7.2989 123.224 7.38365 122.699 7.38365H120.254ZM70.8933 19.597V24.9364H72.1752L75.4165 19.597H78.7493L74.649 25.828L79.1796 32.8184H75.92L72.4713 27.361H70.8933V32.8184H68.1465V19.597H70.8933ZM83.0069 28.1056H85.4516C86.4953 28.1056 87.3896 27.9361 88.1343 27.597C88.8851 27.258 89.4589 26.7768 89.8556 26.1532C90.2524 25.5297 90.4508 24.7911 90.4508 23.9376C90.4508 23.0961 90.2524 22.3485 89.8556 21.6947C89.4589 21.0409 88.8851 20.5293 88.1343 20.16C87.3896 19.7847 86.4953 19.597 85.4516 19.597H80.26V32.8184H83.0069V28.1056ZM83.0069 25.9807V21.731H85.4516C85.9765 21.731 86.4038 21.8339 86.7334 22.0397C87.063 22.2456 87.3041 22.518 87.4567 22.857C87.6093 23.196 87.6856 23.5622 87.6856 23.9557C87.6856 24.3432 87.6093 24.6913 87.4567 25C87.3041 25.3087 87.063 25.5509 86.7334 25.7264C86.4038 25.896 85.9765 25.9807 85.4516 25.9807H83.0069ZM103.297 25.899V26.5255C103.297 27.5305 103.159 28.4325 102.885 29.2316C102.61 30.0306 102.222 30.7117 101.722 31.2747C101.221 31.8316 100.623 32.2584 99.9274 32.555C99.2376 32.8517 98.4715 33 97.6292 33C96.7929 33 96.0269 32.8517 95.331 32.555C94.6412 32.2584 94.043 31.8316 93.5364 31.2747C93.0298 30.7117 92.636 30.0306 92.3553 29.2316C92.0806 28.4325 91.9432 27.5305 91.9432 26.5255V25.899C91.9432 24.888 92.0806 23.986 92.3553 23.193C92.6299 22.3939 93.0175 21.7128 93.5181 21.1498C94.0247 20.5868 94.6229 20.157 95.3127 19.8604C96.0085 19.5638 96.7746 19.4154 97.6109 19.4154C98.4532 19.4154 99.2193 19.5638 99.909 19.8604C100.605 20.157 101.203 20.5868 101.704 21.1498C102.21 21.7128 102.601 22.3939 102.876 23.193C103.156 23.986 103.297 24.888 103.297 25.899ZM100.523 26.5255V25.8808C100.523 25.1786 100.458 24.5611 100.33 24.0284C100.202 23.4956 100.013 23.0477 99.7626 22.6844C99.5123 22.3212 99.2071 22.0488 98.8469 21.8672C98.4868 21.6795 98.0748 21.5857 97.6109 21.5857C97.147 21.5857 96.7349 21.6795 96.3748 21.8672C96.0208 22.0488 95.7186 22.3212 95.4683 22.6844C95.2242 23.0477 95.038 23.4956 94.9098 24.0284C94.7816 24.5611 94.7175 25.1786 94.7175 25.8808V26.5255C94.7175 27.2217 94.7816 27.8392 94.9098 28.378C95.038 28.9107 95.2272 29.3617 95.4775 29.731C95.7278 30.0942 96.033 30.3697 96.3931 30.5573C96.7532 30.745 97.1653 30.8388 97.6292 30.8388C98.0931 30.8388 98.5051 30.745 98.8652 30.5573C99.2254 30.3697 99.5275 30.0942 99.7717 29.731C100.016 29.3617 100.202 28.9107 100.33 28.378C100.458 27.8392 100.523 27.2217 100.523 26.5255ZM108.021 27.0159V30.6935H110.374C110.857 30.6935 111.25 30.6179 111.556 30.4665C111.861 30.3091 112.087 30.0972 112.233 29.8309C112.38 29.5645 112.453 29.2588 112.453 28.9137C112.453 28.5263 112.386 28.1903 112.251 27.9058C112.123 27.6213 111.916 27.4033 111.629 27.252C111.342 27.0946 110.964 27.0159 110.494 27.0159H108.021ZM112.995 26.0024C113.121 25.9526 113.239 25.8969 113.35 25.8354C113.881 25.5448 114.269 25.1695 114.513 24.7094C114.763 24.2493 114.888 23.7469 114.888 23.202C114.888 22.5846 114.776 22.0518 114.55 21.6039C114.324 21.1498 113.997 20.7745 113.57 20.4779C113.143 20.1812 112.621 19.9603 112.004 19.815C111.394 19.6697 110.701 19.597 109.926 19.597H105.275V32.8184H106.318H108.021H110.374C111.406 32.8184 112.279 32.6731 112.993 32.3825C113.713 32.0919 114.26 31.6591 114.632 31.084C115.004 30.5028 115.191 29.7885 115.191 28.941C115.191 28.4082 115.075 27.9088 114.843 27.4427C114.617 26.9765 114.254 26.5982 113.753 26.3076C113.532 26.175 113.28 26.0733 112.995 26.0024ZM109.926 25.1453C110.432 25.1453 110.848 25.0817 111.171 24.9546C111.495 24.8214 111.736 24.6307 111.894 24.3825C112.059 24.1283 112.142 23.8195 112.142 23.4563C112.142 23.0446 112.062 22.7117 111.904 22.4574C111.751 22.2032 111.51 22.0185 111.18 21.9035C110.857 21.7885 110.439 21.731 109.926 21.731H108.021V25.1453H109.926ZM119.897 28.5323L125.253 19.597H128V32.8184H125.253V23.8831L119.897 32.8184H117.15V19.597H119.897V28.5323ZM70.5522 41.7805H70.4327C70.0863 41.7805 69.7661 41.835 69.472 41.9442C69.1778 42.0533 68.9195 42.2081 68.6968 42.4086C68.4769 42.6066 68.3051 42.8426 68.1814 43.1168C68.0605 43.3883 68 43.6891 68 44.019C68 44.349 68.0605 44.651 68.1814 44.9251C68.3051 45.1967 68.4769 45.4315 68.6968 45.6294C68.9195 45.8274 69.1778 45.981 69.472 46.0901C69.7661 46.1967 70.0863 46.25 70.4327 46.25H70.5522V47H71.315V46.25H71.4263C71.7727 46.25 72.0929 46.1967 72.387 46.0901C72.6839 45.981 72.9423 45.8274 73.1622 45.6294C73.3848 45.4289 73.558 45.1916 73.6817 44.9175C73.8054 44.6434 73.8672 44.3414 73.8672 44.0114C73.8672 43.6815 73.8054 43.3807 73.6817 43.1091C73.558 42.835 73.3848 42.599 73.1622 42.401C72.9423 42.203 72.6839 42.0508 72.387 41.9442C72.0929 41.835 71.7727 41.7805 71.4263 41.7805H71.315V41H70.5522V41.7805ZM70.5522 42.3591H70.4327C70.0726 42.3591 69.7675 42.4289 69.5173 42.5685C69.2672 42.7056 69.0775 42.8985 68.9483 43.1472C68.8191 43.3959 68.7545 43.6865 68.7545 44.019C68.7545 44.2703 68.7903 44.4975 68.8617 44.7005C68.936 44.9036 69.0445 45.0774 69.1875 45.2221C69.3304 45.3668 69.5063 45.4784 69.7152 45.5571C69.9241 45.6358 70.1633 45.6751 70.4327 45.6751H70.5522V42.3591ZM71.315 45.6751H71.4346C71.7919 45.6751 72.0943 45.6066 72.3417 45.4695C72.5918 45.3299 72.7815 45.1358 72.9107 44.8871C73.0426 44.6358 73.1086 44.3439 73.1086 44.0114C73.1086 43.7627 73.0715 43.5368 72.9973 43.3338C72.923 43.1307 72.8145 42.9569 72.6715 42.8122C72.5313 42.6675 72.3568 42.5558 72.1479 42.4772C71.9417 42.3985 71.704 42.3591 71.4346 42.3591H71.315V45.6751ZM78.5346 41.8299V41.2284H75.6443H74.8485V46.7716H75.6402H77.0915C77.4214 46.7716 77.7128 46.7322 77.9656 46.6536C78.2185 46.5723 78.4316 46.4581 78.6047 46.3109C78.7779 46.1612 78.9085 45.986 78.9964 45.7855C79.0844 45.5825 79.1284 45.3591 79.1284 45.1155C79.1284 44.7881 79.05 44.5025 78.8933 44.2589C78.7367 44.0152 78.5071 43.8261 78.2048 43.6916C77.9024 43.5546 77.5313 43.486 77.0915 43.486H75.6443V41.8299H78.5346ZM75.6443 44.0876V46.1739H77.0915C77.3857 46.1739 77.6234 46.1244 77.8048 46.0254C77.989 45.9239 78.1237 45.7919 78.2089 45.6294C78.2941 45.467 78.3367 45.2931 78.3367 45.1079C78.3367 44.9226 78.2941 44.7525 78.2089 44.5977C78.1237 44.4429 77.989 44.3198 77.8048 44.2284C77.6234 44.1345 77.3857 44.0876 77.0915 44.0876H75.6443ZM80.8807 41.2284H81.2229L83.1897 45.7475L85.1523 41.2284H85.4945H85.9274H86.1748V46.7716H85.3832V44.6091L85.4595 42.291L83.4865 46.7716H82.8846L80.9155 42.2848L80.992 44.6091V46.7716H80.2004V41.2284H80.4519H80.8807ZM89.8815 41.2284H90.0547L92.3513 46.7716H91.5349L90.9631 45.3211H88.4524L87.8818 46.7716H87.0695L89.3579 41.2284H89.5311H89.8815ZM88.689 44.7195H90.726L89.7065 42.1331L88.689 44.7195ZM97.464 44.5977H96.0456V46.7716H95.2499V41.2284H97.464C97.9175 41.2284 98.301 41.3008 98.6143 41.4454C98.9277 41.5901 99.1655 41.7906 99.3277 42.047C99.4898 42.3008 99.5709 42.5914 99.5709 42.9188C99.5709 43.2741 99.4898 43.5774 99.3277 43.8287C99.1655 44.0799 98.9277 44.2716 98.6143 44.4036C98.301 44.533 97.9175 44.5977 97.464 44.5977ZM96.0456 41.8299V44H97.464C97.7746 44 98.0261 43.9543 98.2185 43.8629C98.4109 43.7716 98.5511 43.6447 98.6391 43.4822C98.7298 43.3198 98.7752 43.1345 98.7752 42.9264C98.7752 42.736 98.7298 42.5571 98.6391 42.3896C98.5511 42.2221 98.4109 42.0876 98.2185 41.986C98.0261 41.882 97.7746 41.8299 97.464 41.8299H96.0456ZM105.03 45.2944C105.143 44.9645 105.199 44.5914 105.199 44.1751V43.8249C105.199 43.4086 105.141 43.0368 105.026 42.7094C104.913 42.3794 104.75 42.099 104.535 41.868C104.324 41.6345 104.069 41.4569 103.772 41.335C103.478 41.2132 103.148 41.1523 102.783 41.1523C102.428 41.1523 102.103 41.2132 101.806 41.335C101.512 41.4569 101.257 41.6345 101.043 41.868C100.828 42.099 100.662 42.3794 100.544 42.7094C100.429 43.0368 100.371 43.4086 100.371 43.8249V44.1751C100.371 44.5914 100.43 44.9645 100.548 45.2944C100.666 45.6244 100.833 45.9048 101.047 46.1358C101.264 46.3668 101.52 46.5431 101.814 46.665C102.111 46.7868 102.437 46.8477 102.791 46.8477C103.157 46.8477 103.487 46.7868 103.781 46.665C104.078 46.5431 104.332 46.3668 104.543 46.1358C104.755 45.9048 104.917 45.6244 105.03 45.2944ZM104.411 43.8173V44.1751C104.411 44.5076 104.376 44.802 104.304 45.0584C104.233 45.3122 104.127 45.5266 103.987 45.7018C103.849 45.8744 103.68 46.0051 103.48 46.0939C103.279 46.1827 103.049 46.2272 102.791 46.2272C102.544 46.2272 102.32 46.1827 102.119 46.0939C101.921 46.0051 101.749 45.8744 101.604 45.7018C101.461 45.5266 101.351 45.3122 101.274 45.0584C101.197 44.802 101.158 44.5076 101.158 44.1751V43.8173C101.158 43.4873 101.197 43.1954 101.274 42.9416C101.351 42.6878 101.459 42.4746 101.6 42.302C101.742 42.1294 101.913 41.9987 102.111 41.9099C102.311 41.8211 102.535 41.7766 102.783 41.7766C103.038 41.7766 103.267 41.8211 103.467 41.9099C103.671 41.9987 103.842 42.1294 103.983 42.302C104.123 42.4746 104.229 42.6878 104.3 42.9416C104.374 43.1954 104.411 43.4873 104.411 43.8173ZM110.015 45.0089H110.806C110.765 45.3591 110.657 45.6726 110.481 45.9492C110.305 46.2259 110.056 46.4454 109.734 46.6079C109.413 46.7678 109.012 46.8477 108.531 46.8477C108.179 46.8477 107.858 46.7868 107.57 46.665C107.284 46.5431 107.038 46.3706 106.832 46.1472C106.626 45.9213 106.466 45.651 106.353 45.3363C106.244 45.019 106.189 44.6662 106.189 44.2779V43.7259C106.189 43.3376 106.244 42.986 106.353 42.6713C106.466 42.3541 106.627 42.0825 106.836 41.8566C107.048 41.6307 107.302 41.4569 107.599 41.335C107.896 41.2132 108.23 41.1523 108.601 41.1523C109.054 41.1523 109.438 41.231 109.751 41.3883C110.064 41.5457 110.308 41.764 110.481 42.0431C110.657 42.3198 110.765 42.6409 110.806 43.0063H110.015C109.976 42.7475 109.905 42.5254 109.8 42.3401C109.696 42.1523 109.548 42.0076 109.355 41.9061C109.163 41.8046 108.911 41.7538 108.601 41.7538C108.334 41.7538 108.099 41.8008 107.896 41.8947C107.695 41.9886 107.526 42.1218 107.388 42.2944C107.254 42.467 107.152 42.6739 107.083 42.915C107.015 43.1561 106.98 43.4239 106.98 43.7183V44.2779C106.98 44.5495 107.01 44.8046 107.071 45.0431C107.134 45.2817 107.229 45.4911 107.355 45.6713C107.482 45.8515 107.643 45.9937 107.838 46.0977C108.033 46.1992 108.264 46.25 108.531 46.25C108.869 46.25 109.138 46.2005 109.339 46.1015C109.539 46.0025 109.69 45.8604 109.792 45.6751C109.897 45.4898 109.971 45.2678 110.015 45.0089ZM116.307 45.0089H115.515C115.471 45.2678 115.397 45.4898 115.292 45.6751C115.191 45.8604 115.04 46.0025 114.839 46.1015C114.638 46.2005 114.369 46.25 114.031 46.25C113.764 46.25 113.533 46.1992 113.338 46.0977C113.143 45.9937 112.982 45.8515 112.856 45.6713C112.729 45.4911 112.634 45.2817 112.571 45.0431C112.511 44.8046 112.48 44.5495 112.48 44.2779V43.7183C112.48 43.4239 112.515 43.1561 112.584 42.915C112.652 42.6739 112.754 42.467 112.889 42.2944C113.026 42.1218 113.195 41.9886 113.396 41.8947C113.599 41.8008 113.834 41.7538 114.101 41.7538C114.411 41.7538 114.663 41.8046 114.855 41.9061C115.048 42.0076 115.196 42.1523 115.301 42.3401C115.405 42.5254 115.477 42.7475 115.515 43.0063H116.307C116.266 42.6409 116.157 42.3198 115.981 42.0431C115.808 41.764 115.565 41.5457 115.251 41.3883C114.938 41.231 114.554 41.1523 114.101 41.1523C113.73 41.1523 113.396 41.2132 113.099 41.335C112.802 41.4569 112.548 41.6307 112.336 41.8566C112.127 42.0825 111.966 42.3541 111.854 42.6713C111.744 42.986 111.689 43.3376 111.689 43.7259V44.2779C111.689 44.6662 111.744 45.019 111.854 45.3363C111.966 45.651 112.126 45.9213 112.332 46.1472C112.538 46.3706 112.784 46.5431 113.07 46.665C113.359 46.7868 113.679 46.8477 114.031 46.8477C114.512 46.8477 114.913 46.7678 115.235 46.6079C115.556 46.4454 115.805 46.2259 115.981 45.9492C116.157 45.6726 116.266 45.3591 116.307 45.0089ZM118.22 45.5L121.176 41.2284H121.972V46.7716H121.176V42.4962L118.22 46.7716H117.428V41.2284H118.22V45.5ZM127.204 41.2284L124.248 45.5V41.2284H123.456V46.7716H124.248L127.204 42.4962V46.7716H128V41.2284H127.204Z" fill="#F0593E"/>
</svg>
