<svg width="24" height="24" viewBox="0 0 24 24" fill="none" xmlns="http://www.w3.org/2000/svg">
<path fill-rule="evenodd" clip-rule="evenodd" d="M12 24C18.6274 24 24 18.6274 24 12C24 5.37258 18.6274 0 12 0C5.37258 0 0 5.37258 0 12C0 18.6274 5.37258 24 12 24ZM12.9837 9.87053C14.7541 8.33438 16.9402 9.54644 16.9983 11.6484H17.0026C17.0459 13.1644 16.4289 14.5793 16.0906 15.3552C16.0753 15.3904 16.0605 15.4244 16.0463 15.4569C15.9753 15.618 15.1698 17.364 14.7778 18.0122C14.7766 18.014 14.7752 18.0163 14.7736 18.019C14.7307 18.0899 14.5292 18.4224 14.1596 18.4224C14.086 18.4222 14.0132 18.4091 13.9456 18.384C13.8779 18.3588 13.8167 18.3221 13.7657 18.2759C13.7146 18.2298 13.6748 18.1752 13.6485 18.1154C13.6222 18.0556 13.61 17.9918 13.6126 17.9279C13.6131 17.8519 13.6306 17.7769 13.6643 17.7068C14.9975 15.1647 15.7125 13.6173 15.7814 12.3434C15.8719 10.5955 14.3966 9.96233 13.6277 10.6105C14.0218 11.0826 14.4676 11.7308 14.4676 12.394C14.4676 13.3269 13.7526 14.0612 12.8738 14.0612C11.9951 14.0612 11.392 13.3456 11.392 12.3752C11.4354 11.7974 11.6736 11.2435 12.0769 10.7829C11.7539 10.5524 10.9462 10.1291 10.2075 10.4082C7.29135 11.5162 10.6578 16.8197 11.3803 17.9579C11.4139 18.0109 11.4418 18.0549 11.4631 18.089C11.4777 18.1122 11.4967 18.1412 11.519 18.1751C11.7701 18.558 12.432 19.5673 11.7237 19.908C10.9527 20.2789 10.3733 19.4378 9.93177 18.7634C9.88208 18.6875 9.81959 18.5952 9.7468 18.4877C9.09701 17.5279 7.62659 15.3559 7.12108 12.8492C6.80448 11.2756 7.07801 9.87053 8.30782 8.96008C9.47732 8.12269 11.5428 8.31939 12.9837 9.87053ZM12.2751 12.4895C12.2751 12.9841 12.5314 13.2257 12.8868 13.2257C13.2464 13.2257 13.52 12.9841 13.52 12.4895C13.52 11.9949 12.8631 11.3261 12.8631 11.3261C12.8631 11.3261 12.2751 11.9949 12.2751 12.4895ZM15.3291 7.74052C15.4002 8.35124 15.0276 8.88515 14.4956 8.93386C13.9615 8.98069 13.4704 8.52546 13.3972 7.91475C13.324 7.30403 13.7009 6.76825 14.2329 6.72142C14.7649 6.67458 15.2581 7.12981 15.3291 7.74052ZM11.4114 6.67084C11.2068 7.45765 10.5284 7.99155 9.88223 7.86604C9.24256 7.73865 8.89149 6.9968 9.0961 6.21186C9.30071 5.42692 9.98992 4.89302 10.6274 5.01853C11.265 5.14405 11.616 5.88402 11.4114 6.67084Z" fill="#56A5C4"/>
</svg>
