<svg width="220" height="180" viewBox="0 0 220 180" fill="none" xmlns="http://www.w3.org/2000/svg">
<g clip-path="url(#clip0_1_9980)">
<path d="M164.494 103.655C163.206 105.529 161.482 108.391 160.925 109.923L160.87 109.932C160.667 108.681 160.792 107.114 161.456 105.838L161.46 105.834C161.999 104.799 162.894 103.955 164.252 103.635L164.494 103.657V103.655Z" fill="#231F20"/>
<path d="M219.253 112.511C219.18 111.753 218.623 111.113 217.968 110.732C217.309 110.351 216.554 110.191 215.809 110.035C215.3 109.931 214.791 109.822 214.287 109.718L214.166 109.48C214.653 109.234 215.14 108.991 215.627 108.744C216.037 108.537 216.485 108.29 216.635 107.853C216.795 107.39 216.536 106.858 216.14 106.572C215.743 106.282 215.239 106.191 214.753 106.143C213.231 105.995 211.675 106.229 210.262 106.817L209.913 106.717C210.223 106.349 210.508 105.959 210.75 105.544C210.835 105.397 210.922 105.224 210.879 105.06C210.831 104.877 210.651 104.77 210.482 104.691C209.133 104.073 207.535 104.332 206.182 104.929C205.316 105.314 204.523 105.825 203.73 106.345C202.575 105.661 200.666 103.964 199.417 103.488V103.484C199.878 103.658 200.396 103.805 201.024 103.896C203.433 104.228 205.95 103.722 208.045 102.48C208.812 102.026 209.609 101.146 209.195 100.354C208.915 99.8139 208.225 99.671 207.622 99.5748C203.622 98.9511 201.243 97.7782 197.498 96.246C196.288 95.7525 195.093 95.211 193.84 94.8428C190.422 93.8382 186.768 94.1684 183.243 94.653C180.217 95.0693 177.21 95.583 174.223 96.2067C172.383 96.5876 170.492 97.0329 168.965 98.1413C167.672 99.0763 166.736 100.414 165.832 101.73C165.517 102.184 165.125 102.742 164.698 103.362C164.634 103.457 164.565 103.551 164.495 103.651C163.207 105.525 161.483 108.387 160.927 109.919L160.871 109.928C160.91 110.171 160.962 110.4 161.026 110.617C162.012 113.988 164.736 116.794 168.068 117.872C171.399 118.95 174.377 117.75 177.143 115.594L177.346 115.256C178.946 116.239 180.582 117.16 182.25 118.018C182.702 118.247 183.172 118.478 183.676 118.508C184.297 118.542 184.887 118.266 185.447 117.993C187.258 117.097 189.038 116.141 190.779 115.115C191.028 114.968 191.283 114.816 191.533 114.66L191.969 114.687C194.693 115.388 196.558 115.163 198.903 114.444L198.929 114.53C201.364 114.816 201.696 114.936 204.058 114.288C205.113 113.999 206.105 113.527 207.087 113.037L207.152 113.223C210.436 113.4 214.995 113.422 218.279 113.595C218.421 113.604 218.567 113.613 218.706 113.568C219.121 113.447 219.297 112.941 219.254 112.508L219.253 112.511Z" fill="#FDE7DC"/>
<path d="M53.9201 89.9944C53.6745 88.9127 53.2613 87.1894 52.9375 86.0165L53.0799 85.9773C53.8861 86.0861 54.5928 86.4189 54.9153 86.8351C54.9455 86.8743 54.9707 86.9123 54.9972 86.9515V86.9553C55.1219 87.1767 55.2 87.4146 55.2302 87.6525C55.3121 88.237 55.1395 88.838 54.8473 89.2062C54.6659 89.4314 54.3472 89.7174 53.9466 90.0286L53.9201 89.9944V89.9944Z" fill="#231F20"/>
<path d="M54.9136 86.835C54.5898 86.4187 53.8831 86.086 53.0781 85.9771L53.1852 85.9468C54.0595 86.0341 54.6075 86.3846 54.9136 86.8337V86.835Z" fill="#FDE7DC"/>
<path d="M42.2221 90.2285C42.459 91.3407 42.687 92.964 42.9855 94.0242L42.9893 94.042C41.2005 94.2672 40.3653 94.1153 40.1876 94.0242C39.9508 93.9028 39.7908 93.6953 39.7052 93.4524C39.559 93.0627 39.5968 92.573 39.8047 92.1972C40.1322 91.5874 41.5633 90.6005 42.1528 90.2412L42.2221 90.2285Z" fill="#231F20"/>
<path d="M168.066 117.874C164.736 116.796 162.012 113.991 161.024 110.619C160.959 110.403 160.907 110.174 160.869 109.931C160.667 108.679 160.791 107.113 161.455 105.836L161.459 105.833C161.998 104.798 162.894 103.954 164.252 103.634L164.494 103.655C164.563 103.555 164.632 103.46 164.697 103.365L164.447 103.192C163.055 94.5302 160.796 86.0087 157.72 77.7973C156.75 75.2137 155.682 72.6338 154.108 70.3653C149.911 64.3136 140.163 61.1454 132.836 60.5533C132.759 60.3977 132.669 60.2509 132.565 60.1117C132.113 59.5183 131.423 59.1678 130.759 58.8351C128.854 57.8786 126.953 56.9258 125.049 55.9744C124.561 57.3079 125.127 58.7655 125.432 60.1509C126.366 64.349 123.682 70.8245 120.333 73.5132L120.346 73.5524C120.075 73.6524 119.816 73.808 119.566 73.9598C116.239 75.9981 112.757 78.2148 110.999 81.7031C110.05 79.6775 109.067 77.6037 107.439 76.0804C105.689 74.4444 104.503 73.3576 102.5 72.0417C102.397 71.9721 102.294 71.8987 102.19 71.8165C101.259 71.0675 99.1305 67.9499 98.347 66.2747L89.2755 67.4666C88.754 61.3808 86.7031 63.5747 84.2592 61.4503C81.9791 57.1953 74.9673 57.1308 74.9673 57.1308C72.4718 57.4256 70.0241 58.1215 67.8863 59.5677C59.6803 65.1335 55.4274 84.2045 55.0999 86.8881L54.9966 86.9577C55.1213 87.1791 55.1994 87.417 55.2296 87.6548C55.3115 88.2394 55.1389 88.8404 54.8467 89.2085C54.6653 89.4338 54.3465 89.7197 53.9459 90.0309C52.7958 90.9356 51.0032 92.03 50.2183 92.2856C46.9216 93.3636 44.5772 93.8533 42.9912 94.043C41.2023 94.2683 40.3671 94.1164 40.1895 94.0253C39.9527 93.9039 39.7927 93.6964 39.707 93.4534L39.668 93.4711C41.0549 109.953 42.5805 123.134 46.0637 138.543C47.5162 144.967 52.9029 153.714 59.3377 153.714C61.0396 153.714 64.9574 154.043 67.7288 149.953C71.2838 144.698 71.3405 143.612 72.4516 137.357H72.4693C72.861 149.187 73.0336 162.99 70.5771 178.499C70.5771 178.499 85.238 179.166 110.811 179.854C136.379 180.547 150.713 178.582 150.713 178.582C149.2 168.743 149.252 160.208 149.588 151.576L149.898 151.589C152.312 152.987 153.914 152.84 155.664 152.177C158.509 151.099 160.745 148.818 162.512 146.334C165.076 142.725 174.261 124.796 177.143 115.599C174.376 117.755 171.398 118.953 168.068 117.876L168.066 117.874Z" fill="white"/>
<path d="M127.208 98.7443H127.542C128.234 98.7443 129.176 97.8887 129.176 94.0474C129.172 92.6467 129.046 91.6483 128.854 90.9343H125.892C125.7 91.6483 125.574 92.6467 125.574 94.0474C125.574 97.8887 126.513 98.7443 127.208 98.7443Z" fill="#EF4444"/>
<path d="M127.54 99.3096H127.208C126.646 99.3096 125.921 99.8749 125.668 102.142H129.08C128.829 99.8749 128.102 99.3096 127.54 99.3096Z" fill="#EF4444"/>
<path d="M131.323 93.7903H131.659C132.222 93.7903 132.95 93.2215 133.2 90.9343H129.781C130.033 93.2215 130.759 93.7903 131.323 93.7903Z" fill="#EF4444"/>
<path d="M131.659 94.3556H131.323C130.632 94.3556 129.69 95.2124 129.69 99.0514C129.69 100.437 129.815 101.431 130.002 102.145H132.978C133.166 101.431 133.29 100.44 133.29 99.0514C133.29 95.2124 132.35 94.3556 131.656 94.3556" fill="#EF4444"/>
<path d="M135.441 98.7443H135.776C136.468 98.7443 137.41 97.8887 137.41 94.0474C137.41 92.6467 137.284 91.6448 137.092 90.9343H134.128C133.936 91.6483 133.809 92.6467 133.809 94.0474C133.809 97.8887 134.749 98.7443 135.442 98.7443" fill="#EF4444"/>
<path d="M135.776 99.3096H135.441C134.879 99.3096 134.155 99.8749 133.902 102.142H137.316C137.064 99.8749 136.337 99.3096 135.776 99.3096Z" fill="#EF4444"/>
<path d="M53.9196 89.9942C53.6739 88.9125 53.2607 87.1892 52.937 86.0163C52.9332 85.9948 52.9244 85.9771 52.9193 85.9556C52.2302 83.4491 51.424 80.8478 50.7173 78.5969C48.9335 72.8957 47.1623 71.1168 43.9424 69.6365C40.3911 68.0562 37.2027 67.6538 33.4222 66.7884C30.9481 66.2165 28.4362 65.5244 26.2165 64.2566C24.8761 63.495 21.5491 61.2833 21.1825 63.3254C20.9633 64.5325 21.7078 66.9263 24.4793 68.0701V68.1131C22.596 68.1435 20.9457 67.8702 17.9639 66.109L17.6842 66.2519C16.8692 64.8627 15.9168 63.2875 15.3222 62.2095C14.8007 61.2618 14.2577 60.2876 13.4086 59.617C12.775 59.1147 11.7886 59.0755 10.9395 59.3222L10.84 58.9983C10.5339 57.7824 10.2064 56.5273 9.45177 55.5264C8.70222 54.5269 6.55184 54.2144 5.345 54.5484C5.6549 55.4796 5.96606 56.4147 6.27595 57.3446L6.2369 57.3573C5.37901 55.8339 2.9792 56.0452 1.79755 56.8638C2.99179 58.868 4.22383 60.8455 5.45208 62.8244L5.30091 62.9193C3.38357 61.8982 2.34051 62.2525 1.43097 62.5688C1.23319 62.6333 1.03037 62.7206 0.92707 62.8978C0.711653 63.2659 1.05178 63.7025 1.36672 63.9884C4.99605 67.2907 7.68057 69.1645 11.3049 72.4681L11.4258 72.4073C11.4648 72.463 11.5039 72.5111 11.5467 72.563C11.9045 72.978 12.421 73.2297 12.9173 73.4676C14.0461 74.0041 15.1748 74.5418 16.2998 75.0783L16.5366 75.0264C16.6273 75.1567 16.7306 75.282 16.8427 75.3984C17.4423 76.0133 18.304 76.2727 19.1228 76.5194C25.7252 78.5147 32.1335 81.1679 38.2181 84.4322C39.11 84.908 40.0195 85.4191 40.6708 86.1985C41.5073 87.1981 41.8991 88.6695 42.2228 90.2283C42.4596 91.3405 42.6877 92.9638 42.9862 94.024L42.99 94.0418C44.576 93.852 46.9204 93.3623 50.2172 92.2843C51.002 92.0288 52.7946 90.9343 53.9448 90.0297L53.9183 89.9955L53.9196 89.9942Z" fill="#FDE7DC"/>
<path fill-rule="evenodd" clip-rule="evenodd" d="M104.434 2.53825C107.717 2.69134 109.301 1.42863 112.919 2.35732C116.522 3.17087 119.262 3.62889 125.359 9.26429C126.411 10.1791 128.58 13.4054 129.872 16.1624C131.893 20.9298 133.072 26.3932 135.551 31.1011C139.263 38.1043 142.209 41.9304 142.96 44.9923C143.149 45.5528 142.794 50.8668 143.031 54.4651C143.187 56.5515 144.856 57.7371 144.856 57.7371C144.856 57.7371 142.721 60.1258 139.914 58.271C139.914 58.271 138.197 61.1899 135.89 61.3759C133.698 61.548 135.019 61.8415 134.88 62.5627C134.716 63.9886 130.53 61.3797 130.53 61.3797L127.348 63.7887L100.153 67.9552C100.153 67.9552 98.8222 68.4815 97.1732 68.3474C96.2272 68.2386 95.1047 67.6832 94.2733 67.5592C93.1975 67.3504 89.9788 68.5929 88.5541 67.4934C86.8836 66.3078 86.5347 65.4184 86.5347 65.4184C86.5347 65.4184 84.3137 68.0526 82.2515 68.3234C80.1893 68.5954 82.9822 65.8865 81.2563 62.4843C80.343 60.8483 78.5441 59.5641 76.8586 58.2634C74.9299 56.878 73.1297 55.5937 72.4608 54.0425C70.0761 48.2692 72.069 48.3578 73.7974 40.1704C74.8001 35.3562 74.5772 22.0407 76.4428 17.5807C77.1496 15.8486 79.2382 10.4233 82.729 6.80339C85.4916 3.86422 90.4777 0.983262 94.747 0.655564C99.1309 0.312683 102.67 2.42185 104.433 2.54078L104.434 2.53825Z" fill="#231F20"/>
<path fill-rule="evenodd" clip-rule="evenodd" d="M99.915 65.4967C99.915 65.4967 97.6097 66.2609 94.4993 63.8607C88.7171 58.9528 87.8214 56.54 85.5564 52.5507C83.4816 48.8967 82.8442 42.4895 82.6338 40.8788C81.6285 35.8609 84.5222 33.0217 84.5952 30.9049C84.5889 29.9686 85.9608 24.4041 86.4382 22.7023C86.801 21.0157 89.6052 20.1782 92.8138 19.7556C96.3663 19.2874 100.442 20.1554 102.157 21.6863C104.131 23.4159 110.256 33.7315 110.256 33.7315C110.256 33.7315 115.302 38.4521 116.667 39.091C118.766 39.9856 118.69 39.4099 117.708 38.1345C116.725 36.8591 119.733 34.0047 119.733 34.0047C119.733 34.0047 120.75 33.7542 122.224 33.443C125.303 32.9204 126.39 35.0018 126.654 36.1367C127.909 42.1757 122.161 44.5721 122.161 44.5721C122.161 44.5721 122.095 53.1466 125.243 59.4045C127.361 65.2942 122.393 71.5926 119.787 73.7195C117.181 75.8464 113.516 77.5633 110.992 81.2452C106.634 73.7195 101.728 71.9646 101.728 71.9646L99.9163 65.5005L99.915 65.4967Z" fill="#FDE7DC"/>
<path fill-rule="evenodd" clip-rule="evenodd" d="M91.883 43.875C91.7785 43.069 92.5205 42.5034 92.8883 41.7519C93.1566 41.1307 93.0219 40.0957 93.4804 40.035C94.5121 39.8996 95.5451 42.4554 95.7404 43.9522C95.9356 45.4477 95.0941 46.1448 94.0624 46.2802C93.0307 46.4156 92.0644 45.2553 91.8843 43.875H91.883Z" fill="#FABDA6"/>
<path fill-rule="evenodd" clip-rule="evenodd" d="M82.6792 43.9155C82.6288 42.6338 83.9137 41.7633 85.5476 41.7823C87.1815 41.8013 88.4929 42.9159 88.5433 44.1976C88.5937 45.4781 87.3087 46.3498 85.6748 46.3308C84.0258 46.1967 82.7144 45.082 82.6792 43.9155Z" fill="#FABDA6"/>
<path fill-rule="evenodd" clip-rule="evenodd" d="M108.888 40.231C108.608 38.9796 106.57 38.5457 104.538 39.048C102.391 39.5655 100.951 41.042 101.347 42.2781C101.626 43.5295 103.665 43.9634 105.697 43.4611C107.713 42.8437 109.153 41.3672 108.888 40.231Z" fill="#FABDA6"/>
<path fill-rule="evenodd" clip-rule="evenodd" d="M99.7383 65.6675C99.7383 65.6675 106.375 63.371 110.827 59.9751C115.279 56.5792 117.486 51.6245 117.486 51.6245C117.486 51.6245 115.015 60.3775 110.942 64.8944C106.87 69.4101 101.235 69.0988 101.235 69.0988L99.7383 65.6675Z" fill="#FDE7DC"/>
<path fill-rule="evenodd" clip-rule="evenodd" d="M135.974 41.4634C135.396 40.603 135.58 40.2273 134.238 38.8823C132.898 37.5374 132.243 36.1013 133.688 35.5598C134.46 35.2245 135.337 35.6939 136.06 36.7693C136.493 37.4146 136.973 38.4053 137.093 39.3264C137.697 42.1732 136.438 42.339 135.973 41.4634H135.974Z" fill="#231F20"/>
<path fill-rule="evenodd" clip-rule="evenodd" d="M133.634 43.1766C133.375 42.9767 133.186 42.4162 132.493 41.571C131.8 40.7258 130.792 40.1564 130.657 39.1202C130.553 38.3142 131.653 37.8183 132.416 38.3041C133.552 38.9734 134.297 41.1003 134.546 42.1201C134.767 42.9109 134.398 43.6612 133.635 43.1766H133.634Z" fill="#231F20"/>
<path fill-rule="evenodd" clip-rule="evenodd" d="M117.575 6.77796C115.476 5.88343 113.455 5.56459 113.475 6.61601C113.495 7.66616 115.189 8.14569 116.829 9.10095C118.584 10.041 119.611 11.6605 120.408 10.6192C121.105 9.70827 119.559 7.68767 117.576 6.77796H117.575Z" fill="#231F20"/>
<path fill-rule="evenodd" clip-rule="evenodd" d="M115.53 9.85642C113.935 9.24657 112.386 8.9834 112.362 9.68814C112.338 10.3941 113.558 10.818 114.924 11.4582C116.19 12.2275 117.013 13.1726 117.625 12.5071C118.122 11.8568 117.011 10.4814 115.53 9.85642V9.85642Z" fill="#231F20"/>
<path fill-rule="evenodd" clip-rule="evenodd" d="M102.864 51.4271C102.864 50.8957 100.237 51.4271 97.2441 52.1015C94.2509 52.7759 93.6664 53.3908 93.5795 53.8804C93.3754 55.0229 96.0221 56.5792 98.6487 56.0895C101.275 55.5986 102.864 52.5873 102.864 51.4271V51.4271Z" fill="#FDE7DC"/>
<path fill-rule="evenodd" clip-rule="evenodd" d="M86.0635 22.5164C86.0635 22.5164 86.7601 28.7452 85.9564 33.3C85.1376 37.7398 82.6874 40.4031 82.6874 40.4031L81.8887 38.752C81.8887 38.752 82.933 36.0393 83.9269 32.0449C85.0355 28.0354 86.0635 22.5164 86.0635 22.5164V22.5164Z" fill="#FDE7DC"/>
<path fill-rule="evenodd" clip-rule="evenodd" d="M97.998 19.3064C97.998 19.3064 100.554 20.1402 103.108 22.7301C106.224 26.0653 109.103 32.9445 112.258 35.69C117.907 40.565 119.61 40.2234 119.61 40.2234C119.61 40.2234 115.187 41.1572 109.554 36.3973C107.19 34.3679 104.172 28.2087 102.422 25.5137C99.8637 21.9874 97.9993 19.3064 97.9993 19.3064H97.998Z" fill="#FDE7DC"/>
<path d="M81.8152 38.8229C82.2271 40.9574 82.537 43.1032 82.8633 45.2516C83.1165 46.9141 83.4516 48.5627 83.9883 50.1595C85.5201 54.7245 88.3357 59.0617 91.8189 62.3615C93.2953 63.7596 94.9833 65.0995 96.912 65.8004C98.0798 66.2243 99.2325 66.1863 100.43 65.9358C104.276 65.1324 107.844 62.8828 110.903 60.4965C113.95 58.1191 116.56 55.1243 118.171 51.569C118.401 51.0641 117.656 50.6226 117.424 51.1312C116.184 53.8679 114.284 56.4857 112.029 58.4557C108.907 61.1836 105.225 63.6824 101.209 64.8452C100.215 65.1324 99.1052 65.4019 98.0659 65.2197C96.262 64.9034 94.6079 63.6609 93.255 62.4931C89.6722 59.4034 86.8403 55.223 85.1384 50.806C83.6393 46.9154 83.434 42.6553 82.6479 38.5914C82.5421 38.0435 81.7081 38.275 81.8139 38.8216L81.8152 38.8229Z" fill="#231F20"/>
<path d="M99.3647 65.8864C100.204 67.6806 100.922 69.5961 101.329 71.5421C101.443 72.0887 102.276 71.8571 102.163 71.3118C101.741 69.2925 100.982 67.3099 100.11 65.4487C99.8736 64.9438 99.1291 65.3841 99.3634 65.8864H99.3647Z" fill="#231F20"/>
<path d="M91.4943 36.8376C92.1305 38.1636 93.0388 39.8578 92.6382 41.3786C92.4039 42.2693 91.6228 42.8526 91.3608 43.7218C90.8216 45.5134 92.9556 46.8723 94.3792 47.343C94.9083 47.5188 95.1363 46.68 94.6084 46.5054C94.0252 46.3118 93.4381 45.9955 92.967 45.6007C92.5979 45.292 92.2023 44.8567 92.1456 44.3532C92.1041 43.9863 92.3144 43.6535 92.5122 43.3663C93.0917 42.5236 93.5641 41.767 93.5956 40.703C93.6397 39.2163 92.8649 37.7005 92.2401 36.3973C91.9982 35.8938 91.2537 36.3341 91.4943 36.8351V36.8376Z" fill="#231F20"/>
<path fill-rule="evenodd" clip-rule="evenodd" d="M85.6063 39.4657C85.4262 38.0853 85.8633 36.9732 86.7653 36.7378C87.6824 36.6176 88.505 37.5628 88.7998 38.928C88.9799 40.3084 88.4282 41.4357 87.6408 41.6558C86.7237 41.776 85.7865 40.8461 85.6063 39.4657Z" fill="#231F20"/>
<path d="M88.4259 30.8075C87.209 29.9408 85.7237 29.6296 84.275 30.0193C83.591 30.2027 82.9107 30.5203 82.3564 30.9682C82.1725 31.1162 82.2053 31.4275 82.3564 31.5819C82.5341 31.764 82.7873 31.7286 82.9674 31.5819C82.8314 31.6919 82.9561 31.592 83.0153 31.5502C83.1161 31.4806 83.2194 31.4148 83.3252 31.3528C83.6766 31.1466 84.0495 30.9859 84.4426 30.8746C85.6998 30.519 86.9331 30.805 87.99 31.5578C88.4448 31.8817 88.8769 31.1289 88.4259 30.8088V30.8075Z" fill="#231F20"/>
<path d="M84.4566 38.5267C84.934 38.0928 85.4971 37.7954 86.1522 37.6879C87.0517 37.5399 87.9889 37.7486 88.8481 38.0055C89.3822 38.1649 89.6115 37.3273 89.0773 37.1679C88.0569 36.863 86.9824 36.6706 85.9217 36.8503C85.1331 36.9844 84.4327 37.3779 83.8444 37.9131C83.4312 38.2889 84.0434 38.9013 84.4553 38.5267H84.4566Z" fill="#231F20"/>
<path fill-rule="evenodd" clip-rule="evenodd" d="M103.922 37.0971C103.742 35.7167 102.919 34.7716 101.987 34.7766C101.07 34.8968 100.403 36.0393 100.454 37.3198C100.634 38.7014 101.457 39.6453 102.389 39.6402C103.421 39.5048 104.087 38.3636 103.922 37.0971Z" fill="#231F20"/>
<path d="M96.8336 29.4045C98.0769 30.137 99.4488 30.6457 100.897 30.7203C102.237 30.7886 103.544 30.4483 104.732 29.8397C105.229 29.5854 104.791 28.8364 104.296 29.0907C103.241 29.6309 102.087 29.9131 100.899 29.8524C99.6037 29.7853 98.3805 29.307 97.2719 28.6542C96.7907 28.3708 96.3549 29.1211 96.8361 29.4045H96.8336Z" fill="#231F20"/>
<path d="M104.796 35.3903C103.899 34.931 102.822 34.788 101.825 34.8272C100.765 34.869 99.6131 35.1385 98.856 35.9368C98.473 36.3417 99.0827 36.9566 99.467 36.5505C100.08 35.9014 101.038 35.7167 101.894 35.6926C102.713 35.6686 103.644 35.7749 104.359 36.1393C104.854 36.3923 105.291 35.6433 104.794 35.389L104.796 35.3903Z" fill="#231F20"/>
<path d="M121.661 47.6239C122.444 51.7068 123.548 55.7695 124.959 59.6779C125.147 60.1991 125.984 59.9739 125.793 59.4476C124.382 55.5392 123.278 51.4765 122.495 47.3936C122.391 46.8457 121.557 47.0773 121.661 47.6239Z" fill="#231F20"/>
<path d="M92.4844 54.0918C93.4494 54.5232 94.6096 54.5903 95.6476 54.5321C98.5564 54.3701 101.262 53.0163 103.575 51.3108C104.019 50.9831 103.588 50.2302 103.139 50.5605C100.956 52.1699 98.4015 53.5098 95.6489 53.6629C94.9611 53.7008 94.2645 53.673 93.5905 53.5275C93.4015 53.487 93.2126 53.4389 93.0286 53.3756C92.9606 53.3529 92.7364 53.258 92.9216 53.3415C92.4177 53.1163 91.9768 53.864 92.4857 54.0918H92.4844Z" fill="#231F20"/>
<path d="M119.491 34.4388C120.551 33.7163 121.812 33.128 123.128 33.2697C124.124 33.3773 124.984 33.9605 125.498 34.8171C126.753 36.9086 126.097 39.8578 124.83 41.7848C123.957 43.1133 122.664 44.0926 121.172 44.6177C120.651 44.8012 120.875 45.64 121.403 45.4553C124.345 44.4203 126.436 41.8329 126.899 38.7394C127.273 36.2443 126.501 33.128 123.705 32.4916C122.059 32.1183 120.403 32.7699 119.055 33.6885C118.596 33.9998 119.028 34.7526 119.491 34.4388V34.4388Z" fill="#231F20"/>
<path d="M121.825 38.9317C121.829 38.9203 121.834 38.909 121.839 38.8976C121.859 38.847 121.787 39.0203 121.806 38.976C121.808 38.9697 121.811 38.9621 121.815 38.9558C121.824 38.9368 121.831 38.9165 121.84 38.8976C121.89 38.7862 121.946 38.6761 122.004 38.5686C122.083 38.4218 122.171 38.2801 122.266 38.1435C122.291 38.1081 122.317 38.0726 122.343 38.0372C122.373 37.9954 122.28 38.1169 122.312 38.0764C122.319 38.0688 122.325 38.06 122.331 38.0524C122.346 38.0334 122.361 38.0157 122.377 37.9967C122.436 37.9246 122.5 37.8563 122.567 37.7917C122.606 37.7538 122.647 37.7158 122.689 37.6804C122.697 37.6741 122.705 37.6677 122.713 37.6602C122.748 37.626 122.634 37.7184 122.674 37.6905C122.697 37.6753 122.718 37.6576 122.739 37.6424C122.781 37.6133 122.824 37.5868 122.869 37.5627C122.889 37.5513 122.911 37.54 122.932 37.5298C122.945 37.5235 122.956 37.5184 122.969 37.5121C123.009 37.4893 122.858 37.5577 122.93 37.5286C123.038 37.4843 123.126 37.4349 123.188 37.3287C123.242 37.235 123.265 37.0984 123.232 36.9946C123.166 36.7922 122.925 36.5999 122.7 36.691C121.947 36.9959 121.439 37.7044 121.108 38.4256C121.066 38.5167 121.026 38.6078 120.99 38.7015C120.952 38.8001 120.982 38.9482 121.034 39.0355C121.087 39.1253 121.189 39.2113 121.292 39.2354C121.54 39.2923 121.737 39.1595 121.824 38.9317H121.825Z" fill="#231F20"/>
<path d="M102.015 1.88784C101.218 1.24383 100.214 0.821242 99.2465 0.520114C96.8366 -0.230176 94.229 -0.12263 91.814 0.547949C88.7755 1.39187 86.0696 3.02024 83.8688 5.27743C81.6794 7.52324 79.9762 10.2258 78.6106 13.0422C77.1191 16.1168 75.9097 19.4064 75.2282 22.7618C74.4761 26.4652 74.3401 30.2483 74.1675 34.0137C74.0856 35.8166 73.9911 37.6209 73.782 39.415C73.5804 41.1332 73.2 42.7881 72.7604 44.4583C71.9466 47.5467 71.1013 51.0337 72.2703 54.145C73.2227 56.6792 75.3605 58.219 77.4605 59.7513C78.428 60.4573 79.408 61.162 80.2647 62.0047C80.9663 62.6942 81.6327 63.523 81.7978 64.5238C81.8809 65.0261 81.8129 65.5233 81.6655 66.0054C81.5017 66.5406 82.3357 66.7696 82.4995 66.2356C83.1583 64.0835 81.9162 62.2805 80.3604 60.9128C78.569 59.3375 76.4363 58.1697 74.7596 56.4591C72.5021 54.1564 72.3043 50.9945 72.8422 47.963C73.1383 46.2954 73.6334 44.6809 74.0277 43.0361C74.4169 41.4141 74.6349 39.7541 74.781 38.0941C75.0984 34.4995 75.0871 30.8847 75.4348 27.2927C75.785 23.6867 76.6152 20.2225 77.9077 16.8418C80.0115 11.3367 83.3347 5.42673 88.7705 2.66344C92.5094 0.764306 97.6126 -0.112508 101.3 2.42937C101.368 2.47618 101.542 2.61283 101.406 2.50149C101.835 2.84816 102.45 2.23832 102.017 1.88784H102.015Z" fill="#231F20"/>
<path d="M84.5182 56.6034C86.3725 59.5476 87.8754 64.396 84.561 66.9404C83.6011 67.6781 82.4283 68.0488 81.2517 68.2538C80.7049 68.3486 80.9367 69.185 81.4809 69.0913C83.5923 68.7244 85.6721 67.7084 86.6862 65.7169C87.6146 63.8937 87.5126 61.7339 86.9482 59.8146C86.5691 58.524 85.9782 57.3005 85.264 56.1656C84.9667 55.6949 84.2184 56.1302 84.5169 56.6034H84.5182Z" fill="#231F20"/>
<path d="M93.4172 19.0572C92.2834 17.6199 89.9579 14.8705 88.0154 16.7152C87.2243 17.4655 86.8161 18.6093 86.4836 19.6215C85.962 21.2106 85.6206 22.8605 85.2893 24.499C84.8648 26.598 84.4856 28.7059 84.0623 30.805C83.6605 32.7952 83.0608 34.7336 82.3415 36.6289C81.151 39.7616 79.4882 42.783 78.7059 46.06C78.3418 47.5834 78.2284 49.1687 78.59 50.7035C79.0095 52.4887 80.0387 54.0399 81.2657 55.3722C81.6436 55.7834 82.2546 55.1685 81.8767 54.7586C80.8336 53.6249 79.9417 52.3255 79.5159 50.8275C79.1581 49.5711 79.1581 48.2489 79.3962 46.9697C79.9543 43.961 81.4307 41.1711 82.5809 38.3635C83.2737 36.6719 83.9036 34.9524 84.3873 33.1862C84.9328 31.1934 85.2679 29.1437 85.6572 27.1155C85.996 25.3467 86.3324 23.5754 86.7632 21.8268C87.0668 20.5932 87.3931 19.3077 88.0053 18.1867C88.3744 17.5123 88.9161 16.8215 89.7236 16.9948C90.2149 17.0998 90.6584 17.4237 91.0325 17.7439C91.6964 18.3119 92.2671 18.9863 92.8075 19.6708C93.1527 20.1086 93.7611 19.4912 93.4185 19.0572H93.4172Z" fill="#231F20"/>
<path d="M95.9599 19.3066C98.4315 19.2787 100.422 20.8502 101.988 22.624C103.83 24.7117 105.244 27.146 106.718 29.4981C109.634 34.1466 113.41 38.8622 118.717 40.8081C119.666 41.1561 120.779 41.4888 121.806 41.423C122.358 41.3876 122.363 40.5184 121.806 40.5551C120.991 40.6082 120.22 40.3906 119.413 40.1325C117.091 39.3873 115.021 37.9386 113.237 36.3001C110.933 34.1833 109.119 31.7009 107.464 29.0603C106 26.7272 104.588 24.3309 102.791 22.2343C101.043 20.1935 98.7628 18.4082 95.9586 18.4386C95.4031 18.4449 95.4006 19.3129 95.9586 19.3066H95.9599Z" fill="#231F20"/>
<path d="M137.967 60.8028C142.338 58.3014 140.2 52.3383 138.269 48.9272C137.831 48.1528 137.351 47.3861 136.77 46.7105C136.405 46.2879 135.796 46.904 136.158 47.3241C137.216 48.5527 138.003 50.1114 138.618 51.6006C139.369 53.4175 140.014 55.5963 139.49 57.5599C139.199 58.6531 138.502 59.4958 137.529 60.0525C137.046 60.3296 137.482 61.0798 137.965 60.8028H137.967Z" fill="#231F20"/>
<path d="M105.857 3.13657C109.326 1.84855 113.284 2.15474 116.703 3.44782C121.885 5.40642 126.184 9.79049 128.724 14.6629C129.769 16.6709 130.462 18.8256 131.119 20.9866C131.918 23.6209 132.741 26.2425 133.793 28.7894C135.043 31.8146 136.552 34.6538 138.387 37.3602C139.923 39.625 141.333 41.867 142.161 44.5012C142.882 46.7926 142.483 49.1004 142.289 51.4449C142.121 53.4667 142.075 55.8429 143.638 57.37C144.037 57.761 144.51 58.0621 145.015 58.2962C145.516 58.529 145.956 57.7799 145.451 57.5459C144.486 57.0992 143.734 56.392 143.386 55.3671C143.036 54.3347 143.042 53.2175 143.104 52.142C143.236 49.8443 143.774 47.4682 143.257 45.1832C142.659 42.5363 141.291 40.1108 139.789 37.8865C138.999 36.7162 138.196 35.5547 137.471 34.3413C136.567 32.8243 135.79 31.2389 135.079 29.6207C133.913 26.9637 132.999 24.2168 132.159 21.4409C131.491 19.2393 130.825 17.0327 129.834 14.9527C128.619 12.4095 126.926 10.0916 124.98 8.0647C123.05 6.05549 120.789 4.33223 118.257 3.16314C114.662 1.50567 110.469 0.917331 106.618 1.97761C106.283 2.06997 105.953 2.17625 105.628 2.29771C105.11 2.49003 105.334 3.32889 105.857 3.1353V3.13657Z" fill="#231F20"/>
<path d="M103.077 5.09262C100.723 5.13564 98.4356 5.97576 96.7161 7.61172C95.1086 9.14266 94.1563 11.2404 94.0051 13.4534C93.9673 14.0113 94.8315 14.0088 94.8693 13.4534C95.0053 11.4669 95.8897 9.59436 97.3271 8.22536C98.8803 6.74756 100.953 5.9998 103.075 5.96057C103.631 5.95045 103.633 5.0825 103.075 5.09262H103.077Z" fill="#231F20"/>
<path d="M133.867 56.0872C133.445 57.131 133.254 58.2532 133.451 59.3705C133.586 60.1309 133.921 60.8508 134.365 61.4771C134.53 61.7099 134.709 61.9313 134.886 62.1527C134.915 62.1894 134.945 62.2261 134.974 62.2628C135.037 62.3425 134.92 62.1844 134.974 62.2628C134.983 62.2767 134.994 62.2894 135.003 62.3033C135.021 62.3324 135.04 62.3666 135.061 62.3931C135.118 62.4665 135.045 62.2995 135.056 62.3779C135.044 62.2919 135.055 62.1464 135.151 62.049C135.156 62.0439 135.309 61.9528 135.287 61.9655C135.282 61.968 135.236 61.9769 135.236 61.9769C135.236 61.9769 135.211 61.9781 135.274 61.9718C135.243 61.9743 135.211 61.9781 135.178 61.9794C135.113 61.9819 135.049 61.9832 134.983 61.9832C134.623 61.9819 134.263 61.9389 133.909 61.8744C132.844 61.6783 131.729 61.2949 130.99 60.4649C130.618 60.0474 130.008 60.6635 130.379 61.0785C131.12 61.9085 132.205 62.3716 133.267 62.6234C133.727 62.7322 134.2 62.8069 134.672 62.8385C134.943 62.8562 135.262 62.8815 135.525 62.7993C136.243 62.5741 135.769 61.8769 135.487 61.5252C135.118 61.0659 134.719 60.5256 134.489 59.8993C134.053 58.7062 134.234 57.4726 134.701 56.3174C134.789 56.0985 134.604 55.843 134.399 55.7835C134.153 55.7126 133.954 55.8708 133.867 56.0872V56.0872Z" fill="#231F20"/>
<path d="M129.669 54.5284C130.222 56.2592 130.678 58.2203 130.144 60.0145C129.717 61.4467 128.62 62.407 127.313 63.0371C126.812 63.2788 127.25 64.0278 127.749 63.7874C129.228 63.0751 130.441 61.9351 130.949 60.3371C131.573 58.3747 131.11 56.1997 130.503 54.2981C130.334 53.7679 129.499 53.9944 129.669 54.5284V54.5284Z" fill="#231F20"/>
<path d="M86.4454 65.1298C86.9808 66.4001 87.9344 67.4111 89.2496 67.8628C90.338 68.236 91.5247 68.1841 92.6408 67.9728C93.1863 67.8691 92.9557 67.0328 92.4115 67.1352C91.4655 67.3136 90.4665 67.3478 89.5406 67.0454C88.4043 66.6747 87.6484 65.7713 87.1924 64.6921C87.1004 64.4744 86.7855 64.4314 86.6016 64.5364C86.3773 64.6642 86.3559 64.916 86.4466 65.1311L86.4454 65.1298Z" fill="#231F20"/>
<path d="M121.091 40.4449C118.301 39.3125 116.228 37.2944 114.833 34.6399C113.482 32.0677 112.687 29.2412 111.557 26.5715C110.848 24.8976 110.017 23.2819 108.981 21.7876C108.664 21.3321 107.915 21.7661 108.234 22.2254C110.085 24.8963 111.189 27.9215 112.32 30.9442C113.323 33.6252 114.434 36.3531 116.469 38.4281C117.712 39.6971 119.224 40.617 120.86 41.2812C121.375 41.49 121.599 40.6511 121.089 40.4436L121.091 40.4449Z" fill="#231F20"/>
<path d="M92.7672 65.3501C93.5848 66.79 94.8722 67.9021 96.4847 68.3285C97.6588 68.6385 98.9891 68.617 100.123 68.1577C100.632 67.9502 100.41 67.1113 99.8936 67.3201C98.9185 67.7161 97.8062 67.7642 96.7896 67.5099C95.3547 67.1518 94.2386 66.1877 93.5142 64.9123C93.2383 64.4265 92.4913 64.8643 92.7672 65.3501Z" fill="#231F20"/>
<path d="M184.252 104.073C185.56 104.31 186.869 104.37 188.185 104.173C189.236 104.016 190.243 103.687 191.245 103.343C192.17 103.025 193.11 102.695 194.087 102.591C195.297 102.462 196.478 102.669 197.586 103.168C198.723 103.68 199.791 104.179 201.045 104.34C202.535 104.531 204.063 104.41 205.511 104.004C206.796 103.644 208.359 103.067 209.212 101.982C210.052 100.913 209.609 99.6721 208.33 99.2938C207.623 99.085 206.864 99.0319 206.143 98.8788C205.449 98.7308 204.761 98.5562 204.081 98.3525C202.754 97.9564 201.466 97.4516 200.187 96.924C197.25 95.7144 194.362 94.2607 191.175 93.8887C187.918 93.5078 184.619 93.9937 181.399 94.4758C179.674 94.7339 177.956 95.0261 176.243 95.3526C174.719 95.6423 173.172 95.9131 171.683 96.3635C170.263 96.7937 168.93 97.4415 167.838 98.4638C166.81 99.4241 166.023 100.607 165.224 101.757C163.837 103.755 162.386 105.744 161.266 107.91C161.039 108.349 160.831 108.8 160.66 109.264C160.466 109.789 161.301 110.015 161.494 109.495C162.262 107.415 163.671 105.524 164.918 103.713C166.336 101.653 167.682 99.2381 169.935 98.0045C171.181 97.3226 172.581 96.9873 173.959 96.6937C175.495 96.3673 177.039 96.0738 178.586 95.8055C181.685 95.2678 184.834 94.7326 187.983 94.6377C189.538 94.5909 191.104 94.6706 192.628 95.0008C194.115 95.3222 195.508 95.9169 196.908 96.4976C199.407 97.5364 201.896 98.67 204.514 99.3786C205.194 99.562 205.882 99.7177 206.575 99.848C207.172 99.9593 207.95 99.9593 208.48 100.287C209.891 101.16 206.895 102.592 206.303 102.825C204.948 103.359 203.491 103.608 202.036 103.555C200.755 103.508 199.615 103.165 198.462 102.623C197.402 102.124 196.356 101.751 195.173 101.691C194.233 101.646 193.295 101.802 192.394 102.058C190.438 102.618 188.62 103.434 186.545 103.432C185.852 103.432 185.166 103.359 184.485 103.235C183.941 103.136 183.708 103.973 184.255 104.073H184.252Z" fill="#231F20"/>
<path d="M177.33 105.791C178.947 106.413 180.266 107.441 181.484 108.657C182.79 109.96 184.073 111.267 185.49 112.452C185.914 112.808 186.529 112.197 186.101 111.839C184.622 110.6 183.298 109.224 181.925 107.874C180.645 106.615 179.241 105.601 177.56 104.955C177.041 104.755 176.815 105.594 177.33 105.792V105.791Z" fill="#231F20"/>
<path d="M185.115 113.351C186.565 112.69 188.027 112.024 189.335 111.102C190.664 110.166 191.628 108.976 192.601 107.689C193.542 106.448 194.661 105.152 196.292 104.914C196.629 104.865 196.98 104.874 197.31 104.958C197.47 105 197.655 105.051 197.793 105.147C197.921 105.237 197.861 105.052 197.844 105.211C197.833 105.32 197.672 105.524 197.623 105.609C197.158 106.417 196.692 107.226 196.227 108.034C195.343 109.572 194.548 111.3 193.348 112.621C192.201 113.885 190.611 114.696 189.145 115.522C188.345 115.972 187.537 116.409 186.722 116.833C185.931 117.244 185.107 117.761 184.244 117.999C183.318 118.255 182.493 117.697 181.704 117.279C180.927 116.869 180.158 116.447 179.395 116.009C175.946 114.032 172.657 111.778 169.566 109.275C169.136 108.928 168.521 109.539 168.955 109.889C171.944 112.31 175.107 114.511 178.427 116.451C179.286 116.953 180.156 117.438 181.034 117.906C181.784 118.304 182.584 118.829 183.443 118.928C184.398 119.037 185.271 118.537 186.095 118.125C186.97 117.686 187.838 117.231 188.697 116.762C190.356 115.855 192.152 114.959 193.545 113.654C194.942 112.346 195.796 110.515 196.74 108.877C197.251 107.987 197.764 107.098 198.275 106.209C198.458 105.891 198.756 105.513 198.745 105.123C198.734 104.726 198.428 104.489 198.101 104.332C196.668 103.644 194.995 104.189 193.803 105.114C192.218 106.343 191.344 108.248 189.864 109.584C188.367 110.934 186.492 111.776 184.677 112.602C184.171 112.832 184.611 113.581 185.113 113.351H185.115Z" fill="#231F20"/>
<path d="M196.332 109.676C197.842 109.365 199.407 109.289 200.798 108.572C201.894 108.006 202.938 107.339 203.972 106.666C205.185 105.877 206.445 105.082 207.896 104.839C208.597 104.723 209.329 104.748 210.001 104.989C210.19 105.056 210.387 105.087 210.315 105.329C210.273 105.466 210.14 105.617 210.059 105.735C209.858 106.036 209.632 106.32 209.392 106.59C208.48 107.618 207.363 108.391 206.324 109.275C204.621 110.725 203.189 112.374 201.067 113.228C199.65 113.797 198.137 114.292 196.629 114.546C195.081 114.807 193.535 114.653 192.02 114.273C191.481 114.138 191.25 114.975 191.79 115.111C193.223 115.47 194.693 115.652 196.166 115.483C197.627 115.313 199.03 114.869 200.416 114.388C201.666 113.954 202.841 113.416 203.894 112.604C204.818 111.892 205.628 111.049 206.498 110.274C207.6 109.292 208.835 108.469 209.844 107.384C210.321 106.869 210.855 106.263 211.144 105.615C211.455 104.914 211.01 104.457 210.386 104.212C207.292 102.996 204.432 105.448 201.948 106.924C201.108 107.424 200.242 108.007 199.286 108.258C198.248 108.53 197.156 108.626 196.105 108.843C195.56 108.954 195.791 109.791 196.334 109.68L196.332 109.676Z" fill="#231F20"/>
<path d="M210.316 107.238C211.154 106.898 212.029 106.66 212.93 106.574C213.729 106.498 214.675 106.451 215.443 106.727C215.765 106.842 216.12 107.083 216.178 107.451C216.247 107.898 215.802 108.129 215.471 108.305C214.677 108.725 213.865 109.114 213.064 109.517C211.372 110.367 209.68 111.219 207.989 112.069C206.39 112.874 204.83 113.653 203.081 114.078C201.642 114.429 200.32 114.271 198.865 114.099C198.313 114.033 198.318 114.902 198.865 114.967C200.345 115.141 201.702 115.293 203.171 114.949C205.198 114.474 207.001 113.536 208.85 112.606C210.824 111.614 212.797 110.62 214.771 109.628C215.486 109.269 216.486 108.949 216.896 108.197C217.272 107.505 216.931 106.673 216.342 106.229C215.562 105.64 214.39 105.637 213.46 105.671C212.302 105.714 211.163 105.963 210.089 106.401C209.58 106.607 209.802 107.448 210.319 107.238H210.316Z" fill="#231F20"/>
<path d="M207.091 113.659C209.858 113.805 212.629 113.835 215.398 113.921C216.056 113.942 216.713 113.964 217.371 113.993C217.928 114.017 218.629 114.176 219.108 113.813C220.103 113.06 219.516 111.552 218.785 110.854C217.63 109.752 215.825 109.611 214.339 109.301C213.796 109.187 213.564 110.024 214.108 110.138C214.907 110.305 215.718 110.448 216.507 110.654C217.25 110.849 218.021 111.155 218.474 111.816C218.656 112.079 218.804 112.426 218.759 112.752C218.702 113.163 218.44 113.176 218.078 113.158C217.392 113.125 216.706 113.096 216.02 113.072C213.045 112.971 210.064 112.947 207.09 112.79C206.534 112.761 206.536 113.629 207.09 113.658L207.091 113.659Z" fill="#231F20"/>
<path d="M199.239 103.909C199.36 103.956 199.52 104.035 199.675 104.119C199.859 104.219 200.038 104.328 200.214 104.442C200.606 104.693 200.984 104.963 201.358 105.239C202.047 105.745 202.718 106.289 203.453 106.73C203.932 107.017 204.367 106.267 203.889 105.981C202.385 105.078 201.124 103.716 199.47 103.074C199.252 102.99 198.996 103.168 198.938 103.378C198.871 103.623 199.021 103.827 199.239 103.912V103.909Z" fill="#231F20"/>
<path d="M24.6356 67.6982C23.2536 67.1086 22.038 66.061 21.6323 64.563C21.5252 64.1682 21.4131 63.6014 21.597 63.2092C21.8125 62.7511 22.4348 62.9283 22.8127 63.0421C24.1039 63.4306 25.2113 64.2618 26.3929 64.8856C28.3065 65.8953 30.3913 66.5228 32.485 67.0289C36.4432 67.9855 40.6293 68.4523 44.304 70.3236C45.3672 70.8651 46.3448 71.5357 47.146 72.4277C48.1172 73.5082 48.795 74.8367 49.3392 76.1754C50.1958 78.2845 50.8068 80.505 51.4606 82.6838C52.1409 84.9511 52.7909 87.2285 53.3175 89.5376C53.4422 90.0817 54.2749 89.8514 54.1514 89.3061C53.6437 87.0818 53.0214 84.8866 52.3689 82.7015C51.734 80.5772 51.1318 78.4199 50.3331 76.35C49.7562 74.857 49.0608 73.3994 48.0467 72.1519C47.2367 71.1562 46.2125 70.3679 45.0901 69.7581C41.2504 67.6704 36.8123 67.1896 32.6299 66.1711C30.4165 65.6321 28.2183 64.9577 26.2354 63.8076C25.0739 63.1332 23.8444 62.2805 22.4877 62.0818C21.8402 61.9869 21.1687 62.1451 20.8475 62.7701C20.5641 63.323 20.622 64.0328 20.753 64.6186C21.1511 66.4001 22.5671 67.7526 24.1972 68.4473C24.7036 68.6636 25.1445 67.9159 24.633 67.697L24.6356 67.6982Z" fill="#231F20"/>
<path d="M38.8273 69.4568C37.589 68.8179 36.2877 68.3118 34.9234 68.0208C33.549 67.7272 32.1406 67.626 30.7385 67.5868C29.1915 67.5425 27.642 67.5374 26.0963 67.6133C24.9777 67.6678 23.8439 67.7588 22.7303 67.5918C21.0712 67.3438 19.5532 66.5758 18.1196 65.7357C17.6384 65.4536 17.2025 66.2039 17.6837 66.4847C18.9926 67.2515 20.3771 67.9638 21.8636 68.3067C22.9432 68.556 24.0404 68.5762 25.1414 68.5281C28.0552 68.4016 31.0585 68.246 33.9508 68.7179C35.5091 68.9722 36.9868 69.4834 38.3902 70.2058C38.884 70.4601 39.3224 69.7124 38.8261 69.4568H38.8273Z" fill="#231F20"/>
<path d="M41.1219 76.0539C40.2527 74.3876 38.2472 73.5209 36.5855 72.9022C34.2651 72.038 31.8187 71.5231 29.3886 71.0815C27.2458 70.6918 25.0878 70.4021 22.9412 70.0389C21.9561 69.8732 20.7077 69.7555 19.933 69.0913C19.3069 68.5548 18.9642 67.7046 18.5611 67.0011C18.1504 66.2862 17.7297 65.5777 17.3102 64.8692C16.8466 64.086 16.3805 63.3028 15.9307 62.512C15.481 61.7225 15.0703 60.9089 14.5085 60.1915C13.9441 59.4691 13.284 58.8985 12.3531 58.7745C11.5027 58.6619 10.626 58.8618 9.87766 59.2717C9.72649 59.3539 9.60934 59.5905 9.67862 59.7626C11.082 63.2041 12.4841 66.6468 13.8874 70.0896C14.2263 70.9196 14.5652 71.7508 14.9028 72.5821C15.2177 73.3539 15.4911 74.1674 15.8942 74.9C16.6715 76.312 18.1202 76.6802 19.5525 77.123C22.848 78.1416 26.0944 79.3233 29.274 80.6632C32.4561 82.0044 35.6571 83.4569 38.6452 85.1966C39.3696 85.6179 40.0713 86.1113 40.5386 86.8237C40.9405 87.436 41.1912 88.1307 41.3902 88.8329C41.8412 90.4271 42.0365 92.0808 42.4799 93.6775C42.6286 94.2152 43.4638 93.9875 43.3139 93.4472C42.9221 92.0377 42.7205 90.5865 42.3728 89.1682C42.0642 87.9067 41.6258 86.6086 40.7062 85.6571C39.6228 84.5374 38.0683 83.8794 36.704 83.181C35.1545 82.3865 33.5861 81.6311 32.0001 80.915C28.8746 79.5055 25.6837 78.2453 22.4373 77.1458C21.6135 76.8662 20.7858 76.598 19.9556 76.3399C19.2111 76.1083 18.4137 75.9337 17.7246 75.5579C16.965 75.1442 16.5972 74.4496 16.2772 73.674C15.9244 72.8199 15.5793 71.9621 15.2303 71.1055C13.6582 67.2478 12.086 63.3901 10.5138 59.5336C10.4471 59.6968 10.3816 59.86 10.3148 60.0245C10.9636 59.669 11.7761 59.4944 12.5042 59.6854C13.3017 59.8942 13.8534 60.6938 14.2717 61.3556C15.1094 62.6841 15.8426 64.0885 16.6438 65.441C17.0494 66.1255 17.455 66.8088 17.8506 67.4996C18.2373 68.174 18.5737 68.9053 19.1003 69.4848C19.9002 70.3641 21.1297 70.5956 22.2484 70.7981C26.5958 71.5851 31.0137 72.0102 35.2439 73.3577C36.3487 73.7094 37.446 74.1219 38.4525 74.7039C39.2146 75.1442 39.9629 75.6958 40.3799 76.4942C40.6382 76.9889 41.3852 76.5512 41.1269 76.0564L41.1219 76.0539Z" fill="#231F20"/>
<path d="M11.1954 58.8818C10.8251 57.4243 10.4043 55.4796 9.01859 54.6407C7.92387 53.9777 6.39831 53.8133 5.17006 54.1296C4.95212 54.1852 4.79466 54.4434 4.86772 54.6635C5.92843 57.857 6.99039 61.0517 8.0511 64.2465C8.58649 65.8584 9.12188 67.4716 9.65854 69.0835C9.91804 69.8642 10.17 70.6461 10.4358 71.4229C10.6449 72.034 10.8969 72.6439 11.3882 73.0829C11.9828 73.6143 12.7739 73.9079 13.4844 74.2457C14.3297 74.648 15.1762 75.0517 16.0215 75.454C16.5216 75.6919 16.9613 74.9441 16.4574 74.7037C15.1145 74.0648 13.6809 73.5055 12.401 72.7476C11.756 72.3655 11.4776 71.8088 11.2446 71.1167C10.9901 70.3627 10.7432 69.6073 10.4925 68.852C9.47209 65.7799 8.45044 62.7067 7.43005 59.6346C6.85434 57.9 6.27738 56.1666 5.70167 54.4332C5.60089 54.6116 5.50011 54.7888 5.39933 54.9672C6.40587 54.7078 7.68703 54.8444 8.58145 55.391C9.11811 55.7187 9.42044 56.3096 9.66609 56.8714C9.97977 57.5887 10.1687 58.3568 10.3602 59.1134C10.4975 59.6549 11.3315 59.4246 11.1942 58.8831L11.1954 58.8818Z" fill="#231F20"/>
<path d="M6.5505 57.1384C5.52884 55.4392 3.01817 55.4936 1.52033 56.4919C1.32759 56.6209 1.2394 56.8752 1.36538 57.0853C4.21115 61.8565 7.26729 66.5 10.0022 71.3383C10.2768 71.8241 11.0239 71.3876 10.7492 70.9005C8.01432 66.0622 4.95818 61.4187 2.11241 56.6475C2.06076 56.8449 2.00911 57.0435 1.95746 57.2409C3.04462 56.5172 5.02872 56.2856 5.80473 57.5762C6.09195 58.0532 6.84024 57.6179 6.55176 57.1384H6.5505Z" fill="#231F20"/>
<path d="M5.45621 62.5449C4.42196 62.0072 3.32472 61.6668 2.1582 61.8895C1.31165 62.0502 -0.0501399 62.4968 0.483993 63.6318C0.780033 64.2618 1.4603 64.7161 1.96923 65.1652C2.55124 65.6789 3.13954 66.185 3.73414 66.6861C4.82004 67.6008 5.92358 68.4953 7.0183 69.3987C8.34859 70.497 9.66125 71.6167 10.9399 72.7769C11.3518 73.1502 11.9653 72.5391 11.5509 72.1633C9.20018 70.0276 6.70714 68.0652 4.28213 66.0193C3.66359 65.498 3.0501 64.9691 2.44542 64.4327C2.13426 64.1568 1.79287 63.8899 1.50817 63.5849C1.34818 63.4141 1.12268 63.2269 1.357 63.0396C1.41495 62.9928 1.57115 62.9586 1.648 62.9333C2.8498 62.5221 3.89791 62.7119 5.0216 63.2965C5.51542 63.5533 5.95255 62.8043 5.45747 62.5474L5.45621 62.5449Z" fill="#231F20"/>
<path d="M101.998 71.4166C100.819 71.7507 99.7882 72.7262 98.9051 73.5359C97.6756 74.662 96.5431 75.8994 95.5152 77.2127C94.9861 77.8884 94.4822 78.5842 94.0085 79.3004C93.8989 79.4661 93.7918 79.6319 93.6847 79.8001C93.647 79.8596 93.4366 80.2885 93.3459 80.2974C93.2602 80.305 92.9881 79.1764 92.9591 79.079C92.4187 77.2355 91.8795 75.3908 91.3391 73.5473C90.7369 71.49 90.1159 69.4391 89.6284 67.3501C89.5011 66.8061 88.6672 67.0364 88.7944 67.5817C89.7241 71.5659 91.0028 75.4781 92.1516 79.4016C92.3305 80.014 92.488 81.1679 93.3396 81.1767C94.0753 81.1831 94.4633 80.1747 94.8009 79.6686C95.8477 78.0946 97.042 76.6219 98.3622 75.2693C98.9492 74.6683 99.5577 74.0863 100.201 73.546C100.792 73.0501 101.47 72.468 102.227 72.253C102.761 72.1011 102.534 71.2635 101.998 71.4154V71.4166Z" fill="#231F20"/>
<path d="M124.571 55.8581C124.089 57.3081 124.612 58.7593 124.935 60.1814C125.182 61.2695 125.17 62.4057 125.022 63.5078C124.698 65.9193 123.763 68.2803 122.459 70.3236C121.773 71.3991 120.958 72.3961 119.968 73.2046C119.535 73.5563 120.15 74.1674 120.579 73.8182C122.419 72.3177 123.727 70.1756 124.641 68.0057C125.563 65.8194 126.203 63.337 125.934 60.9469C125.754 59.3451 124.868 57.699 125.403 56.0884C125.58 55.557 124.746 55.3292 124.569 55.8581H124.571Z" fill="#231F20"/>
<path d="M99.2554 68.3333C99.8551 69.6061 100.537 70.9472 101.583 71.9152C102.105 72.3972 102.736 72.7502 103.309 73.1652C103.903 73.5954 104.476 74.0522 105.031 74.5304C106.188 75.5249 107.406 76.546 108.304 77.7897C109.226 79.0663 109.899 80.4998 110.563 81.9207C110.699 82.213 111.169 82.1965 111.31 81.9207C112.79 79.0296 115.424 77.0533 118.097 75.3452C118.763 74.9201 119.432 74.4469 120.137 74.0901C120.909 73.7004 121.528 73.9788 122.076 74.5836C122.587 75.1466 122.944 75.8324 123.368 76.4586C123.823 77.128 124.317 77.7707 124.846 78.3831C126.073 79.8014 127.499 81.035 129.062 82.0675C129.24 82.1851 129.564 82.1194 129.653 81.9119C131.002 78.774 132.113 75.5414 132.967 72.2327C133.818 68.9418 134.298 65.57 133.699 62.1918C133.602 61.6426 132.768 61.8754 132.865 62.422C133.447 65.7028 132.922 68.9937 132.087 72.1796C131.257 75.3516 130.2 78.4615 128.906 81.4728C129.103 81.4209 129.3 81.3691 129.497 81.3172C127.994 80.324 126.636 79.1321 125.456 77.7682C124.852 77.071 124.302 76.3309 123.805 75.554C123.4 74.9189 123.008 74.2445 122.449 73.7295C121.926 73.2487 121.269 72.9312 120.548 73.04C119.73 73.164 118.994 73.7561 118.308 74.185C116.868 75.0846 115.448 76.0272 114.149 77.1254C112.702 78.3489 111.43 79.7862 110.56 81.4829H111.307C110.654 80.0848 109.993 78.6754 109.095 77.4152C108.195 76.1525 107.024 75.1251 105.863 74.1091C105.336 73.6473 104.795 73.2044 104.238 72.7806C103.648 72.3327 103.001 71.9544 102.42 71.4964C101.286 70.6031 100.601 69.1721 99.9999 67.8942C99.7618 67.3894 99.0161 67.8297 99.2529 68.332L99.2554 68.3333Z" fill="#231F20"/>
<path d="M110.52 81.8171C111.178 85.6938 111.677 89.5958 112.052 93.5105C112.629 99.5141 112.924 105.544 113.002 111.574C113.105 119.581 112.786 127.576 112.232 135.562C111.755 142.43 111.602 149.319 111.491 156.201C111.378 163.257 111.349 170.313 111.32 177.37C111.317 178.101 111.314 178.832 111.31 179.564C111.307 180.123 112.172 180.123 112.174 179.564C112.207 172.681 112.224 165.798 112.315 158.915C112.408 151.838 112.546 144.754 112.96 137.688C113.192 133.729 113.494 129.777 113.657 125.813C113.817 121.894 113.896 117.97 113.885 114.047C113.866 107.76 113.618 101.471 113.071 95.2072C112.704 91.0091 112.206 86.8211 111.53 82.6623C111.472 82.303 111.413 81.9449 111.353 81.5868C111.26 81.0365 110.427 81.2705 110.519 81.8171H110.52Z" fill="#231F20"/>
<path d="M149.82 92.9904C148.969 94.0052 148.288 95.1388 147.929 96.4231C147.593 97.6225 147.539 98.8827 147.564 100.121C147.602 101.947 147.696 103.78 147.919 105.592C148.409 109.568 149.001 113.514 149.306 117.511C149.826 124.319 149.881 131.149 149.674 137.971C149.484 144.239 149.091 150.501 148.976 156.773C148.859 163.247 149.09 169.722 149.931 176.146C150.043 176.998 150.163 177.847 150.293 178.694C150.377 179.245 151.21 179.011 151.127 178.463C150.143 172.028 149.772 165.526 149.813 159.018C149.852 152.861 150.22 146.713 150.45 140.561C150.703 133.807 150.75 127.05 150.358 120.299C150.097 115.824 149.578 111.392 148.964 106.954C148.781 105.64 148.616 104.326 148.554 103.001C148.436 100.448 148.077 97.682 149.28 95.316C149.593 94.6985 149.986 94.1317 150.43 93.6028C150.786 93.179 150.178 92.5615 149.819 92.9892L149.82 92.9904Z" fill="#231F20"/>
<path d="M71.036 93.976C72.1571 96.6242 72.8223 99.4115 72.8538 102.295C72.8827 104.939 72.4746 107.566 72.1597 110.184C71.5651 115.127 71.4832 120.069 71.5625 125.042C71.6507 130.539 71.8762 136.034 72.0261 141.531C72.1874 147.462 72.2781 153.398 72.0967 159.33C71.9241 164.97 71.5273 170.631 70.5169 176.188C70.3998 176.833 70.2738 177.476 70.1378 178.117C70.0231 178.663 70.8558 178.895 70.9717 178.349C72.1294 172.851 72.6308 167.226 72.8764 161.62C73.1372 155.639 73.0868 149.648 72.9457 143.665C72.8122 138.029 72.5817 132.398 72.4607 126.762C72.3549 121.833 72.3096 116.887 72.8223 111.978C73.1082 109.232 73.5743 106.499 73.694 103.739C73.8124 101.025 73.4799 98.3323 72.627 95.7499C72.3788 94.9996 72.0916 94.2658 71.7842 93.5395C71.5676 93.0271 70.8218 93.4687 71.0372 93.9773L71.036 93.976Z" fill="#231F20"/>
<path d="M74.9044 56.6955C71.4627 57.113 68.1987 58.3099 65.6918 60.7759C63.8085 62.627 62.3497 64.9019 61.1164 67.2274C58.6385 71.8974 56.919 76.9963 55.6139 82.113C55.2145 83.6819 54.8064 85.2774 54.6073 86.888C54.5393 87.4409 55.4047 87.4359 55.4715 86.888C55.4866 86.7678 55.4602 86.9639 55.4765 86.8526C55.4841 86.8045 55.4904 86.7564 55.498 86.7084C55.5156 86.5945 55.5345 86.4806 55.5546 86.368C55.6038 86.0833 55.6592 85.7986 55.7159 85.5152C55.8784 84.7118 56.0611 83.9122 56.2551 83.1151C56.8043 80.8655 57.4481 78.6386 58.1837 76.4434C59.0454 73.8724 60.0343 71.3382 61.2298 68.9038C62.3711 66.5796 63.6964 64.2958 65.4059 62.3423C66.3053 61.3136 67.3131 60.3837 68.4746 59.6638C70.4171 58.458 72.6507 57.838 74.9031 57.566C75.4486 57.5002 75.4549 56.631 74.9031 56.698L74.9044 56.6955Z" fill="#231F20"/>
<path d="M134.669 61.3086C140.967 61.8223 147.633 63.9239 152.087 68.6369C154.641 71.3395 156.088 74.8139 157.368 78.2566C158.79 82.0814 160.035 85.9721 161.097 89.9133C162.286 94.3252 163.242 98.7978 163.969 103.31C164.059 103.86 164.891 103.626 164.803 103.078C163.469 94.806 161.356 86.6654 158.485 78.7969C157.189 75.2441 155.792 71.6153 153.312 68.7065C151.202 66.233 148.44 64.3743 145.484 63.0724C142.063 61.5668 138.384 60.7431 134.669 60.4407C134.114 60.3951 134.117 61.2644 134.669 61.3086V61.3086Z" fill="#231F20"/>
<path d="M41.8728 89.8652C41.0301 90.3839 40.021 91.0102 39.4541 91.844C38.9099 92.6449 39.0208 94.0683 40.0323 94.4517C40.7857 94.7364 41.7859 94.5997 42.5581 94.52C44.9391 94.2771 47.2809 93.6482 49.5585 92.9309C50.5865 92.6082 51.4897 92.1603 52.4031 91.5859C53.2685 91.0418 54.1768 90.4548 54.8986 89.7222C55.5008 89.1111 55.7414 88.2317 55.5587 87.3904C55.3005 86.2061 54.2385 85.6481 53.1249 85.5127C52.5744 85.4457 52.5782 86.3136 53.1249 86.3807C53.9148 86.4768 54.6479 86.902 54.7462 87.7535C54.8192 88.3836 54.5522 88.872 54.1037 89.2819C53.4549 89.8753 52.7079 90.37 51.9659 90.8369C51.2353 91.2962 50.5008 91.7187 49.6795 91.9819C47.6047 92.6474 45.4845 93.237 43.3253 93.5559C42.7244 93.6445 42.1172 93.7064 41.51 93.7204C41.3198 93.7254 41.1283 93.7254 40.9381 93.7166C40.8562 93.7128 40.7743 93.7064 40.6925 93.7001C40.5375 93.6887 40.6206 93.6976 40.5488 93.6837C40.4607 93.6685 40.3725 93.652 40.2868 93.6217C40.2251 93.6002 40.3952 93.6786 40.3473 93.647C40.2301 93.5723 40.1608 93.5205 40.0916 93.3952C39.953 93.1447 39.9618 92.8018 40.0613 92.5386C40.2238 92.1097 40.6773 91.7858 41.0238 91.51C41.4332 91.1848 41.8653 90.8862 42.31 90.6129C42.7836 90.3219 42.3503 89.5704 41.8741 89.8639L41.8728 89.8652Z" fill="#231F20"/>
<path d="M39.1758 93.4711C39.7968 100.853 40.4973 108.23 41.4736 115.574C42.4184 122.672 43.6302 129.73 45.1558 136.726C45.4695 138.167 45.7769 139.604 46.2556 141.001C46.7116 142.33 47.2709 143.625 47.9197 144.87C49.1983 147.325 50.8486 149.683 52.9599 151.488C54.8029 153.062 56.9735 154.129 59.4249 154.148C61.4821 154.165 63.5028 153.975 65.2991 152.864C66.6105 152.053 67.5604 150.901 68.4032 149.625C69.1628 148.474 69.8871 147.292 70.4679 146.038C71.4643 143.889 71.8851 141.593 72.2819 139.273C72.4142 138.495 72.5465 137.717 72.6838 136.939C72.7808 136.392 71.9468 136.158 71.8498 136.708C71.4152 139.169 71.1305 141.71 70.3255 144.086C69.9665 145.146 69.4828 146.155 68.931 147.126C68.1865 148.438 67.3853 149.825 66.3372 150.914C64.7134 152.604 62.5567 153.265 60.2702 153.284C59.3342 153.293 58.4071 153.284 57.4963 153.043C56.3587 152.741 55.3119 152.182 54.3608 151.494C52.1902 149.925 50.511 147.694 49.1895 145.385C47.8466 143.04 46.8905 140.532 46.3009 137.895C44.7817 131.11 43.5496 124.262 42.5859 117.374C41.6058 110.365 40.8966 103.32 40.2818 96.2686C40.2 95.3348 40.1206 94.4023 40.0425 93.4686C39.9959 92.9157 39.1317 92.9106 39.1783 93.4686L39.1758 93.4711Z" fill="#231F20"/>
<path d="M54.6637 87.5157C57.3281 95.1514 59.6485 102.914 61.6503 110.751C63.3169 117.273 64.8815 123.905 65.6386 130.606C65.8792 132.739 66.169 135.077 65.7394 137.198C65.6285 137.743 66.4625 137.977 66.5733 137.428C66.9513 135.56 66.7925 133.574 66.6162 131.692C66.3415 128.756 65.8528 125.841 65.2997 122.948C63.846 115.359 61.8959 107.858 59.7165 100.449C58.4165 96.0282 57.0169 91.6353 55.4989 87.2841C55.3162 86.7603 54.481 86.9855 54.665 87.5144L54.6637 87.5157Z" fill="#231F20"/>
<path d="M164.074 103.215C160.734 104.055 159.658 108.006 160.627 111.005C161.929 115.035 165.75 118.452 170.054 118.698C172.745 118.851 175.219 117.579 177.294 115.972C177.729 115.636 177.299 114.882 176.858 115.223C175.189 116.515 173.266 117.641 171.123 117.817C169.088 117.984 167.099 117.264 165.443 116.11C162.8 114.269 160.605 110.868 161.269 107.529C161.602 105.857 162.607 104.481 164.304 104.055C164.843 103.92 164.615 103.082 164.074 103.217V103.215Z" fill="#231F20"/>
<path d="M176.662 115.481C175.765 118.331 174.625 121.104 173.438 123.843C172.055 127.034 170.578 130.185 169.044 133.305C167.676 136.086 166.265 138.847 164.776 141.563C163.751 143.436 162.723 145.339 161.4 147.021C159.959 148.853 158.223 150.512 156.093 151.5C155.213 151.909 154.24 152.235 153.266 152.285C152.05 152.348 150.919 151.95 149.872 151.355C149.387 151.079 148.951 151.829 149.436 152.104C151.231 153.122 153.137 153.43 155.118 152.802C157.066 152.184 158.786 151.032 160.247 149.61C162.136 147.773 163.513 145.584 164.798 143.307C168.039 137.561 170.949 131.601 173.621 125.568C175.049 122.344 176.436 119.078 177.496 115.71C177.663 115.176 176.829 114.947 176.662 115.479V115.481Z" fill="#231F20"/>
<path d="M161.11 105.481C157.89 110.388 154.638 115.28 151.553 120.274C151.097 121.012 150.647 121.752 150.198 122.495C149.909 122.974 150.656 123.411 150.944 122.932C153.17 119.251 155.504 115.638 157.854 112.036C159.184 109.995 160.521 107.957 161.857 105.92C162.165 105.452 161.416 105.017 161.11 105.482V105.481Z" fill="#231F20"/>
</g>
<defs>
<clipPath id="clip0_1_9980">
<rect width="219.273" height="180" fill="white" transform="translate(0.363281)"/>
</clipPath>
</defs>
</svg>
