<svg width="24" height="24" viewBox="0 0 24 24" fill="none" xmlns="http://www.w3.org/2000/svg">
<path fill-rule="evenodd" clip-rule="evenodd" d="M12 24C18.6274 24 24 18.6274 24 12C24 5.37258 18.6274 0 12 0C5.37258 0 0 5.37258 0 12C0 18.6274 5.37258 24 12 24ZM14.4685 11.8259C15.1671 11.2993 15.6928 11.6113 15.8791 11.9819C16.2117 12.632 15.8391 12.9505 14.9941 13.4771C14.2755 13.9256 13.2975 14.1011 12.6654 14.1596L13.191 14.6862L15.1738 16.6235C15.4798 16.9225 15.4798 17.3971 15.1738 17.6766L15.0873 17.7806C14.7812 18.0731 14.2955 18.0731 13.9961 17.7806C13.4904 17.2865 12.7652 16.5779 12 15.8434L10.0239 17.7806C9.72446 18.0731 9.2321 18.0731 8.93268 17.7806L8.83953 17.6766C8.54012 17.3971 8.54012 16.9225 8.83953 16.6235C9.32834 16.1395 10.0406 15.4497 10.7824 14.7313L10.829 14.6862L11.3613 14.1661C10.7225 14.1011 9.73112 13.9321 9.00587 13.4771C8.16086 12.9505 7.78826 12.632 8.12094 11.9819C8.30724 11.6113 8.83288 11.2993 9.53151 11.8259C10.483 12.5669 12 12.5669 12 12.5669C12 12.5669 13.517 12.5669 14.4685 11.8259ZM13.6634 8.28941C13.6634 7.3988 12.9182 6.67071 12 6.67071C11.0818 6.67071 10.3366 7.3988 10.3366 8.28941C10.3366 9.18652 11.0818 9.90811 12 9.90811C12.9182 9.90811 13.6634 9.18652 13.6634 8.28941ZM15.3667 8.28941C15.3667 10.1096 13.863 11.5788 12 11.5788C10.137 11.5788 8.63327 10.1096 8.63327 8.28941C8.63327 7.41701 8.98798 6.58033 9.61936 5.96345C10.2507 5.34656 11.1071 5 12 5C12.8929 5 13.7493 5.34656 14.3806 5.96345C15.012 6.58033 15.3667 7.41701 15.3667 8.28941Z" fill="#56A5C4"/>
</svg>
