<svg width="210" height="160" viewBox="0 0 210 160" fill="none" xmlns="http://www.w3.org/2000/svg">
<g clip-path="url(#clip0_1_6966)">
<path fill-rule="evenodd" clip-rule="evenodd" d="M97.071 85.3928C97.071 84.9781 98.1123 82.8884 96.863 82.95C94.712 83.0548 89.2966 85.6811 85.5226 86.4228C80.6364 87.3822 75.8097 88.3757 70.9155 89.1665C66.8397 89.825 63.3525 90.4255 61.5695 89.8683C59.9431 89.3602 58.3886 85.6343 57.376 80.5196C56.6113 76.6582 56.1587 72.0255 55.6833 67.3038C55.4489 64.9852 55.1803 62.6266 54.9243 60.365C54.4226 55.927 53.2339 53.1332 53.7608 50.9775C54.8592 46.4883 64.0246 47.6699 65.4693 46.4268C66.2282 45.7739 67.2386 48.3068 67.4009 53.4352C67.49 56.254 69.2033 61.2958 70.5646 65.5822C71.6801 69.0927 72.4528 72.2294 72.7968 72.1007C73.6072 71.7987 75.4954 71.1254 76.9801 70.3677C80.3609 68.6426 85.0711 66.3992 90.0064 63.488C95.2606 60.39 100.769 56.6016 105.216 54.1815C109.237 51.9927 112.651 50.638 113.73 50.5229C116.012 50.2802 117.368 50.3269 119.164 50.2802C120.167 50.254 122.197 50.0934 122.456 50.0934C123.788 50.0934 121.888 52.052 121.286 55.5556C120.091 62.5093 117.235 77.1994 116.098 85.3939C114.337 98.081 113.047 116.056 113.047 116.056L99.4473 116.078C99.4473 116.078 99.0484 112.897 98.3957 109.961C97.2779 104.945 95.6172 98.6713 95.3737 95.9094C95.2343 94.3302 97.0733 87.0734 97.0733 85.3928H97.071Z" fill="white"/>
<path fill-rule="evenodd" clip-rule="evenodd" d="M136.627 116.118L145.446 62.5742L150.334 52.8826C150.334 52.8826 151.184 53.2005 152.193 54.1541C153.203 55.1078 154.211 56.1663 154.955 57.014C155.7 57.8606 157.294 58.1796 158.197 58.9202C159.1 59.6619 162.075 60.668 163.563 61.5681C165.05 62.4683 167.813 63.7398 168.61 64.7983C169.407 65.8579 170.629 66.3878 171.267 68.4535C171.904 70.5192 172.861 72.4254 173.126 74.1732C173.393 75.921 174.667 80.1573 174.826 82.9112C174.986 85.6651 175.516 90.8562 175.464 94.2983C175.41 97.7404 175.516 104.944 175.464 108.439C175.41 111.935 175.238 115.036 174.985 117.444C174.73 119.853 174.814 121.711 174.052 123.274C173.289 124.837 172.822 125.639 171.127 126.822C169.432 128.006 168.415 129.062 165.279 129.357C162.142 129.654 159.515 129.906 157.82 129.906C156.125 129.906 150.785 130.202 148.835 130.159C146.885 130.117 145.191 130.117 144.046 129.568C142.901 129.019 136.627 116.118 136.627 116.118Z" fill="white"/>
<path fill-rule="evenodd" clip-rule="evenodd" d="M113.101 116.233C113.101 116.233 113.821 102.066 116.213 85.5603C117.228 78.5599 118.376 70.6913 119.554 64.4656C121.154 56.0125 122.671 50.2085 122.671 50.2085C122.671 50.2085 124.758 49.5522 125.84 49.4097C126.921 49.2673 126.516 49.4314 129.233 50.1014C131.949 50.7725 144.693 49.2081 146.143 48.9472C147.593 48.6862 147.729 48.8002 148.408 49.7447C149.086 50.6893 149.737 51.3433 150.05 52.4474C150.365 53.5514 149.998 54.1314 149.73 55.3323C149.464 56.5332 148.711 57.4846 147.849 59.0775C146.986 60.6692 146.638 60.5336 146.068 62.098C145.498 63.6624 144.504 66.9894 144.248 69.1964C143.992 71.4045 141.102 82.3814 141.039 84.8653C140.978 87.3492 138.963 97.3211 138.701 100.369C138.438 103.417 136.776 116.254 136.776 116.254L113.1 116.233H113.101Z" fill="#56A5C4"/>
<path fill-rule="evenodd" clip-rule="evenodd" d="M111.948 20.7769C111.958 19.3196 111.94 17.9125 113.139 16.372C114.43 14.6492 116.174 13.4768 117.922 11.9398C120.22 9.9504 121.787 8.13877 125.36 6.88772C128.75 5.63553 137.35 4.60096 139.362 4.61464C143.657 4.64426 149.406 6.05027 154.04 10.1817C157.401 13.2113 160.378 18.6986 160.359 21.7055C160.353 22.5247 160.13 23.6664 160.026 25.3971C159.825 28.0382 158.347 31.6945 158.436 33.9403C158.156 37.2661 156.443 40.5989 154.32 42.137C151.411 44.246 147.85 43.9145 147.216 44.0683C146.391 44.3361 136.814 55.9875 134.646 52.2366C132.298 48.1211 112.444 37.7002 115.875 30.5255C116.802 28.6182 114.414 26.5741 114.141 26.2995C112.235 24.464 111.935 22.5076 111.948 20.7757V20.7769Z" fill="#57585A"/>
<path fill-rule="evenodd" clip-rule="evenodd" d="M152.622 30.0356C153.09 28.5818 153.087 29.0364 153.554 27.4914C154.399 24.2168 155.384 27.2305 154.734 28.7743C154.455 29.5013 151.97 32.0364 152.622 30.0356Z" fill="#231F20"/>
<path fill-rule="evenodd" clip-rule="evenodd" d="M154.72 30.6884C154.815 30.0515 155.367 29.5992 155.646 28.9634C156.018 28.0542 156.299 27.1461 156.67 26.2368C156.949 25.5999 157.307 26.696 157.306 26.8783C157.39 27.881 157.014 29.4271 156.459 30.3352C156.182 30.7887 154.621 31.8711 154.72 30.6884Z" fill="#231F20"/>
<path fill-rule="evenodd" clip-rule="evenodd" d="M122.862 11.3359C123.415 10.52 123.97 9.79426 124.886 9.34534C124.978 9.25533 127.179 8.26748 126.624 9.26558C125.976 10.3548 121.754 12.8774 122.862 11.3359Z" fill="#57585A"/>
<path fill-rule="evenodd" clip-rule="evenodd" d="M124.404 13.0769C123.679 12.0697 126.062 11.0841 126.982 10.2694C127.166 10.0883 128.174 9.82164 128.355 10.0051C128.806 10.8277 125.037 13.9918 124.404 13.0757V13.0769Z" fill="#57585A"/>
<path fill-rule="evenodd" clip-rule="evenodd" d="M112.737 34.6832C112.744 33.6817 113.936 33.1427 114.858 32.0557C115.411 31.3299 116.059 30.1495 115.973 29.238C115.717 26.5935 114.914 23.7644 115.204 21.4879C115.499 18.3922 116.975 16.3971 118.62 16.4085C119.809 16.4165 121.808 18.162 122.337 20.99C123.045 24.2748 122.282 28.8256 123.725 31.8427C125.076 34.7675 127.52 38.0649 131.994 38.9149C133.181 39.1052 136.091 41.221 135.899 42.586C135.899 42.586 136.271 41.6768 133.548 38.9251C132.731 38.1914 128.723 36.1587 128.088 35.4261C126.91 34.0508 126.19 32.4055 126.468 31.8609C126.561 31.5886 127.827 33.693 129.834 34.2536C131.568 34.7208 133.859 33.7341 135.787 32.5628C136.797 32.0227 138.276 29.6642 139.558 29.2175C140.382 28.9498 141.381 30.0504 141.561 30.5073C141.83 31.1476 141.818 32.8784 141.26 34.2411C140.61 35.7861 139.414 36.7797 139.414 36.8708C139.527 37.3471 141.829 40.6638 143.79 42.0664C145.903 43.5761 147.662 43.1956 147.105 44.2962C146.594 45.3057 146.2 49.2651 146.755 52.8029C146.906 53.7645 142.093 56.1732 137.937 58.8485C134.93 60.7855 132.415 63.3024 131.67 63.3992C130.545 63.5473 130.172 61.4839 129.78 60.5883C129.321 59.5401 126.656 55.8542 126.696 54.5302C126.765 52.2423 127.027 50.7178 127.336 50.1458C127.646 49.5727 126.621 49.4485 126.439 49.3562C124.246 49.2503 120.95 50.2302 119.852 50.2222C118.846 50.2153 117.204 49.7493 116.665 48.4698C115.404 45.7273 115.623 40.4439 114.455 37.5203C113.912 36.6965 112.73 35.6858 112.737 34.6832Z" fill="#FFF3ED"/>
<path fill-rule="evenodd" clip-rule="evenodd" d="M116.695 17.672C117.243 17.6754 118.249 17.5 118.974 18.5072C119.697 19.5144 121.229 22.8961 121.492 24.4468C121.847 25.9987 122.912 30.5608 123.363 31.4757C123.905 32.3907 122.742 28.6466 122.664 26.8236C122.586 25.0006 122.866 24.0913 122.511 22.4495C122.157 20.8065 122.164 19.805 121.44 18.7066C120.716 17.6082 120.539 16.969 119.535 16.5976C118.533 16.2261 117.984 16.2227 117.25 16.5816C116.701 16.8517 116.146 17.6675 116.695 17.6709V17.672Z" fill="#FABDA6"/>
<path fill-rule="evenodd" clip-rule="evenodd" d="M123.786 49.7026C123.786 49.7026 126.534 48.8105 128.003 48.0004C129.47 47.1903 131.31 45.4709 130.935 46.8359C130.749 47.2905 130.466 48.5644 130.094 49.4725C129.534 51.1086 129.344 52.2924 129.344 52.2924C129.344 52.2924 128.806 50.7395 128.261 50.3714C127.714 50.0034 126.437 49.9031 125.888 49.8086C125.341 49.6217 123.786 49.7026 123.786 49.7026Z" fill="#FABDA6"/>
<path fill-rule="evenodd" clip-rule="evenodd" d="M118.13 34.8119C118.045 33.9004 119.148 32.9969 120.519 32.8237C121.982 32.6516 123.167 33.3877 123.251 34.3003C123.337 35.2119 122.234 36.1154 120.861 36.2886C119.489 36.4618 118.214 35.7234 118.13 34.8119Z" fill="#FABDA6"/>
<path fill-rule="evenodd" clip-rule="evenodd" d="M112.645 34.9565C112.561 34.045 114.489 32.6914 115.136 31.6933C115.598 31.0587 115.496 32.516 115.305 33.7898C115.208 34.5179 115.112 35.2471 115.019 35.4282C114.833 35.974 114.642 37.1567 114.096 36.7887C113.549 36.4207 112.73 35.9592 112.646 34.9565H112.645Z" fill="#FABDA6"/>
<path fill-rule="evenodd" clip-rule="evenodd" d="M57.1747 52.7595C57.1747 52.7595 57.1016 50.9058 56.8558 50.172C56.609 49.4382 55.5597 47.9331 54.7402 47.4534C53.9207 46.9726 52.58 46.8655 51.8759 46.3026C51.1719 45.7398 50.7467 45.0994 50.5067 44.205C50.2655 43.3106 49.6415 43.4428 49.0368 42.8958C48.4322 42.3489 48.4196 41.8681 48.3465 41.0113C48.2733 40.1545 47.9087 39.8901 47.3567 39.2714C46.8058 38.6516 46.9029 38.0569 47.2915 37.061C47.6813 36.0663 47.599 35.7576 47.6847 34.4883C47.7716 33.2201 48.6139 31.6375 49.2677 30.2782C49.9203 28.9189 50.701 28.151 51.6028 27.9425C52.5057 27.734 54.7162 27.6383 55.45 27.5847C56.1838 27.5312 57.2627 27.6166 58.3714 27.8901C59.4801 28.1624 59.4138 27.9482 60.4047 28.6911C61.3957 29.4339 61.3545 30.1802 61.7557 30.4708C62.1569 30.7602 62.7615 30.5027 62.8141 31.2342C62.8667 31.9657 62.821 32.6812 62.1637 33.0105C61.5065 33.3409 62.1512 33.3341 62.078 34.0861C62.0049 34.8381 61.886 35.5001 61.7546 36.2931C61.6243 37.0861 61.9523 37.3231 61.0688 37.8506C60.1853 38.3782 59.7875 38.3121 60.0847 39.3592C60.3819 40.4051 60.8733 44.6699 60.8733 44.6699C60.8733 44.6699 61.2711 45.5392 62.0197 45.7739C62.7672 46.0087 63.6199 46.2901 64.4131 45.8093C65.2075 45.3284 65.2852 45.4128 65.3629 46.494C65.4406 47.5753 65.3206 49.0429 65.5263 49.7174C65.7321 50.3919 65.3378 51.3558 64.812 51.6976C64.2862 52.0395 63.3399 52.5761 62.4426 52.8165C61.5454 53.0569 60.8356 53.4591 59.7452 53.5047C58.6549 53.5503 57.1724 52.7573 57.1724 52.7573L57.1747 52.7595Z" fill="#D8E9F1"/>
<path opacity="0.5" fill-rule="evenodd" clip-rule="evenodd" d="M58.0138 27.6418L56.7097 19.1146L55.5576 19.0895L55.249 17.7314L62.1971 16.5088L62.5205 17.9273L61.3776 18.2179L65.954 44.0627C65.954 44.0627 65.41 45.1701 64.8693 45.4504C64.3287 45.7307 63.8247 46.0361 63.108 46.1022C62.3914 46.1694 61.709 45.6886 61.3593 45.1325C61.0096 44.5765 60.8164 43.4463 60.6495 42.4368C60.4838 41.4261 59.9912 38.8408 59.9912 38.8408C59.9912 38.8408 60.7741 37.8063 61.277 37.2172C61.7799 36.627 61.405 35.8226 61.7731 35.2005C62.1411 34.5784 62.4897 34.15 62.1331 33.5643C61.7765 32.9775 62.3491 32.9753 62.5754 32.2893C62.8006 31.6034 62.9914 31.1796 62.3457 30.7227C61.701 30.2658 61.1501 30.6441 61.0324 29.8454C60.9147 29.0478 61.1124 28.9384 60.4072 28.4952C59.702 28.0519 58.0161 27.6395 58.0161 27.6395L58.0138 27.6418Z" fill="white"/>
<path fill-rule="evenodd" clip-rule="evenodd" d="M58.014 27.6417L57.7705 26.05C57.7705 26.05 58.7912 25.2809 60.005 25.0849C61.2188 24.8889 62.6247 25.2661 62.6247 25.2661L65.953 44.0626C65.953 44.0626 65.4089 45.1701 64.8683 45.4504C64.3277 45.7306 63.8236 46.036 63.107 46.1021C62.3904 46.1693 61.708 45.6885 61.3583 45.1325C61.0085 44.5764 60.8154 43.4462 60.6485 42.4367C60.4828 41.426 59.9901 38.8408 59.9901 38.8408C59.9901 38.8408 60.7731 37.8062 61.276 37.2171C61.7789 36.6269 61.404 35.8225 61.772 35.2004C62.1401 34.5783 62.4887 34.1499 62.1321 33.5642C61.7754 32.9775 62.3481 32.9752 62.5744 32.2893C62.7995 31.6034 62.9904 31.1795 62.3446 30.7226C61.7 30.2657 61.1491 30.644 61.0314 29.8453C60.9137 29.0477 61.1114 28.9383 60.4062 28.4951C59.701 28.0519 58.0151 27.6394 58.0151 27.6394L58.014 27.6417Z" fill="#F0593E"/>
<path fill-rule="evenodd" clip-rule="evenodd" d="M124.168 116.319L130.803 108.994L131.894 109.307L132.65 110.458L129.501 114.352L124.168 116.319Z" fill="#F0593E"/>
<path fill-rule="evenodd" clip-rule="evenodd" d="M110.486 119.291L118.307 119.494L144.853 129.63L131.641 159.511L96.286 157.104L101.289 150.518L83.0928 148.548L110.486 119.291Z" fill="white"/>
<path fill-rule="evenodd" clip-rule="evenodd" d="M117.948 122.469C117.948 122.469 117.668 122.147 118.171 120.846C118.676 119.545 118.959 118.423 119.543 117.763C120.127 117.102 120.77 116.503 121.634 116.524C122.498 116.546 124.287 115.927 125.253 115.648C126.218 115.369 128.349 114.571 129.777 114.233C131.204 113.895 132.471 113.717 132.972 114.139C133.474 114.56 134.257 115.262 135.261 115.624C136.265 115.987 137.852 116.449 139.037 116.792C140.222 117.135 140.743 117.737 141.548 117.297C142.353 116.857 142.715 116.698 143.519 117.26C144.321 117.822 144.983 119.046 145.443 119.667C145.905 120.288 146.487 120.91 146.625 123.134C146.762 125.358 146.721 125.679 146.257 126.941C145.793 128.202 145.732 128.262 145.732 128.262C143.581 128.8 143.583 128.56 142.475 129.339C141.369 130.12 140.242 130.918 139.378 131.338C138.514 131.757 137.407 132.136 136.262 132.194C135.117 132.254 133.831 132.371 132.604 132.349C131.379 132.328 129.731 132.205 128.846 132.283C127.962 132.362 127.058 132.461 126.415 131.939C125.773 131.417 125.874 131.518 124.969 130.975C124.066 130.433 123.945 130.473 123.022 129.75C122.099 129.028 122.018 128.907 121.235 128.847C120.452 128.785 119.527 129.145 119.387 128.404C119.248 127.662 119.53 126.821 119.591 126.32C119.651 125.82 118.947 126.76 118.304 126.719C117.66 126.678 116.876 127.178 116.716 126.336C116.557 125.494 116.356 125.253 116.86 124.392C117.364 123.532 117.948 122.471 117.948 122.471V122.469Z" fill="#D8E9F1"/>
<path fill-rule="evenodd" clip-rule="evenodd" d="M116.357 125.885L116.861 126.659L118.813 126.617L116.756 128.71L112.704 131.159L114.846 127.224L116.358 125.885H116.357Z" fill="#F0593E"/>
<path opacity="0.5" fill-rule="evenodd" clip-rule="evenodd" d="M50.9778 103.824L51.1299 97.6469L50.0612 97.0989L49.9092 95.9732L50.8556 95.3955L56.8378 95.5174L57.6927 96.5212L56.6858 97.4954L56.5338 104.006L50.979 103.824H50.9778Z" fill="white"/>
<path opacity="0.5" fill-rule="evenodd" clip-rule="evenodd" d="M50.8863 105.619L56.4103 105.65L56.5017 123.115L50.8555 123.084L50.8863 105.619Z" fill="white"/>
<path fill-rule="evenodd" clip-rule="evenodd" d="M51.0082 124.94L56.3493 124.878L56.1973 127.038L55.2818 128.072L54.0611 128.316H52.6872L51.7717 127.768L51.1008 126.824L50.9785 125.881L51.0094 124.939L51.0082 124.94Z" fill="#F0593E"/>
<path opacity="0.5" fill-rule="evenodd" clip-rule="evenodd" d="M60.2152 103.899L60.3672 97.7221L59.2985 97.1741L59.1465 96.0484L60.0929 95.4707L66.0751 95.5926L66.9301 96.5964L65.9231 97.5706L65.7711 104.082L60.2163 103.9L60.2152 103.899Z" fill="white"/>
<path opacity="0.5" fill-rule="evenodd" clip-rule="evenodd" d="M60.1236 105.693L65.6476 105.724L65.739 123.189L60.0928 123.158L60.1236 105.693Z" fill="white"/>
<path fill-rule="evenodd" clip-rule="evenodd" d="M60.2446 125.014L65.5856 124.953L65.4336 127.113L64.5181 128.147L63.2974 128.391H61.9236L61.0081 127.843L60.3371 126.901L60.2148 125.957L60.2457 125.014H60.2446Z" fill="#F0593E"/>
<path opacity="0.5" fill-rule="evenodd" clip-rule="evenodd" d="M69.7884 103.75L69.9404 97.573L68.8717 97.0249L68.7197 95.8992L69.6661 95.3215L75.6484 95.4434L76.5033 96.4473L75.4963 97.4214L75.3443 103.932L69.7895 103.75H69.7884Z" fill="white"/>
<path opacity="0.5" fill-rule="evenodd" clip-rule="evenodd" d="M69.6969 105.544L75.2208 105.574L75.3123 123.038L69.666 123.009L69.6969 105.544Z" fill="white"/>
<path fill-rule="evenodd" clip-rule="evenodd" d="M69.8198 124.865L75.1608 124.804L75.0088 126.965L74.0933 127.999L72.8726 128.242H71.4988L70.5833 127.695L69.9123 126.752L69.79 125.809L69.8209 124.866L69.8198 124.865Z" fill="#F0593E"/>
<path opacity="0.5" fill-rule="evenodd" clip-rule="evenodd" d="M79.2122 103.899L79.3642 97.7221L78.2956 97.1741L78.1436 96.0484L79.0899 95.4707L85.0722 95.5926L85.9271 96.5964L84.9202 97.5706L84.7682 104.082L79.2134 103.9L79.2122 103.899Z" fill="white"/>
<path opacity="0.5" fill-rule="evenodd" clip-rule="evenodd" d="M79.1207 105.693L84.6446 105.724L84.7361 123.189L79.0898 123.158L79.1207 105.693Z" fill="white"/>
<path fill-rule="evenodd" clip-rule="evenodd" d="M79.2416 125.014L84.5827 124.953L84.4307 127.113L83.5152 128.147L82.2945 128.391H80.9206L80.0051 127.843L79.3342 126.901L79.2119 125.957L79.2428 125.014H79.2416Z" fill="#F0593E"/>
<path fill-rule="evenodd" clip-rule="evenodd" d="M51.0119 123.248L51.1799 108.732C51.1799 108.732 52.5595 108.367 53.4052 108.282C54.2499 108.198 55.4889 108.422 55.9118 108.619C56.3347 108.816 56.3061 109.097 56.4192 109.827C56.5312 110.557 56.5027 123.248 56.5027 123.248H51.0107H51.0119Z" fill="#F0593E"/>
<path fill-rule="evenodd" clip-rule="evenodd" d="M60.5029 123.219L60.6721 108.704C60.6721 108.704 62.0516 108.339 62.8974 108.255C63.7421 108.17 64.9811 108.395 65.404 108.591C65.8268 108.788 65.7983 109.068 65.9114 109.799C66.0234 110.528 65.996 123.219 65.996 123.219H60.5041H60.5029Z" fill="#F0593E"/>
<path fill-rule="evenodd" clip-rule="evenodd" d="M69.6846 123.275L69.8537 108.759C69.8537 108.759 71.2333 108.394 72.0791 108.309C72.9237 108.225 74.1627 108.451 74.5856 108.647C75.0085 108.844 74.9799 109.124 75.0919 109.853C75.2051 110.584 75.1765 123.274 75.1765 123.274H69.6846V123.275Z" fill="#F0593E"/>
<path fill-rule="evenodd" clip-rule="evenodd" d="M79.374 123.275L79.5432 108.759C79.5432 108.759 80.9227 108.394 81.7685 108.309C82.6143 108.225 83.8533 108.451 84.275 108.647C84.6979 108.844 84.6694 109.124 84.7825 109.853C84.8945 110.584 84.8671 123.274 84.8671 123.274H79.3752L79.374 123.275Z" fill="#F0593E"/>
<path d="M52.5172 21.8605C52.4623 21.8605 52.4063 21.8514 52.3514 21.8332C52.0783 21.742 51.9297 21.4469 52.0211 21.1746C52.1754 20.7131 52.5137 20.3064 52.8132 19.9486C52.9252 19.8142 53.0349 19.6831 53.1298 19.5532C53.3001 19.3208 53.6258 19.2695 53.859 19.4382C54.0922 19.6068 54.1436 19.9326 53.9744 20.1651C53.8681 20.3109 53.7436 20.4602 53.6167 20.6129C53.3652 20.9148 53.1047 21.227 53.0121 21.5039C52.9389 21.7215 52.7355 21.8605 52.516 21.8605H52.5172Z" fill="#231F20"/>
<path d="M53.5958 22.6671C53.51 22.6671 53.4232 22.6466 53.3432 22.601C53.0906 22.4609 53.0003 22.1441 53.1397 21.8935C53.5489 21.1586 53.7021 20.8635 53.7855 20.704C53.8964 20.4897 53.9089 20.4715 54.117 20.1605L54.1512 20.1092C54.3113 19.8699 54.6347 19.805 54.8759 19.9645C55.1159 20.124 55.181 20.4476 55.021 20.6869L54.9867 20.7393C54.8641 20.9223 54.7734 21.0701 54.7147 21.1825C54.6301 21.3454 54.4736 21.6474 54.0541 22.3994C53.9592 22.5703 53.7809 22.6671 53.5969 22.6671H53.5958Z" fill="#231F20"/>
<path d="M134.894 113.915C134.717 113.915 134.543 113.825 134.446 113.662L133.639 112.322C133.491 112.075 133.571 111.756 133.817 111.607C134.064 111.459 134.386 111.538 134.534 111.785L135.341 113.126C135.49 113.372 135.41 113.692 135.162 113.84C135.077 113.89 134.984 113.914 134.893 113.914L134.894 113.915Z" fill="#231F20"/>
<path d="M136.104 113.647C135.927 113.647 135.753 113.557 135.656 113.395L135.598 113.299C135.132 112.524 134.729 111.855 134.207 111.16C134.033 110.93 134.08 110.604 134.311 110.431C134.541 110.259 134.868 110.305 135.041 110.536C135.596 111.274 136.032 111.998 136.492 112.763L136.55 112.859C136.698 113.106 136.618 113.425 136.37 113.573C136.286 113.624 136.193 113.647 136.102 113.647H136.104Z" fill="#231F20"/>
<path d="M135.809 43.0154C135.553 43.0154 135.329 42.8274 135.293 42.5676C135.048 40.8369 132.198 39.7009 130.313 38.9489C129.866 38.7712 129.461 38.6094 129.133 38.4601C126.198 37.0234 124.132 34.7651 123.142 31.9223C122.354 29.8213 122.284 27.759 122.215 25.765C122.155 24.0514 122.095 22.2808 121.568 20.4988C121.122 19.1349 120.548 17.6275 119.428 17.1718C118.733 16.937 117.707 16.8482 116.918 17.8167C116.737 18.04 116.408 18.0742 116.184 17.893C115.959 17.7118 115.925 17.3837 116.107 17.1604C117.019 16.0403 118.329 15.6985 119.794 16.1964C121.357 16.8311 122.042 18.5892 122.565 20.1889C123.134 22.1122 123.197 23.95 123.258 25.7286C123.327 27.7271 123.392 29.615 124.124 31.5691C125.025 34.1589 126.911 36.2121 129.58 37.519C129.882 37.6569 130.271 37.8107 130.699 37.9816C132.935 38.8726 135.997 40.094 136.326 42.4218C136.366 42.7066 136.167 42.9698 135.881 43.0097C135.857 43.0131 135.832 43.0143 135.808 43.0143L135.809 43.0154Z" fill="#231F20"/>
<path d="M128.875 55.9281C128.854 55.9281 128.832 55.927 128.811 55.9247C128.524 55.8894 128.32 55.6296 128.356 55.3448C128.688 52.6319 128.452 50.908 127.655 50.2221C126.848 49.5282 125.405 49.9258 124.13 50.2745C123.863 50.3486 123.603 50.4192 123.358 50.4784C120.578 51.1803 116.957 51.1792 115.911 48.8639C115.227 47.4101 114.759 43.8153 114.384 40.9258C114.209 39.5825 114.058 38.4226 113.948 38.0249C113.812 37.5019 113.455 37.0952 113.078 36.6656C112.597 36.1176 112.053 35.4966 112.123 34.6409C112.218 33.922 112.844 33.3534 113.396 32.8509C113.596 32.6686 113.785 32.4955 113.904 32.3553C114.064 32.1502 114.228 31.9542 114.38 31.7731C115.023 31.0017 115.377 30.5756 115.449 29.4795C115.47 29.1411 115.351 28.4848 115.213 27.7248C114.701 24.9003 113.844 20.1729 116.731 16.1008C116.898 15.8661 117.223 15.8102 117.459 15.9754C117.694 16.1418 117.75 16.4665 117.585 16.7012C114.95 20.4179 115.758 24.8763 116.242 27.5391C116.397 28.3993 116.52 29.0784 116.493 29.5444C116.398 30.9812 115.862 31.6238 115.183 32.4385C115.038 32.6128 114.881 32.8008 114.716 33.0116C114.541 33.219 114.327 33.4138 114.101 33.62C113.722 33.9641 113.205 34.4358 113.162 34.7537C113.132 35.1252 113.409 35.4624 113.864 35.982C114.284 36.4605 114.76 37.004 114.956 37.7572C115.085 38.2186 115.232 39.3557 115.42 40.7948C115.766 43.4632 116.242 47.1172 116.86 48.431C117.698 50.2859 121.179 49.9566 123.105 49.4701C123.347 49.412 123.595 49.3436 123.853 49.273C125.303 48.8753 127.109 48.3797 128.336 49.4359C129.428 50.3759 129.773 52.3493 129.39 55.4724C129.358 55.7367 129.133 55.9304 128.872 55.9304L128.875 55.9281Z" fill="#231F20"/>
<path d="M149.322 44.1867C146.66 44.1867 143.003 43.0063 139.065 38.2528C138.881 38.0306 138.913 37.7024 139.136 37.5201C139.359 37.3367 139.687 37.3686 139.872 37.5896C143.652 42.1529 147.835 44.001 151.649 42.7887C155.348 41.6151 157.566 37.9782 157.777 35.1513C157.938 32.9831 158.37 30.9926 158.788 29.0658C159.577 25.4335 160.321 22.0039 158.89 18.3339C158.108 16.4482 157.219 14.8235 156.249 13.5155C150.875 6.14132 142.75 3.61757 131.411 5.79836C124.131 7.19753 121.9 9.12196 118.812 11.7836L118.749 11.8371C118.531 12.0251 118.2 12.0012 118.012 11.7836C117.823 11.566 117.847 11.2367 118.066 11.0487L118.128 10.9951C121.219 8.33123 123.66 6.22677 131.213 4.77405C142.995 2.50894 151.458 5.16714 157.091 12.8979C158.108 14.2709 159.041 15.9697 159.859 17.9443C161.409 21.9162 160.633 25.495 159.81 29.2846C159.4 31.176 158.974 33.1312 158.819 35.2265C158.542 38.9512 155.596 42.628 151.967 43.7788C151.271 43.9998 150.375 44.1833 149.324 44.1833L149.322 44.1867Z" fill="#231F20"/>
<path fill-rule="evenodd" clip-rule="evenodd" d="M118.428 31.5339C118.341 30.8958 118.802 30.2612 119.351 30.1734C119.9 30.0857 120.445 30.636 120.532 31.2752C120.619 31.9133 120.158 32.5479 119.608 32.6356C119.06 32.7234 118.514 32.2631 118.428 31.5339Z" fill="#231F20"/>
<path d="M121.354 31.5794C121.23 31.5794 121.109 31.5212 121.033 31.4141C120.794 31.0757 120.011 30.5311 119.326 30.4468C119.083 30.416 118.9 30.4525 118.782 30.5539C118.618 30.6952 118.371 30.6758 118.23 30.5129C118.088 30.35 118.107 30.1027 118.271 29.9626C118.559 29.7142 118.959 29.6151 119.423 29.6709C120.3 29.7791 121.296 30.4263 121.675 30.9629C121.8 31.1396 121.757 31.3834 121.58 31.5076C121.512 31.5554 121.433 31.5782 121.355 31.5782L121.354 31.5794Z" fill="#231F20"/>
<path d="M137.26 38.1354C137.093 38.1354 136.928 38.1229 136.765 38.0955C136.48 38.0488 136.287 37.781 136.333 37.4973C136.38 37.2136 136.646 37.0211 136.933 37.0678C137.979 37.2376 139.187 36.5801 140.08 35.3507C140.951 34.1521 141.645 32.1308 140.732 30.3784C140.523 30.0093 140.211 29.8554 139.763 29.9101C138.759 30.0332 137.505 31.1452 137.302 31.8858C137.225 32.1639 136.938 32.3268 136.66 32.2504C136.382 32.1741 136.218 31.8881 136.294 31.6112C136.593 30.522 138.15 29.059 139.635 28.8767C140.51 28.7685 141.225 29.1274 141.651 29.8828C142.59 31.6864 142.302 34.0666 140.926 35.9603C139.927 37.3344 138.56 38.1331 137.26 38.1331V38.1354Z" fill="#231F20"/>
<path d="M137.417 35.1513C137.352 35.1513 137.285 35.1354 137.225 35.1012C137.036 34.9952 136.97 34.7571 137.076 34.5691C137.554 33.7271 138.136 33.1255 138.962 32.6185C139.147 32.5057 139.388 32.5626 139.501 32.7461C139.615 32.9295 139.557 33.1699 139.373 33.2839C138.666 33.718 138.168 34.233 137.76 34.9542C137.688 35.0807 137.555 35.1525 137.418 35.1525L137.417 35.1513Z" fill="#231F20"/>
<path d="M130.881 34.8768C130.267 34.8768 129.669 34.7994 129.116 34.6387C127.471 34.159 126.381 33.0219 125.965 31.3493C125.895 31.0701 126.066 30.7876 126.347 30.7181C126.622 30.6497 126.909 30.8183 126.979 31.0986C127.304 32.4101 128.123 33.2646 129.409 33.6395C131.289 34.1875 133.891 33.5483 135.335 32.1845C135.544 31.9874 135.875 31.9953 136.073 32.2038C136.272 32.4123 136.263 32.7416 136.054 32.9399C134.762 34.1613 132.752 34.8768 130.881 34.8768Z" fill="#231F20"/>
<path d="M135.985 44.1104C135.969 44.1104 135.952 44.1104 135.936 44.1081C135.649 44.0807 135.438 43.8278 135.465 43.5407C135.719 40.8517 133.433 39.5437 131.013 38.1605C130.048 37.6079 129.134 37.086 128.391 36.4685C125.249 33.8057 124.441 28.7559 125.275 25.3549C125.343 25.0757 125.625 24.9059 125.905 24.972C126.185 25.0404 126.357 25.3218 126.289 25.601C125.52 28.7423 126.348 33.3682 129.063 35.6709C129.733 36.2269 130.608 36.7271 131.533 37.2569C134.012 38.6743 136.822 40.282 136.506 43.6375C136.481 43.9075 136.254 44.1092 135.986 44.1092L135.985 44.1104Z" fill="#231F20"/>
<path d="M121.386 26.933C121.297 26.933 121.207 26.9023 121.133 26.8407C120.708 26.4818 119.209 25.3846 117.761 26.2995C117.578 26.4135 117.335 26.361 117.22 26.1787C117.105 25.9964 117.158 25.7549 117.341 25.6398C118.622 24.832 120.229 25.0564 121.639 26.2448C121.803 26.3838 121.825 26.6299 121.684 26.7951C121.607 26.8863 121.497 26.933 121.385 26.933H121.386Z" fill="#231F20"/>
<path d="M116.68 42.2088C116.658 42.2088 116.638 42.2088 116.616 42.2088C116.4 42.2076 116.225 42.031 116.228 41.8157C116.229 41.6003 116.393 41.4203 116.622 41.4271C118.072 41.4454 118.89 41.0705 119.694 40.5156C119.872 40.3937 120.116 40.4382 120.239 40.6159C120.362 40.7936 120.317 41.0363 120.139 41.1594C119.058 41.9023 118.052 42.2088 116.68 42.2088Z" fill="#231F20"/>
<path d="M115.755 29.6288C115.545 29.6288 115.346 29.5012 115.267 29.2927C114.939 28.4324 114.405 27.7306 113.838 26.9888C113.418 26.4373 112.983 25.8677 112.61 25.2011C111.132 22.568 111.284 18.7977 112.972 16.2375C113.684 15.1574 114.696 14.3234 115.674 13.5178C116.615 12.743 117.503 12.0104 118.068 11.1194C118.223 10.8767 118.545 10.8038 118.79 10.9576C119.033 11.1114 119.106 11.4327 118.952 11.6765C118.297 12.7088 117.303 13.5281 116.34 14.3211C115.421 15.0776 114.472 15.8604 113.846 16.8106C112.384 19.029 112.245 22.4176 113.523 24.6941C113.861 25.2968 114.274 25.8369 114.673 26.3599C115.259 27.129 115.865 27.9231 116.247 28.9246C116.348 29.1935 116.213 29.4943 115.944 29.5969C115.883 29.6197 115.82 29.6311 115.758 29.6311L115.755 29.6288Z" fill="#231F20"/>
<path d="M146.802 53.164C146.563 53.164 146.347 53 146.294 52.7573C145.71 50.1652 145.562 46.3323 146.906 43.3528C147.024 43.0907 147.333 42.9733 147.597 43.0907C147.86 43.2081 147.977 43.5168 147.858 43.7789C146.621 46.5248 146.765 50.0991 147.312 52.5283C147.375 52.8086 147.198 53.0877 146.918 53.1504C146.879 53.1595 146.84 53.1629 146.802 53.1629V53.164Z" fill="#231F20"/>
<path fill-rule="evenodd" clip-rule="evenodd" d="M115.221 31.9235C116.852 31.4073 118.077 33.5255 119.383 34.1761C123.323 36.1392 127.778 35.3588 127.778 41.1138C127.778 42.1404 127.148 48.7944 126.486 49.1237C125.689 49.5214 120.487 50.5548 119.527 50.5548C113.345 50.5548 112.345 36.064 112.639 34.8905C112.788 34.3003 114.511 32.148 115.223 31.9224L115.221 31.9235Z" fill="#D8E9F1"/>
<path d="M119.527 51.0755C118.061 51.0755 116.761 50.3645 115.661 48.9607C112.395 44.7906 111.894 35.7119 112.132 34.7639C112.323 34.004 114.161 31.7115 115.064 31.4267C116.427 30.996 117.482 31.944 118.413 32.7803C118.837 33.1608 119.237 33.5209 119.616 33.71C120.637 34.2182 121.7 34.5383 122.728 34.8471C125.594 35.7074 128.299 36.5209 128.299 41.1138C128.299 41.1901 127.882 49.0097 126.718 49.5897C125.836 50.0306 120.556 51.0755 119.526 51.0755H119.527ZM115.73 32.3644C115.613 32.3644 115.498 32.3815 115.379 32.4191C114.897 32.5718 113.275 34.5292 113.145 35.018C112.935 35.8805 113.5 44.5388 116.499 48.3409C117.399 49.4803 118.389 50.0352 119.526 50.0352C120.463 50.0352 125.293 49.053 126.184 48.6896C126.65 47.8863 127.256 42.3682 127.256 41.1149C127.256 37.2957 125.23 36.6872 122.428 35.8452C121.357 35.5239 120.249 35.1912 119.149 34.6432C118.642 34.3902 118.169 33.9664 117.712 33.5551C116.93 32.8532 116.336 32.3655 115.729 32.3655L115.73 32.3644Z" fill="#231F20"/>
<path d="M127.275 37.2718C127.072 37.2718 126.879 37.1533 126.795 36.9562C126.68 36.6919 126.804 36.3854 127.069 36.2726C128.698 35.5764 130.301 34.8392 131.705 34.1397C131.963 34.0109 132.277 34.1157 132.405 34.3732C132.535 34.6307 132.429 34.9429 132.172 35.0717C130.75 35.7804 129.127 36.5267 127.48 37.2297C127.414 37.2582 127.343 37.2718 127.275 37.2718Z" fill="#231F20"/>
<path d="M127.849 45.0675C127.56 45.0675 127.327 44.834 127.327 44.5468C127.327 44.2597 127.56 44.0261 127.849 44.0261C131.617 44.0261 136.81 41.1731 139.462 38.5286C139.667 38.3246 139.997 38.3246 140.2 38.5286C140.404 38.7325 140.405 39.0618 140.2 39.2646C137.339 42.1165 131.938 45.0675 127.849 45.0675Z" fill="#231F20"/>
<path d="M121.105 40.4187C120.893 40.4187 120.693 40.2877 120.615 40.0769C120.516 39.8069 120.655 39.5072 120.926 39.4092C122.123 38.9729 122.708 38.7769 123.058 38.6595C123.377 38.5524 123.757 38.3884 124.199 38.1673L124.532 38.001C124.79 37.8733 125.104 37.9759 125.233 38.2334C125.362 38.4909 125.257 38.8031 124.999 38.9318L124.668 39.0971C123.954 39.4548 123.93 39.4651 123.39 39.6451C123.045 39.7613 122.467 39.955 121.285 40.3857C121.225 40.4073 121.165 40.4176 121.105 40.4176V40.4187Z" fill="#231F20"/>
<path d="M122.541 42.7784C122.405 42.7784 122.269 42.726 122.167 42.6212C121.966 42.415 121.969 42.0857 122.176 41.8851C123.496 40.6033 123.992 40.1259 124.256 39.873C124.453 39.6838 124.735 39.407 125.101 39.0424L125.483 39.3978L125.839 39.7784C125.468 40.1491 125.181 40.4305 124.981 40.6227C124.718 40.8756 124.222 41.3519 122.905 42.6314C122.804 42.7306 122.672 42.7796 122.541 42.7796V42.7784Z" fill="#231F20"/>
<path opacity="0.5" fill-rule="evenodd" clip-rule="evenodd" d="M147.617 43.903C144.617 43.8313 142.167 39.5152 139.905 37.8232C133.728 33.2053 128.394 27.5687 121.895 23.4464C120.065 22.2854 116.802 21.1437 114.577 21.5869C113.95 21.7111 112.718 23.4533 112.282 23.0169C111.597 22.3344 112.066 20.0932 112.066 19.2261C112.066 18.0879 111.422 17.4475 111.277 16.4369C110.923 13.9667 113.446 11.4771 114.937 9.85691C120.411 3.9036 128.246 1.21806 136.103 0.844337C138.215 0.744071 140.844 0.265527 142.919 0.700774C146.214 1.39238 150.83 2.68217 153.538 4.70573C158.959 8.75968 160.557 16.0233 162.004 22.1578C162.764 25.3765 163.42 28.7093 162.864 32.0283C162.371 34.9782 160.741 37.1009 159.565 39.6805C158.483 42.0515 157.846 44.5365 155.69 46.1898C154.223 47.3155 152.14 47.7291 150.739 46.3322C149.784 45.3797 149.57 43.9463 147.618 43.9008L147.617 43.903Z" fill="#D8E9F1"/>
<path d="M148.37 44.2813C146.887 44.2813 145.094 41.7998 145.075 41.7747C144.172 40.5134 143.064 39.2977 141.993 38.1229C141.198 37.2513 140.377 36.3501 139.639 35.4317C134.954 29.5935 128.053 24.2486 121.177 21.1324C118.408 19.8779 114.666 18.8467 112.551 19.3754C112.272 19.4461 111.988 19.2752 111.918 18.9971C111.848 18.718 112.019 18.4354 112.297 18.3659C114.821 17.7381 118.89 18.9527 121.609 20.1855C128.628 23.3656 135.673 28.8221 140.455 34.7822C141.171 35.6744 141.981 36.5631 142.765 37.4234C143.858 38.6209 144.986 39.8594 145.926 41.1708C146.545 42.0356 147.774 43.2411 148.37 43.2411C148.66 43.2411 148.893 43.4747 148.893 43.7618C148.893 44.0489 148.66 44.2825 148.37 44.2825V44.2813Z" fill="#231F20"/>
<path d="M131.248 63.9472C130.832 63.9472 130.595 63.4527 129.849 61.7789C129.787 61.6399 129.741 61.5373 129.724 61.502C129.345 60.8013 128.874 60.1245 128.417 59.4694C127.606 58.3072 126.77 57.1063 126.341 55.6399C125.806 53.8111 126.061 52.6877 126.356 51.3865C126.468 50.8932 126.583 50.3839 126.675 49.7754C126.718 49.4917 126.98 49.2935 127.269 49.3379C127.554 49.3812 127.751 49.6455 127.708 49.9304C127.611 50.5764 127.485 51.129 127.375 51.6167C127.091 52.8711 126.885 53.7781 127.344 55.3493C127.725 56.6516 128.478 57.7318 129.275 58.8757C129.748 59.5548 130.237 60.2567 130.648 61.0155C130.665 61.0474 130.723 61.175 130.804 61.3573C131.117 62.058 131.346 62.5468 131.49 62.8169C132.391 62.4876 133.447 61.6695 134.314 60.9973C134.56 60.8059 134.792 60.627 135.002 60.472C137.193 58.8575 139.575 57.382 141.878 55.9543C142.845 55.355 143.811 54.7568 144.761 54.1495C145.563 53.6368 147.008 52.2673 147.027 51.3637C147.031 51.1951 146.993 50.9729 146.67 50.7462C146.434 50.581 146.377 50.2562 146.543 50.0204C146.71 49.7857 147.034 49.7287 147.271 49.8939C147.808 50.2699 148.085 50.7861 148.072 51.3854C148.039 52.9452 146.027 54.5768 145.325 55.0257C144.371 55.6353 143.402 56.2358 142.43 56.8385C140.144 58.2548 137.781 59.72 135.624 61.3095C135.419 61.461 135.194 61.6342 134.955 61.8199C133.903 62.6346 132.594 63.6498 131.411 63.9278C131.354 63.9415 131.299 63.9483 131.249 63.9483L131.248 63.9472Z" fill="#231F20"/>
<path d="M120.624 66.6874C120.593 66.6874 120.562 66.6828 120.528 66.6783C120.387 66.6601 120.259 66.5837 120.176 66.4709C119.907 66.1086 120.033 65.5264 120.676 63.4094C120.834 62.8887 120.999 62.3509 121.026 62.1686C121.441 59.4067 121.745 56.5935 121.929 53.8066C121.952 53.4568 122.048 53.0409 122.151 52.6023C122.294 51.9847 122.472 51.2168 122.355 50.8601C122.266 50.5867 122.416 50.2927 122.69 50.2038C122.964 50.1138 123.259 50.2642 123.349 50.5377C123.554 51.1689 123.358 52.0166 123.168 52.837C123.077 53.2346 122.988 53.6095 122.971 53.8761C122.785 56.6915 122.478 59.5343 122.059 62.3247C122.022 62.5696 121.889 63.0117 121.676 63.7136C121.572 64.0554 121.425 64.5408 121.304 64.9829C121.527 64.8085 121.788 64.6023 122.088 64.3665C122.212 64.2673 122.294 64.2035 122.304 64.1967C122.987 63.6931 123.655 63.0687 124.299 62.4648C125.172 61.649 126.072 60.8059 127.081 60.1838C127.657 59.8294 129.471 59.1708 130.223 60.1849C130.395 60.4162 130.346 60.7421 130.114 60.913C129.882 61.085 129.554 61.0349 129.383 60.8036C129.19 60.5438 128.158 60.7443 127.63 61.0691C126.71 61.6353 125.848 62.442 125.014 63.2225C124.347 63.8469 123.657 64.4929 122.923 65.033L122.735 65.1823C121.049 66.5131 120.826 66.6885 120.624 66.6885V66.6874Z" fill="#231F20"/>
<path d="M141.057 72.1189C140.793 72.1189 140.517 71.744 139.443 70.2913C139.282 70.0737 139.16 69.9073 139.123 69.8617C137.752 68.2985 137.059 66.7478 136.327 65.1048C136.051 64.4872 135.767 63.8492 135.436 63.1918C135.18 62.6813 134.444 62.3737 134.003 62.5924C133.746 62.7212 133.431 62.6164 133.302 62.36C133.173 62.1025 133.278 61.7903 133.535 61.6616C134.011 61.4257 134.606 61.42 135.169 61.6502C135.697 61.8655 136.136 62.2575 136.37 62.7269C136.711 63.406 137 64.0554 137.28 64.6832C138.01 66.3194 138.641 67.7334 139.914 69.1838C139.945 69.2191 140.09 69.414 140.284 69.6749C140.398 69.8298 140.57 70.0634 140.749 70.3015C140.746 70.2001 140.752 70.0965 140.768 69.9962C140.982 68.7235 141.646 67.4428 142.127 66.5894C142.579 65.7896 143.124 65.0421 143.652 64.3198C143.962 63.8959 144.27 63.4732 144.559 63.0414C144.804 62.6756 145.101 62.2552 145.429 61.7926C147.442 58.9521 150.813 54.1997 148.925 51.513C148.799 51.3318 148.671 51.1268 148.538 50.9137C148.055 50.1355 147.555 49.3311 146.849 49.3311C146.56 49.3311 146.326 49.0975 146.326 48.8104C146.326 48.5232 146.56 48.2897 146.849 48.2897C148.137 48.2897 148.852 49.4405 149.426 50.3656C149.548 50.5616 149.665 50.7508 149.782 50.9171C152.09 54.2042 148.595 59.1332 146.282 62.3953C145.959 62.8488 145.667 63.2624 145.427 63.6202C145.13 64.0634 144.813 64.4986 144.494 64.9339C143.984 65.6323 143.456 66.3536 143.035 67.101C142.592 67.886 141.982 69.0573 141.796 70.1682C141.779 70.2685 141.799 70.4485 141.817 70.6069C141.865 71.0239 141.944 71.7201 141.328 72.0277C141.22 72.0824 141.136 72.12 141.052 72.12L141.057 72.1189Z" fill="#231F20"/>
<path d="M99.3514 116.845C99.0634 116.845 98.8291 116.612 98.8291 116.324C98.8291 113.004 97.8827 109.596 96.9672 106.301C96.1797 103.465 95.3648 100.533 95.1202 97.5923C94.799 93.748 95.5648 89.8911 96.3066 86.1608C96.5774 84.798 96.8575 83.3898 97.0735 82.0225C97.1512 81.5303 97.2689 80.9515 97.4061 80.2815C97.9947 77.3943 98.8828 73.0316 97.2209 71.3737C97.0163 71.1698 97.0163 70.8405 97.2209 70.6377C97.4255 70.4338 97.7558 70.4338 97.9593 70.6377C100.019 72.692 99.1011 77.1983 98.4302 80.49C98.2965 81.1486 98.181 81.716 98.1056 82.1866C97.8861 83.5732 97.6038 84.9917 97.3318 86.3647C96.6049 90.0233 95.8528 93.8083 96.1625 97.5079C96.4003 100.351 97.2015 103.236 97.9764 106.024C98.9102 109.386 99.876 112.864 99.876 116.325C99.876 116.613 99.6417 116.846 99.3537 116.846L99.3514 116.845Z" fill="#231F20"/>
<path d="M68.6633 82.305C68.5856 82.305 68.5067 82.2879 68.4336 82.2515C68.1741 82.1239 68.0678 81.8117 68.1958 81.5542C68.6405 80.6541 69.1776 79.7984 69.6977 78.9712C70.3229 77.9765 70.9687 76.9465 71.443 75.8515C71.6556 75.3593 71.7344 74.7281 71.8099 74.1162C71.8979 73.4075 71.9882 72.6738 72.2899 72.0631C72.6225 71.3897 73.6855 71.0615 75.1485 70.673C75.5599 70.5636 75.9851 70.4508 76.1554 70.3676C78.9065 69.0368 81.6474 67.542 84.299 66.0972L86.0798 65.1276C89.1166 63.48 92.078 61.5305 94.9411 59.6448C99.0535 56.9365 103.305 54.1348 107.919 52.1328C110.321 51.0914 112.319 50.4705 114.209 50.1811C114.778 50.0933 115.374 50.0922 115.95 50.0899C116.747 50.0876 117.499 50.0854 118.13 49.8723C118.403 49.78 118.699 49.9247 118.792 50.1982C118.885 50.4705 118.739 50.7656 118.466 50.859C117.672 51.1279 116.798 51.1302 115.952 51.1325C115.39 51.1336 114.858 51.1359 114.367 51.2111C112.568 51.4868 110.651 52.0839 108.336 53.0888C103.805 55.0554 99.5907 57.8309 95.5161 60.5142C92.6346 62.4124 89.6549 64.3745 86.5781 66.0425L84.7985 67.011C82.1365 68.4626 79.3832 69.9632 76.6092 71.3054C76.3486 71.4318 75.936 71.5412 75.4148 71.6791C74.8079 71.8397 73.3883 72.2169 73.2237 72.5234C72.9997 72.9757 72.9231 73.5921 72.8431 74.2427C72.7585 74.9275 72.6717 75.635 72.3985 76.264C71.8922 77.4319 71.2247 78.4938 70.5801 79.5226C70.0509 80.3658 69.5514 81.1611 69.1296 82.0145C69.0393 82.1979 68.853 82.305 68.661 82.305H68.6633Z" fill="#231F20"/>
<path d="M64.2625 90.6955C62.8429 90.6955 61.4851 90.479 60.3376 89.8626C58.3488 88.7927 57.6813 85.0817 57.239 82.6252C57.1876 82.3381 57.1396 82.0737 57.0938 81.839C56.3418 77.9583 55.944 73.9692 55.56 70.1113C55.1782 66.2841 54.7851 62.3258 54.0433 58.5066C53.9975 58.2719 53.9427 58.0053 53.8821 57.7147C53.2741 54.7933 52.1425 49.355 55.4343 48.3728C55.7108 48.2897 56.0023 48.4469 56.0846 48.7226C56.1669 48.9984 56.0103 49.2878 55.7337 49.371C53.3598 50.0785 54.3644 54.9084 54.9051 57.5039C54.9668 57.8002 55.0228 58.0702 55.0696 58.3095C55.8194 62.1766 56.216 66.1587 56.6001 70.0087C56.9818 73.8428 57.3761 77.8078 58.1202 81.6419C58.1659 81.88 58.2151 82.1489 58.2677 82.4417C58.6494 84.5633 59.2883 88.1159 60.8336 88.9465C63.1607 90.1976 66.7473 89.5174 69.6298 88.9716C70.0905 88.8839 70.5294 88.8007 70.9408 88.73L72.3832 88.4828C77.1357 87.6704 82.0493 86.8295 86.7366 85.4326C87.6063 85.1729 88.5756 84.8117 89.602 84.4277C92.0365 83.5173 94.8047 82.4964 97.0941 82.5568C97.3821 82.5659 97.6096 82.8064 97.6004 83.0935C97.5913 83.3806 97.3604 83.5937 97.0621 83.5982C94.983 83.5401 92.3131 84.5257 89.9688 85.403C88.9253 85.7927 87.9401 86.1607 87.036 86.4308C82.2881 87.8459 77.3425 88.6924 72.5604 89.5094L71.1191 89.7566C70.7134 89.8273 70.279 89.9082 69.8253 89.9948C68.096 90.3218 66.1278 90.6955 64.2625 90.6955Z" fill="#231F20"/>
<path d="M59.329 53.8875C58.5141 53.8875 57.7232 53.7826 57.0134 53.5582C55.1447 52.9668 54.0691 51.644 53.9868 49.8335C53.9743 49.5464 54.1971 49.3025 54.4852 49.29C54.7652 49.2798 55.0178 49.4997 55.0304 49.7868C55.0932 51.1689 55.867 52.1043 57.33 52.5669C59.8377 53.3599 63.6403 52.4199 65.0038 50.6687C65.5479 49.9702 66.3708 48.3398 66.0759 47.5775C66.0211 47.4351 65.8954 47.238 65.4439 47.1594C65.1593 47.1104 64.9696 46.8403 65.0198 46.5566C65.0701 46.274 65.3387 46.086 65.6245 46.1339C66.5217 46.29 66.8954 46.8016 67.0509 47.2027C67.5869 48.5847 66.3171 50.6823 65.8302 51.3079C64.6061 52.8802 61.8573 53.8886 59.3313 53.8886L59.329 53.8875Z" fill="#231F20"/>
<path d="M72.5684 72.8789C72.3433 72.8789 72.1364 72.733 72.0678 72.5074C72.0153 72.3308 71.8907 71.9491 71.7158 71.4079C70.5374 67.7721 66.9519 56.7075 66.8182 52.2753C66.8125 52.0975 66.8125 51.8753 66.8125 51.6201C66.8113 50.066 66.8079 46.8335 65.3415 46.788C65.0535 46.7788 64.8272 46.5384 64.8352 46.2513C64.8443 45.9642 65.0626 45.7283 65.3735 45.7477C67.8514 45.8252 67.8549 49.5943 67.8572 51.6201C67.8572 51.8628 67.8572 52.0759 67.8629 52.2445C67.992 56.5297 71.5432 67.4873 72.7102 71.0889C72.8885 71.6403 73.0153 72.03 73.0691 72.21C73.1514 72.4858 72.9948 72.7763 72.7182 72.8583C72.669 72.8732 72.6176 72.88 72.5684 72.88V72.8789Z" fill="#231F20"/>
<path d="M65.602 50.8989C65.3768 50.8989 65.17 50.753 65.1014 50.5274C64.8076 49.5487 64.8031 48.5506 64.7996 47.5867C64.7974 46.9999 64.7951 46.445 64.7311 45.9004C64.6979 45.6144 64.9025 45.3557 65.1894 45.3227C65.4774 45.2885 65.7357 45.4936 65.7689 45.7796C65.8397 46.3823 65.842 46.9919 65.8443 47.581C65.8477 48.513 65.8523 49.3926 66.1026 50.2278C66.1849 50.5035 66.0283 50.7929 65.7517 50.8761C65.7014 50.8909 65.6511 50.8977 65.602 50.8977V50.8989Z" fill="#231F20"/>
<path d="M57.2693 52.9521C57.003 52.9521 56.7755 52.7493 56.7492 52.4804C56.5115 49.9498 55.7651 48.5677 54.1707 47.7109C53.861 47.5434 53.4712 47.4249 53.0586 47.2996C52.3843 47.0933 51.6871 46.8814 51.1681 46.4097C50.6127 45.9038 50.3875 45.1324 50.2058 44.5115C50.1178 44.2095 50.008 43.8347 49.912 43.7333C49.84 43.6569 49.6606 43.6068 49.4708 43.5555C49.1382 43.4644 48.6845 43.339 48.3553 42.9266C47.793 42.2202 47.8501 41.508 47.8924 40.9873C47.9141 40.7128 47.9336 40.4746 47.8581 40.3333C47.7907 40.208 47.6032 40.0884 47.4032 39.963C47.1278 39.7887 46.8146 39.5916 46.6134 39.2532C46.1174 38.4203 46.73 36.9243 47.3301 35.8157C47.3598 35.7416 47.2809 35.459 47.2375 35.3075C47.1632 35.0443 47.0798 34.7469 47.1129 34.4507C47.3198 32.6561 49.0194 28.6443 50.8984 27.6508C51.6871 27.2326 52.7489 27.2566 53.7764 27.2816C54.3776 27.2953 54.9456 27.309 55.3822 27.2292C56.6772 26.9945 59.9061 27.2395 61.2045 28.5247C61.6868 29.0032 61.8834 29.5923 61.7714 30.2304C61.7211 30.5141 61.4548 30.7055 61.1668 30.6531C60.8822 30.6041 60.6924 30.334 60.7427 30.0503C60.7953 29.7507 60.7085 29.5 60.4684 29.263C59.5175 28.3207 56.7229 28.045 55.5697 28.2535C55.0291 28.3515 54.4084 28.3378 53.7524 28.3219C52.8586 28.3002 51.9362 28.2797 51.3876 28.5703C49.9898 29.3097 48.3485 32.8521 48.1507 34.5692C48.1404 34.6615 48.1964 34.8631 48.2422 35.0249C48.3496 35.4043 48.4822 35.8772 48.2479 36.3102C47.5998 37.5065 47.3632 38.475 47.5095 38.7211C47.5827 38.8442 47.7667 38.9604 47.961 39.0823C48.2525 39.2669 48.5828 39.4754 48.7794 39.8445C48.9977 40.2547 48.9622 40.6877 48.9325 41.0694C48.8971 41.5115 48.8662 41.8932 49.1725 42.2783C49.2834 42.4173 49.464 42.472 49.7486 42.5506C50.0538 42.6349 50.4001 42.7306 50.6732 43.02C50.9407 43.3037 51.0653 43.7299 51.2082 44.2209C51.3602 44.7416 51.5328 45.333 51.8711 45.6406C52.2162 45.9551 52.7729 46.1249 53.3626 46.3037C53.8061 46.4393 54.2644 46.5783 54.6656 46.7948C57.0773 48.0914 57.5973 50.3474 57.7882 52.3835C57.8145 52.6707 57.6042 52.9236 57.3173 52.9509C57.3001 52.9521 57.2841 52.9532 57.2681 52.9532L57.2693 52.9521Z" fill="#231F20"/>
<path d="M62.2347 48.5187C62.0095 48.5187 61.8026 48.3728 61.734 48.1472C60.6448 44.516 58.8561 42.5323 56.265 42.0811C55.9804 42.0321 55.7906 41.7621 55.8398 41.4784C55.8901 41.1958 56.161 41.0067 56.4444 41.0545C59.463 41.5798 61.5203 43.8027 62.7341 47.8487C62.8164 48.1244 62.6598 48.4138 62.3832 48.497C62.3329 48.5118 62.2827 48.5187 62.2335 48.5187H62.2347Z" fill="#231F20"/>
<path d="M54.7628 43.363C54.7034 43.363 54.6416 43.3527 54.5822 43.3311C54.3113 43.232 54.173 42.9323 54.2725 42.6623C54.9617 40.7971 56.2955 40.1385 57.5859 39.5016C58.4054 39.0971 59.1792 38.7154 59.8364 38.0272C60.0581 37.7959 60.2947 37.6022 60.5027 37.4325C61.16 36.8958 61.3783 36.6748 61.1771 36.0082C61.0948 35.7325 61.2514 35.4431 61.528 35.3599C61.8034 35.2767 62.0949 35.434 62.1783 35.7097C62.5887 37.0758 61.7989 37.7207 61.1645 38.238C60.9702 38.3964 60.7691 38.5616 60.593 38.7462C59.8078 39.5677 58.914 40.0086 58.05 40.4359C56.8418 41.0318 55.7995 41.5468 55.2531 43.0234C55.1754 43.2342 54.9754 43.3641 54.7628 43.3641V43.363Z" fill="#231F20"/>
<path d="M50.7479 41.9136C50.6645 41.9136 50.5787 41.8931 50.4999 41.8509C50.2461 41.7142 50.1513 41.3986 50.2884 41.1456C52.3218 37.3891 55.1254 36.7442 58.3715 35.9967C59.2275 35.7996 60.1133 35.5968 61.0254 35.3245C61.302 35.2413 61.5923 35.3986 61.6758 35.6743C61.7581 35.95 61.6015 36.2394 61.3249 36.3226C60.3808 36.604 59.479 36.8114 58.6069 37.0119C55.4843 37.7298 53.0178 38.2972 51.2085 41.6401C51.1136 41.8145 50.9342 41.9136 50.7479 41.9136Z" fill="#231F20"/>
<path d="M49.2451 38.5479C49.1274 38.5479 49.0097 38.508 48.9114 38.4283C48.6896 38.2448 48.6588 37.9167 48.8428 37.6945C49.0131 37.4906 49.1925 37.2376 49.3834 36.971C49.9103 36.2327 50.5081 35.3952 51.307 34.9725C53.3289 33.9026 56.4149 33.3865 58.6677 33.0093L58.7283 32.9991C59.9272 32.7986 62.0303 32.6174 62.6315 33.6577C63.1378 34.535 62.2783 35.5684 61.996 35.908C61.812 36.1301 61.4828 36.1609 61.2599 35.9763C61.0382 35.7929 61.0073 35.4647 61.1914 35.2426C61.7286 34.5965 61.7754 34.2627 61.7251 34.1761C61.5925 33.9471 60.6027 33.7397 58.9009 34.0245L58.8403 34.0348C56.6572 34.3994 53.6684 34.8996 51.7962 35.8897C51.2156 36.1974 50.6944 36.9277 50.2338 37.5726C50.0315 37.8563 49.8406 38.1229 49.6463 38.3576C49.5434 38.4818 49.3937 38.5456 49.244 38.5456L49.2451 38.5479Z" fill="#231F20"/>
<path d="M48.3116 36.0571C48.2613 36.0571 48.2099 36.0492 48.1584 36.0344C47.883 35.95 47.7275 35.6584 47.8121 35.3838C49.3334 30.4343 54.2939 30.2223 58.2782 30.0526L58.8268 30.0286C58.9583 30.0229 59.1149 30.0115 59.2886 30.0001C60.6944 29.9033 62.018 29.8611 62.7632 30.4103C63.3153 30.8171 63.417 31.3036 63.4056 31.6397C63.3747 32.5604 62.4615 33.383 61.9277 33.7225C61.6854 33.8775 61.3619 33.8069 61.2065 33.5642C61.051 33.3215 61.1219 33.0002 61.3654 32.8452C61.8363 32.5444 62.3495 31.9747 62.362 31.6033C62.3643 31.5463 62.3689 31.4141 62.1426 31.2466C61.6454 30.8798 60.1607 30.9834 59.3618 31.0381C59.1789 31.0507 59.0143 31.0621 58.8748 31.0689L58.3239 31.0928C54.4779 31.2569 50.1175 31.4438 48.8122 35.6891C48.7436 35.9136 48.5368 36.0571 48.3127 36.0571H48.3116Z" fill="#231F20"/>
<path d="M124.654 115.166C124.637 115.166 124.619 115.166 124.601 115.164C124.314 115.135 124.104 114.88 124.132 114.594C124.461 111.309 124.739 107.956 125.009 104.715C125.504 98.7647 126.016 92.6108 126.854 86.5801C127.316 83.2508 127.965 79.8953 128.591 76.6503C129.412 72.4049 130.26 68.0137 130.694 63.6601C130.723 63.3741 130.986 63.1667 131.266 63.1941C131.553 63.2226 131.763 63.4778 131.734 63.7638C131.295 68.1652 130.443 72.5792 129.618 76.8474C128.992 80.0798 128.348 83.4217 127.888 86.7225C127.055 92.7259 126.544 98.865 126.05 104.801C125.779 108.047 125.501 111.404 125.173 114.698C125.145 114.967 124.919 115.167 124.654 115.167V115.166Z" fill="#231F20"/>
<path d="M152.296 130.765C148.029 130.765 144.265 130.481 142.944 129.911C142.679 129.797 142.558 129.49 142.672 129.226C142.787 128.963 143.095 128.841 143.359 128.955C146.285 130.22 163.085 129.936 167.402 128.163C170.202 127.014 173.396 124.788 173.961 121.991C174.395 119.842 177.602 73.9272 168.607 65.6962C166.463 63.7342 161.841 61.4862 158.467 59.8454C157.652 59.4489 156.906 59.0866 156.28 58.7699C154.71 57.9746 153.886 56.9525 153.089 55.9647C152.306 54.9939 151.568 54.0779 150.119 53.4318C149.855 53.3145 149.738 53.0068 149.855 52.7436C149.973 52.4816 150.281 52.3631 150.546 52.4816C152.224 53.2301 153.077 54.2886 153.903 55.3118C154.664 56.2552 155.383 57.1462 156.753 57.8401C157.376 58.1557 158.116 58.5158 158.925 58.9089C162.357 60.5781 167.058 62.8637 169.314 64.9283C178.801 73.6093 175.444 119.932 174.986 122.196C174.339 125.396 170.851 127.874 167.8 129.126C165.148 130.215 158.234 130.765 152.296 130.765Z" fill="#231F20"/>
<path d="M159.086 112.523C159.03 112.523 158.973 112.514 158.918 112.494C158.645 112.402 158.499 112.106 158.593 111.833C158.733 111.421 158.604 110.772 158.49 110.198C158.427 109.881 158.366 109.58 158.342 109.296C158.232 108.006 158.098 106.716 157.963 105.428C157.875 104.576 157.786 103.723 157.705 102.87C157.519 100.945 157.355 98.988 157.196 97.0943C157.044 95.2941 156.893 93.4927 156.723 91.6947C156.646 90.8881 156.509 90.0677 156.365 89.1995C156.005 87.0438 155.634 84.814 156.199 82.6582C157.253 78.6442 160.637 74.6745 163.217 72.4949C163.437 72.3103 163.767 72.3354 163.953 72.5553C164.139 72.774 164.113 73.1033 163.893 73.289C161.43 75.3707 158.203 79.1421 157.211 82.9214C156.701 84.8618 157.054 86.9799 157.396 89.0286C157.538 89.8751 157.684 90.7525 157.763 91.5956C157.934 93.397 158.086 95.2018 158.237 97.0054C158.396 98.8957 158.561 100.851 158.745 102.768C158.826 103.62 158.915 104.468 159.003 105.32C159.136 106.592 159.272 107.908 159.384 109.206C159.403 109.433 159.458 109.705 159.515 109.994C159.655 110.696 159.812 111.491 159.581 112.167C159.507 112.384 159.305 112.521 159.088 112.521L159.086 112.523Z" fill="#231F20"/>
<path d="M140.525 117.789C140.417 117.789 140.309 117.756 140.215 117.688C139.983 117.517 139.934 117.191 140.105 116.958C141.439 115.159 144.046 115.003 146.347 114.865C147.358 114.805 148.313 114.747 149.075 114.562C149.432 114.476 149.793 114.39 150.156 114.304C151.286 114.036 152.454 113.759 153.54 113.423L154.239 113.204C158.617 111.827 165.944 109.524 169.587 113.929C169.771 114.151 169.739 114.478 169.516 114.661C169.294 114.845 168.964 114.813 168.781 114.591C165.586 110.729 158.947 112.816 154.553 114.197L153.85 114.416C152.73 114.763 151.545 115.044 150.399 115.315C150.038 115.401 149.678 115.486 149.324 115.573C148.471 115.78 147.469 115.841 146.411 115.905C144.237 116.036 141.99 116.17 140.946 117.578C140.844 117.716 140.686 117.789 140.526 117.789H140.525Z" fill="#231F20"/>
<path d="M144.479 130.116C144.224 130.116 144.002 129.932 143.962 129.673C143.92 129.389 144.116 129.124 144.401 129.08C145.14 128.97 145.307 128.413 145.539 127.437C145.611 127.134 145.686 126.821 145.795 126.53C146.599 124.391 146.2 120.565 144.482 118.841C144.36 118.718 144.231 118.58 144.097 118.437C143.04 117.312 142.214 116.568 141.236 117.254C140.999 117.42 140.675 117.362 140.508 117.127C140.342 116.891 140.399 116.568 140.635 116.401C142.435 115.142 143.952 116.76 144.859 117.726C144.986 117.862 145.107 117.991 145.224 118.107C147.24 120.131 147.705 124.417 146.774 126.896C146.688 127.125 146.624 127.394 146.557 127.678C146.335 128.611 146.031 129.891 144.557 130.112C144.531 130.115 144.505 130.117 144.48 130.117L144.479 130.116Z" fill="#231F20"/>
<path d="M117.647 127.277C117.22 127.277 116.819 127.191 116.504 126.973C116.133 126.716 115.749 126.19 116.022 125.145C116.311 124.041 116.996 123.173 117.659 122.334C117.998 121.905 118.318 121.499 118.587 121.066L118.727 120.839C119.923 118.906 121.159 116.906 123.471 116.073C123.997 115.884 124.635 115.616 125.311 115.333C127.603 114.372 130.455 113.179 132.409 113.516C133.002 113.62 133.469 113.985 133.882 114.306C134.085 114.464 134.276 114.614 134.463 114.717C135.591 115.35 137.257 115.91 139.285 116.341C139.588 116.406 139.875 116.502 140.153 116.595C141.123 116.921 141.615 117.043 142.194 116.263C142.365 116.032 142.692 115.983 142.924 116.154C143.156 116.325 143.205 116.652 143.034 116.882C141.978 118.308 140.731 117.887 139.82 117.582C139.558 117.494 139.311 117.411 139.068 117.36C136.907 116.9 135.186 116.318 133.951 115.625C133.696 115.483 133.464 115.302 133.239 115.126C132.892 114.856 132.564 114.601 132.229 114.543C130.577 114.257 127.881 115.385 125.716 116.293C125.026 116.582 124.376 116.855 123.825 117.053C121.856 117.762 120.768 119.522 119.616 121.386L119.475 121.614C119.176 122.097 118.822 122.546 118.479 122.979C117.857 123.769 117.267 124.514 117.032 125.408C116.965 125.663 116.923 125.994 117.1 126.117C117.593 126.458 119.202 126.002 119.857 125.543C120.092 125.377 120.419 125.434 120.585 125.669C120.751 125.905 120.695 126.229 120.458 126.395C119.973 126.734 118.724 127.276 117.647 127.276V127.277Z" fill="#231F20"/>
<path d="M120.957 129.415C120.879 129.415 120.799 129.413 120.719 129.407C119.597 129.329 118.925 128.961 118.721 128.315C118.364 127.186 119.542 125.628 122.663 123.107L122.778 123.013C123.567 122.373 124.784 121.924 126.071 121.448C128.037 120.722 130.069 119.971 130.444 118.604C130.521 118.326 130.808 118.166 131.086 118.239C131.364 118.315 131.529 118.601 131.452 118.879C130.934 120.762 128.543 121.645 126.435 122.424C125.23 122.87 124.093 123.29 123.438 123.82L123.321 123.914C119.704 126.839 119.648 127.781 119.717 128C119.763 128.144 120.069 128.316 120.792 128.367C121.157 128.391 121.516 128.328 121.914 128.25C122.356 128.162 122.799 128.07 123.241 127.976C123.682 127.884 124.125 127.792 124.565 127.704C125.534 127.511 126.435 127.138 127.387 126.742C127.686 126.618 127.986 126.494 128.29 126.374C128.622 126.243 128.991 126.115 129.377 125.98C130.507 125.585 131.788 125.137 132.553 124.475C132.637 124.402 132.739 124.253 132.837 124.109C133.015 123.849 133.199 123.581 133.476 123.423C133.725 123.281 134.046 123.367 134.188 123.618C134.331 123.868 134.243 124.186 133.993 124.328C133.926 124.367 133.785 124.572 133.701 124.695C133.565 124.894 133.425 125.099 133.239 125.261C132.322 126.054 130.941 126.537 129.723 126.963C129.351 127.093 128.995 127.217 128.674 127.344C128.375 127.461 128.082 127.583 127.789 127.704C126.831 128.102 125.84 128.513 124.769 128.726C124.333 128.813 123.895 128.905 123.457 128.996C123.01 129.089 122.564 129.183 122.119 129.271C121.739 129.347 121.362 129.414 120.96 129.414L120.957 129.415Z" fill="#231F20"/>
<path d="M126.263 131.571C124.871 131.571 123.993 131.077 123.063 130.289C123.029 130.261 122.981 130.224 122.925 130.183C122.527 129.887 121.702 129.271 122.162 128.584C122.323 128.344 122.647 128.281 122.887 128.441C123.069 128.563 123.15 128.777 123.108 128.979C123.213 129.099 123.45 129.276 123.55 129.349C123.626 129.407 123.693 129.458 123.74 129.496C124.588 130.214 125.283 130.593 126.547 130.522C128.793 130.4 130.801 130.065 133.057 129.435C133.208 129.393 133.367 129.326 133.53 129.259C134.102 129.027 134.885 128.708 135.602 129.187C135.842 129.347 135.906 129.671 135.746 129.91C135.586 130.149 135.262 130.213 135.022 130.053C134.783 129.896 134.433 130.017 133.925 130.224C133.734 130.302 133.535 130.383 133.337 130.437C131.003 131.088 128.926 131.435 126.602 131.561C126.485 131.568 126.371 131.571 126.261 131.571H126.263Z" fill="#231F20"/>
<path d="M128.892 133.018C127.628 133.018 126.309 132.79 125.651 131.641C125.508 131.39 125.596 131.072 125.846 130.931C126.096 130.788 126.415 130.876 126.558 131.126C127.125 132.119 128.785 132.011 130.117 131.925C130.508 131.9 130.882 131.88 131.206 131.879C131.534 131.882 131.879 131.89 132.234 131.897C134.299 131.943 136.64 131.996 138.342 131.291C139.336 130.878 140.194 130.3 141.101 129.685C142.402 128.805 143.746 127.895 145.499 127.548C145.786 127.488 146.057 127.676 146.113 127.957C146.17 128.24 145.985 128.513 145.703 128.569C144.157 128.875 142.957 129.687 141.689 130.547C140.778 131.163 139.837 131.801 138.744 132.254C136.839 133.042 134.275 132.984 132.212 132.94C131.861 132.932 131.522 132.924 131.197 132.92C130.909 132.92 130.557 132.94 130.187 132.963C129.783 132.99 129.342 133.018 128.893 133.018H128.892Z" fill="#231F20"/>
<path d="M118.042 122.978C117.86 122.978 117.684 122.883 117.588 122.715C117.143 121.938 117.475 121.01 117.742 120.265C117.808 120.078 117.872 119.901 117.917 119.742C118.726 116.801 120.025 116.499 122.381 115.952C122.916 115.828 123.523 115.687 124.206 115.498C124.481 115.421 124.771 115.582 124.849 115.859C124.927 116.136 124.764 116.423 124.487 116.5C123.783 116.696 123.164 116.841 122.618 116.968C120.337 117.497 119.569 117.675 118.924 120.019C118.874 120.201 118.802 120.403 118.726 120.616C118.532 121.161 118.29 121.837 118.495 122.2C118.638 122.449 118.551 122.767 118.3 122.909C118.219 122.956 118.13 122.978 118.042 122.978Z" fill="#231F20"/>
<path d="M124.868 116.254C124.744 116.254 124.621 116.211 124.521 116.124C124.305 115.934 124.285 115.605 124.475 115.389L130.365 108.739C130.462 108.629 130.601 108.566 130.748 108.563C130.836 108.561 131.601 108.561 132.182 108.99C132.748 109.404 133.042 110.16 133.074 110.245C133.139 110.421 133.105 110.618 132.985 110.761L130.051 114.249C129.866 114.469 129.536 114.498 129.315 114.314C129.094 114.129 129.064 113.8 129.25 113.58L131.971 110.345C131.873 110.165 131.729 109.95 131.563 109.828C131.395 109.705 131.158 109.647 130.979 109.622L125.26 116.08C125.156 116.196 125.013 116.255 124.868 116.255V116.254Z" fill="#231F20"/>
<path d="M112.633 131.805C112.5 131.805 112.37 131.755 112.27 131.658C112.096 131.49 112.06 131.227 112.183 131.019L114.517 127.068C114.541 127.027 114.571 126.99 114.606 126.957L116.052 125.577C116.26 125.377 116.59 125.385 116.79 125.593C116.989 125.8 116.982 126.131 116.774 126.329L115.381 127.658L114.183 129.685L116.393 128.287L118.191 126.338C118.386 126.126 118.717 126.112 118.93 126.307C119.142 126.502 119.156 126.831 118.96 127.043L117.116 129.043C117.085 129.076 117.049 129.106 117.012 129.131L112.914 131.723C112.828 131.777 112.731 131.804 112.634 131.804L112.633 131.805Z" fill="#231F20"/>
<path d="M122.481 116.545C122.388 116.545 122.295 116.521 122.209 116.469C121.963 116.318 121.885 115.998 122.035 115.753C123.298 113.692 125.462 111.234 127.179 109.91L127.223 109.876C127.959 109.305 128.805 108.754 129.499 108.999C129.739 109.082 130.051 109.293 130.178 109.817C130.245 110.096 130.072 110.377 129.792 110.446C129.512 110.516 129.23 110.341 129.162 110.063C129.143 109.989 129.125 109.965 129.124 109.965C129.087 109.968 128.797 109.975 127.862 110.7L127.816 110.735C126.213 111.971 124.11 114.363 122.924 116.298C122.826 116.458 122.654 116.547 122.479 116.547L122.481 116.545Z" fill="#231F20"/>
<path d="M118.683 152.683C118.666 152.683 118.648 152.683 118.629 152.681L83.0478 149.036C82.8501 149.015 82.6809 148.885 82.6112 148.7C82.5415 148.514 82.5838 148.305 82.7209 148.161L110.209 119.05C110.311 118.942 110.457 118.884 110.605 118.886L118.289 119.105C118.577 119.114 118.804 119.353 118.796 119.641C118.788 119.929 118.545 120.152 118.259 120.146L110.809 119.935L84.2068 148.107L118.435 151.613L132.107 132.631C132.275 132.396 132.601 132.342 132.836 132.511C133.071 132.679 133.124 133.004 132.956 133.238L119.107 152.466C119.009 152.604 118.85 152.684 118.683 152.684V152.683Z" fill="#231F20"/>
<path d="M131.756 160C131.743 160 131.73 160 131.718 159.999L96.2575 157.445C96.0667 157.432 95.8986 157.314 95.8198 157.141C95.7409 156.967 95.7638 156.763 95.8804 156.611L100.824 150.129C100.999 149.9 101.327 149.856 101.555 150.03C101.785 150.205 101.829 150.532 101.655 150.76L97.2953 156.476L131.424 158.934L143.99 130.074C144.104 129.811 144.411 129.689 144.677 129.804C144.942 129.918 145.063 130.225 144.948 130.489L132.235 159.687C132.151 159.878 131.963 160 131.756 160Z" fill="#231F20"/>
<path d="M121.641 116.797H90.1825C89.8945 116.797 89.6602 116.564 89.6602 116.276C89.6602 115.988 89.8945 115.755 90.1825 115.755H121.641C121.929 115.755 122.164 115.988 122.164 116.276C122.164 116.564 121.929 116.797 121.641 116.797Z" fill="#231F20"/>
<path d="M86.6503 116.797H85.1005C84.8124 116.797 84.5781 116.564 84.5781 116.276C84.5781 115.988 84.8124 115.755 85.1005 115.755H86.6503C86.9383 115.755 87.1727 115.988 87.1727 116.276C87.1727 116.564 86.9383 116.797 86.6503 116.797Z" fill="#231F20"/>
<path d="M78.7558 116.797H75.7635C75.4755 116.797 75.2412 116.564 75.2412 116.276C75.2412 115.988 75.4755 115.755 75.7635 115.755H78.7558C79.0438 115.755 79.2782 115.988 79.2782 116.276C79.2782 116.564 79.0438 116.797 78.7558 116.797Z" fill="#231F20"/>
<path d="M69.4744 116.797H66.3895C66.1015 116.797 65.8672 116.564 65.8672 116.276C65.8672 115.988 66.1015 115.755 66.3895 115.755H69.4744C69.7624 115.755 69.9967 115.988 69.9967 116.276C69.9967 116.564 69.7624 116.797 69.4744 116.797Z" fill="#231F20"/>
<path d="M59.9884 116.797H56.9012C56.6132 116.797 56.3789 116.564 56.3789 116.276C56.3789 115.988 56.6132 115.755 56.9012 115.755H59.9884C60.2764 115.755 60.5107 115.988 60.5107 116.276C60.5107 116.564 60.2764 116.797 59.9884 116.797Z" fill="#231F20"/>
<path d="M50.7605 116.797H49.5809C49.2929 116.797 49.0586 116.564 49.0586 116.276C49.0586 115.988 49.2929 115.755 49.5809 115.755H50.7605C51.0485 115.755 51.2828 115.988 51.2828 116.276C51.2828 116.564 51.0485 116.797 50.7605 116.797Z" fill="#231F20"/>
<path d="M45.9199 116.797H35.5223C35.2343 116.797 35 116.564 35 116.276C35 115.988 35.2343 115.755 35.5223 115.755H45.9199C46.2079 115.755 46.4422 115.988 46.4422 116.276C46.4422 116.564 46.2079 116.797 45.9199 116.797Z" fill="#231F20"/>
<path d="M55.5974 19.5656C55.346 19.5656 55.2843 19.5212 55.2088 19.4676C55.0957 19.3867 55.0179 19.2614 54.9951 19.1247L54.7939 17.9146C54.7002 17.3415 54.6933 17.2948 58.3702 16.6875L58.9897 16.585C62.6666 15.9777 62.6746 16.0232 62.7718 16.5918L62.9741 17.8064C63.0644 18.3795 63.0724 18.4262 59.3966 19.0335L58.7771 19.1361C56.8021 19.4631 55.9792 19.5656 55.5963 19.5656H55.5974ZM55.9003 18.2006L55.9506 18.4991C56.4352 18.4444 57.3462 18.3168 58.6068 18.1083L59.2263 18.0058C60.4882 17.7973 61.3911 17.6241 61.8677 17.5193L61.8186 17.2207C61.3339 17.2754 60.423 17.4019 59.1612 17.6116L58.5417 17.7141C57.281 17.9226 56.3769 18.0958 55.9003 18.2006Z" fill="#231F20"/>
<path d="M58.0303 27.7147C57.7788 27.7147 57.5582 27.5346 57.5159 27.2794L56.2072 19.4199C56.1604 19.1362 56.3524 18.8684 56.637 18.8206C56.9216 18.7716 57.1902 18.9653 57.237 19.249L58.5457 27.1085C58.5937 27.3922 58.4006 27.66 58.116 27.7067C58.0874 27.7112 58.0588 27.7135 58.0303 27.7135V27.7147Z" fill="#231F20"/>
<path d="M63.0433 46.6728C62.481 46.6728 61.9335 46.4985 61.4672 46.1658C60.8762 45.7442 60.4853 45.1199 60.3665 44.4055L59.5275 39.3682C59.4807 39.0845 59.6727 38.8168 59.9573 38.77C60.2408 38.7233 60.5105 38.9147 60.5574 39.1985L61.3963 44.2357C61.4694 44.6755 61.7106 45.0606 62.0741 45.3204C62.4375 45.5802 62.881 45.6816 63.3222 45.6098L63.7462 45.5392C64.1874 45.4662 64.5737 45.2258 64.8343 44.8635C65.0949 44.5012 65.1978 44.0591 65.1246 43.6193L60.9642 18.6336C60.9174 18.3499 61.1094 18.0821 61.394 18.0354C61.6775 17.9864 61.9472 18.1801 61.9952 18.4638L66.1556 43.4495C66.2745 44.1639 66.1076 44.8817 65.6858 45.4697C65.2629 46.0587 64.6354 46.4484 63.9188 46.5669L63.4948 46.6375C63.3439 46.6626 63.193 46.6751 63.0433 46.6751V46.6728Z" fill="#231F20"/>
<path d="M58.971 26.9592C58.8533 26.9592 58.7402 26.9557 58.635 26.9489C58.3653 26.9307 57.5458 26.876 57.4429 26.2527C57.2932 25.3515 58.9859 24.9333 60.0077 24.7636C61.0295 24.5949 62.768 24.4445 62.9177 25.3458C63.0217 25.969 62.2639 26.2846 62.0147 26.3883C61.5747 26.5718 60.9849 26.7301 60.3529 26.8338C59.8614 26.9147 59.3836 26.958 58.9722 26.958L58.971 26.9592ZM60.5655 25.7355C60.442 25.7503 60.3129 25.7685 60.178 25.7913C60.0431 25.8141 59.9151 25.838 59.794 25.8631C59.9163 25.8483 60.0454 25.83 60.1803 25.8072C60.3152 25.7844 60.4432 25.7605 60.5643 25.7355H60.5655Z" fill="#231F20"/>
<path d="M49.0227 131.634H46.411C46.123 131.634 45.8887 131.401 45.8887 131.113V125.626C45.8887 125.338 46.123 125.105 46.411 125.105C46.699 125.105 46.9333 125.338 46.9333 125.626V130.592H48.5003V125.489C48.5003 125.201 48.7346 124.968 49.0227 124.968C49.3107 124.968 49.545 125.201 49.545 125.489V131.113C49.545 131.401 49.3107 131.634 49.0227 131.634Z" fill="#231F20"/>
<path d="M46.411 123.365C46.123 123.365 45.8887 123.133 45.8887 122.845V105.669C45.8887 105.381 46.123 105.149 46.411 105.149H49.0227C49.3107 105.149 49.545 105.381 49.545 105.669V122.646C49.545 122.935 49.3107 123.167 49.0227 123.167C48.7346 123.167 48.5003 122.935 48.5003 122.646V106.19H46.9333V122.845C46.9333 123.133 46.699 123.365 46.411 123.365Z" fill="#231F20"/>
<path d="M89.591 132.1H86.9794C86.6913 132.1 86.457 131.867 86.457 131.579V125.414C86.457 125.126 86.6913 124.893 86.9794 124.893C87.2674 124.893 87.5017 125.126 87.5017 125.414V131.058H89.0687V125.366C89.0687 125.078 89.303 124.845 89.591 124.845C89.8791 124.845 90.1134 125.078 90.1134 125.366V131.579C90.1134 131.867 89.8791 132.1 89.591 132.1Z" fill="#231F20"/>
<path d="M86.9794 123.145C86.6913 123.145 86.457 122.913 86.457 122.625V105.977C86.457 105.689 86.6913 105.456 86.9794 105.456H89.591C89.8791 105.456 90.1134 105.689 90.1134 105.977V122.588C90.1134 122.876 89.8791 123.109 89.591 123.109C89.303 123.109 89.0687 122.875 89.0687 122.588V106.498H87.5017V122.625C87.5017 122.913 87.2674 123.145 86.9794 123.145Z" fill="#231F20"/>
<path d="M91.5755 106.247H43.9608C43.6728 106.247 43.4385 106.015 43.4385 105.726V103.915C43.4385 103.626 43.6728 103.394 43.9608 103.394H91.5755C91.8635 103.394 92.0978 103.626 92.0978 103.915V105.726C92.0978 106.015 91.8635 106.247 91.5755 106.247ZM44.4843 105.206H91.0531V104.435H44.4831V105.206H44.4843Z" fill="#231F20"/>
<path d="M91.5755 125.513H43.9608C43.6728 125.513 43.4385 125.281 43.4385 124.992V123.181C43.4385 122.892 43.6728 122.66 43.9608 122.66H91.5755C91.8635 122.66 92.0978 122.892 92.0978 123.181V124.992C92.0978 125.281 91.8635 125.513 91.5755 125.513ZM44.4843 124.472H91.0531V123.701H44.4831V124.472H44.4843Z" fill="#231F20"/>
<path d="M91.5755 133.844H43.9608C43.6728 133.844 43.4385 133.612 43.4385 133.324V131.512C43.4385 131.224 43.6728 130.991 43.9608 130.991H91.5755C91.8635 130.991 92.0978 131.224 92.0978 131.512V133.324C92.0978 133.612 91.8635 133.844 91.5755 133.844ZM44.4843 132.803H91.0531V132.033H44.4831V132.803H44.4843Z" fill="#231F20"/>
<path d="M152.894 47.7485C151.997 47.7485 151.11 47.4432 150.368 46.7026C150.062 46.3972 149.834 46.0634 149.613 45.7398C149.101 44.9912 148.732 44.45 147.605 44.4226C145.378 44.3702 143.504 42.3022 141.85 40.4781C141.054 39.6007 140.302 38.7713 139.59 38.2392C137.047 36.3387 134.615 34.2388 132.264 32.2072C128.899 29.3029 125.421 26.2995 121.615 23.8851C119.745 22.699 116.64 21.7089 114.679 22.0974C114.539 22.1385 114.15 22.4951 113.917 22.7093C113.294 23.2801 112.517 23.99 111.912 23.3861C111.225 22.7013 111.368 21.2269 111.483 20.042C111.513 19.7218 111.543 19.4187 111.543 19.2273C111.543 18.6895 111.372 18.2862 111.173 17.819C111.005 17.4248 110.831 17.0169 110.759 16.511C110.396 13.9759 112.692 11.5057 114.212 9.87064L114.55 9.50489C119.609 4.00392 127.253 0.744122 136.076 0.324826C136.65 0.297481 137.259 0.241651 137.904 0.183542C139.646 0.0251667 141.447 -0.138906 143.024 0.192657C145.798 0.774885 150.893 2.08177 153.849 4.29104C159.288 8.35753 160.943 15.3853 162.403 21.5847L162.51 22.0405C163.266 25.2433 163.956 28.658 163.378 32.1161C163.021 34.2467 162.09 35.9752 161.188 37.6467C160.797 38.3725 160.392 39.1222 160.038 39.8981C159.815 40.3869 159.612 40.8803 159.409 41.3702C158.63 43.2582 157.824 45.2111 156.007 46.6046C155.117 47.2871 153.997 47.7485 152.894 47.7485ZM147.629 43.3824C149.293 43.4223 149.922 44.3417 150.476 45.1541C150.678 45.4504 150.869 45.7295 151.107 45.9665C152.314 47.1697 154.117 46.739 155.37 45.7797C156.965 44.5571 157.683 42.8172 158.444 40.9748C158.65 40.4735 158.86 39.9676 159.088 39.4674C159.456 38.6596 159.869 37.8939 160.269 37.1533C161.171 35.483 162.021 33.9049 162.349 31.944C162.895 28.6774 162.227 25.3777 161.494 22.2786L161.387 21.8217C159.967 15.7943 158.359 8.96254 153.224 5.1228C150.429 3.03316 145.499 1.77527 142.81 1.21013C141.386 0.911612 139.665 1.06771 138 1.21925C137.343 1.2785 136.723 1.33547 136.127 1.36395C127.581 1.76957 120.192 4.91087 115.322 10.2079L114.979 10.5771C113.511 12.1551 111.501 14.3177 111.794 16.3617C111.847 16.7332 111.987 17.0625 112.135 17.41C112.348 17.909 112.588 18.4753 112.588 19.225C112.588 19.4677 112.557 19.7799 112.523 20.1411C112.458 20.8145 112.342 22.0029 112.555 22.4974C112.742 22.3709 113.024 22.1111 113.211 21.9413C113.67 21.5198 114.068 21.1563 114.476 21.0754C116.779 20.6174 120.161 21.7283 122.177 23.0067C126.049 25.4621 129.556 28.4917 132.95 31.4211C135.288 33.4401 137.707 35.5274 140.22 37.4074C141.013 37.9999 141.797 38.8647 142.627 39.7808C144.14 41.45 145.855 43.3402 147.632 43.3824H147.629Z" fill="#231F20"/>
<path d="M113.147 116.287H113.134C112.846 116.281 112.617 116.041 112.624 115.754C112.845 106.393 117.364 67.4451 122.091 50.4602C122.168 50.1834 122.456 50.0204 122.735 50.0979C123.013 50.1742 123.176 50.4614 123.098 50.7394C118.389 67.6559 113.888 106.453 113.668 115.779C113.661 116.063 113.429 116.287 113.145 116.287H113.147Z" fill="#231F20"/>
<path d="M136.691 116.482C136.402 116.482 136.169 116.25 136.169 115.961C136.169 111.903 141.76 75.8333 145.188 62.1675C145.258 61.8883 145.54 61.7174 145.821 61.788C146.101 61.8575 146.272 62.1401 146.202 62.4193C142.787 76.0373 137.215 111.931 137.215 115.96C137.215 116.249 136.982 116.481 136.692 116.481L136.691 116.482Z" fill="#231F20"/>
<path d="M114.048 101.342C113.856 101.342 113.672 101.237 113.581 101.054C112.52 98.939 112.027 96.3958 111.552 93.937C111.426 93.2887 111.304 92.6541 111.172 92.0468C110.18 87.4266 108.992 81.3058 108.616 74.9252C108.587 74.4421 108.507 73.7972 108.421 73.1158C108.145 70.902 107.801 68.1458 108.579 66.594C109.426 64.9054 112.103 63.3433 113.874 62.3098C114.104 62.1754 114.317 62.0512 114.506 61.9384C115.599 61.2844 116.552 60.4925 116.632 60.1735C116.649 59.9194 116.165 58.9748 115.982 58.6182C115.88 58.42 115.797 58.2548 115.75 58.1477C115.678 57.979 115.589 57.7808 115.489 57.5597C114.408 55.1397 113.314 52.437 114.034 51.0014C114.164 50.745 114.477 50.6391 114.735 50.769C114.993 50.8977 115.097 51.2099 114.968 51.4674C114.408 52.584 115.782 55.6592 116.443 57.1359C116.544 57.3626 116.635 57.5654 116.709 57.7375C116.749 57.8298 116.823 57.9733 116.911 58.1442C117.408 59.1139 117.778 59.8966 117.645 60.4253C117.42 61.3243 115.75 62.4067 115.042 62.8305C114.85 62.9456 114.633 63.0721 114.4 63.2077C112.837 64.1203 110.219 65.6471 109.512 67.0588C108.875 68.3281 109.211 71.0205 109.457 72.9859C109.545 73.6855 109.627 74.3452 109.657 74.8636C110.029 81.1736 111.208 87.2443 112.193 91.8292C112.325 92.4433 112.449 93.0848 112.576 93.7399C113.039 96.1304 113.517 98.6017 114.513 100.589C114.642 100.846 114.537 101.158 114.28 101.287C114.205 101.325 114.126 101.342 114.047 101.342H114.048Z" fill="#231F20"/>
<path d="M138.418 104.153C138.339 104.153 138.261 104.135 138.185 104.098C137.927 103.969 137.823 103.657 137.952 103.4C138.527 102.252 139.36 101.1 140.165 99.9872C140.76 99.1635 141.375 98.3135 141.881 97.4726C145.381 91.6594 148.529 84.806 150.746 78.1759C150.832 77.9207 150.974 77.5595 151.139 77.1368C151.623 75.9108 152.626 73.3597 152.302 72.5507C151.959 71.6962 151.381 70.8052 150.821 69.9427C150.461 69.3878 150.088 68.8147 149.782 68.2552C149.736 68.172 149.66 68.0672 149.577 67.9499C149.222 67.4474 148.735 66.7603 149.044 66.1405C149.838 64.5602 151.229 63.2032 152.574 61.8895C153.734 60.7569 154.934 59.5856 155.703 58.3084C155.852 58.0622 156.172 57.9813 156.42 58.1295C156.667 58.2776 156.747 58.5978 156.599 58.8439C155.762 60.2351 154.513 61.4542 153.305 62.6323C151.962 63.9438 150.694 65.1812 149.979 66.6054C149.987 66.7216 150.297 67.1614 150.431 67.3483C150.541 67.5032 150.639 67.6445 150.699 67.755C150.986 68.2803 151.331 68.8124 151.697 69.3752C152.285 70.2799 152.892 71.2142 153.272 72.1622C153.713 73.2628 152.975 75.3229 152.112 77.5151C151.953 77.9173 151.818 78.2602 151.736 78.5029C149.495 85.2037 146.314 92.13 142.776 98.0058C142.248 98.8843 141.62 99.7525 141.012 100.593C140.194 101.724 139.423 102.791 138.885 103.863C138.793 104.046 138.609 104.152 138.417 104.152L138.418 104.153Z" fill="#231F20"/>
<path d="M51.1161 103.929C50.8281 103.929 50.5938 103.697 50.5938 103.409V97.8223C50.5938 97.5341 50.8281 97.3016 51.1161 97.3016C51.4041 97.3016 51.6384 97.5341 51.6384 97.8223V103.409C51.6384 103.697 51.4041 103.929 51.1161 103.929Z" fill="#231F20"/>
<path d="M51.1161 123.194C50.8281 123.194 50.5938 122.962 50.5938 122.674V106.261C50.5938 105.972 50.8281 105.74 51.1161 105.74C51.4041 105.74 51.6384 105.972 51.6384 106.261V122.674C51.6384 122.962 51.4041 123.194 51.1161 123.194Z" fill="#231F20"/>
<path d="M53.9986 128.891H53.5929C51.939 128.891 50.5938 127.456 50.5938 125.691C50.5938 125.402 50.8281 125.17 51.1161 125.17C51.4041 125.17 51.6384 125.402 51.6384 125.691C51.6384 126.881 52.5151 127.85 53.5929 127.85H53.9986C55.0764 127.85 55.9542 126.881 55.9542 125.691C55.9542 125.402 56.1885 125.17 56.4766 125.17C56.7646 125.17 56.9989 125.402 56.9989 125.691C56.9989 127.456 55.6536 128.891 53.9986 128.891Z" fill="#231F20"/>
<path d="M56.4755 123.076C56.1874 123.076 55.9531 122.843 55.9531 122.555V106.291C55.9531 106.003 56.1874 105.771 56.4755 105.771C56.7635 105.771 56.9978 106.003 56.9978 106.291V122.555C56.9978 122.843 56.7635 123.076 56.4755 123.076Z" fill="#231F20"/>
<path d="M56.4755 103.929C56.1874 103.929 55.9531 103.697 55.9531 103.409V97.8223C55.9531 97.5341 56.1874 97.3016 56.4755 97.3016C56.7635 97.3016 56.9978 97.5341 56.9978 97.8223V103.409C56.9978 103.697 56.7635 103.929 56.4755 103.929Z" fill="#231F20"/>
<path d="M56.7154 97.8919H50.7423C49.9617 97.8919 49.3262 97.2584 49.3262 96.4791C49.3262 95.6997 49.9617 95.0674 50.7423 95.0674H56.7154C57.4972 95.0674 58.1327 95.7009 58.1327 96.4791C58.1327 97.2573 57.4972 97.8919 56.7154 97.8919ZM50.7423 96.1088C50.5377 96.1088 50.3708 96.2751 50.3708 96.4791C50.3708 96.683 50.5377 96.8505 50.7423 96.8505H56.7154C56.9212 96.8505 57.088 96.6842 57.088 96.4791C57.088 96.274 56.9212 96.1088 56.7154 96.1088H50.7423Z" fill="#231F20"/>
<path d="M53.6761 110.374C53.1743 110.374 50.6689 110.315 50.6689 109.139C50.6689 107.963 53.1732 107.904 53.6761 107.904C54.179 107.904 56.6821 107.963 56.6821 109.139C56.6821 110.315 54.1778 110.374 53.6761 110.374ZM52.0439 109.139C52.3902 109.239 52.9469 109.332 53.6761 109.332C54.4053 109.332 54.9631 109.24 55.3082 109.139C54.9619 109.039 54.4053 108.945 53.6761 108.945C52.9469 108.945 52.3902 109.039 52.0439 109.139Z" fill="#231F20"/>
<path d="M60.5174 103.941C60.2294 103.941 59.9951 103.708 59.9951 103.42V97.8223C59.9951 97.5341 60.2294 97.3016 60.5174 97.3016C60.8055 97.3016 61.0398 97.5341 61.0398 97.8223V103.42C61.0398 103.708 60.8055 103.941 60.5174 103.941Z" fill="#231F20"/>
<path d="M60.5174 123.053C60.2294 123.053 59.9951 122.821 59.9951 122.532V106.261C59.9951 105.972 60.2294 105.74 60.5174 105.74C60.8055 105.74 61.0398 105.972 61.0398 106.261V122.532C61.0398 122.821 60.8055 123.053 60.5174 123.053Z" fill="#231F20"/>
<path d="M63.4 128.891H62.9942C61.3404 128.891 59.9951 127.456 59.9951 125.691C59.9951 125.402 60.2294 125.17 60.5174 125.17C60.8055 125.17 61.0398 125.402 61.0398 125.691C61.0398 126.881 61.9164 127.85 62.9942 127.85H63.4C64.4778 127.85 65.3556 126.881 65.3556 125.691C65.3556 125.402 65.5899 125.17 65.8779 125.17C66.166 125.17 66.4003 125.402 66.4003 125.691C66.4003 127.456 65.055 128.891 63.4 128.891Z" fill="#231F20"/>
<path d="M65.8768 123.006C65.5888 123.006 65.3545 122.774 65.3545 122.486V106.228C65.3545 105.939 65.5888 105.707 65.8768 105.707C66.1649 105.707 66.3992 105.939 66.3992 106.228V122.486C66.3992 122.774 66.1649 123.006 65.8768 123.006Z" fill="#231F20"/>
<path d="M65.8768 103.963C65.5888 103.963 65.3545 103.73 65.3545 103.442V97.8236C65.3545 97.5353 65.5888 97.3029 65.8768 97.3029C66.1649 97.3029 66.3992 97.5353 66.3992 97.8236V103.442C66.3992 103.73 66.1649 103.963 65.8768 103.963Z" fill="#231F20"/>
<path d="M66.1168 97.8919H60.1437C59.363 97.8919 58.7275 97.2584 58.7275 96.4791C58.7275 95.6997 59.363 95.0674 60.1437 95.0674H66.1168C66.8986 95.0674 67.5341 95.7009 67.5341 96.4791C67.5341 97.2573 66.8986 97.8919 66.1168 97.8919ZM60.1437 96.1088C59.9391 96.1088 59.7722 96.2751 59.7722 96.4791C59.7722 96.683 59.9391 96.8505 60.1437 96.8505H66.1168C66.3225 96.8505 66.4894 96.6842 66.4894 96.4791C66.4894 96.274 66.3225 96.1088 66.1168 96.1088H60.1437Z" fill="#231F20"/>
<path d="M63.0784 110.374C62.5767 110.374 60.0713 110.315 60.0713 109.139C60.0713 107.963 62.5755 107.904 63.0784 107.904C63.5813 107.904 66.0844 107.963 66.0844 109.139C66.0844 110.315 63.5802 110.374 63.0784 110.374ZM61.4463 109.139C61.7926 109.239 62.3492 109.332 63.0784 109.332C63.8076 109.332 64.3654 109.24 64.7106 109.139C64.3643 109.039 63.8088 108.945 63.0784 108.945C62.3481 108.945 61.7926 109.039 61.4463 109.139Z" fill="#231F20"/>
<path d="M69.9198 103.855C69.6318 103.855 69.3975 103.623 69.3975 103.335V97.8236C69.3975 97.5353 69.6318 97.3029 69.9198 97.3029C70.2078 97.3029 70.4421 97.5353 70.4421 97.8236V103.335C70.4421 103.623 70.2078 103.855 69.9198 103.855Z" fill="#231F20"/>
<path d="M69.9198 123.068C69.6318 123.068 69.3975 122.835 69.3975 122.547V106.312C69.3975 106.024 69.6318 105.791 69.9198 105.791C70.2078 105.791 70.4421 106.024 70.4421 106.312V122.547C70.4421 122.835 70.2078 123.068 69.9198 123.068Z" fill="#231F20"/>
<path d="M72.8023 128.891H72.3966C70.7427 128.891 69.3975 127.456 69.3975 125.691C69.3975 125.402 69.6318 125.17 69.9198 125.17C70.2078 125.17 70.4421 125.402 70.4421 125.691C70.4421 126.881 71.3188 127.85 72.3966 127.85H72.8023C73.8802 127.85 74.758 126.881 74.758 125.691C74.758 125.402 74.9923 125.17 75.2803 125.17C75.5683 125.17 75.8026 125.402 75.8026 125.691C75.8026 127.456 74.4574 128.891 72.8023 128.891Z" fill="#231F20"/>
<path d="M75.2792 122.974C74.9911 122.974 74.7568 122.742 74.7568 122.454V106.222C74.7568 105.934 74.9911 105.701 75.2792 105.701C75.5672 105.701 75.8015 105.934 75.8015 106.222V122.454C75.8015 122.742 75.5672 122.974 75.2792 122.974Z" fill="#231F20"/>
<path d="M75.2792 103.957C74.9911 103.957 74.7568 103.724 74.7568 103.436V97.8223C74.7568 97.5341 74.9911 97.3016 75.2792 97.3016C75.5672 97.3016 75.8015 97.5341 75.8015 97.8223V103.436C75.8015 103.724 75.5672 103.957 75.2792 103.957Z" fill="#231F20"/>
<path d="M75.5191 97.8919H69.546C68.7654 97.8919 68.1299 97.2584 68.1299 96.4791C68.1299 95.6997 68.7654 95.0674 69.546 95.0674H75.5191C76.3009 95.0674 76.9364 95.7009 76.9364 96.4791C76.9364 97.2573 76.3009 97.8919 75.5191 97.8919ZM69.546 96.1088C69.3414 96.1088 69.1746 96.2751 69.1746 96.4791C69.1746 96.683 69.3414 96.8505 69.546 96.8505H75.5191C75.7249 96.8505 75.8917 96.6842 75.8917 96.4791C75.8917 96.274 75.7249 96.1088 75.5191 96.1088H69.546Z" fill="#231F20"/>
<path d="M72.4798 110.374C71.978 110.374 69.4727 110.315 69.4727 109.139C69.4727 107.963 71.9769 107.904 72.4798 107.904C72.9827 107.904 75.4858 107.963 75.4858 109.139C75.4858 110.315 72.9816 110.374 72.4798 110.374ZM70.8476 109.139C71.194 109.239 71.7506 109.332 72.4798 109.332C73.209 109.332 73.7668 109.24 74.1119 109.139C73.7656 109.039 73.209 108.945 72.4798 108.945C71.7506 108.945 71.194 109.039 70.8476 109.139Z" fill="#231F20"/>
<path d="M79.3221 103.957C79.0341 103.957 78.7998 103.724 78.7998 103.436V97.8223C78.7998 97.5341 79.0341 97.3016 79.3221 97.3016C79.6102 97.3016 79.8445 97.5341 79.8445 97.8223V103.436C79.8445 103.724 79.6102 103.957 79.3221 103.957Z" fill="#231F20"/>
<path d="M79.3221 123.057C79.0341 123.057 78.7998 122.824 78.7998 122.536V106.327C78.7998 106.039 79.0341 105.806 79.3221 105.806C79.6102 105.806 79.8445 106.039 79.8445 106.327V122.536C79.8445 122.824 79.6102 123.057 79.3221 123.057Z" fill="#231F20"/>
<path d="M82.2047 128.891H81.7989C80.1451 128.891 78.7998 127.456 78.7998 125.691C78.7998 125.402 79.0341 125.17 79.3221 125.17C79.6102 125.17 79.8445 125.402 79.8445 125.691C79.8445 126.881 80.7211 127.85 81.7989 127.85H82.2047C83.2825 127.85 84.1603 126.881 84.1603 125.691C84.1603 125.402 84.3946 125.17 84.6826 125.17C84.9707 125.17 85.205 125.402 85.205 125.691C85.205 127.456 83.8597 128.891 82.2047 128.891Z" fill="#231F20"/>
<path d="M84.6815 123.166C84.3935 123.166 84.1592 122.933 84.1592 122.645V106.26C84.1592 105.971 84.3935 105.739 84.6815 105.739C84.9695 105.739 85.2038 105.971 85.2038 106.26V122.645C85.2038 122.933 84.9695 123.166 84.6815 123.166Z" fill="#231F20"/>
<path d="M84.6815 103.878C84.3935 103.878 84.1592 103.646 84.1592 103.358V97.8236C84.1592 97.5353 84.3935 97.3029 84.6815 97.3029C84.9695 97.3029 85.2038 97.5353 85.2038 97.8236V103.358C85.2038 103.646 84.9695 103.878 84.6815 103.878Z" fill="#231F20"/>
<path d="M84.9215 97.8919H78.9484C78.1677 97.8919 77.5322 97.2584 77.5322 96.4791C77.5322 95.6997 78.1677 95.0674 78.9484 95.0674H84.9215C85.7033 95.0674 86.3388 95.7009 86.3388 96.4791C86.3388 97.2573 85.7033 97.8919 84.9215 97.8919ZM78.9484 96.1088C78.7438 96.1088 78.5769 96.2751 78.5769 96.4791C78.5769 96.683 78.7438 96.8505 78.9484 96.8505H84.9215C85.1272 96.8505 85.2941 96.6842 85.2941 96.4791C85.2941 96.274 85.1272 96.1088 84.9215 96.1088H78.9484Z" fill="#231F20"/>
<path d="M81.8821 110.374C81.3804 110.374 78.875 110.315 78.875 109.139C78.875 107.963 81.3792 107.904 81.8821 107.904C82.385 107.904 84.8881 107.963 84.8881 109.139C84.8881 110.315 82.3839 110.374 81.8821 110.374ZM80.25 109.139C80.5963 109.239 81.1529 109.332 81.8821 109.332C82.6113 109.332 83.1691 109.24 83.5143 109.139C83.168 109.039 82.6125 108.945 81.8821 108.945C81.1518 108.945 80.5963 109.039 80.25 109.139Z" fill="#231F20"/>
</g>
<defs>
<clipPath id="clip0_1_6966">
<rect width="210" height="160" fill="white"/>
</clipPath>
</defs>
</svg>
