<svg width="210" height="160" viewBox="0 0 210 160" fill="none" xmlns="http://www.w3.org/2000/svg">
<g clip-path="url(#clip0_1_7538)">
<path fill-rule="evenodd" clip-rule="evenodd" d="M74.8957 91.5897C74.7875 91.095 66.0008 92.0303 61.3043 93.1675C59.4767 93.6103 57.6028 94.3981 56.1087 94.8106C52.9909 95.6716 50.6393 95.9961 47.6048 95.8271C42.8047 95.5611 40.7337 90.6149 40.2176 89.0089C36.9848 78.953 44.5918 72.8696 44.6943 69.5519C44.7123 68.9625 46.9772 67.8592 47.704 67.476C48.8702 66.8607 53.4314 68.9174 55.7211 68.7495C60.7319 68.3809 65.6244 68.5939 70.4099 68.3437C73.8726 68.1623 77.8276 67.4861 79.111 67.3813C86.2909 66.793 103.469 80.9894 109.843 80.9894C114.672 80.9894 121.12 74.8723 128.544 74.6829C129.35 74.6627 131.273 75.3986 132.072 75.5158C135.84 76.0646 140.435 76.3756 142.23 77.5804C142.734 77.9173 144.864 78.7783 147.038 79.9346C149.683 81.3388 152.527 83.0867 154.303 83.7111C155.06 83.977 159.59 84.5822 162.612 85.601C164.153 86.1194 165.135 86.9117 165.371 87.4774C165.757 88.3959 182.517 107.715 180.946 108.88C180.43 109.262 179.858 110.746 179.254 111.674C177.684 114.087 175.623 116.651 171.635 115.94C167.405 115.186 165.502 113.749 162.063 112.24C158.034 110.471 154.493 108.831 151.148 107.209C146.532 104.971 142.77 103.125 142.927 104.25C143.152 105.867 143.691 110.341 143.747 112.649C143.908 119.34 141.281 127.573 140.59 135.412C140.112 140.828 139.738 144.895 139.807 148.737C139.88 152.795 140.411 156.478 140.411 156.478C140.411 156.478 126.994 159.999 113.034 160.008C99.0743 160.017 84.5714 156.513 84.5714 156.513C84.5714 156.513 86.0464 151.019 85.776 144.586C85.3906 135.416 83.1708 124.103 82.7156 122.081C81.5753 117.016 79.8637 109.907 78.2039 103.698C76.8101 98.4788 75.4027 93.9067 74.8957 91.5976V91.5897Z" fill="white"/>
<path fill-rule="evenodd" clip-rule="evenodd" d="M103.687 72.322C103.457 72.3535 104.852 74.6514 105.318 75.9745C105.532 76.5819 106.044 76.4343 106.455 76.9335C107.253 77.8993 108.089 79.4884 108.383 81.065C109.037 84.5766 107.911 88.7475 106.38 90.6126C106.069 90.9913 107.873 92.9804 108.177 95.4214C108.603 98.844 107.452 103.254 105.422 106.23C105.253 106.286 103.958 108.655 102.745 110.052C100.248 112.925 96.9857 116.382 96.8077 120.019C96.7254 121.691 97.4128 124.383 99.4354 125.133C100.996 125.711 104.057 124.397 103.784 125.14C103.495 125.921 100.456 127.325 100.175 127.48C100.047 127.55 98.8472 127.762 97.6257 127.448C96.9677 127.279 96.5215 126.623 95.7406 126.461C94.6893 126.245 93.4938 126.637 92.5879 126.143C91.0385 125.295 90.3681 123.691 90.252 122.007C90.136 120.326 90.4627 118.02 91.8239 115.954C94.2071 112.339 98.2669 109.208 97.9773 109.652C97.7903 109.938 99.8895 105.977 98.6928 101.17C97.6753 97.0826 93.3732 92.4192 92.8628 88.8377C92.4459 85.9222 94.251 83.7348 94.0189 83.5026C92.6972 82.1807 90.9664 79.7059 90.234 77.728C89.8013 76.5616 90.3129 75.4583 89.8509 75.1653C88.9776 74.612 86.777 73.3238 85.2919 72.1619C84.662 71.6683 84.1583 71.0992 83.8079 70.7735C81.8924 70.7408 79.0258 69.8055 79.1092 67.094C79.2084 63.89 82.5053 58.7713 83.1273 57.8765C85.0767 55.0681 86.1381 52.005 86.2857 50.9738C86.519 49.3352 86.5528 46.4051 86.013 44.3833C85.4677 41.966 84.9595 39.3311 85.3888 36.7402C85.8181 34.1482 86.6362 31.1629 87.6108 29.3699C88.5123 27.6738 90.8909 23.9447 92.2769 22.5833C94.3806 20.5164 96.553 18.3921 98.4021 17.8748C100.616 16.7828 103.307 16.3016 105.045 16.2373C106.781 16.1731 109.996 16.8189 111.413 17.4207C113.201 18.1791 113.437 19.1528 114.506 19.9079C115.021 20.2719 115.272 19.7704 117.142 20.0375C119.109 20.3778 121.072 20.9627 122.48 22.9518C123.791 24.8665 124.993 26.6223 125.668 28.3635C126.344 30.1035 127.374 31.883 127.669 34.0254C127.963 36.1678 128.625 37.1843 129.124 38.8894C129.622 40.5945 129.869 41.5028 130.196 43.0084C130.524 44.5129 130.857 46.422 131.023 47.6211C131.188 48.8213 131.103 48.8326 131.072 49.8852C131.043 50.9366 131.244 51.9746 130.917 53.0869C130.567 54.2747 130.262 54.7886 129.313 55.9336C128.499 56.9163 127.743 57.144 126.206 57.7334C124.865 58.1267 123.692 58.3025 122.835 58.4208C121.979 58.538 119.114 63.2285 116.922 63.7931C115.034 64.6642 104.556 72.2904 103.688 72.3231L103.687 72.322Z" fill="#57585A"/>
<path fill-rule="evenodd" clip-rule="evenodd" d="M93.0951 50.8848C92.9532 49.8558 93.0816 47.0993 95.4208 48.872C95.76 49.1594 96.0845 48.3322 96.6366 48.2184C98.0496 47.9265 98.4598 47.3281 99.8108 46.3318C102.318 43.9156 104.258 42.7808 105.862 37.9337C106.855 35.0036 107.537 34.209 108.38 32.0847C108.963 30.6073 109.612 29.7203 110.231 29.4104C110.741 29.1557 111.43 29.0081 112.139 29.0847C112.848 29.1625 113.659 29.8195 113.976 30.7447C115.142 34.1425 116.135 35.3585 117.72 38.6335C119 40.1752 120.367 41.2267 120.952 41.6696C121.719 42.1756 122.272 41.7496 122.522 42.9385C123.094 45.8281 122.588 47.0745 123.315 46.014C125.361 43.1132 126.666 43.7195 126.99 44.8104C127.147 45.313 127.071 47.9423 126.119 49.9066C125.575 51.029 124.361 51.7199 123.231 52.3994C122.912 52.618 122.951 54.3175 122.578 55.4163C122.489 56.159 122.871 57.9993 122.893 60.4099C123.022 61.2551 123.04 63.0008 123.277 64.8524C123.538 66.8753 124.251 69.2408 125.029 71.1961C125.464 72.2881 126.578 73.5875 127.487 74.1859C128.059 74.5623 128.743 74.098 128.529 74.8937C128.174 76.2077 127.093 79.2257 125.321 80.9308C122.44 83.7043 118.371 85.0589 117.383 85.2663C115.084 85.7486 111.075 86.1239 108.916 84.0492C108.359 83.5127 108.78 83.2693 108.747 82.5751C108.705 81.6882 108.264 80.3189 107.841 79.3869C107.117 77.7934 106.311 77.0969 105.578 76.0522C104.857 75.0222 103.733 72.2757 103.733 72.2757C103.733 72.2757 105.242 70.9335 105.508 70.0996C106.074 68.319 104.975 64.0748 104.666 63.8787C103.199 62.9501 102.201 62.1127 102.106 62.0722C101.74 61.9482 100.002 59.2221 99.3736 57.8246C98.648 56.3528 98.8091 55.573 98.4553 55.5346C97.991 55.4479 97.6902 55.8029 97.1662 55.6811C96.1713 55.4501 94.9611 54.6511 94.4608 53.9186C93.7081 52.8874 93.1898 51.5677 93.0963 50.8825L93.0951 50.8848Z" fill="#FFF3ED"/>
<path fill-rule="evenodd" clip-rule="evenodd" d="M100.286 51.9915C100.122 50.7924 101.277 49.6722 102.819 49.4604C104.362 49.2485 105.776 50.0137 105.94 51.2139C106.106 52.4141 104.95 53.5332 103.407 53.7451C101.865 53.9569 100.45 53.1917 100.285 51.9915H100.286Z" fill="#FABDA6"/>
<path fill-rule="evenodd" clip-rule="evenodd" d="M114.594 50.0238C114.429 48.8247 115.584 47.7045 117.127 47.4926C118.669 47.2808 120.083 48.046 120.249 49.2462C120.414 50.4464 119.259 51.5655 117.716 51.7774C116.162 51.9036 114.747 51.1384 114.594 50.0238Z" fill="#FABDA6"/>
<path fill-rule="evenodd" clip-rule="evenodd" d="M111.732 50.5794C111.638 50.1568 111.299 49.4344 110.894 48.8157C110.331 47.8781 109.701 47.0441 109.796 47.4656C110.257 49.1346 109.489 50.4588 109.753 51.641C110.017 52.8232 110.711 52.7567 111.387 52.6057C111.958 52.3893 111.995 51.7616 111.732 50.5794Z" fill="#FABDA6"/>
<path fill-rule="evenodd" clip-rule="evenodd" d="M112.418 30.4563C111.679 31.4311 110.822 32.6358 110.209 34.5291C109.685 36.4348 108.444 40.0422 107.725 41.8003C104.885 49.0884 99.8518 49.6169 98.1999 49.6699C96.548 49.7229 94.7373 48.3919 95.7153 48.5193C96.6934 48.6466 99.1216 47.2571 99.7876 46.3792C100.465 45.588 101.771 44.8781 102.548 43.5494C103.326 42.2195 104.298 41.7023 104.733 40.4198C105.423 38.9705 105.656 38.5727 106.091 37.2902C106.526 36.0088 107.471 33.9769 108.391 32.1129C109.15 30.6174 109.472 29.6471 110.368 29.1749C111.264 28.7027 111.588 28.8458 112.534 29.0521C113.315 29.3068 113.156 29.4826 112.417 30.4574L112.418 30.4563Z" fill="#FABDA6"/>
<path fill-rule="evenodd" clip-rule="evenodd" d="M90.7427 36.5712C90.3325 35.4927 91.9258 32.4792 92.3461 31.723C92.976 30.5881 93.6464 31.0197 93.4447 32.096C93.2464 32.5592 91.0672 37.661 90.7427 36.5712Z" fill="#231F20"/>
<path fill-rule="evenodd" clip-rule="evenodd" d="M93.0378 37.3905C92.0271 36.3943 93.6181 33.9927 94.248 32.859C94.3843 32.5783 94.9635 31.7128 95.3534 32.0092C96.1444 32.6854 94.0474 38.3879 93.0378 37.3916V37.3905Z" fill="#231F20"/>
<path fill-rule="evenodd" clip-rule="evenodd" d="M122.619 33.4957C122.023 32.9671 121.351 30.6152 121.121 30.2095C120.551 29.2403 120.486 27.5036 121.836 29.0633C122.066 29.4679 124.41 35.0825 122.621 33.4957H122.619Z" fill="#57585A"/>
<path fill-rule="evenodd" clip-rule="evenodd" d="M124.626 33.4822C123.796 33.1598 123.272 30.6129 122.838 29.362C122.284 27.8665 122.699 27.7222 123.574 28.9991C123.792 29.318 126.103 34.0648 124.626 33.4822Z" fill="#57585A"/>
<path fill-rule="evenodd" clip-rule="evenodd" d="M103.172 101.94C102.586 100.946 103.648 97.7069 103.934 96.891C104.364 95.6671 105.097 95.9792 105.08 97.0735C104.963 97.5638 103.675 102.961 103.172 101.941V101.94Z" fill="#231F20"/>
<path fill-rule="evenodd" clip-rule="evenodd" d="M105.572 102.36C104.408 101.549 105.572 98.9139 106 97.6889C106.087 97.3891 106.512 96.439 106.946 96.6633C107.84 97.1964 106.735 103.172 105.571 102.359L105.572 102.36Z" fill="#231F20"/>
<path fill-rule="evenodd" clip-rule="evenodd" d="M89.5223 72.5068C88.7538 72.2938 87.1155 70.476 86.7312 70.2146C85.7926 69.5947 84.9712 68.0621 86.8698 68.8701C87.2541 69.1327 91.8277 73.1458 89.5223 72.5068Z" fill="#57585A"/>
<path fill-rule="evenodd" clip-rule="evenodd" d="M91.3188 71.612C90.432 71.6864 88.8399 69.6308 87.9012 68.6988C86.7463 67.5989 87.0561 67.2867 88.4027 68.0485C88.7396 68.239 92.9008 71.4858 91.3188 71.612Z" fill="#57585A"/>
<path fill-rule="evenodd" clip-rule="evenodd" d="M122.654 56.1917C122.095 62.6661 119.631 70.5526 112.192 71.5218C110.486 71.7438 108.553 71.6819 106.893 71.1691C106.666 71.0992 105.602 70.9583 105.468 70.7014C105.202 70.1965 105.661 68.3055 105.666 67.6462C105.674 66.7333 105.393 65.8295 105.134 64.9572C105.11 64.8727 104.769 64.1898 104.852 64.1233C104.979 64.0196 105.716 64.4005 105.855 64.4591C106.844 64.8772 107.785 65.4013 108.786 65.8047C111.275 66.8088 113.721 66.2769 115.886 64.9133C118.031 63.5621 119.784 61.2811 120.914 59.1556C121.373 58.2924 121.761 56.6177 122.178 55.7353C122.255 55.573 122.888 54.5711 122.847 55.3239L122.655 56.1917H122.654Z" fill="#FABDA6"/>
<path fill-rule="evenodd" clip-rule="evenodd" d="M107.736 57.8743C109.3 56.7946 110.791 56.1162 112.728 56.07C113.345 56.0553 113.924 56.1635 114.517 56.3179C114.689 56.3619 114.867 56.4317 115.028 56.496C115.133 56.5377 115.431 56.5523 115.343 56.6233C114.878 56.9997 113.429 56.8003 112.843 56.8837C111.054 57.1372 109.356 57.9103 107.604 58.1583L107.736 57.8731V57.8743Z" fill="#FABDA6"/>
<path fill-rule="evenodd" clip-rule="evenodd" d="M108.033 58.5369C109.421 59.5816 110.985 60.6646 112.826 59.9738C113.604 59.6808 114.21 58.9945 114.713 58.3588C114.882 58.1447 114.959 57.6455 115.237 57.5328C115.31 57.5023 115.317 57.7232 115.315 57.7559C115.243 60.7232 111.446 61.6868 109.298 60.2848C108.687 59.8859 107.769 59.3371 107.653 58.5132L108.033 58.5369Z" fill="#FABDA6"/>
<path fill-rule="evenodd" clip-rule="evenodd" d="M111.313 57.0595C112.255 56.9299 114.958 56.9073 115.153 57.055C115.348 57.2026 114.991 57.7762 114.917 57.8731C114.485 58.5437 113.882 59.2379 113.146 59.6008C112.213 60.1316 111.237 60.2048 110.354 59.9637C109.322 59.6819 108.421 58.9697 107.871 58.0568C107.798 58.1537 110.2 57.2127 111.313 57.0595Z" fill="white"/>
<path fill-rule="evenodd" clip-rule="evenodd" d="M51.9711 42.6512C51.9711 42.6512 52.9526 41.6155 53.6388 40.4603C54.325 39.3052 55.3831 37.3375 55.8789 36.1384C56.3746 34.9393 57.1048 33.1148 56.9414 32.2932C56.778 31.4717 56.2056 30.5104 55.8304 29.6302C55.4552 28.7489 54.636 28.2125 54.7633 27.1261C54.8895 26.0386 55.3887 25.5742 56.1594 24.6096C56.9313 23.6438 57.5893 23.2662 58.2237 22.4864C58.8581 21.7076 59.0587 21.2163 59.7066 20.7666C60.3545 20.3169 60.3669 20.8669 61.0722 20.0769C61.7787 19.2869 62.2114 18.8699 63.0892 18.2377C63.967 17.6043 65.1906 16.5878 65.7416 16.2261C66.2926 15.8643 66.669 15.4383 67.5648 15.0427C68.4606 14.6472 68.8144 15.0337 68.8414 15.5634C68.8685 16.0931 68.6702 17.1919 68.0865 17.9436C67.5039 18.6964 66.1631 20.2651 65.7698 20.584C65.3777 20.903 64.6182 21.1115 64.1337 21.5544C63.6503 21.9973 63.1872 22.4548 63.0982 23.1873C63.0081 23.9187 62.7579 27.179 62.9821 26.1321C63.2075 25.0851 63.6684 23.5412 64.101 22.7749C64.5349 22.0085 65.0915 21.205 65.4633 20.8714C65.8352 20.5378 66.6712 19.8752 67.2234 19.1641C67.7766 18.4529 68.4538 17.8331 68.9237 17.539C69.3936 17.246 70.517 16.5382 71.1818 16.1968C71.8466 15.8553 72.8979 15.5082 73.8895 14.8951C74.881 14.282 75.6495 14.4939 75.9616 14.8512C76.2749 15.2084 75.7498 16.0987 75.3554 16.767C74.9622 17.4353 73.3441 18.6423 72.5215 19.1562C71.699 19.6701 71.1638 19.6599 70.677 20.3248C70.1902 20.9886 69.4499 21.9127 68.784 22.6047C68.118 23.2966 67.7575 23.7012 67.6234 24.6242C67.4893 25.5461 67.1287 28.2159 67.7192 28.1065C68.3096 27.9972 69.7418 28.217 70.7897 27.9634C71.8365 27.7098 73.3204 27.4247 73.9638 27.5464C74.6084 27.6681 75.583 28.732 75.8411 29.3372C76.1002 29.9412 76.6208 31.4074 76.9295 32.3349C77.2383 33.2635 77.3307 34.0952 77.7532 34.6925C78.1769 35.2898 78.5758 36.4427 78.0823 36.4641C77.5887 36.4855 76.7943 36.6997 76.3335 36.4574C75.8726 36.2162 75.3915 35.4803 74.9892 34.5483C74.5881 33.6163 74.7605 32.9457 74.2771 32.0814C73.7937 31.217 73.343 30.9183 72.8337 30.96C72.3255 31.0017 71.2517 31.2046 70.5125 31.3004C69.7722 31.3962 69.0071 31.4401 68.953 32.167C68.8989 32.8928 68.7614 34.7365 68.6555 35.4893C68.5507 36.2421 68.4606 37.9292 68.4606 37.9292C68.4606 37.9292 68.224 37.9867 69.7361 38.4679C71.2483 38.948 71.7035 39.2522 72.3796 39.2173C73.0556 39.1835 73.5875 39.3041 74.1791 38.709C74.7706 38.114 74.8901 37.7196 75.4309 37.2913C75.9706 36.8631 76.2997 36.5633 77.0107 36.4743C77.7217 36.3852 78.1882 36.596 78.4496 36.6929C78.7121 36.7898 78.88 37.0964 78.409 37.4987C77.938 37.901 77.3972 38.7203 77.1831 39.1553C76.969 39.5903 76.4585 40.9686 76.2321 41.3259C76.0056 41.6831 75.2067 42.3007 74.5486 42.4776C73.8906 42.6534 72.943 42.7165 71.8128 42.7008C70.6826 42.6861 70.7085 42.925 69.9558 43.2271C69.2031 43.528 68.3186 44.3349 67.5028 44.7146C66.687 45.0944 65.5546 45.4708 64.5585 45.4618C63.5624 45.4528 62.0334 45.6264 61.0936 45.9994C60.1528 46.3724 58.0367 47.8217 57.4169 48.437C56.7972 49.0523 55.0315 50.8014 55.0315 50.8014C55.0315 50.8014 47.1136 64.4411 44.8386 69.1338C44.2876 70.2709 45.4594 70.7769 45.5631 72.0458C45.8222 75.216 46.3372 80.0383 45.5698 83.9849C45.2127 85.8253 44.8915 88.2877 43.5642 88.8264C42.9163 89.089 40.7111 88.6495 38.5894 88.5165C35.2699 88.3069 31.4072 88.1367 28.2838 87.1235C25.131 86.1003 24.2115 83.9996 24.1304 83.7855C23.887 83.1386 22.3985 77.6288 26.224 71.9433C31.7915 63.6691 40.399 55.3836 46.1659 49.4671C48.9097 46.6519 51.9633 42.65 51.9633 42.65L51.9711 42.6512Z" fill="#FFF3ED"/>
<path fill-rule="evenodd" clip-rule="evenodd" d="M64.8232 38.4792L68.6442 33.6118L68.5304 38.0476L67.007 38.0239L65.5973 38.4566L64.8244 38.4803L64.8232 38.4792Z" fill="#FABDA6"/>
<path fill-rule="evenodd" clip-rule="evenodd" d="M162.954 21.081L162.181 14.1017L161.081 13.3444L140.478 15.3346L139.507 16.4098L140.665 28.2519L141.88 29.3169L153.96 28.2418L161.495 26.6618L162.222 25.288L162.954 21.0833V21.081Z" fill="#FDE7DC"/>
<path fill-rule="evenodd" clip-rule="evenodd" d="M154.681 23.22L140.43 24.7065L140.76 27.1903L156.767 25.7095L156.428 25.0029L154.992 24.542L154.613 23.9357L154.682 23.22H154.681Z" fill="#57585A"/>
<path fill-rule="evenodd" clip-rule="evenodd" d="M165.832 89.8846C165.832 89.8846 162.627 77.994 159.534 67.8085C157.521 61.1819 155.236 54.9126 155.006 54.3536C154.425 52.9359 153.007 49.8232 152.501 48.3807C151.995 46.9382 150.73 44.0272 150.502 42.7109C150.275 41.3946 149.996 38.966 150.173 37.9788C150.35 36.9916 150.805 35.1445 151.134 34.537C151.463 33.9296 151.691 33.4236 150.882 33.3988C150.072 33.3729 149.541 32.8162 150.021 32.3361C150.502 31.8549 151.591 30.8169 152.072 30.2106C152.552 29.6032 154.274 27.8316 155.058 27.1227C155.843 26.4139 157.006 25.4019 157.386 25.0728C157.766 24.7437 158.625 24.6175 159.182 24.9973C159.739 25.3771 160.524 25.6295 161.004 26.1107C161.485 26.5919 161.789 26.9458 161.94 26.1873C162.092 25.4278 162.269 24.5679 161.763 24.5679C161.258 24.5679 160.65 24.7189 160.069 24.7708C159.487 24.8215 159.208 24.8711 158.551 24.8215C157.893 24.7708 157.766 25.1505 157.26 25.1753C156.754 25.2001 156.38 25.1697 155.791 24.8609C155.203 24.5532 154.824 24.3741 154.739 23.7847C154.655 23.1964 155.059 22.7963 155.744 22.6791C156.429 22.5619 157.201 22.5213 157.899 22.2249C158.596 21.9285 158.9 21.5814 160.092 21.3853C161.285 21.1892 161.496 21.2974 162.858 21.1723C164.218 21.0461 164.68 21.0506 165.26 21.3459C165.84 21.6423 166.271 22.2632 166.321 22.7557C166.373 23.2471 166.264 24.0732 166.029 24.8147C165.794 25.5562 165.285 26.7621 165.087 27.6828C164.89 28.6024 164.569 29.3192 165.012 29.761C165.455 30.2039 166.156 30.7234 166.291 31.3105C166.425 31.8988 166.672 32.0341 167.227 32.4161C167.782 32.7981 167.984 33.2365 167.96 33.6456C167.936 34.0536 167.943 34.1054 168.422 34.7162C168.901 35.3282 169.234 36.0415 169.284 36.6862C169.333 37.3308 169.152 38.9007 168.842 40.0321C168.531 41.1625 167.696 43.4412 167.04 44.5366C166.384 45.632 165.339 48.0629 165.118 48.8935C164.897 49.7229 165.096 50.6617 165.361 51.6579C165.627 52.6542 166.717 55.7556 167.16 56.9062C167.604 58.0568 181.827 87.9012 181.827 87.9012C181.827 87.9012 183.437 91.1491 184.727 94.468C185.823 97.2821 186.571 99.9642 187.133 102.668C187.757 105.671 186.758 107.265 185.915 107.82C185.663 107.987 184.06 108.666 182.083 108.872C178.926 109.201 174.856 109.036 174.143 109.009C172.985 108.968 171.368 106.321 169.216 102.547C168.917 102.023 167.2 97.6968 166.442 94.7114C165.657 91.6258 165.835 89.8846 165.835 89.8846H165.832Z" fill="#FFF3ED"/>
<path fill-rule="evenodd" clip-rule="evenodd" d="M159.83 42.259C160.084 41.7834 160.116 40.8638 159.956 39.9115C159.797 38.9604 159.353 38.7384 159.734 37.8492C160.115 36.9611 160.559 36.072 161.003 36.4844C161.448 36.8969 162.018 37.5314 162.812 37.6903C163.605 37.8492 164.017 37.8165 163.224 38.7057C162.431 39.5937 159.575 42.7346 159.83 42.259Z" fill="#FABDA6"/>
<path fill-rule="evenodd" clip-rule="evenodd" d="M156.522 49.147C156.522 49.147 155.954 47.1365 155.742 45.5836C155.53 44.0306 155.656 42.6625 156.165 43.1234C156.675 43.5843 157.053 43.3037 157.467 43.0468C157.88 42.7898 157.736 43.1831 158.586 42.9724C159.435 42.7616 159.689 42.809 158.856 43.812C158.024 44.815 157.673 44.9074 157.139 46.2248C156.606 47.5422 156.522 49.147 156.522 49.147Z" fill="#FABDA6"/>
<path fill-rule="evenodd" clip-rule="evenodd" d="M140.991 32.2267C140.991 32.2267 141.02 33.3255 141.445 34.0141C141.871 34.7027 142.697 34.9833 142.697 34.9833C142.697 34.9833 141.99 35.0408 141.604 35.735C141.22 36.4292 141.157 37.7602 141.157 37.7602C141.157 37.7602 141.06 36.4991 140.634 35.8094C140.208 35.1208 139.452 35.0036 139.452 35.0036C139.452 35.0036 140.091 34.8582 140.475 34.164C140.86 33.4698 140.991 32.2267 140.991 32.2267Z" fill="white"/>
<path fill-rule="evenodd" clip-rule="evenodd" d="M158.186 4.29486C158.186 4.29486 158.214 5.39365 158.64 6.08223C159.066 6.77081 159.891 7.05142 159.891 7.05142C159.891 7.05142 159.183 7.1089 158.799 7.80311C158.415 8.49732 158.351 9.82827 158.351 9.82827C158.351 9.82827 158.255 8.56719 157.828 7.87749C157.402 7.18891 156.646 7.07171 156.646 7.07171C156.646 7.07171 157.284 6.92633 157.669 6.23212C158.054 5.53791 158.185 4.29486 158.185 4.29486H158.186Z" fill="white"/>
<path fill-rule="evenodd" clip-rule="evenodd" d="M141.487 9.36285C141.487 9.36285 141.502 10.0064 141.754 10.4109C142.004 10.8155 142.487 10.9789 142.487 10.9789C142.487 10.9789 142.072 11.0127 141.846 11.4196C141.621 11.8264 141.583 12.6074 141.583 12.6074C141.583 12.6074 141.527 11.8681 141.277 11.4635C141.027 11.0589 140.584 10.9913 140.584 10.9913C140.584 10.9913 140.959 10.9057 141.185 10.4988C141.41 10.092 141.487 9.36285 141.487 9.36285Z" fill="white"/>
<path fill-rule="evenodd" clip-rule="evenodd" d="M170.107 18.5972C170.107 18.5972 170.123 19.2407 170.373 19.6452C170.623 20.0498 171.106 20.2132 171.106 20.2132C171.106 20.2132 170.692 20.247 170.465 20.6539C170.24 21.0607 170.203 21.8417 170.203 21.8417C170.203 21.8417 170.146 21.1013 169.896 20.6978C169.646 20.2933 169.202 20.2256 169.202 20.2256C169.202 20.2256 169.576 20.1411 169.802 19.7332C170.028 19.3263 170.105 18.5972 170.105 18.5972H170.107Z" fill="white"/>
<path fill-rule="evenodd" clip-rule="evenodd" d="M135.254 21.9443C135.254 21.9443 135.271 22.5889 135.521 22.9924C135.771 23.397 136.255 23.5604 136.255 23.5604C136.255 23.5604 135.84 23.5942 135.614 24.001C135.388 24.4079 135.351 25.1888 135.351 25.1888C135.351 25.1888 135.295 24.4484 135.044 24.045C134.795 23.6404 134.351 23.5716 134.351 23.5716C134.351 23.5716 134.726 23.4871 134.951 23.0792C135.177 22.6723 135.253 21.9432 135.253 21.9432L135.254 21.9443Z" fill="white"/>
<path d="M150.605 9.09462C150.32 9.09462 150.09 8.8636 150.09 8.5796V0.515024C150.09 0.231028 150.32 0 150.605 0C150.89 0 151.12 0.231028 151.12 0.515024V8.5796C151.12 8.8636 150.89 9.09462 150.605 9.09462Z" fill="white"/>
<path d="M129.985 21.6558C129.701 21.6558 129.47 21.4248 129.47 21.1408C129.47 20.8568 129.7 20.6257 129.985 20.6257H137.947C138.231 20.6257 138.462 20.8556 138.462 21.1396C138.462 21.4236 138.232 21.6547 137.947 21.6547H129.985V21.6558Z" fill="white"/>
<path d="M163.59 21.6524C163.306 21.6524 163.075 21.4214 163.075 21.1374C163.075 20.8534 163.305 20.6224 163.59 20.6224H171.225C171.509 20.6213 171.74 20.8523 171.74 21.1363C171.74 21.4203 171.51 21.6513 171.225 21.6513H163.59V21.6524Z" fill="white"/>
<path d="M131.971 30.4833C131.778 30.4833 131.594 30.3751 131.506 30.1892C131.384 29.9322 131.493 29.6246 131.75 29.5029L139.091 26.0239C139.347 25.9022 139.655 26.0115 139.776 26.2685C139.898 26.5254 139.789 26.8331 139.532 26.9548L132.191 30.4337C132.12 30.4675 132.046 30.4833 131.971 30.4833Z" fill="white"/>
<path d="M162.247 16.1359C162.054 16.1359 161.869 16.0277 161.781 15.8418C161.659 15.5848 161.769 15.2772 162.026 15.1554L169.019 11.8422C169.274 11.7204 169.582 11.8298 169.704 12.0867C169.825 12.3437 169.716 12.6513 169.459 12.773L162.466 16.0863C162.395 16.1201 162.321 16.1359 162.247 16.1359Z" fill="white"/>
<path d="M145.286 10.4301C145.093 10.4301 144.909 10.3219 144.821 10.1359L141.309 2.72275C141.187 2.4658 141.296 2.15814 141.553 2.03643C141.811 1.91472 142.118 2.02403 142.239 2.28098L145.751 9.69417C145.873 9.95112 145.764 10.2588 145.507 10.3805C145.436 10.4143 145.36 10.4301 145.286 10.4301Z" fill="white"/>
<path d="M139.741 14.5413C139.644 14.5413 139.546 14.5142 139.46 14.4568L133.071 10.2735C132.833 10.1179 132.766 9.799 132.922 9.56009C133.079 9.32342 133.397 9.25468 133.635 9.41133L140.024 13.5946C140.262 13.7502 140.328 14.0691 140.173 14.308C140.074 14.459 139.909 14.5413 139.741 14.5413Z" fill="white"/>
<path d="M139.312 38.9097C139.215 38.9097 139.117 38.8826 139.031 38.8251C138.793 38.6696 138.726 38.3496 138.882 38.1118L143.575 30.9398C143.73 30.702 144.049 30.6355 144.288 30.791C144.526 30.9465 144.592 31.2666 144.437 31.5044L139.744 38.6764C139.645 38.8274 139.48 38.9097 139.312 38.9097Z" fill="white"/>
<path d="M157.903 10.4977C157.806 10.4977 157.708 10.4707 157.621 10.4132C157.384 10.2577 157.317 9.93761 157.473 9.69982L161.465 3.59955C161.622 3.36176 161.939 3.29527 162.178 3.45079C162.416 3.60631 162.484 3.92524 162.327 4.16416L158.335 10.2644C158.236 10.4154 158.071 10.4977 157.903 10.4977Z" fill="white"/>
<path d="M111.459 66.9204C110.626 66.9204 110.001 66.739 109.116 66.4843L108.685 66.3603C106.492 65.6988 104.225 64.3476 102.292 62.5523C99.854 60.2555 97.6556 56.3495 97.286 53.6571C97.2477 53.3754 97.4449 53.1151 97.7255 53.0768C98.0072 53.0373 98.2674 53.2345 98.3058 53.5174C98.5987 55.653 100.476 59.4272 102.995 61.8006C104.812 63.4888 106.936 64.7578 108.973 65.3731L109.401 65.4959C110.543 65.8261 111.114 65.9918 112.311 65.8273C113.698 65.6357 114.273 65.2615 115.537 64.44L115.643 64.3712C117.415 63.2431 119.106 61.3904 120.411 59.15C122.11 56.3033 122.848 52.28 122.56 50.1816C122.52 49.8998 122.718 49.6395 122.999 49.6012C123.287 49.5606 123.541 49.7601 123.58 50.0407C123.899 52.3611 123.133 56.5985 121.298 59.6729C119.915 62.0474 118.105 64.0252 116.2 65.2367L116.098 65.3032C114.788 66.1552 114.066 66.624 112.45 66.8472C112.079 66.899 111.754 66.9215 111.457 66.9215L111.459 66.9204Z" fill="#231F20"/>
<path d="M101.266 49.9776C101.168 49.9776 101.069 49.9404 100.995 49.866C100.844 49.7161 100.843 49.4716 100.993 49.3194C102.49 47.8093 104.39 47.4893 105.834 48.5035C106.009 48.6264 106.052 48.8664 105.929 49.0411C105.806 49.2158 105.566 49.2586 105.392 49.1358C104.253 48.3379 102.779 48.6162 101.541 49.8638C101.466 49.9393 101.367 49.9776 101.267 49.9776H101.266Z" fill="#231F20"/>
<path d="M110.795 53.1274C110.754 53.1274 110.712 53.1207 110.671 53.1071C108.943 52.5189 109.301 51.1327 109.564 50.1207C109.662 49.7398 109.755 49.3803 109.752 49.0839C109.706 48.2578 109.518 47.6267 109.248 46.9381C109.171 46.7398 109.269 46.5155 109.467 46.4377C109.666 46.36 109.889 46.458 109.967 46.6564C110.224 47.3111 110.469 48.0561 110.524 49.0568C110.53 49.4727 110.419 49.8998 110.312 50.3134C110.021 51.4325 109.918 52.0331 110.921 52.3746C111.122 52.4434 111.23 52.6631 111.162 52.8648C111.106 53.026 110.957 53.1263 110.797 53.1263L110.795 53.1274Z" fill="#231F20"/>
<path d="M123.692 49.7149C123.658 49.7149 123.622 49.7104 123.588 49.7003C123.382 49.6428 123.263 49.4298 123.32 49.2236C123.494 48.606 123.941 47.4779 124.99 46.8626C125.174 46.7544 125.41 46.8164 125.518 47.0001C125.627 47.1838 125.565 47.4204 125.38 47.5286C124.565 48.0065 124.205 48.9261 124.064 49.4321C124.015 49.6022 123.861 49.7138 123.692 49.7138V49.7149Z" fill="#231F20"/>
<path d="M123.026 47.7507C123.015 47.7507 123.004 47.7507 122.994 47.7507C122.71 47.7338 122.494 47.4892 122.512 47.2052C122.544 46.6631 122.482 44.7518 122.184 44.0959C122.067 43.8367 122.18 43.5313 122.438 43.4141C122.698 43.2958 123.003 43.4107 123.121 43.6688C123.572 44.6571 123.558 46.9731 123.54 47.2672C123.524 47.5411 123.297 47.7507 123.027 47.7507H123.026Z" fill="#231F20"/>
<path d="M92.8118 48.3266C92.5673 48.3266 92.3498 48.1519 92.3059 47.9017C92.2563 47.6211 92.4422 47.354 92.7228 47.3044C94.689 46.9539 96.9122 45.277 97.8959 43.4051C98.0288 43.1526 98.3398 43.0569 98.5911 43.1887C98.8435 43.3206 98.9393 43.6327 98.8074 43.884C97.6908 46.0106 95.1521 47.9175 92.9042 48.3187C92.8738 48.3243 92.8433 48.3266 92.8129 48.3266H92.8118Z" fill="#231F20"/>
<path d="M97.8353 56.4813C97.8082 56.4813 97.7801 56.4791 97.753 56.4746C95.0735 56.0429 92.8211 53.4374 92.5134 50.4137C92.4548 49.2282 92.856 48.3796 93.6109 48.0595C94.3738 47.7361 95.3169 48.0572 96.1338 48.9228C96.3288 49.129 96.3197 49.4558 96.1124 49.6508C95.9062 49.8457 95.5794 49.8367 95.3845 49.6294C94.8842 49.0986 94.3603 48.8619 94.0143 49.0073C93.6887 49.1459 93.5084 49.6553 93.5411 50.3371C93.8014 52.8852 95.6831 55.0985 97.9175 55.458C98.1981 55.5031 98.3897 55.768 98.3446 56.0486C98.304 56.3021 98.0854 56.4813 97.8364 56.4813H97.8353Z" fill="#231F20"/>
<path d="M123.57 52.742C123.347 52.742 123.142 52.5966 123.077 52.3723C122.997 52.0996 123.152 51.8134 123.425 51.7333C124.468 51.4257 125.403 50.4092 125.988 48.9464C126.624 47.3551 126.687 45.5824 126.14 44.6357C125.992 44.3765 125.877 44.3833 125.835 44.381C125.322 44.3945 124.41 45.4888 124.11 46.076C123.981 46.3295 123.672 46.4298 123.417 46.3014C123.163 46.1729 123.063 45.8618 123.193 45.6083C123.417 45.1676 124.588 43.3825 125.809 43.351C126.152 43.3442 126.659 43.4682 127.033 44.1207C127.737 45.3412 127.702 47.434 126.944 49.3273C126.242 51.0853 125.064 52.3227 123.717 52.7194C123.668 52.7341 123.619 52.7408 123.571 52.7408L123.57 52.742Z" fill="#231F20"/>
<path d="M96.6758 53.3732C96.5282 53.3732 96.3874 53.2886 96.3231 53.1455C95.94 52.2946 95.5096 52.1279 94.651 51.7965L94.4572 51.721C94.2589 51.6433 94.1608 51.419 94.2386 51.2206C94.3163 51.0212 94.5406 50.9231 94.7389 51.002L94.9304 51.0764C95.8161 51.419 96.5158 51.6895 97.0285 52.8288C97.1164 53.0238 97.0285 53.2526 96.8347 53.3393C96.7829 53.363 96.7288 53.3732 96.6758 53.3732Z" fill="#231F20"/>
<path d="M99.6161 43.8108C99.4899 43.8108 99.367 43.7488 99.2927 43.6361C99.1755 43.4581 99.2262 43.218 99.4042 43.1008C100.976 42.073 104.175 41.0587 106.052 42.144C106.237 42.2511 106.3 42.4877 106.193 42.6714C106.086 42.8563 105.849 42.9194 105.666 42.8123C104.139 41.9276 101.294 42.7875 99.8279 43.7477C99.7626 43.7905 99.6893 43.8108 99.6172 43.8108H99.6161Z" fill="#231F20"/>
<path d="M111.822 41.7822C111.71 41.7822 111.597 41.7326 111.521 41.638C111.388 41.4712 111.414 41.2289 111.581 41.0948C112.822 40.0974 115.782 39.7018 118.21 40.7048C118.407 40.786 118.501 41.0125 118.42 41.2097C118.338 41.4069 118.112 41.5005 117.915 41.4193C115.77 40.5347 113.111 40.8558 112.064 41.6977C111.993 41.7552 111.908 41.7833 111.822 41.7833V41.7822Z" fill="#231F20"/>
<path d="M123.678 58.7364C123.415 58.7364 123.19 58.5358 123.165 58.2687C123.139 57.9858 123.348 57.7345 123.63 57.7086C126.419 57.4516 128.409 56.452 129.546 54.7379C132.191 50.7495 129.967 43.7533 128.639 39.5734C128.318 38.5625 128.064 37.7646 127.932 37.1764C126.06 29.1512 122.948 20.0025 115.471 20.548C115.195 20.566 114.942 20.3553 114.92 20.0713C114.9 19.7873 115.113 19.5405 115.397 19.5202C124.713 18.8485 127.781 31.9946 128.936 36.9453C129.06 37.4953 129.32 38.3135 129.622 39.2613C131.005 43.6181 133.322 50.9085 130.405 55.307C129.087 57.2938 126.839 58.4467 123.725 58.7341C123.709 58.7352 123.692 58.7364 123.678 58.7364Z" fill="#231F20"/>
<path d="M114.093 48.0392C114.007 48.0392 113.92 48.011 113.849 47.9524C113.683 47.8172 113.659 47.5737 113.795 47.4092C114.912 46.0433 116.829 45.8393 118.677 46.8874C118.863 46.9934 118.927 47.2289 118.822 47.4137C118.718 47.5985 118.483 47.665 118.296 47.5591C116.768 46.6913 115.273 46.8221 114.392 47.8983C114.316 47.9918 114.205 48.0403 114.093 48.0403V48.0392Z" fill="#231F20"/>
<path d="M127.88 74.9241C127.786 74.9241 127.693 74.8993 127.607 74.8452C122.704 71.7776 122.456 63.0605 122.291 57.2927C122.268 56.5072 122.248 55.7725 122.216 55.1109C122.203 54.8269 122.423 54.5858 122.708 54.5722C122.989 54.5632 123.232 54.7785 123.246 55.0625C123.278 55.7296 123.298 56.4712 123.322 57.2634C123.48 62.8115 123.72 71.1973 128.153 73.9718C128.395 74.1229 128.468 74.4407 128.317 74.6818C128.219 74.8385 128.051 74.9241 127.88 74.9241Z" fill="#231F20"/>
<path d="M104.095 72.5248C103.927 72.5248 103.762 72.4425 103.663 72.2915C103.508 72.0537 103.574 71.7348 103.812 71.5793C105.984 70.1581 105.007 66.8967 104.293 64.5154L104.14 63.9993C104.06 63.7265 104.216 63.4403 104.489 63.3603C104.761 63.2791 105.048 63.4358 105.128 63.7096L105.28 64.219C106.042 66.7592 107.192 70.5977 104.376 72.4402C104.29 72.4966 104.192 72.5248 104.095 72.5248Z" fill="#231F20"/>
<path d="M113.492 29.8533C113.343 29.8533 113.197 29.7891 113.094 29.6662C112.913 29.4465 112.945 29.1219 113.164 28.9416C114.944 27.4743 115.813 24.3954 115.027 22.3545C114.924 22.0885 115.056 21.791 115.322 21.6884C115.586 21.587 115.886 21.7177 115.987 21.9837C116.932 24.436 115.94 27.9859 113.82 29.7361C113.724 29.815 113.608 29.8533 113.492 29.8533Z" fill="#231F20"/>
<path d="M84.0566 71.3291C84.0408 71.3291 84.0239 71.3291 84.007 71.3268C81.3963 71.0767 79.7759 70.254 79.0537 68.8103C77.6148 65.9354 80.3371 61.4693 82.7383 57.5283C83.8324 55.733 84.8657 54.0369 85.2747 52.8288C86.3181 49.7488 85.8369 46.786 85.3288 43.6508C84.9254 41.1591 84.5073 38.5828 84.9445 35.9818C86.6843 25.6452 95.8462 14.8185 106.218 15.8136C109.954 16.172 112.902 16.4548 115.149 20.1355C115.298 20.3778 115.22 20.6956 114.978 20.8432C114.737 20.9909 114.419 20.9154 114.27 20.6719C112.293 17.4308 109.838 17.1952 106.12 16.8391C96.3105 15.8992 87.6252 26.264 85.9609 36.1531C85.5507 38.5862 85.9372 40.9664 86.3451 43.4863C86.8511 46.6091 87.375 49.8367 86.2494 53.1601C85.8043 54.4753 84.7417 56.2199 83.6172 58.0647C81.4672 61.5932 78.7911 65.985 79.9743 68.3505C80.5174 69.4347 81.9067 70.0917 84.1051 70.3024C84.3879 70.3295 84.5963 70.5808 84.5682 70.8637C84.5423 71.1296 84.318 71.3291 84.0555 71.3291H84.0566Z" fill="#231F20"/>
<path d="M101.746 89.6626C101.683 89.6626 101.618 89.6513 101.555 89.6254C101.291 89.5195 101.163 89.2197 101.269 88.956C101.88 87.4244 101.714 85.7205 100.77 83.8903C99.8691 82.139 98.7524 80.1735 96.9112 79.0105C95.798 78.3073 94.2734 77.6345 92.6587 76.9222C87.0507 74.4485 80.0714 71.3697 83.028 63.9756C83.134 63.7119 83.4326 63.5834 83.6974 63.6882C83.961 63.7942 84.0895 64.094 83.9847 64.3577C81.3965 70.8276 87.6017 73.565 93.0745 75.9789C94.7241 76.707 96.2836 77.3944 97.4611 78.1382C99.4228 79.3779 100.651 81.4087 101.685 83.4169C102.756 85.4951 102.942 87.5428 102.224 89.3369C102.144 89.5386 101.95 89.6603 101.746 89.6603V89.6626Z" fill="#231F20"/>
<path d="M102.576 90.5957C102.428 90.5957 102.282 90.5326 102.18 90.4109C101.998 90.1922 102.028 89.8677 102.246 89.6851C104.283 87.9868 104.858 85.5999 105.174 83.2738C106.068 76.7182 103.807 71.5849 98.4551 68.0158C98.2185 67.858 98.1543 67.5391 98.312 67.3013C98.4698 67.0646 98.7887 67.0015 99.0264 67.1582C104.734 70.9639 107.146 76.4331 106.194 83.4113C105.848 85.9436 105.211 88.5525 102.904 90.4751C102.808 90.5551 102.691 90.5946 102.575 90.5946L102.576 90.5957Z" fill="#231F20"/>
<path d="M99.2604 95.7775C99.2232 95.7775 99.186 95.773 99.1477 95.7651C98.8705 95.7031 98.6947 95.4281 98.7567 95.1509C99.7821 90.5337 97.1533 87.6532 94.3701 84.6025C92.1075 82.1231 89.7694 79.5593 89.3165 75.944C89.2815 75.6622 89.481 75.4042 89.7638 75.3692C90.0421 75.3354 90.3035 75.5338 90.3385 75.8166C90.7497 79.1074 92.9763 81.5484 95.1307 83.9083C97.9691 87.0187 100.903 90.235 99.7618 95.3751C99.7089 95.6152 99.4959 95.7786 99.2593 95.7786L99.2604 95.7775Z" fill="#231F20"/>
<path d="M100.813 99.6137C100.735 99.6137 100.658 99.5957 100.583 99.5596C100.329 99.4323 100.226 99.1235 100.354 98.8688C101.303 96.9699 102.537 95.2231 103.732 93.5337C106.7 89.3335 109.502 85.3677 107.38 79.796C106.947 78.6589 106.276 77.7573 105.565 76.8028C105.363 76.5323 105.159 76.2585 104.955 75.9733C104.79 75.7423 104.844 75.42 105.075 75.2555C105.307 75.0898 105.627 75.1439 105.793 75.3749C105.992 75.6544 106.193 75.9226 106.39 76.1875C107.145 77.2017 107.859 78.1585 108.342 79.4297C110.66 85.5142 107.566 89.8936 104.573 94.1276C103.401 95.7854 102.19 97.5007 101.275 99.3297C101.185 99.51 101.004 99.6148 100.814 99.6148L100.813 99.6137Z" fill="#231F20"/>
<path d="M98.4304 108.112C98.3526 108.112 98.2749 108.094 98.2005 108.058C97.9459 107.931 97.8433 107.622 97.9707 107.367C99.9482 103.412 97.8907 99.9912 95.7114 96.3703C93.3835 92.5014 90.9756 88.4996 93.4105 83.6311C93.5379 83.3775 93.8466 83.2738 94.1013 83.4012C94.3559 83.5285 94.4585 83.8373 94.3311 84.092C92.1497 88.4556 94.3075 92.0416 96.5926 95.8395C98.8191 99.5393 101.121 103.365 98.8901 107.828C98.8 108.008 98.6186 108.113 98.4293 108.113L98.4304 108.112Z" fill="#231F20"/>
<path d="M100.48 125.826C99.3249 125.826 98.5316 125.331 98.0674 124.912C96.1901 123.22 95.8262 119.526 97.2381 116.501C98.1755 114.492 99.6685 112.773 101.113 111.112C101.669 110.472 102.194 109.868 102.692 109.246C105.674 105.518 110.092 98.2377 106.17 91.3733C106.029 91.1265 106.115 90.811 106.362 90.6712C106.608 90.5303 106.924 90.616 107.064 90.8628C111.288 98.2557 106.641 105.957 103.495 109.89C102.984 110.529 102.428 111.17 101.889 111.788C100.492 113.396 99.0477 115.059 98.171 116.939C96.9609 119.532 97.2234 122.767 98.757 124.149C99.7891 125.079 101.269 125.01 103.037 123.949C103.28 123.804 103.597 123.882 103.743 124.126C103.889 124.37 103.811 124.686 103.566 124.833C102.34 125.569 101.315 125.828 100.48 125.828V125.826Z" fill="#231F20"/>
<path d="M94.7972 127.032C92.9504 127.032 91.8461 126.245 91.2241 125.531C89.5632 123.622 89.6387 120.461 90.2641 118.141C91.0472 115.23 93.3999 113.095 95.6738 111.03C98.3713 108.581 100.92 106.268 100.92 102.83C100.92 102.545 101.151 102.315 101.435 102.315C101.719 102.315 101.95 102.545 101.95 102.83C101.95 106.724 99.1117 109.301 96.3657 111.793C94.2011 113.757 91.9633 115.789 91.2579 118.408C90.5492 121.043 90.8331 123.512 92.0005 124.854C92.8039 125.777 94.0039 126.147 95.5679 125.952C95.8485 125.918 96.1076 126.117 96.1426 126.399C96.1775 126.681 95.978 126.939 95.6952 126.974C95.3775 127.014 95.0789 127.032 94.7972 127.032Z" fill="#231F20"/>
<path d="M98.9998 128.133C97.2544 128.133 95.4854 127.212 94.4048 125.712C93.3771 124.285 93.1608 122.596 93.8121 121.077C93.9236 120.814 94.2267 120.692 94.4882 120.806C94.7496 120.919 94.8701 121.221 94.7586 121.482C94.2538 122.662 94.4284 123.984 95.2409 125.11C96.1986 126.44 97.8009 127.21 99.321 127.09C100.679 126.978 102.03 126.005 103.297 125.02C103.522 124.844 103.845 124.885 104.02 125.11C104.194 125.336 104.154 125.658 103.93 125.833C102.54 126.913 101.046 127.979 99.4066 128.116C99.2714 128.127 99.1362 128.133 99.0009 128.133H98.9998Z" fill="#231F20"/>
<path d="M96.0696 48.7458C95.7868 48.7458 95.557 48.517 95.5547 48.2342C95.5525 47.9502 95.7823 47.718 96.0663 47.7158C97.7801 47.7056 99.7261 45.8304 100.889 44.709C103.52 42.1733 104.816 39.0573 106.188 35.7575C106.43 35.1749 106.675 34.5866 106.93 33.9961C106.998 33.8349 107.074 33.6535 107.155 33.4563C107.989 31.4333 109.539 27.667 112.413 28.6621C112.681 28.7545 112.824 29.0487 112.731 29.3169C112.638 29.5863 112.344 29.7282 112.077 29.6347C110.277 29.0126 109.082 31.4818 108.108 33.8473C108.024 34.0502 107.947 34.2372 107.876 34.4029C107.624 34.9901 107.38 35.5738 107.14 36.1531C105.725 39.5543 104.389 42.7661 101.604 45.4506C100.331 46.6778 98.1982 48.7323 96.0742 48.7447H96.0708L96.0696 48.7458Z" fill="#231F20"/>
<path d="M124.141 44.0148C122.966 44.0148 122.078 43.3014 121.295 42.6714C121.029 42.4573 120.777 42.2556 120.525 42.0877C117.736 40.2271 115.338 36.3334 113.4 30.5149C113.31 30.2455 113.456 29.9536 113.725 29.8635C113.997 29.7722 114.286 29.9198 114.377 30.1892C116.215 35.7068 118.539 39.5238 121.097 41.2301C121.386 41.4228 121.668 41.6493 121.94 41.8679C122.654 42.4415 123.328 42.9836 124.14 42.9836C124.425 42.9836 124.655 43.2146 124.655 43.4986C124.655 43.7826 124.425 44.0137 124.14 44.0137L124.141 44.0148Z" fill="#231F20"/>
<path d="M42.8657 89.4699C42.8555 89.4699 42.8443 89.4699 42.833 89.4699C41.5068 89.3887 40.1828 89.2975 38.8622 89.196C38.3518 89.1566 37.8041 89.1228 37.2317 89.0867C33.146 88.8309 27.5503 88.4804 24.6218 85.5142C23.0252 83.8959 23.0128 81.3546 23.0037 79.3137L23.0004 78.7716C22.9305 72.6307 32.9082 62.4339 41.713 53.4374C46.0658 48.9892 50.1774 44.7879 52.0276 42.0415C52.1865 41.8048 52.5065 41.7428 52.742 41.9017C52.9775 42.0606 53.0406 42.3807 52.8817 42.6162C50.9786 45.4415 47.0258 49.4806 42.4488 54.1575C34.2131 62.5726 23.9649 73.0455 24.0291 78.7592L24.0325 79.308C24.0415 81.2599 24.0528 83.471 25.3542 84.7907C28.0067 87.4763 33.3758 87.8132 37.296 88.0589C37.874 88.095 38.4261 88.1299 38.9411 88.1694C40.256 88.2708 41.5744 88.361 42.8961 88.4421C43.18 88.4601 43.3964 88.7035 43.3784 88.9875C43.3615 89.2603 43.135 89.471 42.8645 89.471L42.8657 89.4699Z" fill="#231F20"/>
<path d="M37.556 79.1671C37.3769 79.1671 37.2033 79.0736 37.1076 78.9068C36.9667 78.6589 37.0535 78.3445 37.3002 78.2047C38.7482 77.3809 40.5184 76.246 41.3556 74.7607C41.4773 74.5443 41.804 73.8805 42.2547 72.9621C44.3314 68.7359 49.8471 57.5113 55.1565 50.0373C55.321 49.8051 55.6421 49.7511 55.8743 49.9156C56.1064 50.0801 56.1605 50.4024 55.9959 50.6335C50.735 58.0399 45.2452 69.2104 43.1787 73.4162C42.7032 74.3854 42.3877 75.0244 42.2514 75.2667C41.2902 76.9718 39.3724 78.2115 37.8084 79.1006C37.7284 79.1469 37.6405 79.1683 37.5549 79.1683L37.556 79.1671Z" fill="#231F20"/>
<path d="M55.6307 50.8307C55.5124 50.8307 55.3941 50.7901 55.2972 50.7078C55.0808 50.523 55.0549 50.1984 55.2386 49.9821C56.9581 47.9637 58.4804 47.0328 60.2438 45.9532C61.3988 45.2465 62.7058 45.1361 63.9701 45.029C64.7025 44.9671 65.3943 44.9085 66.0445 44.7405C66.8535 44.5309 67.5375 44.0722 68.262 43.5865C68.8344 43.2022 69.426 42.8055 70.0998 42.526C70.8897 42.1981 71.7855 42.1902 72.652 42.1834C73.7506 42.1744 74.7884 42.1654 75.4679 41.5163C75.7845 41.2143 75.9896 40.7094 76.1867 40.2225C76.2803 39.9915 76.3727 39.765 76.4741 39.5587C76.7039 39.091 76.9428 38.6301 77.1873 38.1681C77.3654 37.8334 77.602 37.5764 77.8116 37.3499C77.913 37.2406 78.0144 37.1313 78.1068 37.014C77.6651 36.9724 76.7885 37.1008 76.5428 37.1887C76.0256 37.3724 75.647 37.8029 75.247 38.2571C74.7242 38.851 74.1315 39.5249 73.1467 39.6805C71.9466 39.8709 71.0362 39.472 70.1573 39.0877C69.835 38.9468 69.5015 38.8014 69.1556 38.6853C67.8147 38.2368 66.6372 38.5873 65.2817 39.2511C65.0259 39.3762 64.7183 39.2702 64.5932 39.0144C64.4681 38.7586 64.574 38.4509 64.8298 38.3258C66.1989 37.6553 67.7099 37.1166 69.4823 37.7083C69.8722 37.839 70.2272 37.9934 70.5708 38.1433C71.3821 38.4983 72.0819 38.8037 72.9867 38.6628C73.6053 38.5648 74.0075 38.1072 74.4752 37.5764C74.9225 37.0681 75.4307 36.4911 76.1991 36.2173C76.2206 36.2105 78.4764 35.5749 79.0939 36.401C79.2325 36.5869 79.4026 36.9847 78.9834 37.5618C78.8516 37.7432 78.7085 37.8987 78.5688 38.0486C78.3862 38.2469 78.2127 38.4329 78.0989 38.6493C77.86 39.1012 77.6257 39.5531 77.4003 40.0118C77.309 40.1977 77.2268 40.4017 77.1423 40.6091C76.9147 41.1692 76.6566 41.8048 76.18 42.2601C75.2053 43.1898 73.8532 43.2011 72.661 43.2112C71.8587 43.218 71.1004 43.2248 70.4953 43.4761C69.915 43.7172 69.3911 44.0689 68.8367 44.4408C68.0727 44.9535 67.2828 45.4832 66.3025 45.7356C65.569 45.925 64.8005 45.9903 64.058 46.0534C62.8602 46.1549 61.7289 46.2507 60.7824 46.8299C59.0246 47.9051 57.6364 48.7548 56.024 50.6481C55.9226 50.7676 55.7772 50.8295 55.6318 50.8295L55.6307 50.8307Z" fill="#231F20"/>
<path d="M68.5294 38.38C68.5113 38.38 68.4922 38.38 68.4741 38.3766C68.1913 38.3461 67.9862 38.0926 68.0167 37.8097C68.1046 36.9836 68.1541 36.1294 68.2026 35.3045C68.242 34.6193 68.2826 33.9329 68.3434 33.2477C68.3513 33.1598 68.3502 33.0494 68.3502 32.9299C68.3479 32.4104 68.3468 31.6982 68.8358 31.3049C69.1491 31.0524 69.886 30.9172 71.53 30.6907C71.921 30.6366 72.3661 30.5757 72.481 30.543C73.8748 30.1452 74.5701 31.4322 75.1109 32.8815C75.2315 33.2061 75.3194 33.543 75.405 33.8687C75.5639 34.4773 75.7138 35.0532 76.0608 35.5344C76.0969 35.5817 76.2805 35.7271 76.6186 35.8679C76.8811 35.9773 77.0051 36.2793 76.8958 36.5419C76.7865 36.8045 76.4845 36.9284 76.2219 36.8191C75.9515 36.7064 75.4636 36.4675 75.2247 36.1362C74.7661 35.4983 74.5768 34.7703 74.4089 34.1279C74.3267 33.8135 74.2501 33.516 74.1464 33.241C73.4377 31.3409 73.032 31.457 72.7627 31.5336C72.5869 31.5832 72.2511 31.6306 71.672 31.7106C71.0365 31.7985 69.7136 31.9799 69.4635 32.1208C69.3812 32.1963 69.3823 32.726 69.3835 32.9254C69.3835 33.081 69.3835 33.223 69.3733 33.3379C69.3136 34.013 69.2742 34.6891 69.2347 35.3631C69.1863 36.2004 69.1356 37.067 69.0454 37.9179C69.0173 38.1827 68.7941 38.3788 68.5339 38.3788L68.5294 38.38Z" fill="#231F20"/>
<path d="M78.2859 36.614C78.2544 36.614 78.2228 36.6118 78.1913 36.605C77.9118 36.5531 77.7271 36.2838 77.7789 36.0043C77.8003 35.8511 77.4882 35.3721 77.3203 35.114C77.0555 34.7072 76.7817 34.2868 76.7152 33.871C76.5586 32.9006 76.0842 31.4221 75.6955 30.463C75.3056 29.4995 74.998 29.0667 74.1315 28.2598C74.136 28.2564 73.9872 28.1809 73.4205 28.1809C73.3731 28.1809 73.3224 28.1809 73.2695 28.1832C72.7388 28.1967 72.1866 28.2722 71.9703 28.3105C71.7404 28.35 71.5184 28.3928 71.2987 28.4334C70.2001 28.6407 69.1623 28.8357 67.7178 28.714C67.435 28.6903 67.2242 28.4412 67.2479 28.1572C67.2716 27.8744 67.5206 27.6591 67.8045 27.6873C69.1116 27.7966 70.0367 27.6231 71.1083 27.4202C71.3325 27.3785 71.5601 27.3357 71.7945 27.294C72.0548 27.2489 72.6542 27.1666 73.2458 27.152C74.0627 27.1328 74.5518 27.241 74.8346 27.5036C75.8126 28.4142 76.2036 28.9675 76.651 30.0742C77.0611 31.0862 77.5648 32.6584 77.7327 33.7053C77.7642 33.9048 77.9873 34.2474 78.1845 34.5494C78.5338 35.0858 78.8944 35.6403 78.793 36.1891C78.7468 36.4371 78.5305 36.6106 78.2871 36.6106L78.2859 36.614Z" fill="#231F20"/>
<path d="M67.2711 28.8639C67.2474 28.8639 67.2249 28.8627 67.2012 28.8594C66.9195 28.821 66.7223 28.5618 66.7606 28.2801C66.835 27.7324 66.8767 27.1621 66.9172 26.6111C66.986 25.6689 67.0581 24.6952 67.2913 23.7407C67.4389 23.1377 67.9257 22.7039 68.3178 22.3556C68.4373 22.2486 68.5545 22.146 68.6514 22.0446C68.9162 21.7673 69.1663 21.4281 69.4311 21.0698C69.8773 20.4646 70.3382 19.8391 70.95 19.4075C71.5506 18.9837 72.1151 18.6862 72.6132 18.4248C73.634 17.8872 74.4408 17.4623 75.1642 16.2035C75.5406 15.5487 75.5687 15.1825 75.5316 15.0799C75.4876 14.9605 75.4335 14.9255 75.3851 14.9064C75.2217 14.8433 74.9186 14.9019 74.629 15.0518L74.0363 15.3594C72.8735 15.9612 71.6712 16.5833 70.5275 17.2212C69.8694 17.5886 69.2396 17.9954 68.6548 18.4327C68.4271 18.6028 68.1049 18.5566 67.9336 18.329C67.7635 18.1013 67.8097 17.779 68.0373 17.6077C68.6581 17.1434 69.3263 16.7106 70.0249 16.3207C71.1821 15.675 72.3923 15.0495 73.5619 14.4443L74.1535 14.1378C74.4228 13.998 75.1169 13.6994 75.7558 13.9462C76.1028 14.0803 76.3586 14.3497 76.4961 14.7238C76.6786 15.2197 76.5299 15.8891 76.0555 16.7152C75.1834 18.2332 74.167 18.7685 73.0921 19.3354C72.5985 19.5957 72.0881 19.8639 71.5416 20.2493C71.0661 20.584 70.6559 21.1408 70.2593 21.6806C69.9877 22.0502 69.706 22.4323 69.3951 22.7568C69.2801 22.8774 69.1427 22.9991 69.0018 23.1253C68.6874 23.4048 68.3629 23.6945 68.2908 23.9852C68.0778 24.8564 68.0125 25.7455 67.9437 26.6866C67.9021 27.2534 67.8592 27.8394 67.7804 28.4187C67.7454 28.6768 67.5246 28.865 67.2711 28.865V28.8639Z" fill="#231F20"/>
<path d="M62.721 29.3338H62.7154C62.4314 29.3304 62.2027 29.0982 62.2061 28.8131C62.2343 26.1659 62.9498 23.7226 64.3323 21.5509C64.4856 21.3109 64.8045 21.241 65.0433 21.3932C65.2834 21.5464 65.3532 21.8642 65.2011 22.1043C63.9222 24.1103 63.2619 26.371 63.236 28.8233C63.2326 29.1061 63.0027 29.3326 62.721 29.3326V29.3338Z" fill="#231F20"/>
<path d="M62.8945 27.1497H62.8889C62.6049 27.1463 62.3762 26.9142 62.3796 26.6291C62.3829 26.3259 62.3717 26.016 62.3604 25.7038C62.312 24.3458 62.2568 22.8087 63.3599 21.6005C63.6697 21.2602 64.0686 21.0562 64.4551 20.859C64.7188 20.7238 64.9689 20.5964 65.156 20.4398C66.987 18.9161 68.0856 17.3913 68.3335 16.0288C68.4293 15.5025 68.3414 15.356 68.3403 15.3549C68.1927 15.3177 67.5166 15.5859 66.7357 16.2249C66.0157 16.8143 65.2856 17.3079 64.5791 17.7846C63.1841 18.7256 61.8669 19.6148 60.8505 21.1058C60.6905 21.3413 60.3705 21.4022 60.135 21.241C59.8995 21.081 59.8398 20.761 59.9998 20.5254C61.1277 18.8699 62.5249 17.9278 64.0033 16.9293C64.6906 16.4661 65.4016 15.986 66.0833 15.427C66.6366 14.9728 68.0169 13.9732 68.8812 14.4815C69.3488 14.7576 69.5054 15.3391 69.3465 16.2125C69.0502 17.8387 67.8625 19.5269 65.814 21.2309C65.538 21.4608 65.2258 21.6208 64.9239 21.7752C64.6061 21.9386 64.3053 22.093 64.1193 22.2948C63.3002 23.1918 63.343 24.3932 63.3892 25.6666C63.4004 25.9957 63.4117 26.3214 63.4095 26.6392C63.4061 26.9221 63.1762 27.1486 62.8945 27.1486V27.1497Z" fill="#231F20"/>
<path d="M52.4467 42.8202C52.3465 42.8202 52.2462 42.7909 52.1572 42.7312C51.9228 42.5711 51.8619 42.2511 52.022 42.0155C53.7944 39.4156 56.2204 35.8555 56.2564 32.3721C56.2643 31.5809 55.7753 30.7245 55.3032 29.8961C54.742 28.9123 54.1606 27.8958 54.3037 26.8375C54.502 25.3736 55.8587 24.1486 57.0553 23.0678C57.4553 22.7072 57.8328 22.3657 58.11 22.0626C58.2441 21.9161 58.3793 21.7008 58.5224 21.4732C58.7793 21.0652 59.0441 20.6426 59.4362 20.38C59.6661 20.2256 59.9568 20.1963 60.2565 20.2978C60.7027 20.4476 61.176 20.8973 61.3135 21.2985C61.7878 22.6881 60.8008 24.8856 59.9399 25.7297C59.8216 25.8458 59.6661 25.954 59.5005 26.0701C59.3314 26.1873 58.981 26.433 58.9371 26.5524C58.9269 26.7733 59.1681 27.2151 59.3438 27.5385C59.4565 27.7448 59.5624 27.9397 59.6379 28.1257C59.8216 28.5787 60.047 29.0261 60.2858 29.5006C60.8211 30.5622 61.3743 31.6598 61.4678 32.886C61.4892 33.17 61.2774 33.4168 60.9935 33.4393C60.7106 33.4585 60.4627 33.2489 60.4402 32.9649C60.3613 31.9405 59.8779 30.9803 59.3652 29.9638C59.1275 29.4916 58.8807 29.0036 58.6824 28.5122C58.6238 28.3691 58.5337 28.2057 58.439 28.0321C58.1765 27.552 57.8801 27.0077 57.9106 26.4724C57.9432 25.8999 58.4796 25.5258 58.91 25.2249C59.034 25.1381 59.1613 25.049 59.2188 24.9938C59.9444 24.2827 60.6318 22.4897 60.3377 21.6321C60.2937 21.5262 60.0751 21.3346 59.9489 21.2816C59.7596 21.4405 59.5737 21.7358 59.3934 22.0231C59.2323 22.279 59.0655 22.5438 58.8695 22.7579C58.5585 23.0971 58.1641 23.4544 57.7449 23.8331C56.679 24.7955 55.4711 25.8864 55.3234 26.9762C55.2277 27.6873 55.6975 28.5122 56.1967 29.3845C56.7376 30.3323 57.2976 31.3116 57.2863 32.3822C57.2457 36.1778 54.7184 39.8878 52.8727 42.5959C52.7735 42.7424 52.6113 42.8213 52.4467 42.8213V42.8202Z" fill="#231F20"/>
<path d="M59.7831 43.6395C59.5792 43.6395 59.3865 43.5178 59.3054 43.3172C59.1983 43.0535 59.3268 42.7526 59.5893 42.6466C59.9927 42.4832 60.3679 41.4656 60.5279 41.0317L60.5482 40.9776C61.204 39.1981 60.9358 37.0749 60.5876 35.2323C60.5347 34.9528 60.7184 34.6835 60.9978 34.6305C61.2784 34.5753 61.5465 34.7612 61.5995 35.0407C61.9747 37.0219 62.2576 39.3198 61.515 41.3348L61.4947 41.3889C61.2356 42.0922 60.8017 43.2687 59.9758 43.6034C59.9127 43.6293 59.8473 43.6417 59.7831 43.6417V43.6395Z" fill="#231F20"/>
<path d="M169.889 101.097C169.757 101.097 169.625 101.046 169.525 100.946C168.424 99.8458 166.785 96.5292 165.786 91.8477C164.4 85.3542 158.918 66.6217 156.011 58.4433C155.916 58.1751 156.056 57.881 156.324 57.7852C156.591 57.6905 156.887 57.8302 156.982 58.0985C159.898 66.305 165.401 85.1096 166.793 91.6325C167.814 96.4131 169.422 99.386 170.254 100.218C170.455 100.419 170.455 100.745 170.254 100.946C170.153 101.046 170.022 101.097 169.89 101.097H169.889Z" fill="#231F20"/>
<path d="M178.281 109.495C177.736 109.495 177.186 109.487 176.629 109.48C176.083 109.472 175.533 109.466 174.978 109.466C174.693 109.466 174.463 109.236 174.463 108.951C174.463 108.666 174.693 108.436 174.978 108.436C175.537 108.436 176.092 108.442 176.643 108.45C179.081 108.482 181.383 108.512 183.748 107.922C183.87 107.891 183.998 107.861 184.13 107.83C184.884 107.653 185.738 107.454 186.194 106.96C186.582 106.54 186.797 105.345 186.747 104.536C186.614 102.402 185.788 99.0908 184.36 94.9616C183.409 92.214 180.432 86.1758 176.983 79.1841C171.352 67.7668 164.971 54.8258 164.443 50.2492C164.41 49.9663 164.613 49.7105 164.896 49.6789C165.176 49.6462 165.434 49.8491 165.466 50.1308C165.974 54.5294 172.591 67.9471 177.907 78.7276C181.371 85.7509 184.361 91.8162 185.334 94.6235C186.813 98.8992 187.633 102.212 187.775 104.471C187.827 105.303 187.649 106.902 186.952 107.658C186.281 108.385 185.219 108.633 184.365 108.832C184.238 108.862 184.116 108.891 183.997 108.92C182.057 109.406 180.193 109.495 178.281 109.495Z" fill="#231F20"/>
<path d="M156.462 58.7116C156.247 58.7116 156.046 58.5763 155.974 58.3611C155.399 56.6582 154.723 55.0749 154.07 53.5422C153.501 52.209 152.963 50.949 152.484 49.6147C152.272 49.0242 152.047 48.4269 151.819 47.8239C150.705 44.8747 149.553 41.8251 149.646 38.6718C149.692 37.102 150.314 35.4363 150.862 33.9679L150.928 33.7876C151.027 33.5205 151.325 33.3852 151.591 33.4844C151.857 33.5836 151.993 33.88 151.894 34.1471L151.826 34.3274C151.281 35.7902 150.716 37.3026 150.675 38.7023C150.588 41.6515 151.703 44.6042 152.782 47.4599C153.012 48.0685 153.239 48.6714 153.453 49.2676C153.921 50.5737 154.453 51.8202 155.016 53.1387C155.678 54.6883 156.362 56.292 156.95 58.032C157.041 58.3014 156.896 58.5932 156.626 58.6845C156.572 58.7026 156.516 58.7116 156.462 58.7116Z" fill="#231F20"/>
<path d="M164.88 50.5918C164.846 50.5918 164.812 50.5884 164.777 50.5816C164.498 50.5253 164.317 50.2537 164.374 49.9753C164.719 48.2669 165.51 46.6733 166.276 45.1316C166.902 43.8706 167.55 42.5667 167.928 41.2368C168.013 40.9325 168.113 40.6193 168.213 40.3003C168.787 38.4724 169.38 36.5836 168.091 35.2639C167.524 34.6835 166.472 34.3939 165.545 34.1392C165.226 34.0513 164.919 33.9668 164.642 33.8755C164.302 33.7628 163.894 33.5847 163.463 33.3965C162.002 32.7575 160.002 31.8853 159.12 32.9153C158.698 33.4067 158.456 34.2451 158.243 34.9855C158.173 35.2301 158.104 35.4656 158.032 35.6809L157.967 35.8792C157.735 36.5802 157.494 37.3048 157.327 38.0205C157.184 38.6324 157.449 39.4528 157.705 40.2462C157.872 40.7624 158.03 41.2504 158.095 41.7203C158.111 41.833 158.119 41.9581 158.127 42.0877C158.136 42.2455 158.154 42.5396 158.207 42.6129C158.673 42.5644 158.995 42.4382 159.2 42.2015C159.479 41.8803 159.586 41.3078 159.518 40.4987C159.493 40.1989 159.415 39.8462 159.338 39.5047C159.204 38.9029 159.088 38.3833 159.206 37.9821C159.346 37.5043 159.638 37.0873 159.92 36.6839C160.155 36.348 160.377 36.0302 160.486 35.7147C160.58 35.4453 160.873 35.3022 161.142 35.3969C161.41 35.4904 161.553 35.7834 161.46 36.0517C161.303 36.5024 161.03 36.8946 160.764 37.2744C160.519 37.6249 160.287 37.9562 160.195 38.2729C160.152 38.4194 160.267 38.9378 160.343 39.2815C160.427 39.6557 160.513 40.0434 160.544 40.413C160.637 41.5253 160.451 42.3322 159.976 42.8788C159.583 43.3307 159.01 43.5787 158.272 43.6192C157.185 43.6778 157.125 42.6072 157.098 42.1508C157.092 42.0505 157.087 41.9525 157.074 41.8646C157.022 41.4836 156.877 41.0374 156.724 40.5652C156.424 39.6377 156.114 38.6786 156.323 37.7883C156.501 37.0265 156.749 36.2793 156.989 35.5569L157.054 35.3597C157.122 35.1557 157.186 34.9326 157.252 34.7015C157.495 33.8608 157.77 32.9085 158.336 32.247C159.717 30.6377 162.12 31.688 163.876 32.4544C164.285 32.6336 164.67 32.8015 164.965 32.8995C165.227 32.9863 165.516 33.0652 165.817 33.1475C166.871 33.4371 168.065 33.7662 168.827 34.5449C170.547 36.3052 169.797 38.6921 169.195 40.6102C169.098 40.9202 169.003 41.2244 168.918 41.5186C168.515 42.9408 167.845 44.2875 167.198 45.5914C166.428 47.141 165.7 48.6049 165.383 50.1804C165.334 50.425 165.12 50.594 164.879 50.594L164.88 50.5918Z" fill="#231F20"/>
<path d="M163.861 38.5039C163.846 38.5039 163.83 38.5039 163.814 38.5016C162.583 38.3923 161.301 37.6203 160.548 36.5339C160.386 36.3007 160.444 35.9795 160.677 35.8172C160.912 35.6549 161.233 35.7135 161.394 35.9468C161.971 36.7785 162.981 37.3938 163.906 37.475C164.19 37.4998 164.398 37.7499 164.373 38.0339C164.35 38.3022 164.124 38.5039 163.861 38.5039Z" fill="#231F20"/>
<path d="M156.602 49.7105C156.368 49.7105 156.158 49.5516 156.101 49.3149C155.683 47.5569 156.739 46.0073 157.587 44.762C158.464 43.4772 159.528 42.3165 160.557 41.194C161.712 39.9352 162.905 38.6324 163.796 37.1843C163.945 36.942 164.263 36.8665 164.505 37.0152C164.747 37.164 164.823 37.4818 164.674 37.7241C163.731 39.2567 162.503 40.5956 161.316 41.8905C160.312 42.9859 159.273 44.1185 158.438 45.3424C157.665 46.475 156.79 47.7597 157.103 49.076C157.168 49.3521 156.998 49.6305 156.721 49.6958C156.68 49.706 156.641 49.7094 156.602 49.7094V49.7105Z" fill="#231F20"/>
<path d="M156.675 43.9427C156.61 43.9427 156.543 43.9359 156.476 43.9213C155.581 43.7342 155.254 42.4325 154.948 40.8773C154.906 40.6688 154.87 40.4829 154.835 40.3375C154.286 38.0261 154.508 36.8011 154.912 34.5765L154.953 34.3466C154.998 34.0986 155.027 33.8203 155.057 33.5329C155.137 32.7575 155.229 31.8785 155.642 31.2091C156.326 30.099 158.098 30.2681 159.157 30.3684L159.34 30.3853C161.461 30.5723 163.531 30.8575 165.493 31.2305C166.35 31.3928 168.622 31.8244 168.421 34.093C168.396 34.3759 168.142 34.5843 167.863 34.5607C167.579 34.5359 167.371 34.2857 167.395 34.0017C167.482 33.0246 166.914 32.5479 165.302 32.2414C163.373 31.874 161.337 31.5945 159.25 31.4097L159.061 31.3916C158.347 31.324 156.866 31.1843 156.518 31.7478C156.229 32.2177 156.153 32.9401 156.081 33.6388C156.049 33.9532 156.016 34.2575 155.967 34.5291L155.926 34.759C155.535 36.9149 155.339 37.9968 155.838 40.0975C155.875 40.2519 155.915 40.4525 155.958 40.6756C156.06 41.1872 156.366 42.7413 156.694 42.9115C156.694 42.9002 156.862 42.8371 157.173 42.3897C157.335 42.1553 157.655 42.099 157.89 42.2612C158.124 42.4235 158.182 42.7447 158.019 42.978C157.846 43.2271 157.351 43.9393 156.676 43.9393L156.675 43.9427Z" fill="#231F20"/>
<path d="M151.705 34.0851C151.268 34.0851 150.788 33.9848 150.255 33.7526C149.707 33.5149 149.538 33.1587 149.493 32.9018C149.362 32.1614 150.095 31.4683 150.683 30.9116C150.848 30.7549 151.005 30.6062 151.08 30.5115C152.247 29.0577 153.387 28.0378 154.705 26.8567C154.979 26.6122 155.26 26.3609 155.549 26.0972C155.7 25.9597 155.859 25.785 156.028 25.6002C156.464 25.1212 156.959 24.578 157.609 24.365C159.471 23.7564 161.139 25.5461 162.48 26.9863C162.91 27.4473 163.315 27.8834 163.637 28.1325C163.786 28.2474 163.97 28.3793 164.172 28.5258C165.29 29.3327 166.822 30.4394 166.956 31.6542C166.987 31.9371 166.782 32.1918 166.501 32.2222C166.216 32.2504 165.963 32.0487 165.933 31.7658C165.849 31.0051 164.423 29.9751 163.57 29.3597C163.356 29.2053 163.163 29.0656 163.008 28.945C162.62 28.6441 162.187 28.1798 161.729 27.6873C160.587 26.4623 159.166 24.9375 157.931 25.3432C157.539 25.4717 157.158 25.8898 156.79 26.2933C156.613 26.4882 156.429 26.6899 156.242 26.8601C155.952 27.125 155.669 27.3774 155.393 27.6242C154.107 28.7748 152.997 29.7688 151.884 31.1561C151.763 31.306 151.591 31.4694 151.39 31.6587C151.149 31.8875 150.511 32.4904 150.507 32.7215C150.507 32.7215 150.546 32.7564 150.665 32.8071C152.198 33.4743 152.975 32.7384 154.325 31.2688L154.547 31.0276C155.224 30.2962 156.929 28.9337 157.898 28.5517C158.392 28.3545 158.82 28.7917 159.365 29.3417C159.602 29.5829 160.045 30.0314 160.217 30.0754C160.5 30.1001 160.703 30.3492 160.677 30.6321C160.653 30.9161 160.392 31.1268 160.113 31.0986C159.609 31.0547 159.135 30.5735 158.632 30.0652C158.477 29.9086 158.258 29.6866 158.122 29.5772C157.339 29.9559 155.912 31.0693 155.304 31.7264L155.083 31.9653C154.123 33.0111 153.137 34.084 151.705 34.084V34.0851Z" fill="#231F20"/>
<path d="M164.807 29.7485C164.522 29.7485 164.292 29.5175 164.292 29.2335C164.292 28.4705 164.622 27.5115 164.972 26.4949C165.77 24.179 166.238 22.4796 164.978 21.6918C164.631 21.4743 163.808 21.578 163.264 21.6479C163.127 21.6659 162.997 21.6817 162.882 21.6941C162.577 21.7245 162.247 21.7369 161.91 21.7493C161.208 21.7752 160.482 21.8011 159.925 22.0096C159.642 22.1155 159.365 22.2384 159.089 22.3601C158.604 22.5742 158.101 22.7951 157.554 22.9405C157.303 23.007 157.014 23.0408 156.709 23.078C156.187 23.14 155.474 23.2256 155.261 23.4995C155.124 23.6753 155.148 23.7564 155.158 23.7868C155.213 23.9683 155.528 24.3469 157.017 24.8428C157.287 24.933 157.433 25.2248 157.343 25.4942C157.253 25.7635 156.963 25.9112 156.692 25.8199C155.659 25.4762 154.439 24.9679 154.172 24.0844C154.086 23.8004 154.064 23.3586 154.448 22.865C154.925 22.2519 155.807 22.1471 156.586 22.0536C156.855 22.0209 157.11 21.9905 157.292 21.9431C157.76 21.8192 158.205 21.6242 158.675 21.4168C158.969 21.2872 159.263 21.1576 159.564 21.0449C160.276 20.7778 161.087 20.7485 161.871 20.7192C162.187 20.708 162.495 20.6967 162.78 20.6685C162.887 20.6584 163.006 20.6426 163.135 20.6257C163.865 20.5322 164.863 20.4048 165.525 20.8184C167.576 22.1009 166.673 24.7233 165.947 26.8308C165.626 27.7628 165.323 28.6429 165.323 29.2335C165.323 29.5175 165.093 29.7485 164.808 29.7485H164.807Z" fill="#231F20"/>
<path d="M159.843 25.4514C159.654 25.4514 159.473 25.3466 159.383 25.1663C159.255 24.9116 159.359 24.6028 159.612 24.4755C160.383 24.09 161.134 24.0337 161.86 23.9796C162.52 23.93 163.142 23.8838 163.737 23.5863C163.99 23.4589 164.3 23.5626 164.427 23.8162C164.555 24.0709 164.451 24.3797 164.197 24.507C163.421 24.8947 162.667 24.9522 161.937 25.0063C161.281 25.0547 160.662 25.1021 160.073 25.3962C159.999 25.4334 159.921 25.4503 159.843 25.4503V25.4514Z" fill="#231F20"/>
<path d="M161.645 27.2782C161.555 27.2782 161.464 27.2545 161.38 27.2049C161.137 27.0584 161.057 26.7418 161.203 26.4983C161.545 25.9292 161.679 25.5607 161.52 25.004C161.442 24.7301 161.6 24.445 161.874 24.3672C162.146 24.2895 162.431 24.4473 162.51 24.7211C162.797 25.723 162.442 26.4375 162.087 27.0291C161.99 27.1903 161.82 27.2793 161.645 27.2793V27.2782Z" fill="#231F20"/>
<path d="M140.427 157.096C140.18 157.096 139.962 156.918 139.92 156.668C138.139 146.206 140.084 134.712 141.646 125.476C142.436 120.811 143.116 116.781 143.228 113.59C143.322 110.865 142.545 105.413 141.859 100.603C140.881 93.7456 140.527 90.8718 140.972 90.0537C141.107 89.8046 141.419 89.7111 141.671 89.8474C141.92 89.9827 142.012 90.2937 141.878 90.5428C141.564 91.2404 142.293 96.35 142.878 100.457C143.57 105.309 144.355 110.809 144.257 113.625C144.143 116.883 143.455 120.945 142.66 125.647C141.111 134.806 139.183 146.204 140.933 156.493C140.98 156.773 140.792 157.039 140.511 157.087C140.482 157.091 140.453 157.095 140.424 157.095L140.427 157.096Z" fill="#231F20"/>
<path d="M84.5743 156.931C84.5269 156.931 84.4785 156.924 84.4312 156.911C84.1585 156.832 84.0007 156.546 84.0796 156.273C88.1101 142.361 80.9697 116.146 76.7048 100.484C75.7842 97.1039 74.9887 94.184 74.4816 92.0225C74.4163 91.7463 74.5887 91.468 74.8658 91.4037C75.1419 91.3395 75.4202 91.5108 75.4845 91.788C75.9881 93.9327 76.7803 96.8425 77.6986 100.213C81.9928 115.981 89.1795 142.37 85.0689 156.56C85.0036 156.786 84.7974 156.932 84.5743 156.932V156.931Z" fill="#231F20"/>
<path d="M111.753 60.5158C109.094 60.5158 107.338 58.4557 107.264 58.3667C107.184 58.2709 107.155 58.1424 107.186 58.0207C107.218 57.9001 107.306 57.801 107.423 57.757C107.494 57.73 109.183 57.0989 111.734 56.7619C113.947 56.4711 115.431 56.363 115.446 56.3618C115.581 56.3517 115.698 56.408 115.777 56.5083C115.857 56.6098 115.879 56.7427 115.841 56.8656C115.794 57.0121 114.647 60.464 111.846 60.5147C111.815 60.5147 111.784 60.5147 111.753 60.5147V60.5158ZM108.277 58.2878C108.906 58.849 110.197 59.7732 111.831 59.7427C113.483 59.7134 114.466 58.0737 114.878 57.1856C114.249 57.2431 113.179 57.3513 111.834 57.5282C110.233 57.739 108.969 58.0771 108.277 58.2878Z" fill="#231F20"/>
<path d="M114.237 86.1893C112.104 86.1893 110.184 85.645 108.746 84.5653C108.518 84.3952 108.472 84.0717 108.644 83.8441C108.814 83.6164 109.137 83.5714 109.365 83.7404C111.735 85.5176 115.643 85.6393 119.565 84.0571C124.054 82.246 127.337 78.7029 127.932 75.0278C127.978 74.7472 128.237 74.5567 128.522 74.6018C128.803 74.648 128.993 74.9117 128.948 75.1924C128.157 80.0755 123.782 83.4665 119.95 85.0116C118 85.7982 116.042 86.1882 114.237 86.1882V86.1893Z" fill="#231F20"/>
<path d="M141.841 29.8623C140.988 29.8623 140.264 29.2741 140.186 28.4829L139.01 16.6306C138.926 15.7831 139.615 15.0179 140.546 14.9255L160.769 12.9184C161.208 12.8744 161.637 12.9849 161.979 13.2283C162.344 13.4875 162.568 13.8639 162.609 14.2876L163.243 20.6674C163.271 20.9503 163.064 21.2027 162.781 21.2309C162.502 21.2613 162.245 21.0528 162.217 20.7688L161.584 14.3891C161.567 14.2223 161.45 14.1163 161.382 14.0679C161.245 13.9698 161.057 13.9236 160.871 13.9428L140.647 15.9499C140.288 15.986 140.007 16.2508 140.034 16.5281L141.21 28.3804C141.239 28.6576 141.571 28.8627 141.924 28.8278L153.533 27.676C153.811 27.6467 154.068 27.8541 154.096 28.1381C154.125 28.4209 153.918 28.6734 153.634 28.7016L142.025 29.8533C141.963 29.8589 141.901 29.8623 141.84 29.8623H141.841Z" fill="#231F20"/>
<path d="M44.8635 69.9317C44.7429 69.9317 44.6213 69.8888 44.5232 69.8032C44.3103 69.615 44.2889 69.2893 44.477 69.0763C47.0191 66.1924 49.2603 66.8291 51.631 67.5053C52.6936 67.8085 53.7933 68.1206 55.0429 68.1826C60.349 68.4474 76.4227 67.8344 78.594 66.7649C78.8498 66.6398 79.1574 66.7446 79.2836 66.9993C79.4098 67.254 79.305 67.5628 79.0492 67.689C76.532 68.9287 60.0335 69.4617 54.9922 69.2115C53.6243 69.1439 52.4153 68.7991 51.3493 68.4959C49.0349 67.8366 47.3627 67.3599 45.2489 69.757C45.1475 69.8731 45.0055 69.9317 44.8624 69.9317H44.8635Z" fill="#231F20"/>
<path d="M42.2707 90.1562C42.0059 90.1562 41.731 90.1089 41.4493 90.0131C41.18 89.9218 41.0357 89.6288 41.127 89.3594C41.2183 89.0901 41.509 88.9447 41.7805 89.0371C42.1524 89.1633 42.4735 89.1543 42.7642 89.0078C43.651 88.5604 44.1772 86.9094 44.4916 85.9222L44.5829 85.6371C46.1164 80.9252 45.3953 75.6465 44.6967 70.5425L44.6561 70.2472C44.6178 69.9655 44.815 69.7051 45.0967 69.6668C45.3773 69.6296 45.6375 69.8257 45.677 70.1075L45.7175 70.4027C46.4319 75.6217 47.17 81.0188 45.562 85.956L45.473 86.2355C45.0854 87.4504 44.5006 89.2851 43.2285 89.9274C42.9265 90.0807 42.6065 90.1562 42.2707 90.1562Z" fill="#231F20"/>
<path d="M48.7348 96.5157C46.2333 96.5157 44.293 95.6783 42.3425 93.7828C40.7616 92.2467 40.2332 90.9834 39.7227 89.7618C39.6563 89.6017 39.5887 89.4417 39.5188 89.2794C39.4061 89.018 39.5267 88.7148 39.7881 88.6021C40.0484 88.4906 40.3526 88.61 40.4642 88.8715C40.5352 89.0371 40.6039 89.2005 40.6726 89.364C41.1639 90.5416 41.6293 91.6539 43.0592 93.0435C44.9691 94.8996 46.7798 95.6062 49.3106 95.4687C52.4656 95.3019 55.5846 94.379 58.6021 93.4853C61.3154 92.6817 64.1223 91.8512 66.9911 91.5503C67.2164 91.5266 67.5162 91.4905 67.8711 91.4488C72.927 90.8493 77.8026 90.4932 79.2348 91.9425C79.4342 92.1442 79.4331 92.471 79.2303 92.6705C79.0274 92.8722 78.7018 92.8677 78.5024 92.666C77.2268 91.3745 70.2757 92.1994 67.9928 92.471C67.6322 92.5138 67.328 92.5499 67.0981 92.5736C64.324 92.8654 61.5633 93.6825 58.894 94.4725C55.8201 95.382 52.6403 96.323 49.3647 96.4965C49.1506 96.5078 48.9399 96.5134 48.7337 96.5134L48.7348 96.5157Z" fill="#231F20"/>
<path d="M165.211 88.0668C164.971 88.0668 164.756 87.8978 164.706 87.6532C164.623 87.332 163.345 86.5657 162.219 86.1622C160.924 85.699 159.599 85.4579 158.196 85.2021C156.892 84.9643 155.542 84.7186 154.222 84.2768C151.732 83.4474 149.429 82.1085 147.2 80.8148C145.138 79.6179 143.006 78.3805 140.774 77.5826C138.978 76.9414 136.926 76.6912 134.941 76.45C132.703 76.1784 130.388 75.8978 128.347 75.056C128.084 74.9478 127.958 74.6469 128.066 74.3832C128.174 74.1206 128.475 73.9955 128.739 74.1026C130.651 74.8903 132.896 75.163 135.065 75.4267C137.105 75.6747 139.216 75.9305 141.12 76.6112C143.441 77.4406 145.615 78.7028 147.716 79.9222C149.9 81.19 152.158 82.5007 154.548 83.2975C155.799 83.7145 157.112 83.9545 158.382 84.1855C159.764 84.438 161.193 84.6983 162.567 85.1897C162.686 85.2313 165.477 86.2434 165.718 87.4481C165.774 87.7276 165.593 87.9981 165.314 88.0544C165.281 88.0612 165.246 88.0645 165.213 88.0645L165.211 88.0668Z" fill="#231F20"/>
<path d="M172.395 116.467C169.328 116.467 166.469 115.069 163.681 113.704L163.273 113.505C160.102 111.958 156.679 110.395 152.497 108.585C151.546 108.173 150.576 107.669 149.637 107.181C147.57 106.106 145.432 104.995 143.246 104.721C142.965 104.686 142.764 104.428 142.799 104.146C142.835 103.865 143.091 103.666 143.374 103.699C145.743 103.995 147.965 105.15 150.113 106.267C151.077 106.769 151.988 107.242 152.906 107.639C157.101 109.456 160.539 111.024 163.725 112.578L164.134 112.778C167.649 114.499 171.285 116.276 175.16 114.987C176.764 114.452 178.072 112.659 179.225 111.077C179.619 110.535 179.993 110.025 180.359 109.587C180.543 109.37 180.867 109.342 181.085 109.524C181.302 109.707 181.331 110.033 181.148 110.25C180.803 110.66 180.44 111.157 180.056 111.685C178.812 113.391 177.401 115.325 175.486 115.964C174.43 116.315 173.401 116.466 172.395 116.466V116.467Z" fill="#231F20"/>
<path d="M177.923 110.812C177.628 110.812 177.326 110.79 177.018 110.744C174.947 110.437 172.817 109.119 171.593 107.385C167.757 101.959 166.112 96.5506 164.823 90.0987C164.766 89.8192 164.948 89.5488 165.226 89.4924C165.508 89.4338 165.776 89.6175 165.832 89.8959C167.095 96.2193 168.701 101.513 172.433 106.79C173.488 108.281 175.391 109.46 177.17 109.724C178.021 109.85 179.259 109.825 180.334 108.989C180.56 108.814 180.882 108.855 181.056 109.079C181.231 109.304 181.191 109.628 180.966 109.801C180.109 110.469 179.07 110.811 177.924 110.811L177.923 110.812Z" fill="#231F20"/>
</g>
<defs>
<clipPath id="clip0_1_7538">
<rect width="210" height="160" fill="white"/>
</clipPath>
</defs>
</svg>
