<svg width="193" height="142" viewBox="0 0 193 142" fill="none" xmlns="http://www.w3.org/2000/svg">
<rect x="12.9746" width="168.672" height="106.5" rx="2" fill="#231F20"/>
<path d="M16.2188 5.2273C16.2188 4.12273 17.1142 3.22729 18.2188 3.22729H176.404C177.508 3.22729 178.404 4.12273 178.404 5.22729V101.273C178.404 102.377 177.508 103.273 176.404 103.273H18.2187C17.1142 103.273 16.2188 102.377 16.2188 101.273V5.2273Z" fill="white"/>
<path d="M77.7474 51.9433V52.3408H75.0051V51.9433H77.7474ZM75.0823 51.9433V53.2472H74.607L74.6045 51.9433H75.0823ZM78.1654 51.9433L78.1604 53.2446H77.6852V51.9433H78.1654ZM77.2771 48.6546V49.0546H75.6894V48.6546H77.2771ZM77.6901 48.6546V52.3408H77.2124V48.6546H77.6901ZM75.5252 48.6546H76.0055L75.9308 50.1382C75.9209 50.361 75.9001 50.5669 75.8686 50.756C75.8371 50.9433 75.7981 51.1146 75.7517 51.2699C75.7052 51.4252 75.6521 51.5644 75.5924 51.6876C75.5327 51.8091 75.4688 51.9146 75.4008 52.0041C75.3328 52.0919 75.2614 52.1644 75.1868 52.2218C75.1138 52.2775 75.04 52.3172 74.9653 52.3408H74.7463V51.9433H74.9006C74.9437 51.8961 74.9927 51.8277 75.0474 51.7383C75.1038 51.6488 75.1594 51.5332 75.2142 51.3914C75.2706 51.2479 75.3195 51.0733 75.361 50.8673C75.4041 50.6614 75.4331 50.4184 75.4481 50.1382L75.5252 48.6546Z" fill="#006991"/>
<path d="M78.5387 51.0015V50.9433C78.5387 50.7458 78.5669 50.5627 78.6233 50.3939C78.6797 50.2234 78.761 50.0758 78.8672 49.9509C78.9733 49.8243 79.1019 49.7264 79.2529 49.6572C79.4038 49.5863 79.573 49.5509 79.7605 49.5509C79.9496 49.5509 80.1197 49.5863 80.2706 49.6572C80.4232 49.7264 80.5526 49.8243 80.6588 49.9509C80.7666 50.0758 80.8488 50.2234 80.9052 50.3939C80.9616 50.5627 80.9898 50.7458 80.9898 50.9433V51.0015C80.9898 51.199 80.9616 51.3821 80.9052 51.5509C80.8488 51.7197 80.7666 51.8674 80.6588 51.994C80.5526 52.1189 80.4241 52.2167 80.2731 52.2876C80.1238 52.3568 79.9546 52.3914 79.7655 52.3914C79.5764 52.3914 79.4063 52.3568 79.2553 52.2876C79.1044 52.2167 78.975 52.1189 78.8672 51.994C78.761 51.8674 78.6797 51.7197 78.6233 51.5509C78.5669 51.3821 78.5387 51.199 78.5387 51.0015ZM78.999 50.9433V51.0015C78.999 51.1382 79.0148 51.2674 79.0463 51.3889C79.0778 51.5087 79.1251 51.615 79.1882 51.7079C79.2529 51.8007 79.3333 51.8741 79.4295 51.9281C79.5258 51.9805 79.6377 52.0066 79.7655 52.0066C79.8916 52.0066 80.0019 51.9805 80.0964 51.9281C80.1927 51.8741 80.2723 51.8007 80.3353 51.7079C80.3984 51.615 80.4456 51.5087 80.4772 51.3889C80.5103 51.2674 80.5269 51.1382 80.5269 51.0015V50.9433C80.5269 50.8083 80.5103 50.6808 80.4772 50.561C80.4456 50.4395 80.3975 50.3323 80.3328 50.2395C80.2698 50.145 80.1902 50.0707 80.0939 50.0167C79.9994 49.9627 79.8882 49.9357 79.7605 49.9357C79.6344 49.9357 79.5233 49.9627 79.427 50.0167C79.3325 50.0707 79.2529 50.145 79.1882 50.2395C79.1251 50.3323 79.0778 50.4395 79.0463 50.561C79.0148 50.6808 78.999 50.8083 78.999 50.9433Z" fill="#006991"/>
<path d="M83.3936 50.7889V51.1686H81.9702V50.7889H83.3936ZM82.0673 49.6015V52.3408H81.6069V49.6015H82.0673ZM83.7669 49.6015V52.3408H83.304V49.6015H83.7669Z" fill="#006991"/>
<path d="M84.3865 51.0015V50.9433C84.3865 50.7458 84.4147 50.5627 84.4711 50.3939C84.5275 50.2234 84.6088 50.0758 84.7149 49.9509C84.8211 49.8243 84.9497 49.7264 85.1006 49.6572C85.2516 49.5863 85.4208 49.5509 85.6083 49.5509C85.7974 49.5509 85.9674 49.5863 86.1184 49.6572C86.271 49.7264 86.4004 49.8243 86.5066 49.9509C86.6144 50.0758 86.6966 50.2234 86.753 50.3939C86.8094 50.5627 86.8376 50.7458 86.8376 50.9433V51.0015C86.8376 51.199 86.8094 51.3821 86.753 51.5509C86.6966 51.7197 86.6144 51.8674 86.5066 51.994C86.4004 52.1189 86.2719 52.2167 86.1209 52.2876C85.9716 52.3568 85.8024 52.3914 85.6133 52.3914C85.4241 52.3914 85.2541 52.3568 85.1031 52.2876C84.9522 52.2167 84.8228 52.1189 84.7149 51.994C84.6088 51.8674 84.5275 51.7197 84.4711 51.5509C84.4147 51.3821 84.3865 51.199 84.3865 51.0015ZM84.8468 50.9433V51.0015C84.8468 51.1382 84.8626 51.2674 84.8941 51.3889C84.9256 51.5087 84.9729 51.615 85.0359 51.7079C85.1006 51.8007 85.1811 51.8741 85.2773 51.9281C85.3735 51.9805 85.4855 52.0066 85.6133 52.0066C85.7393 52.0066 85.8497 51.9805 85.9442 51.9281C86.0404 51.8741 86.1201 51.8007 86.1831 51.7079C86.2461 51.615 86.2934 51.5087 86.3249 51.3889C86.3581 51.2674 86.3747 51.1382 86.3747 51.0015V50.9433C86.3747 50.8083 86.3581 50.6808 86.3249 50.561C86.2934 50.4395 86.2453 50.3323 86.1806 50.2395C86.1176 50.145 86.0379 50.0707 85.9417 50.0167C85.8472 49.9627 85.736 49.9357 85.6083 49.9357C85.4822 49.9357 85.3711 49.9627 85.2748 50.0167C85.1803 50.0707 85.1006 50.145 85.0359 50.2395C84.9729 50.3323 84.9256 50.4395 84.8941 50.561C84.8626 50.6808 84.8468 50.8083 84.8468 50.9433Z" fill="#006991"/>
<path d="M87.8752 50.1281V53.394H87.4124V49.6015H87.8354L87.8752 50.1281ZM89.6893 50.9484V51.0015C89.6893 51.2007 89.6661 51.3855 89.6196 51.556C89.5732 51.7248 89.5051 51.8716 89.4156 51.9965C89.3276 52.1214 89.219 52.2184 89.0896 52.2876C88.9602 52.3568 88.8117 52.3914 88.6442 52.3914C88.4733 52.3914 88.3223 52.3627 88.1913 52.3054C88.0602 52.248 87.9491 52.1644 87.8578 52.0547C87.7666 51.945 87.6936 51.8134 87.6388 51.6598C87.5857 51.5062 87.5492 51.3332 87.5293 51.1408V50.8572C87.5492 50.6547 87.5866 50.4732 87.6413 50.3129C87.6961 50.1526 87.7682 50.0158 87.8578 49.9028C87.9491 49.788 88.0594 49.7011 88.1888 49.642C88.3182 49.5812 88.4675 49.5509 88.6367 49.5509C88.8059 49.5509 88.956 49.5846 89.0871 49.6521C89.2181 49.718 89.3285 49.8125 89.4181 49.9357C89.5076 50.0589 89.5748 50.2066 89.6196 50.3787C89.6661 50.5492 89.6893 50.7391 89.6893 50.9484ZM89.2264 51.0015V50.9484C89.2264 50.8116 89.2123 50.6834 89.1841 50.5635C89.1559 50.442 89.112 50.3357 89.0523 50.2445C88.9942 50.1517 88.9195 50.0791 88.8283 50.0268C88.7371 49.9728 88.6284 49.9458 88.5023 49.9458C88.3862 49.9458 88.285 49.9661 88.1987 50.0066C88.1141 50.0471 88.042 50.1019 87.9822 50.1711C87.9225 50.2386 87.8736 50.3163 87.8354 50.404C87.7989 50.4901 87.7715 50.5796 87.7533 50.6724V51.3281C87.7865 51.4463 87.8329 51.5577 87.8927 51.6623C87.9524 51.7653 88.032 51.8488 88.1315 51.9129C88.2311 51.9754 88.3563 52.0066 88.5073 52.0066C88.6317 52.0066 88.7387 51.9805 88.8283 51.9281C88.9195 51.8741 88.9942 51.8007 89.0523 51.7079C89.112 51.615 89.1559 51.5087 89.1841 51.3889C89.2123 51.2674 89.2264 51.1382 89.2264 51.0015Z" fill="#006991"/>
<path d="M81.9677 62.174V62.9436H76.7321V62.3917L79.977 57.2827H80.7285L79.9222 58.7612L77.7772 62.174H81.9677ZM80.9574 57.2827V64.655H80.0367V57.2827H80.9574Z" fill="#006991"/>
<path d="M83.9684 61.1461L83.2318 60.9537L83.5952 57.2827H87.3128V58.1485H84.3765L84.1575 60.1537C84.2902 60.076 84.4578 60.0034 84.6602 59.9359C84.8659 59.8684 85.1015 59.8347 85.3669 59.8347C85.702 59.8347 86.0023 59.8937 86.2677 60.0119C86.5331 60.1267 86.7588 60.2921 86.9446 60.5081C87.1337 60.7241 87.278 60.9841 87.3775 61.2879C87.4771 61.5917 87.5269 61.9309 87.5269 62.3056C87.5269 62.66 87.4787 62.9858 87.3825 63.2828C87.2896 63.5799 87.1486 63.8398 86.9595 64.0626C86.7704 64.282 86.5315 64.4525 86.2428 64.574C85.9575 64.6955 85.6207 64.7563 85.2325 64.7563C84.9406 64.7563 84.6635 64.7158 84.4014 64.6348C84.1426 64.5504 83.9104 64.4238 83.7046 64.255C83.5022 64.0829 83.3364 63.8702 83.207 63.617C83.0809 63.3605 83.0012 63.0601 82.9681 62.7157H83.844C83.8838 62.9925 83.9634 63.2255 84.0829 63.4145C84.2023 63.6035 84.3583 63.747 84.5507 63.8449C84.7465 63.9394 84.9737 63.9867 85.2325 63.9867C85.4515 63.9867 85.6456 63.9478 85.8148 63.8702C85.984 63.7926 86.1267 63.6812 86.2428 63.536C86.359 63.3909 86.4469 63.2153 86.5066 63.0094C86.5696 62.8035 86.6012 62.5723 86.6012 62.3157C86.6012 62.0828 86.5696 61.8668 86.5066 61.6676C86.4436 61.4685 86.349 61.2946 86.2229 61.1461C86.1002 60.9976 85.9492 60.8828 85.77 60.8018C85.5909 60.7174 85.3852 60.6752 85.1529 60.6752C84.8443 60.6752 84.6104 60.7174 84.4512 60.8018C84.2952 60.8862 84.1343 61.0009 83.9684 61.1461Z" fill="#006991"/>
<path d="M81.9677 75.7844V76.5541H76.7321V76.0022L79.977 70.8932H80.7285L79.9222 72.3717L77.7772 75.7844H81.9677ZM80.9574 70.8932V78.2655H80.0367V70.8932H80.9574Z" fill="#006991"/>
<path d="M87.701 75.7844V76.5541H82.4654V76.0022L85.7103 70.8932H86.4618L85.6556 72.3717L83.5105 75.7844H87.701ZM86.6907 70.8932V78.2655H85.77V70.8932H86.6907Z" fill="#006991"/>
<path d="M78.2351 88.367L77.4985 88.1746L77.8618 84.5036H81.5795V85.3695H78.6432L78.4242 87.3746C78.5569 87.297 78.7245 87.2244 78.9269 87.1569C79.1326 87.0894 79.3682 87.0556 79.6336 87.0556C79.9687 87.0556 80.269 87.1147 80.5344 87.2328C80.7998 87.3476 81.0254 87.513 81.2112 87.729C81.4004 87.9451 81.5447 88.205 81.6442 88.5088C81.7438 88.8126 81.7935 89.1519 81.7935 89.5265C81.7935 89.881 81.7454 90.2067 81.6492 90.5038C81.5563 90.8008 81.4153 91.0608 81.2262 91.2836C81.0371 91.503 80.7982 91.6734 80.5095 91.795C80.2242 91.9165 79.8874 91.9772 79.4992 91.9772C79.2072 91.9772 78.9302 91.9367 78.6681 91.8557C78.4093 91.7713 78.177 91.6447 77.9713 91.476C77.7689 91.3038 77.603 91.0911 77.4736 90.838C77.3476 90.5814 77.2679 90.281 77.2348 89.9367H78.1107C78.1505 90.2135 78.2301 90.4464 78.3496 90.6354C78.469 90.8245 78.6249 90.9679 78.8174 91.0658C79.0131 91.1603 79.2404 91.2076 79.4992 91.2076C79.7182 91.2076 79.9123 91.1688 80.0815 91.0911C80.2507 91.0135 80.3934 90.9021 80.5095 90.757C80.6256 90.6118 80.7136 90.4363 80.7733 90.2304C80.8363 90.0244 80.8678 89.7932 80.8678 89.5367C80.8678 89.3038 80.8363 89.0877 80.7733 88.8886C80.7102 88.6894 80.6157 88.5155 80.4896 88.367C80.3668 88.2185 80.2159 88.1037 80.0367 88.0227C79.8575 87.9383 79.6518 87.8961 79.4196 87.8961C79.111 87.8961 78.8771 87.9383 78.7178 88.0227C78.5619 88.1071 78.401 88.2219 78.2351 88.367Z" fill="#006991"/>
<path d="M85.8298 84.4631V91.876H84.909V85.6328L83.0527 86.3214V85.4758L85.6854 84.4631H85.8298Z" fill="#006991"/>
<path d="M98.9636 61.2372V62.0069H92.3146V61.2372H98.9636Z" fill="#006991"/>
<path d="M98.9636 74.1996V74.9692H92.3146V74.1996H98.9636Z" fill="#006991"/>
<path d="M98.9636 88.4582V89.2278H92.3146V88.4582H98.9636Z" fill="#006991"/>
<path d="M102.831 48.6546V52.3408H102.35V48.6546H102.831ZM105.063 48.6546L103.49 50.6825H102.639L102.564 50.2775H103.204L104.468 48.6546H105.063ZM104.58 52.3408L103.219 50.6192L103.488 50.1914L105.167 52.3408H104.58Z" fill="#006991"/>
<path d="M107.121 51.8724V50.4623C107.121 50.3543 107.099 50.2606 107.056 50.1813C107.014 50.1002 106.951 50.0378 106.867 49.9939C106.782 49.95 106.678 49.9281 106.553 49.9281C106.437 49.9281 106.335 49.9483 106.247 49.9888C106.161 50.0294 106.093 50.0825 106.043 50.1483C105.995 50.2142 105.971 50.2851 105.971 50.361H105.511C105.511 50.2631 105.536 50.1661 105.585 50.0699C105.635 49.9737 105.706 49.8867 105.799 49.8091C105.894 49.7298 106.007 49.6673 106.138 49.6217C106.27 49.5745 106.418 49.5509 106.581 49.5509C106.776 49.5509 106.949 49.5846 107.098 49.6521C107.249 49.7196 107.367 49.8218 107.452 49.9585C107.538 50.0935 107.581 50.2631 107.581 50.4673V51.7433C107.581 51.8345 107.588 51.9315 107.603 52.0345C107.62 52.1374 107.644 52.226 107.676 52.3003V52.3408H107.195C107.172 52.2868 107.154 52.2151 107.141 52.1256C107.127 52.0345 107.121 51.9501 107.121 51.8724ZM107.2 50.68L107.205 51.0091H106.74C106.609 51.0091 106.492 51.0201 106.389 51.042C106.286 51.0623 106.2 51.0935 106.13 51.1357C106.061 51.1779 106.008 51.2311 105.971 51.2952C105.935 51.3577 105.916 51.4311 105.916 51.5155C105.916 51.6015 105.935 51.68 105.974 51.7509C106.012 51.8218 106.069 51.8783 106.145 51.9205C106.223 51.961 106.319 51.9813 106.431 51.9813C106.572 51.9813 106.697 51.9509 106.805 51.8902C106.912 51.8294 106.998 51.7551 107.061 51.6674C107.126 51.5796 107.16 51.4944 107.165 51.4117L107.362 51.637C107.35 51.7079 107.319 51.7864 107.267 51.8724C107.216 51.9585 107.147 52.0412 107.061 52.1205C106.976 52.1982 106.875 52.2632 106.757 52.3155C106.641 52.3661 106.51 52.3914 106.364 52.3914C106.182 52.3914 106.022 52.3551 105.884 52.2826C105.748 52.21 105.642 52.1129 105.565 51.9914C105.491 51.8682 105.453 51.7307 105.453 51.5788C105.453 51.4319 105.482 51.3028 105.538 51.1914C105.594 51.0783 105.676 50.9846 105.782 50.9104C105.888 50.8344 106.016 50.777 106.165 50.7382C106.314 50.6994 106.481 50.68 106.665 50.68H107.2Z" fill="#006991"/>
<path d="M110.032 48.4091H110.41C110.41 48.5745 110.385 48.7061 110.336 48.804C110.286 48.9002 110.218 48.9745 110.132 49.0268C110.047 49.0791 109.951 49.1188 109.843 49.1458C109.737 49.1728 109.627 49.199 109.512 49.2243C109.369 49.2546 109.237 49.3028 109.114 49.3686C108.993 49.4327 108.888 49.5239 108.8 49.642C108.714 49.7601 108.65 49.9137 108.609 50.1028C108.569 50.2918 108.558 50.5256 108.576 50.8041V51.037H108.198V50.8041C108.198 50.4918 108.227 50.2192 108.285 49.9863C108.345 49.7534 108.429 49.5568 108.537 49.3964C108.644 49.2361 108.772 49.1087 108.92 49.0141C109.069 48.9196 109.233 48.8546 109.412 48.8192C109.542 48.7939 109.653 48.7669 109.746 48.7382C109.839 48.7078 109.909 48.6673 109.957 48.6167C110.007 48.566 110.032 48.4968 110.032 48.4091ZM109.487 49.7585C109.663 49.7585 109.82 49.7897 109.957 49.8521C110.095 49.9146 110.212 50.0015 110.308 50.1129C110.405 50.2243 110.478 50.3559 110.527 50.5078C110.579 50.6581 110.604 50.8218 110.604 50.999V51.0547C110.604 51.2454 110.577 51.4226 110.522 51.5864C110.469 51.7484 110.39 51.8902 110.286 52.0117C110.183 52.1315 110.057 52.2252 109.908 52.2927C109.76 52.3602 109.592 52.394 109.403 52.394C109.213 52.394 109.044 52.3602 108.895 52.2927C108.747 52.2252 108.621 52.1315 108.517 52.0117C108.412 51.8902 108.333 51.7484 108.278 51.5864C108.225 51.4226 108.198 51.2454 108.198 51.0547V50.999C108.198 50.9568 108.206 50.9154 108.221 50.8749C108.235 50.8344 108.254 50.7931 108.275 50.7509C108.299 50.7087 108.319 50.664 108.338 50.6167C108.399 50.4648 108.483 50.3239 108.589 50.1939C108.697 50.064 108.825 49.9593 108.975 49.88C109.126 49.799 109.296 49.7585 109.487 49.7585ZM109.398 50.1407C109.228 50.1407 109.089 50.1804 108.98 50.2597C108.872 50.3391 108.791 50.4446 108.738 50.5762C108.685 50.7062 108.659 50.8471 108.659 50.999V51.0547C108.659 51.183 108.673 51.3045 108.703 51.4193C108.733 51.534 108.778 51.6361 108.838 51.7256C108.899 51.8134 108.976 51.8826 109.069 51.9332C109.164 51.9838 109.275 52.0091 109.403 52.0091C109.53 52.0091 109.641 51.9838 109.734 51.9332C109.826 51.8826 109.903 51.8134 109.962 51.7256C110.022 51.6361 110.067 51.534 110.097 51.4193C110.127 51.3045 110.142 51.183 110.142 51.0547V50.999C110.142 50.8842 110.127 50.7754 110.097 50.6724C110.067 50.5694 110.021 50.4783 109.96 50.399C109.9 50.3197 109.823 50.2572 109.729 50.2116C109.636 50.1644 109.525 50.1407 109.398 50.1407Z" fill="#006991"/>
<path d="M111.58 51.599L112.822 49.6015H113.284V52.3408H112.822V50.3433L111.58 52.3408H111.122V49.6015H111.58V51.599Z" fill="#006991"/>
<path d="M115.85 50.7889V51.1686H114.427V50.7889H115.85ZM114.524 49.6015V52.3408H114.063V49.6015H114.524ZM116.223 49.6015V52.3408H115.76V49.6015H116.223Z" fill="#006991"/>
<path d="M118.082 52.3914C117.895 52.3914 117.725 52.3594 117.572 52.2952C117.421 52.2294 117.291 52.1374 117.181 52.0193C117.074 51.9011 116.991 51.761 116.933 51.599C116.874 51.437 116.845 51.2598 116.845 51.0674V50.961C116.845 50.7382 116.878 50.5399 116.942 50.3661C117.007 50.1905 117.095 50.042 117.206 49.9205C117.317 49.799 117.443 49.707 117.584 49.6445C117.725 49.5821 117.871 49.5509 118.022 49.5509C118.215 49.5509 118.381 49.5846 118.52 49.6521C118.661 49.7196 118.776 49.8142 118.866 49.9357C118.956 50.0555 119.022 50.1973 119.065 50.361C119.108 50.523 119.13 50.7003 119.13 50.8927V51.1028H117.119V50.7205H118.669V50.6851C118.663 50.5635 118.638 50.4454 118.595 50.3306C118.553 50.2159 118.487 50.1213 118.396 50.0471C118.304 49.9728 118.18 49.9357 118.022 49.9357C117.918 49.9357 117.822 49.9585 117.734 50.004C117.646 50.0479 117.57 50.1137 117.507 50.2015C117.444 50.2893 117.395 50.3964 117.361 50.523C117.326 50.6496 117.308 50.7956 117.308 50.961V51.0674C117.308 51.1973 117.326 51.3197 117.361 51.4345C117.397 51.5475 117.449 51.6471 117.517 51.7332C117.587 51.8193 117.671 51.8868 117.769 51.9357C117.868 51.9847 117.981 52.0091 118.107 52.0091C118.27 52.0091 118.407 51.9754 118.52 51.9079C118.633 51.8404 118.732 51.7501 118.816 51.637L119.095 51.8623C119.037 51.9518 118.963 52.037 118.873 52.118C118.784 52.199 118.674 52.2649 118.543 52.3155C118.413 52.3661 118.26 52.3914 118.082 52.3914Z" fill="#006991"/>
<path d="M120.735 49.6015V52.3408H120.272V49.6015H120.735ZM121.638 49.6015V49.9812H119.386V49.6015H121.638Z" fill="#006991"/>
<path d="M108.574 63.8854V64.655H103.831V63.9816L106.205 61.2929C106.497 60.9621 106.723 60.6819 106.882 60.4524C107.044 60.2195 107.157 60.0119 107.22 59.8296C107.287 59.6439 107.32 59.4549 107.32 59.2625C107.32 59.0195 107.27 58.8 107.17 58.6042C107.074 58.4051 106.932 58.2464 106.742 58.1283C106.553 58.0101 106.324 57.9511 106.056 57.9511C105.734 57.9511 105.465 58.0152 105.249 58.1435C105.037 58.2684 104.878 58.4439 104.772 58.6701C104.665 58.8962 104.612 59.1562 104.612 59.4498H103.692C103.692 59.0346 103.781 58.6549 103.96 58.3106C104.14 57.9663 104.405 57.6928 104.757 57.4903C105.108 57.2844 105.541 57.1814 106.056 57.1814C106.513 57.1814 106.905 57.2641 107.23 57.4295C107.555 57.5916 107.804 57.8211 107.977 58.1182C108.153 58.4118 108.24 58.7562 108.24 59.1511C108.24 59.3671 108.204 59.5866 108.131 59.8093C108.061 60.0288 107.963 60.2482 107.837 60.4676C107.715 60.687 107.57 60.903 107.404 61.1157C107.242 61.3284 107.068 61.5377 106.882 61.7436L104.941 63.8854H108.574Z" fill="#006991"/>
<path d="M112.585 57.2422V64.655H111.665V58.4118L109.808 59.1005V58.2549L112.441 57.2422H112.585Z" fill="#006991"/>
<path d="M120.041 63.8854V64.655H115.298V63.9816L117.672 61.2929C117.964 60.9621 118.189 60.6819 118.348 60.4524C118.511 60.2195 118.624 60.0119 118.687 59.8296C118.753 59.6439 118.786 59.4549 118.786 59.2625C118.786 59.0195 118.737 58.8 118.637 58.6042C118.541 58.4051 118.398 58.2464 118.209 58.1283C118.02 58.0101 117.791 57.9511 117.522 57.9511C117.2 57.9511 116.932 58.0152 116.716 58.1435C116.504 58.2684 116.344 58.4439 116.238 58.6701C116.132 58.8962 116.079 59.1562 116.079 59.4498H115.158C115.158 59.0346 115.248 58.6549 115.427 58.3106C115.606 57.9663 115.872 57.6928 116.223 57.4903C116.575 57.2844 117.008 57.1814 117.522 57.1814C117.98 57.1814 118.372 57.2641 118.697 57.4295C119.022 57.5916 119.271 57.8211 119.443 58.1182C119.619 58.4118 119.707 58.7562 119.707 59.1511C119.707 59.3671 119.671 59.5866 119.598 59.8093C119.528 60.0288 119.43 60.2482 119.304 60.4676C119.181 60.687 119.037 60.903 118.871 61.1157C118.708 61.3284 118.534 61.5377 118.348 61.7436L116.407 63.8854H120.041Z" fill="#006991"/>
<path d="M108.574 77.4959V78.2655H103.831V77.5921L106.205 74.9034C106.497 74.5726 106.723 74.2924 106.882 74.0629C107.044 73.8299 107.157 73.6223 107.22 73.4401C107.287 73.2544 107.32 73.0654 107.32 72.873C107.32 72.6299 107.27 72.4105 107.17 72.2147C107.074 72.0156 106.932 71.8569 106.742 71.7388C106.553 71.6206 106.324 71.5615 106.056 71.5615C105.734 71.5615 105.465 71.6257 105.249 71.7539C105.037 71.8788 104.878 72.0544 104.772 72.2805C104.665 72.5067 104.612 72.7666 104.612 73.0603H103.692C103.692 72.6451 103.781 72.2654 103.96 71.921C104.14 71.5767 104.405 71.3033 104.757 71.1008C105.108 70.8949 105.541 70.7919 106.056 70.7919C106.513 70.7919 106.905 70.8746 107.23 71.04C107.555 71.202 107.804 71.4316 107.977 71.7286C108.153 72.0223 108.24 72.3666 108.24 72.7616C108.24 72.9776 108.204 73.197 108.131 73.4198C108.061 73.6392 107.963 73.8586 107.837 74.0781C107.715 74.2975 107.57 74.5135 107.404 74.7262C107.242 74.9388 107.068 75.1481 106.882 75.354L104.941 77.4959H108.574Z" fill="#006991"/>
<path d="M112.585 70.8527V78.2655H111.665V72.0223L109.808 72.7109V71.8653L112.441 70.8527H112.585Z" fill="#006991"/>
<path d="M116.636 74.1186H117.293C117.615 74.1186 117.881 74.0646 118.09 73.9565C118.302 73.8451 118.46 73.6949 118.562 73.5059C118.669 73.3135 118.722 73.0974 118.722 72.8578C118.722 72.5742 118.675 72.3362 118.582 72.1438C118.489 71.9514 118.35 71.8063 118.164 71.7084C117.978 71.6105 117.743 71.5615 117.458 71.5615C117.199 71.5615 116.97 71.6139 116.771 71.7185C116.575 71.8198 116.421 71.9649 116.308 72.154C116.198 72.343 116.144 72.5658 116.144 72.8223H115.223C115.223 72.4476 115.316 72.1067 115.502 71.7995C115.687 71.4923 115.948 71.2476 116.283 71.0653C116.621 70.883 117.013 70.7919 117.458 70.7919C117.896 70.7919 118.279 70.8712 118.607 71.0299C118.936 71.1852 119.191 71.4181 119.374 71.7286C119.556 72.0358 119.647 72.4189 119.647 72.878C119.647 73.0637 119.604 73.2628 119.518 73.4755C119.435 73.6848 119.304 73.8806 119.125 74.0629C118.949 74.2451 118.72 74.3954 118.438 74.5135C118.156 74.6283 117.818 74.6857 117.423 74.6857H116.636V74.1186ZM116.636 74.8882V74.3262H117.423C117.884 74.3262 118.265 74.3819 118.567 74.4933C118.869 74.6047 119.107 74.7532 119.279 74.9388C119.455 75.1245 119.578 75.3287 119.647 75.5515C119.72 75.7709 119.757 75.9903 119.757 76.2098C119.757 76.5541 119.699 76.8596 119.583 77.1262C119.47 77.3929 119.309 77.6191 119.1 77.8047C118.894 77.9904 118.652 78.1305 118.373 78.225C118.095 78.3195 117.791 78.3668 117.463 78.3668C117.147 78.3668 116.85 78.3212 116.572 78.2301C116.296 78.1389 116.052 78.0073 115.84 77.8351C115.628 77.6596 115.462 77.4452 115.342 77.1921C115.223 76.9355 115.163 76.6435 115.163 76.3161H116.084C116.084 76.5726 116.139 76.7971 116.248 76.9895C116.361 77.1819 116.52 77.3321 116.726 77.4402C116.935 77.5448 117.181 77.5971 117.463 77.5971C117.745 77.5971 117.987 77.5482 118.189 77.4503C118.395 77.349 118.552 77.1971 118.662 76.9946C118.775 76.792 118.831 76.5372 118.831 76.23C118.831 75.9228 118.768 75.6713 118.642 75.4756C118.516 75.2764 118.337 75.1296 118.105 75.035C117.876 74.9371 117.605 74.8882 117.293 74.8882H116.636Z" fill="#006991"/>
<path d="M108.574 91.1063V91.876H103.831V91.2025L106.205 88.5139C106.497 88.1831 106.723 87.9029 106.882 87.6733C107.044 87.4404 107.157 87.2328 107.22 87.0505C107.287 86.8649 107.32 86.6758 107.32 86.4834C107.32 86.2404 107.27 86.021 107.17 85.8252C107.074 85.626 106.932 85.4674 106.742 85.3492C106.553 85.2311 106.324 85.172 106.056 85.172C105.734 85.172 105.465 85.2361 105.249 85.3644C105.037 85.4893 104.878 85.6648 104.772 85.891C104.665 86.1172 104.612 86.3771 104.612 86.6708H103.692C103.692 86.2556 103.781 85.8758 103.96 85.5315C104.14 85.1872 104.405 84.9138 104.757 84.7112C105.108 84.5053 105.541 84.4024 106.056 84.4024C106.513 84.4024 106.905 84.4851 107.23 84.6505C107.555 84.8125 107.804 85.042 107.977 85.3391C108.153 85.6328 108.24 85.9771 108.24 86.372C108.24 86.5881 108.204 86.8075 108.131 87.0303C108.061 87.2497 107.963 87.4691 107.837 87.6885C107.715 87.9079 107.57 88.124 107.404 88.3366C107.242 88.5493 107.068 88.7586 106.882 88.9645L104.941 91.1063H108.574Z" fill="#006991"/>
<path d="M114.108 87.6024V88.7265C114.108 89.3308 114.055 89.8405 113.949 90.2557C113.843 90.6709 113.69 91.0051 113.491 91.2582C113.292 91.5114 113.051 91.6954 112.769 91.8101C112.491 91.9215 112.175 91.9772 111.824 91.9772C111.545 91.9772 111.288 91.9418 111.052 91.8709C110.817 91.8 110.604 91.6869 110.415 91.5317C110.23 91.373 110.07 91.1671 109.938 90.9139C109.805 90.6608 109.704 90.3536 109.634 89.9924C109.564 89.6312 109.529 89.2092 109.529 88.7265V87.6024C109.529 86.9982 109.583 86.4919 109.689 86.0834C109.798 85.675 109.952 85.3475 110.152 85.1011C110.351 84.8513 110.59 84.6724 110.868 84.5644C111.15 84.4564 111.465 84.4024 111.814 84.4024C112.096 84.4024 112.355 84.4378 112.59 84.5087C112.829 84.5762 113.041 84.6859 113.227 84.8378C113.413 84.9863 113.571 85.1855 113.7 85.4353C113.833 85.6817 113.934 85.9838 114.004 86.3417C114.073 86.6995 114.108 87.1197 114.108 87.6024ZM113.182 88.8784V87.4455C113.182 87.1147 113.163 86.8244 113.123 86.5746C113.086 86.3214 113.031 86.1054 112.958 85.9265C112.886 85.7475 112.793 85.6024 112.68 85.491C112.57 85.3796 112.443 85.2986 112.297 85.248C112.154 85.1939 111.993 85.1669 111.814 85.1669C111.595 85.1669 111.401 85.2091 111.232 85.2935C111.062 85.3745 110.92 85.5045 110.804 85.6834C110.691 85.8623 110.604 86.0969 110.545 86.3872C110.485 86.6775 110.455 87.0303 110.455 87.4455V88.8784C110.455 89.2092 110.473 89.5012 110.51 89.7544C110.55 90.0076 110.608 90.227 110.684 90.4126C110.76 90.5949 110.853 90.7451 110.963 90.8633C111.072 90.9814 111.198 91.0692 111.341 91.1266C111.487 91.1806 111.648 91.2076 111.824 91.2076C112.049 91.2076 112.247 91.1637 112.416 91.076C112.585 90.9882 112.726 90.8515 112.839 90.6658C112.955 90.4768 113.041 90.2354 113.098 89.9417C113.154 89.6447 113.182 89.2903 113.182 88.8784Z" fill="#006991"/>
<path d="M116.208 91.0911H116.303C116.834 91.0911 117.265 91.0152 117.597 90.8633C117.929 90.7114 118.184 90.5072 118.363 90.2506C118.543 89.9941 118.665 89.7055 118.732 89.3848C118.798 89.0607 118.831 88.7282 118.831 88.3873V87.2581C118.831 86.924 118.793 86.6269 118.717 86.367C118.644 86.1071 118.541 85.8893 118.408 85.7138C118.279 85.5383 118.131 85.4049 117.965 85.3138C117.799 85.2226 117.623 85.1771 117.438 85.1771C117.225 85.1771 117.035 85.221 116.865 85.3087C116.699 85.3931 116.558 85.5129 116.442 85.6682C116.329 85.8235 116.243 86.0058 116.183 86.2151C116.124 86.4244 116.094 86.6522 116.094 86.8986C116.094 87.118 116.12 87.3307 116.174 87.5366C116.227 87.7425 116.308 87.9282 116.417 88.0936C116.527 88.259 116.663 88.3907 116.826 88.4885C116.991 88.5831 117.185 88.6303 117.408 88.6303C117.613 88.6303 117.806 88.5898 117.985 88.5088C118.168 88.4244 118.329 88.3113 118.468 88.1695C118.611 88.0244 118.723 87.8607 118.806 87.6784C118.893 87.4961 118.942 87.3054 118.956 87.1062H119.394C119.394 87.3864 119.339 87.6632 119.229 87.9366C119.123 88.2067 118.974 88.4531 118.781 88.6759C118.589 88.8987 118.363 89.0776 118.105 89.2126C117.846 89.3443 117.564 89.4101 117.258 89.4101C116.9 89.4101 116.59 89.3392 116.328 89.1974C116.066 89.0556 115.85 88.8666 115.681 88.6303C115.515 88.394 115.391 88.1307 115.308 87.8404C115.228 87.5467 115.188 87.2497 115.188 86.9493C115.188 86.5982 115.236 86.2691 115.332 85.9619C115.429 85.6547 115.571 85.3847 115.76 85.1518C115.95 84.9155 116.183 84.7315 116.462 84.5998C116.744 84.4682 117.069 84.4024 117.438 84.4024C117.852 84.4024 118.206 84.4868 118.498 84.6555C118.79 84.8243 119.027 85.0505 119.209 85.334C119.395 85.6176 119.531 85.9366 119.618 86.291C119.704 86.6455 119.747 87.01 119.747 87.3847V87.724C119.747 88.1054 119.722 88.4936 119.672 88.8886C119.626 89.2801 119.535 89.6548 119.399 90.0126C119.266 90.3704 119.072 90.6911 118.816 90.9747C118.561 91.2549 118.227 91.4776 117.816 91.6431C117.408 91.8051 116.903 91.8861 116.303 91.8861H116.208V91.0911Z" fill="#006991"/>
<path d="M52.7564 34.5251V35.2888H50.3061V34.5251H52.7564ZM48.6593 35.785H49.7545C49.7785 36.0009 49.8344 36.1827 49.9224 36.3306C50.013 36.4784 50.1436 36.591 50.3141 36.6684C50.4846 36.7435 50.7032 36.781 50.9696 36.781C51.1935 36.781 51.3853 36.7435 51.5452 36.6684C51.7078 36.591 51.8397 36.4795 51.9409 36.3341C52.0449 36.1886 52.1208 36.0126 52.1688 35.8062C52.2194 35.5997 52.2447 35.3651 52.2447 35.1023V34.7116C52.2447 34.4934 52.2274 34.2963 52.1928 34.1204C52.1581 33.9421 52.1048 33.786 52.0329 33.6523C51.9636 33.5162 51.877 33.4036 51.7731 33.3144C51.6691 33.2229 51.5479 33.1537 51.4093 33.1068C51.2708 33.0599 51.1162 33.0364 50.9456 33.0364C50.6738 33.0364 50.454 33.0775 50.2861 33.1596C50.1182 33.2394 49.993 33.3555 49.9104 33.508C49.8278 33.6582 49.7745 33.84 49.7505 34.0535H48.6553C48.6926 33.7086 48.8018 33.4024 48.983 33.135C49.1642 32.8651 49.4174 32.654 49.7425 32.5015C50.0703 32.349 50.4713 32.2727 50.9456 32.2727C51.3107 32.2727 51.6398 32.3302 51.9329 32.4452C52.2287 32.5578 52.4819 32.7208 52.6924 32.9343C52.9029 33.1479 53.0628 33.4048 53.1721 33.7051C53.284 34.0054 53.3399 34.3433 53.3399 34.7187V35.1023C53.3399 35.4753 53.2853 35.812 53.1761 36.1124C53.0668 36.4127 52.9096 36.6684 52.7044 36.8796C52.4992 37.0907 52.2501 37.2538 51.9569 37.3688C51.6665 37.4837 51.3374 37.5412 50.9696 37.5412C50.498 37.5412 50.0956 37.4661 49.7625 37.316C49.4294 37.1635 49.1696 36.9558 48.983 36.693C48.7965 36.4279 48.6886 36.1253 48.6593 35.785Z" fill="#F0593E"/>
<path d="M57.9886 32.3431V33.1068H55.1467V32.3431H57.9886ZM58.8001 32.3431V37.4673H57.6969V32.3431H58.8001ZM54.9708 32.3431H56.066L55.9221 34.9017C55.9008 35.2794 55.8622 35.6103 55.8062 35.8941C55.7502 36.178 55.6743 36.4209 55.5784 36.6227C55.4824 36.8221 55.3625 36.984 55.2186 37.1083C55.0747 37.2327 54.9042 37.3242 54.707 37.3828C54.5124 37.4392 54.2859 37.4673 54.0275 37.4673H53.7517V36.7071L53.9075 36.693C54.0434 36.6837 54.1607 36.6543 54.2593 36.6051C54.3606 36.5558 54.4472 36.4819 54.5191 36.3833C54.5911 36.2825 54.6497 36.1534 54.695 35.9962C54.743 35.839 54.7803 35.6478 54.8069 35.4226C54.8362 35.1973 54.8575 34.9334 54.8709 34.6307L54.9708 32.3431Z" fill="#F0593E"/>
<path d="M63.7845 36.7071V37.4673H60.6907V36.7071H63.7845ZM61.0265 32.3431V37.4673H59.9273V32.3431H61.0265ZM63.3808 34.4582V35.2008H60.6907V34.4582H63.3808ZM63.7725 32.3431V33.1068H60.6907V32.3431H63.7725Z" fill="#F0593E"/>
<path d="M65.6592 32.3431V37.4673H64.56V32.3431H65.6592ZM69.1247 32.3431L66.8264 35.3064H65.3834L65.2395 34.4547H66.2308L67.7857 32.3431H69.1247ZM67.9935 37.4673L66.2388 35.1516L66.9783 34.4371L69.3086 37.4673H67.9935Z" fill="#F0593E"/>
<path d="M72.3305 32.3431V37.4673H71.2352V32.3431H72.3305ZM74.1372 32.3431V33.1068H69.4485V32.3431H74.1372Z" fill="#F0593E"/>
<path d="M77.1071 35.5985H75.6081V34.8383H77.1071C77.3522 34.8383 77.5508 34.8031 77.7027 34.7328C77.8572 34.66 77.9705 34.5615 78.0424 34.4371C78.1144 34.3104 78.1503 34.1661 78.1503 34.0042C78.1503 33.847 78.1144 33.7004 78.0424 33.5643C77.9705 33.4282 77.8572 33.318 77.7027 33.2335C77.5508 33.149 77.3522 33.1068 77.1071 33.1068H75.9679V37.4673H74.8687V32.3431H77.1071C77.5601 32.3431 77.9465 32.4147 78.2663 32.5578C78.5887 32.6986 78.8339 32.8945 79.0017 33.1455C79.1723 33.3942 79.2576 33.6781 79.2576 33.9972C79.2576 34.328 79.1723 34.6131 79.0017 34.8524C78.8339 35.0917 78.5887 35.2759 78.2663 35.405C77.9465 35.534 77.5601 35.5985 77.1071 35.5985Z" fill="#F0593E"/>
<path d="M84.8336 34.775V35.0389C84.8336 35.4261 84.775 35.7745 84.6577 36.0842C84.5405 36.3916 84.3739 36.6532 84.1581 36.869C83.9422 37.0849 83.6851 37.2503 83.3866 37.3653C83.0882 37.4802 82.7564 37.5377 82.3913 37.5377C82.0316 37.5377 81.7012 37.4802 81.4 37.3653C81.1016 37.2503 80.8431 37.0849 80.6246 36.869C80.4061 36.6532 80.2369 36.3916 80.1169 36.0842C79.997 35.7745 79.9371 35.4261 79.9371 35.0389V34.775C79.9371 34.3855 79.997 34.0371 80.1169 33.7297C80.2369 33.4224 80.4047 33.1608 80.6206 32.9449C80.8364 32.7267 81.0936 32.5601 81.392 32.4452C81.6932 32.3302 82.0236 32.2727 82.3833 32.2727C82.7484 32.2727 83.0802 32.3302 83.3786 32.4452C83.6771 32.5601 83.9342 32.7267 84.1501 32.9449C84.3686 33.1608 84.5365 33.4224 84.6537 33.7297C84.7736 34.0371 84.8336 34.3855 84.8336 34.775ZM83.7224 35.0389V34.7679C83.7224 34.4887 83.6931 34.2436 83.6344 34.0324C83.5758 33.8189 83.4892 33.6394 83.3746 33.4939C83.26 33.3485 83.1188 33.2394 82.9509 33.1666C82.7831 33.0915 82.5939 33.054 82.3833 33.054C82.1702 33.054 81.981 33.0915 81.8157 33.1666C81.6532 33.2394 81.5146 33.3485 81.4 33.4939C81.2854 33.6394 81.1975 33.8189 81.1362 34.0324C81.0776 34.2436 81.0483 34.4887 81.0483 34.7679V35.0389C81.0483 35.3158 81.0776 35.561 81.1362 35.7745C81.1975 35.988 81.2854 36.1687 81.4 36.3165C81.5173 36.4619 81.6585 36.5722 81.8237 36.6473C81.9889 36.7224 82.1781 36.7599 82.3913 36.7599C82.6045 36.7599 82.7937 36.7224 82.9589 36.6473C83.1241 36.5722 83.2627 36.4619 83.3746 36.3165C83.4892 36.1687 83.5758 35.988 83.6344 35.7745C83.6931 35.561 83.7224 35.3158 83.7224 35.0389Z" fill="#F0593E"/>
<path d="M89.6262 34.4582V35.2184H86.5644V34.4582H89.6262ZM86.8642 32.3431V37.4673H85.7649V32.3431H86.8642ZM90.4416 32.3431V37.4673H89.3424V32.3431H90.4416Z" fill="#F0593E"/>
<path d="M95.4221 34.4582V35.2184H92.3603V34.4582H95.4221ZM92.66 32.3431V37.4673H91.5608V32.3431H92.66ZM96.2375 32.3431V37.4673H95.1383V32.3431H96.2375Z" fill="#F0593E"/>
<path d="M99.743 33.1209L98.0842 37.4673H96.921L99.0955 32.3431H99.8389L99.743 33.1209ZM101.13 37.4673L99.4632 33.1209L99.3633 32.3431H100.111L102.297 37.4673H101.13ZM101.054 35.5633V36.327H97.9323V35.5633H101.054Z" fill="#F0593E"/>
<path d="M106.023 35.5739H104.428L104.028 35.4296C103.58 35.3052 103.238 35.1175 103.001 34.8665C102.764 34.6154 102.645 34.2975 102.645 33.9127C102.645 33.5725 102.73 33.2863 102.901 33.054C103.074 32.8194 103.319 32.6422 103.636 32.5226C103.956 32.4029 104.334 32.3431 104.771 32.3431H106.762V37.4673H105.659V33.1068H104.771C104.422 33.1068 104.164 33.1831 103.996 33.3356C103.828 33.4881 103.744 33.7004 103.744 33.9726C103.744 34.1626 103.781 34.3233 103.856 34.4547C103.933 34.5861 104.047 34.6847 104.196 34.7503C104.348 34.816 104.536 34.8489 104.759 34.8489H106.019L106.023 35.5739ZM104.831 35.1656L103.508 37.4673H102.321L103.652 35.1656H104.831Z" fill="#F0593E"/>
<path d="M114.588 34.775V35.0389C114.588 35.4261 114.53 35.7745 114.413 36.0842C114.295 36.3916 114.129 36.6532 113.913 36.869C113.697 37.0849 113.44 37.2503 113.142 37.3653C112.843 37.4802 112.511 37.5377 112.146 37.5377C111.786 37.5377 111.456 37.4802 111.155 37.3653C110.856 37.2503 110.598 37.0849 110.379 36.869C110.161 36.6532 109.992 36.3916 109.872 36.0842C109.752 35.7745 109.692 35.4261 109.692 35.0389V34.775C109.692 34.3855 109.752 34.0371 109.872 33.7297C109.992 33.4224 110.16 33.1608 110.375 32.9449C110.591 32.7267 110.848 32.5601 111.147 32.4452C111.448 32.3302 111.778 32.2727 112.138 32.2727C112.503 32.2727 112.835 32.3302 113.134 32.4452C113.432 32.5601 113.689 32.7267 113.905 32.9449C114.123 33.1608 114.291 33.4224 114.409 33.7297C114.529 34.0371 114.588 34.3855 114.588 34.775ZM113.477 35.0389V34.7679C113.477 34.4887 113.448 34.2436 113.389 34.0324C113.331 33.8189 113.244 33.6394 113.13 33.4939C113.015 33.3485 112.874 33.2394 112.706 33.1666C112.538 33.0915 112.349 33.054 112.138 33.054C111.925 33.054 111.736 33.0915 111.571 33.1666C111.408 33.2394 111.269 33.3485 111.155 33.4939C111.04 33.6394 110.952 33.8189 110.891 34.0324C110.832 34.2436 110.803 34.4887 110.803 34.7679V35.0389C110.803 35.3158 110.832 35.561 110.891 35.7745C110.952 35.988 111.04 36.1687 111.155 36.3165C111.272 36.4619 111.413 36.5722 111.579 36.6473C111.744 36.7224 111.933 36.7599 112.146 36.7599C112.359 36.7599 112.549 36.7224 112.714 36.6473C112.879 36.5722 113.018 36.4619 113.13 36.3165C113.244 36.1687 113.331 35.988 113.389 35.7745C113.448 35.561 113.477 35.3158 113.477 35.0389Z" fill="#F0593E"/>
<path d="M115.532 32.3431H116.635V33.9233C116.635 34.1579 116.675 34.3409 116.755 34.4723C116.838 34.6037 116.961 34.6964 117.127 34.7503C117.292 34.8043 117.497 34.8313 117.742 34.8313C117.849 34.8313 117.966 34.8266 118.094 34.8172C118.225 34.8078 118.356 34.7961 118.49 34.782C118.626 34.7656 118.755 34.7457 118.877 34.7222C119.003 34.6987 119.112 34.6729 119.205 34.6448V35.4085C119.112 35.4343 119.004 35.4589 118.881 35.4824C118.762 35.5058 118.635 35.5258 118.502 35.5422C118.371 35.5586 118.239 35.5715 118.106 35.5809C117.975 35.588 117.854 35.5915 117.742 35.5915C117.292 35.5915 116.9 35.534 116.567 35.419C116.237 35.3041 115.981 35.1246 115.8 34.8806C115.621 34.6342 115.532 34.3151 115.532 33.9233V32.3431ZM118.965 32.3431H120.069V37.4673H118.965V32.3431Z" fill="#F0593E"/>
<path d="M125.045 36.7071V37.4673H121.951V36.7071H125.045ZM122.287 32.3431V37.4673H121.188V32.3431H122.287ZM124.641 34.4582V35.2008H121.951V34.4582H124.641ZM125.033 32.3431V33.1068H121.951V32.3431H125.033Z" fill="#F0593E"/>
<path d="M128.047 35.5985H126.548V34.8383H128.047C128.292 34.8383 128.491 34.8031 128.643 34.7328C128.797 34.66 128.91 34.5615 128.982 34.4371C129.054 34.3104 129.09 34.1661 129.09 34.0042C129.09 33.847 129.054 33.7004 128.982 33.5643C128.91 33.4282 128.797 33.318 128.643 33.2335C128.491 33.149 128.292 33.1068 128.047 33.1068H126.908V37.4673H125.809V32.3431H128.047C128.5 32.3431 128.886 32.4147 129.206 32.5578C129.529 32.6986 129.774 32.8945 129.942 33.1455C130.112 33.3942 130.197 33.6781 130.197 33.9972C130.197 34.328 130.112 34.6131 129.942 34.8524C129.774 35.0917 129.529 35.2759 129.206 35.405C128.886 35.534 128.5 35.5985 128.047 35.5985Z" fill="#F0593E"/>
<path d="M134.918 36.7071V37.4673H131.824V36.7071H134.918ZM132.16 32.3431V37.4673H131.061V32.3431H132.16ZM134.514 34.4582V35.2008H131.824V34.4582H134.514ZM134.906 32.3431V33.1068H131.824V32.3431H134.906Z" fill="#F0593E"/>
<path d="M140.29 36.7071V37.4673H136.049V36.7071H140.29ZM136.349 36.7071V38.7237H135.306L135.254 36.7071H136.349ZM141.11 36.7071L141.026 38.7273H140.006V36.7071H141.11ZM139.607 32.3431V33.1068H136.865V32.3431H139.607ZM140.418 32.3431V37.4673H139.323V32.3431H140.418ZM136.689 32.3431H137.788L137.64 34.4266C137.619 34.7621 137.579 35.0612 137.52 35.324C137.464 35.5868 137.395 35.8202 137.312 36.0244C137.23 36.2285 137.138 36.408 137.037 36.5628C136.938 36.7153 136.833 36.8479 136.721 36.9605C136.612 37.0731 136.498 37.1705 136.381 37.2526C136.266 37.3324 136.153 37.404 136.041 37.4673H135.43V36.7071H135.693C135.771 36.6485 135.852 36.5664 135.937 36.4608C136.025 36.3552 136.109 36.2156 136.189 36.042C136.272 35.8683 136.344 35.649 136.405 35.3838C136.466 35.1187 136.51 34.7996 136.537 34.4266L136.689 32.3431Z" fill="#F0593E"/>
<path d="M142.397 34.2612H143.808C144.258 34.2612 144.644 34.328 144.967 34.4618C145.289 34.5932 145.536 34.7773 145.706 35.0143C145.88 35.2513 145.966 35.5293 145.966 35.8484C145.966 36.0877 145.917 36.3059 145.818 36.503C145.722 36.7001 145.581 36.8714 145.395 37.0168C145.208 37.16 144.982 37.2714 144.715 37.3512C144.449 37.4286 144.146 37.4673 143.808 37.4673H141.657V32.3431H142.76V36.7071H143.808C144.048 36.7071 144.246 36.6672 144.403 36.5875C144.561 36.5077 144.678 36.4021 144.755 36.2707C144.832 36.1393 144.871 35.9962 144.871 35.8414C144.871 35.6889 144.832 35.5504 144.755 35.4261C144.678 35.3017 144.561 35.2032 144.403 35.1304C144.246 35.0577 144.048 35.0213 143.808 35.0213H142.397V34.2612Z" fill="#F0593E"/>
<path fill-rule="evenodd" clip-rule="evenodd" d="M84.4621 20.7779H84.8198C85.5608 20.7779 86.568 19.9158 86.568 16.0455C86.564 14.6344 86.4295 13.6284 86.2237 12.9091H83.0541C82.8483 13.6284 82.7139 14.6344 82.7139 16.0455C82.7139 19.9158 83.7184 20.7779 84.4621 20.7779ZM84.8171 21.3474H84.4621C83.861 21.3474 83.085 21.9169 82.8147 24.2009H86.4658C86.1969 21.9169 85.4196 21.3474 84.8171 21.3474ZM89.2253 15.7866H88.8662C88.2624 15.7866 87.4851 15.2135 87.2162 12.9091H90.8753C90.6077 15.2135 89.8278 15.7866 89.2253 15.7866ZM89.2226 16.3561H88.8662C88.1266 16.3561 87.118 17.2193 87.118 21.0872C87.118 22.4828 87.2525 23.4851 87.4529 24.2045H90.6373C90.839 23.4851 90.9708 22.4864 90.9708 21.0872C90.9708 17.2193 89.9649 16.3561 89.2226 16.3561ZM93.6321 20.7779H93.2744C92.5321 20.7779 91.5262 19.9158 91.5262 16.0455C91.5262 14.6344 91.662 13.6284 91.8678 12.9091H95.0401C95.2459 13.6248 95.3803 14.6344 95.3803 16.0455C95.3803 19.9158 94.3718 20.7779 93.6321 20.7779ZM93.6321 21.3474H93.2731C92.672 21.3474 91.8974 21.9169 91.6257 24.2009H95.2795C95.0105 21.9169 94.2319 21.3474 93.6321 21.3474ZM102.137 15.7577L102.095 17.0057H101.478V16.2556H101.216H99.084V13.1443H99.7431V15.7556H101.035V13.1443H101.698V15.7577H102.137ZM104.696 15.7556V16.2556H103.204H102.988H102.543V13.1443H102.988H103.204H104.694V13.6465H103.204V14.4115H104.473V14.8987H103.204V15.7556H104.696ZM107.035 14.9115H105.743V16.2556H105.082V13.1443H105.743V14.4115H107.035V13.1443H107.694V16.2556H107.035V14.9115ZM109.638 13.6465V16.2556H108.979V13.6465H108.007V13.1443H108.979H109.638H110.626V13.6465H109.638ZM111.664 15.1466H112.252C112.504 15.1466 112.719 15.1067 112.898 15.0269C113.079 14.9471 113.217 14.8339 113.313 14.6872C113.408 14.5404 113.456 14.3666 113.456 14.1658C113.456 13.9678 113.408 13.7918 113.313 13.638C113.217 13.4841 113.079 13.3637 112.898 13.2768C112.719 13.1885 112.504 13.1443 112.252 13.1443H111.003V16.2556H111.664V15.1466ZM111.664 14.6466V13.6465H112.252C112.379 13.6465 112.482 13.6707 112.561 13.7192C112.64 13.7676 112.698 13.8317 112.735 13.9115C112.772 13.9913 112.79 14.0774 112.79 14.17C112.79 14.2612 112.772 14.3431 112.735 14.4158C112.698 14.4884 112.64 14.5454 112.561 14.5867C112.482 14.6266 112.379 14.6466 112.252 14.6466H111.664ZM99.7805 17.5206V18.7771H100.089L100.869 17.5206H101.672L100.685 18.9869L101.775 20.6319H100.991L100.16 19.3477H99.7805V20.6319H99.1193V17.5206H99.7805ZM102.697 19.5229H103.285C103.537 19.5229 103.752 19.483 103.931 19.4032C104.112 19.3234 104.25 19.2102 104.346 19.0635C104.441 18.9167 104.489 18.7429 104.489 18.5421C104.489 18.344 104.441 18.1681 104.346 18.0143C104.25 17.8604 104.112 17.74 103.931 17.6531C103.752 17.5648 103.537 17.5206 103.285 17.5206H102.036V20.6319H102.697V19.5229ZM102.697 19.0229V18.0228H103.285C103.412 18.0228 103.515 18.047 103.594 18.0955C103.673 18.1439 103.731 18.208 103.768 18.2878C103.805 18.3676 103.823 18.4537 103.823 18.5463C103.823 18.6375 103.805 18.7194 103.768 18.7921C103.731 18.8647 103.673 18.9217 103.594 18.963C103.515 19.0029 103.412 19.0229 103.285 19.0229H102.697ZM107.582 19.0036V19.1511C107.582 19.3875 107.548 19.5998 107.482 19.7879C107.416 19.9759 107.323 20.1362 107.202 20.2686C107.082 20.3997 106.938 20.5001 106.77 20.5699C106.604 20.6397 106.42 20.6747 106.217 20.6747C106.016 20.6747 105.831 20.6397 105.664 20.5699C105.498 20.5001 105.354 20.3997 105.232 20.2686C105.11 20.1362 105.015 19.9759 104.947 19.7879C104.881 19.5998 104.848 19.3875 104.848 19.1511V19.0036C104.848 18.7657 104.881 18.5535 104.947 18.3668C105.014 18.1788 105.107 18.0185 105.227 17.886C105.349 17.7536 105.493 17.6524 105.659 17.5826C105.827 17.5128 106.011 17.4779 106.213 17.4779C106.415 17.4779 106.6 17.5128 106.766 17.5826C106.933 17.6524 107.077 17.7536 107.198 17.886C107.32 18.0185 107.414 18.1788 107.48 18.3668C107.548 18.5535 107.582 18.7657 107.582 19.0036ZM106.914 19.1511V18.9994C106.914 18.8341 106.898 18.6888 106.867 18.5634C106.836 18.4381 106.791 18.3326 106.731 18.2472C106.67 18.1617 106.597 18.0976 106.51 18.0549C106.424 18.0107 106.324 17.9886 106.213 17.9886C106.101 17.9886 106.002 18.0107 105.915 18.0549C105.83 18.0976 105.757 18.1617 105.697 18.2472C105.638 18.3326 105.593 18.4381 105.562 18.5634C105.532 18.6888 105.516 18.8341 105.516 18.9994V19.1511C105.516 19.3149 105.532 19.4602 105.562 19.587C105.593 19.7123 105.639 19.8185 105.699 19.9054C105.759 19.9909 105.833 20.0557 105.92 20.0998C106.006 20.144 106.105 20.1661 106.217 20.1661C106.329 20.1661 106.428 20.144 106.515 20.0998C106.601 20.0557 106.674 19.9909 106.733 19.9054C106.792 19.8185 106.836 19.7123 106.867 19.587C106.898 19.4602 106.914 19.3149 106.914 19.1511ZM108.719 19.2665V20.1319H109.285C109.402 20.1319 109.496 20.1141 109.57 20.0785C109.643 20.0414 109.698 19.9916 109.733 19.9289C109.768 19.8662 109.786 19.7943 109.786 19.7131C109.786 19.6219 109.77 19.5428 109.737 19.4759C109.706 19.4089 109.657 19.3576 109.587 19.322C109.518 19.285 109.427 19.2665 109.314 19.2665H108.719ZM109.916 19.028C109.947 19.0162 109.975 19.0031 110.002 18.9887C110.13 18.9203 110.223 18.832 110.282 18.7237C110.342 18.6154 110.372 18.4972 110.372 18.369C110.372 18.2237 110.345 18.0983 110.291 17.9929C110.236 17.886 110.158 17.7977 110.055 17.7279C109.952 17.6581 109.826 17.6061 109.678 17.5719C109.531 17.5377 109.364 17.5206 109.177 17.5206H108.058V20.6319H108.309H108.719H109.285C109.534 20.6319 109.744 20.5977 109.916 20.5293C110.089 20.461 110.221 20.3591 110.31 20.2238C110.4 20.087 110.445 19.9189 110.445 19.7195C110.445 19.5941 110.417 19.4766 110.361 19.3669C110.307 19.2572 110.219 19.1682 110.099 19.0998C110.046 19.0686 109.985 19.0447 109.916 19.028ZM109.177 18.8263C109.299 18.8263 109.399 18.8113 109.477 18.7814C109.555 18.75 109.613 18.7052 109.651 18.6468C109.691 18.5869 109.711 18.5143 109.711 18.4288C109.711 18.3319 109.692 18.2536 109.654 18.1938C109.617 18.1339 109.559 18.0905 109.479 18.0634C109.402 18.0363 109.301 18.0228 109.177 18.0228H108.719V18.8263H109.177ZM111.578 19.6233L112.867 17.5206H113.529V20.6319H112.867V18.5292L111.578 20.6319H110.917V17.5206H111.578V19.6233ZM99.6984 22.7409H99.6696C99.5863 22.7409 99.5092 22.7538 99.4384 22.7794C99.3675 22.8051 99.3053 22.8415 99.2517 22.8887C99.1988 22.9353 99.1574 22.9909 99.1277 23.0554C99.0985 23.1193 99.084 23.1901 99.084 23.2677C99.084 23.3453 99.0985 23.4164 99.1277 23.4809C99.1574 23.5448 99.1988 23.6001 99.2517 23.6467C99.3053 23.6932 99.3675 23.7294 99.4384 23.7551C99.5092 23.7801 99.5863 23.7927 99.6696 23.7927H99.6984V23.9692H99.8821V23.7927H99.9089C99.9922 23.7927 100.069 23.7801 100.14 23.7551C100.212 23.7294 100.274 23.6932 100.327 23.6467C100.38 23.5995 100.422 23.5436 100.452 23.4791C100.482 23.4146 100.496 23.3435 100.496 23.2659C100.496 23.1883 100.482 23.1175 100.452 23.0536C100.422 22.9891 100.38 22.9335 100.327 22.8869C100.274 22.8404 100.212 22.8045 100.14 22.7794C100.069 22.7538 99.9922 22.7409 99.9089 22.7409H99.8821V22.5573H99.6984V22.7409ZM99.6984 22.8771H99.6696C99.5829 22.8771 99.5095 22.8935 99.4493 22.9264C99.3891 22.9586 99.3434 23.004 99.3123 23.0625C99.2812 23.1211 99.2656 23.1895 99.2656 23.2677C99.2656 23.3268 99.2742 23.3803 99.2914 23.4281C99.3093 23.4758 99.3355 23.5168 99.3699 23.5508C99.4043 23.5848 99.4466 23.6111 99.4969 23.6296C99.5472 23.6482 99.6048 23.6574 99.6696 23.6574H99.6984V22.8771ZM99.8821 23.6574H99.9108C99.9969 23.6574 100.07 23.6413 100.129 23.609C100.189 23.5762 100.235 23.5305 100.266 23.472C100.298 23.4128 100.314 23.3441 100.314 23.2659C100.314 23.2074 100.305 23.1542 100.287 23.1064C100.269 23.0587 100.243 23.0177 100.209 22.9837C100.175 22.9497 100.133 22.9234 100.083 22.9049C100.033 22.8863 99.9757 22.8771 99.9108 22.8771H99.8821V23.6574ZM101.62 22.7526V22.611H100.924H100.733V23.9154H100.923H101.273C101.352 23.9154 101.422 23.9062 101.483 23.8877C101.544 23.8685 101.595 23.8417 101.637 23.807C101.679 23.7718 101.71 23.7306 101.731 23.6834C101.753 23.6356 101.763 23.5831 101.763 23.5257C101.763 23.4487 101.744 23.3815 101.707 23.3241C101.669 23.2668 101.614 23.2223 101.541 23.1906C101.468 23.1584 101.379 23.1423 101.273 23.1423H100.924V22.7526H101.62ZM100.924 23.2838V23.7748H101.273C101.344 23.7748 101.401 23.7631 101.444 23.7398C101.489 23.7159 101.521 23.6849 101.542 23.6467C101.562 23.6084 101.573 23.5675 101.573 23.5239C101.573 23.4803 101.562 23.4403 101.542 23.4039C101.521 23.3674 101.489 23.3385 101.444 23.317C101.401 23.2949 101.344 23.2838 101.273 23.2838H100.924ZM102.185 22.611H102.267L102.741 23.6744L103.213 22.611H103.296H103.4H103.459V23.9154H103.269V23.4066L103.287 22.8611L102.812 23.9154H102.667L102.193 22.8596L102.212 23.4066V23.9154H102.021V22.611H102.082H102.185ZM104.352 22.611H104.394L104.946 23.9154H104.75L104.612 23.5741H104.008L103.87 23.9154H103.675L104.226 22.611H104.267H104.352ZM104.065 23.4325H104.555L104.31 22.8239L104.065 23.4325ZM106.177 23.4039H105.836V23.9154H105.644V22.611H106.177C106.287 22.611 106.379 22.628 106.454 22.6621C106.53 22.6961 106.587 22.7433 106.626 22.8036C106.665 22.8633 106.685 22.9317 106.685 23.0088C106.685 23.0924 106.665 23.1638 106.626 23.2229C106.587 23.282 106.53 23.3271 106.454 23.3582C106.379 23.3886 106.287 23.4039 106.177 23.4039ZM105.836 22.7526V23.2632H106.177C106.252 23.2632 106.313 23.2525 106.359 23.231C106.405 23.2095 106.439 23.1796 106.46 23.1414C106.482 23.1032 106.493 23.0596 106.493 23.0106C106.493 22.9658 106.482 22.9237 106.46 22.8843C106.439 22.8448 106.405 22.8132 106.359 22.7893C106.313 22.7648 106.252 22.7526 106.177 22.7526H105.836ZM107.999 23.5678C108.026 23.4902 108.039 23.4024 108.039 23.3044V23.222C108.039 23.1241 108.026 23.0366 107.998 22.9595C107.971 22.8819 107.931 22.8159 107.88 22.7615C107.829 22.7066 107.768 22.6648 107.696 22.6361C107.625 22.6074 107.546 22.5931 107.458 22.5931C107.372 22.5931 107.294 22.6074 107.223 22.6361C107.152 22.6648 107.091 22.7066 107.039 22.7615C106.987 22.8159 106.947 22.8819 106.919 22.9595C106.891 23.0366 106.877 23.1241 106.877 23.222V23.3044C106.877 23.4024 106.891 23.4902 106.92 23.5678C106.948 23.6455 106.988 23.7115 107.04 23.7658C107.092 23.8202 107.154 23.8617 107.225 23.8903C107.296 23.919 107.374 23.9333 107.46 23.9333C107.548 23.9333 107.627 23.919 107.698 23.8903C107.769 23.8617 107.831 23.8202 107.882 23.7658C107.933 23.7115 107.972 23.6455 107.999 23.5678ZM107.85 23.2202V23.3044C107.85 23.3827 107.841 23.452 107.824 23.5123C107.807 23.572 107.781 23.6225 107.748 23.6637C107.715 23.7043 107.674 23.7351 107.626 23.756C107.577 23.7769 107.522 23.7873 107.46 23.7873C107.4 23.7873 107.346 23.7769 107.298 23.756C107.25 23.7351 107.209 23.7043 107.174 23.6637C107.14 23.6225 107.113 23.572 107.095 23.5123C107.076 23.452 107.067 23.3827 107.067 23.3044V23.2202C107.067 23.1426 107.076 23.0739 107.095 23.0142C107.113 22.9544 107.139 22.9043 107.173 22.8636C107.207 22.823 107.248 22.7923 107.296 22.7714C107.344 22.7505 107.398 22.74 107.458 22.74C107.519 22.74 107.574 22.7505 107.623 22.7714C107.672 22.7923 107.713 22.823 107.747 22.8636C107.78 22.9043 107.806 22.9544 107.823 23.0142C107.841 23.0739 107.85 23.1426 107.85 23.2202ZM109.199 23.5006H109.389C109.38 23.5831 109.353 23.6568 109.311 23.7219C109.269 23.787 109.209 23.8387 109.131 23.8769C109.054 23.9145 108.957 23.9333 108.842 23.9333C108.757 23.9333 108.68 23.919 108.61 23.8903C108.541 23.8617 108.482 23.8211 108.433 23.7685C108.383 23.7153 108.345 23.6517 108.317 23.5777C108.291 23.503 108.278 23.42 108.278 23.3286V23.1987C108.278 23.1073 108.291 23.0246 108.317 22.9505C108.345 22.8759 108.383 22.812 108.434 22.7588C108.485 22.7057 108.546 22.6648 108.617 22.6361C108.689 22.6074 108.769 22.5931 108.858 22.5931C108.968 22.5931 109.06 22.6116 109.135 22.6486C109.211 22.6857 109.269 22.737 109.311 22.8027C109.353 22.8678 109.38 22.9434 109.389 23.0294H109.199C109.19 22.9685 109.172 22.9162 109.147 22.8726C109.122 22.8284 109.086 22.7944 109.04 22.7705C108.994 22.7466 108.933 22.7346 108.858 22.7346C108.794 22.7346 108.738 22.7457 108.689 22.7678C108.64 22.7899 108.6 22.8212 108.567 22.8619C108.534 22.9025 108.51 22.9511 108.493 23.0079C108.477 23.0646 108.468 23.1276 108.468 23.1969V23.3286C108.468 23.3925 108.476 23.4525 108.49 23.5087C108.505 23.5648 108.528 23.6141 108.559 23.6565C108.589 23.6989 108.628 23.7324 108.675 23.7569C108.722 23.7807 108.777 23.7927 108.842 23.7927C108.923 23.7927 108.988 23.781 109.036 23.7578C109.084 23.7345 109.121 23.701 109.145 23.6574C109.17 23.6138 109.188 23.5616 109.199 23.5006ZM110.714 23.5006H110.523C110.512 23.5616 110.495 23.6138 110.469 23.6574C110.445 23.701 110.409 23.7345 110.36 23.7578C110.312 23.781 110.247 23.7927 110.166 23.7927C110.102 23.7927 110.046 23.7807 109.999 23.7569C109.952 23.7324 109.913 23.6989 109.883 23.6565C109.852 23.6141 109.83 23.5648 109.814 23.5087C109.8 23.4525 109.792 23.3925 109.792 23.3286V23.1969C109.792 23.1276 109.801 23.0646 109.817 23.0079C109.834 22.9511 109.858 22.9025 109.891 22.8619C109.924 22.8212 109.965 22.7899 110.013 22.7678C110.062 22.7457 110.118 22.7346 110.183 22.7346C110.257 22.7346 110.318 22.7466 110.364 22.7705C110.411 22.7944 110.446 22.8284 110.471 22.8726C110.497 22.9162 110.514 22.9685 110.523 23.0294H110.714C110.704 22.9434 110.678 22.8678 110.635 22.8027C110.594 22.737 110.535 22.6857 110.46 22.6486C110.384 22.6116 110.292 22.5931 110.183 22.5931C110.093 22.5931 110.013 22.6074 109.941 22.6361C109.87 22.6648 109.809 22.7057 109.758 22.7588C109.707 22.812 109.669 22.8759 109.642 22.9505C109.615 23.0246 109.602 23.1073 109.602 23.1987V23.3286C109.602 23.42 109.615 23.503 109.642 23.5777C109.669 23.6517 109.707 23.7153 109.757 23.7685C109.806 23.8211 109.866 23.8617 109.934 23.8903C110.004 23.919 110.081 23.9333 110.166 23.9333C110.282 23.9333 110.378 23.9145 110.456 23.8769C110.533 23.8387 110.593 23.787 110.635 23.7219C110.678 23.6568 110.704 23.5831 110.714 23.5006ZM111.174 23.6162L111.886 22.611H112.078V23.9154H111.886V22.9093L111.174 23.9154H110.984V22.611H111.174V23.6162ZM113.337 22.611L112.625 23.6162V22.611H112.435V23.9154H112.625L113.337 22.9093V23.9154H113.529V22.611H113.337Z" fill="#F0593E"/>
<path fill-rule="evenodd" clip-rule="evenodd" d="M28.4676 120.409C28.3927 119.903 29.4651 119.683 29.972 119.379C30.8783 118.837 32.2199 117.409 32.7941 116.532C35.0648 113.065 35.5793 109.611 38.3623 106.417C40.5158 103.946 43.2565 101.965 46.1123 100.385C48.0487 99.314 50.0122 98.4558 52.207 98.137C53.6082 97.9338 54.9813 98.0084 56.2708 98.5488C57.1988 98.9378 58.3624 99.4372 59.3556 99.635C59.7409 99.7117 60.251 99.6728 60.5224 100.01C61.3093 100.99 60.6711 102.674 60.3335 103.681C59.7908 105.304 58.8205 106.711 58.2267 108.289C57.5223 110.159 57.3682 112.206 56.5714 114.058C56.2361 114.836 55.3493 115.786 54.7273 116.343C54.2584 116.763 53.6365 117.231 53.6365 117.917C53.6365 118.318 54.1064 118.685 54.3507 118.928C55.1767 119.751 56.2165 120.322 57.1348 121.026C57.4658 121.28 58.0379 121.685 58.0379 122.15C58.0379 122.394 57.862 122.47 57.6612 122.562C56.7657 122.974 55.8323 123.291 54.9151 123.648C50.9327 125.2 46.9014 126.01 42.6129 126.121C38.4372 126.229 34.1476 125.51 30.6482 123.087C29.6789 122.416 28.6348 121.539 28.4665 120.408L28.4676 120.409Z" fill="#FFF3ED"/>
<path fill-rule="evenodd" clip-rule="evenodd" d="M152.369 138.2C152.075 138.527 151.025 138.342 150.632 138.36C148.738 138.445 146.711 138.006 144.867 137.682C142.733 137.307 140.623 136.932 138.706 135.899C138.254 135.655 137.37 135.305 137.13 134.829C136.853 134.277 138.523 133.49 138.885 133.01C139.357 132.384 139.146 130.645 139.1 129.907C138.861 126.108 136.337 124.686 135.268 121.134C134.921 119.981 134.356 118.187 133.907 117.068C133.312 115.589 132.224 115.296 132.224 113.609C132.224 112.894 132.346 110.883 132.904 110.327C133.119 110.113 133.38 109.752 133.656 109.614C134.779 109.055 136.192 109.804 137.31 109.935C138.744 110.102 140.137 110.383 141.535 110.755C142.124 110.911 142.706 111.088 143.291 111.255C145.102 111.77 144.819 111.666 146.479 112.218C147.975 112.715 148.074 112.726 149.559 113.43C150.98 114.105 152.54 114.834 153.605 116.034C157.536 120.458 159.754 127.899 156.722 133.437C155.801 135.117 154.399 136.181 153.176 137.574C152.948 137.833 152.607 137.934 152.37 138.198L152.369 138.2Z" fill="#FFF3ED"/>
<path fill-rule="evenodd" clip-rule="evenodd" d="M55.1069 110.637C52.4215 114.456 46.4767 116.246 42.1751 117.038C40.2875 117.386 38.2242 117.81 36.3822 117.076C34.334 116.26 33.3604 113.51 31.8223 112.089C30.9996 111.329 29.8251 111.028 29.0936 110.154C28.1633 109.042 27.4524 107.667 26.8142 106.395C26.3507 105.473 26.3268 104.255 26.0294 103.27C25.6614 102.049 24.1972 99.8922 23.8987 98.6547C23.0152 94.9898 23.7359 91.9852 25.173 88.6974C25.8807 87.0784 26.7892 85.0811 27.7107 83.5085C29.5418 80.3839 31.9873 77.8841 35.1481 76.0651C37.5751 74.6687 38.9232 74.6093 41.7659 74.5887C45.3977 74.5628 49.8209 75.235 53.291 76.8833C54.7216 77.5631 55.9904 78.4396 56.9749 79.4523C58.349 80.866 59.0687 82.4158 59.8904 84.2153C60.4244 85.3848 61.0452 86.7347 61.3101 87.9743C61.8181 90.3488 62.3879 92.5818 62.1697 95.0449C61.9961 97.0065 60.0369 100.472 58.8809 102.041C58.4804 102.586 56.2607 108.995 55.1058 110.637H55.1069Z" fill="#BF8F8B"/>
<path fill-rule="evenodd" clip-rule="evenodd" d="M140.302 91.6728C141.151 90.9681 142.397 90.819 143.438 90.4483C144.17 90.1878 144.816 89.6496 145.611 89.5609C149.026 89.1837 152.736 90.0938 156.014 91.2643C157.802 91.903 158.441 92.8692 159.47 93.9965C160.93 95.595 161.067 96.7482 161.929 98.6796C163.441 102.067 165.316 106.787 165.848 110.494C166.178 112.794 166.217 114.734 166.348 117.056C166.434 118.621 166.774 120.432 167.239 121.952C167.483 122.75 167.841 123.516 168.022 124.329C168.2 125.124 168.241 126.222 168.77 126.883C169.3 127.542 170.586 127.64 171.299 128.089C172.149 128.624 172.622 129.458 173.402 130.04C173.776 130.32 174.676 130.063 175.112 130.111C175.563 130.161 175.922 130.427 176.253 130.714C176.781 131.174 177.123 131.844 177.429 132.452C177.469 132.531 177.825 133.115 177.714 133.197C177.289 133.515 175.722 132.924 175.185 132.984C174.161 133.097 172.57 133.804 171.693 134.297C169.636 135.452 168.433 137.583 166.456 138.732C165.544 139.261 164.144 139.726 163.071 139.512C162.264 139.351 162.144 138.554 161.29 138.909C159.676 139.579 157.186 140.455 154.556 139.583C153.692 139.297 152.237 138.516 151.705 137.774C151.371 137.307 150.71 136.971 150.208 136.639C149.267 136.014 147.868 136 146.788 135.752C145.206 135.388 143.158 134.327 142.085 133.127C138.68 129.314 138.023 123.76 136.776 120.958C135.529 118.155 134.273 114.498 133.635 111.707C133.284 110.174 133.208 109.292 133.142 107.69C132.981 103.768 134.415 98.551 136.67 95.3086C137.371 94.3002 138.307 93.1103 139.306 92.3634C139.657 92.1019 139.955 91.9603 140.304 91.6717L140.302 91.6728Z" fill="#F6977A"/>
<path fill-rule="evenodd" clip-rule="evenodd" d="M1.62804 141.944C1.62804 141.944 1.74852 141.02 1.86141 140.19C2.08283 138.572 2.70153 135.471 3.25184 133.933C4.01598 131.803 3.99427 130.858 5.40532 129.03C7.5447 126.261 11.9895 124.703 15.5899 124.02C17.3483 123.687 19.9902 123.441 21.9364 122.8C23.8825 122.159 27.9518 120.388 28.615 120.476C29.2782 120.562 29.8535 121.398 31.0778 121.566C33.9672 121.963 38.3708 122.876 41.2873 122.876C42.7744 122.876 45.3045 123.099 46.7926 123.021C48.4696 122.934 51.003 122.616 52.6745 122.399C54.472 122.165 56.0057 120.947 58.156 121.376C60.3062 121.805 62.9069 122.933 65.4696 123.783C66.657 124.178 77.6871 128.397 78.8496 129.322C80.0023 130.241 82.6095 133.02 83.4323 134.216C84.1324 135.235 84.852 136.472 85.5076 137.516C85.7127 137.842 86.3607 138.928 86.3607 138.928C86.3607 138.928 66.1892 138.843 44.9995 139.375C20.7565 139.983 1.62695 141.945 1.62695 141.945L1.62804 141.944Z" fill="#F3FFF0"/>
<path fill-rule="evenodd" clip-rule="evenodd" d="M119.436 139.112C120.852 136.777 123.276 136.781 125.68 136.062C128.262 135.29 130.931 135.154 133.598 134.95C134.63 134.871 136.091 134.589 137.083 134.983C137.81 135.273 138.467 135.762 139.215 136.027C141.277 136.761 143.383 137.339 145.543 137.679C147.166 137.934 148.842 138.217 150.483 138.319C151.389 138.375 152.336 138.449 153.156 138.858C153.629 139.094 154.095 139.353 154.543 139.633C154.59 139.662 155.056 139.89 155.017 140.004C154.946 140.217 119.251 139.415 119.435 139.111L119.436 139.112Z" fill="#FDE7DC"/>
<path fill-rule="evenodd" clip-rule="evenodd" d="M159.011 140.072C159.059 139.85 161.681 138.554 162.041 138.93C163.186 140.124 166.337 139.097 168.079 137.814C169.983 136.413 171.514 134.095 173.799 133.298C175.018 132.874 176.146 133.096 177.386 133.096C178.996 133.096 181.938 133.585 183.486 133.97C186.343 134.681 187.401 135.455 189.331 138.117C190.024 139.072 191.219 140.343 191.091 141.62C191.069 141.841 185.323 141.297 179.063 140.976C169.864 140.505 159.001 140.117 159.011 140.071V140.072Z" fill="#FDE7DC"/>
<path d="M134.406 117.744C134.335 117.744 134.264 117.717 134.21 117.663C132.971 116.428 132.115 115.25 131.97 113.507C131.968 113.481 131.802 110.84 132.683 110.432C132.885 110.338 133.215 110.316 133.64 110.74C133.748 110.847 133.748 111.021 133.64 111.129C133.533 111.236 133.358 111.236 133.25 111.129C133.082 110.963 132.959 110.911 132.915 110.931C132.582 111.086 132.455 112.708 132.519 113.463C132.651 115.045 133.413 116.094 134.6 117.276C134.707 117.383 134.707 117.557 134.6 117.664C134.546 117.718 134.475 117.745 134.404 117.745L134.406 117.744Z" fill="#57585A"/>
<path d="M139.128 133.044C139.11 133.044 139.093 133.042 139.074 133.039C138.924 133.01 138.828 132.864 138.858 132.716C139.61 128.972 138.403 127.209 136.578 124.541C136.37 124.239 136.157 123.926 135.937 123.598C135.194 122.488 134.836 120.907 134.519 119.511C134.444 119.18 134.372 118.863 134.298 118.572C134.261 118.425 134.351 118.275 134.499 118.239C134.646 118.201 134.797 118.292 134.833 118.439C134.908 118.734 134.98 119.055 135.057 119.39C135.363 120.739 135.71 122.268 136.396 123.294C136.615 123.62 136.827 123.93 137.034 124.231C138.87 126.914 140.197 128.853 139.4 132.823C139.374 132.954 139.259 133.043 139.13 133.043L139.128 133.044Z" fill="#57585A"/>
<path d="M168.661 132.646C168.651 132.646 168.64 132.646 168.631 132.643C168.479 132.626 168.37 132.491 168.388 132.34C168.574 130.669 168.711 128.719 168.313 126.93C168.108 126.013 167.771 125.121 167.445 124.259C167.066 123.255 166.674 122.216 166.471 121.103C166.135 119.264 166.045 117.388 165.959 115.573C165.895 114.244 165.83 112.869 165.669 111.525C165.258 108.117 164.216 105.125 163.112 101.959L162.801 101.062C161.826 98.2494 160.607 95.3302 158.304 93.0378C156.957 91.6954 154.691 91.0535 152.87 90.5368L152.661 90.4774C148.696 89.3491 145.7 89.3663 143.755 90.5282C143.624 90.6071 143.454 90.5639 143.376 90.4342C143.298 90.3045 143.34 90.1348 143.471 90.057C145.552 88.8141 148.696 88.7773 152.812 89.9489L153.02 90.0083C154.902 90.5422 157.245 91.2059 158.693 92.6487C161.075 95.02 162.324 98.0073 163.321 100.882L163.632 101.778C164.746 104.974 165.797 107.993 166.215 111.459C166.38 112.823 166.445 114.208 166.509 115.547C166.594 117.344 166.683 119.202 167.012 121.005C167.207 122.069 167.59 123.084 167.961 124.065C168.294 124.946 168.638 125.856 168.851 126.811C169.267 128.678 169.128 130.684 168.936 132.4C168.921 132.541 168.801 132.644 168.662 132.644L168.661 132.646Z" fill="#57585A"/>
<path d="M135.264 97.9803C135.224 97.9803 135.183 97.9716 135.144 97.9522C135.007 97.8862 134.95 97.722 135.016 97.5847C136.166 95.2221 138.139 92.3331 140.225 91.3085C140.363 91.2415 140.526 91.2977 140.595 91.4339C140.662 91.5701 140.606 91.7344 140.469 91.8014C138.509 92.7633 136.623 95.5431 135.512 97.8236C135.464 97.9219 135.365 97.9781 135.263 97.9781L135.264 97.9803Z" fill="#57585A"/>
<path d="M160.153 136.427C160.11 136.427 160.066 136.418 160.025 136.396C157.538 135.095 155.021 135.456 152.355 135.837C149.78 136.207 147.117 136.588 144.539 135.304C140.519 133.303 139.09 128.873 137.829 124.963C137.652 124.414 137.477 123.872 137.298 123.344C136.851 122.029 136.326 120.703 135.818 119.42C135.024 117.417 134.204 115.345 133.647 113.234C132.463 108.746 132.723 103.773 134.401 98.8536C134.45 98.7098 134.606 98.6331 134.751 98.6817C134.895 98.7304 134.972 98.8871 134.923 99.0297C133.281 103.847 133.024 108.709 134.18 113.093C134.729 115.172 135.543 117.228 136.33 119.217C136.84 120.506 137.368 121.838 137.819 123.167C137.999 123.697 138.175 124.241 138.353 124.795C139.581 128.6 140.972 132.913 144.784 134.812C147.206 136.018 149.668 135.665 152.275 135.292C154.91 134.914 157.636 134.524 160.28 135.909C160.415 135.98 160.467 136.145 160.396 136.279C160.346 136.373 160.251 136.426 160.152 136.426L160.153 136.427Z" fill="#57585A"/>
<path d="M156.996 140.316C155.81 140.316 154.577 140.045 153.337 139.358C152.333 138.803 151.543 137.965 150.779 137.154L150.556 136.918C150.451 136.808 150.456 136.634 150.567 136.53C150.678 136.425 150.852 136.431 150.957 136.541L151.18 136.778C151.915 137.558 152.675 138.364 153.604 138.877C156.36 140.404 159.299 140.011 163.137 137.61C163.482 137.394 163.822 137.144 164.151 136.901C164.674 136.515 165.216 136.117 165.818 135.821C167.43 135.03 169.139 134.52 171.041 134.259C171.189 134.237 171.331 134.344 171.352 134.494C171.372 134.644 171.267 134.782 171.116 134.803C169.273 135.055 167.62 135.549 166.063 136.313C165.504 136.587 164.983 136.971 164.479 137.342C164.141 137.59 163.793 137.846 163.43 138.073C161.739 139.131 159.469 140.314 156.994 140.314L156.996 140.316Z" fill="#57585A"/>
<path d="M162.02 133.605C161.884 133.605 161.766 133.506 161.746 133.368C161.711 133.11 161.668 132.862 161.626 132.616C161.484 131.797 161.351 131.023 161.503 130.109C161.729 128.755 162.188 127.443 162.632 126.173C163.39 124.005 164.107 121.957 163.792 119.674C163.771 119.524 163.877 119.385 164.028 119.365C164.176 119.343 164.317 119.449 164.338 119.599C164.67 122.013 163.898 124.22 163.153 126.353C162.716 127.602 162.265 128.891 162.047 130.199C161.91 131.02 162.035 131.75 162.168 132.522C162.212 132.773 162.255 133.028 162.292 133.292C162.313 133.442 162.207 133.581 162.056 133.601C162.043 133.603 162.031 133.603 162.018 133.603L162.02 133.605Z" fill="#57585A"/>
<path d="M163.631 139.976C163.448 139.976 163.269 139.96 163.098 139.929C162.634 139.843 162.391 139.765 162.27 139.65C162.165 139.623 162.081 139.536 162.065 139.421C162.044 139.271 162.15 139.133 162.301 139.112L162.367 139.103C162.454 139.09 162.658 139.063 162.739 139.263C162.742 139.271 162.745 139.277 162.747 139.285C162.828 139.31 162.968 139.347 163.2 139.39C164.329 139.601 166.018 138.888 167.192 138.09C167.975 137.556 168.698 136.786 169.464 135.97C171.047 134.286 172.683 132.544 175.072 132.69C175.224 132.7 175.34 132.829 175.33 132.981C175.32 133.132 175.186 133.247 175.038 133.238C172.905 133.106 171.363 134.754 169.868 136.345C169.081 137.184 168.338 137.975 167.504 138.542C166.476 139.243 164.924 139.976 163.632 139.976H163.631Z" fill="#57585A"/>
<path d="M174.748 132.894C174.629 132.894 174.521 132.819 174.484 132.701C173.723 130.264 171.926 128.528 169.552 127.938C169.404 127.901 169.314 127.752 169.351 127.605C169.388 127.458 169.537 127.368 169.685 127.405C172.25 128.041 174.191 129.912 175.01 132.538C175.056 132.682 174.975 132.836 174.829 132.881C174.802 132.89 174.774 132.894 174.748 132.894Z" fill="#57585A"/>
<path d="M177.452 133.809C177.316 133.809 177.198 133.709 177.179 133.571C176.922 131.709 176.273 130.889 174.938 130.744C174.786 130.728 174.678 130.592 174.694 130.442C174.71 130.291 174.847 130.176 174.998 130.199C177.044 130.42 177.53 132.078 177.726 133.496C177.746 133.646 177.641 133.785 177.49 133.805C177.477 133.807 177.465 133.807 177.452 133.807V133.809Z" fill="#57585A"/>
<path d="M119.517 139.294C119.46 139.294 119.404 139.276 119.355 139.241C119.231 139.151 119.204 138.979 119.294 138.857C119.529 138.536 119.76 138.272 119.999 138.051C120.688 137.414 121.519 137.129 122.325 136.853C122.525 136.785 122.724 136.716 122.923 136.642C125.437 135.702 128.16 135.242 130.494 134.914C131.139 134.824 131.874 134.792 132.655 134.757C134.667 134.67 136.948 134.57 138.21 133.403C138.322 133.301 138.497 133.306 138.6 133.418C138.704 133.53 138.696 133.704 138.585 133.806C137.174 135.11 134.784 135.215 132.678 135.307C131.911 135.34 131.187 135.371 130.57 135.458C128.267 135.781 125.579 136.235 123.116 137.156C122.913 137.231 122.709 137.302 122.504 137.372C121.719 137.641 120.978 137.896 120.373 138.453C120.161 138.649 119.953 138.887 119.739 139.179C119.685 139.254 119.602 139.292 119.516 139.292L119.517 139.294Z" fill="#57585A"/>
<path d="M191.256 141.818C191.151 141.818 191.051 141.759 191.006 141.657C190.073 139.612 187.402 134.77 182.735 133.966C182.233 133.88 181.704 133.856 181.19 133.833C180.344 133.796 179.47 133.756 178.636 133.444C178.494 133.391 178.421 133.232 178.474 133.091C178.529 132.949 178.688 132.878 178.829 132.93C179.581 133.211 180.374 133.247 181.214 133.284C181.744 133.308 182.292 133.333 182.827 133.425C187.754 134.273 190.538 139.307 191.506 141.43C191.569 141.569 191.508 141.731 191.369 141.793C191.332 141.811 191.293 141.818 191.255 141.818H191.256Z" fill="#57585A"/>
<path d="M24.7993 89.7241C24.7526 89.7241 24.7048 89.7122 24.6614 89.6874C24.529 89.6117 24.4845 89.4431 24.5605 89.3123C25.241 88.1408 25.8033 86.8849 26.346 85.6712C26.7878 84.6833 27.2458 83.6609 27.7679 82.6817C29.116 80.1505 31.5441 77.7792 34.4302 76.1753C36.2614 75.1572 38.2347 74.4785 39.9855 74.2623C40.9623 74.1413 43.0268 74.3466 44.2316 74.6838C44.3782 74.7249 44.4639 74.8762 44.4227 75.0232C44.3814 75.1691 44.2295 75.2556 44.0819 75.2134C42.953 74.8967 40.958 74.6968 40.0528 74.8081C38.3703 75.0156 36.4698 75.6717 34.6983 76.6552C31.9034 78.2094 29.5545 80.4996 28.2553 82.9389C27.7419 83.9019 27.2892 84.9146 26.8507 85.8949C26.3015 87.1216 25.7338 88.3904 25.0381 89.5879C24.987 89.6755 24.8948 89.7252 24.7993 89.7252V89.7241Z" fill="#57585A"/>
<path d="M26.9112 106.6C26.7722 106.6 26.6517 106.495 26.6366 106.353C26.4661 104.725 25.7639 103.263 25.0866 101.848C24.4581 100.537 23.809 99.1832 23.5583 97.6765C23.059 94.673 23.8622 91.9483 24.8054 89.4517C24.8586 89.309 25.0182 89.2377 25.1604 89.2907C25.3026 89.3436 25.3753 89.5025 25.3221 89.6441C24.2638 92.4477 23.6516 94.8708 24.1032 97.5868C24.3409 99.0156 24.9726 100.335 25.5848 101.612C26.2827 103.069 27.0056 104.574 27.1858 106.296C27.2021 106.447 27.0913 106.582 26.9405 106.597C26.9307 106.597 26.9209 106.598 26.9112 106.598V106.6Z" fill="#57585A"/>
<path d="M34.1961 115.658C34.0963 115.658 33.9997 115.604 33.9508 115.509C33.8065 115.229 33.6719 114.943 33.5373 114.658C33.28 114.112 33.0141 113.548 32.6841 113.043C32.1675 112.253 31.3436 111.769 30.5469 111.3C29.1305 110.466 27.6651 109.602 27.9549 107.088C27.9723 106.938 28.1112 106.832 28.261 106.847C28.413 106.864 28.5215 107.001 28.5042 107.152C28.2545 109.312 29.4474 110.015 30.8292 110.828C31.6801 111.329 32.5604 111.847 33.1476 112.745C33.4982 113.282 33.7728 113.864 34.0388 114.426C34.1701 114.706 34.3025 114.985 34.4436 115.26C34.5131 115.395 34.4599 115.56 34.3242 115.63C34.2841 115.65 34.2407 115.66 34.1983 115.66L34.1961 115.658Z" fill="#57585A"/>
<path d="M61.7927 85.87C61.7601 85.87 61.7275 85.8646 61.6961 85.8527C60.0907 85.2518 59.4188 83.9462 58.7697 82.6839C58.481 82.1218 58.1814 81.5404 57.8026 81.0313C54.9035 77.1307 49.7857 74.9692 45.356 75.7765C45.2073 75.8035 45.063 75.7052 45.0348 75.556C45.0076 75.4069 45.1064 75.2642 45.2562 75.2361C49.8834 74.3931 55.2247 76.6411 58.2455 80.7038C58.6514 81.2496 58.9608 81.8506 59.2604 82.4331C59.8899 83.6566 60.4836 84.8119 61.8903 85.3372C62.0325 85.3902 62.1053 85.549 62.0521 85.6906C62.0108 85.8009 61.9055 85.8689 61.7937 85.8689L61.7927 85.87Z" fill="#57585A"/>
<path d="M58.1411 103.304C58.0847 103.304 58.0283 103.287 57.9794 103.252C57.8557 103.164 57.8285 102.992 57.9175 102.869C60.2458 99.661 62.8041 95.5086 61.9184 91.8393C61.5092 90.1468 61.3399 89.6712 61.278 89.5394C61.1575 89.4713 61.1423 89.3254 61.1044 88.9665L61.0957 88.8844C61.0794 88.7331 61.1901 88.598 61.341 88.5829C61.4919 88.5699 61.6286 88.6769 61.6438 88.8271L61.6525 88.9092C61.6634 89.0162 61.671 89.0887 61.6764 89.1384C61.824 89.3189 62.0096 89.8679 62.4546 91.7107C63.3935 95.5972 60.7624 99.8869 58.3647 103.19C58.3105 103.264 58.2269 103.303 58.1411 103.303V103.304Z" fill="#57585A"/>
<path d="M46.1974 116.228C46.0867 116.228 45.9825 116.161 45.9402 116.052C45.8859 115.911 45.9564 115.752 46.0986 115.697C46.65 115.486 47.2524 115.287 47.8896 115.076C50.296 114.281 53.0247 113.38 54.2979 111.383C54.5291 111.021 54.7256 110.716 54.8928 110.455C55.5375 109.453 55.9836 108.54 56.2311 107.716C56.2897 107.521 56.357 107.298 56.4373 107.034C56.4818 106.889 56.636 106.807 56.7825 106.852C56.9279 106.897 57.0104 107.05 56.9659 107.195C56.8856 107.457 56.8183 107.68 56.7608 107.873C56.3711 109.171 56.3581 109.197 55.3584 110.751C55.1912 111.011 54.9948 111.315 54.7647 111.677C53.3862 113.839 50.5586 114.773 48.0643 115.597C47.4337 115.806 46.8378 116.002 46.2984 116.209C46.2658 116.222 46.2321 116.227 46.1996 116.227L46.1974 116.228Z" fill="#57585A"/>
<path d="M38.9504 117.237C38.9004 117.237 38.8505 117.224 38.8049 117.196C38.6758 117.116 38.6356 116.946 38.717 116.817C39.6668 115.299 41.2233 114.276 42.7298 113.286C43.1781 112.992 43.6416 112.688 44.0703 112.381C44.1941 112.293 44.3666 112.32 44.4557 112.443C44.5447 112.567 44.5164 112.738 44.3927 112.827C43.9542 113.141 43.4864 113.447 43.0337 113.745C41.5771 114.701 40.0716 115.69 39.1859 117.107C39.1338 117.19 39.0437 117.237 38.9515 117.237H38.9504Z" fill="#57585A"/>
<path d="M58.0049 108.481C57.9507 108.481 57.8964 108.465 57.8486 108.433C57.7227 108.346 57.6923 108.175 57.7781 108.05C58.768 106.624 59.8404 104.905 60.2952 102.968C60.3386 102.782 60.5372 101.138 60.5437 101.009C60.5361 100.792 60.4764 100.64 60.3863 100.625C60.2594 100.602 59.9967 100.765 59.8827 101.067C59.8284 101.21 59.67 101.281 59.5267 101.227C59.3845 101.174 59.3118 101.015 59.366 100.872C59.5603 100.358 60.0477 100.012 60.4764 100.081C60.6545 100.11 61.0723 100.26 61.0951 101.005C61.0995 101.14 60.878 102.896 60.8325 103.091C60.357 105.118 59.251 106.891 58.2318 108.36C58.1786 108.437 58.0918 108.479 58.0049 108.479V108.481Z" fill="#57585A"/>
<path d="M53.5513 118.678C53.4124 118.678 53.2919 118.573 53.2767 118.431C53.1584 117.301 54.0094 116.548 54.8321 115.821C55.3325 115.379 55.8047 114.961 56.051 114.48C56.6144 113.375 56.8879 112.152 57.1517 110.968C57.3514 110.071 57.5587 109.144 57.8908 108.264C57.944 108.122 58.1036 108.05 58.2458 108.103C58.388 108.156 58.4607 108.315 58.4075 108.456C58.0895 109.301 57.8865 110.208 57.6911 111.087C57.4198 112.304 57.1397 113.562 56.5438 114.729C56.2508 115.303 55.7167 115.776 55.2001 116.233C54.4479 116.897 53.738 117.525 53.827 118.375C53.8433 118.526 53.7326 118.661 53.5817 118.676C53.5719 118.676 53.5622 118.678 53.5524 118.678H53.5513Z" fill="#57585A"/>
<path d="M1.72377 141.452C1.70314 141.452 1.68252 141.45 1.66081 141.444C1.51211 141.41 1.41985 141.262 1.45458 141.115C1.61523 140.43 1.79758 139.497 2.00815 138.416C2.60947 135.338 3.35842 131.508 4.2387 130.117C7.20191 125.435 12.6052 124.364 17.8304 123.328C19.8775 122.923 21.8107 122.539 23.5875 121.95C26.1795 121.091 29.1384 119.981 31.4417 117.69C32.2145 116.921 33.0785 115.883 32.9037 114.659C32.882 114.509 32.9873 114.371 33.1382 114.349C33.289 114.323 33.4291 114.431 33.4508 114.582C33.6624 116.062 32.6291 117.287 31.8324 118.078C29.4445 120.454 26.415 121.591 23.7623 122.471C21.9529 123.071 20.0034 123.457 17.9389 123.866C12.8277 124.879 7.54274 125.927 4.70652 130.408C3.88159 131.713 3.11311 135.647 2.55086 138.52C2.3392 139.606 2.15577 140.543 1.99295 141.238C1.96365 141.365 1.84968 141.451 1.72485 141.451L1.72377 141.452Z" fill="#57585A"/>
<path d="M86.4887 139.027C86.4029 139.027 86.3183 138.987 86.2651 138.912C85.7691 138.227 85.2709 137.505 84.7889 136.807C82.4487 133.415 80.0293 129.908 76.4453 128.336C72.2642 126.502 67.8172 124.989 63.5167 123.527C62.8155 123.288 62.1144 123.049 61.4175 122.81C61.0734 122.693 60.7001 122.571 60.3115 122.446C58.3924 121.826 56.0034 121.053 54.7574 119.811C54.6499 119.704 54.6499 119.53 54.7574 119.423C54.8648 119.316 55.0396 119.316 55.1481 119.423C56.3008 120.572 58.6193 121.321 60.4819 121.924C60.8737 122.051 61.2493 122.173 61.5977 122.292C62.2945 122.53 62.9946 122.768 63.6958 123.007C68.0071 124.474 72.4661 125.991 76.6678 127.834C80.3962 129.469 82.8612 133.041 85.2448 136.495C85.7246 137.191 86.2217 137.91 86.7134 138.591C86.8024 138.714 86.7742 138.886 86.6504 138.975C86.6016 139.009 86.5451 139.027 86.4898 139.027H86.4887Z" fill="#57585A"/>
<path d="M44.4537 123.328C36.669 123.328 29.4737 121.8 28.5055 120.892C28.3948 120.788 28.3893 120.614 28.4946 120.504C28.5988 120.394 28.7736 120.388 28.8843 120.492C30.3149 121.836 47.0674 124.592 57.0457 120.946C57.1879 120.893 57.3474 120.968 57.3995 121.109C57.4516 121.252 57.3789 121.41 57.2356 121.462C53.4725 122.836 48.8681 123.328 44.4537 123.328Z" fill="#57585A"/>
<path d="M151.993 138.528C147.383 138.528 141.485 138.097 136.755 134.733C136.63 134.644 136.602 134.473 136.691 134.349C136.778 134.226 136.951 134.197 137.076 134.285C141.679 137.559 147.467 137.979 151.994 137.979C152.146 137.979 152.27 138.103 152.27 138.254C152.27 138.405 152.146 138.528 151.994 138.528H151.993Z" fill="#57585A"/>
</svg>
