<svg width="210" height="160" viewBox="0 0 210 160" fill="none" xmlns="http://www.w3.org/2000/svg">
<g clip-path="url(#clip0_1_7240)">
<path fill-rule="evenodd" clip-rule="evenodd" d="M72.7628 102.503C72.5503 101.767 59.3494 110.474 57.6624 104.104C57.3541 102.94 56.5145 102.651 56.0777 102.631C55.553 102.608 56.0738 101.468 55.5792 101.439C54.9561 101.404 53.9263 102.388 53.3779 102.323C52.6866 102.238 53.2415 99.8079 52.6787 99.7251C51.1478 99.5003 49.941 99.4989 49.9226 99.2347C49.8911 98.7549 50.896 97.7848 51.7657 97.1617C52.7903 96.4295 53.719 96.0418 53.8961 95.4844C54.2451 94.3868 52.6407 91.9588 53.0133 90.342C53.639 87.6262 54.9836 85.4388 56.5421 82.1052C57.261 80.5658 58.2448 78.2497 58.8312 76.479C59.9292 73.1651 61.3237 68.5038 63.0474 65.9667C64.5429 63.7662 66.7612 61.4671 68.805 60.5719C77.9065 56.5863 117.802 57.0004 123.495 58.4174C125.027 58.7986 126.836 59.1812 129.044 60.0948C131.332 61.0412 134.023 62.5542 135.699 64.8402C138.287 68.3697 138.412 74.7938 140.736 79.087C143.171 83.5866 146.857 87.3554 147.462 91.7972C147.904 95.0401 146.377 94.6694 146.047 96.3875C145.803 97.6547 147.705 97.6849 148.643 98.4539C149.381 99.0599 149.434 99.5844 149.313 99.8815C149.115 100.373 148.407 100.998 148.076 101.439C147.517 102.185 149.413 102.733 148.582 103.352C143.275 107.312 130.587 109.091 129.489 112.713C128.306 116.611 127.385 120.819 127.151 124.207C126.523 133.323 135.665 140.808 135.665 140.808L71.737 140.383C71.737 140.383 73.5132 135.036 74.6387 129.808C76.0135 123.429 76.7823 116.914 76.6865 116.573C75.6436 112.902 73.8031 106.102 72.7641 102.501L72.7628 102.503Z" fill="#F6977A"/>
<path fill-rule="evenodd" clip-rule="evenodd" d="M70.2576 34.2473C70.2576 32.9314 71.0604 31.6169 72.3211 30.3116C73.6946 28.8893 75.5613 27.4617 76.3091 25.6161C77.1827 23.4616 77.0804 21.3623 77.1801 19.5128C77.2706 17.8394 77.5514 16.4158 78.3935 14.4952C80.28 10.1928 85.32 4.89264 88.164 2.94583C89.5965 1.96519 94.2063 0.178751 98.3635 0.531043C100.158 0.682214 101.5 1.97045 102.755 2.64086C103.351 2.95897 104.284 3.0247 104.572 2.97474C106.872 2.5725 108.493 2.60011 110.781 3.44666C113.388 4.41152 116.633 6.4096 118.761 9.53291C120.203 11.6493 122.27 15.8965 122.475 18.9212C122.618 21.0547 122.355 24.2056 122.269 26.5915C122.213 28.1242 122.613 30.957 125.892 32.8092C126.884 33.3692 122.942 32.6054 123.593 33.3298C124.436 34.2696 125.756 34.5772 126.904 35.8247C128.24 37.2773 129.367 39.6986 129.582 41.117C129.935 43.4398 127.112 45.2577 125.989 47.4372C125.674 48.0485 124.754 50.8248 128.888 50.621C129.504 50.5908 127.805 52.0696 125.608 51.4518C125.039 51.2914 127.545 53.396 128.398 55.6977C128.9 57.0543 128.592 58.5752 127.169 59.2062C126.367 59.5611 124.899 58.6593 122.993 58.3333C121.087 58.0073 81.6534 59.36 74.3203 59.2351C73.1003 59.2141 72.2726 56.8873 71.5366 56.635C70.3101 56.2156 67.3086 54.8853 68.0183 51.5819C68.3555 50.015 69.8326 48.0432 71.1824 46.7695C72.4956 45.5312 73.6854 44.9712 73.8113 44.7385C75.0392 42.4644 73.0479 39.1202 72.674 38.8573C71.1877 37.811 70.2563 35.8734 70.2563 34.2486L70.2576 34.2473Z" fill="#57585A"/>
<path fill-rule="evenodd" clip-rule="evenodd" d="M81.4955 30.4759C81.4955 29.2455 82.5358 28.7775 83.702 29.5032C84.5206 30.0132 85.4008 31.8088 86.0279 31.3356C86.3125 31.12 85.957 30.4089 86.1184 29.8029C86.3427 28.9642 87.0734 28.1729 87.5129 27.7903C88.2737 27.1265 89.9174 26.3562 91.0207 24.9312C91.5166 24.2911 96.571 21.5161 99.625 18.5952C102.014 16.3106 102.531 13.6513 102.985 13.7289C103.877 13.88 104.711 13.6487 105.083 13.6487C106.781 13.6487 108.189 15.351 108.952 17.2294C109.723 19.1237 109.781 22.7018 110.782 25.5294C111.185 26.6677 112.448 28.353 113.698 29.5886C115.551 31.4211 117.345 33.59 117.491 34.7245C117.663 36.0679 116.746 38.179 115.705 39.1281C115.115 39.6658 114.648 39.7459 113.705 39.8445C113.56 39.859 112.495 42.3277 111.107 44.6084C110.45 45.6889 108.862 47.0363 108.842 47.616C108.834 47.8474 108.165 52.8452 109.836 54.0651C114.066 57.1542 123.326 57.7865 123.09 58.3451C122.831 58.9551 120.089 60.221 118.848 61.1385C116.063 63.1957 113.212 65.2569 108.826 66.7068C105.337 67.861 101.136 67.6651 100.526 67.6651C99.9713 67.6651 95.6265 67.7729 91.0338 66.6503C88.6502 66.068 86.5028 65.2214 84.0614 64.3328C81.4929 63.3982 78.6331 62.4228 76.2823 61.8247C74.6806 61.4172 73.2887 61.1372 72.0779 61.0425C70.5719 60.9256 69.407 61.0163 69.167 60.5759C68.9466 60.171 74.1112 59.5808 79.8347 58.0257C83.1786 57.1174 86.9527 55.7108 89.3219 54.2622C90.862 53.321 90.2625 47.5056 90.1142 46.1477C90.067 45.7244 88.5649 44.3087 87.7306 42.8692C86.7638 41.2011 86.4477 39.4935 86.3952 39.1373C86.2955 38.4577 86.0318 38.8849 85.5005 38.8586C84.9653 38.831 84.1638 38.3499 83.8686 37.9687C83.0369 36.896 82.0543 35.7222 81.6477 34.2657C81.3302 33.1313 81.4968 31.7773 81.4968 30.4746L81.4955 30.4759Z" fill="#FFF3ED"/>
<path fill-rule="evenodd" clip-rule="evenodd" d="M90.0684 35.3226C90.0684 34.5181 91.228 33.8674 92.6605 33.8674C94.093 33.8674 95.2527 34.5194 95.2527 35.3226C95.2527 36.1258 94.093 36.7778 92.6605 36.7778C91.228 36.7778 90.0684 36.1258 90.0684 35.3226Z" fill="#FABDA6"/>
<path fill-rule="evenodd" clip-rule="evenodd" d="M105.475 35.203C105.475 34.3985 106.634 33.7478 108.067 33.7478C109.499 33.7478 110.659 34.3998 110.659 35.203C110.659 36.0062 109.499 36.6582 108.067 36.6582C106.634 36.6582 105.475 36.0062 105.475 35.203Z" fill="#FABDA6"/>
<path fill-rule="evenodd" clip-rule="evenodd" d="M99.9941 35.249C99.9941 34.5851 100.969 31.8338 101.027 32.2479C101.194 33.4415 102.081 34.5851 102.081 35.249C102.081 35.9128 101.614 36.4518 101.037 36.4518C100.46 36.4518 99.9941 35.9128 99.9941 35.249Z" fill="#FABDA6"/>
<path fill-rule="evenodd" clip-rule="evenodd" d="M97.6297 42.4052C97.6467 42.3263 98.2082 42.2514 98.8969 42.2133C99.4413 42.183 99.9804 41.9491 100.956 41.9701C101.959 41.9911 102.695 42.0897 103.307 42.1291C103.772 42.1581 104.18 42.045 104.186 42.1462C104.231 42.768 102.898 44.6557 100.865 44.6359C98.9034 44.6162 97.5732 42.6707 97.6297 42.4052Z" fill="#F6977A"/>
<path fill-rule="evenodd" clip-rule="evenodd" d="M89.8687 71.1237C89.8687 69.888 91.7564 69.7132 93.6979 69.374C98.3195 68.5669 105.901 69.1966 108.196 69.4424C110.071 69.6435 110.436 70.4782 110.488 71.5916C110.572 73.3531 110.733 77.2848 109.654 79.7075C107.956 83.5236 103.442 89.2036 98.574 89.2036C97.7829 89.2036 87.7134 88.361 86.9879 87.7274C83.2545 84.4661 89.8687 74.6229 89.8687 71.1237Z" fill="white"/>
<path fill-rule="evenodd" clip-rule="evenodd" d="M52.1227 113.2C52.2342 112.465 54.1678 102.125 54.1678 102.125C54.1678 102.125 54.7083 101.168 55.4705 101.376C55.8994 101.493 55.54 102.44 56.0923 102.706C57.4028 103.341 57.3254 103.964 57.8396 103.16C58.0758 102.791 60.4528 97.8755 62.9623 91.6328C64.7543 87.1753 66.4938 81.7516 68.1139 78.1484C69.4493 75.1802 71.0524 73.1414 71.3987 72.7037C71.6506 72.3843 73.5028 69.7762 77.0343 68.1331C79.2723 67.0907 83.6734 66.7068 84.0171 66.6753C84.5025 66.6293 87.0842 67.3654 89.1805 68.1212C90.7048 68.672 91.8802 69.2701 92.2607 69.4068C92.8011 69.6027 90.7888 69.7815 90.0922 70.4046C89.7682 70.6951 89.6751 73.4398 89.6305 73.8789C89.5281 74.8884 92.014 76.6118 94.6298 78.5809C96.3142 79.8481 98.2242 81.4242 98.9589 82.2866C99.3157 82.7046 99.2632 83.3316 98.8014 83.5459C98.4092 83.7273 97.6536 83.5275 97.2968 83.513C95.8918 83.4552 94.4081 83.3618 94.2546 83.8324C94.2113 83.9665 93.8742 84.5226 93.1042 84.8499C91.9773 85.3297 90.2837 85.6136 90.1735 85.7845C89.6409 86.61 86.5463 88.0363 85.6071 88.1914C84.9879 88.2939 83.5423 87.7905 82.2593 86.9295C79.9544 85.3836 77.5984 83.0319 77.4357 83.4407C76.9228 84.729 75.9888 87.3146 75.1558 90.8941C73.1657 99.4372 70.9868 111.82 70.9868 112.613C70.9868 116.347 69.8809 122.431 66.8309 127.143C66.1474 128.2 64.4985 130.188 62.9741 131.498C61.4721 132.788 60.0934 133.408 59.4099 133.408C58.0115 133.408 56.331 130.862 55.4128 129.517C54.972 128.873 52.6986 125.057 52.2158 121.785C51.6924 118.235 51.838 115.094 52.1253 113.2H52.1227Z" fill="#FFF3ED"/>
<path fill-rule="evenodd" clip-rule="evenodd" d="M131.099 117.054C130.496 115.093 126.501 100.296 123.274 92.3374C122.231 89.7675 121.251 88.8158 120.515 88.0573C120.426 87.9653 119.406 88.0678 117.772 88.7422C116.171 89.4021 113.987 90.6246 110.987 91.1701C110.074 91.3371 108.173 91.5605 107.184 91.6618C106.583 91.7235 104.522 91.4646 102.486 91.3397C100.791 91.2345 99.0651 91.2621 98.6532 91.274C97.1262 91.32 93.7037 90.7705 93.3272 90.526C92.7041 90.1224 93.5095 89.6006 95.3566 89.0051C95.6517 88.9105 96.4664 88.2584 97.5014 87.8759C98.2374 87.6038 99.1123 87.659 99.8614 87.2844C100.568 86.9295 100.306 85.9843 102.296 84.9945C103.503 84.3951 106.911 82.9517 109.463 81.7266C111.119 80.9313 112.298 80.207 112.675 79.9375C114.979 78.2891 115.532 76.1845 115.107 75.334C114.533 74.1838 113.015 72.8575 112.783 72.6209C111.723 71.5403 110.208 69.8459 109.852 68.814C109.156 66.7923 109.492 65.4265 110.094 65.0663C110.588 64.7705 111.706 66.369 113.864 68.3145C114.945 69.2899 116.195 69.9037 117.432 70.6228C119.135 71.6126 120.857 72.7011 122.483 74.2798C125.233 76.9535 127.568 81.4466 127.915 81.904C129.17 83.5551 132.092 88.223 135.209 93.347C138.96 99.5134 142.885 106.124 143.094 106.072C145.016 105.579 147.552 103.511 147.975 104.406C148.635 105.802 152.077 118.596 152.291 120.121C152.922 124.593 152.8 127.857 150.881 131.944C149.397 135.104 146.549 137.815 143.81 137.815C142.56 137.815 141.314 136.699 139.852 135.199C138.428 133.737 136.781 131.902 136.194 130.942C135.003 128.996 132.45 121.453 131.099 117.056V117.054Z" fill="#FFF3ED"/>
<path fill-rule="evenodd" clip-rule="evenodd" d="M111.461 75.5706C112.127 74.9712 112.186 73.9682 113.235 73.7934C114.809 73.5305 115.891 74.9752 115.675 76.4947C115.352 78.757 113.226 79.6851 111.154 79.9822C110.371 80.0939 109.629 80.2779 108.97 80.717C108.801 80.83 108.476 81.4176 108.714 81.5898C109.111 81.8738 110.513 81.1547 111 81.0943C111.934 80.9773 112.957 81.0141 113.832 80.6158C116.117 79.5747 117.247 76.8326 116.732 74.427C116.118 71.5548 112.321 72.3001 110.778 73.846C110.563 74.0616 109.348 76.0176 110.266 76.0176C110.266 76.0176 111.295 75.7231 111.46 75.5733L111.461 75.5706Z" fill="white"/>
<path fill-rule="evenodd" clip-rule="evenodd" d="M91.6602 71.167C91.6602 70.5991 95.551 70.139 100.35 70.139C105.148 70.139 109.039 70.5991 109.039 71.167C109.039 71.7349 105.148 72.195 100.35 72.195C95.551 72.195 91.6602 71.7349 91.6602 71.167Z" fill="#006991"/>
<path fill-rule="evenodd" clip-rule="evenodd" d="M105.66 146.148C106.153 141.027 109.788 137.345 115.38 135.441C115.597 135.367 115.456 132.54 115.456 132.54C115.456 132.54 116.765 131.868 118.529 131.439C120.059 131.067 121.931 130.831 123.537 130.739C123.776 130.724 122.935 129.871 122.813 128.801C122.678 127.617 123.318 126.365 125.035 126.302C126.152 126.26 127.185 127.58 127.227 128.449C127.289 129.701 125.925 130.724 126.188 130.743C127.867 130.856 129.955 131.166 131.632 131.544C133.247 131.91 134.509 132.417 134.509 132.417C134.509 132.417 134.386 135.35 134.713 135.453C140.571 137.29 144.752 140.829 145.003 146.149C145.249 151.383 141.034 155.251 134.577 157.104C134.196 157.213 134.344 158.505 134.344 158.505C134.344 158.505 130.596 159.361 125.198 159.478C122.208 159.543 115.682 158.448 115.682 158.448C115.682 158.448 116.061 157.138 115.679 157.024C109.447 155.166 105.153 151.404 105.661 146.15L105.66 146.148Z" fill="white"/>
<path fill-rule="evenodd" clip-rule="evenodd" d="M106.415 150.379C105.892 150.409 104.807 150.162 104.085 149.706C103.364 149.251 102.028 147.58 101.649 146.6C101.27 145.619 100.558 143.281 100.299 142.074C100.041 140.867 99.4623 139.071 99.0189 138.241C98.5755 137.409 97.879 136.354 97.2021 135.711C96.5252 135.069 95.3996 134.279 96.0739 134.406C96.7469 134.534 97.3096 134.719 98.0285 134.565C98.7474 134.411 99.5686 134.089 100.092 134.059C100.615 134.029 100.786 134.552 100.928 135.02C101.071 135.488 101.805 136.758 102.539 137.465C103.271 138.174 104.295 139.133 105.41 139.718C106.525 140.303 107.543 140.044 107.201 140.851C106.858 141.658 106.242 143.45 106.049 144.276C105.856 145.101 105.516 146.19 105.67 147.051C105.823 147.912 106.938 150.35 106.415 150.382V150.379Z" fill="white"/>
<path fill-rule="evenodd" clip-rule="evenodd" d="M138.76 136.984C138.76 136.984 138.76 135.815 138.816 135.307C138.873 134.798 139.851 133.723 140.246 133.365C140.641 133.006 142.316 132.366 143.238 132.158C144.161 131.951 146.475 131.781 147.584 132.14C148.694 132.498 151.065 134.195 151.761 134.893C152.458 135.589 153.511 137.438 153.831 138.305C154.151 139.173 154.546 141.453 154.565 142.527C154.583 143.601 153.548 146.148 153.135 146.957C152.722 147.768 151.404 149.446 150.501 149.672C149.598 149.898 147.228 150.52 146.795 150.84C146.362 151.161 145.892 151.69 145.667 152.273C145.441 152.858 144.801 153.234 144.519 152.8C144.237 152.367 144.237 151.424 144.462 151.067C144.688 150.709 146.42 149.333 147.153 149.182C147.886 149.03 149.767 148.748 150.351 148.201C150.935 147.654 152.683 145.505 152.834 144.393C152.985 143.281 152.722 139.943 152.514 138.982C152.307 138.021 151.048 136.456 150.426 135.815C149.805 135.174 147.661 133.759 146.549 133.497C145.44 133.232 142.993 133.741 142.167 134.062C141.339 134.383 140.342 135.212 140.191 135.721C140.04 136.229 140.567 136.532 140.398 137.079C140.229 137.626 140.247 137.908 139.834 137.682C139.42 137.456 138.762 136.984 138.762 136.984H138.76Z" fill="white"/>
<path fill-rule="evenodd" clip-rule="evenodd" d="M57.3408 152.452C57.3408 151.495 67.8722 150.718 80.8632 150.718C93.8542 150.718 104.386 151.494 104.386 152.452C104.386 152.658 101.008 154.332 98.6712 155.629C97.059 156.526 96.2129 157.221 96.2129 157.221C96.2129 157.221 91.1138 158.396 80.5444 158.085C71.4338 157.817 65.6145 157.283 65.6145 157.283C65.6145 157.283 64.5887 156.527 63.2401 155.783C60.7962 154.434 57.3408 152.689 57.3408 152.451V152.452Z" fill="white"/>
<path fill-rule="evenodd" clip-rule="evenodd" d="M62.5656 152.878C63.1362 152.778 63.5324 152.251 64.0165 151.927C64.9072 151.331 65.9816 150.738 66.9812 150.334C67.7958 150.004 68.8532 149.589 69.7216 149.787C70.3631 149.933 70.266 150.848 71.0308 150.617C75.0883 149.384 76.526 147.939 83.3121 148.135C83.7765 148.148 84.8968 148.561 85.0122 149.122C85.0673 149.393 84.9781 150.58 85.1592 150.612C85.8964 150.743 87.102 150.044 87.792 149.827C90.0929 149.105 96.0604 148.052 96.0867 152.21C96.1011 154.409 91.2775 153.789 90.1402 153.761C83.8224 153.609 78.2852 153.563 72.2311 153.728C69.8698 153.793 67.5282 153.514 65.1696 153.55C64.347 153.563 61.9582 152.986 62.5669 152.879L62.5656 152.878Z" fill="#F6977A"/>
<path fill-rule="evenodd" clip-rule="evenodd" d="M73.9579 151.019C73.916 150.831 75.355 149.519 75.683 150.533C75.9375 151.316 74.2334 152.268 73.9579 151.019Z" fill="#57585A"/>
<path fill-rule="evenodd" clip-rule="evenodd" d="M77.254 149.248C77.5046 148.867 78.8112 148.636 78.474 149.356C78.15 150.045 76.8172 149.916 77.254 149.248Z" fill="#57585A"/>
<path fill-rule="evenodd" clip-rule="evenodd" d="M81.6397 151.69C81.4364 151.001 81.2003 150.855 81.8063 150.225C82.2851 149.727 83.9367 149.401 84.2516 150.279C84.5494 151.11 83.0093 151.636 82.4977 151.742C82.3245 151.778 81.6961 151.885 81.6384 151.69H81.6397Z" fill="#57585A"/>
<path fill-rule="evenodd" clip-rule="evenodd" d="M72.344 153.404C71.835 150.846 77.5231 152.832 74.376 153.483C74.0376 153.552 73.7621 153.435 73.4328 153.458C72.9737 153.489 72.4411 153.887 72.344 153.404Z" fill="#57585A"/>
<path fill-rule="evenodd" clip-rule="evenodd" d="M70.0837 151.152C70.3487 150.967 70.3015 150.977 70.8328 150.917C72.3715 150.742 69.6482 153.564 69.2769 152.179C69.113 151.57 70.4103 150.986 70.8721 151.109L70.0837 151.152Z" fill="#57585A"/>
<path fill-rule="evenodd" clip-rule="evenodd" d="M66.5189 150.61C66.8902 150.518 67.6169 150.602 67.4149 151.085C67.1814 151.644 65.8958 152.998 65.2517 152.113C64.7729 151.456 65.9339 150.758 66.5189 150.61Z" fill="#57585A"/>
<path fill-rule="evenodd" clip-rule="evenodd" d="M86.8134 150.309C87.0744 150.157 88.4912 149.919 88.3102 150.598C88.0137 151.717 86.0827 152.898 85.1211 151.779C84.3891 150.927 87.4614 149.895 87.7999 149.964L86.8134 150.308V150.309Z" fill="#57585A"/>
<path fill-rule="evenodd" clip-rule="evenodd" d="M89.7565 150.689C90.0215 150.15 91.6665 150.021 91.2559 150.648C90.9909 151.052 89.523 151.164 89.7565 150.689Z" fill="#57585A"/>
<path fill-rule="evenodd" clip-rule="evenodd" d="M91.1611 153.339C91.8026 152.443 92.7681 151.81 93.9225 151.778C94.4682 151.762 95.4731 152.056 95.5007 152.75C95.5453 153.914 93.1735 153.375 92.5005 153.392C92.2434 153.398 91.1362 153.375 91.1624 153.339H91.1611Z" fill="#57585A"/>
<path d="M100.274 52.3904C97.6337 52.3904 94.3397 50.7958 91.3946 48.0787C88.0586 45.0001 85.9965 41.2734 85.8745 38.108C85.8627 37.8123 86.0935 37.5625 86.3887 37.552C86.6891 37.5283 86.9331 37.7715 86.9436 38.0673C87.0525 40.9093 89.0346 44.4441 92.1188 47.2887C94.9208 49.8744 98.1282 51.4215 100.505 51.3111C106.834 51.0324 112.993 41.9951 113.34 37.6756C113.364 37.3798 113.62 37.159 113.917 37.1839C114.213 37.2076 114.432 37.4666 114.408 37.7623C114.026 42.5143 107.517 52.0775 100.552 52.3838C100.459 52.3877 100.366 52.3904 100.272 52.3904H100.274Z" fill="#231F20"/>
<path d="M91.2057 30.9649C91.043 30.9649 90.8908 30.865 90.8292 30.7046C90.7518 30.4969 90.8567 30.2643 91.064 30.1854C92.9924 29.4585 94.5456 29.4427 95.6764 30.1368C95.8653 30.2538 95.9243 30.5009 95.8089 30.6902C95.6921 30.8808 95.4455 30.9386 95.2566 30.8229C94.3475 30.2643 93.0304 30.3024 91.3473 30.9386C91.3014 30.9557 91.2529 30.9649 91.2057 30.9649Z" fill="#231F20"/>
<path fill-rule="evenodd" clip-rule="evenodd" d="M92.4776 31.7826C92.4514 31.0924 92.9236 30.514 93.531 30.4904C94.1397 30.4667 94.6539 31.007 94.6802 31.6971C94.7064 32.3872 94.2341 32.9656 93.6268 32.9893C93.0181 33.0129 92.5038 32.4714 92.4776 31.7812V31.7826Z" fill="#231F20"/>
<path d="M101.113 36.553C100.972 36.553 100.834 36.4781 100.76 36.344C100.654 36.1494 100.725 35.9036 100.919 35.7971C101.95 35.2306 101.735 34.618 101.234 33.4941C101.059 33.1037 100.88 32.7014 100.808 32.3044C100.649 31.4303 100.742 30.6508 100.931 29.7477C100.977 29.5295 101.191 29.3901 101.407 29.4361C101.623 29.4822 101.764 29.6951 101.718 29.9133C101.543 30.7454 101.462 31.4119 101.599 32.1598C101.654 32.4609 101.806 32.8026 101.969 33.1655C102.418 34.1737 103.035 35.5539 101.307 36.5044C101.246 36.5385 101.18 36.5543 101.115 36.5543L101.113 36.553Z" fill="#231F20"/>
<path d="M110.394 25.0193C110.31 25.0193 110.226 24.993 110.154 24.9391C108.948 24.0334 106.708 23.4537 104.756 24.1017C104.542 24.1714 104.317 24.057 104.248 23.8467C104.178 23.6351 104.293 23.4077 104.502 23.338C106.487 22.6794 109.01 23.0725 110.637 24.295C110.814 24.429 110.85 24.6814 110.717 24.8589C110.638 24.9641 110.517 25.0193 110.395 25.0193H110.394Z" fill="#231F20"/>
<path d="M91.1097 24.558C90.9562 24.558 90.8106 24.4699 90.7437 24.3213C90.6519 24.1189 90.7437 23.8797 90.9444 23.789C92.251 23.1974 94.7907 22.2773 97.1284 22.7597C97.3461 22.8044 97.4852 23.0173 97.4406 23.2355C97.396 23.4538 97.1848 23.5944 96.9657 23.5484C94.7736 23.0962 92.2549 24.0795 91.275 24.5225C91.2212 24.5474 91.1648 24.558 91.1097 24.558Z" fill="#231F20"/>
<path d="M117.055 39.6422C116.977 39.6422 116.895 39.6251 116.82 39.5869C116.554 39.4568 116.445 39.1347 116.575 38.8692C116.869 38.2672 117.05 37.7742 117.101 37.0341C117.301 34.1501 115.775 32.6305 114.008 30.869C112.817 29.6807 111.584 28.4529 110.804 26.7072C110.139 25.2179 109.882 23.605 109.633 22.0446C109.431 20.7761 109.221 19.4655 108.793 18.268C108.168 16.517 106.516 13.9287 104.742 14.4335C104.46 14.5137 104.161 14.3494 104.081 14.0641C104 13.7789 104.165 13.4818 104.45 13.4003C107.13 12.6379 109.125 16.0123 109.802 17.9052C110.264 19.1974 110.482 20.5579 110.692 21.875C110.941 23.4341 111.176 24.9076 111.783 26.2695C112.481 27.8338 113.641 28.9892 114.763 30.1079C116.553 31.8917 118.404 33.736 118.17 37.1077C118.107 38.0161 117.871 38.6576 117.537 39.3411C117.444 39.5317 117.253 39.6422 117.055 39.6422Z" fill="#231F20"/>
<path d="M114.071 40.4519C113.928 40.4519 113.787 40.4361 113.648 40.4033C113.359 40.3349 113.181 40.047 113.249 39.7578C113.317 39.4686 113.604 39.2899 113.893 39.3582C114.184 39.4266 114.515 39.3254 114.876 39.0572C115.866 38.3224 116.738 36.5806 116.8 35.6276C116.82 35.3318 117.062 35.1044 117.369 35.1268C117.665 35.1465 117.889 35.4015 117.869 35.6973C117.789 36.9237 116.765 38.9901 115.513 39.9195C115.038 40.2718 114.548 40.4519 114.071 40.4519Z" fill="#231F20"/>
<path d="M114.551 36.7067C114.5 36.7067 114.449 36.6975 114.399 36.6765C114.193 36.5923 114.094 36.3584 114.178 36.152C114.602 35.1096 115.368 34.2722 116.226 33.9094C116.43 33.8226 116.666 33.9186 116.752 34.1237C116.837 34.3287 116.742 34.5654 116.538 34.6508C115.754 34.9821 115.19 35.7997 114.922 36.4543C114.859 36.6108 114.708 36.7054 114.55 36.7054L114.551 36.7067Z" fill="#231F20"/>
<path d="M103.797 11.6887C103.705 11.6887 103.612 11.6651 103.528 11.6151C103.272 11.4653 103.187 11.1366 103.335 10.8816C104.434 8.99527 104.357 6.50293 103.134 4.37472C102.986 4.11839 103.075 3.78975 103.331 3.64121C103.588 3.49267 103.915 3.58206 104.062 3.83839C105.476 6.29918 105.552 9.2056 104.26 11.4232C104.16 11.5941 103.98 11.6887 103.797 11.6887Z" fill="#231F20"/>
<path d="M111.818 66.0443C111.621 66.0443 111.432 65.9352 111.338 65.7472C111.205 65.4817 111.313 65.1596 111.578 65.0268C113.312 64.1579 114.888 63.1063 116.555 61.9929C118.431 60.7415 120.37 59.4467 122.764 58.2465C123.028 58.1138 123.35 58.2216 123.483 58.4871C123.615 58.7526 123.508 59.0747 123.243 59.2074C120.908 60.3774 118.996 61.6525 117.148 62.8868C115.452 64.0186 113.85 65.0886 112.056 65.9878C111.978 66.0259 111.897 66.0443 111.817 66.0443H111.818Z" fill="#231F20"/>
<path d="M101.276 68.3645C96.0318 68.3645 89.7206 67.2248 84.649 65.32C80.4079 63.7268 73.997 61.3186 69.1944 61.3186C68.8979 61.3186 68.6592 61.0781 68.6592 60.7823C68.6592 60.4865 68.8992 60.246 69.1944 60.246C74.1925 60.246 80.4538 62.599 85.0255 64.3157C90.6008 66.4111 97.703 67.5587 103.127 67.2406C105.216 67.117 107.096 66.7647 108.876 66.164C109.157 66.0693 109.46 66.2205 109.554 66.5018C109.649 66.7831 109.498 67.0868 109.218 67.1814C107.348 67.8137 105.376 68.1831 103.19 68.3119C102.573 68.3487 101.932 68.3658 101.276 68.3658V68.3645Z" fill="#231F20"/>
<path d="M54.1073 95.5318C53.9354 95.5318 53.7675 95.4489 53.6639 95.2965C51.031 91.4147 53.2034 87.4501 55.12 83.9534C55.6513 82.9846 56.1524 82.0697 56.542 81.1837C57.4393 79.1462 58.128 77.014 58.7944 74.9516C60.4959 69.6856 62.1042 64.7114 66.895 61.0189C68.4718 59.8043 69.9791 59.565 71.5756 59.3113C71.9862 59.2456 72.4086 59.1799 72.8467 59.0931C79.8204 57.7168 87.8579 55.4335 89.0189 53.9113C89.8992 52.7571 89.7614 49.9099 89.6696 48.0261C89.646 47.5371 89.625 47.0955 89.621 46.734C89.6184 46.4369 89.8559 46.195 90.1523 46.1924H90.1576C90.4514 46.1924 90.6902 46.429 90.6928 46.7248C90.6954 47.0744 90.7164 47.5016 90.74 47.9749C90.845 50.136 90.988 53.0976 89.8703 54.5633C87.8606 57.2015 73.6574 60.0278 73.054 60.1474C72.6027 60.2368 72.1672 60.3051 71.7435 60.3722C70.2217 60.614 68.9086 60.8217 67.5482 61.8707C63.0198 65.3608 61.4627 70.1798 59.8137 75.2828C59.1394 77.3703 58.4415 79.5287 57.522 81.6175C57.114 82.5456 56.601 83.4802 56.0593 84.47C54.2043 87.8549 52.2865 91.3555 54.5507 94.6931C54.7173 94.9389 54.653 95.2728 54.409 95.4384C54.3172 95.5015 54.2122 95.5318 54.1086 95.5318H54.1073Z" fill="#231F20"/>
<path d="M145.297 97.2341C145.141 97.2341 144.986 97.1657 144.88 97.0343C144.694 96.8042 144.731 96.4651 144.96 96.2797C149.192 92.8528 145.221 86.9624 142.322 82.6626C141.687 81.7188 141.086 80.8288 140.652 80.0743C139.412 77.9198 138.784 75.4353 138.175 73.0337C137.265 69.4345 136.404 66.0365 133.672 63.6519C130.028 60.4721 125.144 59.3653 120.42 58.2952C118.645 57.893 116.808 57.4776 115.085 56.9584C108.368 54.9366 108.153 53.7457 108.326 49.0278C108.339 48.6611 108.354 48.2694 108.364 47.8527C108.372 47.5556 108.621 47.3203 108.915 47.3308C109.21 47.3387 109.444 47.5858 109.436 47.8816C109.424 48.3022 109.41 48.6966 109.397 49.066C109.238 53.4013 109.213 54.0677 115.394 55.9291C117.083 56.4378 118.899 56.8493 120.656 57.2462C125.508 58.3452 130.527 59.4822 134.375 62.8409C137.361 65.4462 138.304 69.169 139.214 72.7695C139.805 75.1014 140.415 77.5123 141.581 79.538C141.995 80.2596 142.586 81.1351 143.211 82.0618C146.166 86.4445 150.63 93.0697 145.634 97.1145C145.535 97.1947 145.417 97.2341 145.299 97.2341H145.297Z" fill="#231F20"/>
<path d="M56.582 97.2038C55.5994 97.2038 54.8373 96.2586 54.5198 95.8656C54.3335 95.6356 54.3689 95.2964 54.5998 95.1111C54.8294 94.9244 55.1678 94.9612 55.3528 95.1913C55.9667 95.9524 56.4049 96.2324 56.767 96.0943C57.0451 95.9905 57.3533 96.1311 57.457 96.4085C57.5606 96.6859 57.4203 96.9961 57.1435 97.0999C56.9506 97.1722 56.763 97.2038 56.5833 97.2038H56.582Z" fill="#231F20"/>
<path d="M60.1798 97.9032C60.1614 97.9032 60.1417 97.9032 60.1234 97.9006L59.9738 97.8848C59.7456 97.8602 59.5523 97.8313 59.394 97.798C59.2497 97.7678 59.0083 97.7165 58.5072 97.6206C58.216 97.564 58.0258 97.284 58.0822 96.9922C58.1373 96.7017 58.4193 96.5137 58.7092 96.5663C59.2221 96.6649 59.4688 96.7175 59.6157 96.749C59.7434 96.7762 59.8995 96.7994 60.084 96.8187L60.2349 96.8345C60.5287 96.866 60.7426 97.1302 60.7111 97.4247C60.6822 97.7007 60.45 97.9058 60.1785 97.9058L60.1798 97.9032Z" fill="#231F20"/>
<path d="M57.0943 103.876C56.9014 103.876 56.7152 103.771 56.6194 103.588C56.5538 103.465 56.4895 103.433 56.2167 103.345C56.0028 103.276 55.7365 103.19 55.4689 102.989C55.1344 102.735 55.099 102.328 55.0767 102.057C55.0767 102.053 55.0767 102.049 55.0767 102.044C54.9757 102.119 54.8576 102.228 54.7737 102.304C54.3972 102.649 53.6953 103.29 52.941 102.72C52.1736 102.14 52.2615 101.355 52.3192 100.834C52.356 100.503 52.3743 100.285 52.2825 100.14C52.1579 100.114 51.8299 100.159 51.6305 100.186C51.0586 100.265 50.3449 100.363 49.8766 99.8959C49.6024 99.6238 49.4752 99.2847 49.508 98.914C49.6024 97.8479 51.0048 96.8002 52.6879 95.6408C53.0499 95.391 53.4999 95.0808 53.5904 94.9783C53.7832 94.7574 54.1217 94.7272 54.3447 94.9191C54.5677 95.1097 54.6005 95.4397 54.4129 95.6658C54.2476 95.8656 53.9157 96.0983 53.2939 96.5255C52.4294 97.121 50.6322 98.3592 50.5745 99.0099C50.5719 99.0415 50.5693 99.0743 50.6296 99.1335C50.7241 99.2268 51.237 99.1572 51.4849 99.123C52.0569 99.0441 52.7062 98.9547 53.0945 99.4358C53.4986 99.938 53.4356 100.502 53.3844 100.955C53.3267 101.471 53.3293 101.669 53.5865 101.862C53.673 101.857 53.9105 101.64 54.0522 101.51C54.3499 101.238 54.6871 100.93 55.1187 100.891C55.4545 100.862 55.6723 100.978 55.7956 101.082C56.0907 101.33 56.1222 101.697 56.1445 101.965C56.1498 102.027 56.1576 102.114 56.1681 102.167C56.2783 102.237 56.4029 102.277 56.5446 102.323C56.8608 102.425 57.295 102.563 57.5705 103.09C57.7082 103.353 57.6072 103.678 57.3448 103.815C57.2661 103.857 57.1809 103.876 57.0969 103.876H57.0943Z" fill="#231F20"/>
<path d="M142.65 99.0888C142.494 99.0888 142.34 99.0205 142.233 98.889C142.047 98.659 142.084 98.3211 142.313 98.1345L142.423 98.0451C142.582 97.9163 142.721 97.8111 142.842 97.7296C142.951 97.6547 143.132 97.5324 143.495 97.2748C143.738 97.1039 144.071 97.1631 144.242 97.4049C144.412 97.6481 144.353 97.982 144.112 98.1529C143.739 98.4145 143.556 98.5407 143.445 98.6169C143.346 98.6853 143.23 98.7729 143.098 98.8798L142.986 98.9705C142.888 99.0507 142.768 99.0888 142.65 99.0888Z" fill="#231F20"/>
<path d="M143.104 106.54C142.887 106.54 142.683 106.407 142.602 106.191C142.499 105.914 142.639 105.604 142.916 105.5L143.209 105.392C146.938 104.021 147.974 103.219 148.17 102.781C148.128 102.745 148.061 102.696 148.012 102.66C147.776 102.488 147.221 102.087 147.475 101.391C147.699 100.777 148.112 100.413 148.413 100.146C148.855 99.7553 148.89 99.7237 148.554 99.1966C148.306 98.8075 147.852 98.6037 147.328 98.3658C146.583 98.0293 145.738 97.6494 145.355 96.6241C145.251 96.3467 145.391 96.0365 145.668 95.9326C145.945 95.8288 146.255 95.9694 146.358 96.2468C146.584 96.8528 147.132 97.0986 147.767 97.3852C148.363 97.6533 149.037 97.957 149.457 98.6156C150.287 99.9183 149.585 100.539 149.121 100.949C148.876 101.166 148.643 101.371 148.507 101.689C148.546 101.722 148.599 101.76 148.638 101.789C148.884 101.966 149.455 102.38 149.188 103.114C148.734 104.356 146.096 105.471 143.576 106.398L143.29 106.504C143.228 106.528 143.164 106.538 143.102 106.538L143.104 106.54Z" fill="#231F20"/>
<path d="M59.5339 133.861C58.9777 133.861 58.386 133.704 57.7655 133.309C55.8581 132.094 52.2165 124.524 51.8505 122.976C50.4823 117.189 51.6472 111.907 52.879 106.315C53.1938 104.886 53.5192 103.41 53.796 101.935C53.851 101.644 54.1292 101.451 54.4217 101.506C54.7129 101.56 54.9044 101.841 54.8493 102.133C54.5699 103.625 54.242 105.111 53.9258 106.546C52.7203 112.015 51.5816 117.181 52.8934 122.729C53.245 124.215 56.7961 131.42 58.3414 132.404C59.6913 133.263 60.8168 132.529 62.147 131.481C64.507 129.623 66.7634 126.666 68.1814 123.571C69.614 120.446 70.0508 116.636 70.4365 113.275C71.2039 106.586 74.8154 87.7786 76.7359 83.5985C76.8592 83.329 77.1766 83.2107 77.4469 83.3355C77.7158 83.4591 77.8326 83.7785 77.7092 84.048C75.8242 88.1506 72.2625 106.762 71.5017 113.399C71.1068 116.839 70.6595 120.739 69.1561 124.02C67.6698 127.262 65.2981 130.368 62.8095 132.327C61.9831 132.977 60.8601 133.862 59.5352 133.863L59.5339 133.861Z" fill="#231F20"/>
<path d="M52.9284 114.985C52.8956 114.985 52.8628 114.983 52.8287 114.976C52.5375 114.922 52.346 114.641 52.401 114.351C52.6083 113.248 54.5459 109.112 56.7917 104.325C58.6781 100.301 60.6288 96.1404 61.4999 93.861C61.9 92.8134 62.3303 91.6513 62.7855 90.4196C65.4603 83.1897 69.1229 73.2887 72.981 70.0681C75.8303 67.6889 79.0036 66.557 83.5924 66.2849C84.6654 66.2232 86.9205 66.9488 89.1007 67.6507C90.2958 68.0359 91.4253 68.4 92.0235 68.5131C92.3147 68.5683 92.5049 68.8483 92.4511 69.1401C92.396 69.4319 92.1192 69.6225 91.8254 69.5686C91.1603 69.4437 90.0531 69.0875 88.7715 68.6734C86.8798 68.0635 84.5316 67.309 83.6553 67.3563C79.3132 67.6152 76.3248 68.6721 73.6658 70.8923C70.0281 73.9302 66.4219 83.6761 63.789 90.7929C63.3312 92.0286 62.9009 93.1933 62.4995 94.2449C61.614 96.5611 59.6555 100.74 57.7599 104.782C55.7318 109.108 53.6342 113.582 53.4531 114.55C53.4046 114.808 53.1803 114.988 52.9271 114.988L52.9284 114.985Z" fill="#231F20"/>
<path d="M98.8939 82.7295C98.7574 82.7295 98.6197 82.677 98.5148 82.5718C97.1177 81.1718 95.5317 79.9506 93.9981 78.7689C92.075 77.2874 90.085 75.7547 88.4084 73.8342C88.2327 73.6344 88.0201 73.4122 87.7932 73.1756C86.8041 72.1437 85.5723 70.8607 85.5723 69.5278C85.5723 69.2307 85.8123 68.9915 86.1075 68.9915C86.4027 68.9915 86.6427 69.232 86.6427 69.5278C86.6427 70.4282 87.7538 71.5863 88.5646 72.4316C88.8046 72.6813 89.0276 72.9153 89.2126 73.1269C90.8196 74.9686 92.7663 76.4685 94.6488 77.9184C96.2099 79.1199 97.8234 80.3634 99.2691 81.8133C99.4789 82.0223 99.4789 82.3628 99.2691 82.5718C99.1641 82.677 99.0277 82.7295 98.8899 82.7295H98.8939Z" fill="#231F20"/>
<path d="M98.1283 84.0887C97.1405 84.0887 95.8601 83.5327 94.6834 82.9753C94.5562 82.9149 94.4486 82.8636 94.366 82.8281C90.8582 81.2665 88.1204 79.6956 85.2094 77.574C84.7621 77.248 84.3357 76.8746 83.9225 76.5131C82.8416 75.568 81.821 74.6754 80.5577 74.6754C80.2612 74.6754 80.0225 74.4349 80.0225 74.1391C80.0225 73.8433 80.2625 73.6028 80.5577 73.6028C82.2224 73.6028 83.445 74.6715 84.627 75.706C85.0402 76.0675 85.4311 76.4093 85.8404 76.7077C88.6858 78.782 91.3658 80.3187 94.8015 81.8488C94.8894 81.8882 95.0048 81.9421 95.1413 82.0065C97.4238 83.0858 98.2149 83.1147 98.4772 82.9491C98.5022 82.9333 98.5783 82.8846 98.5783 82.6323C98.5783 82.3352 98.8183 82.0959 99.1135 82.0959C99.4086 82.0959 99.6487 82.3365 99.6487 82.6323C99.6487 83.329 99.3234 83.6826 99.0505 83.8561C98.7921 84.0204 98.4786 84.0901 98.1283 84.0901V84.0887Z" fill="#231F20"/>
<path d="M92.6496 84.2334C91.1948 84.2334 89.7321 84.1164 88.478 83.6458C86.4998 82.9031 84.6737 81.8173 82.9067 80.767C81.4243 79.8863 79.8895 78.9753 78.3009 78.2918C78.0293 78.1748 77.9034 77.8593 78.0201 77.5872C78.1369 77.3151 78.4517 77.1876 78.7233 77.3046C80.3762 78.0144 81.9412 78.9438 83.4537 79.8429C85.1801 80.8682 86.9642 81.9291 88.8545 82.6389C90.5455 83.2751 92.7074 83.1858 94.7984 83.1003C95.4924 83.0714 96.147 83.0451 96.7753 83.0451C97.0718 83.0451 97.3106 83.2857 97.3106 83.5814C97.3106 83.8772 97.0705 84.1177 96.7753 84.1177C96.168 84.1177 95.5239 84.144 94.8417 84.1716C94.1333 84.2006 93.3921 84.2308 92.6496 84.2308V84.2334Z" fill="#231F20"/>
<path d="M87.0262 86.2117C86.7992 86.2117 86.5657 86.1986 86.3257 86.1644C83.988 85.8292 81.0639 84.2649 78.7145 83.0082C78.0822 82.6691 77.4879 82.3523 76.9579 82.0868C76.6929 81.954 76.5854 81.6319 76.7179 81.3664C76.8503 81.1009 77.1717 80.9944 77.4367 81.1258C77.9746 81.3953 78.5767 81.7174 79.2195 82.0605C81.4955 83.2777 84.3278 84.7934 86.4778 85.101C86.9763 85.1719 87.4683 85.1246 87.9878 85.076C88.4495 85.0313 88.927 84.9853 89.436 85.0234C90.8567 85.1233 93.1603 84.8709 93.5945 84.0007C93.727 83.7352 94.0484 83.6287 94.3134 83.7601C94.5784 83.8929 94.6859 84.215 94.5534 84.4805C93.6089 86.3747 89.5331 86.1066 89.3612 86.0934C88.9428 86.0645 88.5295 86.1026 88.0901 86.1447C87.7451 86.1776 87.3935 86.2104 87.0275 86.2104L87.0262 86.2117Z" fill="#231F20"/>
<path d="M85.2072 88.6805C83.8967 88.6805 82.5954 87.8103 81.866 87.3239C79.1978 85.5427 76.847 83.5026 74.6785 81.0878C74.4804 80.8683 74.4988 80.5278 74.7179 80.3293C74.9383 80.1308 75.2767 80.1492 75.4748 80.3688C77.5829 82.7165 79.8681 84.6988 82.4603 86.43C83.1437 86.8875 84.4175 87.738 85.4486 87.5894C86.5873 87.4264 88.2284 86.6456 90.1948 85.3311C90.4414 85.1668 90.7733 85.2325 90.9373 85.4796C91.1013 85.7254 91.0344 86.0593 90.7891 86.2236C88.66 87.646 86.9152 88.4623 85.5995 88.6516C85.4696 88.67 85.3371 88.6792 85.2072 88.6792V88.6805Z" fill="#231F20"/>
<path d="M150.908 123.826C150.655 123.826 150.429 123.644 150.382 123.387C149.341 117.725 143.283 107.677 136.868 97.0395L135.166 94.2146C131.883 88.7541 126.948 81.1837 124.645 77.787C124.479 77.5412 124.543 77.2086 124.787 77.0416C125.032 76.8747 125.366 76.9391 125.531 77.1836C127.84 80.5909 132.789 88.1822 136.082 93.6612L137.782 96.4835C144.248 107.207 150.356 117.337 151.433 123.191C151.487 123.482 151.294 123.762 151.004 123.816C150.971 123.823 150.938 123.826 150.906 123.826H150.908Z" fill="#231F20"/>
<path d="M114.988 76.6446C114.942 76.6446 114.894 76.6394 114.849 76.6262C114.563 76.55 114.393 76.2555 114.469 75.969C114.561 75.6233 114.371 75.1316 113.917 74.5467C113.736 74.3127 113.778 73.9748 114.012 73.7934C114.245 73.612 114.582 73.6541 114.763 73.8881C115.449 74.7728 115.692 75.5444 115.504 76.2463C115.44 76.4856 115.224 76.6446 114.988 76.6446Z" fill="#231F20"/>
<path d="M124.943 77.8606C124.783 77.8606 124.625 77.7896 124.519 77.6529C123.073 75.7942 122.182 74.7478 121.633 74.2601C120.335 73.1112 118.806 72.2081 117.325 71.3353C116.181 70.6609 114.999 69.9629 113.905 69.1453C113.597 68.9153 113.328 68.6445 113.067 68.3829C112.983 68.2987 112.9 68.2159 112.816 68.1344C112.687 68.0109 112.521 67.8097 112.308 67.556C110.994 65.9852 110.493 65.7026 110.314 65.7459C110.314 65.7459 110.17 65.8537 110.087 66.4255C109.771 68.605 111.318 70.3678 112.93 71.9847C113.139 72.1937 113.139 72.5341 112.93 72.7432C112.722 72.9522 112.382 72.9535 112.173 72.7432C110.448 71.0119 108.64 68.9415 109.029 66.2704C109.156 65.3884 109.491 64.8639 110.023 64.7127C110.998 64.4367 112.049 65.5737 113.131 66.8672C113.307 67.0789 113.475 67.2774 113.562 67.3628C113.65 67.4482 113.738 67.5363 113.826 67.6244C114.071 67.8689 114.302 68.1016 114.548 68.2843C115.596 69.0664 116.753 69.75 117.872 70.4099C119.396 71.309 120.972 72.2384 122.345 73.4556C122.955 73.9959 123.859 75.0528 125.368 76.993C125.549 77.227 125.508 77.5635 125.274 77.7462C125.176 77.8225 125.061 77.8593 124.946 77.8593L124.943 77.8606Z" fill="#231F20"/>
<path d="M101.786 88.4715C100.938 88.4715 100.223 88.2769 99.8311 87.7261C99.6658 87.4948 99.6054 87.224 99.654 86.9414C99.7681 86.2815 100.461 85.7189 101.123 85.2561C102.872 84.0297 104.82 83.12 107.297 82.3642C108.215 82.0842 109.132 81.6254 110.021 81.001C110.264 80.8301 110.597 80.8893 110.768 81.1325C110.938 81.3757 110.879 81.7096 110.637 81.8804C109.654 82.5706 108.635 83.0793 107.609 83.3921C105.245 84.1125 103.393 84.9761 101.78 86.1066C100.776 86.8086 100.714 87.0794 100.711 87.128C100.856 87.3147 101.529 87.7222 104.512 86.944C105.116 86.7862 105.751 86.6771 106.364 86.5733C107.444 86.3893 108.56 86.1987 109.415 85.7701C110.01 85.473 110.652 85.0642 111.334 84.6304C112.993 83.5775 114.874 82.3839 116.756 82.3839C117.053 82.3839 117.291 82.6245 117.291 82.9202C117.291 83.216 117.051 83.4566 116.756 83.4566C115.185 83.4566 113.444 84.5621 111.908 85.5361C111.202 85.9844 110.536 86.4064 109.894 86.7284C108.897 87.2279 107.701 87.4317 106.544 87.6289C105.925 87.734 105.341 87.8339 104.806 87.9746C103.811 88.2335 102.72 88.4702 101.787 88.4702L101.786 88.4715Z" fill="#231F20"/>
<path d="M112.481 80.1019C112.348 80.1019 112.214 80.0532 112.111 79.9546C111.897 79.7496 111.888 79.4104 112.092 79.1961C113.344 77.8777 114.131 76.6092 114.488 75.9703C114.632 75.7113 114.959 75.6193 115.217 75.7652C115.475 75.9098 115.567 76.2371 115.422 76.4961C115.04 77.1783 114.2 78.5336 112.868 79.9362C112.763 80.0466 112.621 80.1032 112.479 80.1032L112.481 80.1019Z" fill="#231F20"/>
<path d="M97.5285 90.7522C97.198 90.7522 96.8687 90.7351 96.5447 90.6943C95.4388 90.5563 95.1738 90.0502 95.145 89.6493C95.0636 88.4925 97.0838 87.4317 98.132 87.1464C98.62 87.0137 98.986 86.9598 99.2798 86.9164C99.5225 86.8809 99.7141 86.852 99.9082 86.7915C100.189 86.7034 100.491 86.8612 100.579 87.1438C100.666 87.4264 100.509 87.7274 100.227 87.8155C99.9528 87.901 99.7023 87.9391 99.436 87.9772C99.1565 88.018 98.8391 88.0653 98.4127 88.181C97.3724 88.4636 96.4122 89.1892 96.239 89.5218C96.3046 89.5533 96.4371 89.5967 96.6772 89.6282C97.7345 89.7623 98.9112 89.6006 100.051 89.4455C100.603 89.3706 101.174 89.293 101.72 89.251C102.705 89.176 103.715 89.1852 104.691 89.1958C106.04 89.2102 107.432 89.2247 108.733 89.0065C110.173 88.7659 111.419 87.9943 112.739 87.1767C113.768 86.5404 114.83 85.8818 116.002 85.4901C116.285 85.3955 116.585 85.548 116.679 85.8293C116.772 86.1106 116.621 86.4142 116.34 86.5076C115.285 86.8599 114.323 87.458 113.302 88.0889C111.953 88.925 110.558 89.7899 108.909 90.0647C107.514 90.2973 106.071 90.2829 104.679 90.2684C103.724 90.2579 102.738 90.2487 101.801 90.3197C101.286 90.3591 100.756 90.4314 100.194 90.5077C99.3153 90.6273 98.414 90.7495 97.5285 90.7495V90.7522Z" fill="#231F20"/>
<path d="M107.528 92.1113C106.362 92.1113 105.171 92.0049 104.005 91.8997C102.842 91.7959 101.746 91.6973 100.682 91.6973H100.257C98.1133 91.6973 95.9055 91.7025 93.8236 91.1807C92.7899 90.9217 92.8082 90.2618 92.8384 90.0646C92.9827 89.1221 94.7051 88.3781 95.9488 88.457C96.2439 88.4754 96.4682 88.7291 96.4512 89.0262C96.4328 89.3219 96.1757 89.5467 95.8845 89.5283C95.1302 89.4797 94.3208 89.8582 94.0112 90.1185C94.0335 90.1251 94.0571 90.1317 94.0847 90.1395C96.0367 90.6286 98.1776 90.622 100.255 90.6233H100.682C101.794 90.6233 102.967 90.7285 104.1 90.8297C105.881 90.9887 107.722 91.1557 109.369 90.9191C110.708 90.7271 112.074 90.012 113.395 89.3206C114.341 88.825 115.318 88.3137 116.294 87.9877C116.577 87.893 116.879 88.0455 116.971 88.3268C117.064 88.6081 116.913 88.9118 116.632 89.0051C115.738 89.3035 114.84 89.7741 113.891 90.271C112.49 91.0045 111.041 91.763 109.52 91.9812C108.87 92.0745 108.204 92.11 107.528 92.11V92.1113Z" fill="#231F20"/>
<path d="M111.16 91.6434C111.026 91.6434 110.898 91.6355 110.773 91.621C110.479 91.5855 110.269 91.3187 110.305 91.0242C110.34 90.7298 110.602 90.5182 110.9 90.555C112.206 90.718 114.508 89.644 116.361 88.7882C118.421 87.8365 119.625 87.3081 120.401 87.4961C120.449 87.5092 120.494 87.521 120.537 87.5342C120.819 87.6236 120.975 87.9259 120.886 88.2085C120.797 88.4912 120.496 88.6489 120.213 88.5582L120.146 88.5398C119.693 88.4386 118.096 89.1708 116.81 89.7649C114.892 90.6509 112.738 91.6447 111.161 91.6447L111.16 91.6434Z" fill="#231F20"/>
<path d="M150.404 133.278C150.311 133.278 150.218 133.255 150.133 133.203C149.878 133.053 149.794 132.724 149.944 132.469C150.775 131.058 151.414 129.4 151.843 127.539C152.773 123.492 151.229 115.643 147.255 104.209C147.157 103.929 147.304 103.623 147.584 103.525C147.865 103.428 148.169 103.575 148.266 103.855C152.309 115.482 153.864 123.532 152.888 127.78C152.435 129.749 151.754 131.51 150.866 133.014C150.766 133.184 150.588 133.278 150.404 133.278Z" fill="#231F20"/>
<path d="M143.778 138.18C143.467 138.18 143.185 138.139 142.94 138.062C142.212 137.828 141.08 136.9 140.47 136.367C140.247 136.173 140.223 135.834 140.419 135.61C140.613 135.387 140.953 135.364 141.174 135.559C142.255 136.503 142.965 136.943 143.267 137.04C144.148 137.324 146.287 136.78 148.286 134.685C148.49 134.471 148.829 134.463 149.043 134.668C149.257 134.872 149.264 135.212 149.06 135.426C147.248 137.327 145.208 138.183 143.777 138.183L143.778 138.18Z" fill="#231F20"/>
<path d="M138.893 134.635C138.751 134.635 138.608 134.578 138.503 134.467C137.506 133.408 135.701 131.329 134.808 129.287C132.377 123.732 130.248 116.234 128.188 108.982C125.444 99.315 122.852 90.1843 120.254 88.4662C120.008 88.3032 119.939 87.9693 120.102 87.7222C120.265 87.475 120.597 87.408 120.845 87.5697C123.775 89.506 126.298 98.3961 129.219 108.688C131.268 115.906 133.387 123.367 135.789 128.856C136.403 130.26 137.644 131.99 139.282 133.729C139.486 133.945 139.475 134.284 139.26 134.488C139.156 134.585 139.024 134.634 138.893 134.634V134.635Z" fill="#231F20"/>
<path d="M139.639 100.85C139.608 100.85 139.579 100.848 139.55 100.842C139.394 100.813 139.217 100.691 139.14 100.552C138.994 100.294 139.086 99.9669 139.343 99.821C139.446 99.7618 139.562 99.7434 139.67 99.7553C139.929 99.6265 140.52 99.2019 140.757 99.0021C140.984 98.8114 141.322 98.8417 141.511 99.0678C141.702 99.2952 141.673 99.633 141.446 99.8236C141.068 100.142 140.167 100.85 139.639 100.85Z" fill="#231F20"/>
<path d="M78.3363 128.603C78.0437 128.603 77.805 128.367 77.8011 128.073C77.7171 122.025 76.0327 115.937 74.4034 110.049C73.7173 107.572 73.0089 105.011 72.4383 102.509C72.3727 102.22 72.5524 101.932 72.841 101.866C73.1296 101.799 73.4169 101.981 73.4825 102.27C74.0479 104.748 74.7537 107.297 75.4358 109.763C77.0835 115.716 78.7862 121.872 78.8715 128.058C78.8754 128.354 78.6393 128.599 78.3428 128.603H78.335H78.3363Z" fill="#231F20"/>
<path d="M71.784 140.771C71.6869 140.771 71.5885 140.745 71.4993 140.688C71.2487 140.531 71.1726 140.199 71.3301 139.948C72.2365 138.501 75.9346 125.945 75.8139 116.122C75.8099 115.825 76.0474 115.582 76.3425 115.578C76.6272 115.562 76.8817 115.812 76.8843 116.108C77.0011 125.669 73.3726 138.702 72.2365 140.517C72.1342 140.68 71.9597 140.768 71.7826 140.768L71.784 140.771Z" fill="#231F20"/>
<path d="M128.238 131.062C128.039 131.062 127.847 130.95 127.755 130.757C125.047 125.101 127.639 116.668 129.031 112.138C129.118 111.854 129.418 111.694 129.7 111.783C129.983 111.871 130.142 112.171 130.054 112.454C128.704 116.844 126.192 125.015 128.72 130.292C128.848 130.559 128.735 130.879 128.469 131.008C128.394 131.045 128.316 131.061 128.238 131.061V131.062Z" fill="#231F20"/>
<path d="M72.8638 39.4935C72.7943 39.4935 72.7235 39.4791 72.6553 39.4501C71.3264 38.8875 70.2389 36.9539 69.9647 35.7747C69.2078 32.52 71.1795 30.5876 73.0842 28.7184C74.1337 27.6904 75.1241 26.719 75.6725 25.5438C76.3467 24.0991 76.4241 22.5243 76.5068 20.8562C76.5776 19.4115 76.6511 17.9182 77.1443 16.4972C79.238 10.4623 84.7136 2.99707 91.7869 0.867538C94.9156 -0.0736619 99.4506 -0.954393 102.692 2.26356C102.902 2.47257 102.903 2.81172 102.696 3.02204C102.488 3.23237 102.149 3.23368 101.939 3.02599C99.1345 0.241824 95.2056 0.959554 92.0952 1.8955C85.3813 3.91723 80.1628 11.0643 78.1557 16.8495C77.7137 18.1259 77.6468 19.4773 77.5759 20.9101C77.492 22.6071 77.4054 24.3633 76.6419 25.9999C76.0109 27.3513 74.9024 28.4371 73.832 29.4874C72.0597 31.2239 70.3858 32.8657 71.0063 35.5316C71.2227 36.4609 72.1345 38.066 73.0711 38.4629C73.344 38.5786 73.4712 38.8928 73.3558 39.1662C73.2692 39.3713 73.0711 39.4948 72.8625 39.4948L72.8638 39.4935Z" fill="#231F20"/>
<path d="M71.4949 57.2528C71.4503 57.2528 71.4057 57.2476 71.3611 57.2357C68.7467 56.5588 67.915 54.9038 67.6762 53.6353C67.1659 50.9208 68.9264 47.5004 70.8259 46.1267C71.1171 45.9164 71.4569 45.7297 71.7849 45.5483C72.6113 45.0935 73.3918 44.6636 73.5401 43.9012C73.8457 42.3317 73.3669 41.0605 72.8592 39.7144C72.2073 37.9845 71.5343 36.1955 72.7294 33.9174C72.8671 33.6545 73.1898 33.5533 73.4522 33.6926C73.7146 33.8306 73.8143 34.1553 73.6778 34.4169C72.7058 36.2691 73.241 37.6901 73.8615 39.3359C74.3744 40.6964 74.9542 42.237 74.5909 44.1063C74.3469 45.3616 73.2108 45.9874 72.2991 46.4882C71.9843 46.6617 71.6878 46.8247 71.4503 46.9956C69.8158 48.1774 68.3046 51.1824 68.727 53.4341C68.9907 54.8354 69.9667 55.7635 71.6274 56.1946C71.9134 56.2682 72.0866 56.5614 72.0118 56.848C71.9488 57.0898 71.7324 57.2502 71.4936 57.2502L71.4949 57.2528Z" fill="#231F20"/>
<path d="M73.8901 59.5362C73.0649 59.5362 72.472 58.7553 72.1112 58.2795L71.9984 58.1309C70.6551 56.3945 70.4701 54.1611 71.5157 52.305C71.6613 52.0473 71.9879 51.9553 72.245 52.1012C72.5022 52.2471 72.594 52.5744 72.4484 52.8321C71.618 54.3057 71.7702 56.0829 72.8445 57.4724L72.9639 57.6275C73.6028 58.4688 73.8258 58.5923 74.2246 58.3229C74.4699 58.1572 74.8031 58.223 74.9684 58.4688C75.1337 58.7146 75.0681 59.0485 74.8228 59.2141C74.4843 59.4415 74.1734 59.5349 73.8901 59.5349V59.5362Z" fill="#231F20"/>
<path d="M125.692 33.218C125.612 33.218 125.529 33.1996 125.453 33.1615C123.08 31.9731 121.552 29.189 121.738 26.3917L121.775 25.8461C121.945 23.3301 122.105 20.9535 121.826 18.4322C121.275 13.462 116.912 6.40038 111.899 4.39178C108.612 3.07332 106.143 2.80778 104.557 3.60176C104.292 3.73452 103.97 3.62673 103.838 3.3612C103.705 3.09566 103.813 2.7736 104.078 2.64084C105.949 1.70358 108.714 1.95729 112.297 3.39406C117.81 5.60378 122.305 13.0295 122.891 18.3126C123.181 20.9298 123.017 23.3525 122.844 25.9171L122.807 26.4613C122.65 28.8393 123.934 31.1989 125.933 32.1992C126.198 32.332 126.306 32.6541 126.173 32.9196C126.08 33.1076 125.89 33.2167 125.693 33.2167L125.692 33.218Z" fill="#231F20"/>
<path d="M127.644 51.2914C127.003 51.2914 126.43 51.0851 125.997 50.6828C125.29 50.0269 125.052 48.9766 125.345 47.8027C125.627 46.6748 126.427 45.7297 127.202 44.8148C128.232 43.6002 129.204 42.4526 128.85 41.0368C128.424 39.3253 127.285 36.9552 125.932 35.7367C125.519 35.3633 125.056 35.0321 124.609 34.7113C123.553 33.9542 122.461 33.1707 121.866 31.7786C121.749 31.5065 121.875 31.191 122.148 31.074C122.417 30.9571 122.734 31.0832 122.851 31.3567C123.329 32.4727 124.253 33.1365 125.233 33.8385C125.706 34.1763 126.192 34.526 126.65 34.9388C128.232 36.365 129.438 38.9638 129.89 40.7766C130.377 42.7273 129.124 44.2048 128.02 45.5102C127.293 46.3685 126.605 47.1796 126.385 48.063C126.194 48.8346 126.321 49.5195 126.726 49.8954C127.112 50.253 127.718 50.3187 128.433 50.0794C128.715 49.9848 129.017 50.1386 129.11 50.4186C129.203 50.6999 129.052 51.0036 128.771 51.0982C128.382 51.2283 128.003 51.2928 127.646 51.2928L127.644 51.2914Z" fill="#231F20"/>
<path d="M127.068 59.7517C126.885 59.7517 126.705 59.657 126.605 59.4861C126.456 59.2298 126.542 58.9012 126.797 58.7513C127.609 58.2755 128.054 57.7641 128.159 57.1884C128.37 56.0289 127.175 54.5514 126.121 53.2487C125.356 52.3049 124.636 51.4123 124.325 50.5579C124.224 50.2792 124.367 49.9716 124.645 49.8704C124.922 49.7679 125.231 49.9125 125.332 50.1911C125.581 50.8773 126.247 51.7015 126.953 52.5731C128.211 54.1281 129.512 55.7358 129.213 57.3803C129.052 58.2702 128.421 59.0431 127.339 59.6781C127.253 59.728 127.16 59.7517 127.068 59.7517Z" fill="#231F20"/>
<path d="M85.1633 28.6132C84.6792 28.6132 84.1912 28.5554 83.6638 28.441C83.3752 28.3779 83.1916 28.0927 83.2546 27.8022C83.3175 27.513 83.6022 27.3289 83.8921 27.392C84.8694 27.605 85.6578 27.5892 86.6128 27.3394C89.6707 26.5376 92.1133 22.8096 94.27 19.522C96.3059 16.4144 98.2304 13.4804 100.568 13.0269C100.857 12.9704 101.139 13.161 101.196 13.4515C101.253 13.742 101.063 14.0246 100.773 14.0811C98.8784 14.4479 97.076 17.1992 95.1673 20.1122C92.9057 23.5628 90.3424 27.4735 86.8857 28.3792C86.2849 28.537 85.7287 28.6145 85.1659 28.6145L85.1633 28.6132Z" fill="#231F20"/>
<path d="M86.1289 39.3556C84.8315 39.3556 83.5551 38.5024 82.5371 36.9552C81.0455 34.689 80.4513 31.5749 81.182 29.866C81.6044 28.8775 82.2983 28.7105 82.6748 28.7C83.8266 28.6659 85.0059 29.9133 85.4323 30.7678C85.5648 31.0333 85.4572 31.3554 85.1922 31.4881C84.9272 31.6209 84.6058 31.5131 84.4733 31.2476C84.1336 30.5667 83.2769 29.7451 82.7063 29.7727C82.6184 29.7753 82.3836 29.7819 82.1658 30.2893C81.5821 31.6538 82.1606 34.4366 83.4304 36.365C83.9014 37.0814 84.8787 38.2829 86.1276 38.2829C86.4227 38.2829 86.6628 38.5235 86.6628 38.8192C86.6628 39.115 86.4227 39.3556 86.1276 39.3556H86.1289Z" fill="#231F20"/>
<path d="M84.9535 35.3765C84.7856 35.3765 84.6282 35.27 84.5731 35.1017C84.3107 34.3143 83.7362 33.6321 82.814 33.0156C82.629 32.892 82.5791 32.6423 82.7025 32.4569C82.8258 32.2716 83.075 32.2216 83.26 32.3452C84.3357 33.0642 85.0152 33.8832 85.3353 34.8467C85.4048 35.0583 85.292 35.2858 85.0808 35.3554C85.0388 35.3699 84.9955 35.3765 84.9535 35.3765Z" fill="#231F20"/>
<path d="M86.1416 32.2519C85.9173 32.2519 85.7087 32.1099 85.6339 31.8851C85.1511 30.4339 85.6667 28.8959 87.1241 27.4354C87.3327 27.2264 87.6725 27.2264 87.8811 27.4354C88.0896 27.6445 88.0896 27.9849 87.8811 28.1939C86.7135 29.3625 86.299 30.4904 86.6493 31.5446C86.7424 31.826 86.5915 32.1296 86.3108 32.2243C86.2544 32.2427 86.198 32.2519 86.1416 32.2519Z" fill="#231F20"/>
<path d="M194.409 141.122H155.064C154.767 141.122 154.528 140.881 154.528 140.586C154.528 140.29 154.768 140.049 155.064 140.049H194.409C194.706 140.049 194.944 140.29 194.944 140.586C194.944 140.881 194.704 141.122 194.409 141.122Z" fill="#231F20"/>
<path d="M152.489 141.122H143.825C143.529 141.122 143.29 140.881 143.29 140.586C143.29 140.29 143.53 140.049 143.825 140.049H152.489C152.785 140.049 153.024 140.29 153.024 140.586C153.024 140.881 152.784 141.122 152.489 141.122Z" fill="#231F20"/>
<path d="M99.3898 141.122H15.5352C15.2401 141.122 15 140.881 15 140.586C15 140.29 15.2401 140.049 15.5352 140.049H99.3898C99.6863 140.049 99.925 140.29 99.925 140.586C99.925 140.881 99.685 141.122 99.3898 141.122Z" fill="#231F20"/>
<path d="M125.079 158.691C117.402 158.691 111.112 156.723 107.823 153.293C105.945 151.333 105.047 148.962 105.157 146.243C105.371 140.889 108.719 137.063 114.84 135.176C115.123 135.088 115.423 135.249 115.509 135.531C115.596 135.815 115.437 136.115 115.155 136.202C109.429 137.967 106.425 141.359 106.228 146.285C106.131 148.702 106.928 150.809 108.597 152.548C111.685 155.768 117.692 157.617 125.08 157.617C139.178 157.617 144.306 151.59 144.413 146.427C144.485 142.979 142.849 138.388 134.649 136.095C134.364 136.015 134.197 135.719 134.276 135.434C134.356 135.148 134.653 134.981 134.936 135.061C141.849 136.994 145.596 141.038 145.483 146.45C145.328 153.886 137.32 158.691 125.079 158.691Z" fill="#231F20"/>
<path d="M125.006 133.774C115.12 133.774 115.12 133.096 115.12 132.599C115.12 131.437 120.723 130.301 124.905 130.301C128.757 130.301 134.891 131.353 134.891 132.599C134.891 133.094 134.891 133.774 125.006 133.774ZM117.306 132.424C118.771 132.57 121.383 132.701 125.006 132.701C128.629 132.701 131.176 132.574 132.651 132.429C131.065 131.962 128.211 131.375 124.905 131.375C121.599 131.375 118.831 131.959 117.306 132.424Z" fill="#231F20"/>
<path d="M125.006 136.548C115.12 136.548 115.12 135.869 115.12 135.374C115.12 135.102 115.068 133.503 115.04 132.696C115.03 132.4 115.262 132.152 115.557 132.141C115.856 132.123 116.1 132.363 116.111 132.659C116.113 132.739 116.167 134.304 116.186 135.041C117.049 135.234 120.1 135.474 125.006 135.474C129.913 135.474 132.964 135.234 133.827 135.041C133.844 134.292 133.886 132.559 133.886 132.559L134.958 132.586C134.958 132.586 134.892 135.225 134.892 135.374C134.892 135.869 134.892 136.548 125.008 136.548H125.006Z" fill="#231F20"/>
<path d="M124.971 131.401C123.432 131.401 122.181 130.171 122.181 128.658C122.181 127.145 123.432 125.916 124.971 125.916C126.51 125.916 127.761 127.146 127.761 128.658C127.761 130.169 126.51 131.401 124.971 131.401ZM124.971 126.99C124.024 126.99 123.252 127.738 123.252 128.658C123.252 129.578 124.024 130.327 124.971 130.327C125.918 130.327 126.689 129.578 126.689 128.658C126.689 127.738 125.918 126.99 124.971 126.99Z" fill="#231F20"/>
<path d="M105.968 150.944C103.961 150.944 102.163 148.802 101.442 147.361C100.738 145.948 100.38 144.374 100.034 142.853C99.6531 141.183 99.295 139.604 98.5171 138.241C97.9504 137.246 97.3968 136.692 96.632 135.924C96.6005 135.898 96.4969 135.826 96.3722 135.736C95.5878 135.173 95.2296 134.916 95.3398 134.468C95.5235 133.738 96.4903 133.888 97.5148 134.046C97.6946 134.074 97.8415 134.1 97.9176 134.101C98.1327 134.101 98.4961 133.961 98.8175 133.837C99.3606 133.629 99.922 133.412 100.427 133.54C100.914 133.662 101.134 134.117 101.414 134.694C101.983 135.869 103.044 138.055 107.254 139.952C107.524 140.074 107.643 140.391 107.523 140.662C107.401 140.931 107.085 141.052 106.814 140.931C102.249 138.876 101.079 136.461 100.449 135.163C100.341 134.94 100.208 134.666 100.131 134.576C99.9299 134.552 99.5127 134.719 99.2005 134.84C98.7716 135.004 98.3295 135.175 97.9136 135.175C97.7956 135.175 97.6395 135.151 97.3509 135.107C97.3417 135.105 97.3312 135.104 97.3207 135.102C97.3482 135.124 97.3705 135.144 97.3889 135.163C98.1511 135.927 98.8083 136.586 99.4472 137.706C100.302 139.207 100.697 140.938 101.078 142.611C101.41 144.072 101.753 145.581 102.4 146.878C103.019 148.119 104.536 149.869 105.967 149.869C106.263 149.869 106.502 150.109 106.502 150.405C106.502 150.701 106.262 150.942 105.967 150.942L105.968 150.944Z" fill="#231F20"/>
<path d="M145.132 153.586C144.79 153.586 144.457 153.439 144.199 153.162C143.755 152.682 143.642 151.964 143.923 151.416C144.544 150.2 145.421 149.397 146.679 148.887C147.175 148.686 147.697 148.577 148.203 148.47C148.911 148.322 149.581 148.182 150.122 147.812C152.309 146.314 153.007 143.654 152.255 139.68C151.816 137.352 149.373 134.946 146.696 134.204C145.088 133.757 142.742 133.704 140.707 135.993C140.633 136.078 140.622 136.089 140.756 136.382C140.891 136.679 141.249 137.466 140.277 138.009C140.019 138.154 139.692 138.061 139.548 137.803C139.403 137.544 139.497 137.217 139.754 137.072C139.802 137.044 139.835 137.022 139.855 137.006C139.838 136.955 139.803 136.881 139.779 136.828C139.632 136.503 139.356 135.898 139.904 135.279C141.778 133.172 144.289 132.423 146.979 133.169C150.069 134.026 152.788 136.741 153.305 139.482C154.133 143.858 153.264 146.959 150.724 148.698C150.007 149.189 149.2 149.359 148.42 149.522C147.939 149.623 147.486 149.718 147.079 149.882C146.06 150.295 145.38 150.919 144.875 151.906C144.803 152.048 144.853 152.289 144.985 152.432C145.09 152.547 145.161 152.516 145.203 152.497C145.342 152.437 145.371 152.397 145.427 152.009C145.48 151.636 145.56 151.07 146.138 150.694C147.117 150.058 148.088 149.811 149.026 149.572C150.33 149.239 151.455 148.953 152.354 147.632C154.076 145.1 154.506 141.936 153.534 138.95C152.589 136.043 150.466 133.812 147.711 132.83C145.844 132.162 142.41 132.413 140.609 133.748C139.773 134.367 139.371 135.158 139.413 136.099C139.426 136.395 139.197 136.646 138.901 136.659C138.61 136.678 138.355 136.444 138.342 136.147C138.283 134.845 138.847 133.717 139.971 132.884C142.095 131.31 145.943 131.059 148.071 131.818C151.14 132.913 153.502 135.392 154.552 138.618C155.627 141.921 155.148 145.427 153.238 148.236C152.111 149.893 150.677 150.258 149.289 150.612C148.435 150.829 147.552 151.055 146.721 151.595C146.566 151.696 146.534 151.822 146.487 152.16C146.43 152.566 146.342 153.182 145.619 153.486C145.46 153.554 145.296 153.586 145.133 153.586H145.132Z" fill="#231F20"/>
<path d="M125.213 160C122.11 160 119.625 159.703 118.42 159.527C115.12 159.043 115.12 158.646 115.12 158.263C115.12 158.191 115.116 158.035 115.111 157.83C115.103 157.534 115.337 157.287 115.633 157.28C115.934 157.275 116.174 157.508 116.181 157.803C116.182 157.864 116.184 157.92 116.185 157.972C117.064 158.279 120.665 158.925 125.213 158.925C129.761 158.925 132.979 158.308 133.825 157.983L133.839 157.38C133.846 157.083 134.095 156.838 134.388 156.856C134.683 156.863 134.918 157.109 134.911 157.405L134.89 158.275C134.89 159.87 125.31 159.999 125.213 159.999V160ZM133.819 158.24C133.819 158.248 133.819 158.256 133.819 158.263V158.24Z" fill="#231F20"/>
<path d="M100.152 72.8154C98.3766 72.8154 89.5205 72.7116 89.5205 70.6544C89.5205 68.5971 98.3766 68.4933 100.152 68.4933C101.926 68.4933 110.783 68.5971 110.783 70.6544C110.783 72.7116 101.926 72.8154 100.152 72.8154ZM90.7208 70.6544C91.567 71.1368 95.0564 71.7415 100.152 71.7415C105.247 71.7415 108.736 71.1368 109.582 70.6544C108.736 70.1719 105.247 69.5673 100.152 69.5673C95.0564 69.5673 91.567 70.1719 90.7208 70.6544Z" fill="#231F20"/>
<path d="M89.766 74.406C89.4722 74.406 89.2321 74.1681 89.2308 73.8723C89.2203 71.894 89.4551 70.5308 89.4656 70.4743C89.5168 70.1824 89.7975 69.9879 90.0861 70.0378C90.3773 70.0891 90.5728 70.3665 90.5217 70.6596C90.519 70.6728 90.2934 71.9925 90.3039 73.8671C90.3052 74.1628 90.0664 74.4047 89.7713 74.406H89.7687H89.766Z" fill="#231F20"/>
<path d="M99.804 87.2805H99.7909C96.4339 87.2003 94.0464 86.384 93.851 85.2745C93.83 85.2416 93.8011 85.2022 93.767 85.1536C93.5951 84.913 93.6502 84.5778 93.8903 84.4056C94.1304 84.2321 94.4649 84.2873 94.6381 84.5292C94.7928 84.7447 94.8912 84.8946 94.907 85.0734C95.0985 85.3665 96.5389 86.1276 99.8171 86.2065C100.114 86.2144 100.347 86.4602 100.339 86.756C100.333 87.0478 100.094 87.2805 99.804 87.2805Z" fill="#231F20"/>
<path d="M108.194 82.8387C108.09 82.8387 107.987 82.8085 107.895 82.7467C107.65 82.5811 107.585 82.2472 107.752 82.0014C108.807 80.4423 109.448 79.1331 109.661 78.1104C110.432 74.3995 109.853 70.7188 109.847 70.682C109.8 70.3888 109.998 70.1141 110.29 70.0668C110.587 70.0195 110.857 70.218 110.905 70.5098C110.932 70.6675 111.523 74.4179 110.71 78.3286C110.47 79.4893 109.772 80.9274 108.64 82.6034C108.536 82.7572 108.367 82.8387 108.195 82.8387H108.194Z" fill="#231F20"/>
<path d="M109.514 81.1443C109.312 81.1443 109.118 81.0286 109.027 80.8327C108.903 80.5633 109.02 80.2451 109.289 80.1203C110.002 79.7903 110.717 79.6102 111.411 79.4367C112.603 79.1383 113.633 78.8793 114.474 77.9447C114.939 77.4281 115.264 76.2135 114.986 75.296C114.834 74.7938 114.525 74.4809 114.071 74.3653C113.229 74.1523 113.027 74.4428 112.585 75.0764C112.433 75.2946 112.26 75.5418 112.043 75.7758C111.94 75.8875 111.722 76.0912 111.423 76.1964C111.056 76.3265 110.692 76.2595 110.426 76.0111C110.209 75.8099 110.195 75.4695 110.396 75.2526C110.579 75.0554 110.876 75.0252 111.091 75.1737C111.133 75.1527 111.197 75.1093 111.256 75.0462C111.424 74.8648 111.568 74.6597 111.708 74.4599C112.184 73.779 112.778 72.9338 114.332 73.3242C115.152 73.5305 115.748 74.1208 116.01 74.9831C116.374 76.1819 116.048 77.7988 115.269 78.6638C114.209 79.8416 112.918 80.165 111.671 80.4791C111.027 80.6408 110.359 80.8078 109.738 81.0956C109.666 81.1298 109.589 81.1456 109.514 81.1456V81.1443Z" fill="#231F20"/>
<path d="M109.559 82.3747C109.399 82.3747 109.24 82.3024 109.134 82.1657C108.953 81.9304 108.997 81.5939 109.231 81.4124C109.855 80.93 110.381 80.6264 111.376 80.4068C111.603 80.3569 111.851 80.3096 112.108 80.2609C112.984 80.094 113.978 79.9047 114.577 79.509C116.018 78.5547 116.784 76.2358 116.215 74.5467C115.603 72.7353 113.95 72.9469 113.021 73.2335C112.42 73.4188 111.542 73.9946 111.483 74.2417C111.483 74.5375 111.243 74.7715 110.948 74.7715C110.653 74.7715 110.413 74.5243 110.413 74.2273C110.413 73.1493 112.249 72.3475 112.705 72.2068C114.855 71.5443 116.59 72.308 117.229 74.2023C117.952 76.3463 117.007 79.1856 115.167 80.4042C114.389 80.9195 113.283 81.1285 112.307 81.3152C112.061 81.3625 111.823 81.4072 111.605 81.4545C110.725 81.6491 110.337 81.912 109.884 82.2616C109.786 82.3366 109.672 82.3734 109.558 82.3734L109.559 82.3747Z" fill="#231F20"/>
<path d="M95.7694 89.3088C95.7615 89.3088 95.7524 89.3088 95.7445 89.3088C92.4649 89.1602 89.575 88.8684 87.3881 88.4662C87.0969 88.4123 86.9054 88.1323 86.9579 87.8418C87.0117 87.55 87.2898 87.3554 87.581 87.4106C89.7206 87.8037 92.5607 88.0889 95.793 88.2361C96.0882 88.2493 96.3178 88.5004 96.3033 88.7961C96.2902 89.084 96.0528 89.3088 95.7681 89.3088H95.7694Z" fill="#231F20"/>
<path d="M80.9145 154.3C74.56 154.3 68.5833 154.157 64.0851 153.895C56.6221 153.461 56.6221 152.962 56.6221 152.384C56.6221 151.805 56.6221 151.321 63.7833 150.89C64.0772 150.877 64.333 151.098 64.35 151.394C64.3684 151.689 64.1428 151.943 63.8476 151.962C61.4745 152.104 59.9869 152.256 59.0581 152.385C62.1855 152.804 69.8479 153.226 80.9119 153.226C91.9758 153.226 99.6408 152.804 102.768 152.385C101.649 152.23 99.7195 152.042 96.4019 151.875C96.1068 151.859 95.8785 151.608 95.8942 151.312C95.9087 151.016 96.175 150.792 96.4557 150.802C105.204 151.241 105.204 151.796 105.204 152.384C105.204 152.971 105.204 153.461 97.7413 153.895C93.2443 154.157 87.2677 154.3 80.9132 154.3H80.9145Z" fill="#231F20"/>
<path d="M80.9138 158.635C76.838 158.635 73.0048 158.543 70.1188 158.375C65.8199 158.125 65.244 157.831 65.1666 157.416C64.4701 156.844 60.5201 154.726 56.91 152.909C56.645 152.777 56.5387 152.453 56.6712 152.189C56.8037 151.925 57.1251 151.816 57.3901 151.95C64.0581 155.303 65.694 156.374 66.0954 156.862C66.914 157.154 72.0039 157.56 80.9138 157.56C89.8237 157.56 95.0671 157.141 95.7663 156.849C96.2202 156.399 97.923 155.404 104.304 151.981C104.565 151.842 104.889 151.941 105.029 152.202C105.168 152.464 105.07 152.788 104.809 152.929C102.001 154.436 97.4979 156.899 96.6426 157.485C96.5075 157.865 95.7676 158.14 91.7088 158.376C88.8228 158.545 84.9896 158.637 80.9138 158.637V158.635ZM95.7191 156.902L95.7125 156.909L95.7191 156.902Z" fill="#231F20"/>
<path d="M62.8842 153.436H62.8763C62.6336 153.433 62.4067 153.258 62.3477 153.021C62.164 152.285 64.6276 150.823 64.6526 150.81L64.8283 150.711C66.2372 149.925 69.5352 148.084 70.7289 150.025C70.8837 150.278 70.8063 150.608 70.5545 150.764C70.3026 150.919 69.9733 150.842 69.8172 150.588C69.16 149.523 66.2923 151.123 65.3504 151.649L65.1707 151.749C64.9477 151.876 63.7212 152.79 63.3788 153.108C63.2974 153.301 63.1072 153.436 62.8855 153.436H62.8842Z" fill="#231F20"/>
<path d="M67.0432 153.718C66.8162 153.718 66.605 153.572 66.5329 153.344C66.3204 152.675 67.0563 152.267 67.4512 152.047L67.5758 151.976C68.3091 151.534 69.07 151.131 69.8046 150.74L70.2952 150.479C73.0514 149.004 77.2466 147.269 81.5887 147.434C82.608 147.471 84.7201 147.858 85.4206 149.06C85.6423 149.44 85.8167 150.065 85.393 150.882C85.2566 151.145 84.9339 151.248 84.6715 151.112C84.4092 150.976 84.3055 150.652 84.4419 150.389C84.6571 149.973 84.5744 149.741 84.4944 149.603C84.093 148.915 82.5004 148.542 81.5494 148.508C78.342 148.391 74.5311 149.43 70.799 151.427L70.307 151.689C69.5842 152.073 68.8365 152.47 68.1281 152.898C68.0848 152.924 68.031 152.953 67.972 152.987C67.8775 153.039 67.6794 153.15 67.5784 153.231C67.5601 153.44 67.4197 153.627 67.2072 153.694C67.1534 153.711 67.0983 153.719 67.0445 153.719L67.0432 153.718Z" fill="#231F20"/>
<path d="M80.0956 154.162C79.8634 154.162 79.6443 153.998 79.5709 153.765C79.1852 152.545 81.0362 151.78 82.9659 151.101C83.1614 151.032 83.3109 150.98 83.3883 150.945C86.3281 149.647 90.0694 148.213 92.9266 148.666C94.5743 148.926 95.747 149.595 96.2285 150.55C96.4974 151.082 96.6824 151.976 96.0422 153.213C95.9058 153.476 95.5844 153.578 95.3194 153.443C95.057 153.306 94.9547 152.983 95.0911 152.72C95.4374 152.051 95.4978 151.483 95.2721 151.035C94.9547 150.405 94.039 149.929 92.76 149.727C90.1796 149.317 86.6259 150.689 83.8199 151.927C83.7281 151.968 83.551 152.031 83.3201 152.113C81.0755 152.904 80.6479 153.314 80.5928 153.489C80.682 153.772 80.5246 154.049 80.2425 154.138C80.1927 154.154 80.1428 154.162 80.0943 154.162H80.0956Z" fill="#231F20"/>
<path d="M100.713 43.6396C99.3226 43.6396 97.8481 43.2873 96.5402 42.4617C96.3526 42.3434 96.2962 42.095 96.4143 41.9057C96.5323 41.7177 96.7802 41.6612 96.9692 41.7795C99.5049 43.3806 102.916 42.9954 104.51 41.6323C104.679 41.4877 104.932 41.5087 105.076 41.677C105.221 41.8465 105.2 42.1002 105.032 42.2448C104.035 43.0993 102.437 43.6409 100.714 43.6409L100.713 43.6396Z" fill="#231F20"/>
<path d="M113.799 34.3761C113.778 34.3761 113.758 34.3761 113.737 34.3722C113.443 34.338 113.232 34.0764 113.266 33.7819C113.531 31.4986 113.392 30.7007 113.32 30.4628C113.234 30.1788 113.392 29.8791 113.676 29.7924C113.959 29.7043 114.258 29.866 114.345 30.1499C114.548 30.8177 114.544 32.0783 114.332 33.8976C114.3 34.171 114.068 34.3774 113.799 34.3774V34.3761Z" fill="#231F20"/>
<path d="M99.66 25.0246C99.4974 25.0246 99.336 24.951 99.2311 24.8104C99.054 24.5738 99.1012 24.2372 99.3386 24.0585C103.09 21.2388 103.17 16.4802 102.883 13.8959C102.85 13.6014 103.063 13.3359 103.357 13.303C103.655 13.2688 103.916 13.4831 103.948 13.7776C104.486 18.6347 103.077 22.5915 99.9814 24.9182C99.8844 24.9905 99.7729 25.026 99.66 25.026V25.0246Z" fill="#231F20"/>
<path d="M95.5373 22.3403C95.3365 22.3403 95.1437 22.2259 95.0532 22.0327C94.9273 21.7645 95.0414 21.4451 95.309 21.3189C98.1202 19.9912 100.76 17.0046 101.877 13.8866C101.977 13.6079 102.284 13.4607 102.562 13.5632C102.84 13.6631 102.986 13.9707 102.885 14.2494C101.658 17.6698 98.864 20.8259 95.7642 22.289C95.6907 22.3245 95.6133 22.3403 95.5359 22.3403H95.5373Z" fill="#231F20"/>
<path d="M109.929 30.9649C109.882 30.9649 109.835 30.957 109.787 30.9386C108.103 30.3024 106.787 30.2656 105.877 30.8229C105.688 30.9386 105.44 30.8795 105.325 30.6902C105.209 30.5009 105.268 30.2524 105.457 30.1368C106.588 29.4427 108.14 29.4571 110.07 30.1854C110.277 30.2643 110.382 30.4956 110.304 30.7046C110.244 30.8663 110.091 30.9649 109.928 30.9649H109.929Z" fill="#231F20"/>
<path fill-rule="evenodd" clip-rule="evenodd" d="M106.405 31.7826C106.379 31.0924 106.851 30.514 107.459 30.4904C108.067 30.4667 108.582 31.007 108.608 31.6971C108.634 32.3872 108.162 32.9656 107.554 32.9893C106.946 33.0129 106.432 32.4714 106.405 31.7812V31.7826Z" fill="#231F20"/>
<path opacity="0.5" fill-rule="evenodd" clip-rule="evenodd" d="M99.0917 71.2064C97.5188 69.5081 95.5957 69.2254 95.4212 66.4163C95.2704 64.0002 97.2591 63.6453 98.1524 61.8536C98.504 61.1477 97.5267 59.5729 97.5267 59.5729C97.5267 59.5729 98.281 59.8161 98.5512 60.0869C99.2609 60.798 99.8342 61.5946 99.7463 62.6528C99.585 64.5944 96.7658 64.7731 97.0151 67.272C97.1004 68.1331 99.3409 71.4759 99.093 71.2064H99.0917Z" fill="white"/>
<path opacity="0.5" fill-rule="evenodd" clip-rule="evenodd" d="M101.32 70.9238C95.9791 69.3398 102.697 63.7754 102.942 60.3445C103.127 57.7391 100.489 57.4447 100.097 55.2126C99.7755 53.3815 100.535 52.3378 100.609 52.5323C100.649 52.6375 100.275 52.7689 100.38 53.9007C100.448 54.6303 100.91 55.3704 101.348 55.8975C102.454 57.2278 104.262 57.559 104.593 59.5479C105.094 62.5621 103.295 63.594 101.86 65.7078C98.894 70.0746 103.113 71.4575 101.32 70.9264V70.9238Z" fill="white"/>
<path opacity="0.5" fill-rule="evenodd" clip-rule="evenodd" d="M97.0153 58.2321C96.3345 58.6252 95.407 55.0089 96.787 55.0089C96.9038 55.0089 96.6795 56.025 96.6729 56.0921C96.6191 56.6862 97.5741 57.9074 97.014 58.2308L97.0153 58.2321Z" fill="white"/>
</g>
<defs>
<clipPath id="clip0_1_7240">
<rect width="210" height="160" fill="white"/>
</clipPath>
</defs>
</svg>
