<svg width="105" height="160" viewBox="0 0 105 160" fill="none" xmlns="http://www.w3.org/2000/svg">
<g clip-path="url(#clip0_1_6827)">
<path d="M74.2828 92.5228C74.2828 92.5228 71.5283 61.2592 66.4328 55.6129C61.9194 50.6116 48.7316 51.1385 48.7316 51.1385L44.8102 49.2764L42.2099 46.0731L22.7418 49.1201L16.238 56.9901C16.238 56.9901 9.41576 57.9537 5.5594 64.9783C1.36448 72.6179 2.57948 88.451 2.57948 88.451L56.0267 91.4209L59.248 101.761L67.15 101.39C66.5931 96.2549 68.6285 93.0446 74.2828 92.5228Z" fill="white"/>
<path fill-rule="evenodd" clip-rule="evenodd" d="M25.7455 54.0492L20.7793 86.1512L33.8579 59.5553L25.7455 54.0492Z" fill="#D8E9F1"/>
<path d="M65.5473 110.795C65.5473 110.795 65.1347 91.4219 73.3963 92.8402C73.3963 92.8402 81.715 97.0081 83.5971 98.9964C83.5971 98.9964 86.1744 101.34 85.353 105.366C84.5317 109.392 82.4843 116.889 82.4843 116.889L65.5484 110.795H65.5473Z" fill="#FDE7DC"/>
<path d="M63.2013 155.386C62.0253 145.177 59.7957 134.967 59.7957 134.967L56.1927 101.762C55.5947 96.9531 56.0264 91.4219 56.0264 91.4219L21.8681 83.3717L9.41453 73.7928C9.41453 73.7928 1.56458 89.1312 0.600989 95.691C0.0360565 99.5373 2.94185 111.391 3.21731 114.835C3.49276 118.277 1.70281 155.386 1.70281 155.386C11.5601 160.984 48.7314 162.068 63.2013 155.386Z" fill="white"/>
<path d="M43.5143 78.7379C42.4025 81.7299 39.4346 83.3866 36.8864 82.44C34.3382 81.4925 33.1733 78.2992 34.2861 75.3083C35.3979 72.3163 38.3658 70.6596 40.914 71.6061C43.4622 72.5537 44.6272 75.747 43.5153 78.7379H43.5143Z" fill="#E6E7E9"/>
<path d="M19.1599 153.81C19.1599 153.81 37.6484 141.69 94.5273 120.756L66.2937 100.786C49.4189 102.071 33.5106 104.94 18.7793 109.738C18.7793 109.738 22.225 134.939 19.1589 153.809L19.1599 153.81Z" fill="#E6E7E9"/>
<path fill-rule="evenodd" clip-rule="evenodd" d="M14.9598 6.77723C16.3621 5.02033 18.714 4.77793 20.2725 4.15089C22.1316 3.31852 23.61 2.7025 26.0701 1.45845C26.613 1.21905 31.2637 -0.246363 35.3364 1.2471C39.927 2.91585 45.0073 8.13647 45.0073 8.13647C45.0073 8.13647 48.4009 11.8626 51.0994 16.5083C53.0546 19.9399 54.4048 24.3592 54.8366 25.6984C55.8582 28.9298 52.1992 32.8082 51.5511 35.8592C51.3398 36.7106 52.2813 37.568 51.9328 38.0278C51.1565 38.9573 49.3305 37.6472 49.3305 37.6472C49.3305 37.6472 47.831 40.4868 45.8077 41.9182C43.7843 43.3496 41.146 43.3025 41.146 43.3025L23.8364 46.023C23.8364 46.023 21.162 46.3105 19.0926 45.0333C18.1961 44.4995 17.7193 42.8377 17.3938 43.4587C16.6736 44.7919 15.4285 44.7178 15.4285 44.7178C15.4285 44.7178 15.2172 43.1843 14.5851 42.7776C13.2519 42.0574 11.8126 41.7619 10.7218 41.0087C8.99893 39.8488 8.69442 38.2451 8.35186 37.552C6.94554 35.114 5.2277 32.8012 6.17827 28.9678C6.3786 28.0353 7.79995 24.6307 9.32947 20.2244C10.9652 15.3914 12.6399 9.64896 14.9578 6.77923L14.9598 6.77723Z" fill="#C37B7B"/>
<path fill-rule="evenodd" clip-rule="evenodd" d="M14.5459 34.1454C14.5459 34.1454 14.8855 33.0296 15.7198 31.9267C17.041 30.1809 17.6069 30.1027 19.5041 25.9749C20.5859 23.6862 21.2089 18.6649 22.6723 16.1597C23.4846 14.8956 26.1541 13.3751 27.6655 13.0025C29.4194 12.5959 31.585 12.7902 33.1576 14.0533C34.7192 15.2362 35.5606 17.7524 35.9111 19.1016C36.421 21.0057 38.1278 23.2374 38.1278 23.2374C38.1278 23.2374 39.6874 24.9963 40.7091 25.8417C43.671 28.2296 46.2212 30.0156 46.2212 30.0156C46.2212 30.0156 46.8532 30.4223 46.0879 31.4319C45.2305 32.3735 44.0315 32.6209 44.0315 32.6209C44.0315 32.6209 43.9955 35.3404 43.1671 37.6762C42.3388 40.0121 40.5879 42.2277 40.5879 42.2277C40.5879 42.2277 39.7615 48.0474 41.5765 49.2774C42.7564 50.0497 35.9873 55.0679 31.4508 57.9547C29.5286 59.1777 28.0251 61.2602 28.0251 61.2602C28.0251 61.2602 21.4884 55.0319 23.0439 51.482C24.8479 50.246 23.8813 43.9606 23.8813 43.9606C23.8813 43.9606 22.2386 42.7887 20.9695 40.7433C19.6994 38.6979 18.9502 36.2509 18.9502 36.2509L16.7395 35.734L14.5459 34.1454Z" fill="#FDE7DC"/>
<path fill-rule="evenodd" clip-rule="evenodd" d="M26.5884 47.826C26.5884 47.826 20.9471 48.2567 20.7788 50.9351C20.6105 53.6135 21.6723 61.2591 21.6723 61.2591C21.6723 61.2591 23.3531 59.6064 25.745 59.7957C25.745 59.7957 22.2683 55.4495 22.9484 52.3174C23.6746 48.9728 26.5884 47.825 26.5884 47.825V47.826Z" fill="#D8E9F1"/>
<path fill-rule="evenodd" clip-rule="evenodd" d="M40.7804 45.7365C40.7804 45.7365 45.2718 46.5017 43.2695 51.1224C42.2028 53.5844 36.1328 62.3609 36.1328 62.3609C36.1328 62.3609 34.7114 58.6738 32.5088 57.7202C32.5088 57.7202 36.6636 54.2676 39.1638 52.2632C43.0892 49.1171 40.7794 45.7355 40.7794 45.7355L40.7804 45.7365Z" fill="#D8E9F1"/>
<path d="M20.6482 51.8115C20.4158 51.7874 20.1714 51.8576 19.9791 52.0218C19.7437 52.2202 14.8807 56.4972 12.4697 69.9394L14.2657 70.3431C16.0897 60.1512 19.3611 55.4775 20.6382 53.9801L20.6472 51.8105L20.6482 51.8115Z" fill="#E6E7E9"/>
<path d="M43.5445 50.4853C44.1155 53.2319 42.9416 62.8217 39.5439 71.3428L40.9132 71.6062C48.1231 56.1557 44.2557 47.1038 44.0694 46.8624C43.807 46.5198 43.3512 46.4136 42.9726 46.5779L43.5435 50.4853H43.5445Z" fill="#E6E7E9"/>
<path d="M69.0488 98.9954C69.0488 98.9954 69.5997 105.83 69.5997 110.289C69.5997 113.562 73.4561 112.631 74.2825 108.499C74.624 106.793 74.8334 98.9964 74.8334 98.9964H69.0488V98.9954Z" fill="#FDE7DC"/>
<path d="M5.74992 93.9351C4.9506 94.1044 4.86747 96.0966 5.75192 96.0315C5.75192 96.0315 7.30549 96.0976 7.38061 94.9628C7.45574 93.8279 5.74892 93.9351 5.74892 93.9351H5.74992Z" fill="#E6E7E9"/>
<path d="M13.4327 95.1641C14.1489 95.5748 13.6701 97.5049 12.8428 97.1664C12.8428 97.1664 11.3403 96.7437 11.5857 95.6369C11.8321 94.529 13.4317 95.1641 13.4317 95.1641H13.4327Z" fill="#E6E7E9"/>
<path d="M39.5455 132.392C39.3571 132.392 39.1748 132.291 39.0797 132.114C38.9405 131.857 39.0356 131.535 39.293 131.396C39.4212 131.327 52.3025 124.407 68.9299 120.577C69.2174 120.512 69.4999 120.689 69.565 120.974C69.6311 121.259 69.4528 121.544 69.1683 121.609C52.6871 125.405 39.9241 132.258 39.7979 132.327C39.7177 132.372 39.6316 132.392 39.5465 132.392H39.5455Z" fill="#BCBDC0"/>
<path d="M29.1706 132.381C28.9913 132.381 28.817 132.288 28.7209 132.123C28.5766 131.875 28.6608 131.557 28.9092 131.413C29.0925 131.307 47.583 120.69 74.9081 115.651C75.1906 115.599 75.462 115.786 75.5131 116.067C75.5652 116.35 75.3789 116.621 75.0964 116.672C47.9466 121.68 29.6134 132.206 29.4311 132.311C29.3489 132.359 29.2588 132.381 29.1706 132.381Z" fill="#BCBDC0"/>
<path d="M28.7115 129.4C28.5292 129.4 28.353 129.303 28.2578 129.134C28.1176 128.884 28.2067 128.567 28.4571 128.427C28.6334 128.327 46.4288 118.386 73.1278 113.861C73.4113 113.813 73.6787 114.005 73.7258 114.288C73.7729 114.57 73.5826 114.838 73.2991 114.886C46.7804 119.381 29.1403 129.234 28.966 129.333C28.8858 129.378 28.7987 129.401 28.7125 129.401L28.7115 129.4Z" fill="#BCBDC0"/>
<path d="M28.2536 126.418C28.0693 126.418 27.89 126.318 27.7968 126.145C27.6606 125.893 27.7548 125.578 28.0062 125.441C28.1765 125.349 45.2767 116.082 71.3477 112.071C71.6321 112.028 71.8956 112.224 71.9387 112.507C71.9817 112.79 71.7864 113.054 71.5029 113.098C45.6152 117.081 28.6693 126.261 28.501 126.354C28.4229 126.398 28.3377 126.418 28.2546 126.418H28.2536Z" fill="#BCBDC0"/>
<path d="M27.7949 123.436C27.6076 123.436 27.4263 123.333 27.3342 123.156C27.202 122.902 27.3001 122.589 27.5545 122.456C27.7178 122.37 44.1229 113.779 69.5679 110.283C69.8533 110.244 70.1138 110.445 70.1508 110.729C70.1889 111.013 69.9886 111.274 69.7051 111.312C44.4394 114.727 28.1966 123.291 28.0353 123.377C27.9592 123.417 27.8771 123.436 27.7959 123.436H27.7949Z" fill="#BCBDC0"/>
<path d="M27.3367 120.454C27.1464 120.454 26.9631 120.349 26.8719 120.167C26.7427 119.911 26.8469 119.6 27.1023 119.47C27.2586 119.391 42.9685 111.475 67.7875 108.493C68.0739 108.459 68.3303 108.664 68.3634 108.949C68.3965 109.233 68.1921 109.491 67.9077 109.525C43.275 112.433 27.7234 120.319 27.5691 120.399C27.495 120.437 27.4148 120.455 27.3367 120.455V120.454Z" fill="#BCBDC0"/>
<path d="M26.8783 117.472C26.685 117.472 26.4997 117.364 26.4105 117.178C26.2853 116.92 26.3935 116.61 26.6519 116.484C26.8012 116.412 41.8159 109.171 66.0078 106.703C66.2953 106.674 66.5477 106.883 66.5758 107.169C66.6048 107.454 66.3965 107.709 66.111 107.737C42.1144 110.186 27.2519 117.348 27.1047 117.42C27.0315 117.455 26.9544 117.472 26.8793 117.472H26.8783Z" fill="#BCBDC0"/>
<path d="M26.4198 114.49C26.2235 114.49 26.0362 114.379 25.9481 114.189C25.8269 113.929 25.9401 113.62 26.1995 113.499C26.3417 113.433 40.6623 106.868 64.2272 104.914C64.5147 104.889 64.7641 105.103 64.7882 105.389C64.8122 105.675 64.5998 105.926 64.3134 105.95C40.9478 107.888 26.7784 114.376 26.6382 114.441C26.5671 114.474 26.493 114.49 26.4198 114.49Z" fill="#BCBDC0"/>
<path fill-rule="evenodd" clip-rule="evenodd" d="M23.7422 44.1439C23.7422 44.1439 29.0509 47.4414 33.2599 46.9416C36.5002 46.576 40.588 42.2278 40.588 42.2278C40.588 42.2278 36.6755 48.444 32.4866 49.6811C28.8516 50.7589 24.4974 47.824 24.4974 47.824L23.7422 44.1439Z" fill="#231F20"/>
<path fill-rule="evenodd" clip-rule="evenodd" d="M23.0615 29.1021C22.9504 28.2947 23.345 27.5825 24.0712 27.4814C24.7173 27.3922 25.3713 27.9602 25.4825 28.7675C25.5937 29.5748 25.1991 30.287 24.4729 30.3872C23.7467 30.4873 23.1727 29.9084 23.0615 29.1021Z" fill="#231F20"/>
<path fill-rule="evenodd" clip-rule="evenodd" d="M34.9273 27.4624C34.8161 26.655 35.2919 25.9318 35.937 25.8427C36.583 25.7536 37.2371 26.3215 37.3483 27.1278C37.4595 27.9352 36.9837 28.6594 36.3386 28.7485C35.6926 28.8376 35.0385 28.2697 34.9273 27.4624Z" fill="#231F20"/>
<path d="M32.795 47.5786C31.8184 47.5786 29.3293 47.3803 25.8786 45.6905C22.9077 44.2531 21.6807 42.4601 20.9475 41.3894L20.9004 41.3213C19.8397 39.7747 18.856 37.6733 17.8023 34.7084C17.7041 34.4329 17.8484 34.1294 18.1238 34.0322C18.4003 33.9351 18.7028 34.0783 18.7999 34.3538C19.8216 37.2295 20.7662 39.2529 21.7728 40.7223L21.8199 40.7914C22.5371 41.8391 23.6209 43.4227 26.3414 44.7389C30.4502 46.7512 33.1075 46.5098 33.1346 46.5078C33.4231 46.4768 33.6855 46.6891 33.7155 46.9796C33.7456 47.2701 33.5373 47.5295 33.2468 47.5616C33.2207 47.5646 33.0665 47.5796 32.794 47.5796L32.795 47.5786Z" fill="#231F20"/>
<path d="M33.2692 47.5525C33.0087 47.5525 32.7814 47.3602 32.7453 47.0958C32.7052 46.8073 32.9066 46.5399 33.1951 46.4988C33.2341 46.4928 35.4698 46.1202 38.8624 43.1703C41.3104 40.9997 42.2199 38.9143 42.5435 37.8656C43.1194 36.1648 43.48 33.9611 43.6834 30.9161C43.7034 30.6236 43.9528 30.4053 44.2473 30.4233C44.5388 30.4433 44.7601 30.6947 44.7401 30.9872C44.5308 34.1254 44.1531 36.4152 43.5511 38.1921C43.1996 39.334 42.2059 41.6218 39.5606 43.9676C35.8815 47.1669 33.4445 47.5345 33.3423 47.5485C33.3173 47.5515 33.2932 47.5535 33.2692 47.5535V47.5525Z" fill="#231F20"/>
<path d="M18.6156 36.7447C18.6156 36.7447 18.6096 36.7447 18.6076 36.7447C17.3375 36.7256 15.5185 35.9213 14.3175 34.1694C14.1522 33.928 14.2133 33.5985 14.4547 33.4332C14.6961 33.2679 15.0257 33.329 15.1909 33.5704C16.1786 35.0108 17.6259 35.6709 18.6236 35.6859C18.9161 35.6899 19.1495 35.9313 19.1454 36.2238C19.1414 36.5133 18.9051 36.7457 18.6156 36.7457V36.7447Z" fill="#231F20"/>
<path d="M17.0413 33.0956C16.8951 33.0956 16.7499 33.0355 16.6447 32.9173C16.6387 32.9113 16.0667 32.2652 15.7933 31.9898C15.5869 31.7824 15.5889 31.4469 15.7963 31.2405C16.0046 31.0342 16.3392 31.0362 16.5455 31.2436C16.839 31.54 17.413 32.1871 17.437 32.2142C17.6313 32.4335 17.6113 32.7681 17.3919 32.9614C17.2908 33.0505 17.1655 33.0946 17.0403 33.0946L17.0413 33.0956Z" fill="#231F20"/>
<path d="M44.2832 33.1978C44.0468 33.1978 43.8304 33.0376 43.7703 32.7982C43.6982 32.5147 43.8705 32.2262 44.154 32.1551C44.6618 32.0269 45.4882 31.5341 46.1482 30.5705C46.3135 30.3291 46.6431 30.267 46.8845 30.4323C47.1259 30.5975 47.188 30.9271 47.0227 31.1685C46.3215 32.1932 45.3459 32.9454 44.4144 33.1818C44.3713 33.1928 44.3272 33.1978 44.2842 33.1978H44.2832Z" fill="#231F20"/>
<path d="M31.6437 35.1911C31.5445 35.1911 31.4443 35.163 31.3552 35.1049C31.1098 34.9457 31.0407 34.6171 31.1999 34.3717C31.7318 33.5544 31.7618 33.2028 31.7328 33.0666C31.6977 32.9053 31.4954 32.7691 31.1689 32.5607C30.7211 32.2743 30.1071 31.8826 29.8066 31.0843C29.1235 29.4446 29.7866 26.677 30.1001 25.7505C30.1943 25.473 30.4938 25.3248 30.7712 25.4189C31.0487 25.5131 31.1969 25.8136 31.1028 26.0901C30.7762 27.0536 30.2714 29.4466 30.7902 30.6936C30.9735 31.1795 31.3452 31.4168 31.7388 31.6683C32.1605 31.9377 32.6383 32.2432 32.7685 32.8432C32.8877 33.3941 32.6774 34.0432 32.0884 34.9497C31.9872 35.1059 31.8169 35.1901 31.6437 35.1901V35.1911Z" fill="#231F20"/>
<path d="M31.1528 39.97C29.8045 39.97 28.5264 39.6635 27.6259 39.0755C27.3805 38.9152 27.3124 38.5877 27.4717 38.3423C27.632 38.0979 27.9605 38.0288 28.2049 38.188C30.051 39.393 34.0816 39.0965 35.8345 37.1303C36.0288 36.9119 36.3644 36.8929 36.5827 37.0872C36.8011 37.2815 36.8201 37.6171 36.6258 37.8355C35.3327 39.2858 33.1661 39.97 31.1538 39.97H31.1528Z" fill="#231F20"/>
<path d="M21.4339 23.8975C21.3187 23.8975 21.2025 23.8605 21.1064 23.7834C20.878 23.6021 20.8379 23.2725 21.0182 23.0431C21.0783 22.966 22.5317 21.156 25.2602 21.4836C25.5507 21.5186 25.758 21.7821 25.723 22.0725C25.6889 22.363 25.4265 22.5734 25.134 22.5353C23.0165 22.2829 21.8967 23.6401 21.8496 23.6982C21.7444 23.8284 21.5902 23.8975 21.4349 23.8975H21.4339Z" fill="#231F20"/>
<path d="M37.4179 21.6889C37.3027 21.6889 37.1875 21.6518 37.0903 21.5747C37.0272 21.5256 35.6349 20.4749 33.6366 21.2772C33.3652 21.3864 33.0567 21.2552 32.9475 20.9827C32.8383 20.7113 32.9705 20.4028 33.242 20.2936C35.8333 19.2529 37.6713 20.6822 37.7484 20.7433C37.9768 20.9256 38.0149 21.2592 37.8325 21.4875C37.7284 21.6188 37.5741 21.6869 37.4179 21.6869V21.6889Z" fill="#231F20"/>
<path d="M24.5981 51.465C24.585 51.465 24.572 51.465 24.558 51.464C24.2665 51.442 24.0471 51.1885 24.0692 50.8971C24.2335 48.6754 23.2017 44.0658 23.1907 44.0187C23.1266 43.7332 23.3059 43.4498 23.5914 43.3857C23.8769 43.3216 24.1603 43.5009 24.2244 43.7863C24.2685 43.9817 25.3012 48.5973 25.1259 50.9752C25.1049 51.2537 24.8735 51.466 24.5981 51.466V51.465Z" fill="#231F20"/>
<path d="M41.5759 49.8072C41.3595 49.8072 41.1562 49.6729 41.0781 49.4586C40.2667 47.2239 39.9192 43.038 39.9051 42.8607C39.8811 42.5692 40.0985 42.3138 40.3899 42.2898C40.6814 42.2667 40.9368 42.4831 40.9609 42.7746C40.9639 42.8166 41.3105 46.9965 42.0737 49.096C42.1739 49.3704 42.0316 49.675 41.7572 49.7741C41.6971 49.7962 41.636 49.8062 41.5759 49.8062V49.8072Z" fill="#231F20"/>
<path d="M15.3835 37.7674C15.2543 37.7674 15.1251 37.7203 15.0229 37.6252C12.5057 35.2843 14.6152 32.4376 16.4753 29.9265C17.1093 29.0711 17.7073 28.2627 18.132 27.4904C19.6896 24.7419 20.2665 22.1556 20.7313 20.0782C21.3032 17.516 21.755 15.4926 23.6722 14.5281C23.9346 14.3968 24.2521 14.502 24.3833 14.7624C24.5145 15.0239 24.4094 15.3424 24.1489 15.4736C22.6805 16.2128 22.2969 17.9307 21.766 20.3086C21.2862 22.4551 20.6902 25.1255 19.0585 28.0053C18.6038 28.8357 17.9547 29.7101 17.3277 30.5565C15.2703 33.3331 14.0493 35.2713 15.7451 36.8489C15.9594 37.0482 15.9715 37.3828 15.7721 37.5971C15.6679 37.7093 15.5257 37.7664 15.3845 37.7664L15.3835 37.7674Z" fill="#231F20"/>
<path d="M47.0873 35.0319C47.0352 35.0319 46.9831 35.0239 46.931 35.0079C46.6516 34.9217 46.4943 34.6253 46.5804 34.3458C47.4639 31.4731 45.6709 30.1679 42.9555 28.1926C41.468 27.1109 39.7832 25.8838 38.2988 24.161C36.9646 22.6174 36.2644 21.0078 35.5863 19.4502C35.0354 18.1831 34.5145 16.9872 33.6822 15.8853C32.4601 14.2146 30.2866 12.7712 28.1721 13.2981C27.5571 13.4623 26.944 13.8019 26.4082 14.2777C26.1888 14.471 25.8542 14.451 25.6599 14.2326C25.4656 14.0132 25.4856 13.6787 25.705 13.4844C26.3641 12.9004 27.1243 12.4807 27.9066 12.2724C30.5059 11.6243 33.1062 13.3031 34.5316 15.2533C35.434 16.4483 36.005 17.7594 36.5569 19.0275C37.203 20.512 37.8711 22.0475 39.1001 23.4688C40.5054 25.1005 42.1381 26.2885 43.5785 27.3362C46.326 29.3355 48.6979 31.0624 47.5921 34.6573C47.522 34.8847 47.3126 35.0309 47.0863 35.0309L47.0873 35.0319Z" fill="#231F20"/>
<path d="M8.24175 37.2736C8.08449 37.2736 7.92823 37.2034 7.82406 37.0702C4.15401 32.3775 5.91792 27.9221 7.95929 22.7636C8.42806 21.5797 8.91286 20.3546 9.35359 19.0745C9.71919 17.9757 10.0527 16.8699 10.3743 15.8001C12.0881 10.1127 13.5675 5.20164 18.8352 4.47344C19.1267 4.43338 19.3921 4.63571 19.4322 4.92519C19.4723 5.21466 19.2699 5.48211 18.9805 5.52217C14.3859 6.15722 13.0627 10.5475 11.3879 16.1046C11.0634 17.1814 10.7279 18.2942 10.3562 19.4131C9.9065 20.7213 9.41669 21.9573 8.94391 23.1523C6.94261 28.2086 5.362 32.2022 8.65744 36.4172C8.83773 36.6475 8.79667 36.9801 8.56629 37.1604C8.46913 37.2365 8.35494 37.2726 8.24075 37.2726L8.24175 37.2736Z" fill="#231F20"/>
<path d="M52.4305 38.5707C52.2753 38.5707 52.121 38.5026 52.0158 38.3714C50.4863 36.4552 51.4229 34.8826 52.5087 33.0626C53.2228 31.8636 54.0332 30.5044 54.4208 28.6994C55.0769 25.5803 52.8182 19.4351 48.9257 13.7578C44.819 7.9001 40.0351 3.7783 37.9506 2.72456C31.0853 -0.75318 25.6744 2.0224 23.0601 3.98764C22.8257 4.16393 22.4941 4.11585 22.3188 3.88247C22.1436 3.64908 22.1906 3.31654 22.424 3.14125C25.2357 1.02876 31.0533 -1.95616 38.4294 1.781C41.0137 3.08816 45.9719 7.69977 49.7962 13.1558C53.906 19.1517 56.1797 25.4851 55.4565 28.9218C55.0318 30.9 54.1373 32.4005 53.4182 33.6075C52.3063 35.4736 51.8165 36.4272 52.8432 37.7133C53.0255 37.9417 52.9884 38.2752 52.7601 38.4575C52.6629 38.5356 52.5457 38.5737 52.4295 38.5737L52.4305 38.5707Z" fill="#231F20"/>
<path d="M21.7417 46.2664C21.7287 46.2664 21.7156 46.2664 21.7026 46.2654C18.5895 46.0421 16.9498 43.4488 16.5171 42.1096C16.4269 41.8311 16.5802 41.5326 16.8586 41.4425C17.1371 41.3523 17.4356 41.5056 17.5257 41.784C17.8823 42.8879 19.2295 45.0254 21.7787 45.2087C22.0702 45.2297 22.2896 45.4831 22.2696 45.7746C22.2495 46.0531 22.0171 46.2664 21.7417 46.2664Z" fill="#231F20"/>
<path d="M23.153 12.4265C23.0067 12.4265 22.8615 12.3664 22.7563 12.2482C22.0181 11.4149 21.4742 9.03994 22.2675 7.06468C22.3767 6.79323 22.6852 6.66202 22.9566 6.7702C23.2281 6.87938 23.3603 7.18788 23.2511 7.45933C22.6081 9.05997 23.0789 11.0142 23.5496 11.5451C23.7439 11.7644 23.7239 12.099 23.5046 12.2923C23.4034 12.3815 23.2782 12.4255 23.153 12.4255V12.4265Z" fill="#231F20"/>
<path d="M43.4645 43.3465C43.204 43.3465 42.9767 43.1542 42.9406 42.8898C42.9005 42.6003 43.1029 42.3329 43.3923 42.2928C46.6447 41.8431 48.6831 38.9032 48.7121 36.9931C48.7161 36.7036 48.9525 36.4712 49.242 36.4712C49.245 36.4712 49.248 36.4712 49.25 36.4712C49.5425 36.4752 49.7759 36.7166 49.7719 37.0091C49.7378 39.2498 47.4981 42.7946 43.5376 43.3415C43.5125 43.3445 43.4885 43.3465 43.4645 43.3465Z" fill="#231F20"/>
<path d="M15.4074 45.0845C15.1339 45.0845 14.9016 44.8731 14.8795 44.5957C14.7473 42.8919 13.7216 42.5723 12.3023 42.1306C10.8919 41.6919 9.13604 41.146 8.49398 38.8352C8.41585 38.5537 8.58112 38.2612 8.86259 38.1831C9.14405 38.106 9.43653 38.2702 9.51466 38.5517C10.0025 40.3056 11.2726 40.7002 12.6168 41.1189C14.0842 41.5757 15.7479 42.0925 15.9353 44.5135C15.9583 44.805 15.7399 45.0594 15.4485 45.0825C15.4344 45.0835 15.4204 45.0845 15.4074 45.0845Z" fill="#231F20"/>
<path d="M2.57737 88.9809C2.30291 88.9809 2.07153 88.7695 2.0495 88.4921C1.99941 87.839 0.87055 72.4135 5.09352 64.7239C9.03202 57.55 15.8733 56.5073 16.1628 56.4662C16.4543 56.4252 16.7207 56.6275 16.7618 56.917C16.8028 57.2065 16.6015 57.4739 16.312 57.516C16.2459 57.526 9.69711 58.5407 6.02205 65.2347C1.95234 72.6479 3.09422 88.2557 3.10624 88.4119C3.12828 88.7034 2.90992 88.9578 2.61843 88.9809C2.60441 88.9819 2.59139 88.9829 2.57737 88.9829V88.9809Z" fill="#231F20"/>
<path d="M1.70235 155.915C1.69334 155.915 1.68532 155.915 1.67631 155.915C1.38383 155.901 1.15846 155.653 1.17248 155.36C1.19051 154.99 2.95843 118.246 2.68898 114.877C2.59483 113.704 2.18315 111.503 1.70636 108.955C0.80988 104.166 -0.304959 98.2061 0.0756686 95.6138C1.04126 89.044 8.62077 74.1815 8.9423 73.5514C9.07552 73.291 9.39505 73.1878 9.65548 73.321C9.9159 73.4543 10.0191 73.7738 9.88585 74.0342C9.80773 74.1865 2.06495 89.3705 1.1244 95.7681C0.768812 98.1851 1.86662 104.049 2.74808 108.761C3.22987 111.338 3.64656 113.563 3.74472 114.792C4.01918 118.23 2.30435 153.896 2.23123 155.412C2.2172 155.696 1.98282 155.916 1.70235 155.916V155.915Z" fill="#231F20"/>
<path d="M21.6727 61.79C21.6277 61.79 21.5826 61.784 21.5375 61.772C21.3382 61.7189 21.1869 61.5546 21.1509 61.3513C21.1058 61.0948 20.0481 55.0338 20.041 52.723C20.036 50.9661 20.7632 48.7014 24.256 47.8961L24.3532 47.873C24.6366 47.8019 24.9241 47.9752 24.9952 48.2587C25.0663 48.5421 24.893 48.8296 24.6096 48.9007L24.4934 48.9278C22.2357 49.4486 21.0938 50.7247 21.0998 52.719C21.1048 54.4058 21.7258 58.3653 22.0303 60.2014C22.6383 59.7286 23.5749 59.1897 24.7218 59.1486C24.9311 59.1416 25.1405 59.1506 25.3478 59.1757C23.7371 57.1654 21.9762 54.2145 22.5221 51.3808C22.5772 51.0933 22.8547 50.906 23.1422 50.9611C23.4296 51.0162 23.6169 51.2937 23.5618 51.5811C22.8907 55.0629 26.4917 59.0184 27.8619 60.3756C28.0452 60.5329 28.2265 60.7052 28.4058 60.8935C28.6022 61.0988 28.6022 61.4214 28.4058 61.6257C28.2095 61.83 27.887 61.8441 27.6736 61.6568C27.6306 61.6187 27.4232 61.4344 27.1127 61.1289C26.3434 60.4878 25.5551 60.1773 24.7588 60.2064C23.1982 60.2625 22.0894 61.5826 22.0784 61.5957C21.9762 61.7189 21.826 61.788 21.6697 61.788L21.6727 61.79Z" fill="#231F20"/>
<path d="M16.2379 58.0909C15.9454 58.0909 15.708 57.8535 15.708 57.561V56.4402C15.708 56.2218 15.8412 56.0265 16.0446 55.9473L16.7688 55.6629C17.0412 55.5557 17.3487 55.6899 17.4549 55.9624C17.5621 56.2348 17.4278 56.5423 17.1554 56.6485L16.7678 56.8008V57.561C16.7678 57.8535 16.5304 58.0909 16.2379 58.0909Z" fill="#231F20"/>
<path d="M19.8317 55.5608C19.5392 55.5608 19.3008 55.3234 19.3008 55.0309C19.3008 54.7945 19.455 54.5942 19.6684 54.5261L20.5849 54.1655C20.8573 54.0583 21.1649 54.1925 21.272 54.4639C21.3792 54.7364 21.245 55.0439 20.9735 55.1511L20.026 55.5237C19.9639 55.5477 19.8988 55.5608 19.8317 55.5608Z" fill="#231F20"/>
<path d="M21.4865 84.6558C21.2471 84.6558 21.0358 84.4946 20.9747 84.2602L18.2672 73.9261C18.2241 73.7628 18.2622 73.5886 18.3694 73.4573L19.947 71.5231L16.0045 69.5829C15.8232 69.4938 15.709 69.3095 15.709 69.1082V62.4973C15.709 62.2048 15.9464 61.9674 16.2389 61.9674C16.5313 61.9674 16.7687 62.2048 16.7687 62.4973V68.7786L21.0127 70.8671C21.158 70.9382 21.2621 71.0714 21.2962 71.2297C21.3303 71.3869 21.2912 71.5522 21.189 71.6774L19.36 73.9191L21.2852 81.2672C23.1422 65.2668 23.8073 59.8218 23.8144 59.7657C23.8494 59.4753 24.1139 59.2699 24.4043 59.304C24.6948 59.339 24.9012 59.6035 24.8661 59.894C24.8591 59.9531 24.1179 66.0201 22.0134 84.186C21.9843 84.4395 21.779 84.6358 21.5246 84.6538C21.5126 84.6538 21.4995 84.6548 21.4875 84.6548L21.4865 84.6558Z" fill="#231F20"/>
<path d="M36.133 62.8909H36.131C35.9587 62.8909 35.7964 62.8057 35.6982 62.6645C34.2739 60.6221 32.2806 58.4806 31.5314 58.4806C31.5204 58.4806 31.5093 58.4806 31.4983 58.4816C30.6379 58.5597 29.2145 60.3136 28.4783 61.5326C28.3271 61.783 28.0015 61.8632 27.7511 61.7129C27.5007 61.5617 27.4206 61.2361 27.5708 60.9857C27.7802 60.6382 29.6703 57.5841 31.4022 57.4269C32.8566 57.2966 35.0412 59.9741 36.128 61.4465C38.3176 58.3103 42.838 51.5822 43.1886 49.8604C43.429 48.6804 43.2978 47.7739 42.801 47.1649C42.0868 46.2905 40.7927 46.2654 40.7796 46.2654C40.4871 46.2654 40.2498 46.028 40.2498 45.7356C40.2498 45.4431 40.4871 45.2057 40.7796 45.2057C40.8528 45.2057 42.5806 45.2207 43.6213 46.4938C44.3295 47.3612 44.5328 48.5642 44.2263 50.0707C43.7385 52.4677 37.2979 61.6288 36.5647 62.6655C36.4655 62.8057 36.3042 62.8899 36.132 62.8899L36.133 62.8909Z" fill="#231F20"/>
<path d="M31.4505 58.4845C31.2642 58.4845 31.0839 58.3864 30.9868 58.2121C30.8445 57.9567 30.9367 57.6341 31.1931 57.4919C31.2662 57.4518 38.5092 53.3931 41.7024 48.47C41.8617 48.2246 42.1902 48.1545 42.4347 48.3137C42.6801 48.473 42.7502 48.8005 42.5909 49.046C39.2524 54.1934 32.0135 58.2481 31.706 58.4184C31.6248 58.4635 31.5367 58.4845 31.4495 58.4845H31.4505Z" fill="#231F20"/>
<path d="M45.218 56.3952C45.1148 56.3952 45.0116 56.3651 44.9195 56.303C44.6781 56.1377 44.616 55.8082 44.7803 55.5668L48.239 50.4954H45.2911C44.9986 50.4954 44.7612 50.258 44.7612 49.9655C44.7612 49.6731 44.9986 49.4357 45.2911 49.4357H49.2416C49.438 49.4357 49.6182 49.5438 49.7094 49.7181C49.8016 49.8914 49.7895 50.1018 49.6783 50.264L45.6547 56.1638C45.5525 56.314 45.3863 56.3952 45.217 56.3952H45.218Z" fill="#231F20"/>
<path d="M21.2186 85.1916C21.1104 85.1916 21.0012 85.1586 20.9081 85.0905C20.6977 84.9382 20.6296 84.6557 20.7458 84.4234L33.3846 59.3169C33.5159 59.0555 33.8344 58.9513 34.0958 59.0825C34.3572 59.2138 34.4624 59.5323 34.3302 59.7937L23.1558 81.9913L31.5696 73.6356L30.3687 69.3966C30.3226 69.2323 30.3576 69.056 30.4638 68.9228C30.57 68.7896 30.7313 68.7164 30.9035 68.7234L35.6574 68.9508L42.5207 58.8872C42.686 58.6458 43.0155 58.5827 43.2569 58.748C43.4983 58.9123 43.5604 59.2418 43.3962 59.4842L36.3666 69.7922C36.2624 69.9445 36.0891 70.0306 35.9038 70.0226L31.5897 69.8163L32.6755 73.6476C32.7276 73.8329 32.6755 74.0322 32.5392 74.1674L21.5932 85.0374C21.491 85.1395 21.3558 85.1906 21.2196 85.1906L21.2186 85.1916Z" fill="#231F20"/>
<path d="M15.4091 159.16C15.38 159.16 15.35 159.157 15.3209 159.153C15.0325 159.104 14.8381 158.831 14.8862 158.543C16.593 148.414 16.2795 124.258 16.1283 112.649C16.0962 110.202 16.0712 108.269 16.0712 107.049C16.0712 97.1504 20.9422 84.0718 20.9923 83.9406C21.0955 83.6661 21.4 83.5289 21.6744 83.6311C21.9479 83.7342 22.0871 84.0397 21.9839 84.3132C21.9358 84.4424 17.1309 97.3447 17.1309 107.049C17.1309 108.263 17.156 110.192 17.188 112.636C17.3393 124.275 17.6538 148.496 15.9309 158.719C15.8869 158.977 15.6635 159.161 15.4091 159.161V159.16Z" fill="#231F20"/>
<path d="M74.2807 93.0527C74.0092 93.0527 73.7779 92.8453 73.7538 92.5699C73.7268 92.2594 70.9572 61.4195 66.0381 55.9685C61.74 51.2066 48.8818 51.6634 48.7516 51.6684C48.4541 51.6834 48.2127 51.453 48.2007 51.1606C48.1886 50.8681 48.416 50.6217 48.7085 50.6096C49.2574 50.5876 62.1967 50.1319 66.8244 55.2583C71.9799 60.9707 74.6954 91.1926 74.8086 92.4767C74.8346 92.7682 74.6192 93.0246 74.3278 93.0507C74.3117 93.0517 74.2957 93.0527 74.2807 93.0527Z" fill="#231F20"/>
<path d="M58.7615 101.921C58.5251 101.921 58.3087 101.762 58.2486 101.522C55.9388 92.4175 53.1482 83.8203 53.1202 83.7352C53.029 83.4567 53.1813 83.1582 53.4597 83.0681C53.7372 82.9769 54.0367 83.1302 54.1268 83.4076C54.1549 83.4938 56.9565 92.123 59.2743 101.261C59.3465 101.545 59.1752 101.833 58.8917 101.905C58.8476 101.916 58.8036 101.921 58.7615 101.921Z" fill="#231F20"/>
<path d="M19.1604 154.339C19.0603 154.339 18.9601 154.311 18.872 154.254C18.6957 154.139 18.6035 153.932 18.6376 153.725C21.6536 135.153 18.291 110.064 18.257 109.812C18.2219 109.559 18.3741 109.316 18.6176 109.237C30.0444 105.513 42.6662 102.821 56.1314 101.235C59.4279 100.847 62.8335 100.519 66.2531 100.259C66.3743 100.246 66.4986 100.283 66.5997 100.354L69.6277 102.495C69.8671 102.664 69.9232 102.995 69.7539 103.233C69.5846 103.472 69.2541 103.53 69.0157 103.36L66.144 101.328C62.8025 101.586 59.477 101.907 56.2557 102.286C43.0238 103.844 30.6133 106.476 19.3638 110.108C19.7905 113.484 22.3878 135.541 19.8596 152.757C24.364 150.06 44.8348 138.532 93.4019 120.607L74.1882 107.016C73.9498 106.846 73.8928 106.516 74.062 106.277C74.2313 106.039 74.5609 105.982 74.8003 106.151L94.8353 120.324C94.9956 120.437 95.0807 120.63 95.0547 120.825C95.0286 121.02 94.8974 121.185 94.7121 121.253C38.5394 141.926 19.6362 154.131 19.4519 154.252C19.3638 154.309 19.2626 154.338 19.1614 154.338L19.1604 154.339Z" fill="#231F20"/>
<path d="M67.1481 101.92C66.8647 101.92 66.6303 101.696 66.6193 101.41C66.6142 101.28 66.5121 98.198 67.7401 95.4114C68.6807 93.2789 71.1327 92.082 73.0699 92.0018C74.5674 91.9417 75.7473 92.5016 76.3133 93.5434C76.4525 93.8008 76.3573 94.1223 76.1009 94.2615C75.8425 94.4008 75.5219 94.3056 75.3827 94.0492C75.0171 93.3761 74.1897 93.0135 73.114 93.0606C71.5444 93.1257 69.467 94.1213 68.7097 95.8392C67.5818 98.3964 67.676 101.341 67.677 101.37C67.688 101.663 67.4596 101.908 67.1672 101.919C67.1602 101.919 67.1541 101.919 67.1471 101.919L67.1481 101.92Z" fill="#231F20"/>
<path d="M77.4367 109.196C77.4237 109.196 77.4117 109.196 77.3987 109.195C77.1072 109.174 76.8868 108.921 76.9079 108.629L77.3195 102.87L74.4438 99.7327C74.2465 99.5173 74.2605 99.1818 74.4768 98.9844C74.6922 98.7871 75.0278 98.8011 75.2251 99.0165L78.2551 102.322C78.3532 102.429 78.4033 102.572 78.3933 102.718L77.9656 108.704C77.9456 108.984 77.7132 109.196 77.4377 109.196H77.4367Z" fill="#231F20"/>
<path d="M81.9065 112.359C81.8604 112.359 81.8124 112.353 81.7653 112.34C81.4828 112.262 81.3175 111.971 81.3957 111.689C82.5315 107.565 84.015 100.553 83.1576 99.2949C81.2154 96.4462 73.8412 93.911 73.7671 93.886C73.4906 93.7918 73.3424 93.4903 73.4365 93.2139C73.5307 92.9374 73.8312 92.7892 74.1086 92.8833C74.4252 92.9915 81.8925 95.5587 84.033 98.6989C85.4163 100.728 82.9302 110.111 82.4174 111.972C82.3522 112.206 82.1389 112.36 81.9065 112.36V112.359Z" fill="#231F20"/>
<path d="M83.676 113.611C83.635 113.611 83.5939 113.606 83.5518 113.596C83.2674 113.527 83.0921 113.241 83.1602 112.958C83.1732 112.901 84.5104 107.321 84.8279 105.284C85.3678 101.821 83.7462 101.06 83.7291 101.053C83.4577 100.943 83.3275 100.634 83.4377 100.363C83.5478 100.092 83.8573 99.9611 84.1278 100.071C84.227 100.111 86.5518 101.107 85.8747 105.446C85.5511 107.525 84.246 112.973 84.1909 113.204C84.1328 113.446 83.9154 113.611 83.676 113.611Z" fill="#231F20"/>
<path d="M56.1918 102.292C55.9284 102.292 55.7 102.096 55.6669 101.827C55.0689 97.0212 55.4936 91.4359 55.4976 91.3799C55.5207 91.0884 55.7731 90.868 56.0666 90.8931C56.3581 90.9161 56.5764 91.1705 56.5534 91.462C56.5494 91.5171 56.1327 96.9981 56.7177 101.696C56.7537 101.986 56.5474 102.251 56.2569 102.287C56.2349 102.29 56.2128 102.291 56.1908 102.291L56.1918 102.292Z" fill="#231F20"/>
<path d="M63.2006 155.915C62.9352 155.915 62.7058 155.716 62.6748 155.447C61.5159 145.382 59.3002 135.181 59.2782 135.08C59.2151 134.794 59.3964 134.512 59.6828 134.45C59.9683 134.387 60.2508 134.568 60.3129 134.855C60.3349 134.957 62.5626 145.208 63.7275 155.326C63.7606 155.617 63.5522 155.879 63.2617 155.913C63.2407 155.915 63.2207 155.916 63.2006 155.916V155.915Z" fill="#231F20"/>
<path d="M62.8846 98.7681C62.7915 98.7681 62.6963 98.7431 62.6102 98.691C62.3598 98.5387 62.2806 98.2132 62.4329 97.9638C62.5491 97.7735 65.3247 93.2961 70.2658 92.8564C70.5513 92.8273 70.8137 93.0457 70.8398 93.3371C70.8658 93.6286 70.6505 93.886 70.359 93.9111C65.9457 94.3037 63.3634 98.4716 63.3384 98.5137C63.2392 98.678 63.0639 98.7681 62.8856 98.7681H62.8846Z" fill="#231F20"/>
<path d="M96.6666 117.419C96.4552 117.419 96.2559 117.292 96.1738 117.083C96.0666 116.811 96.1998 116.503 96.4723 116.396L101.101 114.568C101.372 114.46 101.681 114.594 101.788 114.867C101.895 115.139 101.762 115.447 101.49 115.554L96.8609 117.382C96.7968 117.407 96.7307 117.419 96.6666 117.419Z" fill="#231F20"/>
<path d="M104.069 121.931C104.051 121.931 104.033 121.931 104.014 121.928L98.0275 121.309C97.737 121.279 97.5247 121.019 97.5557 120.728C97.5858 120.438 97.8402 120.227 98.1367 120.256L104.124 120.875C104.414 120.906 104.626 121.166 104.596 121.457C104.568 121.73 104.338 121.932 104.07 121.932L104.069 121.931Z" fill="#231F20"/>
<path d="M98.0817 127.828C97.9525 127.828 97.8233 127.782 97.7221 127.687L95.1949 125.345C94.9806 125.146 94.9676 124.811 95.1669 124.597C95.3652 124.382 95.7008 124.369 95.9151 124.569L98.4413 126.91C98.6556 127.11 98.6687 127.444 98.4693 127.659C98.3652 127.771 98.2229 127.828 98.0807 127.828H98.0817Z" fill="#231F20"/>
<path d="M14.2658 70.873C14.2347 70.873 14.2037 70.87 14.1716 70.865C13.8831 70.8139 13.6918 70.5384 13.7439 70.25C15.5839 59.966 18.8964 55.2061 20.2356 53.6365C20.4249 53.4142 20.7595 53.3871 20.9818 53.5775C21.2042 53.7668 21.2313 54.1013 21.0409 54.3237C19.7588 55.8272 16.5816 60.4067 14.7866 70.4363C14.7405 70.6927 14.5172 70.873 14.2658 70.873Z" fill="#231F20"/>
<path d="M12.4689 70.4693C12.4378 70.4693 12.4068 70.4663 12.3747 70.4613C12.0872 70.4092 11.8949 70.1348 11.947 69.8463C14.399 56.1747 19.4233 51.7965 19.6357 51.6172C19.9292 51.3658 20.3178 51.2436 20.7024 51.2847C20.9929 51.3157 21.2043 51.5762 21.1732 51.8666C21.1422 52.1571 20.8797 52.3665 20.5913 52.3374C20.4951 52.3274 20.3979 52.3584 20.3218 52.4236C20.1185 52.5958 15.3746 56.7327 12.9897 70.0326C12.9436 70.289 12.7203 70.4683 12.4689 70.4683V70.4693Z" fill="#231F20"/>
<path d="M40.9132 72.1361C40.838 72.1361 40.7619 72.1201 40.6898 72.086C40.4244 71.9618 40.3102 71.6473 40.4334 71.3818C47.4269 56.3941 43.832 47.6126 43.6306 47.1609C43.5175 47.0357 43.3392 46.9966 43.1849 47.0627C42.9165 47.1789 42.6039 47.0567 42.4878 46.7883C42.3706 46.5198 42.4938 46.2083 42.7622 46.0911C43.3732 45.8247 44.0844 46.009 44.4911 46.5378C44.7425 46.8634 45.7101 49.4396 45.7962 53.5184C45.8773 57.3938 45.1802 63.7172 41.395 71.8286C41.3048 72.0209 41.1135 72.1341 40.9142 72.1341L40.9132 72.1361Z" fill="#231F20"/>
<path d="M39.5442 71.8727C39.4791 71.8727 39.413 71.8607 39.3479 71.8346C39.0764 71.7264 38.9442 71.4179 39.0524 71.1465C42.3108 62.973 43.6019 53.3631 43.026 50.5936C42.9659 50.3071 43.1502 50.0266 43.4366 49.9675C43.7221 49.9074 44.0036 50.0917 44.0627 50.3782C44.6787 53.3421 43.4166 63.0591 40.036 71.5391C39.9529 71.7465 39.7546 71.8727 39.5442 71.8727Z" fill="#231F20"/>
<path d="M38.5845 80.9065C38.2289 80.9065 37.8733 80.8454 37.5277 80.7172C36.6523 80.3917 35.9802 79.6925 35.6366 78.75C35.303 77.8365 35.3191 76.7978 35.6807 75.8261C36.4379 73.7888 38.4983 72.6689 40.2742 73.329C41.1497 73.6546 41.8218 74.3537 42.1654 75.2973C42.4989 76.2108 42.4829 77.2495 42.1213 78.2211C41.5113 79.8618 40.0559 80.9075 38.5845 80.9075V80.9065ZM39.2095 74.1965C38.1728 74.1965 37.125 74.9798 36.6733 76.1948C36.3999 76.931 36.3848 77.7093 36.6322 78.3864C36.8686 79.0334 37.3174 79.5082 37.8973 79.7246C39.1253 80.1803 40.5757 79.3409 41.1297 77.8505C41.4031 77.1143 41.4181 76.336 41.1707 75.6589C40.9343 75.0118 40.4856 74.537 39.9056 74.3207C39.6793 74.2365 39.4449 74.1965 39.2105 74.1965H39.2095Z" fill="#231F20"/>
<path d="M38.367 83.2344C37.807 83.2344 37.2461 83.1383 36.7022 82.9359C33.8846 81.8882 32.5774 78.3834 33.7894 75.1231C35.0014 71.8627 38.2798 70.0627 41.0985 71.1094C43.9161 72.1572 45.2233 75.6619 44.0113 78.9223C43.0327 81.5537 40.7088 83.2344 38.367 83.2344ZM39.4267 71.8697C37.5186 71.8697 35.6024 73.287 34.7831 75.4927C33.7744 78.2061 34.8011 81.0999 37.0718 81.9433C39.3416 82.7867 42.01 81.2662 43.0186 78.5537C44.0273 75.8402 43.0006 72.9465 40.7299 72.1031C40.3052 71.9448 39.8664 71.8697 39.4267 71.8697Z" fill="#231F20"/>
<path d="M4.66657 95.6349C4.0175 95.6349 3.51367 95.4446 3.16609 95.067C2.72737 94.5912 2.59114 93.852 2.76944 92.9285C2.81451 92.6981 2.88263 92.4156 2.96977 92.057C3.34739 90.5035 4.04955 87.6127 4.04655 83.4939C4.04354 78.3905 6.04885 73.1568 8.92359 70.7659C10.2558 69.6581 11.7262 69.2153 13.1756 69.4838C13.4631 69.5369 13.6534 69.8133 13.5993 70.1018C13.5462 70.3893 13.2698 70.5796 12.9813 70.5255C11.8344 70.3121 10.6975 70.6677 9.59971 71.5802C6.99241 73.7498 5.10129 78.7601 5.10429 83.4939C5.1073 87.7389 4.3851 90.7108 3.99747 92.3074C3.91533 92.644 3.84922 92.9184 3.80815 93.1298C3.69697 93.7007 3.74505 94.1334 3.94338 94.3488C4.16474 94.5892 4.62049 94.5952 4.96306 94.5571C5.25554 94.5251 5.51497 94.7354 5.54702 95.0259C5.57907 95.3164 5.36873 95.5778 5.07825 95.6099C4.93401 95.6259 4.79578 95.6339 4.66457 95.6339L4.66657 95.6349Z" fill="#231F20"/>
<path d="M5.70672 96.5634C5.13578 96.5634 4.71008 96.1247 4.60991 95.4216C4.49172 94.5872 4.85131 93.5835 5.63961 93.4162C5.66465 93.4112 5.6907 93.4072 5.71574 93.4062C5.83894 93.3972 6.93375 93.3481 7.53374 93.9501C7.80719 94.2246 7.9364 94.5862 7.90936 94.9969C7.82422 96.286 6.483 96.5905 5.75681 96.5614C5.73978 96.5614 5.72275 96.5624 5.70672 96.5624V96.5634ZM5.7518 95.5027C5.75881 95.5027 5.76682 95.5027 5.77383 95.5027C5.78185 95.5027 6.81255 95.5307 6.85161 94.9277C6.86063 94.7955 6.82357 94.7394 6.7835 94.6984C6.61021 94.5231 6.14545 94.459 5.84595 94.461C5.80388 94.496 5.71273 94.6232 5.66866 94.8686C5.61457 95.1731 5.67567 95.4266 5.72976 95.5027C5.73677 95.5027 5.74479 95.5027 5.7518 95.5027Z" fill="#231F20"/>
<path d="M14.7528 97.2585C14.4003 97.2585 14.0116 97.1624 13.5869 96.9711C13.3205 96.8509 13.2013 96.5373 13.3215 96.2709C13.4417 96.0045 13.7562 95.8853 14.0226 96.0065C14.3402 96.1497 14.7749 96.2869 15.0493 96.1277C15.2917 95.9864 15.455 95.5928 15.5091 95.0178C15.5291 94.8025 15.5421 94.519 15.5582 94.1714C15.6353 92.5257 15.7775 89.4617 16.9695 85.407C18.2967 80.8935 17.896 75.5177 16.0169 72.6259C15.2196 71.3979 14.226 70.6967 13.0631 70.5404C12.7736 70.5014 12.5692 70.2349 12.6083 69.9455C12.6474 69.656 12.9118 69.4506 13.2033 69.4907C14.6647 69.686 15.9448 70.5705 16.9054 72.0489C18.9708 75.2282 19.4145 80.8445 17.9862 85.7065C16.8303 89.638 16.691 92.6199 16.6169 94.2215C16.5999 94.5911 16.5859 94.8836 16.5638 95.117C16.4536 96.302 15.9688 96.8188 15.5822 97.0442C15.3348 97.1884 15.0583 97.2595 14.7528 97.2595V97.2585Z" fill="#231F20"/>
<path d="M13.0395 97.7374C12.9193 97.7374 12.7961 97.7153 12.6739 97.6682C11.9827 97.4649 10.7938 96.7678 11.0702 95.5217C11.1594 95.119 11.3868 94.8105 11.7263 94.6302C12.4746 94.2336 13.5123 94.6262 13.6285 94.6723C13.6525 94.6813 13.6745 94.6923 13.6966 94.7054C14.3957 95.107 14.4598 96.2028 14.0832 96.9751C13.8428 97.4659 13.4572 97.7384 13.0395 97.7384V97.7374ZM12.5096 95.5127C12.3954 95.5127 12.2943 95.5277 12.2221 95.5668C12.1921 95.5828 12.135 95.6129 12.1039 95.7511C11.9697 96.3541 12.9784 96.6536 12.9894 96.6566C13.0004 96.6596 13.0124 96.6636 13.0245 96.6676C13.1026 96.5985 13.2458 96.333 13.2538 95.9875C13.2579 95.7861 13.2108 95.672 13.1827 95.6349C12.9944 95.5698 12.73 95.5117 12.5096 95.5117V95.5127Z" fill="#231F20"/>
<path d="M71.0644 112.794C70.9963 112.794 70.9292 112.791 70.8621 112.784C69.9957 112.698 69.0692 111.998 69.0692 110.289C69.0692 105.903 68.5253 99.1066 68.5193 99.0385C68.4962 98.747 68.7136 98.4916 69.0051 98.4675C69.2985 98.4505 69.552 98.6619 69.576 98.9534C69.581 99.0215 70.1289 105.861 70.1289 110.289C70.1289 110.697 70.211 111.655 70.9673 111.729C71.8387 111.813 73.3001 110.706 73.7629 108.395C74.0914 106.752 74.3018 99.0595 74.3038 98.9814C74.3118 98.6889 74.5422 98.4605 74.8477 98.4665C75.1402 98.4746 75.3706 98.718 75.3625 99.0104C75.3535 99.331 75.1482 106.872 74.8016 108.602C74.2657 111.284 72.5229 112.793 71.0644 112.793V112.794Z" fill="#231F20"/>
</g>
<defs>
<clipPath id="clip0_1_6827">
<rect width="105" height="160" fill="white"/>
</clipPath>
</defs>
</svg>
