<svg width="204" height="126" viewBox="0 0 204 126" fill="none" xmlns="http://www.w3.org/2000/svg">
<g clip-path="url(#clip0_1_7462)">
<path d="M101.479 125.893C74.8744 125.228 54.9383 121.509 40.12 114.876C39.5922 114.639 39.0722 114.401 38.5573 114.156C38.2499 114.011 37.9426 113.862 37.6412 113.715C7.76261 99.1057 0 71.6962 0 32.7494C0 28.0618 0.204913 23.8306 0.61474 20.0158C0.627655 19.883 0.641431 19.7535 0.656929 19.6233L60.8653 17.1845L70.182 42.1246L74.6359 54.045L100.239 122.576L100.604 123.553L100.669 123.732L101.478 125.893H101.479Z" fill="#D8E9F1"/>
<path d="M188.413 96.8508L184.34 96.397C183.954 96.7188 183.351 96.8406 182.9 96.6456C183.343 97.3123 182.825 98.4636 182.14 98.8842C181.454 99.3049 180.587 99.7085 179.781 99.7264C176.14 99.8064 172.547 99.7656 169.059 99.0716C167.239 98.7097 165.576 97.5465 163.679 97.463C155.311 97.096 146.928 97.3311 138.551 97.4128C133.167 97.4648 127.761 97.452 122.431 96.7018C117.859 96.0589 113.324 94.8497 109.225 92.772C107.321 93.4252 104.259 92.7158 103.531 90.857C103.179 91.1039 102.891 91.4701 102.523 91.4905C100.984 91.5816 100.764 91.9341 99.3167 90.1553C98.6107 89.2851 94.8473 88.0461 94.4564 88.0206C93.6531 87.2184 92.7525 86.6649 91.542 86.8055C92.7448 90.197 94.7035 94.5866 96.8172 98.7267C98.28 101.586 99.4932 104.531 100.903 106.744C101.006 106.905 101.112 107.055 101.217 107.207C110.396 108.218 118.3 110.995 127.485 112.291C133.693 113.168 141.253 112.657 147.447 113.413C153.482 114.149 161.282 116.282 167.345 116.438C173.079 116.586 179.33 115.869 179.33 115.869C180.087 113.433 180.135 109.392 179.131 105.615C178.795 104.348 188.414 96.85 188.414 96.85L188.413 96.8508Z" fill="white"/>
<path d="M96.815 98.7267C94.7013 94.5866 92.7426 90.1979 91.5398 86.8055C92.7503 86.665 93.6509 87.2184 94.4542 88.0206C94.8451 88.047 98.6084 89.2851 99.3144 90.1553C100.762 91.9342 100.982 91.5808 102.521 91.4905C102.888 91.4701 103.177 91.1039 103.529 90.857C104.256 92.7159 107.319 93.4252 109.223 92.772C108.542 92.4272 107.872 92.0602 107.217 91.6659C106.901 91.4752 106.573 91.2623 106.411 90.9336C106.244 90.5973 106.282 90.2013 106.337 89.8309C106.601 88.1117 107.207 86.4563 107.991 84.8998C108.307 84.2696 108.655 83.6565 109.03 83.0579C109.492 82.1706 109.96 81.3855 110.338 80.7963C110.903 79.8443 111.681 79.261 112.456 78.7995C112.921 78.3439 113.405 77.9071 113.908 77.4916C113.421 77.3366 112.92 77.2361 112.397 77.2216L114.492 77.0232C114.295 77.1756 114.1 77.3323 113.908 77.4916C114.073 77.5435 114.236 77.6031 114.399 77.667C114.732 77.4243 115.006 77.1535 115.178 76.8095L116.464 77.5988C116.167 76.7422 114.981 75.0358 114.421 74.3137C114.022 73.7994 113.353 73.7679 112.748 73.7449C111.448 73.7764 110.913 72.2436 109.742 72.0129C107.904 71.9243 107.704 72.4829 106.441 71.0728C93.6337 60.2866 90.9948 56.1602 79.9424 54.6513C78.2747 54.4231 76.6336 54.1787 74.6353 54.0459C74.0894 54.0092 73.5169 53.9811 72.9099 53.9624C71.0794 53.9105 68.2778 53.5392 66.0668 53.5571C66.6574 53.7572 67.2644 53.9471 67.8809 54.1182C68.5877 56.5101 67.5236 59.1311 65.4942 60.5668C55.5732 64.1951 44.8565 59.7331 35.9204 55.347C35.96 55.3052 36.0048 55.2661 36.0513 55.2278C36.2614 55.0455 36.5343 54.8744 36.852 54.693C36.9097 54.6589 36.9674 54.6283 37.0276 54.5942C36.9648 54.607 36.8985 54.6198 36.8356 54.6334C32.1958 55.5505 28.07 56.7137 25.3389 58.5657C20.5726 61.7989 19.5092 66.5393 19.3069 71.4168C19.1778 74.5104 19.3147 77.7853 20.5149 81.0415C22.7078 87.0047 26.5021 92.9705 30.1553 99.5305C33.0645 104.756 36.2347 109.584 38.5559 114.157C39.0707 114.401 39.5908 114.64 40.1185 114.877C54.9369 121.51 74.8738 125.229 101.477 125.894L105.556 125.971C104.983 125.756 102.36 124.527 100.669 123.732C99.8207 123.33 99.2085 123.039 99.2085 123.039C99.5495 122.886 99.8939 122.73 100.238 122.577C103.657 121.055 107.108 119.619 110.658 118.463C112.423 118.094 111.273 116.804 110.301 116.344C107.317 114.934 103.531 115.209 104.466 110.823C103.638 110.04 102.359 108.867 101.213 107.209C101.108 107.056 101.002 106.906 100.9 106.745C99.4892 104.532 98.2761 101.588 96.8133 98.7284L96.815 98.7267ZM107.319 71.989C107.093 71.9184 106.875 71.8358 106.665 71.7293C106.213 71.5011 105.822 71.1784 105.446 70.8386L107.319 71.989Z" fill="#F6977A"/>
<path d="M112.456 78.7995C111.15 80.0793 109.998 81.5124 109.03 83.058C108.656 83.6557 108.308 84.2697 107.991 84.8998C107.208 86.4564 106.601 88.1117 106.338 89.8309C106.281 90.2013 106.244 90.5973 106.411 90.9336C106.574 91.2623 106.902 91.4752 107.218 91.666C107.872 92.0602 108.543 92.4272 109.223 92.7721C113.322 94.8498 117.858 96.0581 122.429 96.7018C127.759 97.452 133.165 97.4648 138.549 97.4128C146.925 97.3311 155.308 97.0961 163.678 97.4631C165.575 97.5465 167.238 98.7097 169.057 99.0716C172.544 99.7656 176.139 99.8073 179.779 99.7264C180.586 99.7085 181.453 99.3041 182.138 98.8843C182.823 98.4645 183.342 97.3124 182.898 96.6456C183.35 96.8398 183.952 96.7189 184.339 96.397C184.456 96.2999 184.555 96.1858 184.622 96.0547C184.911 95.4884 184.737 95.1359 185.225 94.7246C185.593 94.4147 185.8 94.0664 186.073 93.6721C186.364 93.2498 186.578 92.8989 186.725 92.4085C186.837 92.0381 187.22 91.4505 187.405 91.1099C188.1 89.8318 187.642 88.4676 186.801 87.2789C185.959 86.0902 184.686 85.2762 183.397 84.5813C182.933 82.8834 181.696 81.4086 180.096 80.6413C178.055 79.6638 174.964 80.5613 172.865 81.4094C170.766 82.2575 169.596 82.9949 167.896 84.48C167.08 85.1936 166.269 85.9301 165.318 86.4555C162.811 87.8401 159.219 87.9397 156.366 87.6102C152.426 87.1546 150.008 85.9191 146.077 85.3869C143.423 85.0275 141.658 84.5839 139.083 83.8516C134.415 82.5258 128.565 80.8457 123.708 80.8627C121.823 80.8696 119.702 80.1832 117.977 79.4296C116.764 78.9 115.615 78.143 114.398 77.667C114.237 77.6031 114.073 77.5435 113.908 77.4916C113.405 77.9071 112.921 78.344 112.455 78.7995H112.456Z" fill="#FDE7DC"/>
<path d="M75.4154 54.4401C75.3707 54.458 75.3207 54.469 75.2734 54.469C75.1158 54.469 74.966 54.3728 74.9057 54.2196L70.1815 42.1246L60.5988 17.5847L0.614258 20.0158C0.627173 19.8829 0.640948 19.7535 0.656446 19.6232C0.669361 19.4938 0.685719 19.3635 0.701217 19.2332L60.8494 16.7945C61.0172 16.7868 61.1722 16.8881 61.2325 17.044L75.641 53.936C75.7194 54.1387 75.6203 54.3643 75.4154 54.4401Z" fill="#231F20"/>
<path d="M138.309 125.264C131.701 125.601 124.546 125.828 116.791 125.95C113.233 126.004 109.783 126.014 106.432 125.981C106.138 125.979 105.846 125.974 105.558 125.971C102.377 124.633 100.043 123.73 96.7715 122.343C99.2106 123.038 97.883 123.974 100.24 122.577C105.031 119.735 103.169 121.008 110.132 118.307C111.056 117.957 111.172 118.777 111.553 118.762C119.953 120.305 126.093 122.18 135.158 124.385C135.933 124.575 137.067 124.894 138.31 125.265L138.309 125.264Z" fill="#006991"/>
<path d="M179.627 94.6565C179.474 94.2409 179.326 93.7871 179.385 93.3392C179.437 92.9424 179.668 92.6401 179.986 92.4204C179.271 91.5008 178.701 89.9629 179.654 89.0603C178.979 88.196 179.322 86.5977 180.527 86.5637C180.441 86.2401 180.444 85.9105 180.578 85.5912C180.676 85.3579 180.823 85.151 180.98 84.9517C179.947 84.5055 178.786 84.2543 177.557 84.2543C173.256 84.2543 169.77 87.3241 169.77 91.1099C169.77 94.8958 173.257 97.9655 177.557 97.9655C178.476 97.9655 179.357 97.8241 180.175 97.567C180.148 96.575 179.974 95.5949 179.627 94.6565Z" fill="#853D36"/>
<path d="M106.432 71.8435C105.98 71.6144 105.59 71.2934 105.213 70.9536L107.086 72.1032C106.861 72.0334 106.641 71.9499 106.431 71.8435H106.432ZM34.2084 106.162C34.1851 106.126 34.1636 106.09 34.143 106.053C32.5648 103.342 31.2544 101.137 30.879 100.508C30.8661 100.487 30.8549 100.469 30.8445 100.451C30.8153 100.402 30.7972 100.368 30.7843 100.347C27.3076 94.3193 22.5808 85.7982 20.6479 81.0118C18.3767 75.3866 19.4796 65.2059 22.7909 61.2089C26.0153 57.3183 33.0616 55.7421 35.9338 55.2482C36.1645 55.0686 36.459 54.8949 36.7948 54.7084C32.0757 55.6331 27.8741 56.8014 25.107 58.679C20.3406 61.9148 19.2773 66.6526 19.0749 71.5293C18.9466 74.6228 19.0853 77.8978 20.2829 81.154C22.4758 87.1172 26.2701 93.0829 29.9233 99.643C30.0283 99.8329 30.1359 100.022 30.241 100.212C32.4572 104.142 34.7973 107.847 36.7827 111.39C37.3527 112.198 37.9752 113.067 38.6209 113.95C37.2735 111.477 35.6376 108.621 34.2092 106.161L34.2084 106.162Z" fill="#FFCE7E"/>
<path d="M35.688 55.4603C42.9409 59.1695 51.0074 62.1294 59.2668 62.1898L65.2618 60.6826C67.292 59.2453 68.3562 56.626 67.6493 54.2341C65.7784 53.7206 63.4383 52.8614 62.0271 51.9861C60.6228 51.1277 60.1588 43.1328 60.1588 43.1328C65.2024 43.6293 66.4904 39.6936 67.4418 33.3506C67.955 29.7776 66.8236 26.9165 66.1736 23.7404C65.8921 21.2258 64.6014 15.2209 64.3328 14.2749C64.3242 14.2817 64.3182 14.2868 64.3182 14.2868C62.9828 9.08488 56.5573 8.30148 50.8404 11.7118C48.7361 12.9065 47.0004 18.5103 45.1941 20.0124C44.6387 20.422 45.1829 23.4389 43.3214 25.205C41.6434 26.937 38.7126 26.4703 36.8529 27.5245C33.0275 30.9851 38.8228 35.539 41.3059 34.868C41.3059 34.868 43.6202 47.3496 41.1526 51.9282C40.4397 53.2727 37.1017 54.2213 35.6888 55.4611L35.688 55.4603Z" fill="#FDE7DC"/>
<path d="M36.8514 27.5236C38.1334 26.684 39.721 26.9216 41.3009 26.3894C45.0049 25.3157 44.5675 21.3919 45.1926 20.0124C46.9998 18.5103 48.7346 12.9065 50.8397 11.7118C56.5325 8.30573 63.0028 9.08657 64.3175 14.2868C70.3788 9.35991 61.5546 2.03174 56.0452 1.23728C50.4239 -1.10951 34.7118 2.49667 33.4384 8.92308C26.1976 12.7796 30.0264 25.5609 35.5082 30.6828C35.5702 30.1531 35.807 28.1572 36.8514 27.5236Z" fill="#C37B7B"/>
<path fill-rule="evenodd" clip-rule="evenodd" d="M60.3505 43.281C60.3505 43.281 58.3883 43.5169 54.7007 43.1039C51.2689 42.6602 46.9502 39.9252 46.9502 39.9252C46.9502 39.9252 51.8681 45.4141 55.8088 46.481C59.4835 47.4943 60.5201 46.7705 60.5201 46.7705L60.3505 43.2802V43.281Z" fill="#231F20"/>
<path d="M35.7099 55.8273C35.5687 55.8273 35.4318 55.7523 35.3612 55.6204C35.2596 55.4305 35.3328 55.1946 35.5248 55.0933C38.1947 53.6942 40.6528 52.2518 41.3975 50.002C41.8341 48.7912 42.293 46.1549 41.2796 37.1782C41.2555 36.9644 41.4113 36.772 41.6274 36.7482C41.8435 36.7243 42.0381 36.8784 42.0622 37.0922C43.0825 46.1268 42.6417 48.8721 42.1432 50.2541C41.3106 52.7678 38.5994 54.3635 35.8941 55.7822C35.8356 55.8128 35.7719 55.8273 35.7099 55.8273Z" fill="#231F20"/>
<path d="M116.233 78.103C116.069 78.103 115.917 78.0016 115.86 77.8398C115.586 77.0496 114.432 75.3815 113.876 74.6645C113.606 74.3171 113.136 74.2728 112.501 74.249C111.91 74.226 111.343 73.9901 110.908 73.584C110.824 73.5065 110.742 73.4256 110.658 73.3447C110.262 72.9598 109.888 72.5962 109.435 72.5093C108.897 72.4072 107.905 72.5638 107.568 72.6337C107.48 72.6515 107.389 72.6396 107.308 72.5996C107.012 72.4497 106.705 72.1636 106.409 71.8869C106.246 71.7336 106.091 71.5897 105.969 71.4977C103.393 69.5742 100.981 67.3764 98.6483 65.251C96.4364 63.2354 94.1497 61.1518 91.7389 59.3193C87.8163 56.3364 84.2062 55.7779 82.665 55.5394C82.3835 55.496 82.1803 55.4645 82.0382 55.4279C80.6934 55.0796 77.8969 54.8684 74.936 54.6445C69.9638 54.2681 64.3279 53.8415 62.2873 52.6042C60.4087 51.4717 60.0169 48.3918 59.9756 43.453C59.9739 43.2375 60.1487 43.0621 60.3665 43.0604C60.5826 43.0596 60.7617 43.2316 60.7634 43.447C60.8013 47.9933 61.1388 51 62.698 51.9401C64.5775 53.0794 70.3539 53.5171 74.9963 53.8679C78.1234 54.1046 80.8243 54.309 82.238 54.6751C82.3422 54.7015 82.5385 54.7322 82.7873 54.7705C84.3887 55.0183 88.1374 55.5982 92.2193 58.7028C94.6568 60.5566 96.9573 62.6522 99.1821 64.6796C101.501 66.7922 103.899 68.9764 106.444 70.8778C106.602 70.9953 106.772 71.1537 106.952 71.3223C107.154 71.5114 107.379 71.7217 107.561 71.8443C107.94 71.7762 108.932 71.6229 109.585 71.7472C110.272 71.8784 110.771 72.3637 111.211 72.7912C111.29 72.8687 111.369 72.9453 111.448 73.0185C111.746 73.2961 112.13 73.4571 112.532 73.4724C113.145 73.4954 113.985 73.5278 114.501 74.1919C115.047 74.8961 116.279 76.6528 116.605 77.5886C116.676 77.7922 116.566 78.0135 116.36 78.0834C116.318 78.0979 116.275 78.1047 116.232 78.1047L116.233 78.103Z" fill="#231F20"/>
<path d="M58.6854 43.6216C56.0241 43.6216 53.1389 43.2716 51.4316 42.6475C48.3037 41.4622 45.6863 39.0753 45.5761 38.974C45.4168 38.8276 45.4073 38.5815 45.5554 38.4239C45.7035 38.2664 45.9523 38.257 46.1116 38.4035C46.1374 38.4273 48.7307 40.7903 51.708 41.9186C54.9806 43.1149 62.4341 43.1618 63.9718 41.9935C64.9378 41.2322 65.8625 39.2278 66.5022 36.4978C67.2229 33.3634 67.3761 31.0847 67.0136 28.8793C66.7252 27.3099 66.4807 26.5308 66.2439 25.778C66.0528 25.1701 65.8728 24.5953 65.68 23.6603C65.488 22.5772 65.3769 21.5162 65.2693 20.4901C65.215 19.9707 65.1608 19.4487 65.0954 18.9182C65.079 18.8348 65.0592 18.7326 65.0377 18.6142C64.7613 17.1351 64.0269 13.2071 61.4155 10.7768C61.2571 10.6295 61.2494 10.3826 61.3983 10.2259C61.5473 10.0692 61.797 10.0616 61.9554 10.2089C64.7553 12.8145 65.5233 16.9248 65.8126 18.472C65.835 18.5938 65.8548 18.6968 65.8711 18.7794C65.8728 18.7888 65.8746 18.799 65.8763 18.8092C65.9426 19.3491 65.9985 19.8804 66.0536 20.4092C66.1647 21.4685 66.2689 22.469 66.4549 23.5147C66.6374 24.4011 66.8122 24.9572 66.9973 25.5464C67.2409 26.3222 67.4923 27.1234 67.7911 28.7473C68.1717 31.0651 68.0158 33.4332 67.2711 36.6724C66.5814 39.6144 65.5827 41.721 64.4582 42.6074C63.5387 43.3057 61.2132 43.6216 58.6854 43.6216Z" fill="#231F20"/>
<path d="M41.3422 35.3048C38.7722 35.3048 36.9813 34.3579 35.8741 32.4164C35.0002 30.9144 35.0415 29.1057 35.9783 27.9204C36.9064 26.7462 38.5156 26.3775 40.3934 26.908C40.6026 26.9676 40.724 27.183 40.6637 27.3899C40.6035 27.5968 40.3865 27.7152 40.1764 27.6573C38.6008 27.2111 37.33 27.4751 36.5982 28.3998C35.856 29.3382 35.8405 30.7977 36.5577 32.0307C37.5556 33.7806 39.2199 34.598 41.6435 34.5214C41.8596 34.5188 42.0422 34.684 42.049 34.8986C42.0559 35.114 41.8846 35.2929 41.6668 35.2997C41.5566 35.3031 41.4481 35.3048 41.3405 35.3048H41.3422Z" fill="#231F20"/>
<path d="M39.9202 31.7403C39.8169 31.7403 39.7136 31.7003 39.6361 31.6203C39.6309 31.6152 39.0928 31.0685 38.4686 30.8488C38.2637 30.7764 38.1569 30.5533 38.2301 30.3507C38.3033 30.148 38.5289 30.0424 38.7338 30.1148C39.5362 30.3975 40.1776 31.0532 40.2052 31.0813C40.3559 31.2362 40.3507 31.4832 40.1931 31.6322C40.1165 31.7046 40.0184 31.7403 39.9202 31.7403Z" fill="#231F20"/>
<path d="M61.6785 29.1236C61.6122 29.1236 61.5459 29.1074 61.4839 29.0725C61.2945 28.9661 61.229 28.7285 61.3367 28.5412C61.7327 27.8532 61.8928 27.361 61.8119 27.0791C61.7482 26.856 61.5028 26.7138 61.1076 26.4992C60.6169 26.2327 60.0056 25.9015 59.6517 25.1632C58.9147 23.6271 59.0964 21.5962 59.105 21.5102C59.1248 21.2956 59.3194 21.1381 59.5338 21.1585C59.7507 21.1781 59.9092 21.368 59.8893 21.5826C59.8876 21.6013 59.7215 23.4891 60.3637 24.8294C60.6083 25.3395 61.0551 25.5822 61.4865 25.8163C61.9419 26.0633 62.4137 26.3196 62.5704 26.8671C62.7168 27.378 62.5472 28.0132 62.022 28.9269C61.9497 29.0529 61.8162 29.1236 61.6793 29.1236H61.6785Z" fill="#231F20"/>
<path d="M58.9708 34.3775C58.1133 34.3775 57.2902 34.2481 56.5911 33.973C56.3887 33.8938 56.2906 33.6673 56.3707 33.4672C56.4507 33.2671 56.6798 33.1692 56.8821 33.2492C58.821 34.0113 61.9645 33.4808 63.6089 32.1133C63.776 31.9754 64.0239 31.9958 64.1643 32.161C64.3037 32.3253 64.2822 32.5714 64.116 32.7102C62.8383 33.7721 60.8237 34.3783 58.9717 34.3783L58.9708 34.3775Z" fill="#231F20"/>
<path d="M49.5014 19.5134C49.3972 19.5134 49.2939 19.4734 49.2164 19.3925C49.0666 19.2375 49.0718 18.9914 49.2285 18.8432C49.3103 18.7657 51.2638 16.952 54.4934 17.3735C54.7086 17.4016 54.861 17.5975 54.8326 17.8103C54.8042 18.0241 54.6062 18.1748 54.3909 18.1458C51.548 17.7754 49.7907 19.3899 49.7735 19.4061C49.6969 19.4776 49.5996 19.5134 49.5023 19.5134H49.5014Z" fill="#231F20"/>
<path d="M60.8652 17.5745C60.7533 17.5745 60.6413 17.5268 60.563 17.4357C60.4235 17.2714 60.4442 17.0253 60.6112 16.8865C62.576 15.2533 64.5554 16.0111 64.6389 16.0443C64.8403 16.1244 64.9385 16.3517 64.8576 16.551C64.7766 16.7502 64.5485 16.8473 64.347 16.7681C64.2781 16.7417 62.7094 16.161 61.1183 17.4834C61.0443 17.5447 60.9547 17.5745 60.8652 17.5745Z" fill="#231F20"/>
<path d="M35.4772 30.819C35.3971 30.819 35.3162 30.7952 35.2456 30.7449C35.1294 30.6615 32.3699 28.6332 30.6084 23.5607C30.5378 23.3572 30.6471 23.1358 30.8529 23.066C31.0578 22.9961 31.2825 23.1043 31.3531 23.3078C33.0355 28.1504 35.683 30.0952 35.7088 30.1148C35.8845 30.2417 35.9232 30.4852 35.7958 30.6589C35.7183 30.7637 35.5986 30.819 35.4764 30.819H35.4772Z" fill="#231F20"/>
<path d="M30.2662 20.8273C30.125 20.8273 29.989 20.7524 29.9184 20.6204C27.6609 16.4164 29.1986 11.9604 31.7919 9.90145C31.9615 9.76691 32.2094 9.79331 32.3455 9.96106C32.4815 10.1288 32.4548 10.374 32.2852 10.5086C29.9382 12.3717 28.5554 16.4207 30.614 20.2551C30.7165 20.445 30.6433 20.6808 30.4513 20.7822C30.3928 20.8128 30.3291 20.8281 30.2671 20.8281L30.2662 20.8273Z" fill="#231F20"/>
<path d="M61.6357 2.98118C60.2409 2.98118 58.8926 2.47453 57.5796 1.98235C56.4586 1.5617 55.2997 1.12657 54.1064 0.996291C53.9264 0.978409 53.7439 0.957972 53.5597 0.937536C51.8093 0.745093 49.9986 0.546689 47.0644 1.5038C46.8578 1.57107 46.6348 1.46037 46.5668 1.256C46.4988 1.05164 46.6107 0.831096 46.8173 0.763826C49.9151 -0.246074 51.8971 -0.0289372 53.6466 0.163506C53.8283 0.183942 54.01 0.203527 54.1899 0.221409C55.4857 0.362761 56.6919 0.815769 57.8585 1.2543C59.4376 1.84696 60.9297 2.40726 62.4519 2.13051C62.6654 2.09134 62.8712 2.23184 62.9108 2.44302C62.9504 2.65505 62.8083 2.85771 62.5948 2.89688C62.2728 2.95563 61.9525 2.98118 61.6357 2.98118Z" fill="#231F20"/>
<path d="M33.4494 9.39737C33.4356 9.39737 33.4219 9.39737 33.4072 9.39481C33.1911 9.37182 33.0344 9.18023 33.0568 8.9665C33.3297 6.42557 35.7956 4.38022 37.8249 3.40012C38.6885 2.9948 39.6029 2.6874 40.4879 2.38937C42.1944 1.81545 43.8053 1.27303 45.0167 0.109858C45.1725 -0.0400089 45.4222 -0.0366028 45.5738 0.118373C45.7253 0.272498 45.7218 0.519439 45.5651 0.669306C44.2272 1.9551 42.4553 2.55116 40.7411 3.12764C39.8775 3.41801 38.9847 3.71859 38.1659 4.10263C36.3217 4.99332 34.0788 6.82493 33.8403 9.0491C33.8188 9.2492 33.6483 9.39737 33.4494 9.39737Z" fill="#231F20"/>
<path d="M64.5528 14.4767C64.4512 14.4767 64.3487 14.4375 64.2721 14.36C64.1197 14.2068 64.1214 13.9598 64.2764 13.8091C65.6023 12.5173 66.174 11.1328 65.9734 9.6937C65.7341 7.97279 64.3117 6.20844 62.2609 5.08869C62.0706 4.98481 62.0017 4.74809 62.1068 4.55905C62.2118 4.37086 62.4511 4.30274 62.6423 4.40663C64.9402 5.66177 66.4771 7.59812 66.7543 9.58726C66.9868 11.2588 66.3213 12.9107 64.8292 14.3634C64.7525 14.4384 64.6527 14.475 64.5528 14.475V14.4767Z" fill="#231F20"/>
<path d="M39.7923 22.8854C39.5452 22.8854 39.2963 22.8727 39.0458 22.8471C38.8297 22.825 38.6721 22.6334 38.6945 22.4197C38.7169 22.2059 38.9115 22.0509 39.1267 22.0722C41.4987 22.3158 43.751 21.2403 45.8251 18.8748C46.8833 17.6852 47.4705 16.339 48.0379 15.0378C48.9255 13.0019 49.7641 11.0783 52.2661 10.7198C52.4814 10.6891 52.6811 10.8365 52.7121 11.0493C52.7431 11.2622 52.5942 11.4598 52.3789 11.4904C50.3126 11.7859 49.6281 13.3569 48.7611 15.3461C48.1972 16.6404 47.5574 18.1067 46.4184 19.3874C44.3813 21.7112 42.1539 22.8863 39.7905 22.8863L39.7923 22.8854Z" fill="#231F20"/>
<path d="M42.1037 26.0403C41.8075 26.0403 41.4976 25.9977 41.1799 25.9109C40.9698 25.8538 40.8467 25.6401 40.9035 25.4323C40.9612 25.2245 41.179 25.1028 41.3874 25.1598C42.0615 25.342 42.6427 25.2807 43.1171 24.9793C43.6233 24.6557 43.991 24.0571 44.1003 23.3767C44.1348 23.1639 44.3362 23.02 44.5506 23.0532C44.7659 23.0872 44.9122 23.2865 44.8778 23.4985C44.734 24.3943 44.2355 25.1922 43.5441 25.6341C43.1205 25.904 42.6323 26.0411 42.1037 26.0411V26.0403Z" fill="#231F20"/>
<path d="M59.8039 9.65281C59.7006 9.65281 59.5973 9.61279 59.5198 9.53275C59.3691 9.37777 59.3743 9.13083 59.5319 8.98182C60.0846 8.45728 60.3059 7.51124 60.1096 6.51412C60.0683 6.30294 60.2077 6.09857 60.4213 6.0577C60.6356 6.01598 60.8414 6.15478 60.8827 6.36595C61.1298 7.62109 60.8208 8.83961 60.0769 9.54552C60.0002 9.6179 59.9021 9.65366 59.8039 9.65366V9.65281Z" fill="#231F20"/>
<path d="M55.4421 10.0913C55.2889 10.0913 55.1425 10.0019 55.0788 9.85291C54.6534 8.85578 53.9543 8.10218 53.1605 7.78627C52.5535 7.54444 51.9121 7.56317 51.2543 7.84247C51.0554 7.92677 50.8229 7.83566 50.7368 7.63811C50.6516 7.44055 50.7437 7.2115 50.9435 7.12634C51.789 6.76786 52.6577 6.74657 53.455 7.06418C54.4416 7.45759 55.2975 8.3636 55.8037 9.55147C55.8881 9.74987 55.7942 9.97808 55.5936 10.0615C55.5437 10.0828 55.492 10.0922 55.4404 10.0922L55.4421 10.0913Z" fill="#231F20"/>
<path fill-rule="evenodd" clip-rule="evenodd" d="M64.1197 22.5312C64.0155 21.6873 63.3353 21.0836 62.7378 21.156C62.1403 21.2275 61.7219 22.0492 61.9113 22.8828C62.0155 23.7267 62.6956 24.3304 63.2931 24.258C63.8907 24.1865 64.3194 23.4491 64.1197 22.5312Z" fill="#231F20"/>
<path fill-rule="evenodd" clip-rule="evenodd" d="M54.4918 23.2907C54.3032 22.4571 53.6222 21.8534 52.9497 22.0203C52.2773 22.1872 51.8486 22.9237 52.0483 23.8417C52.2377 24.6753 52.9179 25.279 53.5903 25.1121C54.2627 24.9452 54.6915 24.2087 54.4918 23.2907Z" fill="#231F20"/>
<path d="M97.4513 122.143C83.6782 116.081 65.6897 107.568 64.7736 106.82C64.288 106.272 63.3298 105.793 62.6074 105.487C62.2578 105.339 61.9694 105.09 61.7722 104.765C59.6215 101.223 42.4449 76.5625 41.5125 75.9052C41.3369 75.7774 41.082 75.8141 40.9563 75.9878C40.8306 76.1649 40.8642 76.4008 41.0407 76.5251C41.8491 77.2497 58.3197 100.592 61.0981 105.166C61.3814 105.631 61.7963 105.989 62.2983 106.2C63.2195 106.592 63.8894 106.994 64.189 107.34C64.9665 108.241 91.1265 120.398 104.346 125.951C104.747 125.958 105.152 125.963 105.559 125.968C105.848 125.971 106.139 125.976 106.433 125.979C103.891 124.94 100.795 123.613 97.4522 122.14L97.4513 122.143Z" fill="#231F20"/>
<path d="M51.5783 112.45C51.5241 112.45 51.4681 112.439 51.4156 112.415C51.2176 112.326 51.1298 112.095 51.2202 111.899C52.6778 108.726 55.7326 106.344 59.192 105.682C59.4055 105.64 59.6121 105.779 59.6535 105.99C59.6948 106.201 59.5553 106.406 59.3418 106.447C56.1286 107.061 53.2917 109.274 51.9374 112.221C51.8711 112.365 51.7281 112.449 51.5783 112.449V112.45Z" fill="#231F20"/>
<path d="M58.0624 62.6172C48.3394 62.6172 35.7441 56.0946 35.1466 55.7821C34.9546 55.6816 34.8805 55.4457 34.9821 55.2559C35.0837 55.066 35.3222 54.9927 35.5142 55.0932C35.6769 55.1784 51.9228 63.5922 61.5003 61.4992C64.9658 60.7422 67.014 59.5032 67.5875 57.8189C68.2814 55.783 66.5483 53.7282 66.531 53.7078C66.3907 53.5435 66.4105 53.2982 66.5767 53.1586C66.7428 53.0189 66.9908 53.0402 67.132 53.2037C67.2155 53.3008 69.1682 55.6195 68.3339 58.0676C67.6658 60.0295 65.4238 61.4396 61.6699 62.2605C60.5378 62.5082 59.3238 62.6181 58.0624 62.6181V62.6172Z" fill="#231F20"/>
<path d="M107.075 93.6909C105.706 93.6909 104.331 93.1561 103.419 92.1377L103.375 92.0892C103.279 91.9802 103.187 91.8771 103.103 91.8439C102.962 91.7894 102.742 91.838 102.529 91.8857L102.475 91.8976C100.788 92.2637 99.9614 91.5527 99.0875 90.7983C98.8611 90.6033 98.6277 90.4015 98.3677 90.2073C96.9058 89.1165 94.7688 88.2905 92.8833 87.5617C92.2083 87.3011 91.5711 87.055 90.9745 86.8021C90.7747 86.7178 90.6817 86.4887 90.767 86.2912C90.8522 86.0936 91.0838 86.0008 91.2836 86.086C91.869 86.3329 92.501 86.5773 93.17 86.8362C95.1029 87.5829 97.2932 88.4293 98.8421 89.5857C99.1237 89.796 99.3682 90.0072 99.605 90.2107C100.449 90.9388 101.006 91.419 102.305 91.1363L102.358 91.1244C102.655 91.0588 103.025 90.9771 103.39 91.1176C103.653 91.2198 103.828 91.4165 103.968 91.5757L104.008 91.6208C105.322 93.088 107.787 93.3545 109.39 92.2024C109.567 92.0764 109.813 92.1147 109.94 92.2884C110.068 92.463 110.029 92.7065 109.853 92.8325C109.049 93.4099 108.063 93.69 107.074 93.69L107.075 93.6909Z" fill="#231F20"/>
<path d="M109.165 93.0233C108.293 93.0233 107.422 92.5813 106.947 91.849C106.32 90.8808 106.444 89.6606 106.623 88.7061C107.388 84.6205 109.5 80.8074 112.569 77.9701C112.949 77.6193 113.402 77.225 113.969 76.9943C114.551 76.755 115.938 77.2208 116.403 77.7019C116.718 78.028 116.626 78.3295 116.572 78.4444C116.48 78.6394 116.246 78.7237 116.049 78.6318C115.889 78.5577 115.802 78.3908 115.826 78.2264C115.594 77.9786 114.549 77.627 114.267 77.7155C113.826 77.896 113.437 78.2349 113.108 78.5389C110.161 81.2638 108.134 84.9245 107.398 88.8474C107.246 89.6606 107.132 90.6892 107.612 91.4275C108.015 92.0474 108.864 92.377 109.584 92.1922C109.796 92.1394 110.01 92.2637 110.065 92.4715C110.119 92.6801 109.993 92.8921 109.782 92.9466C109.581 92.9986 109.373 93.0233 109.167 93.0233H109.165Z" fill="#231F20"/>
<path d="M103.248 91.8703C103.034 91.8703 102.858 91.7017 102.854 91.4897C102.782 88.2488 105.308 78.9996 109.737 75.9043C109.914 75.78 110.16 75.8217 110.285 75.998C110.411 76.1734 110.369 76.4169 110.19 76.5404C106.044 79.439 103.574 88.4463 103.641 91.4726C103.645 91.6881 103.473 91.866 103.256 91.8711H103.248V91.8703Z" fill="#231F20"/>
<path d="M100.67 85.9625C100.652 85.9625 100.636 85.9616 100.619 85.959C100.403 85.9318 100.251 85.736 100.279 85.5231C100.66 82.61 101.332 80.1568 102.335 78.0229C103.531 75.4786 105.234 73.3736 107.26 71.9371C107.437 71.8111 107.683 71.8519 107.81 72.0265C107.936 72.2019 107.896 72.4446 107.719 72.5698C105.803 73.9288 104.187 75.9273 103.048 78.3507C102.081 80.4114 101.43 82.7897 101.059 85.6227C101.033 85.8194 100.863 85.9625 100.669 85.9625H100.67Z" fill="#231F20"/>
<path d="M175.185 100.033C174.208 100.033 173.079 99.9921 171.763 99.8703C168.669 99.5842 167.115 98.9668 165.612 98.3708C165.117 98.1741 164.65 97.9884 164.134 97.819C162.638 97.326 145.904 97.5857 135.907 97.7398C132.345 97.7951 129.531 97.8386 128.178 97.8386C123.071 97.8386 117.666 96.6132 114.805 95.4756C110.263 93.6687 107.078 91.4028 107.047 91.3798C106.87 91.2538 106.831 91.0102 106.959 90.8357C107.087 90.6611 107.333 90.6228 107.509 90.7488C107.54 90.771 110.652 92.9832 115.098 94.7527C117.891 95.8639 123.175 97.0594 128.178 97.0594C129.525 97.0594 132.335 97.016 135.895 96.9607C150.052 96.741 162.884 96.5851 164.384 97.079C164.921 97.2561 165.422 97.4545 165.906 97.647C167.357 98.2226 168.856 98.8178 171.836 99.0946C174.642 99.3543 176.591 99.2368 178.014 99.1508C178.621 99.1141 179.146 99.0826 179.582 99.0929C181.112 99.1286 182.066 99.0367 182.438 97.4741C182.718 96.2931 182.079 94.665 181.335 93.7326C180.918 93.2106 180.57 93.0241 180.383 93.0232C180.164 93.0232 179.868 93.0701 179.736 93.3051C179.591 93.5614 179.658 93.9812 179.906 94.3737C180.523 95.3496 180.649 97.6844 180.662 97.9467C180.673 98.1613 180.505 98.3435 180.287 98.3537C180.06 98.3606 179.886 98.1979 179.875 97.9833C179.844 97.3251 179.669 95.4679 179.238 94.7867C178.834 94.1472 178.761 93.4345 179.047 92.9262C179.294 92.4868 179.767 92.2441 180.377 92.2441C181.019 92.2458 181.587 92.7916 181.952 93.2497C182.832 94.3525 183.545 96.219 183.204 97.6529C182.659 99.9427 180.871 99.9027 179.563 99.872C179.161 99.8609 178.675 99.8916 178.061 99.9291C177.277 99.9767 176.337 100.033 175.184 100.033H175.185Z" fill="#231F20"/>
<path d="M183.576 97.0858C183.248 97.0858 182.931 97.0441 182.842 97.0305C182.627 96.999 182.478 96.8014 182.509 96.5886C182.541 96.3757 182.739 96.2284 182.956 96.259C183.294 96.3075 183.756 96.328 183.916 96.2752C184.154 96.1432 184.958 94.9937 184.869 94.2835C184.769 93.489 184.07 92.1155 183.403 91.4011C182.893 90.8544 181.19 89.5482 180.191 89.7066C179.914 89.7509 179.722 89.9101 179.585 90.2081C179.38 90.6535 179.349 91.0494 179.493 91.3849C179.755 91.9929 180.509 92.262 180.516 92.2654C180.721 92.3369 180.829 92.5592 180.757 92.761C180.686 92.9636 180.463 93.0709 180.258 93.0011C180.214 92.9858 179.174 92.6222 178.771 91.6966C178.533 91.1508 178.566 90.5411 178.867 89.8854C179.113 89.3506 179.528 89.0237 180.066 88.9377C181.574 88.6967 183.569 90.4304 183.983 90.8723C184.68 91.6199 185.517 93.1297 185.65 94.1864C185.789 95.2806 184.707 96.8355 184.166 97.0135C184.003 97.0671 183.788 97.0841 183.578 97.0841L183.576 97.0858Z" fill="#231F20"/>
<path d="M185.606 94.5109C185.49 94.5109 185.373 94.4598 185.296 94.3619C185.162 94.1924 185.192 93.948 185.362 93.8152C185.375 93.805 186.687 92.7644 186.151 91.9887C185.991 91.7579 185.8 91.4675 185.591 91.1499C184.886 90.0796 183.821 88.4625 183.256 88.1415C182.402 87.6553 180.395 86.9835 179.762 87.4833C179.181 87.9431 179.847 89.0944 179.855 89.1063C179.965 89.2911 179.905 89.5303 179.718 89.6402C179.531 89.75 179.291 89.6896 179.179 89.5056C178.79 88.8628 178.372 87.5863 179.271 86.8753C180.432 85.9565 183.02 87.1078 183.651 87.4663C184.325 87.8494 185.228 89.1693 186.253 90.725C186.458 91.0375 186.646 91.3219 186.803 91.5493C187.562 92.6469 186.562 93.8756 185.85 94.4283C185.778 94.4845 185.693 94.5117 185.608 94.5117L185.606 94.5109Z" fill="#231F20"/>
<path d="M180.906 87.3087C180.78 87.3087 180.655 87.2482 180.579 87.1358C180.528 87.0601 180.084 86.3771 180.232 85.7172C180.375 85.0794 181.036 84.5736 181.111 84.5183C181.285 84.3897 181.532 84.4238 181.662 84.5966C181.793 84.7686 181.757 85.013 181.583 85.1416C181.454 85.2378 181.069 85.5835 181.001 85.8867C180.937 86.1711 181.154 86.5823 181.235 86.7041C181.355 86.8838 181.305 87.1248 181.124 87.244C181.057 87.2874 180.981 87.3087 180.906 87.3087Z" fill="#231F20"/>
<path d="M186.476 92.159C186.359 92.159 186.243 92.107 186.164 92.0082C186.031 91.8379 186.062 91.5935 186.233 91.4616C186.481 91.27 187.125 90.6407 187.125 90.048C187.125 89.2476 186.778 88.5894 185.799 87.1359C184.904 85.8066 183.067 85.208 183.049 85.2021C182.842 85.1365 182.727 84.9168 182.795 84.7124C182.861 84.5081 183.083 84.3948 183.29 84.4604C183.376 84.4876 185.406 85.145 186.456 86.705C187.484 88.2326 187.914 89.0347 187.914 90.0489C187.914 91.1448 186.766 92.0397 186.718 92.0772C186.647 92.1326 186.561 92.159 186.476 92.159Z" fill="#231F20"/>
<path d="M177.558 98.3546C173.046 98.3546 169.376 95.1044 169.376 91.109C169.376 87.1137 173.046 83.8635 177.558 83.8635C178.81 83.8635 180.012 84.1079 181.13 84.5881C181.33 84.6741 181.421 84.904 181.334 85.1007C181.247 85.2974 181.016 85.3877 180.816 85.3025C179.797 84.864 178.701 84.6418 177.558 84.6418C173.481 84.6418 170.164 87.5429 170.164 91.1082C170.164 94.6735 173.48 97.5746 177.558 97.5746C178.312 97.5746 179.056 97.4758 179.769 97.28C179.978 97.2229 180.196 97.3438 180.254 97.5516C180.312 97.7594 180.189 97.974 179.979 98.031C179.197 98.2448 178.383 98.3538 177.558 98.3538V98.3546Z" fill="#231F20"/>
<path d="M98.8348 123.54C98.7039 123.54 98.5756 123.475 98.5007 123.358C98.3853 123.176 98.4404 122.935 98.6247 122.82C98.6824 122.785 100.063 121.931 101.937 121.237C102.402 121.064 103.067 120.76 103.838 120.408C106.761 119.073 110.764 117.243 112.483 118.443C112.66 118.567 112.703 118.81 112.578 118.986C112.452 119.161 112.206 119.203 112.028 119.08C110.683 118.14 106.605 120.002 104.169 121.115C103.384 121.473 102.706 121.783 102.213 121.966C100.418 122.631 99.0577 123.471 99.044 123.48C98.9785 123.52 98.9062 123.539 98.8348 123.539V123.54Z" fill="#231F20"/>
<path d="M112.254 119.151C112.037 119.151 111.86 118.977 111.86 118.761C111.86 117.327 107.994 115.902 106.137 115.216C105.621 115.026 105.176 114.862 104.872 114.728C103.69 114.209 103.819 113.419 103.931 112.722C104.008 112.243 104.088 111.747 103.859 111.155C103.646 110.6 102.86 109.896 102.101 109.216C101.373 108.563 100.685 107.946 100.326 107.339C99.5447 106.013 92.1273 91.1746 90.2022 84.9432C88.3158 78.8361 84.5765 69.879 84.5386 69.7887C84.456 69.5895 84.5507 69.3621 84.7522 69.2795C84.9536 69.1969 85.1835 69.2914 85.267 69.4907C85.3049 69.581 89.0579 78.5721 90.9564 84.715C92.8204 90.748 100.257 105.672 101.008 106.946C101.305 107.45 101.979 108.053 102.631 108.638C103.497 109.413 104.315 110.146 104.596 110.876C104.9 111.664 104.794 112.319 104.709 112.844C104.6 113.513 104.564 113.738 105.193 114.015C105.474 114.138 105.909 114.299 106.413 114.485C108.896 115.4 112.648 116.785 112.648 118.76C112.648 118.975 112.471 119.15 112.254 119.15L112.254 119.151Z" fill="#231F20"/>
<path d="M84.3936 111.222C84.2481 111.222 84.1086 111.142 84.0397 111.004C83.9433 110.811 84.0242 110.577 84.2188 110.483C88.1423 108.573 92.5032 108.06 96.7211 107.565C96.9364 107.536 97.1335 107.691 97.1585 107.905C97.1843 108.119 97.0293 108.312 96.8141 108.338C92.6624 108.826 88.3696 109.331 84.5666 111.182C84.5107 111.209 84.4513 111.222 84.3927 111.222H84.3936Z" fill="#231F20"/>
<path d="M139.813 125.184C139.315 125.212 138.813 125.239 138.309 125.264C137.947 125.282 137.582 125.301 137.214 125.319C129.05 123.236 117.244 120.47 111.464 119.14C111.251 119.093 111.12 118.883 111.169 118.675C111.217 118.465 111.43 118.335 111.642 118.381C114.086 118.943 130.452 122.713 139.813 125.183V125.184Z" fill="#231F20"/>
<path d="M149.062 102.715C149.05 102.715 149.037 102.715 149.025 102.714C129.357 100.895 99.3651 98.3793 99.0646 98.3538C98.8477 98.3359 98.6867 98.1469 98.7056 97.9323C98.7237 97.7177 98.914 97.5619 99.1309 97.5772C99.4314 97.6028 129.428 100.119 149.098 101.938C149.315 101.958 149.473 102.147 149.454 102.362C149.435 102.564 149.263 102.715 149.062 102.715Z" fill="#231F20"/>
<path d="M193.478 99.4821L193.379 99.5561C193.083 98.4049 192.144 97.4222 190.794 97.2153C188.412 96.85 188.381 97.1778 188.027 97.1523L179.321 105.039L180.134 109.39C182.259 109.658 184.105 109.909 185.605 110.138C187.758 110.467 189.921 109.607 191.253 107.901L192.814 105.901C193.721 104.738 194.223 100.545 193.479 99.4803L193.478 99.4821Z" fill="#D8E9F1"/>
<path d="M186.516 106.942C186.193 106.942 185.868 106.917 185.543 106.868C184.09 106.645 181.249 106.272 179.079 106.001C178.863 105.974 178.711 105.779 178.737 105.566C178.765 105.352 178.961 105.202 179.177 105.228C181.353 105.5 184.202 105.874 185.664 106.097C187.671 106.406 189.693 105.604 190.939 104.008L192.5 102.008C193.107 101.23 193.251 100.22 192.884 99.3066C192.517 98.3929 191.713 97.7551 190.732 97.601C187.52 97.0952 185.382 96.8023 184.374 96.7307L184.429 95.9533L184.4 96.3416L184.431 95.9533C184.815 95.9806 185.983 96.064 190.856 96.8312C192.114 97.0296 193.147 97.8471 193.617 99.0188C194.087 100.19 193.903 101.486 193.124 102.484L191.563 104.484C190.343 106.047 188.471 106.941 186.516 106.942Z" fill="#231F20"/>
<path d="M186.516 110.599C186.193 110.599 185.868 110.574 185.544 110.524C184.096 110.303 182.258 110.052 180.083 109.778C179.868 109.75 179.715 109.555 179.742 109.342C179.77 109.128 179.968 108.978 180.183 109.005C182.365 109.279 184.208 109.532 185.664 109.754C187.671 110.062 189.694 109.261 190.94 107.664L192.5 105.664C193.332 104.599 193.772 100.587 193.154 99.7034C193.03 99.5263 193.076 99.2836 193.255 99.161C193.434 99.0392 193.679 99.0826 193.803 99.2606C194.672 100.505 194.096 104.896 193.125 106.141L191.564 108.141C190.344 109.704 188.471 110.599 186.516 110.599Z" fill="#231F20"/>
<path d="M120.227 80.6447C119.361 81.0918 118.685 81.8573 118.271 82.7326C117.942 83.4275 117.774 84.1887 117.73 84.9568C117.709 85.3059 117.955 85.6159 118.299 85.6976C119.137 85.8977 119.958 86.0484 120.813 86.1217C121.189 86.154 121.509 85.8713 121.544 85.5001C121.608 84.8027 121.808 84.1445 122.12 83.4879C122.53 82.6279 123.094 81.8471 123.709 81.1173L120.227 80.6447Z" fill="white"/>
<path d="M120.868 86.5134C120.838 86.5134 120.808 86.5117 120.778 86.5091C119.973 86.4401 119.156 86.3022 118.205 86.0757C117.671 85.948 117.305 85.4677 117.336 84.9338C117.386 84.0704 117.58 83.2742 117.914 82.5674C118.385 81.5712 119.142 80.7656 120.045 80.2998C120.238 80.2011 120.477 80.2743 120.577 80.465C120.677 80.6558 120.602 80.8908 120.41 80.9904C119.659 81.3779 119.026 82.0548 118.627 82.8978C118.336 83.5143 118.166 84.2143 118.122 84.9789C118.112 85.1339 118.228 85.2804 118.39 85.3187C119.301 85.5367 120.081 85.6678 120.846 85.7334C121.005 85.7436 121.135 85.6286 121.15 85.4643C121.216 84.7499 121.416 84.0491 121.762 83.3219C122.139 82.5291 122.662 81.7491 123.406 80.8678C123.545 80.7026 123.793 80.6805 123.96 80.8184C124.127 80.9564 124.15 81.2016 124.01 81.3668C123.311 82.1962 122.823 82.9225 122.475 83.654C122.169 84.2977 121.992 84.9125 121.934 85.535C121.883 86.0919 121.414 86.5134 120.868 86.5134Z" fill="#231F20"/>
<path d="M122.768 82.6747L128.03 84.6673C128.426 84.8172 128.624 85.2566 128.472 85.6474C128.355 85.9497 128.064 86.1353 127.755 86.1353C127.664 86.1353 127.572 86.1191 127.481 86.0851L122.22 84.0925L122.768 82.6747Z" fill="#BCBDC0"/>
<path d="M127.755 86.5253C127.614 86.5253 127.474 86.4998 127.341 86.4495L122.078 84.4561C121.875 84.3795 121.774 84.1538 121.851 83.9529C121.929 83.7519 122.158 83.6506 122.36 83.7281L127.621 85.7206C127.813 85.7922 128.033 85.6908 128.104 85.5078C128.178 85.3179 128.081 85.1033 127.888 85.0309L122.627 83.0384C122.424 82.9617 122.322 82.7361 122.4 82.5351C122.477 82.3342 122.706 82.2337 122.908 82.3103L128.17 84.3029C128.768 84.5294 129.068 85.1953 128.84 85.7862C128.668 86.2281 128.233 86.5245 127.755 86.5245V86.5253Z" fill="#231F20"/>
<path d="M204 109.251C203.493 109.684 202.968 110.107 202.425 110.524C197.511 111.827 192.624 112.479 187.732 112.479C181.585 112.479 175.427 111.45 169.192 109.396C157.178 105.436 147.132 98.2627 139.794 93.0267C134.988 89.5959 131.191 86.8847 128.355 86.0195C128.148 85.9574 128.03 85.7394 128.095 85.5342C128.158 85.329 128.382 85.2149 128.586 85.277C131.549 86.1779 135.39 88.9207 140.256 92.3932C153.729 102.013 175.577 117.608 203.999 109.252L204 109.251Z" fill="#231F20"/>
<path d="M172.091 109.107L171.484 110.65L162.596 107.54L163.368 105.576L172.091 109.107Z" fill="#ECF8E9"/>
<path d="M171.483 111.04C171.439 111.04 171.395 111.033 171.351 111.018L162.464 107.908C162.363 107.873 162.281 107.799 162.237 107.703C162.192 107.607 162.19 107.497 162.228 107.399L163 105.434C163.039 105.337 163.114 105.259 163.212 105.218C163.309 105.176 163.418 105.176 163.516 105.215L172.239 108.747C172.438 108.827 172.534 109.051 172.457 109.248L171.85 110.791C171.79 110.944 171.641 111.04 171.482 111.04H171.483ZM163.109 107.307L171.254 110.157L171.582 109.322L163.589 106.086L163.109 107.307Z" fill="#231F20"/>
<path d="M168.937 116.848C168.401 116.848 167.864 116.842 167.332 116.828C163.612 116.732 159.268 115.904 155.066 115.102C152.331 114.58 149.748 114.087 147.396 113.8C144.457 113.442 141.134 113.369 137.92 113.299C134.367 113.22 130.692 113.14 127.426 112.679C123.157 112.076 119.115 111.143 115.207 110.239C110.554 109.165 105.744 108.053 100.628 107.533C100.412 107.511 100.254 107.32 100.277 107.106C100.299 106.891 100.496 106.738 100.709 106.758C105.875 107.284 110.71 108.401 115.387 109.481C119.279 110.381 123.303 111.31 127.538 111.908C130.757 112.363 134.408 112.443 137.938 112.521C141.171 112.592 144.515 112.666 147.493 113.029C149.871 113.319 152.467 113.814 155.216 114.338C159.386 115.135 163.698 115.957 167.353 116.051C172.34 116.179 177.786 115.643 179.024 115.513C179.741 112.945 179.636 109.055 178.748 105.716C178.653 105.357 178.475 104.691 183.385 100.466C185.728 98.45 188.144 96.5647 188.168 96.546C188.339 96.4132 188.587 96.4421 188.721 96.6107C188.855 96.7793 188.826 97.0245 188.655 97.1574C184.218 100.616 179.6 104.685 179.514 105.536C180.461 109.107 180.537 113.304 179.704 115.985C179.658 116.133 179.528 116.24 179.372 116.258C179.315 116.264 174.145 116.849 168.936 116.849L168.937 116.848Z" fill="#231F20"/>
<path d="M107.489 115.697C107.441 115.697 107.393 115.689 107.345 115.67C107.143 115.592 107.042 115.366 107.122 115.165L109.597 108.919C109.676 108.718 109.905 108.621 110.107 108.699C110.31 108.777 110.409 109.003 110.33 109.204L107.856 115.45C107.795 115.604 107.647 115.697 107.489 115.697Z" fill="#231F20"/>
<path d="M110.069 116.848C110.023 116.848 109.975 116.839 109.929 116.822C109.726 116.746 109.623 116.521 109.701 116.32L112.421 109.253C112.498 109.052 112.727 108.952 112.929 109.028C113.132 109.104 113.234 109.329 113.157 109.53L110.437 116.597C110.377 116.753 110.228 116.848 110.068 116.848H110.069Z" fill="#231F20"/>
<path d="M159.55 88.1917C157.892 88.1917 155.98 88.0257 153.97 87.6186C152.081 87.2355 148.89 86.4657 145.511 85.6508C140.789 84.5115 135.437 83.2206 132.401 82.6867C127.612 81.8445 123.474 81.1173 120.961 80.9708C118.898 80.8508 114.618 77.7921 114.437 77.6618C114.261 77.535 114.222 77.2914 114.35 77.1177C114.478 76.944 114.723 76.9048 114.9 77.0317C116.082 77.8815 119.485 80.1049 121.008 80.1934C123.567 80.3424 127.725 81.073 132.54 81.9194C135.6 82.4576 140.965 83.7519 145.698 84.8938C149.069 85.707 152.253 86.4751 154.129 86.8557C158.409 87.7242 162.191 87.4722 163.894 86.8702C164.686 86.59 166.367 85.2208 167.849 84.0125C169.554 82.6228 170.629 81.7628 171.223 81.5865C171.92 81.3796 172.62 81.0909 173.297 80.8125C173.689 80.6507 174.094 80.4838 174.499 80.3331C174.726 80.2479 174.959 80.1432 175.205 80.0325C175.823 79.7532 176.463 79.4645 177.172 79.416C178.081 79.3538 178.768 79.7787 179.431 80.1891C179.581 80.282 179.731 80.3748 179.884 80.4625C180.693 80.9223 181.482 81.3787 182.254 81.8981C182.422 82.0114 183.275 82.6015 183.617 83.1252C183.949 83.6335 183.919 84.2211 183.536 84.6962C183.065 85.2812 182.201 85.5401 181.527 85.2983C180.619 84.9721 176.31 83.665 176.267 83.6514C176.059 83.5884 175.943 83.3704 176.006 83.1644C176.069 82.9583 176.291 82.8433 176.498 82.9063C176.676 82.96 180.869 84.2322 181.796 84.566C182.153 84.6954 182.657 84.5353 182.919 84.2117C183.091 83.998 183.103 83.7749 182.955 83.5484C182.767 83.2614 182.23 82.8254 181.809 82.5419C181.061 82.0378 180.286 81.5899 179.491 81.1377C179.329 81.0458 179.17 80.9479 179.012 80.8499C178.405 80.4736 177.878 80.1483 177.226 80.1934C176.658 80.2326 176.085 80.4906 175.53 80.7409C175.283 80.8525 175.027 80.9674 174.776 81.062C174.384 81.2084 173.985 81.3728 173.598 81.532C172.903 81.8181 172.185 82.1144 171.448 82.3324C170.977 82.4721 169.581 83.6106 168.35 84.6136C166.742 85.9233 165.081 87.278 164.158 87.6042C163.173 87.9516 161.545 88.1926 159.549 88.1926L159.55 88.1917Z" fill="#231F20"/>
<path d="M191.781 89.2842C191.605 89.2842 191.445 89.1667 191.4 88.9896C190.543 85.6372 188.466 82.5223 185.552 80.219C185.382 80.0844 185.355 79.8392 185.49 79.6715C185.626 79.5037 185.874 79.4765 186.044 79.6101C189.092 82.0191 191.265 85.2821 192.163 88.7989C192.216 89.0075 192.089 89.2195 191.877 89.2723C191.844 89.28 191.812 89.2842 191.78 89.2842H191.781Z" fill="#231F20"/>
<path d="M193.478 86.762C193.286 86.762 193.118 86.6224 193.089 86.4291C192.708 83.8532 190.126 80.5757 187.889 78.6207C187.726 78.4784 187.711 78.2324 187.854 78.0706C187.998 77.9088 188.247 77.8935 188.411 78.0365C190.216 79.6144 193.397 83.1345 193.869 86.3158C193.901 86.5287 193.752 86.7271 193.537 86.7578C193.517 86.7603 193.498 86.762 193.479 86.762H193.478Z" fill="#231F20"/>
<path d="M40.1197 114.876C39.5919 114.639 39.0719 114.401 38.557 114.156C38.2496 114.011 37.9423 113.862 37.6409 113.715C36.3727 111.442 34.965 108.999 33.757 106.923C33.6546 106.76 33.5392 106.568 33.41 106.355C33.3601 106.276 33.3153 106.196 33.2654 106.115C32.562 104.95 31.5219 103.191 30.3217 101.111C30.2985 101.072 30.2769 101.036 30.2563 100.999C30.2459 100.982 30.2356 100.965 30.2244 100.95C30.2115 100.921 30.1934 100.893 30.1771 100.867C30.1452 100.81 30.1142 100.755 30.0798 100.698C26.5842 94.6386 21.8574 86.1047 19.9168 81.2996C17.7789 76.0091 18.4169 65.257 22.1803 60.715C25.7335 56.4276 33.3119 54.8557 36.4054 54.3805C36.5948 54.3516 36.7756 54.4614 36.8359 54.6326C36.8436 54.653 36.8488 54.6718 36.8514 54.6922C36.8514 54.6973 36.854 54.6999 36.854 54.705C36.8884 54.9178 36.7412 55.1179 36.5259 55.1495C36.3865 55.1699 36.2263 55.1963 36.0507 55.2278C36.0111 55.2355 35.9723 55.2406 35.9327 55.2482C33.0596 55.7421 26.0142 57.3183 22.7898 61.2089C19.4785 65.2059 18.3756 75.3866 20.6469 81.0118C22.5798 85.7982 27.3066 94.3193 30.7832 100.347C30.7961 100.368 30.8142 100.402 30.8435 100.451C31.0303 100.77 31.2111 101.085 31.3867 101.389C31.41 101.412 31.4341 101.438 31.4496 101.469C31.6149 101.741 33.3455 104.64 35.3628 108.122C35.4024 108.151 35.4359 108.185 35.4626 108.226C36.2608 109.455 38.1067 112.132 40.1188 114.875L40.1197 114.876Z" fill="#231F20"/>
</g>
<defs>
<clipPath id="clip0_1_7462">
<rect width="204" height="126" fill="white"/>
</clipPath>
</defs>
</svg>
