<svg width="135" height="158" viewBox="0 0 135 158" fill="none" xmlns="http://www.w3.org/2000/svg">
<g clip-path="url(#clip0_1_7357)">
<path d="M17.2407 120.754C17.2138 120.819 17.1855 120.885 17.1675 120.956L13.4129 134.566C13.1997 135.402 13.707 136.253 14.5455 136.466C14.6752 136.499 14.8048 136.514 14.9333 136.514C15.6331 136.514 16.27 136.043 16.4497 135.336L21.5527 121.953L18.8972 121.402C18.3206 121.236 17.7685 121.017 17.242 120.754H17.2407Z" fill="#C6AB7F"/>
<path d="M80.4051 147.709C80.59 148.41 81.2244 148.873 81.9191 148.873C82.0513 148.873 82.1849 148.857 82.3197 148.821C83.1569 148.601 83.6564 147.746 83.4356 146.911L81.435 130.379C81.399 130.243 81.322 130.128 81.2192 130.029L76.2871 131.92L80.4051 147.708V147.709Z" fill="#C6AB7F"/>
<path d="M125.479 127.463L121.688 113.113C120.571 113.614 119.049 114.278 117.253 115.05L122.45 128.259C122.634 128.959 123.269 129.423 123.964 129.423C124.096 129.423 124.229 129.406 124.364 129.371C125.201 129.15 125.701 128.296 125.48 127.461L125.479 127.463Z" fill="#C6AB7F"/>
<path d="M14.9304 136.905C14.7686 136.905 14.6055 136.884 14.4463 136.845C13.3998 136.578 12.7654 135.514 13.0312 134.47L16.7884 120.853C17.053 119.816 18.1187 119.185 19.1666 119.447C20.0539 119.673 22.2509 120.804 21.9414 122.016C21.9376 122.03 21.9337 122.045 21.9273 122.058L16.8193 135.454C16.5907 136.308 15.8164 136.904 14.9291 136.904L14.9304 136.905ZM18.685 120.169C18.1598 120.169 17.6809 120.522 17.5461 121.052L13.7888 134.67C13.6309 135.288 14.0123 135.927 14.6402 136.088C14.7352 136.112 14.8328 136.123 14.9304 136.123C15.4671 136.123 15.9358 135.76 16.0681 135.24C16.0719 135.226 16.0758 135.211 16.0822 135.197L21.1877 121.808C21.2596 121.371 19.8779 120.435 18.9752 120.206C18.8789 120.181 18.7813 120.17 18.6863 120.17L18.685 120.169Z" fill="#231F20"/>
<path d="M81.9194 149.265C81.0308 149.265 80.2526 148.667 80.0266 147.809L75.9073 132.019C75.5863 130.806 77.8193 129.506 78.618 129.296C80.4529 128.815 81.4995 129.012 81.728 129.88C81.7332 129.897 81.7357 129.915 81.7383 129.932L83.8198 146.839C84.0766 147.872 83.4538 148.927 82.4189 149.199C82.2545 149.242 82.0863 149.264 81.9194 149.264V149.265ZM80.2655 129.823C79.9162 129.823 79.4359 129.889 78.8183 130.052C77.9747 130.274 76.5468 131.37 76.6662 131.822L80.7855 147.612C80.9473 148.223 81.5996 148.607 82.2211 148.446C82.8477 148.28 83.2227 147.639 83.057 147.014C83.0519 146.997 83.0493 146.979 83.0468 146.961L80.9666 130.062C80.9126 129.919 80.6828 129.824 80.2655 129.824V129.823Z" fill="#231F20"/>
<path d="M123.964 129.815C123.086 129.815 122.314 129.228 122.079 128.387L115.298 112.149C115.291 112.132 115.285 112.116 115.281 112.098C114.931 110.772 118.491 109.205 119.001 109.072C120.046 108.797 121.12 109.422 121.393 110.463L125.858 127.365C126.133 128.406 125.507 129.477 124.463 129.751C124.299 129.795 124.131 129.816 123.964 129.816V129.815ZM116.039 111.89L122.812 128.109C122.819 128.126 122.825 128.142 122.829 128.16C122.991 128.771 123.644 129.158 124.264 128.995C124.891 128.83 125.266 128.188 125.102 127.563L120.637 110.662C120.471 110.037 119.828 109.664 119.201 109.827C118.209 110.088 116.054 111.434 116.04 111.89H116.039Z" fill="#231F20"/>
<path d="M123.655 112.172C125.431 111.026 123.833 79.7947 123.358 77.5429C122.85 75.1284 119.772 73.2813 114.365 71.9505C110.88 71.0936 83.3453 67.0613 76.9519 66.1288C76.1429 66.011 75.4803 65.4358 75.2492 64.6532C73.9099 60.1252 67.5833 43.7477 65.3117 40.0843C63.0402 36.4197 61.3183 35.6678 57.1001 34.7442C54.4472 34.164 51.1458 32.0838 48.4377 32.2734C37.3086 33.0483 11.1777 40.4865 3.50403 45.8573C3.3936 45.9303 3.28573 46.0072 3.17787 46.0866C3.16246 46.0981 3.14705 46.1097 3.13293 46.1212C3.04176 46.1903 2.95187 46.2608 2.86456 46.3351C2.84273 46.353 2.8209 46.3722 2.80035 46.3902C2.71946 46.4593 2.63984 46.5311 2.56152 46.6054C2.5384 46.6271 2.514 46.6502 2.49089 46.6732C2.41641 46.7463 2.34322 46.8218 2.27131 46.8987C2.2482 46.923 2.22509 46.9486 2.20197 46.973C2.13007 47.0524 2.06073 47.1344 1.99267 47.2176C1.97212 47.242 1.95158 47.2663 1.93103 47.2919C1.85913 47.3829 1.7885 47.4776 1.72045 47.5737C1.7076 47.5929 1.69348 47.6109 1.67936 47.6301C1.51628 47.8658 1.36476 48.1168 1.22864 48.3832C1.22094 48.3999 1.21324 48.4165 1.20425 48.4332C1.14775 48.5472 1.09253 48.6638 1.04117 48.7829C1.02319 48.8239 1.00778 48.8661 0.989807 48.9084C0.95 49.0058 0.910194 49.1044 0.87424 49.2056C0.854979 49.2581 0.838286 49.3119 0.820309 49.3644C0.789491 49.4579 0.758673 49.554 0.730423 49.6513C0.71373 49.7103 0.697037 49.7717 0.680344 49.8319C0.654663 49.9267 0.631549 50.0228 0.60972 50.1214C0.595595 50.1855 0.581471 50.2508 0.56863 50.3174C0.549369 50.416 0.531392 50.5172 0.514699 50.6184C0.503142 50.6863 0.492869 50.7529 0.482597 50.8221C0.468472 50.9284 0.455631 51.0373 0.445359 51.1461C0.438938 51.214 0.42995 51.2806 0.424813 51.3498C0.414541 51.4702 0.409404 51.5957 0.402984 51.72C0.400416 51.7802 0.39528 51.8391 0.393995 51.9006C0.388859 52.0889 0.387575 52.2797 0.393995 52.4757C0.413257 53.2199 0.63155 54.8748 0.998795 57.1945C1.07199 57.6582 1.1516 58.1488 1.23635 58.6637C1.44822 59.951 1.69605 61.3933 1.97212 62.9573C2.08256 63.5837 2.19684 64.2292 2.31626 64.8914C2.49474 65.8867 2.68222 66.9204 2.87868 67.9887C3.13935 69.413 3.41543 70.895 3.70049 72.4206C3.7724 72.8023 3.84431 73.1865 3.9175 73.5734C4.13579 74.7326 4.36051 75.9149 4.58907 77.1125C4.66483 77.5121 4.74188 77.9131 4.81892 78.3153C5.74345 83.143 6.72962 88.182 7.69011 93.0046C7.76973 93.4068 7.85062 93.8064 7.93024 94.2061C8.48752 96.9971 9.03326 99.7024 9.55074 102.239C10.3636 106.223 11.1058 109.789 11.7106 112.607C11.821 113.12 11.925 113.608 12.0264 114.069C12.0739 114.288 12.1292 114.506 12.1921 114.72C12.7519 116.646 13.8832 118.329 15.401 119.569C15.5692 119.707 15.7426 119.839 15.921 119.966C16.2767 120.22 16.6504 120.449 17.0408 120.655C17.1062 120.69 17.1743 120.721 17.2411 120.754C17.7675 121.015 18.3197 121.236 18.8962 121.402L21.5517 121.953L73.9279 132.828L76.288 131.922L81.2201 130.031L84.6974 128.698C84.6974 128.698 106.163 119.82 117.253 115.053C119.049 114.28 120.572 113.617 121.688 113.116C122.75 112.639 123.447 112.308 123.655 112.173V112.172Z" fill="#56A5C4"/>
<path d="M84.6968 129.088C84.5427 129.088 84.3976 128.997 84.3347 128.847C84.2512 128.648 84.3462 128.419 84.5465 128.336C97.395 123.021 122.061 112.736 123.442 111.843C124.858 110.388 123.581 80.4942 122.976 77.6224C122.512 75.4167 119.584 73.6363 114.273 72.3298C110.784 71.4716 82.5254 67.3355 76.896 66.5158C75.942 66.3761 75.1484 65.6896 74.8749 64.7648C73.5523 60.2893 67.2385 43.9348 64.9798 40.2894C62.7378 36.6734 61.0159 36.0009 57.0172 35.1261C55.981 34.8994 54.887 34.4651 53.7274 34.0066C51.9233 33.2918 50.0563 32.5528 48.4653 32.6629C37.3169 33.4391 11.3799 40.8222 3.7281 46.1777C3.5509 46.3019 3.30692 46.2584 3.18237 46.0816C3.05781 45.9048 3.10147 45.6615 3.27867 45.5372C11.0127 40.1254 37.177 32.6655 48.4101 31.8829C50.1821 31.7599 52.1313 32.5323 54.0164 33.279C55.1451 33.7261 56.2096 34.1488 57.1842 34.3614C61.3292 35.2683 63.2553 36.0214 65.6449 39.8769C67.928 43.5608 74.2945 60.0395 75.6248 64.5419C75.8123 65.1747 76.3554 65.646 77.0077 65.7408C84.9241 66.8949 111.023 70.7248 114.458 71.5702C120.166 72.974 123.201 74.9018 123.74 77.461C123.995 78.6702 124.507 87.1203 124.741 95.2591C125.212 111.63 124.233 112.26 123.866 112.499C122.08 113.652 86.3648 128.429 84.8444 129.057C84.7957 129.077 84.7443 129.086 84.6942 129.086L84.6968 129.088Z" fill="#231F20"/>
<path d="M117.103 114.975C117.103 114.975 115.314 88.8213 114.9 82.7947C114.718 80.1432 115.333 78.1527 116.729 76.8769C118.853 74.9351 121.971 75.3975 122.102 75.4192C122.315 75.4525 122.461 75.6524 122.428 75.865C122.394 76.0789 122.195 76.2249 121.981 76.1916C121.953 76.1865 119.096 75.7702 117.254 77.4572C116.046 78.5639 115.517 80.343 115.681 82.7421C116.095 88.7688 117.883 114.922 117.883 114.922L117.103 114.976V114.975Z" fill="#231F20"/>
<path d="M115.261 91.1038C115.221 91.1038 115.182 91.0987 115.143 91.0859L109.69 89.3618C109.483 89.2965 109.37 89.0774 109.434 88.8712C109.499 88.665 109.72 88.551 109.926 88.6163L115.379 90.3404C115.586 90.4057 115.699 90.6248 115.634 90.831C115.581 90.9975 115.427 91.1038 115.26 91.1038H115.261Z" fill="#231F20"/>
<path d="M82.6074 101.533C82.4404 101.533 82.2863 101.427 82.2337 101.259C82.1695 101.053 82.2838 100.834 82.4892 100.768L115.717 90.3392C115.924 90.2752 116.144 90.3892 116.209 90.5954C116.273 90.8016 116.159 91.0207 115.954 91.0847L82.7255 101.514C82.6857 101.527 82.6472 101.532 82.6074 101.532V101.533Z" fill="#231F20"/>
<path d="M15.714 45.3349C15.5702 45.3349 15.4315 45.2555 15.3634 45.1184C15.2671 44.925 15.3455 44.6906 15.5394 44.5945C19.267 42.7398 26.9009 40.2049 28.3942 39.7156C28.5997 39.6477 28.8257 39.7579 28.8937 39.9628C28.9618 40.1677 28.8539 40.3868 28.6485 40.4547C27.1551 40.944 19.5688 43.4622 15.8899 45.2939C15.8334 45.3221 15.7743 45.3349 15.7153 45.3349H15.714Z" fill="#231F20"/>
<path d="M66.6911 73.0803C66.7001 73.2353 65.8475 73.3775 64.4427 73.5004L62.1455 74.0512L88.4254 75.2847L90.4414 74.1703L100.193 68.7816L85.8547 68.3666L71.6618 71.7699L66.6847 72.9637C66.6873 73.0021 66.6886 73.0431 66.6911 73.0803Z" fill="white"/>
<path d="M37.7724 20.4508C37.21 19.8961 37.011 19.1455 36.9866 18.6153C36.8351 16.79 39.1271 16.8194 39.1271 16.8194C39.1271 16.8194 40.6321 17.1499 42.0651 16.2277C43.4904 15.258 43.7408 14.592 44.465 13.475C44.5408 13.3187 45.604 8.61144 46.734 7.97227C47.412 7.58928 48.3789 7.89542 49.3201 6.94243C49.7529 6.54407 50.6812 7.29212 50.6812 7.29212C50.6812 7.29212 51.8356 8.98034 52.2003 9.51447C52.5175 10.0537 53.4266 11.7279 53.487 11.8162L54.1906 12.6924L54.3563 16.4083C54.3563 16.4083 54.4834 17.702 54.6478 18.5538C54.8378 19.5964 55.0574 20.4892 54.6311 22.0032C54.3434 22.9626 53.8401 23.8938 53.3136 24.6957C54.6105 25.6141 56.2208 25.0902 56.2208 25.0902C56.2208 25.0902 55.5338 24.6982 55.4657 23.8323C55.4156 23.1112 55.8946 21.9776 56.1078 21.7547C57.56 19.9077 57.1401 17.5367 57.1401 17.5367C57.1401 17.5367 57.5331 16.8527 57.465 14.9186C57.397 12.9857 56.6098 10.4213 56.1476 9.17375C55.6853 7.92488 54.2317 5.11203 53.1942 4.28201C51.6738 3.12792 51.0421 3.84522 51.0421 3.84522C51.0421 3.84522 49.862 3.76196 49.0672 3.28675C48.3263 2.85252 46.0778 2.42983 46.0778 2.42983C46.0778 2.42983 43.8795 1.66001 41.1534 2.36835C39.8822 2.68601 39.0963 2.98702 39.0963 2.98702C39.0963 2.98702 38.774 1.33082 37.3795 0.742887C34.1757 -0.619988 33.5812 1.45122 33.5812 1.45122C33.5812 1.45122 32.8236 1.60237 32.3074 2.1096C31.7925 2.61684 31.7026 3.74531 31.7026 3.74531C31.7026 3.74531 30.9078 4.33837 30.5148 5.7512C30.1707 7.15762 29.8921 7.97227 30.4712 9.0098C30.8012 9.64512 31.4304 10.3368 32.0236 10.4021C32.7671 10.4956 33.3103 9.83982 33.3103 9.83982C33.3103 9.83982 33.0008 12.212 33.0432 12.8858C33.0856 13.5595 33.074 16.3288 33.074 16.3288C33.074 16.3288 32.961 16.927 34.3709 19.0661C35.7821 21.2052 39.0976 23.0382 39.0976 23.0382C39.0976 23.0382 39.1695 23.019 39.2915 22.987L39.5047 21.3807C39.5047 21.3807 38.4491 21.1348 37.7712 20.4508H37.7724Z" fill="#FFCE7E"/>
<path d="M41.5092 33.0022C42.3105 33.6311 43.2299 34.1742 44.2096 34.4727C45.1906 34.7724 46.2423 34.9351 47.0282 35.6434C47.3736 35.956 47.6625 36.3236 47.9424 36.6938C48.2352 37.0819 48.5472 37.4623 48.8079 37.8722C49.2804 38.6164 51.2117 40.5608 51.8396 41.1923C52.1516 40.7465 50.2833 36.0943 50.2692 34.8762C50.2615 34.2178 50.4643 33.6362 50.7135 33.0342C50.9651 32.4258 51.0653 31.7777 51.2155 31.1411C51.195 31.1334 51.1706 31.1244 51.1513 31.1167C50.6493 30.9143 50.4117 30.0984 50.3 29.285C50.1716 28.3461 50.2088 27.4085 50.2088 27.4085L51.3427 27.1575C51.3427 27.1575 52.3673 26.1353 53.3137 24.6943C53.8415 23.8912 54.3448 22.9612 54.6312 22.0019C55.0575 20.4878 54.8392 19.5938 54.6479 18.5524C54.4835 17.7006 54.3564 16.4069 54.3564 16.4069L54.1907 12.691L53.4871 11.8149C53.4267 11.7265 52.5176 10.0524 52.2004 9.5131C51.8357 8.98025 50.6814 7.29075 50.6814 7.29075C50.6814 7.29075 49.7517 6.5427 49.3202 6.94106C48.379 7.89405 47.4121 7.58791 46.7341 7.9709C45.6041 8.61007 44.5409 13.3174 44.4651 13.4736C43.7409 14.5919 43.4905 15.2566 42.0652 16.2263C40.6335 17.1485 39.1272 16.8181 39.1272 16.8181C39.1272 16.8181 36.8352 16.7886 36.9867 18.6139C37.0098 19.1442 37.2101 19.8948 37.7725 20.4494C38.4505 21.1347 39.506 21.3793 39.506 21.3793L39.2929 22.9856L39.289 23.0112C39.289 23.0112 39.8579 26.4786 39.6897 29.1723C39.6845 29.2466 39.6755 29.3222 39.6678 29.3978C39.6165 29.9229 39.5189 30.4583 39.3982 30.9118C40.0377 31.6701 40.7285 32.3874 41.5092 33.0009V33.0022Z" fill="#FDE7DC"/>
<path d="M56.9235 73.8745C59.8987 73.7899 62.6299 73.6606 64.443 73.5005C65.8465 73.3762 66.7004 73.234 66.6915 73.0803C66.6889 73.0419 66.6876 73.0022 66.685 72.9638C66.6606 72.5372 66.6452 72.0863 66.6375 71.6252C66.6234 70.7452 66.6337 69.8384 66.6529 69.0481C67.7393 68.5344 68.615 67.6173 69.3944 66.6861C69.6448 66.3876 69.8965 66.07 69.9825 65.6908C70.0506 65.3911 70.0005 65.0978 69.8811 64.8262L71.6197 64.9979C71.4798 64.4714 67.399 57.9478 67.399 57.9478C64.1708 49.3414 60.6024 35.6858 59.8948 34.4536C58.6929 32.4054 57.2612 32.0583 55.8436 31.5741C55.4391 31.4358 54.937 31.3307 54.4016 31.227C53.9098 30.8543 53.4026 30.5007 52.8787 30.1754C52.4151 29.8885 51.9361 29.6169 51.4135 29.4632C51.0527 29.3569 50.6777 29.3108 50.3015 29.2852C50.4132 30.0998 50.6508 30.9145 51.1529 31.1168C51.1721 31.1245 51.1965 31.1322 51.2171 31.1412C51.0681 31.7778 50.968 32.4259 50.715 33.0343C50.4659 33.6364 50.263 34.2179 50.2707 34.8763C50.2861 36.0957 52.1532 40.7466 51.8411 41.1924C51.2119 40.5609 49.2807 38.6165 48.8094 37.8723C48.5487 37.4611 48.2367 37.082 47.944 36.6939C47.664 36.3237 47.3764 35.9561 47.0297 35.6435C46.2438 34.9339 45.1922 34.7725 44.2111 34.4728C43.2327 34.1731 42.312 33.6312 41.5107 33.0023C40.7287 32.3888 40.0392 31.6715 39.3997 30.9132C39.5204 30.4597 39.618 29.923 39.6694 29.3992C38.3635 30.137 36.9946 31.6804 36.2884 32.6168C36.1305 32.8256 36.0008 33.051 35.889 33.2854C35.8364 33.156 35.8056 33.0779 35.8056 33.0779C35.8955 33.3507 31.2818 35.746 30.8413 35.9996C30.0683 36.4454 29.4006 36.8399 29.009 37.6827C28.5339 38.7062 28.4864 39.914 28.5172 41.022C28.5968 43.9463 29.3069 46.9872 30.3149 49.7308C32.1421 54.7007 37.5622 72.7524 40.825 73.6106C40.9072 73.6324 41.0087 73.6529 41.1229 73.6721C41.1473 73.8873 41.1743 74.1025 41.209 74.3164C41.4196 75.6408 41.8356 76.9217 42.2658 78.1937C42.3017 78.3 42.3377 78.4076 42.3736 78.5139C47.3854 77.5122 52.5641 76.4286 56.9235 73.8732V73.8745Z" fill="white"/>
<path d="M83.4559 70.717C83.6896 70.6338 83.8205 70.384 83.9862 70.2085C84.157 70.0279 85.0147 70.1099 85.2369 69.9971C85.4744 69.8767 86.5877 69.7179 86.4773 69.4272C86.4863 69.3823 86.5389 69.3567 86.5839 69.3426C86.6044 69.3247 86.6275 69.3119 86.6468 69.2927C86.6262 68.3397 85.8545 68.3666 85.8545 68.3666C86.119 67.7479 85.572 67.4315 84.6102 67.2791L84.6667 67.2535C83.7987 65.6101 78.9847 66.6681 77.1395 66.2531L77.0188 66.508C76.6477 66.2505 76.1225 66.508 75.8567 66.8333L76.066 66.1673C75.5845 64.7557 75.1235 64.4393 74.2876 64.6481C74.3222 62.6179 71.4433 63.097 71.6167 65.0106C71.609 63.6862 70.6202 62.8075 69.801 63.763C69.3516 64.766 69.3272 65.9444 69.1217 67.0268C69.0216 66.9717 68.9124 66.9268 68.7956 66.8923L69.0344 65.6331C67.4293 65.2002 63.7928 64.6597 67.0595 66.7821C66.5831 68.4857 66.7577 70.7414 66.7616 72.5564C67.7452 72.6012 68.9086 72.6358 69.8639 72.4245C70.669 72.8036 71.2764 71.4984 71.2289 70.8028C71.3329 71.3549 71.3534 72.2144 71.9338 72.4731C72.2318 72.6217 72.9508 72.2989 72.9444 71.6623C73.5389 74.0653 74.7306 71.4843 74.7575 70.4416C74.7627 70.6389 74.8115 70.8016 74.9566 70.863L74.4416 71.9492C76.2984 71.9159 77.9729 71.4215 79.7795 71.0475C80.3009 70.7644 83.4482 70.7196 83.4559 70.717Z" fill="#FDE7DC"/>
<path d="M49.8728 27.7057C47.8234 27.7057 45.2642 26.7271 44.888 26.5798C43.2071 25.8881 42.6486 25.281 41.7227 24.2755C41.5764 24.1166 41.5841 23.8656 41.7433 23.7196C41.9025 23.5735 42.1478 23.5812 42.2942 23.7401C43.211 24.7353 43.6668 25.2323 45.182 25.8548C47.4536 26.7502 50.2837 27.301 51.2878 26.6182C51.804 26.2468 52.4627 25.4168 53.0393 24.4061C54.046 22.6244 54.3465 20.8798 54.2964 19.9268C54.2849 19.1801 54.1847 18.4756 54.0884 17.7929C54.0293 17.3727 53.9677 16.9385 53.9266 16.4979C53.8611 15.7076 53.8406 14.9877 53.8187 14.2256L53.8072 13.8182C53.8072 13.8003 53.8072 13.7824 53.8097 13.7632C53.8187 13.6837 53.8149 13.5774 53.8097 13.4557C53.8059 13.3366 53.8008 13.2072 53.8046 13.0663C53.811 12.8512 53.9869 12.677 54.2078 12.6872C54.4235 12.6936 54.5943 12.8742 54.5879 13.0894C54.584 13.2124 54.5879 13.3238 54.5917 13.4276C54.5969 13.5633 54.602 13.6927 54.5905 13.8195L54.602 14.2025C54.6238 14.9531 54.6431 15.6627 54.7073 16.4274C54.7471 16.8463 54.8062 17.2715 54.8653 17.6827C54.9654 18.3885 55.0681 19.1186 55.081 19.8999C55.1388 20.9938 54.8113 22.8639 53.7224 24.7904C53.4194 25.322 52.6194 26.6221 51.7385 27.2574C51.2609 27.5828 50.5996 27.7044 49.8741 27.7044L49.8728 27.7057Z" fill="#231F20"/>
<path d="M40.0927 21.7893C40.0812 21.7893 40.0696 21.7893 40.0581 21.788C38.4748 21.6484 37.4283 20.9708 36.8569 19.7168C36.4524 18.8074 36.5294 17.8236 37.0559 17.1486C37.522 16.5504 38.2848 16.2943 39.1477 16.4403C39.3608 16.4761 39.5046 16.6785 39.4674 16.8911C39.4314 17.1038 39.2298 17.2472 39.0154 17.2101C38.4299 17.1102 37.9663 17.2549 37.6748 17.6277C37.3307 18.0683 37.2909 18.7613 37.5721 19.3953C38.0202 20.3803 38.8331 20.894 40.1287 21.008C40.3444 21.0272 40.5036 21.2167 40.4844 21.4319C40.4664 21.6356 40.2956 21.788 40.094 21.788L40.0927 21.7893Z" fill="#231F20"/>
<path d="M39.2749 19.7155C39.1503 19.7155 39.0284 19.6566 38.9526 19.5465C38.9462 19.5375 38.7561 19.2736 38.4557 19.1391C38.2579 19.0508 38.1706 18.8189 38.2592 18.6229C38.3478 18.4257 38.5815 18.3386 38.7767 18.427C39.2775 18.6524 39.5664 19.0597 39.5972 19.1046C39.7192 19.2826 39.673 19.526 39.4945 19.6477C39.4264 19.6938 39.3507 19.7155 39.2736 19.7155H39.2749Z" fill="#231F20"/>
<path fill-rule="evenodd" clip-rule="evenodd" d="M50.1915 28.7216C50.1915 28.7216 48.3258 29.3146 46.5101 28.4923C44.593 27.6354 42.3086 24.4485 42.3086 24.4485C42.3086 24.4485 44.4517 26.2456 46.1737 26.7413C47.9983 27.2716 50.2005 27.3612 50.2005 27.3612L50.1915 28.7216Z" fill="#231F20"/>
<path d="M39.2735 30.4161C39.2041 30.4161 39.1348 30.3982 39.0706 30.3597C38.8857 30.2483 38.8266 30.0075 38.9383 29.823C39.0911 29.5707 39.2208 29.3068 39.3223 29.0366C39.7473 27.9209 39.235 24.0846 39.0012 22.7C38.9653 22.4873 39.1091 22.2862 39.3223 22.2504C39.5341 22.2145 39.737 22.358 39.773 22.5706C39.8629 23.1009 40.6295 27.7992 40.0542 29.312C39.9361 29.6258 39.7858 29.9345 39.6073 30.2278C39.5341 30.3495 39.4044 30.4161 39.2722 30.4161H39.2735Z" fill="#231F20"/>
<path d="M51.063 30.703C50.9988 30.703 50.9333 30.6877 50.8742 30.6544C50.6996 30.5583 50.5429 30.4533 50.4081 30.3431C49.7828 29.8359 49.8046 29.052 49.8238 28.2937C49.8315 28.0132 49.8393 27.7237 49.8174 27.4368C49.802 27.2216 49.9638 27.0346 50.1782 27.0179C50.3876 27.0013 50.5814 27.1626 50.5981 27.3791C50.6225 27.7045 50.6136 28.0144 50.6058 28.3142C50.5866 29.0315 50.5904 29.4836 50.9012 29.7373C51.0013 29.8192 51.1195 29.8974 51.2517 29.9704C51.4405 30.0754 51.5098 30.3124 51.4045 30.5007C51.3326 30.63 51.1991 30.7018 51.0617 30.7018L51.063 30.703Z" fill="#231F20"/>
<path d="M51.3361 20.3624C51.2604 20.3624 51.1846 20.3406 51.1165 20.2945C50.938 20.1728 50.8905 19.9307 51.0125 19.7514C51.4632 19.0879 51.39 19.0366 51.0344 18.792C50.7711 18.6114 50.4116 18.3642 50.2292 17.8774C49.8967 16.9475 49.9108 15.869 50.2652 14.8315C50.3345 14.6265 50.558 14.5176 50.7621 14.5881C50.9676 14.6573 51.0767 14.8801 51.0061 15.0838C50.7082 15.9535 50.6941 16.8502 50.965 17.6084C51.0588 17.8595 51.2539 17.9927 51.4799 18.1477C52.0436 18.5358 52.4815 18.9828 51.6623 20.1895C51.5865 20.3009 51.4632 20.3611 51.3374 20.3611L51.3361 20.3624Z" fill="#231F20"/>
<path d="M45.6668 13.7491C45.5628 13.7491 45.4588 13.7081 45.3817 13.6274C45.2341 13.4712 45.2392 13.2265 45.3946 13.0779C45.4395 13.0344 46.5156 12.0301 48.2632 12.4464C48.4738 12.4964 48.6035 12.7077 48.5534 12.9178C48.5033 13.1279 48.2914 13.2572 48.0809 13.2073C46.7621 12.8935 45.9673 13.6146 45.9339 13.6454C45.8581 13.7158 45.7618 13.7504 45.6655 13.7504L45.6668 13.7491Z" fill="#231F20"/>
<path d="M51.9434 12.6578C51.8111 12.6578 51.6827 12.5911 51.6095 12.4707C51.4965 12.2863 51.5543 12.0468 51.7392 11.934C53.0387 11.1399 54.1494 11.715 54.1969 11.7393C54.387 11.8405 54.4602 12.0775 54.3574 12.2684C54.256 12.4579 54.0184 12.5309 53.8271 12.4285C53.7989 12.4144 53.0541 12.0468 52.1488 12.6001C52.0846 12.6398 52.014 12.6578 51.9447 12.6578H51.9434Z" fill="#231F20"/>
<path d="M37.7792 25.8908C37.6187 25.8908 37.4684 25.7921 37.4106 25.6333C37.3362 25.4309 37.4415 25.2068 37.6444 25.1325C38.7166 24.7431 38.6793 23.5839 38.6151 23.1048C38.5856 22.8909 38.7358 22.6937 38.9503 22.6655C39.1634 22.6347 39.3624 22.7859 39.3907 22.9998C39.5769 24.3703 39.0106 25.4694 37.9127 25.8677C37.8691 25.8831 37.8228 25.8908 37.7792 25.8908Z" fill="#231F20"/>
<path d="M40.5472 16.9206C40.3803 16.9206 40.2121 16.9065 40.0413 16.8783C39.8282 16.8425 39.6844 16.6414 39.719 16.4287C39.755 16.2161 39.9553 16.0726 40.1697 16.1072C42.1562 16.439 43.8409 14.1244 44.5651 11.8354C44.7308 11.3295 44.8694 10.8594 44.9979 10.4303C45.4601 8.87143 45.7657 7.84031 46.5631 7.49062C47.0177 7.29208 47.5455 7.35228 48.2273 7.68404C48.4212 7.77882 48.5021 8.01195 48.4084 8.20664C48.3133 8.40006 48.0784 8.48075 47.8845 8.38725C47.4312 8.16693 47.1025 8.10801 46.879 8.20664C46.4142 8.4103 46.1201 9.40044 45.749 10.6532C45.6193 11.0887 45.4781 11.5664 45.3112 12.0762C44.5471 14.492 42.7623 16.9219 40.5472 16.9219V16.9206Z" fill="#231F20"/>
<path d="M38.9238 23.2829C38.8609 23.2829 38.7979 23.2739 38.7337 23.2573C37.7951 22.9844 33.7785 20.242 33.0235 17.4036C32.4392 15.3285 31.887 8.38732 35.408 5.62058C35.5775 5.48737 35.824 5.51683 35.9576 5.68591C36.0911 5.85499 36.0616 6.10092 35.8921 6.23413C32.8578 8.61788 33.1467 14.9558 33.7785 17.1973C34.4218 19.617 37.9748 22.148 38.8801 22.4836C38.9533 22.335 39.0085 21.9379 38.997 21.6049C38.9893 21.3897 39.1588 21.2078 39.3745 21.2001C39.5864 21.1925 39.7726 21.3615 39.7803 21.5767C39.7905 21.8534 39.788 22.782 39.3424 23.1356C39.2204 23.2329 39.0766 23.2829 38.9238 23.2829Z" fill="#231F20"/>
<path d="M37.8985 4.60602C37.8292 4.60602 37.7585 4.58681 37.6943 4.54838C37.5094 4.43566 37.4529 4.19486 37.5659 4.01041C39.5126 0.84787 46.8601 1.63434 49.2536 2.94214C49.4436 3.04589 49.513 3.28286 49.409 3.47243C49.305 3.662 49.0674 3.73117 48.8774 3.62742C46.7946 2.48998 39.894 1.72144 38.2324 4.41901C38.1579 4.53942 38.0295 4.60474 37.8985 4.60474V4.60602Z" fill="#231F20"/>
<path d="M57.245 16.5517C57.2219 16.5517 57.1987 16.5491 57.1756 16.5453C56.9625 16.5082 56.8212 16.3045 56.8585 16.0919C57.3426 13.3751 55.4575 8.0965 53.9988 5.99967C53.1244 4.72133 52.3591 4.05655 51.6554 3.96689C51.1495 3.90156 50.6076 4.12572 50.0041 4.65217C49.841 4.79435 49.5932 4.77641 49.4519 4.61502C49.3094 4.45235 49.3274 4.20513 49.4891 4.06423C50.2724 3.38408 51.0133 3.09972 51.7555 3.19322C52.7058 3.31491 53.6239 4.0668 54.6447 5.55776C56.21 7.8083 58.1541 13.2841 57.6289 16.2302C57.5955 16.4198 57.4299 16.553 57.2437 16.553L57.245 16.5517Z" fill="#231F20"/>
<path d="M32.603 11.0003C32.1767 11.0003 31.7247 10.8428 31.2997 10.5341C30.4124 9.88848 29.624 8.53458 29.9887 7.08332C30.0413 6.87453 30.2545 6.74772 30.4638 6.79896C30.6731 6.85148 30.8015 7.06411 30.7488 7.27289C30.4843 8.32323 31.0583 9.39022 31.762 9.90257C31.9828 10.0627 32.5478 10.4021 33.0383 10.0986C33.222 9.98455 33.4634 10.0409 33.5777 10.2241C33.6919 10.4072 33.6354 10.6481 33.4518 10.7621C33.195 10.9222 32.9061 11.0003 32.6043 11.0003H32.603Z" fill="#231F20"/>
<path d="M33.5697 8.24002C33.0214 8.24002 32.4911 8.03764 32.066 7.65721C31.4715 7.12436 31.1787 6.34045 31.2648 5.50787C31.2866 5.29268 31.4741 5.13513 31.6937 5.15946C31.9094 5.18124 32.066 5.37337 32.0429 5.58728C31.9839 6.17009 32.1829 6.71191 32.5887 7.07697C32.9456 7.39719 33.4143 7.524 33.8753 7.42793C34.0872 7.38182 34.2952 7.5176 34.3401 7.72894C34.3851 7.94029 34.2502 8.1478 34.0384 8.19263C33.8817 8.22593 33.7251 8.2413 33.5684 8.2413L33.5697 8.24002Z" fill="#231F20"/>
<path d="M36.7727 5.63326C36.7291 5.63326 36.6841 5.62558 36.6405 5.61021C36.4363 5.53719 36.331 5.31432 36.4029 5.11066C36.8408 3.8874 35.8148 1.58947 35.377 0.6083L35.7262 0.431536L36.0922 0.290638C36.6084 1.44857 37.6832 3.85666 37.14 5.37324C37.0822 5.53335 36.932 5.63326 36.7715 5.63326H36.7727Z" fill="#231F20"/>
<path d="M30.4166 6.49415C30.4089 6.49415 30.4025 6.49415 30.3948 6.49415C30.1791 6.48262 30.0134 6.29817 30.025 6.08298C30.1007 4.7073 31.2718 3.30087 32.692 2.88202C33.7771 2.54899 35.3282 3.55449 36.0049 5.04033C36.0948 5.23631 36.0075 5.46815 35.8097 5.55782C35.6133 5.6462 35.3809 5.56038 35.291 5.36312C34.7452 4.16548 33.5472 3.43409 32.918 3.63006C31.8098 3.95669 30.8648 5.0762 30.807 6.12653C30.7954 6.33404 30.6221 6.49543 30.4166 6.49543V6.49415Z" fill="#231F20"/>
<path d="M39.2534 3.11253C39.0929 3.11253 38.9426 3.0139 38.8848 2.85379C38.6858 2.30044 37.9064 1.48835 36.9972 1.13867C35.7478 0.628868 35.0262 0.754396 34.6384 0.950374C34.1838 1.17965 34.0541 1.56777 34.0259 1.68177C33.9732 1.89183 33.7601 2.01736 33.5508 1.96613C33.3415 1.91361 33.2131 1.70098 33.2657 1.49219C33.398 0.964463 33.7691 0.513588 34.284 0.253565C34.8169 -0.0154231 35.7709 -0.206277 37.2849 0.412397C38.4495 0.860711 39.3599 1.86878 39.6193 2.58864C39.6925 2.79102 39.5872 3.01518 39.3831 3.08819C39.3394 3.10356 39.2945 3.11125 39.2495 3.11125L39.2534 3.11253Z" fill="#231F20"/>
<path d="M36.9136 4.88528C36.7402 4.88528 36.5823 4.77 36.5347 4.59452C36.242 3.49423 34.6651 2.01351 33.4953 2.03529C32.793 2.05706 32.3178 2.6578 32.0841 3.82086C32.0418 4.03221 31.8363 4.16926 31.6232 4.12699C31.4113 4.08472 31.2739 3.8785 31.3163 3.66715C31.7079 1.71506 32.7044 1.27828 33.4709 1.25394C35.0375 1.20783 36.9136 2.96906 37.2924 4.39342C37.3476 4.6022 37.223 4.81611 37.0137 4.87119C36.9803 4.88016 36.9457 4.884 36.9136 4.884V4.88528Z" fill="#231F20"/>
<path d="M56.267 25.4731C56.1899 25.4731 56.1129 25.4501 56.0448 25.404C54.2317 24.1525 55.074 22.6923 55.8162 21.4037C56.2592 20.6352 56.7164 19.841 56.7087 19.0494C56.7112 17.0564 55.0304 14.7315 54.0262 13.343C53.8426 13.0881 53.677 12.8601 53.5421 12.6629C52.7987 11.5459 52.2298 10.4533 51.6289 9.2954C51.4273 8.90729 51.2231 8.51277 51.0074 8.11185C50.7634 7.65457 50.3255 7.10635 49.8902 7.06664C49.6578 7.04486 49.4203 7.18704 49.1814 7.48806C49.0466 7.65713 48.8001 7.68403 48.6306 7.55082C48.4611 7.41633 48.4328 7.17039 48.5676 7.00131C49.0838 6.35446 49.6103 6.25711 49.9621 6.28914C50.8995 6.37496 51.5287 7.42529 51.6982 7.74552C51.9139 8.149 52.1207 8.54608 52.3236 8.93675C52.9142 10.0742 53.4728 11.1489 54.1906 12.2274C54.319 12.4157 54.4808 12.6385 54.6606 12.887C55.7893 14.4472 57.4945 16.8053 57.492 19.0469C57.5022 20.0473 56.9668 20.9759 56.4955 21.7944C55.6904 23.1906 55.3244 23.9578 56.4904 24.7622C56.6689 24.8852 56.7125 25.1286 56.5893 25.3053C56.5135 25.4155 56.3915 25.4731 56.267 25.4731Z" fill="#231F20"/>
<path fill-rule="evenodd" clip-rule="evenodd" d="M47.1666 17.2357C46.784 17.287 46.4386 16.8976 46.3744 16.4198C46.3102 15.9433 46.5927 15.5168 46.974 15.4643C47.3567 15.413 47.7021 15.8024 47.7663 16.2789C47.783 16.7618 47.5005 17.1883 47.1666 17.2345V17.2357Z" fill="#231F20"/>
<path fill-rule="evenodd" clip-rule="evenodd" d="M52.6998 16.763C52.3172 16.8142 51.9718 16.4248 51.9076 15.9483C51.8434 15.4718 52.1259 15.0453 52.5072 14.9928C52.8899 14.9403 53.2353 15.3309 53.2995 15.8074C53.3162 16.2903 53.0337 16.7169 52.6998 16.763Z" fill="#231F20"/>
<path d="M115.16 123.493C117.1 127.246 117.982 129.901 120.29 130.904C122.14 131.71 124.887 130.481 126.18 129.806C125.896 129.185 125.435 128.592 125.001 128.067C122.994 125.639 121.331 121.717 119.883 118.921C118.74 116.714 117.701 115.696 116.747 113.4C116.382 112.524 116.019 111.648 115.656 110.772L116.865 112.825C113.696 104.77 110.965 92.4026 109.808 88.9877C109.253 87.3508 107.196 79.6052 106.616 77.3956C106.229 75.9239 105.693 74.4022 104.538 73.4069C103.511 72.5218 102.109 72.1683 100.751 72.167C99.3942 72.1657 94.5121 72.3322 93.1934 72.6499L93.2743 72.787C93.0778 72.8446 92.8839 72.9086 92.6951 72.9881C91.6884 73.4095 90.9154 74.1396 90.3068 75.0285C89.9113 77.1356 89.092 79.153 88.5463 81.2319C87.8169 84.014 87.5819 86.9024 87.1749 89.7512C87.1158 91.9863 87.2044 94.2253 87.4471 96.4477C89.449 96.3849 91.4521 96.3209 93.454 96.2568C92.7105 104.156 95.3378 111.954 98.1627 119.372C99.8654 123.846 102.35 128.07 101.826 132.828C101.818 132.893 101.77 132.98 101.697 133.075C102.369 133.245 103.467 134.689 104.049 137.549C104.882 141.644 105.011 144.407 106.918 145.992C108.824 147.575 113.701 145.992 114.288 145.848C114.332 145.838 114.406 145.851 114.5 145.881C113.262 144.146 112.463 141.027 111.675 139.081C109.406 133.476 108.387 132.597 107.694 127.851C107.366 125.593 107.313 121.179 106.984 118.921C106.363 114.659 105.921 108.218 105.921 108.218C106.639 108.135 107.162 109.336 107.585 109.919C109.463 112.501 110.024 113.878 111.283 117.849C111.48 118.468 111.681 119.17 111.877 119.827C112.647 120.026 113.952 121.154 115.16 123.493Z" fill="#FDE7DC"/>
<path d="M100.579 133.726C100.639 133.842 100.692 133.963 100.75 134.08C100.832 133.942 100.909 133.81 100.985 133.681C100.797 133.785 100.637 133.822 100.579 133.726Z" fill="#FDE7DC"/>
<path d="M114.287 145.848C113.7 145.99 108.823 147.575 106.916 145.992C105.01 144.408 104.881 141.645 104.048 137.549C103.466 134.688 102.368 133.245 101.695 133.075C101.492 133.024 101.326 133.084 101.227 133.261C101.146 133.404 101.066 133.541 100.985 133.681C100.91 133.81 100.831 133.942 100.75 134.08C100.452 134.584 100.102 135.186 99.5831 136.184C99.2736 136.778 99.3468 137.285 99.628 137.828L99.4238 137.515C99.4238 137.515 99.9066 148.892 99.9516 149.709C99.9965 150.525 101.576 150.395 101.532 149.759C101.487 149.122 101.843 141.971 101.826 141.186L100.216 138.725C100.721 139.408 101.372 140.212 101.937 141.309C103.273 143.905 104.13 147.019 104.811 149.628C105.373 151.785 119.669 151.133 119.956 150.279C120.222 149.49 115.653 146.25 114.5 145.88C114.406 145.849 114.332 145.837 114.288 145.847L114.287 145.848Z" fill="#EE1D23"/>
<path d="M126.838 129.446C126.731 129.506 126.498 129.641 126.179 129.806C124.886 130.481 122.141 131.71 120.289 130.904C117.983 129.9 117.099 127.246 115.159 123.493C113.951 121.154 112.646 120.027 111.876 119.827C111.521 119.736 111.28 119.838 111.213 120.111C111.001 120.978 110.77 121.669 110.399 123.423C110.028 125.178 112.089 125.6 114.114 127.752C116.139 129.904 117.833 132.693 119.216 135.042C120.36 136.984 134.562 131.731 134.61 130.819C134.659 129.906 127.377 129.143 126.839 129.446H126.838Z" fill="#EE1D23"/>
<path d="M116.03 136.094C115.811 135.486 114.202 128.421 113.97 127.662L110.604 124.765C110.604 124.765 114.195 135.709 114.462 136.491C114.729 137.275 116.247 136.701 116.028 136.094H116.03Z" fill="#EE1D23"/>
<path d="M120.576 135.86C119.433 135.86 119.055 135.541 118.877 135.24C117.466 132.842 115.794 130.108 113.828 128.018C113.129 127.274 112.426 126.746 111.807 126.28C110.644 125.404 109.726 124.713 110.016 123.341C110.273 122.127 110.46 121.429 110.626 120.812C110.699 120.539 110.767 120.288 110.833 120.018C110.916 119.677 111.174 119.45 111.522 119.408C112.42 119.303 114.043 120.479 115.508 123.312C115.874 124.02 116.204 124.69 116.511 125.318C117.832 128.009 118.705 129.787 120.445 130.544C121.763 131.119 124.006 130.603 126.601 129.129L126.645 129.104C127.345 128.71 133.319 129.409 134.579 130.187C134.872 130.367 135.013 130.586 135 130.837C134.939 131.976 127.352 134.53 124.165 135.302C122.493 135.709 121.357 135.857 120.576 135.857V135.86ZM111.214 120.111L111.594 120.203C111.527 120.479 111.458 120.736 111.382 121.014C111.219 121.621 111.034 122.309 110.783 123.503C110.603 124.352 111.111 124.776 112.279 125.655C112.891 126.116 113.652 126.69 114.399 127.481C116.421 129.631 118.119 132.408 119.552 134.841C119.605 134.934 119.834 135.041 120.314 135.069C123.477 135.255 132.725 131.836 134.11 130.807C133.092 130.231 127.8 129.55 127 129.797C125.338 130.745 122.251 132.182 120.133 131.259C118.129 130.386 117.155 128.404 115.808 125.66C115.503 125.037 115.177 124.371 114.812 123.668C113.356 120.85 111.866 120.053 111.593 120.188L111.214 120.108V120.111Z" fill="#231F20"/>
<path d="M115.069 137.262C114.987 137.262 114.906 137.254 114.829 137.24C114.473 137.173 114.205 136.945 114.093 136.617C113.828 135.842 110.381 125.333 110.234 124.886C110.167 124.681 110.279 124.461 110.485 124.394C110.69 124.325 110.911 124.439 110.979 124.644C111.015 124.753 114.572 135.594 114.835 136.366C114.847 136.399 114.88 136.492 115.096 136.481C115.396 136.469 115.643 136.281 115.662 136.208C115.545 135.898 115.125 134.138 114.5 131.49C114.107 129.828 113.7 128.108 113.598 127.775C113.536 127.568 113.652 127.349 113.859 127.288C114.066 127.224 114.284 127.342 114.347 127.548C114.455 127.905 114.829 129.483 115.261 131.311C115.718 133.245 116.289 135.651 116.4 135.962C116.497 136.23 116.434 136.522 116.228 136.761C115.965 137.069 115.499 137.262 115.071 137.262H115.069Z" fill="#231F20"/>
<path d="M88.4257 75.2848L62.1458 74.0513L64.443 73.5005C62.6299 73.6606 59.8986 73.79 56.9234 73.8745C52.564 76.4299 47.3853 77.5135 42.3736 78.5152C42.3376 78.4089 42.3017 78.3013 42.2657 78.195C42.2182 78.2782 42.1784 78.3628 42.1527 78.446C41.815 79.5374 42.597 80.5915 43.4496 81.2781C47.0489 81.6265 50.9268 82.1043 54.8214 82.7678C69.4791 85.2642 78.4124 88.455 80.4194 91.1705C81.0153 91.9762 81.5507 94.1242 82.0233 97.005C82.1761 96.9588 82.3289 96.9153 82.4829 96.882C83.4999 97.4187 85.3927 98.045 86.5368 97.835C86.6742 97.8094 86.8244 97.7761 86.9092 97.6659C86.9746 97.5801 86.9888 97.4674 86.999 97.3598C87.5486 91.7494 87.5512 86.052 88.8789 80.5723C88.965 80.2162 89.0728 79.6514 89.2128 78.9878C89.6288 77.6775 90.0539 76.3697 90.3055 75.026C90.3569 74.7519 90.4031 74.4778 90.4391 74.1999C90.4404 74.1896 90.4417 74.1794 90.4417 74.1678L88.4257 75.2822V75.2848Z" fill="#FABDA6"/>
<path d="M88.4249 75.6754C88.4069 75.6754 62.1258 74.4406 62.1258 74.4406C61.91 74.4304 61.7431 74.2472 61.7534 74.032C61.7637 73.8168 61.9511 73.6567 62.163 73.6606L88.3325 74.889L98.7527 69.13L85.8426 68.756C85.6269 68.7496 85.4561 68.5703 85.4625 68.3538C85.469 68.1386 85.6539 67.9644 85.8658 67.9747L100.204 68.3897C100.38 68.3948 100.531 68.5165 100.574 68.6881C100.615 68.8598 100.538 69.0365 100.384 69.1224L88.6162 75.6268C88.5585 75.6588 88.493 75.6754 88.4262 75.6754H88.4249Z" fill="#231F20"/>
<path d="M67.1362 72.8932C66.9487 72.8932 66.7818 72.7587 66.7497 72.5679C66.7137 72.3552 66.8563 72.1541 67.0681 72.1183C67.0874 72.1144 67.5664 72.035 69.4039 71.9313C69.617 71.9223 69.8045 72.0837 69.8173 72.2989C69.8289 72.5141 69.6645 72.6985 69.4488 72.7113C67.6832 72.81 67.2068 72.8868 67.2017 72.8881C67.1798 72.8919 67.158 72.8932 67.1375 72.8932H67.1362Z" fill="#231F20"/>
<path d="M66.5432 65.5793C66.3865 65.5793 66.2388 65.4846 66.1785 65.3308C65.9409 64.7263 65.6982 64.3048 65.4851 63.9321C65.096 63.2558 64.7609 62.6717 64.662 61.428C64.5362 59.8576 64.2331 58.3743 63.9403 56.9397C63.6424 55.482 63.3343 53.9757 63.2059 52.3566C63.1596 51.7687 63.1596 51.1552 63.1609 50.5057C63.1635 48.8367 63.166 47.1101 62.3044 45.9624C62.0656 45.6435 61.7934 45.354 61.5045 45.0478C61.3054 44.8352 61.1051 44.6226 60.9163 44.401C59.4255 42.6462 58.6885 40.3726 58.0387 38.368C57.972 38.163 58.085 37.9427 58.2904 37.8761C58.4959 37.8108 58.7167 37.9222 58.7835 38.1271C59.4114 40.0639 60.1215 42.258 61.5134 43.8963C61.6932 44.1077 61.8845 44.3113 62.0746 44.5137C62.3648 44.8224 62.6653 45.1413 62.9298 45.4949C63.9493 46.8513 63.9455 48.7099 63.9429 50.5083C63.9429 51.1411 63.9416 51.7392 63.9853 52.2952C64.1111 53.8655 64.4142 55.3488 64.7069 56.7834C65.0048 58.2411 65.313 59.7474 65.4414 61.3665C65.5262 62.4347 65.7933 62.901 66.1631 63.544C66.3904 63.9398 66.6472 64.3868 66.9066 65.0452C66.9862 65.2463 66.886 65.473 66.6844 65.5512C66.6382 65.5691 66.5894 65.5781 66.5419 65.5781L66.5432 65.5793Z" fill="#231F20"/>
<path d="M70.7817 63.7796C70.6147 63.7796 70.4607 63.6733 70.408 63.5055C69.8726 61.8058 67.1144 58.2206 67.0861 58.1847C67.054 58.1437 67.0309 58.0963 67.018 58.0464C66.7792 57.2022 60.4783 36.2596 59.5524 34.6469C58.5162 32.8806 57.3092 32.4771 56.0315 32.0493L55.7143 31.9417C55.2418 31.7803 54.6152 31.6624 53.9513 31.5382L53.7202 31.4946C53.5083 31.4549 53.3683 31.25 53.4081 31.0373C53.4479 30.826 53.6521 30.6851 53.8653 30.7261L54.0951 30.7696C54.7872 30.9003 55.4421 31.022 55.9673 31.2026L56.2793 31.3076C57.6379 31.7623 59.0427 32.2311 60.2291 34.2537C61.214 35.9714 67.3224 56.3171 67.75 57.7658C68.1301 58.2628 70.6096 61.5419 71.1541 63.2699C71.2183 63.4761 71.104 63.6951 70.8972 63.7592C70.8587 63.772 70.8189 63.7771 70.7791 63.7771L70.7817 63.7796Z" fill="#231F20"/>
<path d="M68.6812 67.5622C67.5743 67.5622 66.47 67.0844 65.715 66.2761C65.2758 65.8061 65.3478 65.4243 65.4299 65.2386C65.5275 65.0196 65.8087 64.6699 66.6074 64.8031C67.4369 64.9402 68.278 65.0913 69.1075 65.2514C69.3194 65.2924 69.4581 65.4974 69.417 65.7087C69.3759 65.9201 69.1717 66.0584 68.9573 66.0174C68.1342 65.8586 67.3008 65.7087 66.4777 65.5729C66.3095 65.5447 66.2094 65.5524 66.1593 65.5652C66.1747 65.6011 66.2107 65.6639 66.2864 65.7433C66.9079 66.4081 67.8222 66.8039 68.7339 66.7795C68.9419 66.7757 69.1294 66.9473 69.1319 67.1625C69.1358 67.3777 68.9637 67.5558 68.748 67.5609C68.7249 67.5609 68.7018 67.5609 68.6786 67.5609L68.6812 67.5622Z" fill="#231F20"/>
<path d="M75.0947 71.2833C74.8674 71.2833 74.6696 71.1936 74.5387 71.0284C74.251 70.6672 74.3653 70.0856 74.5066 69.5208C74.522 69.4567 74.5361 69.4016 74.5451 69.3619C74.8648 67.7429 75.3232 66.0162 76.7165 66.0162C77.1569 66.0188 77.3624 66.2558 77.4458 66.3979C77.8542 67.0871 77.2648 68.4679 76.2516 70.329C76.2003 70.4238 76.1579 70.5007 76.1284 70.557C75.8857 71.0194 75.5236 71.2782 75.1088 71.2846H75.0947V71.2833ZM75.3117 69.5118C75.3014 69.5618 75.2847 69.6296 75.2655 69.7091C75.1679 70.0997 75.1268 70.3636 75.1435 70.493C75.2899 70.4507 75.4003 70.2573 75.4337 70.1945C75.4645 70.1356 75.5082 70.0549 75.5621 69.955C76.9219 67.456 76.8385 66.9103 76.773 66.7989C76.7691 66.7989 76.7511 66.7963 76.719 66.7963C76.1001 66.7963 75.6931 67.5828 75.3117 69.5118Z" fill="#231F20"/>
<path d="M72.1445 72.8882C72.0431 72.8882 71.9442 72.8767 71.8492 72.8562C71.541 72.7883 71.3034 72.5488 71.1416 72.144C70.6729 70.9643 70.7911 69.6821 70.8951 68.5511L71.2071 65.1567C71.2521 64.6738 71.306 64.0731 71.6732 63.5876C72.0803 63.0496 72.8199 62.796 73.4722 62.9728C74.1245 63.1495 74.6343 63.74 74.7139 64.4099C74.7396 64.6239 74.5855 64.8186 74.3711 64.8429C74.1554 64.8672 73.9615 64.7148 73.9371 64.5009C73.896 64.1461 73.6148 63.8207 73.2693 63.7272C72.9239 63.6337 72.5169 63.7721 72.3011 64.0577C72.0854 64.3421 72.0341 64.7391 71.9891 65.2272L71.6771 68.6215C71.5808 69.6655 71.4716 70.8477 71.8723 71.8545C71.9544 72.0607 72.0187 72.0915 72.0199 72.0928C72.3885 72.1735 72.4873 71.9096 72.5259 71.811C72.6029 71.6099 72.8302 71.51 73.0318 71.5855C73.2334 71.6624 73.3348 71.8891 73.2578 72.0902C73.0305 72.682 72.5759 72.8882 72.1471 72.8882H72.1445Z" fill="#231F20"/>
<path d="M73.7672 73.0419C73.7017 73.0419 73.6298 73.0343 73.5477 73.0214C73.3165 72.9817 73.0122 72.8844 72.8748 72.6461C72.3509 71.738 72.4909 70.63 72.5936 69.8205L72.9634 66.8962C73.025 66.412 73.088 65.9125 73.2459 65.4193C73.4436 64.8032 73.9072 64.1589 74.6378 64.1897C75.5097 64.2294 76.0311 64.7686 76.4394 66.0495C76.5049 66.2557 76.3906 66.4748 76.1852 66.5401C75.9797 66.6041 75.7588 66.4914 75.6933 66.2865C75.285 65.0017 74.8908 64.9838 74.6032 64.971C74.3515 64.9646 74.1024 65.3181 73.9932 65.6588C73.8571 66.0815 73.7981 66.5452 73.7416 66.9948L73.3717 69.9191C73.26 70.8029 73.1958 71.5881 73.5297 72.2106C73.5708 72.2286 73.6375 72.2452 73.694 72.2542C74.0998 71.8289 74.2218 71.1168 74.313 70.5877C74.3322 70.475 74.3502 70.37 74.3695 70.2752C74.4118 70.0639 74.6173 69.9268 74.8305 69.9691C75.0423 70.0113 75.1797 70.2176 75.1374 70.4289C75.1194 70.516 75.1027 70.6146 75.0847 70.7197C74.9743 71.3652 74.8073 72.34 74.1139 72.9318C74.0266 73.0061 73.9162 73.0432 73.7672 73.0432V73.0419Z" fill="#231F20"/>
<path d="M70.1501 72.8934C70.1231 72.8934 70.0961 72.8934 70.0692 72.8895C69.5273 72.8434 69.1138 72.3951 68.9058 71.624C68.2535 69.2134 68.7363 66.6746 69.1626 64.4356C69.214 64.1653 69.2782 63.8285 69.4811 63.539C69.7841 63.1073 70.3555 62.8883 70.8717 63.0074C71.4791 63.147 72.0107 64.077 72.0107 64.9966C72.0107 65.2118 71.8348 65.3873 71.619 65.3873C71.4033 65.3873 71.2274 65.2118 71.2274 64.9966C71.2274 64.3088 70.8268 63.8093 70.6932 63.7683C70.4891 63.7222 70.2438 63.8144 70.1231 63.9873C70.0165 64.1397 69.9741 64.3639 69.9318 64.5816C69.5209 66.7387 69.056 69.1839 69.6621 71.4204C69.7494 71.7419 69.9189 72.0928 70.1359 72.1108C70.3401 72.1274 70.6675 71.6945 70.8216 71.2026C70.8858 70.9964 71.1067 70.8811 71.3121 70.9451C71.5189 71.0092 71.6344 71.2282 71.5702 71.4344C71.3982 71.9865 70.9102 72.8921 70.1526 72.8921L70.1501 72.8934Z" fill="#231F20"/>
<path d="M86.0442 98.2666C84.5059 98.2666 82.3551 97.3943 81.6938 96.8435C81.5281 96.7052 81.5063 96.458 81.645 96.2927C81.7836 96.1275 82.0302 96.1044 82.1971 96.244C82.825 96.7679 85.2455 97.6761 86.4654 97.4519C86.5463 97.4366 86.5964 97.4238 86.6143 97.4122C86.6015 97.4199 86.6053 97.352 86.6092 97.3226C86.7697 95.6869 86.8853 94.0127 86.997 92.395C87.2692 88.46 87.5504 84.3906 88.4968 80.4826C88.5494 80.2649 88.6098 79.969 88.6804 79.6193C89.0117 77.9938 89.5677 75.2719 90.663 73.7925C90.7914 73.6196 91.0367 73.5811 91.2113 73.7105C91.3847 73.8386 91.4219 74.0832 91.2935 74.2574C90.3009 75.5985 89.7667 78.2141 89.4483 79.7768C89.3751 80.1368 89.3122 80.4429 89.2583 80.6671C88.3273 84.511 88.0474 88.5471 87.7777 92.45C87.6647 94.0742 87.5491 95.7535 87.3874 97.4007C87.3758 97.5237 87.3552 97.7299 87.2179 97.9067C87.0342 98.1436 86.7556 98.1949 86.6054 98.2218C86.4307 98.2538 86.242 98.2679 86.0429 98.2679L86.0442 98.2666Z" fill="#231F20"/>
<path d="M111.49 119.911C111.462 119.911 111.435 119.909 111.405 119.902C111.194 119.856 111.06 119.647 111.106 119.437C111.195 119.034 110.866 117.31 109.857 114.736C109.085 112.769 107.892 110.84 105.989 108.482C105.853 108.314 105.88 108.068 106.048 107.932C106.216 107.798 106.463 107.823 106.599 107.991C108.555 110.413 109.784 112.405 110.586 114.451C111.358 116.417 112.054 118.774 111.872 119.604C111.832 119.787 111.669 119.911 111.489 119.911H111.49Z" fill="#231F20"/>
<path d="M43.0914 81.2383C42.9938 81.2383 42.8963 81.2025 42.8192 81.1294C42.1451 80.4813 41.566 78.4088 40.4424 73.7015C40.3923 73.4915 40.522 73.2814 40.7326 73.2314C40.9419 73.1815 41.1538 73.3108 41.2038 73.5209C42.077 77.1766 42.7897 80.0163 43.3624 80.5658C43.5177 80.7157 43.5229 80.9629 43.3726 81.1179C43.2956 81.1973 43.1929 81.2383 43.0902 81.2383H43.0914Z" fill="#231F20"/>
<path d="M51.839 41.583C51.7414 41.583 51.6438 41.5472 51.5681 41.4754C50.4021 40.3649 48.8638 38.4295 47.8468 37.1486C47.3794 36.5606 46.8966 35.9522 46.7862 35.8587C46.6873 35.7831 46.1724 35.5948 45.7178 35.427C44.5108 34.9826 42.6848 34.3101 41.1889 33.2892C40.2605 32.6552 39.223 31.1949 38.6875 30.3803C38.5244 30.1331 38.4705 29.8257 38.5411 29.54C38.6066 29.2698 38.7736 29.0482 39.0098 28.9162L39.0586 28.8804C39.1344 28.8278 39.223 28.774 39.2243 28.7728C39.4207 28.6818 39.6531 28.7676 39.7443 28.9636C39.8265 29.1417 39.7636 29.3505 39.6031 29.4542L39.5055 29.5208C39.4451 29.5618 39.3899 29.5977 39.3886 29.5989C39.3373 29.6284 39.3129 29.6835 39.3039 29.7232C39.2859 29.7988 39.3 29.8846 39.3437 29.9499C39.6608 30.4315 40.7613 32.0467 41.6332 32.6424C43.0482 33.6094 44.819 34.2614 45.9901 34.6918C46.7233 34.9621 47.0841 35.0978 47.269 35.2413C47.4205 35.3579 47.6838 35.6832 48.4606 36.6618C49.4648 37.9261 50.9825 39.8359 52.1087 40.9093C52.2653 41.0579 52.2705 41.3051 52.1215 41.4613C52.0445 41.542 51.9418 41.5817 51.8377 41.5817L51.839 41.583Z" fill="#231F20"/>
<path d="M42.9623 40.4853C42.6207 40.4853 42.1173 39.9921 40.0577 37.8377C38.6683 36.3851 36.9399 34.5778 35.5968 33.4506C35.5069 33.375 35.4401 33.229 35.4414 33.1124C35.4453 32.8473 35.6456 32.6885 36.0847 32.3401C36.7692 31.7982 38.0417 30.7889 38.6696 29.2569C38.7518 29.0571 38.9803 28.9623 39.1807 29.043C39.381 29.125 39.4773 29.353 39.3951 29.5528C38.6888 31.2744 37.3123 32.3657 36.5714 32.9523C36.5098 33.001 36.4456 33.0522 36.3878 33.0996C37.713 34.2563 39.318 35.933 40.624 37.2997C41.4997 38.2155 42.4743 39.2351 42.9058 39.5912C43.0265 39.3888 43.1921 39.0443 43.3321 38.751C44.0203 37.3164 45.0591 35.1465 46.663 35.4911C47.4861 35.6666 48.6469 36.6874 49.5521 38.0298C49.6728 38.2091 49.6253 38.4512 49.4456 38.5716C49.2658 38.692 49.0231 38.6446 48.9024 38.4653C47.9291 37.0217 46.9121 36.3429 46.4986 36.2545C45.5034 36.038 44.5853 37.9478 44.0383 39.0878C43.6351 39.9281 43.4451 40.3047 43.1574 40.4353C43.0907 40.4661 43.029 40.4853 42.961 40.4853H42.9623Z" fill="#231F20"/>
<path d="M60.2128 66.093C60.0587 66.093 59.9136 66.002 59.8507 65.8522C59.2806 64.4829 58.5166 62.4411 58.1095 60.498C57.9875 59.9126 57.8232 58.8328 57.6344 57.584C57.2042 54.7468 56.6161 50.8618 56.01 49.4016C55.671 48.5844 54.5693 46.7066 53.5022 44.8903C52.7138 43.5466 51.9691 42.2785 51.4927 41.3768C51.3912 41.1859 51.4657 40.9502 51.657 40.849C51.8484 40.7491 52.0846 40.8221 52.1861 41.013C52.6548 41.8994 53.4291 43.22 54.179 44.4958C55.2589 46.3351 56.3747 48.2373 56.7343 49.1031C57.3763 50.6518 57.9734 54.5905 58.4087 57.4674C58.5962 58.706 58.758 59.7756 58.8761 60.3392C59.2716 62.2234 60.0176 64.2152 60.5749 65.5537C60.6584 65.7535 60.5634 65.9815 60.3631 66.0648C60.3143 66.0853 60.2629 66.0943 60.2128 66.0943V66.093Z" fill="#231F20"/>
<path d="M101.817 133.504C101.807 133.504 101.798 133.504 101.788 133.504C101.572 133.489 101.41 133.3 101.427 133.085C101.568 131.213 100.971 129.084 99.2286 123.477C99.1285 123.153 98.9667 122.616 98.7677 121.956C98.0486 119.565 96.7093 115.117 96.1892 113.959C95.6872 112.841 94.0641 107.934 93.8034 106.503C93.259 103.504 92.6953 100.404 92.9945 97.2829C93.0304 96.905 92.9739 96.7782 92.9431 96.7385C92.807 96.7308 92.4808 96.7283 92.1649 96.7257C90.9425 96.7167 88.6671 96.7001 87.0505 96.4029C86.8373 96.3632 86.6973 96.1595 86.7359 95.9482C86.7757 95.7356 86.9786 95.5934 87.1917 95.6344C88.7403 95.92 90.9707 95.9354 92.1701 95.9443C93.0073 95.9507 93.119 95.9533 93.2359 96.0045C93.6609 96.189 93.8419 96.645 93.7739 97.3572C93.4837 100.37 94.0384 103.416 94.5739 106.362C94.8204 107.718 96.4268 112.574 96.9045 113.639C97.4451 114.843 98.742 119.153 99.5176 121.73C99.7153 122.388 99.8771 122.923 99.9773 123.245C101.752 128.957 102.359 131.134 102.209 133.144C102.194 133.349 102.022 133.505 101.819 133.505L101.817 133.504Z" fill="#231F20"/>
<path d="M114.286 146.239C114.182 146.239 114.08 146.198 114.002 146.117C112.519 144.554 111.586 141.571 110.506 138.115C109.913 136.217 109.299 134.253 108.54 132.364C108.532 132.347 108.527 132.329 108.523 132.312C107.657 128.735 107.404 126.809 107.237 125.534C107.206 125.295 107.176 125.077 107.148 124.873C106.998 123.831 106.844 122.753 106.795 121.671C106.754 120.759 105.637 106.568 105.199 103.108C104.635 98.6495 104.141 95.2526 103.594 92.0926C103.518 91.6558 103.451 91.1998 103.383 90.7361C102.992 88.068 102.586 85.309 100.353 83.9512C100.086 83.7886 99.7852 83.6528 99.4616 83.5452C98.4562 83.2147 97.3544 83.1865 96.2886 83.1596C96.2681 83.1596 96.2463 83.1596 96.2244 83.1596C94.7811 83.1596 92.0743 84.3342 90.274 85.1156C88.9617 85.6856 88.3158 85.9597 87.9922 85.9597C87.7765 85.9597 87.6006 85.7855 87.6006 85.569C87.6006 85.3525 87.7765 85.1783 87.9922 85.1783C88.1977 85.1655 89.1351 84.7582 89.962 84.3995C91.9652 83.5298 94.7054 82.3501 96.3092 82.3796C97.4315 82.4077 98.5923 82.4372 99.7081 82.8048C100.088 82.9304 100.443 83.0917 100.761 83.2852C103.307 84.8325 103.759 87.9092 104.159 90.6234C104.226 91.0807 104.292 91.5303 104.367 91.9607C104.916 95.1322 105.412 98.5407 105.977 103.011C106.415 106.482 107.537 120.721 107.578 121.637C107.626 122.68 107.777 123.738 107.925 124.763C107.954 124.969 107.984 125.191 108.016 125.434C108.18 126.69 108.43 128.584 109.281 132.101C110.045 134.011 110.661 135.98 111.256 137.885C112.264 141.107 113.215 144.151 114.574 145.582C114.723 145.738 114.716 145.985 114.558 146.134C114.483 146.205 114.386 146.241 114.289 146.241L114.286 146.239Z" fill="#231F20"/>
<path d="M112.244 151.465C111.578 151.465 111.047 151.456 110.753 151.446C104.823 151.239 104.527 150.102 104.429 149.728C103.734 147.064 102.884 144.011 101.586 141.489C101.124 140.591 100.603 139.898 100.144 139.286C99.2813 138.137 98.5981 137.229 99.235 136.004C99.8 134.917 100.163 134.303 100.483 133.763C100.623 133.526 100.753 133.307 100.885 133.071C101.055 132.769 101.36 132.622 101.7 132.674C102.574 132.81 103.8 134.37 104.432 137.472C104.59 138.246 104.722 138.972 104.845 139.652C105.377 142.57 105.729 144.497 107.167 145.692C107.883 146.288 109.635 146.745 113.911 145.547C114.039 145.511 114.135 145.483 114.193 145.47C114.988 145.276 118.739 148.039 119.784 149.176C120.267 149.702 120.434 150.082 120.325 150.406C120.02 151.309 114.983 151.466 112.243 151.466L112.244 151.465ZM101.573 133.443C101.433 133.692 101.301 133.917 101.157 134.159C100.843 134.692 100.486 135.296 99.9297 136.364C99.5355 137.121 99.9028 137.663 100.77 138.817C101.224 139.422 101.79 140.175 102.282 141.132C103.616 143.726 104.48 146.827 105.187 149.531C105.218 149.649 105.432 149.838 105.94 150.021C109.165 151.181 118.211 150.607 119.532 150.105C119.075 149.198 115.149 146.385 114.336 146.238C114.284 146.252 114.211 146.272 114.121 146.296C112.744 146.682 108.551 147.858 106.663 146.29C105.007 144.913 104.615 142.765 104.073 139.79C103.95 139.114 103.819 138.393 103.663 137.625C103.02 134.469 101.844 133.44 101.572 133.44L101.573 133.443Z" fill="#231F20"/>
<path d="M100.744 150.669C100.517 150.669 100.29 150.623 100.1 150.529C99.7761 150.367 99.5796 150.076 99.5603 149.731C99.5167 148.92 99.0518 137.996 99.0326 137.531C99.0236 137.316 99.1905 137.134 99.4075 137.125C99.6348 137.116 99.8069 137.284 99.8159 137.499C99.821 137.613 100.3 148.883 100.344 149.688C100.345 149.723 100.351 149.816 100.553 149.868C100.829 149.937 101.108 149.83 101.146 149.769C101.118 149.444 101.189 147.661 101.3 144.978C101.371 143.289 101.443 141.54 101.435 141.196C101.431 140.979 101.602 140.801 101.819 140.796C102.04 140.796 102.215 140.965 102.218 141.178C102.226 141.547 102.159 143.152 102.084 145.009C102.003 146.969 101.901 149.406 101.924 149.732C101.944 150.014 101.806 150.276 101.546 150.449C101.326 150.595 101.036 150.669 100.746 150.669H100.744Z" fill="#231F20"/>
<path d="M126.492 129.772C126.412 129.772 126.331 129.747 126.262 129.697C123.948 128.021 121.892 123.865 120.078 120.199C119.754 119.546 119.438 118.907 119.129 118.297C115.991 113.724 113.022 102.431 111.056 94.9529C110.363 92.3168 109.816 90.234 109.437 89.1145C108.9 87.5301 106.944 80.1905 106.237 77.4955C105.882 76.148 105.374 74.6442 104.282 73.7028C103.429 72.9663 102.174 72.5602 100.751 72.5589C99.4453 72.5589 94.0933 73.0534 92.7861 73.3672C92.5755 73.4184 92.3649 73.2891 92.3136 73.079C92.2635 72.8689 92.3919 72.6588 92.6025 72.6076C93.9829 72.2759 99.3824 71.7776 100.746 71.7776C102.363 71.7789 103.798 72.2528 104.793 73.1123C106.047 74.1934 106.609 75.8342 106.993 77.297C107.699 79.9843 109.649 87.3008 110.178 88.8635C110.565 90.0086 111.116 92.1029 111.814 94.7543C113.769 102.191 116.724 113.43 119.789 117.876C119.799 117.89 119.808 117.905 119.816 117.921C120.13 118.539 120.453 119.189 120.78 119.852C122.555 123.437 124.566 127.5 126.723 129.064C126.898 129.191 126.936 129.436 126.809 129.61C126.732 129.715 126.612 129.772 126.492 129.772Z" fill="#231F20"/>
<path d="M42.5239 78.8366C42.3262 78.8366 42.1554 78.6867 42.1349 78.4856C42.113 78.2717 42.2684 78.0796 42.4841 78.0565C45.5685 77.7389 53.5387 75.204 56.2391 73.6836C56.4279 73.5772 56.6667 73.6438 56.7733 73.8321C56.8799 74.0204 56.8131 74.2587 56.6244 74.365C53.8649 75.92 45.7187 78.51 42.565 78.8353C42.5509 78.8353 42.5381 78.8366 42.5239 78.8366Z" fill="#231F20"/>
<path d="M51.8394 41.583C51.6378 41.583 51.4658 41.428 51.4491 41.2243C51.3258 39.6937 50.7685 38.2027 50.3217 37.0038C49.8222 35.6653 49.4613 34.6982 49.7811 34.0488C50.3512 32.8895 50.635 32.0134 50.8263 30.8132C50.8815 30.4648 50.9393 30.1049 50.8725 29.7859C50.8494 29.6745 50.5361 29.59 50.3281 29.5336L50.2125 29.5016C50.0045 29.4427 49.8825 29.2275 49.9416 29.02C49.9994 28.8124 50.2151 28.6895 50.4244 28.7497L50.5322 28.7791C50.9252 28.8855 51.5184 29.0443 51.6391 29.6258C51.7354 30.0857 51.6622 30.5365 51.5993 30.9349C51.3939 32.2184 51.0908 33.156 50.4835 34.392C50.3127 34.7404 50.6902 35.7524 51.0549 36.7297C51.5184 37.9734 52.0963 39.5208 52.2285 41.159C52.2465 41.3742 52.0847 41.5625 51.8703 41.5804C51.86 41.5804 51.8484 41.5817 51.8382 41.5817L51.8394 41.583Z" fill="#231F20"/>
<path d="M85.8549 68.7573C85.8035 68.7573 85.7522 68.7471 85.7021 68.7253C85.503 68.6408 85.4106 68.4115 85.4953 68.213C85.5634 68.0528 85.53 68.0042 85.5185 67.9875C85.1692 67.4803 82.6203 67.5751 80.7597 67.6442C79.9841 67.6724 79.1816 67.7032 78.4522 67.7032C78.2365 67.7032 78.0605 67.5277 78.0605 67.3125C78.0605 67.0973 78.2365 66.9218 78.4522 66.9218C79.1674 66.9218 79.961 66.8923 80.7301 66.8642C83.731 66.7527 85.5994 66.7258 86.1644 67.5456C86.2966 67.7377 86.4122 68.0618 86.217 68.5204C86.1541 68.669 86.009 68.7586 85.8562 68.7586L85.8549 68.7573Z" fill="#231F20"/>
<path d="M74.4421 72.3413C74.238 72.3413 74.0659 72.1837 74.0518 71.9775C74.0364 71.7623 74.1995 71.5753 74.4152 71.5612C75.2113 71.5062 75.6094 71.4549 76.4029 71.2602C76.7098 71.1847 77.0103 71.0886 77.3288 70.9874C77.6909 70.8721 78.0645 70.753 78.4459 70.6672C79.2908 70.4776 80.1267 70.4994 80.9344 70.5211C81.1373 70.5263 81.3402 70.5327 81.5444 70.5339C81.8243 70.5378 82.0927 70.5058 82.3816 70.4725C82.5935 70.4481 82.8066 70.4238 83.0223 70.4123C83.3408 70.3956 83.5809 70.2278 83.5938 70.1651C83.5938 70.1535 83.5719 70.0882 83.4589 69.9857C83.3357 69.8743 83.0544 69.8807 82.8053 69.8858C82.7116 69.8884 82.6217 69.8897 82.537 69.8858C81.8847 69.8653 81.2169 69.8743 80.571 69.882L80.4157 69.8845C80.2475 69.8871 80.078 69.8871 79.9085 69.8871C79.1971 69.8897 78.4626 69.8922 77.782 70.0139C77.5689 70.0523 77.366 69.9102 77.3275 69.6988C77.2889 69.4862 77.4302 69.2838 77.6433 69.2454C78.3907 69.1109 79.1611 69.1096 79.9059 69.107C80.0741 69.107 80.241 69.107 80.4054 69.1045H80.5608C81.2156 69.0942 81.8924 69.0853 82.5614 69.107C82.632 69.1096 82.709 69.107 82.7874 69.1058C83.143 69.0981 83.631 69.0878 83.9854 69.4093C84.4528 69.832 84.4027 70.2317 84.3308 70.4315C84.1562 70.9195 83.5527 71.1693 83.0647 71.1949C82.8644 71.2051 82.6679 71.2282 82.4702 71.25C82.171 71.2846 81.8577 71.3179 81.5367 71.3166C81.3286 71.314 81.1206 71.3089 80.9139 71.3038C80.119 71.2833 79.3679 71.2628 78.618 71.4306C78.27 71.5087 77.9284 71.6176 77.5663 71.7329C77.2491 71.8341 76.9217 71.9378 76.5891 72.0198C75.7455 72.2273 75.2999 72.2849 74.4678 72.3413C74.4588 72.3413 74.4498 72.3413 74.4409 72.3413H74.4421Z" fill="#231F20"/>
<path d="M84.6668 67.6442C84.4729 67.6442 84.3047 67.5007 84.279 67.3035C84.261 67.1651 84.1224 67.0217 83.9349 66.9461C83.7076 66.8539 83.4238 66.8449 83.1503 66.8359L77.128 66.6425C76.9123 66.6361 76.7428 66.4555 76.7492 66.239C76.7556 66.0239 76.9277 65.8522 77.1537 65.8612L83.176 66.0546C83.5022 66.0648 83.872 66.0764 84.2289 66.2211C84.6848 66.4043 85.002 66.7809 85.0572 67.2023C85.0854 67.4162 84.9339 67.6122 84.7195 67.6403C84.7028 67.6429 84.6848 67.6442 84.6681 67.6442H84.6668Z" fill="#231F20"/>
<path d="M51.2672 39.0046C51.0977 39.0046 50.9423 38.8944 50.8909 38.7241C49.6775 34.615 49.9946 34.0629 50.4235 33.849C50.8087 33.6568 51.2723 33.9182 51.7988 34.6252C51.9888 34.8814 52.2199 35.3489 52.4857 35.8895C52.6334 36.1892 52.8055 36.5389 52.975 36.854C52.9994 36.1661 53.0328 35.3925 53.0662 34.6342C53.1227 33.3494 53.1894 31.7867 53.1753 31.2744C52.4472 30.8799 51.8925 30.397 51.3981 29.9666C50.9782 29.6015 50.5815 29.257 50.1436 29.0226C49.9536 28.9201 49.8816 28.6831 49.9844 28.4935C50.0871 28.304 50.3234 28.2322 50.5147 28.3347C51.0296 28.6114 51.4585 28.9841 51.9118 29.3787C52.437 29.8346 52.9788 30.3073 53.7108 30.6736C53.9145 30.7753 53.9603 32.1074 53.8482 34.67C53.7942 35.9061 53.739 37.1844 53.7249 38.0542C53.7223 38.2015 53.6376 38.3347 53.504 38.3987C53.3718 38.4628 53.2138 38.4474 53.0957 38.359C52.6976 38.058 52.2996 37.2895 51.7821 36.2366C51.5535 35.7716 51.3172 35.2913 51.1696 35.094C51.0386 34.9185 50.9153 34.784 50.8177 34.6957C50.8075 35.071 50.914 36.0419 51.6421 38.5063C51.7037 38.7138 51.5843 38.9303 51.3776 38.9918C51.3404 39.002 51.3031 39.0084 51.2672 39.0084V39.0046Z" fill="#231F20"/>
<path d="M73.9268 133.217C73.8998 133.217 73.8729 133.215 73.8472 133.21L18.8156 121.784C18.8053 121.781 18.7963 121.779 18.786 121.776C15.1765 120.734 12.4401 117.812 11.6427 114.151C8.44794 99.4655 0.124558 57.3291 0.00385532 52.4848C-0.0590644 49.9998 0.648461 47.9863 2.1046 46.5017C3.6044 44.9736 5.87978 44.0987 8.3542 44.0987C8.39144 44.0987 8.42739 44.0987 8.46463 44.0987C8.73814 44.0987 9.00266 44.0936 9.25947 44.0885C12.842 44.0168 14.8491 44.4138 17.7909 53.5787C20.7815 62.8946 25.3233 77.7646 25.9974 79.9754C28.1264 79.9792 41.5013 80.1022 54.8865 82.3822C68.8714 84.7634 78.5341 87.9618 80.7337 90.9373C83.5869 94.7967 85.0276 127.297 85.0867 128.679C85.0944 128.847 84.993 129 84.8363 129.061L74.0668 133.19C74.0218 133.207 73.9743 133.216 73.9268 133.216V133.217ZM18.9902 121.022L73.8934 132.42L84.2931 128.433C83.7769 116.729 82.2579 94.3138 80.1045 91.4023C78.4968 89.2273 70.9927 85.9175 54.7556 83.1533C40.3007 80.6914 25.8587 80.7593 25.711 80.758C25.5364 80.758 25.3836 80.6453 25.3335 80.4814C25.2835 80.3161 20.264 63.8463 17.0461 53.8182C14.1454 44.7802 12.3117 44.8135 9.27616 44.8711C8.98982 44.8762 8.69319 44.8814 8.38887 44.8814H8.35548C6.09166 44.8814 4.01916 45.6704 2.66703 47.0499C1.36369 48.3782 0.731926 50.2009 0.788426 52.4668C0.90656 57.1729 9.30827 99.7281 12.4106 113.988C13.1451 117.364 15.6657 120.059 18.9915 121.024L18.9902 121.022Z" fill="#231F20"/>
<path d="M68.2803 95.7394C68.2148 95.7394 68.148 95.7227 68.0864 95.6882C55.0119 88.2513 20.2648 86.5746 19.9143 86.5579C19.7692 86.5515 19.6395 86.4644 19.5779 86.3338C18.2655 83.5517 16.4177 76.4491 14.4595 68.9276C12.3665 60.8836 10.2015 52.5655 8.82758 50.2803C8.71586 50.0959 8.77621 49.8551 8.96241 49.7449C9.1486 49.6335 9.38872 49.6937 9.49915 49.8794C10.9309 52.2619 13.1113 60.6351 15.2184 68.7329C17.0341 75.71 18.9101 82.9176 20.1891 85.7907C23.3132 85.9533 55.8132 87.8094 68.4729 95.0106C68.6604 95.1182 68.7259 95.3564 68.6193 95.5434C68.5474 95.6702 68.4151 95.7407 68.279 95.7407L68.2803 95.7394Z" fill="#231F20"/>
<path d="M19.9332 86.5592C19.7252 86.5592 19.5519 86.3952 19.5429 86.1852C19.4851 84.853 20.086 83.4466 21.2353 82.2272C22.5181 80.8656 24.2285 80.0036 25.7 79.9767C25.9003 79.9715 26.0942 80.1445 26.0981 80.3597C26.1019 80.5761 25.9299 80.7529 25.7141 80.758C24.466 80.7811 22.9328 81.5675 21.8067 82.7626C20.8026 83.8283 20.2774 85.0324 20.3262 86.1519C20.3351 86.3671 20.1682 86.5502 19.9525 86.5592C19.9474 86.5592 19.9409 86.5592 19.9345 86.5592H19.9332Z" fill="#231F20"/>
<path d="M73.9254 133.217C73.7379 133.217 73.5722 133.083 73.5389 132.892C72.9495 129.4 67.835 98.6842 69.8125 95.4487C72.6349 90.8323 78.8524 90.7798 79.1156 90.7798C79.3313 90.7798 79.5072 90.954 79.5072 91.1705C79.5072 91.3869 79.3326 91.5611 79.1156 91.5611C79.0552 91.5611 73.0715 91.6188 70.4802 95.856C69.0985 98.1155 72.0134 119.166 74.3093 132.762C74.3453 132.975 74.2014 133.177 73.9883 133.212C73.9665 133.216 73.9446 133.217 73.9228 133.217H73.9254Z" fill="#231F20"/>
<path d="M49.3211 74.3739C45.4239 74.3739 41.8118 74.274 40.7242 73.9884C38.079 73.2929 34.6069 63.6003 31.2786 53.7323C30.7431 52.1452 30.2808 50.7734 29.947 49.8652C29.9046 49.75 25.9111 38.2975 29.9097 36.0943C31.1643 35.2694 32.3867 34.5816 33.5694 33.9168C34.2897 33.512 34.9703 33.129 35.6008 32.746C35.7857 32.6333 36.0258 32.6922 36.1388 32.8754C36.2518 33.0599 36.1927 33.2994 36.0091 33.4121C35.3671 33.8028 34.6814 34.1883 33.9546 34.5969C32.7835 35.2553 31.5726 35.9368 30.3142 36.7629C27.6023 38.259 29.4333 46.2006 30.6827 49.5963C31.0205 50.5147 31.484 51.8903 32.022 53.4838C34.1138 59.6846 38.4655 72.5871 40.9245 73.2339C43.8227 73.9961 64.1239 73.4004 66.2876 72.865C66.1784 70.7682 66.2876 68.045 66.3325 67.0792L46.4101 64.2408C46.2676 64.2203 46.1469 64.1229 46.0981 63.9884L43.7148 57.4763C41.5756 51.6303 40.33 45.3283 40.3185 45.2655C40.2774 45.0542 40.416 44.848 40.6279 44.807C40.8411 44.7647 41.0452 44.9043 41.0876 45.1157C41.1005 45.1784 42.3345 51.4228 44.4519 57.2086L46.7542 63.5004L66.7987 66.3555C67.0003 66.3837 67.1454 66.5617 67.1338 66.7641C67.1312 66.8013 66.9258 70.5069 67.0837 73.0559C67.0927 73.1993 67.0298 73.3377 66.9104 73.435C66.1772 74.0358 57.9475 74.2574 54.4433 74.324C52.8087 74.356 51.0379 74.3752 49.3237 74.3752L49.3211 74.3739Z" fill="#231F20"/>
<path d="M65.3117 59.1889C65.1807 59.1889 65.0536 59.1236 64.9791 59.0045C64.8648 58.8213 64.9213 58.5805 65.1036 58.4665C65.7688 58.0528 66.5354 57.8196 67.3187 57.794C67.5472 57.7838 67.7154 57.9567 67.7231 58.1719C67.7309 58.3871 67.5614 58.5677 67.3444 58.5754C66.6985 58.5971 66.0667 58.788 65.5171 59.13C65.4529 59.1697 65.381 59.1889 65.3104 59.1889H65.3117Z" fill="#231F20"/>
<path d="M43.0906 67.958C43.043 67.958 42.9955 67.949 42.9493 67.9311C42.7477 67.853 42.6475 67.6262 42.7259 67.4251C43.3949 65.7036 44.7406 64.2677 46.415 63.4838C46.6115 63.3929 46.8439 63.4761 46.9364 63.6721C47.0275 63.8681 46.9441 64.0999 46.7476 64.1921C45.2529 64.8915 44.0536 66.1724 43.4552 67.7082C43.3949 67.8632 43.2472 67.958 43.0906 67.958Z" fill="#231F20"/>
<path d="M49.9429 22.9614C49.6334 22.9614 49.3535 22.9435 49.1506 22.9012C48.9387 22.8577 48.8013 22.6527 48.845 22.4401C48.8887 22.2287 49.0954 22.0917 49.3073 22.1352C50.0289 22.2813 51.6661 22.0648 51.9088 21.9431C52.0834 21.8163 52.3184 21.8598 52.4468 22.034C52.574 22.2083 52.5265 22.4593 52.3518 22.5861C52.0629 22.7962 50.8674 22.9601 49.9455 22.9601L49.9429 22.9614Z" fill="#231F20"/>
<path d="M46.9184 18.4718C45.7781 18.4718 44.8806 18.0209 44.4799 17.2075C44.471 17.1883 44.4632 17.1691 44.4568 17.1486L43.784 14.9454C43.748 14.8302 43.7686 14.7046 43.8392 14.606C43.9098 14.5074 44.0215 14.4472 44.1422 14.442L49.2195 14.2281C49.4236 14.2192 49.6124 14.3806 49.6265 14.5932C49.6355 14.7328 49.8281 18.0029 47.8391 18.3808C47.5181 18.4423 47.2099 18.4718 46.9171 18.4718H46.9184ZM45.1965 16.8898C45.5483 17.5636 46.5011 17.8403 47.694 17.6136C48.6866 17.4253 48.8342 15.7857 48.8497 15.0261L44.6815 15.2016L45.1977 16.8898H45.1965Z" fill="#231F20"/>
<path d="M53.1145 17.8774C52.9489 17.8774 52.7768 17.8633 52.5996 17.8352C51.0137 17.5777 50.9727 14.6982 50.9727 14.3703C50.9727 14.159 51.1422 13.9861 51.354 13.9809L55.1228 13.8798C55.2384 13.8708 55.3501 13.9246 55.4271 14.0117C55.5042 14.0975 55.5388 14.2141 55.5209 14.3281L55.2152 16.366C55.2127 16.3826 55.2088 16.3993 55.205 16.4147C54.9417 17.3369 54.1469 17.8787 53.1158 17.8787L53.1145 17.8774ZM51.7701 14.7508C51.8291 15.641 52.0924 16.9603 52.7254 17.0641C53.5986 17.205 54.2393 16.8911 54.4435 16.2225L54.6759 14.6726L51.7701 14.7508Z" fill="#231F20"/>
<path d="M44.4637 16.7413H39.9952C39.7794 16.7413 39.6035 16.5658 39.6035 16.3506C39.6035 16.1354 39.7794 15.96 39.9952 15.96H44.4637C44.6795 15.96 44.8554 16.1354 44.8554 16.3506C44.8554 16.5658 44.6795 16.7413 44.4637 16.7413Z" fill="#231F20"/>
<path d="M49.2455 16.4186C49.0362 16.4186 48.8628 16.2533 48.8539 16.0433C48.8449 15.8281 49.0131 15.6462 49.2288 15.6372L51.2345 15.5552C51.4567 15.5424 51.6326 15.7141 51.6416 15.9293C51.6506 16.1445 51.4824 16.3263 51.2666 16.3353L49.2609 16.4173C49.2609 16.4173 49.2506 16.4173 49.2442 16.4173L49.2455 16.4186Z" fill="#231F20"/>
<path d="M84.1801 70.4302C83.9644 70.4302 83.7884 70.2547 83.7884 70.0395C83.7884 69.8243 83.9644 69.6488 84.1801 69.6488C85.4025 69.6488 85.9534 69.4003 86.1768 69.2479C85.5772 68.8265 82.3811 68.6254 81.3243 68.7189C80.9571 68.7522 80.2983 68.7919 79.6383 68.8303C78.9886 68.8701 78.3375 68.9085 77.9754 68.9405C77.7584 68.9572 77.5697 68.8009 77.5504 68.5857C77.5311 68.3705 77.6904 68.1809 77.9061 68.1617C78.2733 68.1284 78.9321 68.0887 79.5921 68.0503C80.2418 68.0106 80.8929 67.9721 81.255 67.9401C81.6107 67.9081 85.7762 67.8479 86.7675 68.7522C86.9935 68.9584 87.041 69.1788 87.041 69.3273C87.041 69.3888 87.0269 69.449 86.9986 69.5028C86.9203 69.6578 86.4169 70.4289 84.1801 70.4289V70.4302Z" fill="#231F20"/>
</g>
<defs>
<clipPath id="clip0_1_7357">
<rect width="135" height="158" fill="white"/>
</clipPath>
</defs>
</svg>
