<svg width="210" height="160" viewBox="0 0 210 160" fill="none" xmlns="http://www.w3.org/2000/svg">
<g clip-path="url(#clip0_1_7117)">
<path d="M145.547 53.5329C147.21 50.7797 146.683 48.9501 148.321 49.6873C149.959 50.4245 162.368 55.9863 166.483 58.6291C170.598 61.272 180.722 63.2582 181.117 71.3584C181.512 79.4585 183.484 77.7066 176.027 114.721C168.571 151.736 168.758 156.08 168.669 159.116C168.577 162.151 170.535 201.233 170.535 201.233L171.543 221.161C171.543 221.161 122.724 225.843 92.175 220.882L94.7901 150.348L95.0386 144.14L90.2335 142.982L73.9067 146.254L65.2156 138.461L79.7386 122.483C79.7386 122.483 90.7993 105.584 92.1465 101.668C92.2603 101.339 104.206 75.3234 104.206 75.3234C104.206 75.3234 104.255 74.3206 105.948 72.4701C107.207 71.0912 109.934 69.2423 113.28 66.3204C120.851 59.7066 123.169 56.819 123.169 56.819L147.58 49.2665L145.547 53.5329Z" fill="white"/>
<path d="M123.671 66.8354C122.944 64.8178 123.173 62.542 123.324 61.578C123.477 60.6155 123.685 59.6037 123.899 59.3739C124.113 59.1441 123.424 56.8191 123.165 56.8191C122.906 56.8191 121.128 58.2084 120.847 59.7067C120.565 61.2049 119.899 61.0139 120.368 64.782C120.838 68.5485 118.67 70.6004 119.472 70.7093C120.275 70.8183 122.73 69.5424 123.153 68.5903C123.577 67.6382 123.668 66.8339 123.668 66.8339L123.671 66.8354Z" fill="#D8E9F1"/>
<path d="M109.391 146.71C110.954 147.146 113.312 145.751 113.042 148.529C112.773 151.309 112.539 160.771 112.461 161.926C112.461 161.926 112.217 176.164 112.352 178.412C112.463 180.276 109.122 180.866 108.288 179.247C107.812 176.371 109.236 149.919 109.236 149.919L109.39 146.709L109.391 146.71Z" fill="#D8E9F1"/>
<path d="M121.972 73.6835C122.163 71.5316 122.172 70.0871 122.925 67.6546C123.677 65.2222 124.23 62.8316 123.946 61.8392C123.946 61.8392 126.021 66.1788 130.055 64.5656C130.055 64.5656 135.261 60.8005 141.652 53.6883C141.652 53.6883 145.041 49.7949 145.582 47.9385C145.582 47.9385 150.302 49.5785 148.151 54.6717C146.639 58.2502 138.674 63.0658 139.435 72.8717C139.545 74.3073 136.718 71.6301 136.233 72.8956C133.901 78.9856 121.966 104.683 120.529 108.287C118.557 113.234 115.568 125.362 115.568 125.362L113.278 125.205L115.179 113.922L121.97 73.6835H121.972Z" fill="#D8E9F1"/>
<path d="M100.471 23.0827C99.8483 27.4253 99.6581 32.5528 103.427 36.5223C103.427 36.5223 106.068 38.7637 104.43 43.9987C104.43 43.9987 102.383 46.9803 106.768 48.107C106.768 48.107 108.328 48.2846 110.852 52.9853C113.376 57.686 116.154 60.2647 120.465 57.401L123.05 55.4804C123.05 55.4804 123.606 57.3338 123.58 59.3708C123.559 61.0571 122.935 62.8687 123.121 63.8581C123.711 66.9994 125.306 71.7792 126.764 71.3241C128.222 70.8689 129.83 65.6966 132.162 63.7641C136.828 59.8991 144.712 50.3201 145.327 49.2337C145.943 48.1488 144.395 47.91 143.652 45.094C142.91 42.2781 140.754 35.5344 141.039 34.7181C141.323 33.9019 122.146 16.7659 122.146 16.7659L107.412 16.8241L100.471 23.0798V23.0827Z" fill="#FDE7DC"/>
<path d="M108.102 6.5781C110.471 3.65321 113.582 0.799946 120.914 0.59401C128.246 0.389566 133.653 -0.467009 137.693 3.84721C141.733 8.16142 145.272 14.9887 144.944 21.2891C144.616 27.5896 142.845 30.6115 144.393 33.608C144.393 33.608 143.757 37.667 137.693 36.9806C137.693 36.9806 132.076 35.6644 131.681 33.0648C131.681 33.0648 129.966 26.6091 126.533 29.9742C126.533 29.9742 125.554 32.6126 123.727 31.1069C121.899 29.6012 119.224 28.464 117.42 28.5327C115.616 28.6013 115.205 26.7285 114.046 26.4584C112.887 26.1883 109.81 26.351 111.31 24.7169C112.81 23.0828 109.287 23.7783 107.808 24.111C106.329 24.4438 105.326 24.6766 105.171 22.7142C105.014 20.7519 102.505 23.8767 102.396 25.9286C102.396 25.9286 100.227 29.1669 97.592 26.1256C94.9574 23.0843 94.6505 14.4156 98.2341 12.8815C101.818 11.3475 106.913 7.46452 108.501 6.10206C110.09 4.7381 108.102 6.5781 108.102 6.5781Z" fill="#231F20"/>
<path d="M145.709 48.4696C145.86 48.4696 145.999 48.3756 146.052 48.2248C146.116 48.0368 146.016 47.8309 145.827 47.7652C144.281 47.2354 142.729 40.6246 142.113 36.5805C142.083 36.3835 141.901 36.2477 141.7 36.2776C141.503 36.3074 141.366 36.4909 141.396 36.6894C141.566 37.8042 143.124 47.604 145.591 48.4487C145.63 48.4621 145.67 48.4681 145.709 48.4681V48.4696Z" fill="#231F20"/>
<path d="M128.743 39.683C128.77 39.683 128.797 39.68 128.822 39.6741C128.854 39.6666 131.984 38.9175 132.226 34.9137C132.386 32.2544 130.611 29.1579 128.643 28.6595C127.996 28.4953 126.782 28.4968 125.921 30.3413C125.837 30.5218 125.915 30.7367 126.096 30.8218C126.278 30.9054 126.493 30.8278 126.578 30.6472C127.068 29.6011 127.704 29.1683 128.466 29.3608C129.93 29.7309 131.654 32.3991 131.505 34.8704C131.297 38.3161 128.77 38.9443 128.664 38.9697C128.469 39.016 128.348 39.2085 128.393 39.4025C128.432 39.5696 128.58 39.683 128.744 39.683H128.743Z" fill="#231F20"/>
<path d="M128.029 36.0076C128.066 36.0076 128.104 36.0017 128.141 35.9897C128.331 35.9285 128.436 35.7241 128.375 35.5346C127.828 33.8542 129.303 32.3993 129.318 32.3843C129.462 32.2456 129.465 32.0172 129.325 31.874C129.186 31.7307 128.957 31.7262 128.813 31.865C128.739 31.9367 126.998 33.6423 127.685 35.7569C127.734 35.9091 127.876 36.0076 128.029 36.0076Z" fill="#231F20"/>
<path d="M105.643 35.5538C105.787 35.5538 105.923 35.4673 105.98 35.327C106.754 33.3915 109.993 33.6064 110.024 33.6094C110.226 33.6243 110.397 33.475 110.412 33.2766C110.427 33.0781 110.277 32.905 110.078 32.8901C109.924 32.8781 106.276 32.6334 105.305 35.0614C105.231 35.2464 105.321 35.4568 105.507 35.5299C105.55 35.5478 105.596 35.5553 105.64 35.5553L105.643 35.5538Z" fill="#231F20"/>
<path d="M108.93 39.0563C109.08 39.0563 109.219 38.9638 109.271 38.8145C109.941 36.9104 112.319 37.5416 112.419 37.57C112.613 37.6237 112.812 37.5103 112.866 37.3178C112.919 37.1253 112.806 36.9268 112.613 36.8731C111.532 36.5746 109.3 36.5477 108.587 38.5758C108.521 38.7638 108.62 38.9697 108.809 39.0354C108.849 39.0488 108.888 39.0563 108.929 39.0563H108.93Z" fill="#231F20"/>
<path d="M111.661 38.6849C112.102 39.3325 112.114 40.0921 111.688 40.3816C111.261 40.6711 110.556 40.3816 110.114 39.7325C109.673 39.0848 109.661 38.3252 110.088 38.0357C110.514 37.7462 111.219 38.0357 111.661 38.6849Z" fill="#231F20"/>
<path d="M138.674 37.3938C139.914 37.3938 141.322 37.1327 142.886 36.4492C143.069 36.3686 143.153 36.1567 143.074 35.9732C142.993 35.7911 142.78 35.7061 142.596 35.7866C136.454 38.4668 133.071 34.3048 132.929 34.1272C132.805 33.9705 132.577 33.9437 132.42 34.066C132.263 34.1899 132.234 34.4152 132.359 34.5719C132.387 34.6092 134.633 37.3938 138.674 37.3938Z" fill="#231F20"/>
<path d="M144.371 34.0959C144.406 34.0959 144.44 34.0915 144.476 34.081C144.669 34.0273 144.779 33.8169 144.723 33.6259C144.72 33.6139 144.71 33.5871 144.705 33.5766C144.493 33.0409 143.506 30.1399 144.948 25.6123C145.744 23.1112 145.293 18.2344 143.825 13.4799C143.047 10.9609 140.851 4.91566 137.257 3.18311C137.077 3.09655 136.86 3.17117 136.773 3.35174C136.686 3.53081 136.761 3.74719 136.942 3.83375C142.222 6.3781 145.82 20.4862 144.258 25.3929C142.741 30.1548 143.804 33.2662 144.032 33.8422C144.076 33.9989 144.217 34.0959 144.371 34.0959Z" fill="#231F20"/>
<path d="M134.732 2.11152C134.9 2.11152 135.05 1.99513 135.086 1.8265C135.128 1.63101 135.003 1.4385 134.809 1.39672C134.758 1.38627 129.581 0.281975 123.434 0.202883C120.828 0.170053 119.211 0.329728 118.031 0.447619C116.448 0.605802 115.855 0.665494 114.849 0.0536542C114.678 -0.0508062 114.455 0.00291625 114.35 0.17453C114.246 0.344651 114.3 0.567003 114.472 0.671463C115.684 1.41015 116.492 1.32956 118.103 1.1684C119.266 1.052 120.859 0.893814 123.425 0.926645C129.498 1.00574 134.605 2.09362 134.656 2.10406C134.681 2.11003 134.708 2.11302 134.734 2.11302L134.732 2.11152Z" fill="#231F20"/>
<path d="M106.547 9.4194C106.689 9.4194 106.824 9.33583 106.882 9.19555C108.405 5.51855 114.642 1.95943 114.705 1.92362C114.879 1.82513 114.94 1.60427 114.841 1.43116C114.743 1.25806 114.521 1.19687 114.347 1.29536C114.083 1.44459 107.83 5.01266 106.212 8.91948C106.135 9.10452 106.224 9.31494 106.408 9.39104C106.453 9.40895 106.501 9.41791 106.546 9.41791L106.547 9.4194Z" fill="#231F20"/>
<path d="M99.0258 27.5179C99.1605 27.5179 99.2893 27.4433 99.3521 27.3135C99.4389 27.1344 99.3641 26.918 99.183 26.8315C97.1936 25.8719 95.9003 23.3828 95.8104 20.3326C95.7266 17.4793 96.7894 13.9605 99.3536 12.5323C104.341 9.75519 104.061 7.30932 104.046 7.20635C104.019 7.00937 103.835 6.87059 103.638 6.89894C103.442 6.9258 103.304 7.10637 103.328 7.30186C103.332 7.34663 103.466 9.41644 99.0004 11.9026C96.511 13.2889 94.9752 16.6063 95.0859 20.3549C95.1862 23.726 96.5993 26.3898 98.8671 27.4836C98.918 27.509 98.9719 27.5194 99.0243 27.5194L99.0258 27.5179Z" fill="#231F20"/>
<path d="M124.142 32.1335C124.197 32.1335 124.256 32.1201 124.308 32.0932C124.486 32.0022 124.555 31.7828 124.464 31.6067C123.101 28.9892 120.314 28.5893 118.278 28.2983C117.093 28.1282 116.069 27.9819 115.895 27.4835C115.392 26.0524 113.014 25.8077 111.592 25.6629C111.472 25.651 111.346 25.6375 111.234 25.6256C111.596 24.9959 112.102 23.9557 112.225 23.7005C112.271 23.605 112.273 23.4931 112.229 23.3946C112.186 23.2976 112.101 23.2245 111.997 23.1962C110.777 22.8544 109.125 23.132 107.087 24.0214C106.701 24.19 106.275 24.1378 105.944 23.8811C105.614 23.6259 105.457 23.2275 105.525 22.8141L105.531 22.7738C105.585 22.45 105.445 22.1396 105.167 21.965C104.89 21.7904 104.535 21.7994 104.264 21.9874C102.222 23.4066 101.83 26.9343 101.815 27.0836C101.794 27.282 101.938 27.4596 102.137 27.4805C102.336 27.5029 102.514 27.3582 102.535 27.1597C102.538 27.1268 102.91 23.8095 104.679 22.5813C104.721 22.5515 104.757 22.5634 104.781 22.5769C104.824 22.6037 104.818 22.644 104.815 22.6574L104.808 22.6992C104.697 23.3767 104.954 24.0333 105.498 24.4527C106.041 24.8735 106.743 24.96 107.376 24.684C108.532 24.1796 110.11 23.6498 111.367 23.8065C110.997 24.5541 110.542 25.4271 110.403 25.5898C110.304 25.7047 110.277 25.8599 110.331 25.9957C110.442 26.2718 110.692 26.2971 111.518 26.3822C112.604 26.4941 114.861 26.7254 115.213 27.7238C115.533 28.6356 116.701 28.8027 118.178 29.0146C120.161 29.2981 122.631 29.6518 123.821 31.941C123.886 32.0648 124.013 32.1365 124.143 32.1365L124.142 32.1335Z" fill="#231F20"/>
<path d="M80.1387 121.89C80.236 121.89 80.3333 121.85 80.4051 121.774C87.1846 114.419 96.0778 94.4666 101.393 82.5462C103.324 78.214 104.85 74.7937 105.571 73.564C105.895 73.0119 110.252 69.2215 113.056 67.3531C113.222 67.2427 113.267 67.0174 113.156 66.8517C113.045 66.6861 112.819 66.6413 112.653 66.7517C109.996 68.5231 105.392 72.4404 104.947 73.1999C104.206 74.4639 102.75 77.732 100.733 82.2537C95.4371 94.1338 86.5724 114.017 79.8737 121.286C79.739 121.434 79.748 121.662 79.8962 121.796C79.965 121.861 80.0533 121.892 80.1417 121.892L80.1387 121.89Z" fill="#231F20"/>
<path d="M171.326 221.52C171.489 221.52 171.636 221.41 171.677 221.247C171.728 221.043 171.64 219.434 171.043 209.78C170.053 193.798 168.398 167.05 168.726 159.963C169.196 149.801 175.786 115.85 178.455 103.404L178.472 103.325C179.845 96.9228 181.725 88.1556 181.972 80.4912C182.27 71.2793 180.219 65.6041 175.701 63.1418C165.829 57.7591 146.064 48.2264 145.866 48.1309C145.687 48.0443 145.47 48.1189 145.383 48.2995C145.296 48.4786 145.371 48.6949 145.552 48.7815C145.751 48.877 165.498 58.4023 175.355 63.776C185.076 69.0767 180.499 90.4209 177.764 103.174L177.747 103.253C175.075 115.717 168.474 149.725 168.003 159.929C167.673 167.055 169.33 193.829 170.32 209.825C170.695 215.893 170.992 220.693 170.969 221.105C170.941 221.287 171.056 221.467 171.24 221.511C171.27 221.519 171.299 221.522 171.329 221.522L171.326 221.52Z" fill="#231F20"/>
<path d="M140.419 127.546C140.576 127.546 140.721 127.445 140.766 127.285C143.818 116.79 146.406 110.001 148.909 103.437C150.797 98.4853 152.749 93.3652 154.85 86.7588C154.91 86.5693 154.805 86.3664 154.614 86.3052C154.424 86.244 154.219 86.3499 154.159 86.541C152.065 93.1279 150.116 98.239 148.231 103.18C145.722 109.758 143.13 116.561 140.068 127.084C140.013 127.275 140.124 127.476 140.315 127.531C140.348 127.542 140.383 127.546 140.416 127.546H140.419Z" fill="#231F20"/>
<path d="M113.405 125.2C113.578 125.2 113.731 125.076 113.761 124.9L122.802 72.2643C122.837 72.0673 122.703 71.8808 122.506 71.8465C122.308 71.8136 122.121 71.9449 122.087 72.1419L113.045 124.778C113.012 124.975 113.144 125.162 113.342 125.196C113.363 125.199 113.384 125.2 113.403 125.2H113.405Z" fill="#231F20"/>
<path d="M117.276 126C117.394 126 117.509 125.942 117.579 125.838L140.497 91.0523C140.572 90.9388 140.576 90.7941 140.509 90.6762L133.866 78.9871C133.767 78.814 133.545 78.7528 133.372 78.8513C133.198 78.9498 133.137 79.1706 133.236 79.3437L139.77 90.8403L116.973 125.442C116.864 125.609 116.91 125.833 117.078 125.942C117.139 125.982 117.208 126.002 117.277 126.002L117.276 126Z" fill="#231F20"/>
<path d="M91.9558 221.241C92.1489 221.241 92.3106 221.089 92.3181 220.893L95.3972 144.152C95.4047 143.954 95.249 143.785 95.0499 143.778C94.8463 143.767 94.6817 143.925 94.6727 144.124L91.5935 220.865C91.5861 221.064 91.7417 221.232 91.9408 221.24C91.9453 221.24 91.9513 221.24 91.9558 221.24V221.241Z" fill="#231F20"/>
<path d="M97.9985 124.4C98.1991 124.4 98.3607 124.239 98.3607 124.039C98.3607 118.645 100.959 102.125 102.07 95.0709C102.455 92.625 102.537 92.0893 102.537 91.9759C102.537 91.7759 102.375 91.6147 102.175 91.6147C101.974 91.6147 101.819 91.7714 101.813 91.9654C101.801 92.1162 101.603 93.3712 101.355 94.959C100.242 102.029 97.6377 118.588 97.6377 124.039C97.6377 124.239 97.7994 124.4 98 124.4H97.9985Z" fill="#231F20"/>
<path d="M110.628 125.542C110.828 125.542 110.99 125.381 110.99 125.181L110.987 87.3529L121.268 79.4497C121.426 79.3274 121.456 79.1005 121.334 78.9423C121.211 78.7842 120.983 78.7543 120.825 78.8767L110.403 86.8888C110.315 86.9574 110.262 87.0634 110.262 87.1753L110.265 125.181C110.265 125.381 110.427 125.542 110.628 125.542Z" fill="#231F20"/>
<path d="M105.017 222.747C105.192 222.747 105.346 222.62 105.374 222.441C106.333 216.3 109.466 149.273 109.597 146.422C109.606 146.224 109.452 146.054 109.251 146.045C109.048 146.039 108.882 146.189 108.873 146.388C108.84 147.086 105.61 216.227 104.657 222.329C104.626 222.526 104.762 222.711 104.96 222.743C104.978 222.746 104.997 222.747 105.015 222.747H105.017Z" fill="#231F20"/>
<path d="M146 73.2582C146.112 73.2582 146.213 73.2075 146.28 73.1269C146.349 73.0568 146.385 72.9657 146.385 72.8732C146.385 72.7807 146.35 72.6882 146.278 72.618C146.136 72.4763 145.907 72.4763 145.767 72.618C145.767 72.618 145.753 72.6315 145.747 72.6389C145.68 72.7046 145.638 72.7956 145.638 72.8971C145.638 73.0971 145.799 73.2582 146 73.2582Z" fill="#231F20"/>
<path d="M115.708 125.894C115.888 125.894 116.045 125.76 116.067 125.578C116.759 119.986 117.908 116.366 117.92 116.33C117.928 116.305 117.934 116.279 117.935 116.253C118.051 115.017 121.441 106.444 136.939 72.6195C137.022 72.4374 136.942 72.224 136.759 72.1404C136.578 72.0569 136.362 72.1375 136.278 72.3195C123.89 99.3569 117.479 114.099 117.217 116.145C117.096 116.536 116.01 120.121 115.346 125.488C115.322 125.687 115.462 125.866 115.661 125.891C115.676 125.894 115.691 125.894 115.706 125.894H115.708Z" fill="#231F20"/>
<path d="M112.989 223.256H112.997C113.197 223.251 113.356 223.087 113.352 222.887C113.34 222.302 112.223 164.227 113.637 147.376C113.654 147.177 113.506 147.001 113.307 146.985C113.108 146.971 112.932 147.116 112.916 147.314C111.497 164.201 112.615 222.316 112.627 222.901C112.631 223.097 112.792 223.254 112.989 223.254V223.256Z" fill="#231F20"/>
<path d="M124.072 62.3704C124.265 62.3704 124.425 62.2197 124.434 62.0257C124.534 59.7574 123.447 55.57 123.401 55.3939C123.35 55.1999 123.153 55.085 122.959 55.1358C122.766 55.1865 122.65 55.3835 122.7 55.576C122.711 55.6178 123.807 59.835 123.711 61.9943C123.702 62.1943 123.858 62.3629 124.057 62.3719C124.063 62.3719 124.067 62.3719 124.073 62.3719L124.072 62.3704Z" fill="#231F20"/>
<path d="M123.847 80.8121C124.013 80.8121 124.162 80.6972 124.2 80.5285C125.912 72.8477 129.99 65.9309 136.665 59.3843C142.995 53.1748 146.38 48.8248 145.719 47.7489C145.616 47.5802 145.418 47.5026 145.237 47.5623C145.047 47.625 144.944 47.8294 145.008 48.019C145.023 48.0637 145.046 48.1025 145.074 48.1369C145.017 48.5383 144.315 50.8678 136.159 58.8694C129.382 65.5176 125.239 72.5508 123.495 80.3719C123.451 80.5659 123.574 80.7598 123.77 80.8031C123.797 80.8091 123.823 80.8121 123.849 80.8121H123.847Z" fill="#231F20"/>
<path d="M138.952 73.7505C139.332 73.7505 139.558 73.6625 139.622 73.6327C139.766 73.567 139.851 73.4148 139.832 73.2581C139.824 73.1939 139.069 66.8457 143.08 61.9137C143.538 61.3496 143.99 60.8049 144.427 60.2766C147.944 56.0281 150.72 52.6734 148.736 49.5784C148.628 49.4098 148.405 49.3605 148.236 49.4695C148.066 49.5769 148.017 49.8007 148.125 49.9679C149.825 52.6182 147.327 55.6371 143.868 59.8155C143.429 60.3453 142.977 60.8915 142.517 61.457C138.796 66.0324 138.965 71.5942 139.081 73.0148C138.506 73.0507 136.92 72.8194 134.454 69.9706C132.958 68.2425 131.574 67.3665 130.339 67.3665H130.331C129.343 67.3695 128.833 67.953 128.812 67.9784C128.681 68.1306 128.699 68.3574 128.852 68.4872C129.003 68.6156 129.231 68.5991 129.361 68.4499C129.381 68.429 129.699 68.0888 130.34 68.0888C130.346 68.0888 130.352 68.0888 130.358 68.0888C131.054 68.0962 132.234 68.5096 133.906 70.4421C136.352 73.2685 138.069 73.7491 138.953 73.7491L138.952 73.7505Z" fill="#231F20"/>
<path d="M125.779 71.0703C125.847 71.0703 125.914 71.0524 125.974 71.0136C126.143 70.9061 126.191 70.6823 126.083 70.5137C121.853 63.9401 123.884 59.5737 123.907 59.5304C123.993 59.3513 123.919 59.1349 123.737 59.0484C123.558 58.9618 123.341 59.0364 123.254 59.2155C123.161 59.408 121.027 63.9923 125.474 70.9031C125.543 71.0106 125.66 71.0688 125.779 71.0688V71.0703Z" fill="#231F20"/>
<path d="M119.7 71.2644C119.803 71.2644 119.906 71.254 120.003 71.2421C122.18 70.963 123.831 67.9381 123.901 67.8098C123.996 67.6337 123.93 67.4158 123.753 67.3203C123.577 67.2248 123.358 67.292 123.262 67.4681C123.247 67.4964 121.719 70.293 119.911 70.5258C119.797 70.5407 119.719 70.5437 119.67 70.5407C119.707 70.3795 119.833 70.0826 119.939 69.8333C120.414 68.7201 121.207 66.8562 120.608 64.388C119.634 60.3677 123.118 57.1145 123.154 57.0832C123.301 56.9474 123.312 56.7191 123.175 56.5728C123.039 56.4266 122.81 56.4161 122.663 56.5519C122.506 56.6967 118.83 60.1305 119.903 64.5581C120.445 66.7935 119.71 68.5201 119.27 69.5513C118.984 70.2228 118.795 70.666 119.054 71.0063C119.209 71.2077 119.453 71.263 119.697 71.263L119.7 71.2644Z" fill="#231F20"/>
<path d="M112.403 51.6392C114.453 51.6392 115.548 49.8574 115.856 48.8158C115.913 48.6248 115.804 48.4233 115.611 48.3666C115.419 48.3114 115.217 48.4204 115.161 48.6114C115.127 48.7233 114.317 51.3214 111.832 50.8632C111.638 50.8274 111.446 50.9573 111.41 51.1528C111.374 51.3482 111.505 51.5378 111.701 51.5736C111.946 51.6183 112.18 51.6392 112.403 51.6392Z" fill="#231F20"/>
<path d="M115.653 41.1336C115.326 40.2412 113.807 39.9741 112.261 40.5381C110.714 41.1007 109.725 42.2811 110.051 43.172C110.377 44.0644 111.897 44.3315 113.443 43.7675C114.991 43.2049 115.979 42.0245 115.653 41.1336Z" fill="#FABDA6"/>
<path d="M107.626 48.1086C108.345 47.6147 107.758 45.9582 107.032 44.9076C106.306 43.8571 105.254 43.1512 104.535 43.6437C103.816 44.1376 103.703 45.6448 104.429 46.6939C105.155 47.7445 106.906 48.6011 107.626 48.1071V48.1086Z" fill="#FABDA6"/>
<path d="M116.981 58.9606C116.996 58.9606 117.013 58.9606 117.027 58.9606C119.711 58.9084 122.44 56.5148 124.433 54.7658C125.286 54.0167 126.022 53.3705 126.497 53.1392C126.677 53.0511 126.751 52.8348 126.663 52.6557C126.575 52.4766 126.358 52.402 126.178 52.49C125.615 52.7646 124.882 53.4078 123.952 54.2241C122.044 55.8984 119.432 58.1921 117.013 58.2398C117.002 58.2398 116.99 58.2398 116.98 58.2398C114.659 58.2398 111.591 53.5033 109.754 50.668C108.561 48.828 108.016 48.0072 107.582 47.861C107.386 47.7953 107.133 47.7311 106.841 47.658C105.944 47.4342 104.591 47.0939 104.271 46.4537C104.175 46.2612 104.182 46.0389 104.295 45.7747C105.23 43.5676 106.334 38.3789 103.765 36.421C101.442 34.6512 100.835 28.7149 100.831 28.6552C100.811 28.4567 100.633 28.3104 100.436 28.3313C100.237 28.3507 100.09 28.5268 100.109 28.7253C100.135 28.982 100.752 35.0347 103.325 36.9956C105.534 38.6804 104.458 43.5363 103.627 45.4942C103.43 45.9583 103.428 46.3896 103.623 46.7775C104.091 47.7147 105.578 48.0878 106.664 48.3594C106.941 48.4295 107.181 48.4892 107.35 48.5459C107.601 48.6772 108.422 49.9427 109.145 51.0604C111.306 54.3987 114.264 58.9636 116.98 58.9636L116.981 58.9606Z" fill="#231F20"/>
<path d="M136.454 84.4637C136.539 84.4637 136.626 84.4339 136.695 84.3727L159.496 64.1313C159.572 64.0641 159.616 63.9671 159.617 63.8656C159.617 63.7642 159.577 63.6657 159.502 63.597C158.774 62.9225 156.799 61.0333 156.385 60.3976C154.388 57.319 149.405 48.3712 149.356 48.2801C149.259 48.1055 149.039 48.0429 148.863 48.1399C148.688 48.2369 148.625 48.4562 148.723 48.6308C148.774 48.7204 153.767 57.692 155.778 60.79C156.222 61.475 158.008 63.1852 158.719 63.8552L136.214 83.834C136.065 83.9668 136.051 84.1951 136.185 84.3444C136.256 84.4249 136.355 84.4652 136.455 84.4652L136.454 84.4637Z" fill="#231F20"/>
<path d="M146.84 73.7802C146.911 73.6071 154.017 55.528 149.936 49.4783C148.324 47.0876 145.969 46.4415 144.579 46.2131L145.769 48.1233C146.662 48.271 148.05 49.4245 148.526 50.2677C151.417 55.4042 146.224 71.0001 145.341 73.1759L146.839 73.7802H146.84Z" fill="#939598"/>
<path d="M147.041 74.2504L147.177 73.9162C147.251 73.7341 154.455 55.5296 150.238 49.2784C148.98 47.4131 147.096 46.2625 144.64 45.8581L143.851 45.7283L145.55 48.4547L145.712 48.4816C146.504 48.6114 147.791 49.6993 148.212 50.4469C150.99 55.3834 145.839 70.9943 145.007 73.0432L144.871 73.3775L147.041 74.2534V74.2504ZM145.335 46.7386C147.191 47.2101 148.637 48.1965 149.637 49.6799C153.262 55.0536 147.578 70.7958 146.634 73.3058L145.802 72.9701C146.68 70.5093 151.84 55.4147 148.843 50.0902C148.357 49.2262 147.022 48.0667 145.996 47.8011L145.333 46.7371L145.335 46.7386Z" fill="#231F20"/>
<path d="M113.738 69.7168C113.448 70.7002 112.282 74.5608 111.982 75.5845C108.641 87.0289 108.713 87.6586 108.752 87.9974C108.783 88.275 108.957 88.4899 109.186 88.5734C109.291 88.6122 109.409 88.6242 109.53 88.6003C109.904 88.5301 110.174 88.1601 110.144 87.7661C110.154 87.4333 110.502 85.5829 113.382 75.7308C113.758 74.4444 114.076 73.3819 114.433 72.1776L113.738 69.7153V69.7168Z" fill="#939598"/>
<path d="M109.408 88.9734C109.471 88.9734 109.535 88.9674 109.598 88.9555C110.144 88.8525 110.54 88.3317 110.508 87.7631C110.526 87.4736 110.827 85.7665 113.731 75.8323C114.011 74.8757 114.258 74.0415 114.514 73.182L114.782 72.2806C114.839 72.0896 114.729 71.8881 114.536 71.8314C114.343 71.7747 114.143 71.8837 114.086 72.0762L113.818 72.976C113.562 73.8371 113.313 74.6713 113.033 75.6293C111.049 82.4222 109.905 86.6588 109.791 87.6423C109.784 87.6721 109.779 87.7035 109.779 87.7348C109.779 87.7512 109.779 87.7676 109.782 87.784V87.7915C109.799 88.0049 109.655 88.2079 109.463 88.2437C109.411 88.2541 109.36 88.2496 109.312 88.2317C109.203 88.1914 109.126 88.0855 109.112 87.9542C109.082 87.6855 109.01 87.0573 112.33 75.683C112.501 75.0981 112.956 73.5834 113.367 72.2105C113.676 71.1838 113.96 70.2377 114.084 69.8168C114.141 69.6258 114.03 69.4244 113.839 69.3677C113.646 69.311 113.445 69.4214 113.388 69.6124C113.264 70.0332 112.98 70.9778 112.673 72.0031C112.26 73.3775 111.804 74.8951 111.634 75.4801C108.272 86.9931 108.344 87.6199 108.392 88.0347C108.438 88.4392 108.694 88.7749 109.061 88.9092C109.171 88.9495 109.288 88.9704 109.406 88.9704L109.408 88.9734Z" fill="#231F20"/>
<path d="M112.959 97.1334C114.032 94.2294 112.736 91.0776 110.062 90.0957C107.389 89.1138 104.352 90.6732 103.278 93.5772C102.205 96.4812 103.501 99.6329 106.175 100.615C108.848 101.597 111.886 100.037 112.959 97.1334Z" fill="#939598"/>
<path d="M107.832 101.271C108.679 101.271 109.531 101.064 110.332 100.652C111.694 99.9522 112.748 98.7479 113.298 97.2571C113.849 95.7678 113.831 94.1681 113.251 92.7549C112.664 91.3312 111.577 90.2657 110.188 89.7553C107.332 88.7063 104.079 90.3642 102.938 93.4517C101.798 96.5393 103.193 99.9044 106.05 100.954C106.628 101.165 107.23 101.271 107.833 101.271H107.832ZM108.413 90.1642C108.923 90.1642 109.436 90.2508 109.936 90.4358C111.132 90.8746 112.071 91.7968 112.58 93.0309C113.092 94.2755 113.105 95.6887 112.619 97.0079C112.131 98.3271 111.201 99.3941 110.001 100.01C108.811 100.621 107.496 100.716 106.3 100.276C103.819 99.3642 102.616 96.4154 103.618 93.7025C104.419 91.5356 106.389 90.1642 108.413 90.1642Z" fill="#231F20"/>
<path d="M111.205 96.4884C111.889 94.6365 111.063 92.6278 109.358 92.0011C107.653 91.3743 105.717 92.3682 105.032 94.2201C104.348 96.0721 105.174 98.0807 106.879 98.7074C108.584 99.3342 110.519 98.3403 111.205 96.4869V96.4884Z" fill="#BCBDC0"/>
<path d="M107.929 99.2568C109.462 99.2568 110.946 98.2346 111.544 96.614C111.907 95.6335 111.895 94.58 111.511 93.6488C111.124 92.7071 110.404 92.0013 109.482 91.664C107.592 90.9701 105.443 92.0625 104.691 94.0979C104.329 95.0784 104.34 96.1319 104.724 97.0631C105.112 98.0048 105.832 98.7106 106.754 99.0494C107.139 99.1911 107.536 99.2583 107.929 99.2583V99.2568ZM108.306 92.1774C108.616 92.1774 108.929 92.2296 109.233 92.3415C109.961 92.6086 110.532 93.1712 110.842 93.9234C111.157 94.6874 111.164 95.5544 110.865 96.3647C110.251 98.0272 108.519 98.927 107.004 98.3704C106.277 98.1033 105.705 97.5407 105.395 96.7886C105.081 96.0245 105.073 95.1575 105.373 94.3472C105.864 93.019 107.069 92.1774 108.306 92.1774Z" fill="#231F20"/>
<path d="M110.061 90.0957C110.061 90.0957 110.779 87.7528 110.623 87.1753C110.468 86.5978 109.207 86.4142 108.642 86.6485C108.076 86.8813 107.773 89.8435 107.773 89.8435L110.061 90.0957Z" fill="#FDE7DC"/>
<path d="M110.061 90.4583C110.218 90.4583 110.36 90.3554 110.407 90.2031C110.582 89.6301 111.142 87.7125 110.972 87.0843C110.922 86.8962 110.776 86.6291 110.369 86.4291C109.823 86.159 109.003 86.1098 108.501 86.3157C107.868 86.5769 107.558 88.3587 107.41 89.8092C107.39 90.0062 107.533 90.1822 107.73 90.2046L110.017 90.4568C110.031 90.4583 110.044 90.4598 110.058 90.4598L110.061 90.4583ZM109.245 86.9126C109.514 86.9126 109.823 86.9634 110.049 87.0753C110.173 87.1365 110.255 87.2081 110.272 87.2693C110.344 87.5394 110.094 88.6855 109.799 89.7032L108.173 89.5241C108.324 88.299 108.598 87.1633 108.796 86.9753C108.907 86.9335 109.068 86.9112 109.245 86.9112V86.9126Z" fill="#231F20"/>
<path d="M135.933 109.736C137.233 109.736 138.502 109.425 139.736 108.806C148.105 104.601 152.009 87.6006 152.17 86.8783C152.23 86.6127 152.063 86.3485 151.796 86.2888C151.53 86.2291 151.265 86.3963 151.205 86.6619C151.166 86.8335 147.243 103.931 139.29 107.924C137.153 108.997 134.884 109.016 132.541 107.982C132.292 107.872 132 107.984 131.889 108.233C131.778 108.482 131.89 108.773 132.14 108.884C133.425 109.451 134.691 109.733 135.932 109.733L135.933 109.736Z" fill="#FDE7DC"/>
<path d="M135.934 110.097C137.286 110.097 138.621 109.771 139.9 109.128C148.42 104.847 152.361 87.6855 152.526 86.9573C152.629 86.4976 152.337 86.0395 151.876 85.9365C151.415 85.8321 150.956 86.1231 150.853 86.5842C150.814 86.7543 146.929 103.684 139.127 107.603C137.094 108.625 134.927 108.642 132.689 107.654C132.479 107.561 132.246 107.555 132.033 107.637C131.819 107.72 131.652 107.879 131.559 108.088C131.367 108.519 131.563 109.025 131.996 109.216C133.321 109.801 134.645 110.097 135.934 110.097ZM151.689 86.6379C151.698 86.6379 151.709 86.6379 151.718 86.6409C151.788 86.6573 151.833 86.7274 151.818 86.7991C151.658 87.5139 147.791 104.354 139.573 108.484C137.267 109.643 134.803 109.665 132.288 108.555C132.22 108.525 132.191 108.448 132.221 108.381C132.24 108.337 132.274 108.319 132.294 108.312C132.313 108.304 132.351 108.296 132.396 108.315C134.842 109.395 137.217 109.373 139.454 108.249C147.558 104.178 151.52 86.917 151.559 86.7424C151.573 86.6812 151.628 86.6394 151.688 86.6394L151.689 86.6379Z" fill="#231F20"/>
<path d="M136.691 109.41C135.588 108.727 134.673 107.794 133.955 106.618C129.075 98.6404 134.766 82.1491 135.01 81.4507C135.1 81.1941 135.383 81.0583 135.64 81.1478C135.898 81.2373 136.034 81.5194 135.944 81.7761C135.886 81.9432 130.161 98.527 134.799 106.105C136.044 108.14 137.962 109.352 140.499 109.706C140.77 109.745 140.959 109.994 140.92 110.262C140.882 110.533 140.632 110.721 140.361 110.682C138.971 110.488 137.745 110.061 136.691 109.407V109.41Z" fill="#FDE7DC"/>
<path d="M140.432 111.05C140.616 111.05 140.795 110.991 140.946 110.877C141.129 110.74 141.247 110.54 141.279 110.313C141.31 110.086 141.252 109.862 141.114 109.68C140.976 109.498 140.776 109.38 140.548 109.349C138.123 109.01 136.294 107.855 135.107 105.917C130.553 98.4747 136.227 82.0595 136.285 81.8954C136.441 81.4507 136.204 80.9627 135.758 80.8075C135.312 80.6523 134.823 80.8881 134.667 81.3328C134.42 82.0372 128.675 98.6852 133.643 106.808C134.389 108.027 135.35 109.006 136.498 109.718C137.592 110.397 138.875 110.843 140.309 111.043C140.349 111.049 140.39 111.052 140.43 111.052L140.432 111.05ZM135.477 81.482C135.492 81.482 135.507 81.485 135.52 81.4895C135.589 81.5134 135.625 81.5895 135.601 81.6581C135.543 81.8267 129.759 98.5643 134.489 106.294C135.793 108.427 137.797 109.695 140.448 110.067C140.496 110.073 140.523 110.101 140.535 110.118C140.547 110.134 140.566 110.168 140.56 110.215C140.553 110.262 140.524 110.289 140.508 110.301C140.491 110.313 140.457 110.332 140.411 110.327C139.077 110.14 137.89 109.728 136.881 109.103C135.83 108.451 134.948 107.551 134.263 106.43C129.471 98.5971 135.109 82.261 135.351 81.5701C135.37 81.5163 135.421 81.482 135.477 81.482Z" fill="#231F20"/>
<path d="M140.193 110.251C140.193 110.734 140.82 111.128 141.594 111.128C142.368 111.128 142.995 110.736 142.995 110.251C142.995 109.766 142.368 109.373 141.594 109.373C140.82 109.373 140.193 109.766 140.193 110.251Z" fill="#007EA4"/>
<path d="M141.595 111.489C142.584 111.489 143.358 110.946 143.358 110.251C143.358 109.555 142.583 109.012 141.595 109.012C140.607 109.012 139.83 109.557 139.83 110.251C139.83 110.944 140.606 111.489 141.595 111.489ZM141.595 109.736C142.18 109.736 142.634 110.013 142.634 110.252C142.634 110.491 142.18 110.767 141.595 110.767C141.01 110.767 140.556 110.489 140.556 110.252C140.556 110.015 141.01 109.736 141.595 109.736Z" fill="#231F20"/>
<path d="M130.6 108.279C130.521 108.757 131.076 109.246 131.84 109.373C132.603 109.498 133.287 109.213 133.366 108.736C133.446 108.258 132.89 107.769 132.127 107.642C131.364 107.516 130.68 107.802 130.6 108.279Z" fill="#007EA4"/>
<path d="M132.198 109.764C132.487 109.764 132.762 109.713 132.999 109.613C133.4 109.446 133.665 109.148 133.723 108.794C133.782 108.442 133.629 108.073 133.303 107.785C133.018 107.534 132.621 107.357 132.186 107.285C131.75 107.212 131.318 107.254 130.967 107.4C130.566 107.567 130.301 107.866 130.243 108.219C130.184 108.572 130.337 108.94 130.663 109.227C130.948 109.477 131.345 109.655 131.78 109.727C131.921 109.751 132.06 109.762 132.198 109.762V109.764ZM131.768 107.975C131.865 107.975 131.966 107.982 132.068 107.999C132.367 108.048 132.641 108.167 132.822 108.327C132.957 108.446 133.026 108.573 133.008 108.676C132.991 108.779 132.885 108.878 132.719 108.946C132.496 109.039 132.196 109.064 131.898 109.015C131.599 108.966 131.325 108.846 131.144 108.687C131.009 108.567 130.94 108.44 130.958 108.337C130.975 108.234 131.081 108.136 131.247 108.067C131.395 108.006 131.577 107.973 131.77 107.973L131.768 107.975Z" fill="#231F20"/>
<path d="M135.065 82.3686H135.067C135.485 82.5343 135.956 82.3343 136.128 81.9209C136.44 81.1718 136.763 80.4107 137.098 79.6377C138.221 77.0456 139.859 75.3548 141.966 74.6117C144.936 73.5641 150.174 75.2757 150.876 78.6006C151.283 80.5271 151.819 83.4475 150.762 87.7946C150.666 88.1915 150.877 88.5989 151.258 88.7496L151.264 88.7526C151.726 88.9347 152.244 88.6691 152.364 88.1871C152.711 86.7858 152.936 85.4457 153.036 84.1773C153.217 81.8926 152.897 79.8556 152.38 78.032C151.273 74.1192 145.224 71.7942 141.363 73.1462C138.823 74.0357 136.878 76.004 135.583 78.999C135.305 79.6437 134.973 80.4212 134.61 81.2957C134.435 81.718 134.64 82.203 135.067 82.3701L135.065 82.3686Z" fill="#BCBDC0"/>
<path d="M151.568 89.1691C151.755 89.1691 151.94 89.1258 152.109 89.0378C152.413 88.8811 152.635 88.602 152.716 88.2722C153.067 86.8545 153.297 85.4861 153.397 84.2042C153.558 82.1449 153.34 80.093 152.729 77.9321C152.244 76.2205 150.857 74.6983 148.821 73.6433C146.337 72.3584 143.433 72.0361 141.243 72.8031C138.604 73.7268 136.588 75.7623 135.25 78.8529C134.922 79.6124 134.593 80.3869 134.274 81.1555C134.151 81.4494 134.153 81.7733 134.278 82.0673C134.403 82.3612 134.636 82.5866 134.932 82.7045C134.937 82.706 134.941 82.7074 134.944 82.7089H134.946C135.53 82.9402 136.215 82.6507 136.462 82.0583C136.772 81.3166 137.097 80.5496 137.431 79.7796C138.512 77.2845 140.077 75.6594 142.086 74.9505C143.733 74.37 146.189 74.6938 148.056 75.7399C149.405 76.495 150.279 77.5367 150.52 78.6723C150.858 80.2765 151.49 83.2626 150.409 87.7066C150.271 88.2767 150.578 88.8676 151.124 89.0825C151.268 89.1392 151.419 89.1676 151.568 89.1676V89.1691ZM143.809 73.121C145.342 73.121 147.012 73.5224 148.485 74.285C150.342 75.246 151.601 76.6114 152.03 78.1291C152.618 80.2064 152.829 82.1762 152.674 84.149C152.575 85.3921 152.352 86.7217 152.011 88.1006C151.979 88.2304 151.895 88.3364 151.776 88.3976C151.656 88.4587 151.521 88.4662 151.397 88.417C151.178 88.3304 151.06 88.1021 151.114 87.8797C152.234 83.276 151.581 80.187 151.229 78.5261C150.945 77.183 149.945 75.9697 148.412 75.1117C146.343 73.9537 143.704 73.6164 141.845 74.2715C139.637 75.0505 137.929 76.8069 136.766 79.4945C136.432 80.2676 136.104 81.0376 135.795 81.7822C135.699 82.012 135.432 82.124 135.202 82.0329L135.067 82.3687L135.2 82.0329C135.085 81.9882 134.995 81.9001 134.947 81.7867C134.899 81.6733 134.898 81.5479 134.946 81.433C135.263 80.6675 135.59 79.896 135.917 79.1409C137.172 76.2428 139.044 74.3417 141.486 73.4866C142.183 73.2418 142.977 73.1225 143.812 73.1225L143.809 73.121Z" fill="#231F20"/>
<path d="M117.275 81.7433C117.31 81.7433 117.343 81.7388 117.377 81.7284C117.569 81.6717 117.68 81.4717 117.623 81.2807L113.289 66.5249C114.083 66.1668 115.413 65.4385 116.814 64.1253C117.898 63.1091 119.006 61.7585 119.982 60.5662C120.748 59.6305 121.411 58.8232 121.856 58.4307C122.006 58.2994 122.021 58.0696 121.887 57.9204C121.754 57.7711 121.525 57.7562 121.375 57.889C120.886 58.3203 120.206 59.1485 119.419 60.1096C118.457 61.284 117.364 62.6151 116.316 63.5985C114.838 64.9834 113.452 65.6758 112.758 65.9653C112.692 65.9922 112.645 66.0116 112.593 66.0638C112.499 66.1578 112.464 66.2936 112.502 66.4205L116.925 81.4822C116.972 81.6403 117.115 81.7418 117.272 81.7418L117.275 81.7433Z" fill="#231F20"/>
<path d="M40.4023 123.595L36.7484 118.076L40.4023 123.595Z" fill="#939598"/>
<path d="M40.4017 123.954C40.4706 123.954 40.5394 123.935 40.6008 123.895C40.7685 123.784 40.8134 123.56 40.7041 123.395L37.0501 117.876C36.9394 117.709 36.7148 117.664 36.5487 117.773C36.381 117.884 36.3361 118.107 36.4454 118.273L40.0993 123.792C40.1682 123.897 40.285 123.954 40.4017 123.954Z" fill="#231F20"/>
<path d="M71.9328 146.621C80.5236 146.621 89.8658 143.487 90.3463 143.324C90.5364 143.26 90.6367 143.054 90.5723 142.866C90.508 142.678 90.3014 142.577 90.1128 142.641C89.9691 142.688 75.6841 147.482 66.3688 145.337C66.1712 145.294 65.9781 145.413 65.9332 145.607C65.8883 145.801 66.0095 145.995 66.2041 146.04C67.9944 146.452 69.9434 146.621 71.9328 146.621Z" fill="#231F20"/>
<path d="M82.1599 105.391C83.4457 104.918 86.5293 103.562 86.3467 102.67C86.1641 101.777 86.0054 100.367 83.6373 101.407C81.2677 102.449 51.1499 115.714 50.5122 116.054C49.8745 116.394 48.2548 118.445 48.7668 118.421C49.2772 118.397 51.8908 118.458 53.3503 117.815C54.8113 117.172 74.3041 108.592 74.3041 108.592L82.1599 105.393V105.391Z" fill="#F0593E"/>
<path d="M48.2781 118.346L52.3213 118.157C51.754 117.363 51.2959 116.491 50.9666 115.775L50.8872 115.811L48.2766 118.346H48.2781Z" fill="#F0593E"/>
<path d="M70.6128 110.577C70.6622 110.577 70.7116 110.567 70.758 110.546L86.3573 103.68C86.4561 103.637 86.531 103.55 86.5594 103.447C86.8004 102.59 86.7271 101.897 86.3439 101.385C85.7675 100.616 84.7197 100.592 84.6748 100.591C84.6224 100.591 84.57 100.601 84.5236 100.622L67.8944 107.933C67.7118 108.013 67.628 108.227 67.7088 108.409C67.7896 108.591 68.0037 108.675 68.1863 108.594L84.7347 101.319C84.9278 101.338 85.4727 101.427 85.7661 101.82C85.9846 102.116 86.031 102.543 85.9038 103.09L70.4661 109.886C70.2835 109.967 70.1997 110.18 70.2805 110.362C70.3404 110.498 70.4736 110.577 70.6128 110.577Z" fill="#231F20"/>
<path d="M48.277 118.707C48.277 118.707 48.289 118.707 48.2935 118.707L52.0328 118.531C52.1645 118.525 52.2843 118.448 52.3412 118.328C52.3995 118.209 52.3876 118.069 52.3112 117.961C51.7723 117.207 51.3517 116.379 51.0927 115.818C51.0104 115.638 50.7978 115.557 50.6152 115.639L50.5419 115.672C50.5029 115.69 50.467 115.714 50.4371 115.744L48.0226 118.088C47.9148 118.192 47.8834 118.352 47.9432 118.491C48.0016 118.624 48.1318 118.709 48.2755 118.709L48.277 118.707ZM51.3577 117.839L49.2126 117.94L50.6407 116.552C50.8682 117.013 51.1092 117.445 51.3577 117.839Z" fill="#231F20"/>
<path d="M50.9657 116.136C51.0151 116.136 51.0645 116.126 51.1109 116.105L54.8636 114.454C55.0463 114.374 55.1301 114.16 55.0493 113.978C54.9684 113.796 54.7544 113.713 54.5717 113.793L50.819 115.444C50.6364 115.524 50.5525 115.738 50.6334 115.92C50.6933 116.055 50.8265 116.135 50.9657 116.135V116.136Z" fill="#231F20"/>
<path d="M52.3189 118.518C52.3189 118.518 52.3278 118.518 52.3323 118.518L52.473 118.512C52.5075 118.512 52.5419 118.504 52.5763 118.494L55.5881 117.479C55.7782 117.415 55.88 117.21 55.8157 117.021C55.7513 116.831 55.5462 116.731 55.3561 116.794L52.3937 117.792L52.3069 117.795C52.1063 117.803 51.9506 117.97 51.9581 118.17C51.9656 118.364 52.1258 118.518 52.3204 118.518H52.3189Z" fill="#231F20"/>
<path d="M87.0483 126.619C85.3957 125.984 83.8808 126.569 83.3614 124.362C82.842 122.154 79.0279 113.557 78.1237 112.467C77.2196 111.376 77.516 109.018 72.8696 108.182C69.488 107.575 67.0211 105.102 65.5661 105.102C64.2234 105.102 59.5141 106.709 58.4573 107.976C57.4005 109.242 56.3916 111.209 54.7809 112.608C55.0623 113.308 53.6552 118.63 55.1087 119.949C55.7883 120.567 58.1445 116.946 58.8555 117.442C59.3435 117.782 57.0008 122.111 57.3825 122.34C57.3825 122.34 57.628 124.132 61.4676 122.41C61.4676 122.41 60.0231 122.484 60.3674 125.032C60.7102 127.579 62.9705 127.215 65.1739 128.247C66.8864 129.05 67.4762 129.206 67.4762 129.206C67.4762 129.206 74.8275 134.812 78.5069 136.98C81.8076 138.925 85.2385 138.526 85.514 138.138C85.7894 137.75 87.0498 126.618 87.0498 126.618L87.0483 126.619Z" fill="#FDE7DC"/>
<path d="M86.7423 126.804C86.898 126.804 87.0417 126.704 87.0896 126.548C87.148 126.357 87.0402 126.155 86.8486 126.097L85.214 125.602C83.9985 124.159 81.1439 118.892 79.7817 115.257C79.5751 114.705 79.394 114.207 79.2293 113.754C78.2878 111.164 77.8582 109.98 76.3103 109.228C76.2011 109.175 65.1718 103.981 63.4713 104.857C62.2873 105.465 58.4013 107.494 58.078 108.084C58.0121 108.202 57.5496 108.73 57.1409 109.195C55.4254 111.153 54.6605 112.11 54.6605 112.61C54.6605 113.493 55.3985 113.871 55.4299 113.887C55.6096 113.977 55.8266 113.904 55.9164 113.726C56.0063 113.548 55.9344 113.334 55.7578 113.243C55.7353 113.231 55.3865 113.037 55.3865 112.61C55.4509 112.225 56.9613 110.5 57.6873 109.671C58.313 108.957 58.6184 108.606 58.7142 108.43C58.9627 108.111 61.5523 106.656 63.8037 105.499C64.7677 105.005 72.7432 108.297 75.993 109.877C77.2774 110.501 77.6231 111.453 78.5482 114.001C78.7129 114.454 78.8955 114.956 79.1036 115.511C80.4343 119.061 83.3833 124.633 84.738 126.157C84.7829 126.208 84.8397 126.243 84.9041 126.263L86.639 126.79C86.675 126.8 86.7094 126.804 86.7453 126.804H86.7423Z" fill="#231F20"/>
<path d="M55.831 120.406C57.2321 120.406 58.0704 118.43 58.1617 118.203C58.2365 118.018 58.1467 117.809 57.9611 117.733C57.7755 117.657 57.5644 117.748 57.4896 117.933C57.289 118.428 56.5854 119.707 55.807 119.682C55.1394 119.659 54.9702 119.08 54.8759 117.948C54.87 117.864 54.8625 117.784 54.855 117.707C54.7771 116.899 54.9792 115.114 55.0526 114.526C55.4657 113.904 60.1915 111.508 61.145 111.21C61.9444 111.009 70.9543 112.58 71.4662 112.696C71.6503 112.746 71.8434 112.644 71.9033 112.462C71.9662 112.273 71.8644 112.068 71.6743 112.005C71.5994 111.98 61.9264 110.206 60.928 110.521C60.4385 110.673 58.7934 111.453 57.4072 112.189C54.4149 113.777 54.3655 114.183 54.3385 114.399C54.2487 115.123 54.0496 116.902 54.135 117.776C54.1425 117.849 54.1484 117.925 54.1544 118.006C54.2278 118.885 54.349 120.356 55.7831 120.404C55.7995 120.404 55.816 120.404 55.8325 120.404L55.831 120.406Z" fill="#231F20"/>
<path d="M57.6233 118.363C57.6757 118.363 57.7281 118.352 57.7775 118.328C58.4286 118.022 59.1441 117.649 59.7743 117.319C60.4001 116.993 60.9913 116.684 61.1904 116.62C61.6754 116.523 65.8997 117.288 69.618 118.055C69.8126 118.095 70.0057 117.97 70.0462 117.775C70.0866 117.579 69.9608 117.388 69.7647 117.348C67.3457 116.848 61.644 115.711 60.9644 115.933C60.7204 116.014 60.2489 116.257 59.4375 116.681C58.8133 117.008 58.1053 117.376 57.4691 117.676C57.288 117.761 57.2101 117.976 57.2955 118.157C57.3568 118.288 57.4871 118.364 57.6233 118.364V118.363Z" fill="#231F20"/>
<path d="M58.8782 123.435C59.4919 123.435 60.2748 123.177 61.2463 122.657C61.4229 122.563 61.4888 122.344 61.3945 122.168C61.3002 121.992 61.0802 121.926 60.9035 122.02C59.3976 122.826 58.73 122.786 58.4336 122.609C58.1297 122.427 57.983 121.945 57.983 121.134C57.983 120.02 59.9934 117.6 60.7673 116.763C60.902 116.616 60.893 116.388 60.7463 116.252C60.5981 116.118 60.3691 116.127 60.2344 116.273C59.929 116.603 57.2585 119.54 57.2585 121.135C57.2585 121.829 57.3424 122.8 58.0624 123.23C58.2914 123.366 58.5623 123.435 58.8767 123.435H58.8782Z" fill="#231F20"/>
<path d="M69.0398 123.807C69.1805 123.807 69.3152 123.724 69.3736 123.586C69.4514 123.402 69.3661 123.19 69.1805 123.113C67.0429 122.211 60.6556 121.496 60.3846 121.467C60.1855 121.446 60.0074 121.588 59.985 121.786C59.9625 121.984 60.1062 122.164 60.3053 122.184C60.3712 122.192 66.8588 122.917 68.8991 123.778C68.9455 123.798 68.9934 123.807 69.0398 123.807Z" fill="#231F20"/>
<path d="M85.4091 138.87C85.5872 138.87 85.7414 138.74 85.7668 138.559C85.7953 138.361 85.656 138.179 85.4585 138.152C81.7641 137.637 78.652 136.712 78.1865 136.57C76.8108 135.519 74.9726 134.123 73.2317 132.801C71.2168 131.271 69.3158 129.826 68.4476 129.156C67.6707 128.556 66.5285 128.128 65.3205 127.675C63.882 127.134 62.3956 126.576 61.3507 125.684C60.8897 125.29 60.6666 124.875 60.6696 124.415C60.6756 123.46 61.6621 122.626 61.6725 122.619C61.8252 122.49 61.8462 122.263 61.7189 122.11C61.5917 121.958 61.3627 121.935 61.21 122.064C61.1591 122.105 59.9556 123.116 59.9466 124.408C59.9406 125.085 60.255 125.7 60.8807 126.233C62.0213 127.207 63.5691 127.789 65.066 128.351C66.2217 128.785 67.3129 129.194 68.0045 129.728C68.8742 130.399 70.7783 131.845 72.7946 133.375C74.5565 134.712 76.4186 136.127 77.7988 137.182C77.8332 137.207 77.8706 137.227 77.9095 137.24C77.9425 137.251 81.3075 138.303 85.3597 138.867C85.3761 138.87 85.3941 138.87 85.4106 138.87H85.4091Z" fill="#231F20"/>
<path d="M67.8585 112.061C68.0321 112.061 68.1863 111.935 68.2147 111.759C68.2477 111.562 68.1144 111.376 67.9168 111.343C67.4483 111.264 65.5173 110.356 64.4111 109.804C64.3048 109.752 64.1805 109.754 64.0773 109.809C63.6387 110.045 62.4501 110.494 62.4382 110.498C62.251 110.568 62.1567 110.777 62.2271 110.964C62.2974 111.15 62.507 111.244 62.6941 111.174C62.739 111.158 63.703 110.792 64.2494 110.531C64.917 110.862 67.1429 111.946 67.7971 112.056C67.8166 112.059 67.8375 112.061 67.857 112.061H67.8585Z" fill="#231F20"/>
<path d="M89.4196 131.45C89.7669 129.446 90.4719 126.991 90.4719 126.991C90.4719 126.991 90.9614 125.411 90.4719 125.321C89.9839 125.232 86.7296 123.941 86.3404 125.302C85.9512 126.661 84.8495 132.96 85.0336 134.491C85.2162 136.021 84.7163 138.765 85.9677 139.904C87.2191 141.041 89.9031 142.527 90.0618 142.435C90.2204 142.342 89.2654 140.769 89.3238 139.643C89.3822 138.516 89.4211 131.453 89.4211 131.453L89.4196 131.45Z" fill="#D8E9F1"/>
<path d="M140.832 150.714C145.628 150.714 149.61 150.423 151.326 149.793C155.595 148.226 163.424 137.68 164.248 135.391C164.431 134.882 164.891 134.115 165.527 133.051C167.512 129.731 171.208 123.55 174.505 112.092C174.561 111.899 174.45 111.701 174.257 111.646C174.065 111.59 173.863 111.701 173.808 111.893C170.535 123.262 166.871 129.389 164.903 132.683C164.245 133.781 163.771 134.575 163.564 135.148C162.784 137.313 155.083 147.646 151.074 149.116C147.164 150.55 128.056 150.174 118 148.028C108.628 146.028 92.3533 143.008 90.4717 142.66C87.5632 136.695 91.1797 125.166 91.2172 125.049C91.2501 124.948 91.2576 124.878 91.2007 124.788C91.2007 124.788 91.2022 124.752 91.2456 124.7C91.3773 124.542 92.0674 124.053 95.386 124.397C100.476 124.927 138.762 127.439 140.346 127.542C140.843 127.719 146.368 129.886 147.791 138.859C147.823 139.056 148.008 139.19 148.206 139.159C148.404 139.128 148.538 138.943 148.507 138.746C146.949 128.923 140.786 126.919 140.524 126.839C140.497 126.83 140.469 126.825 140.44 126.824C140.042 126.798 100.616 124.217 95.4594 123.678C92.72 123.393 91.1438 123.594 90.6423 124.294C90.4837 124.517 90.4582 124.751 90.4911 124.933C90.0975 126.201 86.8357 137.2 89.9044 143.146C89.9553 143.246 90.051 143.317 90.1603 143.336C90.337 143.369 107.947 146.621 117.846 148.734C123.754 149.993 133.294 150.714 140.828 150.714H140.832Z" fill="#231F20"/>
<path d="M89.4921 142.741C89.6133 142.741 89.7316 142.679 89.8005 142.571C89.9052 142.4 89.8543 142.178 89.6837 142.074C87.3066 140.602 85.883 139.546 85.4789 139.237C84.8472 132.411 86.4534 126.518 86.865 125.151L90.6657 125.848C90.8603 125.884 91.0519 125.754 91.0878 125.558C91.1237 125.361 90.9935 125.173 90.7974 125.138L86.6809 124.384C86.5042 124.353 86.3291 124.454 86.2722 124.624C86.2498 124.691 83.9954 131.474 84.7738 139.464C84.7828 139.562 84.8322 139.65 84.9085 139.711C84.9699 139.759 86.4294 140.911 89.3035 142.688C89.3634 142.726 89.4292 142.742 89.4936 142.742L89.4921 142.741Z" fill="#231F20"/>
<path d="M52.815 133.304C51.1743 132.805 47.5129 132.39 47.5129 133.732C47.5129 135.073 48.1266 135.623 50.8121 137.509C53.4975 139.394 55.2789 141.153 56.4135 140.083C57.5467 139.013 52.8165 133.304 52.8165 133.304H52.815Z" fill="#FDE7DC"/>
<path d="M54.4339 140.307C54.5835 140.307 54.7243 140.213 54.7767 140.063C54.8425 139.875 54.7422 139.67 54.5521 139.604C53.9938 139.411 50.0719 136.548 47.7307 134.787C47.5705 134.667 47.3445 134.699 47.2232 134.858C47.1035 135.018 47.1349 135.245 47.2951 135.364C47.9238 135.837 53.4654 139.996 54.3171 140.289C54.356 140.302 54.3964 140.308 54.4354 140.308L54.4339 140.307Z" fill="#231F20"/>
<path d="M28.8095 102.528L56.3901 144.19L83.9961 151.687L56.8002 109.57L28.8095 102.528Z" fill="#007EA4"/>
<path d="M83.9954 152.048C84.1091 152.048 84.2184 151.994 84.2873 151.9C84.3756 151.78 84.3816 151.617 84.2992 151.492L57.1049 109.375C57.0555 109.297 56.9776 109.242 56.8878 109.219L28.8971 102.177C28.7519 102.141 28.5992 102.197 28.5124 102.319C28.427 102.44 28.4226 102.603 28.5064 102.726L56.087 144.388C56.1364 144.461 56.2097 144.515 56.295 144.537L83.9011 152.035C83.9325 152.044 83.9639 152.048 83.9969 152.048H83.9954ZM56.572 109.885L83.1796 151.092L56.6169 143.878L29.6261 103.107L56.5735 109.886L56.572 109.885Z" fill="#231F20"/>
<path d="M34.2421 117.09C33.0551 116.32 31.3292 114.611 32.4713 113.465C33.6135 112.32 36.8707 113.968 37.706 114.583C38.5428 115.199 40.7372 116.787 38.6685 118.048C38.6685 118.048 39.5682 119.098 42.7371 120.094C45.9061 121.089 48.8385 121.313 47.1156 124.063C47.1156 124.063 48.864 124.248 50.5181 124.757C52.1722 125.266 52.1138 127.842 49.4717 128.071C49.4717 128.071 52.5628 127.489 51.2755 129.528C51.2755 129.528 48.0482 130.802 47.165 130.632L50.078 134.691C50.078 134.691 45.4944 135.915 41.104 133.541C36.7136 131.165 36.4261 131.793 36.8857 129.13C36.8857 129.13 36.9171 127.998 36.4261 127.269C35.9352 126.54 35.5549 125.273 36.3932 124.038C37.2315 122.801 35.7705 122.554 35.4636 121.598C34.8753 119.765 37.4036 117.933 37.4036 117.933L34.2392 117.088L34.2421 117.09Z" fill="#FDE7DC"/>
<path d="M47.0849 135.679C48.0983 135.679 49.1551 135.533 50.2374 135.178C50.4275 135.115 50.5308 134.911 50.4679 134.721C50.405 134.532 50.2015 134.429 50.0099 134.491C45.9173 135.836 42.1286 133.926 39.8638 132.786C39.3084 132.505 38.8279 132.263 38.4402 132.115C36.8146 131.496 37.3954 128.201 37.4029 128.167C37.4298 128.03 37.3729 127.888 37.2592 127.806C35.8311 126.784 36.2053 125.594 36.7547 124.363C36.876 124.09 36.9718 123.875 37.0032 123.69C37.0661 123.318 36.8415 122.923 36.5571 122.422C36.1425 121.689 35.6275 120.779 36.0033 119.874C36.1649 119.483 36.4478 119.228 36.867 119.092C37.7532 118.806 38.9252 119.165 39.3279 119.413C39.762 119.68 41.0389 120.079 43.0866 120.705C44.3261 121.084 45.6059 121.475 46.4592 121.792C46.8993 121.954 47.1582 122.183 47.2525 122.492C47.4187 123.033 47.0475 123.703 46.9112 123.921C46.5864 124.068 45.2796 124.575 43.8396 124.036C42.0208 123.357 37.6753 121.76 37.6319 121.744C37.4448 121.675 37.2352 121.771 37.1664 121.959C37.0975 122.145 37.1933 122.353 37.3819 122.423C37.4253 122.439 41.7694 124.035 43.5851 124.714C45.5536 125.451 47.26 124.56 47.3319 124.523C47.3813 124.496 47.4232 124.46 47.4561 124.414C47.4891 124.368 48.254 123.283 47.9471 122.28C47.7839 121.75 47.3693 121.358 46.7122 121.114C45.8395 120.792 44.5491 120.397 43.2992 120.014C41.7978 119.555 40.0958 119.034 39.7081 118.797C39.1123 118.431 37.7262 118.054 36.6439 118.404C36.0287 118.603 35.5751 119.016 35.3341 119.597C34.8237 120.826 35.4614 121.953 35.9269 122.775C36.0796 123.044 36.3086 123.45 36.2892 123.571C36.2742 123.665 36.1814 123.871 36.0931 124.069C35.6904 124.973 34.8641 126.822 36.6559 128.255C36.5332 129.104 36.2547 132.054 38.1843 132.79C38.5375 132.924 39.0016 133.159 39.5405 133.43C41.3203 134.327 44.0027 135.679 47.0879 135.679H47.0849Z" fill="#231F20"/>
<path d="M41.5301 132.356C41.5615 132.356 41.5944 132.351 41.6274 132.342C41.6708 132.33 45.9654 131.144 47.9668 131.089C49.6448 131.043 51.0833 130.943 51.6986 130.188C51.962 129.865 52.0518 129.458 51.965 128.977C51.736 127.701 50.1253 127.636 49.2107 127.795C49.0131 127.83 48.8829 128.018 48.9173 128.213C48.9517 128.41 49.1403 128.54 49.3364 128.507C49.3544 128.504 51.0953 128.228 51.2525 129.104C51.3169 129.462 51.2166 129.634 51.1372 129.732C50.6807 130.29 49.0356 130.337 47.9473 130.367C45.8576 130.425 41.6139 131.596 41.4343 131.645C41.2412 131.699 41.1289 131.898 41.1828 132.09C41.2277 132.25 41.3729 132.354 41.5315 132.354L41.5301 132.356Z" fill="#231F20"/>
<path d="M51.0996 136.307L47.4456 130.789L51.0996 136.307Z" fill="#939598"/>
<path d="M51.0998 136.669C51.1686 136.669 51.2375 136.649 51.2988 136.609C51.465 136.498 51.5114 136.275 51.4006 136.109L47.7467 130.59C47.6359 130.423 47.4114 130.379 47.2452 130.487C47.0791 130.598 47.0327 130.822 47.1434 130.987L50.7974 136.506C50.8662 136.612 50.983 136.669 51.0998 136.669Z" fill="#231F20"/>
<path d="M39.4008 118.455C39.4532 118.455 39.5041 118.455 39.5565 118.455C39.5895 118.455 39.6239 118.449 39.6553 118.44C39.7436 118.415 40.516 118.169 40.766 117.482C40.9232 117.051 40.8289 116.572 40.4876 116.06C40.4711 116.035 40.4502 116.011 40.4262 115.991C39.9173 115.539 35.3966 111.613 33.3324 112.859C32.4896 113.368 32.1229 114.325 32.3998 115.296C32.8369 116.83 34.9071 118.457 39.4008 118.457V118.455ZM39.4922 117.733H39.4008C35.3038 117.733 33.4431 116.32 33.0959 115.098C32.9087 114.439 33.1423 113.817 33.7066 113.477C34.9131 112.749 38.1315 114.932 39.9068 116.499C40.0939 116.791 40.1538 117.039 40.0849 117.235C39.9891 117.502 39.6583 117.672 39.4922 117.733Z" fill="#231F20"/>
<path d="M47.5359 128.573C49.0582 128.573 50.395 128.445 51.1464 128.01C52.1254 127.445 52.5161 126.594 52.1898 125.733C51.7856 124.665 50.4309 123.998 49.1705 124.25C47.2455 124.632 39.6082 123.401 39.5319 123.389C39.3328 123.356 39.1487 123.49 39.1158 123.687C39.0843 123.884 39.2175 124.069 39.4151 124.102C39.7355 124.154 47.262 125.368 49.3127 124.959C50.3201 124.759 51.2617 125.329 51.5117 125.988C51.7078 126.506 51.4488 127.002 50.7842 127.385C49.6435 128.043 46.4656 127.855 43.9134 127.703C41.3521 127.551 39.8747 127.482 39.2834 127.848C39.1143 127.952 39.0604 128.175 39.1667 128.345C39.2729 128.513 39.496 128.567 39.6651 128.461C40.0903 128.198 42.0991 128.318 43.8714 128.422C45.0839 128.494 46.3653 128.571 47.5374 128.571L47.5359 128.573Z" fill="#231F20"/>
<path d="M105.289 43.2152C106.489 45.288 107.973 46.6759 108.603 46.3132C109.232 45.9506 108.769 43.9763 107.567 41.9035C106.367 39.8307 104.883 38.4429 104.255 38.8055C103.626 39.1681 104.088 41.1424 105.289 43.2152Z" fill="#EAF7FD"/>
<path d="M108.377 46.7325C108.543 46.7325 108.678 46.6877 108.783 46.628C109.105 46.443 109.424 45.9535 109.123 44.6701C108.919 43.8031 108.477 42.757 107.88 41.7243C107.281 40.6917 106.594 39.7874 105.943 39.1785C104.979 38.2772 104.394 38.3085 104.072 38.4935C103.75 38.6786 103.43 39.1681 103.732 40.4514C103.936 41.3184 104.377 42.3645 104.975 43.3972C105.572 44.4299 106.261 45.3342 106.912 45.9431C107.56 46.5489 108.036 46.734 108.377 46.734V46.7325ZM104.482 39.1098C104.6 39.1098 104.912 39.2024 105.448 39.7053C106.048 40.2664 106.69 41.1125 107.253 42.0855C107.816 43.0585 108.23 44.0344 108.418 44.8343C108.618 45.6894 108.471 45.9729 108.421 46.0027C108.37 46.0311 108.049 46.0177 107.407 45.4163C106.807 44.8537 106.165 44.009 105.602 43.0361C105.038 42.0631 104.624 41.0871 104.437 40.2873C104.237 39.4322 104.383 39.1487 104.434 39.1188C104.443 39.1143 104.458 39.1098 104.481 39.1098H104.482Z" fill="#231F20"/>
<path d="M107.285 41.7976C107.345 41.7976 107.405 41.7827 107.46 41.7514L126.513 31.1904C126.688 31.0934 126.751 30.8741 126.653 30.6995C126.556 30.5249 126.336 30.4622 126.161 30.5592L107.108 41.1201C106.933 41.2171 106.87 41.4365 106.968 41.6111C107.033 41.7305 107.158 41.7976 107.285 41.7976Z" fill="#231F20"/>
<path d="M104.727 43.3929C104.892 43.3929 105.042 43.2795 105.08 43.1124C105.125 42.9184 105.004 42.7244 104.811 42.6796C104.645 42.6393 104.372 42.5154 104.32 42.3752C104.283 42.2752 104.372 42.123 104.431 42.0409C104.546 41.8782 104.506 41.6529 104.343 41.538C104.178 41.4231 103.953 41.4634 103.838 41.626C103.527 42.0678 103.561 42.4184 103.643 42.6348C103.856 43.1885 104.567 43.366 104.646 43.384C104.673 43.3899 104.702 43.3929 104.729 43.3929H104.727Z" fill="#231F20"/>
</g>
<defs>
<clipPath id="clip0_1_7117">
<rect width="210" height="160" fill="white" transform="matrix(-1 0 0 1 210 0)"/>
</clipPath>
</defs>
</svg>
