<svg width="32" height="32" viewBox="0 0 32 32" fill="none" xmlns="http://www.w3.org/2000/svg">
<path fill-rule="evenodd" clip-rule="evenodd" d="M12.5679 6.07728C7.54749 9.30147 4.75844 13.0541 4.20073 17.3353C3.3325 24 9.29265 27.2622 12.3126 24.3311C15.3325 21.4001 13.5222 17.6797 11.3355 16.6628C9.14874 15.6458 7.81147 16 8.04475 14.641C8.27804 13.2821 11.3891 9.51414 14.1223 7.75941C14.3036 7.60524 14.3726 7.30603 14.198 7.07907C14.0831 6.92979 13.8579 6.637 13.5222 6.20072C13.2287 5.81921 12.9475 5.83348 12.5679 6.07728Z" fill="#6BA315"/>
<path fill-rule="evenodd" clip-rule="evenodd" d="M25.7847 6.07728C20.7643 9.30147 17.9752 13.0541 17.4175 17.3353C16.5493 24 22.5094 27.2622 25.5294 24.3311C28.5493 21.4001 26.739 17.6797 24.5523 16.6628C22.3655 15.6458 21.0283 16 21.2616 14.641C21.4948 13.2821 24.6059 9.51414 27.3391 7.75941C27.5204 7.60524 27.5894 7.30603 27.4148 7.07907C27.2999 6.92979 27.0747 6.637 26.739 6.20072C26.4455 5.81921 26.1643 5.83348 25.7847 6.07728Z" fill="#6BA315"/>
</svg>
