<svg width="32" height="32" viewBox="0 0 32 32" fill="none" xmlns="http://www.w3.org/2000/svg">
<path d="M26.7355 17.2114C26.1379 18.7332 20.2872 19.217 14.2412 17.597C8.19528 15.977 4.38853 13.0349 4.84113 11.3448C5.86362 7.52885 11.3162 1.64151 19.1141 4.45913C26.912 7.27674 27.7579 13.3954 26.7355 17.2114Z" stroke="#F0593E" stroke-width="2" stroke-linecap="round" stroke-linejoin="round"/>
<path d="M18.6665 4.66659C18.6665 4.66659 15.9997 8.99992 13.9998 15.9999C11.9999 22.9999 11.9999 27.9999 11.9999 27.9999" stroke="#F0593E" stroke-width="2" stroke-linecap="round" stroke-linejoin="round"/>
<path d="M18.6668 4.66657C18.6668 4.66657 11.8627 5.89559 10 11.3332" stroke="#F0593E" stroke-width="2" stroke-linecap="round" stroke-linejoin="round"/>
<path d="M18.6669 4.66651C18.6669 4.66651 22.6667 8.66651 20.6666 14.6665" stroke="#F0593E" stroke-width="2" stroke-linecap="round" stroke-linejoin="round"/>
<path d="M6.6665 28.6665C6.6665 28.6665 12.6665 27.6665 17.3332 27.6665C21.9998 27.6665 25.9998 27.9998 25.9998 27.9998" stroke="#F0593E" stroke-width="2" stroke-linecap="round" stroke-linejoin="round"/>
<path d="M18.6664 4.66667C19.3332 4.66667 20.6665 4 21.2095 2.94652" stroke="#F0593E" stroke-width="2" stroke-linecap="round" stroke-linejoin="round"/>
<path d="M22.6668 27.3332C22.6668 26.2286 22.0002 24.6665 20.0002 24.6665C18.0002 24.6665 17.3335 26.2286 17.3335 27.3332" stroke="#F0593E" stroke-width="2" stroke-linecap="round" stroke-linejoin="round"/>
</svg>
