<svg width="24" height="24" viewBox="0 0 24 24" fill="none" xmlns="http://www.w3.org/2000/svg">
<path fill-rule="evenodd" clip-rule="evenodd" d="M12 24C18.6274 24 24 18.6274 24 12C24 5.37258 18.6274 0 12 0C5.37258 0 0 5.37258 0 12C0 18.6274 5.37258 24 12 24ZM17.6194 7.76304C17.7138 6.68991 16.5806 7.13179 16.5806 7.13179C15.7439 7.47818 14.8809 7.83019 14.0086 8.18601C11.3041 9.28918 8.51001 10.4289 6.12988 11.5506C4.83927 12.024 5.59475 12.4974 5.59475 12.4974L7.64083 13.1287C8.58517 13.4127 9.08883 13.0971 9.08883 13.0971L13.4958 10.0987C15.0697 9.02554 14.6919 9.9093 14.3142 10.288L11.009 13.4443C10.5053 13.8862 10.7572 14.2649 10.9775 14.4543C11.6019 15.0053 13.1379 16.0132 13.8087 16.4534C13.9833 16.568 14.0993 16.6441 14.1253 16.6637C14.2827 16.7899 15.1326 17.3581 15.6992 17.2318C16.2658 17.1056 16.3288 16.3796 16.3288 16.3796L17.0843 11.4243C17.1976 10.5639 17.3276 9.73697 17.4314 9.07652C17.5294 8.45284 17.6041 7.97765 17.6194 7.76304Z" fill="#56A5C4"/>
</svg>
