<svg width="25" height="24" viewBox="0 0 25 24" fill="none" xmlns="http://www.w3.org/2000/svg">
<g id="Health/composition">
<g id="&#231;&#148;&#187;&#230;&#157;&#191;">
<path id="&#232;&#183;&#175;&#229;&#190;&#132;" d="M20.5137 10.893L11.5839 19.8227C9.87678 21.5298 7.06825 21.4891 5.31089 19.7318C3.55353 17.9744 3.51282 15.1659 5.21997 13.4587L14.1497 4.52899" stroke="#F0593E" stroke-width="2" stroke-linecap="round"/>
<path id="&#232;&#183;&#175;&#229;&#190;&#132; 195" d="M4.9668 13.7119L18.0388 13.3678" stroke="#F0593E" stroke-width="2" stroke-linecap="round"/>
<path id="&#230;&#164;&#173;&#229;&#156;&#134;&#229;&#189;&#162;" d="M15.2971 10.4534C15.6876 10.0629 15.6876 9.42976 15.2971 9.03923C14.9066 8.64871 14.2734 8.64871 13.8829 9.03923C13.4924 9.42976 13.4924 10.0629 13.8829 10.4534C14.2734 10.844 14.9066 10.844 15.2971 10.4534Z" fill="#F0593E"/>
<path id="&#230;&#164;&#173;&#229;&#156;&#134;&#229;&#189;&#162;&#229;&#164;&#135;&#228;&#187;&#189;" d="M12.467 11.8678C12.8575 11.4772 12.8575 10.8441 12.467 10.4535C12.0765 10.063 11.4433 10.063 11.0528 10.4535C10.6623 10.8441 10.6623 11.4772 11.0528 11.8678C11.4433 12.2583 12.0765 12.2583 12.467 11.8678Z" fill="#F0593E"/>
<path id="&#232;&#183;&#175;&#229;&#190;&#132; 194" d="M12.3828 2.76123L22.2823 12.6607" stroke="#F0593E" stroke-width="2" stroke-linecap="round"/>
</g>
</g>
</svg>
