<svg width="24" height="24" viewBox="0 0 24 24" fill="none" xmlns="http://www.w3.org/2000/svg">
<path fill-rule="evenodd" clip-rule="evenodd" d="M12 24C18.6274 24 24 18.6274 24 12C24 5.37258 18.6274 0 12 0C5.37258 0 0 5.37258 0 12C0 18.6274 5.37258 24 12 24ZM6 8C6.09744 12.997 8.43594 16 12.5359 16H12.7683V13.1411C14.2749 13.3013 15.414 14.4785 15.8713 16H18C17.4154 13.7257 15.8788 12.4685 14.9194 11.988C15.8788 11.3954 17.2279 9.95395 17.5502 8H15.6164C15.1966 9.58559 13.9526 11.027 12.7683 11.1632V8H10.8344V13.5415C9.63519 13.2212 8.12117 11.6677 8.05372 8H6Z" fill="#56A5C4"/>
</svg>
